<svg xmlns="http://www.w3.org/2000/svg" xmlns:xlink="http://www.w3.org/1999/xlink" width="14" height="14" viewBox="0 0 14 14">
  <defs>
    <style>
      .cls-1 {
        fill: #222;
      }

      .cls-2 {
        clip-path: url(#clip-path);
      }
    </style>
    <clipPath id="clip-path">
      <rect id="Rectangle_11449" data-name="Rectangle 11449" class="cls-1" width="14" height="14"/>
    </clipPath>
  </defs>
  <g id="icon_free" class="cls-2">
    <g id="free" transform="translate(0 -0.481)">
      <g id="Group_15249" data-name="Group 15249" transform="translate(10.686 3.157)">
        <g id="Group_15248" data-name="Group 15248">
          <path id="Path_16820" data-name="Path 16820" class="cls-1" d="M12.342,3.579a.313.313,0,1,0,0,.443h0a.313.313,0,0,0,0-.443Z" transform="translate(-11.807 -3.488)"/>
        </g>
      </g>
      <g id="Group_15251" data-name="Group 15251" transform="translate(5.319 7.721)">
        <g id="Group_15250" data-name="Group 15250">
          <path id="Path_16821" data-name="Path 16821" class="cls-1" d="M6.594,8.655a.286.286,0,0,0-.465-.008L5.877,8.9l.473.473L6.6,9.12a.286.286,0,0,0-.008-.465Z" transform="translate(-5.877 -8.531)"/>
        </g>
      </g>
      <g id="Group_15253" data-name="Group 15253">
        <g id="Group_15252" data-name="Group 15252">
          <path id="Path_16822" data-name="Path 16822" class="cls-1" d="M14.46,5.59l-.69-3.816A1.324,1.324,0,0,0,12.707.711L8.891.021A1.319,1.319,0,0,0,7.724.386L.386,7.724a1.318,1.318,0,0,0,0,1.865l4.506,4.506a1.318,1.318,0,0,0,1.865,0l7.338-7.338A1.319,1.319,0,0,0,14.46,5.59ZM5.432,10.938a.457.457,0,0,1-.28.28A.14.14,0,0,1,5,11.186L3.389,9.571a.142.142,0,0,1-.039-.141.319.319,0,0,1,.09-.154l.882-.882a.138.138,0,0,1,.14-.038.322.322,0,0,1,.15.089A.327.327,0,0,1,4.7,8.6a.14.14,0,0,1-.037.139L4.009,9.4l.43.43.384-.384A.143.143,0,0,1,4.956,9.4.264.264,0,0,1,5.1,9.48a.26.26,0,0,1,.074.135.142.142,0,0,1-.043.135l-.384.384.656.656A.14.14,0,0,1,5.432,10.938Zm2.162-2.2a.37.37,0,0,1-.1.235.187.187,0,0,1-.2.053L6.265,8.7,6.1,8.867l.613.613a.14.14,0,0,1,.032.149.457.457,0,0,1-.28.28.139.139,0,0,1-.149-.032L4.7,8.259a.169.169,0,0,1,0-.242l.526-.526q.626-.626,1.17-.081a.7.7,0,0,1,.208.824l.872.252a.109.109,0,0,1,.058.033A.261.261,0,0,1,7.593,8.739ZM9,7.435l-.905.905a.319.319,0,0,1-.154.09A.142.142,0,0,1,7.8,8.391L6.183,6.777a.142.142,0,0,1-.039-.141.319.319,0,0,1,.09-.154l.905-.905a.138.138,0,0,1,.14-.038.322.322,0,0,1,.15.089.327.327,0,0,1,.093.156.14.14,0,0,1-.037.139L6.8,6.6l.43.43.381-.381a.143.143,0,0,1,.133-.042.264.264,0,0,1,.141.078.26.26,0,0,1,.074.135.142.142,0,0,1-.043.135l-.381.381.432.432.682-.682a.14.14,0,0,1,.139-.037.326.326,0,0,1,.156.093.323.323,0,0,1,.089.15A.138.138,0,0,1,9,7.435Zm1.371-1.371-.905.905a.319.319,0,0,1-.154.09.142.142,0,0,1-.141-.039L7.554,5.406a.142.142,0,0,1-.039-.141.319.319,0,0,1,.09-.154l.905-.905a.138.138,0,0,1,.14-.038.322.322,0,0,1,.15.089.327.327,0,0,1,.093.156.14.14,0,0,1-.037.139l-.682.682.43.43.381-.381a.143.143,0,0,1,.133-.042.264.264,0,0,1,.141.078.26.26,0,0,1,.074.135.142.142,0,0,1-.043.135l-.381.381.432.432.682-.682a.14.14,0,0,1,.139-.037.36.36,0,0,1,.245.243A.138.138,0,0,1,10.369,6.065Zm1.452-1.773a1.162,1.162,0,1,1,.34-.822A1.159,1.159,0,0,1,11.821,4.292Z" transform="translate(0 0)"/>
        </g>
      </g>
    </g>
  </g>
</svg>
