<svg xmlns="http://www.w3.org/2000/svg" xmlns:xlink="http://www.w3.org/1999/xlink" width="14" height="14" viewBox="0 0 14 14">
  <defs>
    <style>
      .cls-1 {
        fill: #222;
      }

      .cls-2 {
        clip-path: url(#clip-path);
      }
    </style>
    <clipPath id="clip-path">
      <rect id="Rectangle_11458" data-name="Rectangle 11458" class="cls-1" width="14" height="14"/>
    </clipPath>
  </defs>
  <g id="icon_smb" class="cls-2">
    <g id="my-business" transform="translate(0 0.769)">
      <path id="Path_16836" data-name="Path 16836" class="cls-1" d="M12.712,9.47A2.268,2.268,0,0,1,10.853,8.5a2.267,2.267,0,0,1-3.717,0,2.267,2.267,0,0,1-3.717,0,2.265,2.265,0,0,1-2.482.881v4.888h12.4V9.383A2.262,2.262,0,0,1,12.712,9.47Z" transform="translate(-0.115 -1.852)"/>
      <path id="Path_16837" data-name="Path 16837" class="cls-1" d="M11.738.926,12.519,5.4h2.791L13.748.926Z" transform="translate(-1.435 -0.926)"/>
      <path id="Path_16838" data-name="Path 16838" class="cls-1" d="M8.469,5.4h2.816L10.5.926H8.469Z" transform="translate(-1.035 -0.926)"/>
      <path id="Path_16839" data-name="Path 16839" class="cls-1" d="M7.139,5.4V.926H5.1L4.323,5.4Z" transform="translate(-0.529 -0.926)"/>
      <path id="Path_16840" data-name="Path 16840" class="cls-1" d="M2.983,5.4,3.764.926H1.755L.192,5.4Z" transform="translate(-0.023 -0.926)"/>
      <path id="Path_16841" data-name="Path 16841" class="cls-1" d="M1.447,8.459A1.449,1.449,0,0,0,2.894,7.012V6.961H0v.051A1.449,1.449,0,0,0,1.447,8.459Z" transform="translate(0 -1.664)"/>
      <path id="Path_16842" data-name="Path 16842" class="cls-1" d="M7.128,7.012V6.961H4.234v.051a1.447,1.447,0,1,0,2.894,0Z" transform="translate(-0.518 -1.664)"/>
      <path id="Path_16843" data-name="Path 16843" class="cls-1" d="M11.363,7.012V6.961H8.469v.051a1.447,1.447,0,1,0,2.894,0Z" transform="translate(-1.035 -1.664)"/>
      <path id="Path_16844" data-name="Path 16844" class="cls-1" d="M14.15,8.459A1.449,1.449,0,0,0,15.6,7.012V6.961H12.7v.051A1.449,1.449,0,0,0,14.15,8.459Z" transform="translate(-1.553 -1.664)"/>
    </g>
  </g>
</svg>
