<svg xmlns="http://www.w3.org/2000/svg" xmlns:xlink="http://www.w3.org/1999/xlink" width="14" height="14" viewBox="0 0 14 14">
  <defs>
    <style>
      .cls-1 {
        fill: #222;
      }

      .cls-2 {
        clip-path: url(#clip-path);
      }
    </style>
    <clipPath id="clip-path">
      <rect id="Rectangle_11451" data-name="Rectangle 11451" class="cls-1" width="14" height="14"/>
    </clipPath>
  </defs>
  <g id="icon_startup" class="cls-2">
    <g id="rocket" transform="translate(0 -0.055)">
      <path id="Path_16823" data-name="Path 16823" class="cls-1" d="M13.869,0a10.884,10.884,0,0,0-7.853,3.61A7.432,7.432,0,0,0,.923,5.78a.293.293,0,0,0,.164.5L3.344,6.6l-.279.312a.293.293,0,0,0,.012.4L6.84,11.08a.294.294,0,0,0,.4.011l.312-.279.323,2.257a.291.291,0,0,0,.207.226.269.269,0,0,0,.084.013.331.331,0,0,0,.227-.094,7.416,7.416,0,0,0,2.15-5.074A10.831,10.831,0,0,0,14.155.288.294.294,0,0,0,13.869,0Zm-2.7,5.055a1.464,1.464,0,1,1,0-2.071A1.46,1.46,0,0,1,11.17,5.057Z" transform="translate(-0.101 -0.001)"/>
      <path id="Path_16824" data-name="Path 16824" class="cls-1" d="M1.6,11.2C.969,11.823.108,14.654.012,14.975a.293.293,0,0,0,.281.377.3.3,0,0,0,.084-.012c.32-.1,3.151-.956,3.778-1.583A1.81,1.81,0,0,0,1.6,11.2Z" transform="translate(0 -1.297)"/>
    </g>
  </g>
</svg>
