<svg xmlns="http://www.w3.org/2000/svg" width="20" height="20" viewBox="0 0 20 20">
  <g id="chat_icon" transform="translate(3 1)">
    <g id="Ellipse_6" data-name="Ellipse 6" transform="translate(-3 -1)" fill="#fff" stroke="#472dc2" stroke-width="0.7">
      <circle cx="10" cy="10" r="10" stroke="none"/>
      <circle cx="10" cy="10" r="9.65" fill="none"/>
    </g>
    <g id="chat-24px" transform="translate(1 3)">
      <path id="Path_17" data-name="Path 17" d="M10.1,2H2.9a.9.9,0,0,0-.9.9L2,11,3.8,9.2h6.3a.9.9,0,0,0,.9-.9V2.9A.9.9,0,0,0,10.1,2ZM3.8,5.15H9.2v.9H3.8ZM7.4,7.4H3.8V6.5H7.4ZM9.2,4.7H3.8V3.8H9.2Z" fill="#472dc2"/>
      <path id="Path_18" data-name="Path 18" d="M0,0H13V13H0Z" fill="none"/>
    </g>
  </g>
</svg>
