<svg xmlns="http://www.w3.org/2000/svg" width="22" height="42.07" viewBox="0 0 22 42.07">
  <g id="big_stars" data-name="big stars" transform="translate(-12369 -5713)">
    <rect id="Rectangle_11643" data-name="Rectangle 11643" width="22" height="42" transform="translate(12369 5713)" fill="none"/>
    <path id="star_1_" data-name="star (1)" d="M17.677,9.236A1.385,1.385,0,0,0,18,7.85a1.3,1.3,0,0,0-1.046-.921l-4.375-.664a.574.574,0,0,1-.431-.327L10.2,1.8a1.273,1.273,0,0,0-2.324,0L5.916,5.939a.574.574,0,0,1-.431.327L1.11,6.929A1.3,1.3,0,0,0,.064,7.85,1.385,1.385,0,0,0,.391,9.236l3.166,3.221a.614.614,0,0,1,.165.529l-.747,4.548a1.366,1.366,0,0,0,.283,1.1,1.272,1.272,0,0,0,1.6.329l3.913-2.147a.564.564,0,0,1,.533,0l3.913,2.147a1.24,1.24,0,0,0,.6.157,1.278,1.278,0,0,0,.994-.486,1.365,1.365,0,0,0,.283-1.1l-.747-4.548a.614.614,0,0,1,.165-.529Z" transform="translate(12371.001 5735.953)" fill="#f5a623"/>
    <path id="star_1_2" data-name="star (1)" d="M17.677,9.236A1.385,1.385,0,0,0,18,7.85a1.3,1.3,0,0,0-1.046-.921l-4.375-.664a.574.574,0,0,1-.431-.327L10.2,1.8a1.273,1.273,0,0,0-2.324,0L5.916,5.939a.574.574,0,0,1-.431.327L1.11,6.929A1.3,1.3,0,0,0,.064,7.85,1.385,1.385,0,0,0,.391,9.236l3.166,3.221a.614.614,0,0,1,.165.529l-.747,4.548a1.366,1.366,0,0,0,.283,1.1,1.272,1.272,0,0,0,1.6.329l3.913-2.147a.564.564,0,0,1,.533,0l3.913,2.147a1.24,1.24,0,0,0,.6.157,1.278,1.278,0,0,0,.994-.486,1.365,1.365,0,0,0,.283-1.1l-.747-4.548a.614.614,0,0,1,.165-.529Z" transform="translate(12371.001 5711.953)" fill="#e0e0e0"/>
  </g>
</svg>