<svg xmlns="http://www.w3.org/2000/svg" width="24" height="24" viewBox="0 0 24 24">
  <defs>
    <style>
      .cls-1 {
        fill: #fff;
      }

      .cls-2 {
        fill: none;
      }

      .cls-3 {
        fill: #1b1b1b;
      }
    </style>
  </defs>
  <g id="button_like" transform="translate(-22975 -504.5)">
    <g id="Group_15030" data-name="Group 15030" transform="translate(22975 504.5)">
      <rect id="Rectangle_11292" data-name="Rectangle 11292" class="cls-1" width="24" height="24" rx="12" transform="translate(0 0)"/>
      <g id="Group_15031" data-name="Group 15031" transform="translate(6.309 7.268)">
        <path id="favorite_FILL0_wght400_GRAD0_opsz24" class="cls-2" d="M8.084,5.586A3.742,3.742,0,0,0,7.1,4.592,2.282,2.282,0,0,0,5.826,4.25,2.174,2.174,0,0,0,3.6,6.476a3.315,3.315,0,0,0,.588,1.757A12.123,12.123,0,0,0,5.6,10.038q.819.875,1.686,1.638t1.407,1.256q.541-.493,1.408-1.256t1.686-1.638a12.146,12.146,0,0,0,1.407-1.805,3.315,3.315,0,0,0,.588-1.757A2.174,2.174,0,0,0,11.551,4.25a2.282,2.282,0,0,0-1.272.342,3.742,3.742,0,0,0-.986.994.724.724,0,0,1-.27.239.741.741,0,0,1-.668,0A.724.724,0,0,1,8.084,5.586ZM8.689,8.591Z" transform="translate(-2.698 -3.428)"/>
        <path id="favorite_FILL0_wght400_GRAD0_opsz24-2" data-name="favorite_FILL0_wght400_GRAD0_opsz24" class="cls-3" d="M7.061,12.684l-1.009-.921q-1.55-1.419-2.8-2.816A4.514,4.514,0,0,1,2,5.868,3.149,3.149,0,0,1,5.218,2.65a3.347,3.347,0,0,1,1.463.329,3.488,3.488,0,0,1,1.17.9,3.488,3.488,0,0,1,1.17-.9,3.347,3.347,0,0,1,1.463-.329A3.149,3.149,0,0,1,13.7,5.868a4.557,4.557,0,0,1-1.243,3.086,35.018,35.018,0,0,1-2.823,2.823l-.995.907a1.13,1.13,0,0,1-1.58,0Zm.234-7.635a3.442,3.442,0,0,0-.907-.914,2.1,2.1,0,0,0-1.17-.314A2,2,0,0,0,3.17,5.868a3.049,3.049,0,0,0,.541,1.616,11.151,11.151,0,0,0,1.295,1.66q.753.8,1.55,1.507t1.294,1.156q.5-.453,1.295-1.156T10.7,9.144a11.172,11.172,0,0,0,1.294-1.66,3.049,3.049,0,0,0,.541-1.616A2,2,0,0,0,10.484,3.82a2.1,2.1,0,0,0-1.17.314,3.442,3.442,0,0,0-.907.914.666.666,0,0,1-.249.219.682.682,0,0,1-.614,0,.666.666,0,0,1-.249-.219ZM7.851,7.813Z" transform="translate(-2 -2.65)"/>
      </g>
    </g>
  </g>
</svg>
