<svg xmlns="http://www.w3.org/2000/svg" width="20.006" height="20.007" viewBox="0 0 20.006 20.007">
    <g data-name="Group 66">
        <path data-name="Path 34" d="M15.216 57.452a1.4 1.4 0 0 0-2.119 0c-.5.491-.991.983-1.478 1.482a.292.292 0 0 1-.408.075c-.321-.175-.662-.316-.97-.508a15.369 15.369 0 0 1-3.705-3.372A8.778 8.778 0 0 1 5.208 53a.3.3 0 0 1 .075-.391c.5-.479.978-.97 1.465-1.461a1.407 1.407 0 0 0 0-2.169c-.387-.391-.774-.774-1.162-1.166s-.8-.8-1.2-1.2a1.411 1.411 0 0 0-2.119 0c-.5.491-.978 1-1.486 1.478a2.413 2.413 0 0 0-.761 1.634 6.9 6.9 0 0 0 .533 2.968 18.038 18.038 0 0 0 3.2 5.333 19.812 19.812 0 0 0 6.561 5.133 9.489 9.489 0 0 0 3.635 1.057 2.664 2.664 0 0 0 2.286-.87c.425-.475.9-.908 1.353-1.361a1.416 1.416 0 0 0 .008-2.157q-1.185-1.192-2.38-2.376z" transform="translate(-.006 -44.217)" style="fill:#3473de"/>
        <path data-name="Path 35" d="m242.367 101.92 1.536-.262A6.9 6.9 0 0 0 238.07 96l-.216 1.545a5.329 5.329 0 0 1 4.513 4.376z" transform="translate(-227.952 -92.003)" style="fill:#3473de"/>
        <path data-name="Path 36" d="M249.465 3.239A11.328 11.328 0 0 0 242.97 0l-.216 1.545a9.884 9.884 0 0 1 8.364 8.106l1.536-.262a11.411 11.411 0 0 0-3.189-6.15z" transform="translate(-232.648)" style="fill:#3473de"/>
    </g>
</svg>
