<svg xmlns="http://www.w3.org/2000/svg" width="40" height="40" viewBox="0 0 40 40">
  <defs>
    <style>
      .cls-1 {
        fill: #f7f7f7;
      }

      .cls-2 {
        fill: #1b1b1b;
      }
    </style>
  </defs>
  <g id="call" transform="translate(9.332 10.667)">
    <rect id="Rectangle_11292" data-name="Rectangle 11292" class="cls-1" width="40" height="40" rx="20" transform="translate(-9.332 -10.667)"/>
    <path id="icon_call" class="cls-2" d="M20.86,21.851a11.875,11.875,0,0,1-5.339-1.321A18.126,18.126,0,0,1,10.755,17.1a18.126,18.126,0,0,1-3.434-4.766A11.875,11.875,0,0,1,6,6.991.977.977,0,0,1,6.991,6h3.082a.779.779,0,0,1,.539.209.973.973,0,0,1,.3.561L11.5,9.544a1.583,1.583,0,0,1-.011.561.848.848,0,0,1-.231.429l-2.2,2.224a18.278,18.278,0,0,0,2.763,3.566A15.27,15.27,0,0,0,15.29,18.9l2.091-2.158a1.217,1.217,0,0,1,.506-.341,1.018,1.018,0,0,1,.572-.033l2.62.572a.962.962,0,0,1,.771.947V20.86a.977.977,0,0,1-.991.991Z" transform="translate(-3.682 -4.475)"/>
  </g>
</svg>
