<svg xmlns="http://www.w3.org/2000/svg" xmlns:xlink="http://www.w3.org/1999/xlink" width="19" height="19" viewBox="0 0 19 19">
  <defs>
    <style>
      .cls-1, .cls-4 {
        fill: #fff;
      }

      .cls-1 {
        stroke: #707070;
      }

      .cls-2 {
        clip-path: url(#clip-path);
      }

      .cls-3 {
        fill: #1a73e8;
      }
    </style>
    <clipPath id="clip-path">
      <rect id="Rectangle_11424" data-name="Rectangle 11424" class="cls-1" width="19" height="19" transform="translate(265 1258)"/>
    </clipPath>
  </defs>
  <g id="circle_fill_arrow" class="cls-2" transform="translate(-265 -1258)">
    <g id="Group_13027" data-name="Group 13027" transform="translate(-2 3.689)">
      <circle id="Ellipse_7" data-name="Ellipse 7" class="cls-3" cx="8" cy="8" r="8" transform="translate(269 1256.311)"/>
      <path id="chevron_right_FILL0_wght600_GRAD200_opsz48" class="cls-4" d="M16.89,18.935a.6.6,0,0,1-.208-.452.559.559,0,0,1,.208-.437l2.669-2.532-2.685-2.547a.552.552,0,0,1-.2-.452.6.6,0,0,1,.216-.452.591.591,0,0,1,.455-.188.671.671,0,0,1,.455.188L21,15.077a.793.793,0,0,1,.144.188.5.5,0,0,1,.064.249.456.456,0,0,1-.064.241,1.358,1.358,0,0,1-.144.2l-3.18,2.984a.6.6,0,0,1-.463.188A.68.68,0,0,1,16.89,18.935Z" transform="translate(258.216 1248.657)"/>
    </g>
  </g>
</svg>
