<svg xmlns="http://www.w3.org/2000/svg" xmlns:xlink="http://www.w3.org/1999/xlink" width="41" height="41" viewBox="0 0 41 41">
  <defs>
    <clipPath id="clip-path">
      <rect id="Rectangle_5" data-name="Rectangle 5" width="40" height="40" rx="1" fill="none"/>
    </clipPath>
  </defs>
  <g id="Group_24" data-name="Group 24" transform="translate(0.5 0.5)">
    <rect id="Rectangle_15" data-name="Rectangle 15" width="40" height="40" rx="4" fill="none" stroke="#535353" stroke-width="1"/>
    <g id="Group_23" data-name="Group 23" clip-path="url(#clip-path)">
      <path id="Path_11" data-name="Path 11" d="M44.486,48.579H14.093A4.1,4.1,0,0,1,10,44.486V14.093A4.1,4.1,0,0,1,14.093,10H44.486a4.1,4.1,0,0,1,4.093,4.093V44.486a4.1,4.1,0,0,1-4.093,4.093" transform="translate(-9.29 -9.29)" fill="#fff"/>
      <path id="Path_12" data-name="Path 12" d="M5.185,3.992h.5a.631.631,0,0,1,.422.12.424.424,0,0,1,.139.339.42.42,0,0,1-.139.335.631.631,0,0,1-.422.12h-.5Zm6.153,1.664a.86.86,0,0,0,.326-.06.782.782,0,0,0,.262-.173.791.791,0,0,0,.175-.267.975.975,0,0,0,0-.685.805.805,0,0,0-.173-.267.759.759,0,0,0-.262-.173.875.875,0,0,0-.328-.06.86.86,0,0,0-.326.06.781.781,0,0,0-.262.173.791.791,0,0,0-.175.267.97.97,0,0,0,0,.683.8.8,0,0,0,.173.269.755.755,0,0,0,.262.173.874.874,0,0,0,.328.06M7.9,4.911h.5a.624.624,0,0,0,.422-.122.425.425,0,0,0,.139-.337.424.424,0,0,0-.139-.339.631.631,0,0,0-.422-.12H7.9Zm23.128-.335a.625.625,0,0,0,.341-.077.261.261,0,0,0,.119-.235.258.258,0,0,0-.119-.232.625.625,0,0,0-.341-.077h-.606v.621ZM7.094,30.464a7.074,7.074,0,0,0-.916-.007v3.358s.283,0,.892,0a.854.854,0,0,0,.9-.769,8.749,8.749,0,0,0,0-1.765.919.919,0,0,0-.876-.821M21.052,17.44a1.35,1.35,0,1,0-1.753,1.4l-.942,2.973h2.7l-.942-2.973a1.35,1.35,0,0,0,.938-1.4M40,4.093V35.907A4.1,4.1,0,0,1,35.907,40H4.093A4.1,4.1,0,0,1,0,35.907V4.093A4.1,4.1,0,0,1,4.093,0H35.907A4.1,4.1,0,0,1,40,4.093m-7.722-.6,1.021,1.7v.94h.61V5.2l1.024-1.7h-.6l-.706,1.17-.7-1.17ZM29.819,6.131h1.363a1.354,1.354,0,0,0,.787-.19.613.613,0,0,0,.267-.529.675.675,0,0,0-.107-.388.662.662,0,0,0-.3-.239c-.024-.01-.049-.018-.074-.027A.658.658,0,0,0,32,4.54a.633.633,0,0,0,.1-.36.592.592,0,0,0-.25-.5,1.236,1.236,0,0,0-.747-.188H29.819Zm-4.176,0h1.2a1.671,1.671,0,0,0,.757-.164,1.245,1.245,0,0,0,.512-.459,1.284,1.284,0,0,0,.185-.695,1.282,1.282,0,0,0-.185-.7,1.251,1.251,0,0,0-.512-.458,1.671,1.671,0,0,0-.757-.164h-1.2Zm-2.527,0h2.041v-.49H23.723v-.61h1.224V4.557H23.723V3.984h1.386v-.49H23.117Zm.617,7.582H15.678a1.211,1.211,0,0,0-1.211,1.211v8.37A1.211,1.211,0,0,0,15.678,24.5h8.056a1.211,1.211,0,0,0,1.211-1.211v-8.37a1.211,1.211,0,0,0-1.211-1.211m-3.242-9.72h.844V6.131h.61V3.992h.843v-.5h-2.3Zm-2.6.821A1.363,1.363,0,0,0,18,5.359a1.316,1.316,0,0,0,.753.717,1.577,1.577,0,0,0,.567.1,1.547,1.547,0,0,0,.623-.12,1.226,1.226,0,0,0,.465-.35l-.392-.361a.9.9,0,0,1-.3.235.845.845,0,0,1-.361.077.925.925,0,0,1-.339-.06.768.768,0,0,1-.267-.173.791.791,0,0,1-.175-.267.977.977,0,0,1,0-.685.792.792,0,0,1,.175-.267.769.769,0,0,1,.267-.173.925.925,0,0,1,.339-.06.847.847,0,0,1,.361.077.918.918,0,0,1,.3.232l.392-.361a1.208,1.208,0,0,0-.465-.348,1.556,1.556,0,0,0-.619-.119,1.574,1.574,0,0,0-.569.1,1.355,1.355,0,0,0-.454.284,1.305,1.305,0,0,0-.3.433,1.363,1.363,0,0,0-.107.546M15.529,6.131H17.57v-.49H16.135v-.61h1.224V4.557H16.135V3.984h1.386v-.49H15.529Zm0,6.658h1.52l.037-.086c.435-1.01,1.481-2.72,2.647-2.72,1.542,0,2.449,2.26,2.615,2.713l.034.093H23.87l-.123-.393c-.049-.157-1.227-3.835-4.014-3.835-2.588,0-4,3.678-4.055,3.834ZM12.9,3.992h.844V6.131h.61V3.992H15.2v-.5H12.9ZM7.294,6.131H7.9V5.4h.559l.507.735h.659L9.04,5.285l.005,0a.886.886,0,0,0,.4-.326.9.9,0,0,0,.139-.507.92.92,0,0,0-.139-.512.894.894,0,0,0-.4-.329,1.483,1.483,0,0,0-.61-.115H7.294Zm-2.719,0h.61V5.4h.531a1.481,1.481,0,0,0,.61-.115.892.892,0,0,0,.4-.329.912.912,0,0,0,.139-.508.919.919,0,0,0-.139-.512.892.892,0,0,0-.4-.329,1.482,1.482,0,0,0-.61-.115H4.575ZM9.836,30.778a2.261,2.261,0,0,0-2.17-1.734c-1.109-.052-2.221-.031-3.332-.04-.019,0-.038.024-.071.046v6.227c.911,0,1.787,0,2.663,0a4.991,4.991,0,0,0,.526-.017,2.465,2.465,0,0,0,2.454-1.923,4.759,4.759,0,0,0-.069-2.558M10.3,5.788a1.366,1.366,0,0,0,.459.286,1.6,1.6,0,0,0,.578.1,1.563,1.563,0,0,0,.571-.1,1.393,1.393,0,0,0,.456-.284,1.306,1.306,0,0,0,.3-.433,1.348,1.348,0,0,0,.109-.544,1.313,1.313,0,0,0-.412-.975,1.376,1.376,0,0,0-.456-.286,1.667,1.667,0,0,0-1.147,0,1.392,1.392,0,0,0-.459.286,1.293,1.293,0,0,0-.3.433,1.424,1.424,0,0,0,0,1.084,1.3,1.3,0,0,0,.3.433m7.476,23.217H15.24l-.968,3.729c-.057-.17-.09-.253-.113-.339-.276-1.049-.82-3.148-.82-3.148l-.076-.26s-1.054,0-1.453,0H10.737v6.257H12.3V30.791l.072-.012,1.163,4.5c.37,0,1.413.007,1.413.007s.778-2.912,1.108-4.188c.025-.095.059-.186.089-.28l.069.011v4.427h1.566Zm10.586,2.266a4.988,4.988,0,0,0-9.88.479A4.893,4.893,0,0,0,22.973,37a4.785,4.785,0,0,0,4.094-1.437,5.072,5.072,0,0,0,1.3-4.291m6.914,4-.033-.072L32.887,29l-2.1-.016s-1.545,4.078-2.25,5.954c-.038.1-.063.206-.1.33H30.4c.081-.267.342-1.036.342-1.036l2.126,0,.409,1.031Zm-7.813-3.145a4.014,4.014,0,1,1-3.993-3.995,3.984,3.984,0,0,1,3.993,3.995m-1.231.993-1.4-.327a6.117,6.117,0,0,1-.283.688,1.112,1.112,0,0,1-1.02.627,1.05,1.05,0,0,1-1.041-.645,3.234,3.234,0,0,1,.025-2.681,1.081,1.081,0,0,1,1.123-.628,1.165,1.165,0,0,1,1.04.715c.059.124.1.255.161.394L26.2,31.06a2.355,2.355,0,0,0-1.49-1.735,2.923,2.923,0,0,0-4.045,2.46,2.88,2.88,0,0,0,2.4,3.329,2.638,2.638,0,0,0,3.175-1.988M27.57,5.246a.932.932,0,0,0,0-.868.729.729,0,0,0-.3-.282.988.988,0,0,0-.458-.1h-.557V5.63h.557a.987.987,0,0,0,.458-.1.724.724,0,0,0,.3-.284m4.2,25.535-.625,2.066h1.343l-.639-2.072-.08.006M31.619,5.347A.276.276,0,0,0,31.5,5.1a.655.655,0,0,0-.36-.081h-.712v.651h.712a.68.68,0,0,0,.36-.077.27.27,0,0,0,.122-.247"/>
    </g>
  </g>
</svg>
