<svg xmlns="http://www.w3.org/2000/svg" width="24" height="24" viewBox="0 0 24 24">
    <defs>
        <clipPath id="38hwh0pipa">
            <path data-name="Rectangle 11740" style="fill:#222" d="M0 0h24v24H0z"/>
        </clipPath>
    </defs>
    <g style="clip-path:url(#38hwh0pipa)">
        <path data-name="Path 17545" d="M14.095 12.642H9.73a.73.73 0 1 0 0 1.453h4.365a.73.73 0 1 0 0-1.453z"/>
        <path data-name="Path 17546" d="M22.185 7.636a2.2 2.2 0 0 0 .641-1.541V3.183a2.2 2.2 0 0 0-.641-1.542A2.169 2.169 0 0 0 20.643 1H3.183A2.183 2.183 0 0 0 1 3.183v2.912a2.2 2.2 0 0 0 .641 1.541 2.183 2.183 0 0 0 .818.5v1.731a2.183 2.183 0 0 0-.818.5A2.2 2.2 0 0 0 1 11.913v2.912a2.183 2.183 0 0 0 2.183 2.183h8V18.6a2.183 2.183 0 0 0-1.316 1.316H1.73a.73.73 0 0 0 0 1.453h8.137a2.169 2.169 0 0 0 4.092 0H22.1a.73.73 0 0 0 0-1.453h-8.141a2.183 2.183 0 0 0-1.323-1.323v-1.585h8.007a2.169 2.169 0 0 0 1.541-.641 2.2 2.2 0 0 0 .641-1.541v-2.913a2.2 2.2 0 0 0-.641-1.541 2.162 2.162 0 0 0-.818-.5V8.141a2.162 2.162 0 0 0 .818-.5zM11.913 21.373a.73.73 0 1 1 .73-.73.73.73 0 0 1-.73.73zm-9.46-18.19a.73.73 0 0 1 .73-.73h17.46a.73.73 0 0 1 .73.73v2.912a.73.73 0 0 1-.73.723H3.183a.73.73 0 0 1-.73-.723zm17.46 6.547h-16V8.278h16zm1.453 5.095a.73.73 0 0 1-.73.73H3.183a.73.73 0 0 1-.73-.73v-2.912a.73.73 0 0 1 .73-.73h17.46a.73.73 0 0 1 .73.73z"/>
        <path data-name="Path 17547" d="M9.73 5.365h4.365a.73.73 0 1 0 0-1.453H9.73a.73.73 0 1 0 0 1.453z"/>
    </g>
</svg>
