<svg xmlns="http://www.w3.org/2000/svg" xmlns:xlink="http://www.w3.org/1999/xlink" width="16" height="16" viewBox="0 0 16 16">
  <defs>
    <style>
      .cls-1 {
        fill: none;
      }

      .cls-2 {
        clip-path: url(#clip-path);
      }
    </style>
    <clipPath id="clip-path">
      <rect id="Rectangle_11397" data-name="Rectangle 11397" class="cls-1" width="16" height="16" transform="translate(40 801)"/>
    </clipPath>
  </defs>
  <g id="icon_trustedseller" class="cls-2" transform="translate(-40 -801)">
    <g id="Path_16787" transform="translate(8522.907 537.425)">
      <path id="Path_16789" data-name="Path 16789" d="M-8475.014,279.575a2.966,2.966,0,0,1-.91-.2l-2.629-1.618a7.9,7.9,0,0,1-4.043-6.269l-.3-4.044a1.954,1.954,0,0,1,1.719-1.921,15.153,15.153,0,0,0,2.932-.607,26.1,26.1,0,0,0,2.428-1.112,1.928,1.928,0,0,1,1.818,0,24.307,24.307,0,0,0,2.326,1.112,14.19,14.19,0,0,0,2.83.607,1.981,1.981,0,0,1,1.719,2.022l-.3,4.044a7.9,7.9,0,0,1-4.043,6.269l-2.529,1.517A4.459,4.459,0,0,1-8475.014,279.575Zm0-14.964a.61.61,0,0,0-.4.1,11.623,11.623,0,0,1-2.527,1.213,17.491,17.491,0,0,1-3.135.708.691.691,0,0,0-.707.708l.3,4.044a6.866,6.866,0,0,0,3.539,5.46l2.629,1.618a.862.862,0,0,0,.707,0l2.428-1.517a6.859,6.859,0,0,0,3.537-5.46c.1-1.314.2-2.528.3-3.842a1.086,1.086,0,0,0-.2-.809c-.4-.4-1.213-.3-1.719-.4a10.667,10.667,0,0,1-1.922-.506,11.622,11.622,0,0,1-2.527-1.213A.37.37,0,0,0-8475.014,264.611Z" transform="translate(-0.001 0)"/>
      <path id="Path_16788" d="M-8475.9,273.4a.521.521,0,0,1-.4-.2l-1.7-1.7a.633.633,0,0,1,.1-.9h0a.608.608,0,0,1,.8,0l1.3,1.3,3-3a.8.8,0,0,1,1,.2.483.483,0,0,1,0,.7l-3.6,3.5a.744.744,0,0,1-.5.1" transform="translate(0.09 0.081)"/>
    </g>
  </g>
</svg>
