<svg id="icon_slider_left" xmlns="http://www.w3.org/2000/svg" width="40" height="40" viewBox="0 0 40 40">
  <defs>
    <style>
      .cls-1 {
        fill: #1b1b1b;
        stroke: #fff;
      }

      .cls-2 {
        fill: #fff;
      }

      .cls-3 {
        stroke: none;
      }

      .cls-4 {
        fill: none;
      }
    </style>
  </defs>
  <g id="Ellipse_7" data-name="Ellipse 7" class="cls-1">
    <circle class="cls-3" cx="20" cy="20" r="20"/>
    <circle class="cls-4" cx="20" cy="20" r="19.5"/>
  </g>
  <path id="chevron_right_FILL0_wght600_GRAD200_opsz48" class="cls-2" d="M25,25.505a1.168,1.168,0,0,0,.4-.873,1.08,1.08,0,0,0-.4-.844L19.852,18.9l5.183-4.917a1.065,1.065,0,0,0,.386-.873A1.158,1.158,0,0,0,25,12.238a1.14,1.14,0,0,0-.879-.364,1.3,1.3,0,0,0-.879.364l-6.17,5.819a1.531,1.531,0,0,0-.278.364.958.958,0,0,0-.123.48.88.88,0,0,0,.123.465,2.621,2.621,0,0,0,.278.378l6.139,5.761a1.158,1.158,0,0,0,.895.364A1.313,1.313,0,0,0,25,25.505Z" transform="translate(-2.415 1.568)"/>
</svg>
