<svg xmlns="http://www.w3.org/2000/svg" width="40" height="40" viewBox="0 0 40 40">
  <defs>
    <style>
      .cls-1 {
        fill: #1b1b1b;
        stroke: #fff;
      }

      .cls-2 {
        fill: #fff;
      }

      .cls-3 {
        stroke: none;
      }

      .cls-4 {
        fill: none;
      }
    </style>
  </defs>
  <g id="icon_slider_right" transform="translate(-269.298 -1255.852)">
    <g id="Ellipse_7" data-name="Ellipse 7" class="cls-1" transform="translate(269.298 1255.852)">
      <circle class="cls-3" cx="20" cy="20" r="20"/>
      <circle class="cls-4" cx="20" cy="20" r="19.5"/>
    </g>
    <path id="chevron_right_FILL0_wght600_GRAD200_opsz48" class="cls-2" d="M17.091,25.505a1.168,1.168,0,0,1-.4-.873,1.08,1.08,0,0,1,.4-.844L22.243,18.9,17.06,13.984a1.065,1.065,0,0,1-.386-.873,1.158,1.158,0,0,1,.416-.873,1.14,1.14,0,0,1,.879-.364,1.3,1.3,0,0,1,.879.364l6.17,5.819a1.531,1.531,0,0,1,.278.364.958.958,0,0,1,.123.48.88.88,0,0,1-.123.465,2.621,2.621,0,0,1-.278.378l-6.139,5.761a1.158,1.158,0,0,1-.895.364A1.313,1.313,0,0,1,17.091,25.505Z" transform="translate(269.619 1257.42)"/>
  </g>
</svg>
