<svg xmlns="http://www.w3.org/2000/svg" xmlns:xlink="http://www.w3.org/1999/xlink" width="16" height="16" viewBox="0 0 16 16">
  <defs>
    <style>
      .cls-1 {
        fill: #fff;
      }

      .cls-2 {
        clip-path: url(#clip-path);
      }
    </style>
    <clipPath id="clip-path">
      <rect id="Rectangle_11399" data-name="Rectangle 11399" class="cls-1" width="16" height="16" transform="translate(-8662 308)"/>
    </clipPath>
  </defs>
  <g id="icon_easytouse" class="cls-2" transform="translate(8662 -308)">
    <path id="thumb_up_FILL0_wght400_GRAD0_opsz48" d="M13.671,16.038H5.193V6.263L10.5.764l.745.592a.574.574,0,0,1,.172.267,1.34,1.34,0,0,1,.057.42v.191l-.859,4.029h5.709A1.175,1.175,0,0,1,17.47,7.408V8.974a1.411,1.411,0,0,0,.029.277.459.459,0,0,1-.029.277l-2.406,5.537a1.658,1.658,0,0,1-.563.687A1.383,1.383,0,0,1,13.671,16.038ZM6.339,14.893h7.58l2.406-5.709V7.408H9.2l1.012-4.754L6.339,6.74Zm0-8.153v0ZM5.193,6.263V7.408H2.654v7.484H5.193v1.146H1.508V6.263Z" transform="translate(-8663.509 307.599)"/>
  </g>
</svg>
