<svg xmlns="http://www.w3.org/2000/svg" xmlns:xlink="http://www.w3.org/1999/xlink" width="24" height="24" viewBox="0 0 24 24">
  <defs>
    <style>
      .cls-1 {
        fill: #fff;
        stroke: #707070;
      }

      .cls-2 {
        fill: none;
      }

      .cls-3 {
        clip-path: url(#clip-path);
      }

      .cls-4 {
        clip-path: url(#clip-path-2);
      }

      .cls-5 {
        fill-rule: evenodd;
      }
    </style>
    <clipPath id="clip-path">
      <rect id="Rectangle_11432" data-name="Rectangle 11432" class="cls-1" width="24" height="24" transform="translate(25 17)"/>
    </clipPath>
    <clipPath id="clip-path-2">
      <rect id="Rectangle_11431" data-name="Rectangle 11431" class="cls-2" width="24" height="23"/>
    </clipPath>
  </defs>
  <g id="icon_customer" class="cls-3" transform="translate(-25 -17)">
    <g id="Group_15171" data-name="Group 15171" transform="translate(25 17.504)">
      <g id="Group_15171-2" data-name="Group 15171" class="cls-4">
        <path id="Path_16818" data-name="Path 16818" class="cls-5" d="M.73,18.979A.758.758,0,0,1,0,18.2V6.14a.787.787,0,0,1,.431-.712.684.684,0,0,1,.3-.069.7.7,0,0,1,.485.2l4.958,4.716L11.364.4a.707.707,0,0,1,1.272,0l5.191,9.874,4.958-4.716a.7.7,0,0,1,.485-.2.684.684,0,0,1,.3.069A.786.786,0,0,1,24,6.14V18.2a.758.758,0,0,1-.73.781Zm21.81-1.562V7.879l-4.42,4.2a.7.7,0,0,1-.485.2.69.69,0,0,1-.12-.011A.73.73,0,0,1,17,11.882L12,2.373,7,11.882a.73.73,0,0,1-.516.387.685.685,0,0,1-.12.011.7.7,0,0,1-.485-.2l-4.42-4.2v9.539Z" transform="translate(0 0.001)"/>
        <path id="Path_16819" data-name="Path 16819" d="M.73,407.013a.783.783,0,0,1,0-1.562H23.27a.783.783,0,0,1,0,1.562Z" transform="translate(0 -384.013)"/>
      </g>
    </g>
  </g>
</svg>
