<svg xmlns="http://www.w3.org/2000/svg" width="24" height="24" viewBox="0 0 24 24">
    <defs>
        <clipPath id="mixlywfb0a">
            <path data-name="Rectangle 11737" transform="translate(271 20)" style="fill:#222;stroke:#707070" d="M0 0h24v24H0z"/>
        </clipPath>
    </defs>
    <g transform="translate(-271 -20)" style="clip-path:url(#mixlywfb0a)">
        <path data-name="Path 17541" d="M288.498 43.91h-11.012a5.293 5.293 0 0 1-5.288-5.288V25.404a5.293 5.293 0 0 1 5.288-5.288h11.019a5.293 5.293 0 0 1 5.288 5.288v13.218a5.361 5.361 0 0 1-5.295 5.288zm-11.012-22.031a3.48 3.48 0 0 0-3.525 3.525v13.218a3.55 3.55 0 0 0 3.525 3.525h11.019a3.55 3.55 0 0 0 3.525-3.525V25.404a3.55 3.55 0 0 0-3.525-3.525z"/>
        <path data-name="Path 17542" d="M278.915 35.295a.8.8 0 0 0-.816.816.75.75 0 0 0 .816.816zm4.079 1.632a.8.8 0 0 0 .816-.816.75.75 0 0 0-.816-.816zm-4.079 0h4.079v-1.532h-4.079z"/>
        <path data-name="Path 17543" d="M278.953 31.196a.825.825 0 0 0-.854.816.769.769 0 0 0 .854.816zm8.539 1.632a.825.825 0 0 0 .854-.816.769.769 0 0 0-.854-.816zm-8.539 0h8.539v-1.532h-8.539z"/>
        <path data-name="Path 17544" d="M278.953 27.098a.9.9 0 0 0-.854.816.9.9 0 0 0 .854.816zm8.539 1.632a.817.817 0 1 0 0-1.632zm-8.539 0h8.539v-1.632h-8.539z"/>
    </g>
</svg>
