<svg xmlns="http://www.w3.org/2000/svg" width="24" height="24" viewBox="0 0 24 24">
  <defs>
    <style>
      .cls-1 {
        fill: #f7f7f7;
      }
    </style>
  </defs>
  <g id="icon_drop_down" transform="translate(24) rotate(90)">
    <circle id="Ellipse_7" data-name="Ellipse 7" class="cls-1" cx="12" cy="12" r="12" transform="translate(0 0)"/>
    <path id="chevron_right_FILL0_wght600_GRAD200_opsz48" d="M.25,8.177A.7.7,0,0,1,.01,7.653.648.648,0,0,1,.25,7.147L3.341,4.215.232,1.266A.639.639,0,0,1,0,.742.7.7,0,0,1,.25.218.684.684,0,0,1,.778,0a.777.777,0,0,1,.527.218l3.7,3.49a.918.918,0,0,1,.167.218.575.575,0,0,1,.074.288.528.528,0,0,1-.074.279,1.573,1.573,0,0,1-.167.227L1.324,8.177a.7.7,0,0,1-.537.218A.788.788,0,0,1,.25,8.177Z" transform="translate(10.194 7.81)"/>
  </g>
</svg>
