<svg xmlns="http://www.w3.org/2000/svg" xmlns:xlink="http://www.w3.org/1999/xlink" width="24" height="24" viewBox="0 0 24 24">
  <defs>
    <style>
      .cls-1 {
        fill: #fff;
        stroke: #707070;
      }

      .cls-2 {
        fill: none;
      }

      .cls-3 {
        clip-path: url(#clip-path);
      }

      .cls-4 {
        clip-path: url(#clip-path-2);
      }
    </style>
    <clipPath id="clip-path">
      <rect id="Rectangle_11434" data-name="Rectangle 11434" class="cls-1" width="24" height="24" transform="translate(26 17)"/>
    </clipPath>
    <clipPath id="clip-path-2">
      <rect id="Rectangle_11429" data-name="Rectangle 11429" class="cls-2" width="24" height="24"/>
    </clipPath>
  </defs>
  <g id="icon_price" class="cls-3" transform="translate(-26 -17)">
    <g id="Group_15169" data-name="Group 15169" transform="translate(26 17)">
      <g id="Group_15169-2" data-name="Group 15169" class="cls-4">
        <path id="Path_16814" data-name="Path 16814" d="M12,0A12,12,0,1,0,24,12,12.014,12.014,0,0,0,12,0m0,22.5A10.5,10.5,0,1,1,22.5,12,10.513,10.513,0,0,1,12,22.5"/>
        <path id="Path_16815" data-name="Path 16815" d="M144.178,111.747h-.827a3.7,3.7,0,0,0-.693-1.5h1.52a.75.75,0,0,0,0-1.5h-7.5a.75.75,0,1,0,0,1.5h3a2.246,2.246,0,0,1,2.112,1.5h-5.112a.75.75,0,1,0,0,1.5h5.112a2.246,2.246,0,0,1-2.112,1.5h-3a.75.75,0,0,0-.693.464.744.744,0,0,0,0,.573.714.714,0,0,0,.164.244l6,6a.75.75,0,1,0,1.062-1.059l-4.721-4.721h1.189a3.754,3.754,0,0,0,3.674-3h.827a.75.75,0,0,0,0-1.5" transform="translate(-128.428 -102.747)"/>
      </g>
    </g>
  </g>
</svg>
