<svg xmlns="http://www.w3.org/2000/svg" width="16" height="16" viewBox="0 0 16 16">
  <defs>
    <style>
      .cls-1 {
        fill: none;
      }

      .cls-2 {
        fill: #222;
      }
    </style>
  </defs>
  <g id="icon_dropdown_arrow_blue" transform="translate(0.289 0.289)">
    <circle id="Ellipse_7" data-name="Ellipse 7" class="cls-1" cx="8" cy="8" r="8" transform="translate(-0.289 -0.289)"/>
    <path id="chevron_right_FILL0_wght600_GRAD200_opsz48" class="cls-2" d="M16.989,22.175a.882.882,0,0,1-.3-.66.816.816,0,0,1,.3-.638l3.893-3.694-3.917-3.715a.8.8,0,0,1-.291-.66.875.875,0,0,1,.315-.66.861.861,0,0,1,.664-.275.979.979,0,0,1,.664.275l4.663,4.4a1.156,1.156,0,0,1,.21.275.724.724,0,0,1,.093.363.665.665,0,0,1-.093.352,1.981,1.981,0,0,1-.21.286l-4.639,4.353a.875.875,0,0,1-.676.275A.992.992,0,0,1,16.989,22.175Z" transform="translate(-11.918 -9.234)"/>
  </g>
</svg>
