<svg xmlns="http://www.w3.org/2000/svg" width="12" height="12" viewBox="0 0 12 12">
  <defs>
    <style>
      .cls-1 {
        fill: #1b1b1b;
      }
    </style>
  </defs>
  <path id="icon_call" class="cls-1" d="M17.25,18a8.99,8.99,0,0,1-4.042-1A13.871,13.871,0,0,1,7,10.792,8.99,8.99,0,0,1,6,6.75.74.74,0,0,1,6.75,6H9.083a.59.59,0,0,1,.408.158.737.737,0,0,1,.225.425l.45,2.1a1.2,1.2,0,0,1-.008.425.642.642,0,0,1-.175.325L8.317,11.117a13.838,13.838,0,0,0,2.092,2.7,11.56,11.56,0,0,0,2.625,1.95l1.583-1.633A.921.921,0,0,1,15,13.875a.77.77,0,0,1,.433-.025l1.983.433A.728.728,0,0,1,18,15v2.25a.74.74,0,0,1-.75.75Z" transform="translate(-6 -6)"/>
</svg>
