<svg xmlns="http://www.w3.org/2000/svg" width="12" height="12" viewBox="0 0 12 12">
  <defs>
    <style>
      .cls-1 {
        fill: #444;
        fill-rule: evenodd;
      }
    </style>
  </defs>
  <path id="icon_filter" class="cls-1" d="M7.75,7.5a.75.75,0,1,0,.75.75A.75.75,0,0,0,7.75,7.5Zm-3,0h.878a2.251,2.251,0,0,1,4.244,0H15.25a.75.75,0,0,1,0,1.5H9.872A2.251,2.251,0,0,1,5.628,9H4.75a.75.75,0,1,1,0-1.5ZM15.25,15a.75.75,0,0,1,0,1.5h-.878a2.251,2.251,0,0,1-4.243,0H4.75a.75.75,0,1,1,0-1.5h5.378a2.251,2.251,0,0,1,4.243,0Zm-3.75.75a.75.75,0,1,0,.75-.75A.75.75,0,0,0,11.5,15.75Z" transform="translate(-4 -6)"/>
</svg>
