<svg xmlns="http://www.w3.org/2000/svg" width="24" height="24" viewBox="0 0 24 24">
    <defs>
        <clipPath id="fohiqr0vza">
            <path data-name="Rectangle 11735" style="fill:#fff;stroke:#707070" d="M0 0h24v24H0z"/>
        </clipPath>
    </defs>
    <g data-name="icon_cloud" style="clip-path:url(#fohiqr0vza)">
        <path data-name="Path 17858" d="M5.653 20.858A5.7 5.7 0 0 1 0 15.205a5.761 5.761 0 0 1 5.567-5.738H6A7.708 7.708 0 0 1 13.361 3.9a9.146 9.146 0 0 1 2.141.257 7.79 7.79 0 0 1 5.653 7.194 4.916 4.916 0 0 1 2.4 6.509 5.032 5.032 0 0 1-4.539 2.912zm.03-9.849a4.14 4.14 0 0 0-4.055 4.2 4.058 4.058 0 0 0 4.111 4.111h13.275a3.426 3.426 0 1 0 0-6.852 3.241 3.241 0 0 0-2.4 1.028.74.74 0 0 1-.514.257.61.61 0 0 1-.514-.257.74.74 0 0 1-.257-.514.61.61 0 0 1 .257-.514 4.851 4.851 0 0 1 3.514-1.459h.6a6.274 6.274 0 0 0-6.167-5.481h-.685A6.083 6.083 0 0 0 7.623 9.81a4.657 4.657 0 0 1 2.227 1.37.74.74 0 0 1 .257.514.61.61 0 0 1-.257.514.74.74 0 0 1-.514.257.61.61 0 0 1-.514-.257 3.7 3.7 0 0 0-2.741-1.2z" transform="translate(0 -.338)" style="fill:#222"/>
    </g>
</svg>
