<svg xmlns="http://www.w3.org/2000/svg" width="13.556" height="11.996" viewBox="0 0 13.556 11.996">
  <g id="Group_15681" data-name="Group 15681" transform="translate(0.008)">
    <path id="favorite_FILL0_wght400_GRAD0_opsz24" d="M8.795,5.8A4.334,4.334,0,0,0,7.653,4.646a2.643,2.643,0,0,0-1.474-.4A2.518,2.518,0,0,0,3.6,6.829a3.84,3.84,0,0,0,.682,2.035,14.044,14.044,0,0,0,1.631,2.091q.948,1.013,1.953,1.9t1.63,1.455q.626-.571,1.631-1.455t1.953-1.9a14.071,14.071,0,0,0,1.63-2.091,3.84,3.84,0,0,0,.682-2.035A2.518,2.518,0,0,0,12.811,4.25a2.643,2.643,0,0,0-1.474.4A4.334,4.334,0,0,0,10.195,5.8a.838.838,0,0,1-.313.276.858.858,0,0,1-.774,0A.838.838,0,0,1,8.795,5.8ZM9.495,9.279Z" transform="translate(-2.555 -3.298)" fill="none"/>
    <path id="favorite_FILL0_wght400_GRAD0_opsz24-2" data-name="favorite_FILL0_wght400_GRAD0_opsz24" d="M7.863,14.274,6.694,13.206Q4.9,11.563,3.449,9.944A5.23,5.23,0,0,1,2,6.378,3.648,3.648,0,0,1,5.728,2.65a3.877,3.877,0,0,1,1.694.381A4.041,4.041,0,0,1,8.778,4.073a4.041,4.041,0,0,1,1.356-1.042,3.877,3.877,0,0,1,1.694-.381,3.648,3.648,0,0,1,3.728,3.728,5.278,5.278,0,0,1-1.44,3.575,40.565,40.565,0,0,1-3.27,3.27L9.693,14.274a1.309,1.309,0,0,1-1.83,0Zm.271-8.845A3.987,3.987,0,0,0,7.083,4.369a2.431,2.431,0,0,0-1.356-.364A2.316,2.316,0,0,0,3.356,6.378,3.532,3.532,0,0,0,3.982,8.25a12.918,12.918,0,0,0,1.5,1.923q.872.932,1.8,1.745t1.5,1.339q.576-.525,1.5-1.339t1.8-1.745a12.943,12.943,0,0,0,1.5-1.923A3.532,3.532,0,0,0,14.2,6.378a2.316,2.316,0,0,0-2.372-2.372,2.431,2.431,0,0,0-1.356.364A3.987,3.987,0,0,0,9.422,5.429a.771.771,0,0,1-.288.254.79.79,0,0,1-.712,0,.771.771,0,0,1-.288-.254ZM8.778,8.631Z" transform="translate(-2.007 -2.65)" fill="#888"/>
  </g>
</svg>
