<svg xmlns="http://www.w3.org/2000/svg" width="18" height="18" viewBox="0 0 18 18">
    <path data-name="Rectangle 1" style="fill:none;opacity:.3" d="M0 0h18v18H0z"/>
    <path data-name="Path 2" d="M7.527 1.356c2.01 0 2.248.008 3.041.044a4.16 4.16 0 0 1 1.4.259 2.33 2.33 0 0 1 .865.563 2.329 2.329 0 0 1 .563.865 4.166 4.166 0 0 1 .259 1.4c.036.794.044 1.032.044 3.042s-.008 2.248-.044 3.041a4.168 4.168 0 0 1-.259 1.4 2.493 2.493 0 0 1-1.428 1.428 4.157 4.157 0 0 1-1.4.259c-.794.036-1.032.044-3.041.044s-2.248-.008-3.041-.044a4.157 4.157 0 0 1-1.4-.259 2.331 2.331 0 0 1-.865-.563 2.334 2.334 0 0 1-.563-.865 4.169 4.169 0 0 1-.259-1.4c-.037-.794-.044-1.032-.044-3.041s.008-2.248.044-3.042a4.168 4.168 0 0 1 .259-1.4 2.333 2.333 0 0 1 .563-.865 2.329 2.329 0 0 1 .865-.563 4.16 4.16 0 0 1 1.4-.259c.794-.036 1.031-.044 3.041-.044m0-1.356c-2.044 0-2.3.009-3.1.045A5.512 5.512 0 0 0 2.6.4a3.682 3.682 0 0 0-1.333.868A3.687 3.687 0 0 0 .4 2.6a5.515 5.515 0 0 0-.35 1.827C.009 5.226 0 5.483 0 7.527s.009 2.3.046 3.1a5.513 5.513 0 0 0 .354 1.83 3.684 3.684 0 0 0 .868 1.333 3.686 3.686 0 0 0 1.333.868 5.522 5.522 0 0 0 1.827.35c.8.036 1.059.045 3.1.045s2.3-.009 3.1-.045a5.525 5.525 0 0 0 1.827-.35 3.849 3.849 0 0 0 2.2-2.2 5.514 5.514 0 0 0 .35-1.827c.037-.8.046-1.059.046-3.1s-.009-2.3-.046-3.1a5.516 5.516 0 0 0-.35-1.827 3.689 3.689 0 0 0-.868-1.333A3.687 3.687 0 0 0 12.457.4 5.515 5.515 0 0 0 10.63.045C9.827.009 9.571 0 7.527 0m0 3.662a3.865 3.865 0 1 0 3.865 3.865 3.865 3.865 0 0 0-3.865-3.865m0 6.374a2.509 2.509 0 1 1 2.509-2.509 2.509 2.509 0 0 1-2.509 2.509m4.921-6.526a.9.9 0 1 0-.9.9.9.9 0 0 0 .9-.9" transform="translate(2.116 1.615)" style="fill:#222"/>
</svg>
