<svg id="Linkedin" xmlns="http://www.w3.org/2000/svg" width="30" height="30" viewBox="0 0 30 30">
  <rect id="Rectangle_1" data-name="Rectangle 1" width="30" height="30" fill="none" opacity="0.3"/>
  <path id="Path_4" data-name="Path 4" d="M.4,8.066H5.448V24.29H.4ZM2.925,0A2.924,2.924,0,1,1,0,2.922,2.924,2.924,0,0,1,2.925,0M8.612,24.29h5.036V16.264c0-2.117.4-4.166,3.024-4.166,2.585,0,2.621,2.421,2.621,4.3V24.29h5.037v-8.9c0-4.37-.944-7.729-6.045-7.729a5.3,5.3,0,0,0-4.772,2.621h-.068V8.066H8.612Z" transform="translate(2.756 2.61)" fill="rgba(255,255,255,0.8)"/>
</svg>
