<svg xmlns="http://www.w3.org/2000/svg" width="18" height="18" viewBox="0 0 18 18">
    <path data-name="Rectangle 1" style="fill:none;opacity:.3" d="M0 0h18v18H0z"/>
    <path data-name="Path 4" d="M.248 4.99H3.37v10.038H.248zM1.81 0A1.809 1.809 0 1 1 0 1.808 1.809 1.809 0 0 1 1.81 0m3.518 15.028h3.116v-4.965c0-1.309.248-2.577 1.871-2.577 1.6 0 1.622 1.5 1.622 2.662v4.881h3.116V9.522c0-2.7-.584-4.782-3.74-4.782a3.278 3.278 0 0 0-2.952 1.622h-.042V4.99H5.328z" transform="translate(2.229 1.615)" style="fill:#222"/>
</svg>
