<svg xmlns="http://www.w3.org/2000/svg" width="20.347" height="15.987" viewBox="0 0 20.347 15.987">
    <g data-name="Group 150">
        <path data-name="Path 198" d="M34.85 329.74a1.739 1.739 0 0 0 1.191-.449l-5.764-5.765-.4.287q-.647.477-1.05.744a6.471 6.471 0 0 1-1.073.545 3.271 3.271 0 0 1-1.249.278h-.023a3.269 3.269 0 0 1-1.249-.278 6.451 6.451 0 0 1-1.073-.545q-.4-.267-1.05-.744a26.77 26.77 0 0 0-.4-.288l-5.766 5.766a1.739 1.739 0 0 0 1.191.449z" transform="translate(-16.32 -313.754)" style="fill:#3473de"/>
        <path data-name="Path 199" d="M1.147 199.543A6.02 6.02 0 0 1 0 198.555v8.771l5.081-5.081q-1.525-1.065-3.934-2.702z" transform="translate(0 -193.4)" style="fill:#3473de"/>
        <path data-name="Path 200" d="M417.252 199.543q-2.32 1.57-3.943 2.7l5.079 5.079v-8.771a6.265 6.265 0 0 1-1.136.992z" transform="translate(-398.041 -193.4)" style="fill:#3473de"/>
        <path data-name="Path 201" d="M18.536 59.013H1.823a1.621 1.621 0 0 0-1.345.59 2.291 2.291 0 0 0-.471 1.476 2.653 2.653 0 0 0 .624 1.55 5.633 5.633 0 0 0 1.328 1.311q.386.273 2.328 1.618c.7.484 1.307.906 1.829 1.271l1.146.8.17.121.313.226q.369.267.613.432t.59.369a3.445 3.445 0 0 0 .653.307 1.806 1.806 0 0 0 .568.1h.023a1.807 1.807 0 0 0 .568-.1 3.438 3.438 0 0 0 .653-.307q.346-.2.591-.369t.613-.432l.313-.225.17-.121 1.149-.8 4.165-2.892a5.4 5.4 0 0 0 1.385-1.4 3 3 0 0 0 .556-1.714 1.832 1.832 0 0 0-1.817-1.817z" transform="translate(-.006 -59.013)" style="fill:#3473de"/>
    </g>
</svg>
