<svg xmlns="http://www.w3.org/2000/svg" width="32" height="32" viewBox="0 0 32 32">
  <defs>
    <style>
      .cls-1 {
        fill: none;
      }

      .cls-2 {
        fill: #1b1b1b;
      }
    </style>
  </defs>
  <g id="search_icon" transform="translate(0 -0.006)">
    <rect id="Rectangle_196" data-name="Rectangle 196" class="cls-1" width="32" height="32" transform="translate(0 0.006)"/>
    <path id="menu_FILL0_wght400_GRAD0_opsz48" class="cls-2" d="M6.917,28.355a.844.844,0,0,1-.657-.29,1.163,1.163,0,0,1,0-1.465.844.844,0,0,1,.657-.29H27.083a.844.844,0,0,1,.657.29,1.163,1.163,0,0,1,0,1.465.844.844,0,0,1-.657.29Zm0-7.155a.844.844,0,0,1-.657-.29,1.163,1.163,0,0,1,0-1.465.844.844,0,0,1,.657-.29H27.083a.844.844,0,0,1,.657.29,1.163,1.163,0,0,1,0,1.465.844.844,0,0,1-.657.29Zm0-7.155a.844.844,0,0,1-.657-.29,1.163,1.163,0,0,1,0-1.465A.844.844,0,0,1,6.917,12H27.083a.844.844,0,0,1,.657.29,1.163,1.163,0,0,1,0,1.465.844.844,0,0,1-.657.29Z" transform="translate(-1 -3.994)"/>
  </g>
</svg>
