<svg xmlns="http://www.w3.org/2000/svg" width="142" height="142" viewBox="0 0 142 142">
  <g id="play_icon" transform="translate(-308 -6184)">
    <circle id="Ellipse_23" data-name="Ellipse 23" cx="71" cy="71" r="71" transform="translate(308 6184)" fill="rgba(255,255,255,0.6)"/>
    <circle id="Ellipse_114" data-name="Ellipse 114" cx="48" cy="48" r="48" transform="translate(331 6207)" fill="rgba(255,255,255,0.6)"/>
    <path id="play_circle_FILL1_wght400_GRAD0_opsz48" d="M40.36,72.4,72.4,52,40.36,31.6ZM52,100a46.445,46.445,0,0,1-18.6-3.78A48.36,48.36,0,0,1,7.78,70.6,46.444,46.444,0,0,1,4,52,46.74,46.74,0,0,1,7.78,33.28,47.97,47.97,0,0,1,18.1,18.04,49.2,49.2,0,0,1,33.4,7.78,46.444,46.444,0,0,1,52,4,46.74,46.74,0,0,1,70.72,7.78a47.925,47.925,0,0,1,25.5,25.5A46.74,46.74,0,0,1,100,52a46.445,46.445,0,0,1-3.78,18.6A49.2,49.2,0,0,1,85.96,85.9,47.97,47.97,0,0,1,70.72,96.22,46.74,46.74,0,0,1,52,100Z" transform="translate(326.917 6202.921)" fill="#0073c1"/>
  </g>
</svg>
