<svg xmlns="http://www.w3.org/2000/svg" width="30" height="30" viewBox="0 0 30 30">
  <defs>
    <style>
      .cls-1 {
        fill: #1a73e8;
      }

      .cls-2 {
        fill: #e7f1fd;
      }
    </style>
  </defs>
  <g id="profile" transform="translate(-71.491 -14)">
    <circle id="Ellipse_6" data-name="Ellipse 6" class="cls-1" cx="13.091" cy="13.091" r="13.091" transform="translate(73.401 15.864)"/>
    <path id="Path_16286" data-name="Path 16286" class="cls-2" d="M99,14a15,15,0,1,0,15,15A15.014,15.014,0,0,0,99,14Zm0,6.714a4.705,4.705,0,1,1-4.705,4.705A4.717,4.717,0,0,1,99,20.714ZM90.789,36.22v-.695a3.632,3.632,0,0,1,3.631-3.631h9.158a3.632,3.632,0,0,1,3.631,3.631v.695a12.252,12.252,0,0,1-16.42,0Z" transform="translate(-12.509)"/>
  </g>
</svg>
