<svg xmlns="http://www.w3.org/2000/svg" width="16" height="31" viewBox="0 0 16 31">
  <g id="Group_15765" data-name="Group 15765" transform="translate(12781 -1096)">
    <rect id="Rectangle_11615" data-name="Rectangle 11615" width="16" height="31" transform="translate(-12781 1096)" fill="none"/>
    <g id="star_filled" transform="translate(-12780 1112)">
      <g id="Capa_1">
        <path id="Shape" d="M7.676.439,9.255,3.785a.757.757,0,0,0,.568.431l3.531.537A.8.8,0,0,1,13.772,6.1L11.217,8.7A.811.811,0,0,0,11,9.4l.6,3.677a.762.762,0,0,1-1.094.831L7.351,12.172a.726.726,0,0,0-.7,0L3.491,13.908A.762.762,0,0,1,2.4,13.076L3,9.4a.811.811,0,0,0-.217-.7L.228,6.1A.8.8,0,0,1,.646,4.753l3.531-.537a.757.757,0,0,0,.568-.431L6.324.439A.739.739,0,0,1,7.676.439Z" fill="#ff9f00"/>
      </g>
    </g>
    <path id="Shape-2" data-name="Shape" d="M7.676.439,9.255,3.785a.757.757,0,0,0,.568.431l3.531.537A.8.8,0,0,1,13.772,6.1L11.217,8.7A.811.811,0,0,0,11,9.4l.6,3.677a.762.762,0,0,1-1.094.831L7.351,12.172a.726.726,0,0,0-.7,0L3.491,13.908A.762.762,0,0,1,2.4,13.076L3,9.4a.811.811,0,0,0-.217-.7L.228,6.1A.8.8,0,0,1,.646,4.753l3.531-.537a.757.757,0,0,0,.568-.431L6.324.439A.739.739,0,0,1,7.676.439Z" transform="translate(-12780 1097)" fill="#e2e2e2"/>
  </g>
</svg>
