<svg xmlns="http://www.w3.org/2000/svg" width="75" height="22" viewBox="0 0 75 22">
  <defs>
    <style>
      .cls-1 {
        fill: #007e2b;
      }

      .cls-2 {
        fill: #009e35;
      }

      .cls-3 {
        fill: #fff;
      }
    </style>
  </defs>
  <g id="tag_bestseller" transform="translate(-23110 -392)">
    <path id="Polygon_1" data-name="Polygon 1" class="cls-1" d="M5.143,1.429a1,1,0,0,1,1.715,0l4.234,7.056A1,1,0,0,1,10.234,10H1.766A1,1,0,0,1,.909,8.486Z" transform="translate(23110 414) rotate(-90)"/>
    <path id="Path_16786" data-name="Path 16786" class="cls-2" d="M2.083,0H72.917A2.043,2.043,0,0,1,75,2L71.875,8.8,75,15a2.043,2.043,0,0,1-2.083,2H2.083A2.043,2.043,0,0,1,0,15V2A2.043,2.043,0,0,1,2.083,0Z" transform="translate(23110 392)"/>
    <path id="Path_16793" data-name="Path 16793" class="cls-3" d="M.795,0V-7.82h2.68a3.272,3.272,0,0,1,2.02.532A1.873,1.873,0,0,1,6.188-5.7a1.689,1.689,0,0,1-.29.967,1.867,1.867,0,0,1-.849.666,1.726,1.726,0,0,1,.98.647,1.885,1.885,0,0,1,.346,1.141A2.082,2.082,0,0,1,5.669-.591,3.071,3.071,0,0,1,3.647,0ZM2.154-3.529v2.444H3.663a1.461,1.461,0,0,0,1-.317,1.112,1.112,0,0,0,.36-.881A1.116,1.116,0,0,0,3.776-3.529Zm0-1H3.486a1.54,1.54,0,0,0,.991-.287.985.985,0,0,0,.357-.814,1,1,0,0,0-.33-.838,1.668,1.668,0,0,0-1.029-.258H2.154ZM12.305-3.491H9.093v2.406h3.754V0H7.734V-7.82H12.81v1.1H9.093v2.159h3.212Zm5.736,1.477a.944.944,0,0,0-.363-.795,4.362,4.362,0,0,0-1.308-.564,6.316,6.316,0,0,1-1.5-.634A2.007,2.007,0,0,1,13.8-5.758a1.906,1.906,0,0,1,.771-1.558,3.12,3.12,0,0,1,2-.612,3.379,3.379,0,0,1,1.456.3,2.389,2.389,0,0,1,1,.857A2.2,2.2,0,0,1,19.4-5.538H18.042a1.225,1.225,0,0,0-.384-.959,1.585,1.585,0,0,0-1.1-.346,1.655,1.655,0,0,0-1.034.285.948.948,0,0,0-.368.795.857.857,0,0,0,.4.717,4.579,4.579,0,0,0,1.311.559,6.028,6.028,0,0,1,1.466.618,2.332,2.332,0,0,1,.811.795,2.07,2.07,0,0,1,.258,1.05A1.861,1.861,0,0,1,18.651-.47a3.25,3.25,0,0,1-2.033.577,3.82,3.82,0,0,1-1.56-.314,2.621,2.621,0,0,1-1.106-.867,2.162,2.162,0,0,1-.395-1.289h1.359a1.265,1.265,0,0,0,.44,1.031,1.929,1.929,0,0,0,1.262.365,1.676,1.676,0,0,0,1.066-.287A.927.927,0,0,0,18.042-2.014Zm8.2-4.71H23.8V0H22.457V-6.725H20.04v-1.1h6.2Zm5.027,4.71a.944.944,0,0,0-.363-.795A4.362,4.362,0,0,0,29.6-3.373a6.316,6.316,0,0,1-1.5-.634,2.007,2.007,0,0,1-1.069-1.751A1.906,1.906,0,0,1,27.8-7.315a3.12,3.12,0,0,1,2-.612,3.379,3.379,0,0,1,1.456.3,2.389,2.389,0,0,1,1,.857,2.2,2.2,0,0,1,.365,1.233H31.271a1.225,1.225,0,0,0-.384-.959,1.585,1.585,0,0,0-1.1-.346,1.655,1.655,0,0,0-1.034.285.948.948,0,0,0-.368.795.857.857,0,0,0,.4.717,4.579,4.579,0,0,0,1.311.559,6.028,6.028,0,0,1,1.466.618,2.332,2.332,0,0,1,.811.795,2.07,2.07,0,0,1,.258,1.05A1.861,1.861,0,0,1,31.88-.47a3.25,3.25,0,0,1-2.033.577,3.82,3.82,0,0,1-1.56-.314,2.621,2.621,0,0,1-1.106-.867,2.162,2.162,0,0,1-.395-1.289h1.359a1.265,1.265,0,0,0,.44,1.031,1.929,1.929,0,0,0,1.262.365,1.676,1.676,0,0,0,1.066-.287A.927.927,0,0,0,31.271-2.014Zm7.122-1.477H35.181v2.406h3.754V0H33.822V-7.82H38.9v1.1H35.181v2.159h3.212ZM41.4-1.085h3.55V0H40.042V-7.82H41.4Zm5.951,0H50.9V0H45.993V-7.82h1.359Zm9.163-2.406H53.3v2.406h3.754V0H51.944V-7.82H57.02v1.1H53.3v2.159h3.212Zm4.522.483H59.522V0H58.164V-7.82h2.75A3.2,3.2,0,0,1,63-7.213a2.149,2.149,0,0,1,.736,1.758,2.2,2.2,0,0,1-.379,1.314,2.41,2.41,0,0,1-1.055.814L64.061-.07V0H62.605ZM59.522-4.1h1.4a1.553,1.553,0,0,0,1.074-.346A1.208,1.208,0,0,0,62.38-5.4a1.286,1.286,0,0,0-.357-.972,1.517,1.517,0,0,0-1.066-.354H59.522Z" transform="translate(23114 404.062)"/>
  </g>
</svg>
