<svg id="vs_divider" xmlns="http://www.w3.org/2000/svg" width="26.741" height="160.445" viewBox="0 0 26.741 160.445">
  <defs>
    <style>
      .cls-1 {
        fill: none;
        stroke: #dedede;
      }

      .cls-2 {
        fill: #072373;
      }

      .cls-3 {
        fill: #fff;
      }
    </style>
  </defs>
  <line id="Line_144" data-name="Line 144" class="cls-1" y2="160.445" transform="translate(14.039 0)"/>
  <g id="Group_14588" data-name="Group 14588" transform="translate(0 67.521)">
    <circle id="Ellipse_16" data-name="Ellipse 16" class="cls-2" cx="13.37" cy="13.37" r="13.37"/>
    <path id="Path_17254" data-name="Path 17254" class="cls-3" d="M2.718-1.654l1.23-4.157H5.3L3.282,0H2.148L.118-5.812H1.472Zm6.649.075a.592.592,0,0,0-.287-.532,3.056,3.056,0,0,0-.953-.322,4.9,4.9,0,0,1-1.112-.354,1.484,1.484,0,0,1-.978-1.37,1.547,1.547,0,0,1,.634-1.257,2.506,2.506,0,0,1,1.611-.5A2.607,2.607,0,0,1,9.966-5.4a1.636,1.636,0,0,1,.642,1.337H9.3a.8.8,0,0,0-.279-.626,1.07,1.07,0,0,0-.741-.25,1.157,1.157,0,0,0-.7.2.627.627,0,0,0-.271.532.529.529,0,0,0,.252.467,3.471,3.471,0,0,0,1.021.336,4.831,4.831,0,0,1,1.206.4,1.707,1.707,0,0,1,.65.561,1.431,1.431,0,0,1,.212.795A1.514,1.514,0,0,1,10-.379,2.771,2.771,0,0,1,8.3.107,3.005,3.005,0,0,1,7.025-.15a2.1,2.1,0,0,1-.87-.709,1.678,1.678,0,0,1-.312-.972H7.111a.92.92,0,0,0,.349.712,1.357,1.357,0,0,0,.854.25,1.32,1.32,0,0,0,.784-.2A.607.607,0,0,0,9.367-1.579Z" transform="translate(7.685 16.351)"/>
  </g>
</svg>
