<svg id="Youtube" xmlns="http://www.w3.org/2000/svg" width="30" height="30" viewBox="0 0 30 30">
  <rect id="Rectangle_1" data-name="Rectangle 1" width="30" height="30" fill="none" opacity="0.3"/>
  <path id="Path_5" data-name="Path 5" d="M24.088,3.692a5.269,5.269,0,0,0-.967-2.415A3.478,3.478,0,0,0,20.683.246C17.278,0,12.17,0,12.17,0h-.01S7.053,0,3.648.246A3.479,3.479,0,0,0,1.21,1.277,5.263,5.263,0,0,0,.244,3.692,36.717,36.717,0,0,0,0,7.629V9.475a36.719,36.719,0,0,0,.244,3.938,5.265,5.265,0,0,0,.966,2.415,4.127,4.127,0,0,0,2.683,1.04c1.947.187,8.273.245,8.273.245s5.112-.008,8.517-.254a3.483,3.483,0,0,0,2.437-1.03,5.271,5.271,0,0,0,.967-2.415,36.866,36.866,0,0,0,.243-3.938V7.629a36.864,36.864,0,0,0-.243-3.937M9.653,11.712V4.876l6.574,3.43Z" transform="translate(2.296 6.689)" fill="rgba(255,255,255,0.8)"/>
</svg>
