<svg xmlns="http://www.w3.org/2000/svg" width="16" height="16" viewBox="0 0 25.869 30.572"><g id="android" transform="translate(-36.539 0.001)"><g id="Group_1960" data-name="Group 1960" transform="translate(36.539 -0.001)"><path id="Path_4203" data-name="Path 4203" d="M38.431,153.884a1.825,1.825,0,0,0-1.341.551,1.8,1.8,0,0,0-.551,1.323v7.9a1.882,1.882,0,0,0,1.892,1.892A1.8,1.8,0,0,0,39.763,165a1.841,1.841,0,0,0,.542-1.341v-7.9a1.882,1.882,0,0,0-1.874-1.874Z" transform="translate(-36.539 -143.981)" fill="#24272c"/><path id="Path_4204" data-name="Path 4204" d="M106.494,171.545a2.007,2.007,0,0,0,2.021,2.021h1.36l.019,4.171a1.826,1.826,0,0,0,.551,1.341,1.8,1.8,0,0,0,1.323.551,1.882,1.882,0,0,0,1.892-1.892v-4.171h2.535v4.171a1.892,1.892,0,1,0,3.784,0v-4.171h1.378a1.928,1.928,0,0,0,1.414-.588,1.95,1.95,0,0,0,.588-1.433V159.308H106.494Z" transform="translate(-101.992 -149.056)" fill="#24272c"/><path id="Path_4205" data-name="Path 4205" d="M118.024,2.81,119.328.4a.242.242,0,0,0-.092-.367.254.254,0,0,0-.367.11l-1.323,2.425a9.222,9.222,0,0,0-7.386,0L108.838.147a.254.254,0,0,0-.367-.11.242.242,0,0,0-.092.367l1.3,2.407a8.047,8.047,0,0,0-3.16,2.82,7.122,7.122,0,0,0-1.176,3.959h17a7.122,7.122,0,0,0-1.176-3.959A8.079,8.079,0,0,0,118.024,2.81Zm-7.542,3.5a.689.689,0,0,1-.505.211.66.66,0,0,1-.5-.211.733.733,0,0,1,0-1.011.66.66,0,0,1,.5-.211.715.715,0,0,1,.505,1.222Zm7.744,0a.661.661,0,0,1-.5.211.717.717,0,0,1,0-1.433.66.66,0,0,1,.5.211.733.733,0,0,1,0,1.011Z" transform="translate(-100.919 0.001)" fill="#24272c"/><path id="Path_4206" data-name="Path 4206" d="M383.219,154.426a1.841,1.841,0,0,0-1.341-.542,1.819,1.819,0,0,0-1.323.542,1.8,1.8,0,0,0-.551,1.332v7.9a1.825,1.825,0,0,0,.551,1.341,1.8,1.8,0,0,0,1.323.551,1.882,1.882,0,0,0,1.893-1.892v-7.9A1.794,1.794,0,0,0,383.219,154.426Z" transform="translate(-357.901 -143.981)" fill="#24272c"/></g></g></svg>

