<svg xmlns="http://www.w3.org/2000/svg" width="16" height="16" viewBox="0 0 30 30"><path id="ios" d="M12.182,3A8.188,8.188,0,0,0,4,11.182V24.818A8.188,8.188,0,0,0,12.182,33H25.818A8.188,8.188,0,0,0,34,24.818V11.182A8.188,8.188,0,0,0,25.818,3ZM9.877,13.275a.789.789,0,1,1-.838.791A.794.794,0,0,1,9.877,13.275Zm7.1.389C19.47,13.664,21,15.4,21,18.19s-1.521,4.534-4.023,4.534-4.043-1.746-4.043-4.534S14.5,13.664,16.981,13.664Zm8.817,0c1.752,0,3.033,1.022,3.115,2.481H27.6a1.651,1.651,0,0,0-1.827-1.294c-1.064,0-1.766.5-1.766,1.288,0,.614.45.969,1.582,1.234l.948.232c1.78.416,2.509,1.132,2.509,2.434,0,1.657-1.282,2.693-3.334,2.693-1.916,0-3.2-.988-3.3-2.536h1.33c.116.818.92,1.342,2.072,1.342,1.077,0,1.868-.559,1.868-1.329,0-.655-.5-1.05-1.643-1.322l-1.119-.266c-1.561-.368-2.277-1.125-2.277-2.393C22.647,14.687,23.91,13.664,25.8,13.664Zm-8.817,1.248c-1.63,0-2.665,1.274-2.665,3.279s1,3.287,2.665,3.287c1.643,0,2.653-1.289,2.653-3.287S18.624,14.912,16.981,14.912ZM9.236,16h1.282v6.525H9.236Z" transform="translate(-4 -3)" fill="#24272c"/>
</svg>
