<svg width="41px" height="41px" viewBox="0 0 41 41" version="1.1" xmlns="http://www.w3.org/2000/svg" xmlns:xlink="http://www.w3.org/1999/xlink"><g  stroke="none" stroke-width="1" fill="none" fill-rule="evenodd"><g  transform="translate(3.000000, 3.000000)" fill="#2573B2" fill-rule="nonzero"><path d="M18,0 C8.0603943,0 0,8.0603943 0,18 C0,27.9396057 8.0603943,36 18,36 C27.9396057,36 36,27.9396057 36,18 C36,8.0603943 27.9396057,0 18,0 Z M12.7694092,27.2109375 L8.38558962,27.2109375 L8.38558962,14.0221252 L12.7694092,14.0221252 L12.7694092,27.2109375 Z M10.5776367,12.2211914 L10.5490723,12.2211914 C9.07800293,12.2211914 8.12658691,11.2085266 8.12658691,9.94290159 C8.12658691,8.64871214 9.10711673,7.6640625 10.6067505,7.6640625 C12.1063843,7.6640625 13.0292359,8.64871214 13.0578003,9.94290159 C13.0578003,11.2085266 12.1063843,12.2211914 10.5776367,12.2211914 Z M28.5765381,27.2109375 L24.1932678,27.2109375 L24.1932678,20.1552429 C24.1932678,18.3820496 23.5585328,17.1727295 21.9723816,17.1727295 C20.7614136,17.1727295 20.0401611,17.9884644 19.7232055,18.7759094 C19.6072998,19.0577088 19.57901,19.4515686 19.57901,19.8457031 L19.57901,27.2109375 L15.1954651,27.2109375 C15.1954651,27.2109375 15.2528687,15.2594605 15.1954651,14.0221252 L19.57901,14.0221252 L19.57901,15.8895264 C20.1615601,14.9908447 21.2038879,13.7125855 23.5296936,13.7125855 C26.4138794,13.7125855 28.5765381,15.5975647 28.5765381,19.6484985 L28.5765381,27.2109375 Z" ></path></g></g></svg>
