<svg xmlns="http://www.w3.org/2000/svg" width="16" height="16" viewBox="0 0 29.423 25.5"><g id="premise" transform="translate(0 -36.543)"><path id="Path_4213" data-name="Path 4213" d="M28.7,37.263a2.361,2.361,0,0,0-1.732-.72H2.452a2.362,2.362,0,0,0-1.732.72A2.361,2.361,0,0,0,0,39V55.668A2.361,2.361,0,0,0,.72,57.4a2.362,2.362,0,0,0,1.732.72h8.337a3.206,3.206,0,0,1-.245,1.2,10.843,10.843,0,0,1-.49,1.072,1.7,1.7,0,0,0-.245.674,1,1,0,0,0,.981.981h7.846a1,1,0,0,0,.981-.981,1.753,1.753,0,0,0-.245-.666,11.242,11.242,0,0,1-.49-1.088,3.23,3.23,0,0,1-.245-1.188h8.337a2.459,2.459,0,0,0,2.452-2.452V39A2.36,2.36,0,0,0,28.7,37.263ZM27.462,51.745a.5.5,0,0,1-.49.49H2.452a.5.5,0,0,1-.49-.49V39a.5.5,0,0,1,.49-.49h24.52a.5.5,0,0,1,.49.49v12.75Z" fill="#24272c"/></g></svg>
