<svg width="41px" height="41px" viewBox="0 0 41 41" version="1.1" xmlns="http://www.w3.org/2000/svg" xmlns:xlink="http://www.w3.org/1999/xlink"><g  stroke="none" stroke-width="1" fill="none" fill-rule="evenodd"><g  transform="translate(3.000000, 3.000000)" fill="#42ABE1" fill-rule="nonzero"> <path d="M18,0 C8.0603943,0 0,8.0603943 0,18 C0,27.9396057 8.0603943,36 18,36 C27.9396057,36 36,27.9396057 36,18 C36,8.0603943 27.9396057,0 18,0 Z M26.2185974,14.0344848 C26.2265625,14.2116394 26.2304078,14.3896179 26.2304078,14.5684204 C26.2304078,20.0278015 22.0748291,26.3232422 14.4753113,26.3235168 L14.4755859,26.3235168 L14.4753113,26.3235168 C12.1420898,26.3235168 9.97091677,25.6396179 8.14251712,24.4676514 C8.46578981,24.5058289 8.7948303,24.5247803 9.12799069,24.5247803 C11.0637817,24.5247803 12.8452148,23.864502 14.2594299,22.7562561 C12.4508057,22.7227478 10.9259033,21.5282593 10.3996582,19.8866272 C10.6515198,19.934967 10.9105225,19.9613342 11.176117,19.9613342 C11.5532227,19.9613342 11.918518,19.9105225 12.265686,19.8157654 C10.3752136,19.4372864 8.95111087,17.7665406 8.95111087,15.7659301 C8.95111087,15.7472535 8.95111087,15.7304992 8.95166016,15.7131958 C9.50839235,16.0227356 10.14505,16.2089539 10.8229065,16.2298279 C9.71356205,15.489624 8.9843445,14.2242737 8.9843445,12.7908325 C8.9843445,12.0338745 9.18896484,11.324707 9.54382324,10.7141418 C11.5812378,13.2140808 14.6260986,14.8581848 18.0598755,15.0309449 C17.9890137,14.7282715 17.9524841,14.4129639 17.9524841,14.0888672 C17.9524841,11.8081055 19.8028564,9.95773317 22.0844422,9.95773317 C23.2728882,9.95773317 24.3462524,10.460083 25.1001892,11.2631836 C26.0414429,11.0775146 26.925293,10.7336426 27.7237244,10.2604065 C27.4147339,11.2247314 26.7599488,12.0338745 25.9068604,12.5455627 C26.7426453,12.4455871 27.5391541,12.223938 28.2793579,11.8948975 C27.7264709,12.7235412 27.0252686,13.4513855 26.2185974,14.0344848 Z" ></path> </g></g> </svg>
