<svg id="whatsapp" xmlns="http://www.w3.org/2000/svg" width="34.885" height="34.027" viewBox="0 0 34.885 34.027">
  <path id="Path_1" data-name="Path 1" d="M.746,34.027a.756.756,0,0,1-.53-.215.71.71,0,0,1-.189-.7L2.3,25.034A16.5,16.5,0,0,1,.14,16.866,17.15,17.15,0,0,1,17.513,0,17.531,17.531,0,0,1,29.8,4.947,16.526,16.526,0,0,1,34.885,16.88,17.151,17.151,0,0,1,17.513,33.747h-.007A17.825,17.825,0,0,1,9.466,31.83L.935,34A.771.771,0,0,1,.746,34.027Zm0,0" transform="translate(0 0)" fill="#e5e5e5"/>
  <path id="Path_2" data-name="Path 2" d="M0,32.053l2.325-8.23A15.484,15.484,0,0,1,.138,15.882,16.164,16.164,0,0,1,16.525,0,16.546,16.546,0,0,1,28.117,4.658a15.547,15.547,0,0,1,4.8,11.237A16.165,16.165,0,0,1,16.525,31.778h-.007a16.783,16.783,0,0,1-7.831-1.934ZM9.089,26.97l.5.286A13.929,13.929,0,0,0,16.52,29.1h.005a13.435,13.435,0,0,0,13.62-13.2,12.921,12.921,0,0,0-3.986-9.34,13.75,13.75,0,0,0-9.63-3.872A13.435,13.435,0,0,0,2.9,15.883a12.871,12.871,0,0,0,2.082,7.026l.324.5L3.934,28.28Zm0,0" transform="translate(0.987 0.987)" fill="#fff"/>
  <path id="Path_3" data-name="Path 3" d="M0,30.517l2.217-7.836a14.723,14.723,0,0,1-2.086-7.56A15.4,15.4,0,0,1,15.756,0,15.788,15.788,0,0,1,26.809,4.435a14.788,14.788,0,0,1,4.572,10.7A15.4,15.4,0,0,1,15.757,30.254H15.75a16.032,16.032,0,0,1-7.467-1.84Zm0,0" transform="translate(1.752 1.755)" fill="#64b161"/>
  <g id="Group_2" data-name="Group 2" transform="translate(0.987 0.987)">
    <path id="Path_4" data-name="Path 4" d="M0,32.053l2.325-8.23A15.484,15.484,0,0,1,.138,15.882,16.164,16.164,0,0,1,16.525,0,16.546,16.546,0,0,1,28.117,4.658a15.547,15.547,0,0,1,4.8,11.237A16.165,16.165,0,0,1,16.525,31.778h-.007a16.783,16.783,0,0,1-7.831-1.934ZM9.089,26.97l.5.286A13.929,13.929,0,0,0,16.52,29.1h.005a13.435,13.435,0,0,0,13.62-13.2,12.921,12.921,0,0,0-3.986-9.34,13.75,13.75,0,0,0-9.63-3.872A13.435,13.435,0,0,0,2.9,15.883a12.871,12.871,0,0,0,2.082,7.026l.324.5L3.934,28.28Zm0,0" transform="translate(0 0)" fill="#fff"/>
    <path id="Path_5" data-name="Path 5" d="M3.846.794C3.567.039,3.273.024,3.008.011,2.791,0,2.543,0,2.295,0A1.272,1.272,0,0,0,1.3.567,5.6,5.6,0,0,0,0,4.348,9.9,9.9,0,0,0,1.52,9.038c.186.3,2.574,5.026,6.357,6.844,3.144,1.51,3.783,1.21,4.465,1.134a3.857,3.857,0,0,0,2.512-2.155,4.562,4.562,0,0,0,.217-2.156c-.093-.189-.341-.3-.713-.529s-2.2-1.324-2.543-1.475-.589-.227-.837.227S10.017,12.4,9.8,12.7s-.434.341-.806.114A9.989,9.989,0,0,1,6,10.569a13.627,13.627,0,0,1-2.07-3.14A.781.781,0,0,1,4.094,6.5a13.915,13.915,0,0,0,.93-1.55,1,1,0,0,0-.031-.794C4.9,3.933,4.176,1.691,3.846.794Zm0,0" transform="translate(8.962 7.484)" fill="#fff" fill-rule="evenodd"/>
  </g>
</svg>
