<svg xmlns="http://www.w3.org/2000/svg" width="24" height="24" viewBox="0 0 24 24">
  <g id="Calendar" transform="translate(-2408 -3784)">
    <rect id="Rectangle_10837" data-name="Rectangle 10837" width="24" height="24" transform="translate(2408 3784)" fill="none"/>
    <g id="calendar-2" data-name="calendar" transform="translate(2411 3787)">
      <path id="Path_52" data-name="Path 52" d="M14.25,1.5H13.5V.75a.75.75,0,0,0-1.5,0V1.5H6V.75a.75.75,0,1,0-1.5,0V1.5H3.75A3.755,3.755,0,0,0,0,5.25v9A3.755,3.755,0,0,0,3.75,18h10.5A3.755,3.755,0,0,0,18,14.25v-9A3.755,3.755,0,0,0,14.25,1.5ZM1.5,5.25A2.25,2.25,0,0,1,3.75,3h10.5A2.25,2.25,0,0,1,16.5,5.25V6H1.5ZM14.25,16.5H3.75A2.25,2.25,0,0,1,1.5,14.25V7.5h15v6.75A2.25,2.25,0,0,1,14.25,16.5Z" fill="#4ac067"/>
      <circle id="Ellipse_12" data-name="Ellipse 12" cx="1.112" cy="1.112" r="1.112" transform="translate(7.888 10.141)" fill="#4ac067"/>
      <circle id="Ellipse_13" data-name="Ellipse 13" cx="1.112" cy="1.112" r="1.112" transform="translate(4.132 10.141)" fill="#4ac067"/>
      <circle id="Ellipse_14" data-name="Ellipse 14" cx="1.112" cy="1.112" r="1.112" transform="translate(11.644 10.141)" fill="#4ac067"/>
    </g>
  </g>
</svg>
