<svg xmlns="http://www.w3.org/2000/svg" xmlns:xlink="http://www.w3.org/1999/xlink" width="33" height="33" viewBox="0 0 33 33">
  <defs>
    <filter id="Rectangle_10842" x="0" y="0" width="33" height="33" filterUnits="userSpaceOnUse">
      <feOffset dy="1" input="SourceAlpha"/>
      <feGaussianBlur stdDeviation="1.5" result="blur"/>
      <feFlood flood-opacity="0.078"/>
      <feComposite operator="in" in2="blur"/>
      <feComposite in="SourceGraphic"/>
    </filter>
  </defs>
  <g id="Scroll_Left" data-name="Scroll Left" transform="translate(4.5 3.5)" opacity="0.5">
    <g transform="matrix(1, 0, 0, 1, -4.5, -3.5)" filter="url(#Rectangle_10842)">
      <rect id="Rectangle_10842-2" data-name="Rectangle 10842" width="24" height="24" rx="4" transform="translate(4.5 3.5)" fill="#fff"/>
    </g>
    <path id="angle-small-right" d="M9.982,9.182l4.59-3.934a1.122,1.122,0,0,1,1.41,0,.774.774,0,0,1,0,1.217l-4.6,3.925a.774.774,0,0,0,0,1.217l4.6,3.925a.774.774,0,0,1,.005,1.213,1.122,1.122,0,0,1-1.415,0l-4.59-3.934A2.32,2.32,0,0,1,9.982,9.182Z" transform="translate(-0.691 1.001)" fill="#472dc2"/>
  </g>
</svg>
