<svg xmlns="http://www.w3.org/2000/svg" width="104" height="104" viewBox="0 0 104 104">
  <g id="thumb" transform="translate(-273.938 -282.569)">
    <rect id="Rectangle_10838" data-name="Rectangle 10838" width="104" height="104" transform="translate(273.938 282.569)" fill="none"/>
    <g id="Thumb-2" data-name="Thumb" transform="translate(284.95 292.031)">
      <path id="Path_55" data-name="Path 55" d="M489.937,525.321A7.73,7.73,0,0,1,488.284,536c-.485.357-.563.643-.312,1.146a7.691,7.691,0,0,1-2.473,9.569c-.335.235-.49.454-.266.886a7.64,7.64,0,0,1-.144,7.2,8.313,8.313,0,0,1-6.064,4.1,2.634,2.634,0,0,1-.479.029l-10.366,0c0-.027,0-.055,0-.084s0-.051,0-.078c-.02,0-.038.018-.055.053a.077.077,0,0,0-.009.024c0,.027.02.055.062.084h-3.647v-.082a.585.585,0,0,0-.062,0,.117.117,0,0,0,.062.08H454.75a50.76,50.76,0,0,1-19.056-3.742,1.669,1.669,0,0,1-.837-.505.535.535,0,0,0-.007-.084,11.957,11.957,0,0,0,.826-4.925q-.033-16.716-.011-33.435c0-.359.02-.716.031-1.074q3.818-1.818,7.457-3.97c.246.266.569.155.86.155q12.323.007,24.648,0a1.454,1.454,0,0,0,.957-.16c.277.273.627.16.946.16,4.333.007,8.665,0,13,.009a7.786,7.786,0,0,1,7.717,6.13,7.358,7.358,0,0,1-1.316,6.257A1.054,1.054,0,0,0,489.937,525.321Z" transform="translate(-409.354 -474.016)" fill="#ffc380"/>
      <path id="Path_56" data-name="Path 56" d="M585.074,725.93c0,.027,0,.051,0,.078h-.064a.079.079,0,0,1,.009-.024C585.037,725.948,585.054,725.93,585.074,725.93Z" transform="translate(-526.245 -641.18)" fill="#fece98"/>
      <path id="Path_57" data-name="Path 57" d="M346.093,550.233a11.958,11.958,0,0,1-.826,4.925c0,.029.007.055.009.086a.985.985,0,0,1-.217.6,10.121,10.121,0,0,1-2.355,2.426,7.367,7.367,0,0,1-3.3,1.168l-.044.007a12.059,12.059,0,0,1-1.834.038h-2.029v-.164q0-6.327-.009-12.655c0-.317.12-.667-.155-.944a2.232,2.232,0,0,0-2.375-1.989,2.392,2.392,0,0,0-2.439,2.153q0,6.56.007,13.123v.31c0,.055,0,.111,0,.166h-8.275a1.833,1.833,0,0,1-.563-.022,2.846,2.846,0,0,1-.884-.567,2.743,2.743,0,0,1-.572-.724,4.251,4.251,0,0,1-.448-1.865c-.007-.146-.009-.295-.009-.443.035-13.532.02-27.065.022-40.6a7.53,7.53,0,0,1,.049-1.072,2.462,2.462,0,0,1,2.592-2.275q10.482-.017,20.961,0a2.541,2.541,0,0,1,2.681,2.643c.013.388.022.773.033,1.159-.011.359-.031.716-.031,1.075Q346.08,533.517,346.093,550.233Z" transform="translate(-319.77 -474.577)" fill="#472dc2"/>
      <path id="Path_58" data-name="Path 58" d="M585.074,725.93c0,.027,0,.051,0,.078s0,.058,0,.084c-.042-.029-.062-.058-.062-.084a.084.084,0,0,1,.009-.024C585.037,725.948,585.054,725.93,585.074,725.93Z" transform="translate(-526.245 -641.18)" fill="#fee1c0"/>
      <path id="Path_59" data-name="Path 59" d="M568.612,726.29v.082a.117.117,0,0,1-.062-.08A.587.587,0,0,1,568.612,726.29Z" transform="translate(-513.432 -641.46)" fill="#fedab0"/>
      <path id="Path_60" data-name="Path 60" d="M585.074,725.93c0,.027,0,.051,0,.078s0,.058,0,.084c-.042-.029-.062-.058-.062-.084a.084.084,0,0,1,.009-.024C585.037,725.948,585.054,725.93,585.074,725.93Z" transform="translate(-526.245 -641.18)" fill="#fedab0"/>
      <path id="Path_61" data-name="Path 61" d="M568.612,726.29v.082a.117.117,0,0,1-.062-.08A.587.587,0,0,1,568.612,726.29Z" transform="translate(-513.432 -641.46)" fill="#fed3a3"/>
      <path id="Path_62" data-name="Path 62" d="M502.056,413.128a26.493,26.493,0,0,1-3.261,13.579,1.454,1.454,0,0,1-.957.16q-12.323,0-24.648,0c-.29,0-.614.111-.86-.155a39.561,39.561,0,0,0,8.448-6.879,20.547,20.547,0,0,0,5.5-11.959c.374-3.933,3.454-5.915,7.588-4.978A10.686,10.686,0,0,1,502.056,413.128Z" transform="translate(-438.53 -389.533)" fill="#ffb868"/>
      <path id="Path_63" data-name="Path 63" d="M511.92,346.014a2.485,2.485,0,0,1,4.544-1.471c.99,1.62,1.95,3.261,2.845,4.934a2.458,2.458,0,0,1-1.03,3.279,2.422,2.422,0,0,1-3.323-.84c-.964-1.571-1.859-3.184-2.778-4.781A1.9,1.9,0,0,1,511.92,346.014Z" transform="translate(-469.342 -343.438)" fill="#4ac067"/>
      <path id="Path_64" data-name="Path 64" d="M603.429,346.091a2.338,2.338,0,0,1-.428,1.327c-.811,1.407-1.613,2.818-2.437,4.216a2.524,2.524,0,1,1-4.365-2.515c.855-1.507,1.713-3.015,2.61-4.5a2.474,2.474,0,0,1,2.862-1.11A2.5,2.5,0,0,1,603.429,346.091Z" transform="translate(-534.637 -343.401)" fill="#4ac067"/>
      <path id="Path_65" data-name="Path 65" d="M469.082,431.553c-.939,0-1.879.029-2.816-.007a2.489,2.489,0,0,1,.053-4.969q2.775-.04,5.55,0a2.491,2.491,0,0,1,.029,4.976c-.082,0-.166.011-.248.011h-2.568Z" transform="translate(-431.998 -408.133)" fill="#4ac067"/>
      <path id="Path_66" data-name="Path 66" d="M636.889,431.564c-.939,0-1.879.029-2.816-.007a2.462,2.462,0,0,1-2.373-2.486,2.512,2.512,0,0,1,2.47-2.488q2.692-.027,5.386,0a2.489,2.489,0,0,1,.067,4.978c-.911.029-1.823.007-2.734.007Z" transform="translate(-562.591 -408.144)" fill="#4ac067"/>
      <path id="Path_67" data-name="Path 67" d="M373.249,658.493q.013,6.327.009,12.655v.164h-4.974c0-.055,0-.111,0-.166v-.31q0-6.56-.007-13.123a2.392,2.392,0,0,1,2.439-2.153,2.232,2.232,0,0,1,2.375,1.99C373.369,657.826,373.249,658.177,373.249,658.493Z" transform="translate(-357.532 -586.4)" fill="#b1d0ff"/>
    </g>
  </g>
</svg>
