<svg xmlns="http://www.w3.org/2000/svg" id="clock_top_bar" width="15.377" height="15.376" viewBox="0 0 15.377 15.376">
    <defs>
        <style>
            .cls-1{fill:#fff}
        </style>
    </defs>
    <path id="Path_111" d="M13.759 4.046a.641.641 0 0 0-.3.856 6.342 6.342 0 0 1 .641 2.786 6.407 6.407 0 1 1-6.411-6.407 6.33 6.33 0 0 1 3.977 1.382.641.641 0 1 0 .8-1 7.689 7.689 0 1 0 2.914 6.028 7.61 7.61 0 0 0-.762-3.345.64.64 0 0 0-.856-.3zm0 0" class="cls-1"/>
    <path id="Path_112" d="M176.677 64a.677.677 0 0 0-.677.677v4.738a.677.677 0 0 0 .677.677h3.384a.677.677 0 1 0 0-1.354h-2.708v-4.061a.677.677 0 0 0-.676-.677zm0 0" class="cls-1" transform="translate(-169.116 -61.524)"/>
</svg>
