<svg xmlns="http://www.w3.org/2000/svg" width="16" height="16" viewBox="0 0 16 16">
  <g id="arrow_orange" transform="translate(3.654 1.134)">
    <g id="Group_12486" data-name="Group 12486">
      <rect id="Rectangle_11012" data-name="Rectangle 11012" width="16" height="16" transform="translate(-3.654 -1.134)" fill="none"/>
      <path id="Path_16193" data-name="Path 16193" d="M19.127,31.557a.093.093,0,0,0,.032.064l1.654,1.419a.092.092,0,0,0,.128-.007L25.5,28.121a.092.092,0,0,0,0-.126l-4.559-4.9a.092.092,0,0,0-.128-.007l-1.65,1.423a.092.092,0,0,0-.009.131l2.988,3.416L19.15,31.489A.092.092,0,0,0,19.127,31.557Z" transform="translate(-18.114 -21.478)" fill="#f75d34"/>
    </g>
  </g>
</svg>
