<?xml version="1.0" encoding="UTF-8"?>
<svg width="16px" height="16px" viewBox="0 0 16 16" version="1.1" xmlns="http://www.w3.org/2000/svg" xmlns:xlink="http://www.w3.org/1999/xlink">
    <!-- Generator: Sketch 52.5 (67469) - http://www.bohemiancoding.com/sketch -->
    <title>Call</title>
    <desc>Created with Sketch.</desc>
    <g id="Page-1" stroke="none" stroke-width="1" fill="none" fill-rule="evenodd">
        <g id="Artboard" fill="#24272C">
            <path d="M4.85,7.386 C5.27933548,8.20733744 5.82533002,8.94933002 6.488,9.612 C7.15066998,10.27467 7.89266256,10.8206645 8.714,11.25 L10.002,9.962 C10.076667,9.87799958 10.1699994,9.82200014 10.282,9.794 C10.3940006,9.76599986 10.5013328,9.7753331 10.604,9.822 C11.2200031,10.0366677 11.9106628,10.144 12.676,10.144 C12.8346675,10.144 12.9699994,10.1999994 13.082,10.312 C13.1940006,10.4240006 13.25,10.5593325 13.25,10.718 L13.25,12.776 C13.25,12.9346675 13.1940006,13.0699994 13.082,13.182 C12.9699994,13.2940006 12.8346675,13.35 12.676,13.35 C11.3319933,13.35 10.0440062,13.0886693 8.812,12.566 C7.62666074,12.0619975 6.57667124,11.3526712 5.662,10.438 C4.74732876,9.52332876 4.03800252,8.47333926 3.534,7.288 C3.01133072,6.05599384 2.75,4.76800672 2.75,3.424 C2.75,3.26533254 2.80599944,3.13000056 2.918,3.018 C3.03000056,2.90599944 3.16533254,2.85 3.324,2.85 L5.382,2.85 C5.54066746,2.85 5.67599944,2.90599944 5.788,3.018 C5.90000056,3.13000056 5.956,3.26533254 5.956,3.424 C5.956,4.18933716 6.06333226,4.87999692 6.278,5.496 C6.30600014,5.59866718 6.31066676,5.70599944 6.292,5.818 C6.27333324,5.93000056 6.22200042,6.02333296 6.138,6.098 L4.85,7.386 Z" id="call---material"></path>
        </g>
    </g>
</svg>