<?xml version="1.0" encoding="UTF-8"?>
<svg width="20px" height="20px" viewBox="0 0 20 20" version="1.1" xmlns="http://www.w3.org/2000/svg" xmlns:xlink="http://www.w3.org/1999/xlink">
    <!-- Generator: Sketch 53.2 (72643) - https://sketchapp.com -->
    <title>contact_20</title>
    <desc>Created with Sketch.</desc>
    <g id="Page-1" stroke="none" stroke-width="1" fill="none" fill-rule="evenodd">
        <g id="Artboard" transform="translate(-79.000000, -1023.000000)">
            <g id="outline-contact_mail-24px" transform="translate(79.000000, 1023.000000)">
                <polygon id="Path" points="0 0 20 0 20 20 0 20"></polygon>
                <path d="M18.3333333,2.5 L1.66666667,2.5 C0.75,2.5 0,3.25 0,4.16666667 L0,15.8333333 C0,16.75 0.75,17.5 1.66666667,17.5 L18.3333333,17.5 C19.25,17.5 19.9916667,16.75 19.9916667,15.8333333 L20,4.16666667 C20,3.25 19.25,2.5 18.3333333,2.5 Z M18.3333333,15.8333333 L1.66666667,15.8333333 L1.66666667,4.16666667 L18.3333333,4.16666667 L18.3333333,15.8333333 Z M17.5,5 L11.6666667,5 L11.6666667,9.16666667 L17.5,9.16666667 L17.5,5 Z M16.6666667,6.66666667 L14.5833333,8.125 L12.5,6.66666667 L12.5,5.83333333 L14.5833333,7.29166667 L16.6666667,5.83333333 L16.6666667,6.66666667 Z M7.5,10 C8.875,10 10,8.875 10,7.5 C10,6.125 8.875,5 7.5,5 C6.125,5 5,6.125 5,7.5 C5,8.875 6.125,10 7.5,10 Z M7.5,6.66666667 C7.95833333,6.66666667 8.33333333,7.04166667 8.33333333,7.5 C8.33333333,7.95833333 7.95833333,8.33333333 7.5,8.33333333 C7.04166667,8.33333333 6.66666667,7.95833333 6.66666667,7.5 C6.66666667,7.04166667 7.04166667,6.66666667 7.5,6.66666667 Z M12.5,13.825 C12.5,11.7416667 9.19166667,10.8416667 7.5,10.8416667 C5.80833333,10.8416667 2.5,11.7416667 2.5,13.825 L2.5,15 L12.5,15 L12.5,13.825 Z M4.56666667,13.3333333 C5.18333333,12.9166667 6.41666667,12.5 7.5,12.5 C8.58333333,12.5 9.80833333,12.9083333 10.4333333,13.3333333 L4.56666667,13.3333333 Z" id="Shape" fill="#24272C" fill-rule="nonzero"></path>
            </g>
        </g>
    </g>
</svg>