<?xml version="1.0" encoding="UTF-8"?>
<svg width="20px" height="20px" viewBox="0 0 20 20" version="1.1" xmlns="http://www.w3.org/2000/svg" xmlns:xlink="http://www.w3.org/1999/xlink">
    <!-- Generator: Sketch 53.2 (72643) - https://sketchapp.com -->
    <title>myorders_20</title>
    <desc>Created with Sketch.</desc>
    <g id="Page-1" stroke="none" stroke-width="1" fill="none" fill-rule="evenodd">
        <g id="Artboard" transform="translate(-79.000000, -519.000000)">
            <g id="outline-shopping_cart-24px" transform="translate(79.000000, 519.000000)">
                <polygon id="Path" points="0 0 20 0 20 20 0 20"></polygon>
                <path d="M12.9583333,10.8333333 C13.5833333,10.8333333 14.1333333,10.4916667 14.4166667,9.975 L17.4,4.56666667 C17.7083333,4.01666667 17.3083333,3.33333333 16.675,3.33333333 L4.34166667,3.33333333 L3.55833333,1.66666667 L0.833333333,1.66666667 L0.833333333,3.33333333 L2.5,3.33333333 L5.5,9.65833333 L4.375,11.6916667 C3.76666667,12.8083333 4.56666667,14.1666667 5.83333333,14.1666667 L15.8333333,14.1666667 L15.8333333,12.5 L5.83333333,12.5 L6.75,10.8333333 L12.9583333,10.8333333 Z M5.13333333,5 L15.2583333,5 L12.9583333,9.16666667 L7.10833333,9.16666667 L5.13333333,5 Z M5.83333333,15 C4.91666667,15 4.175,15.75 4.175,16.6666667 C4.175,17.5833333 4.91666667,18.3333333 5.83333333,18.3333333 C6.75,18.3333333 7.5,17.5833333 7.5,16.6666667 C7.5,15.75 6.75,15 5.83333333,15 Z M14.1666667,15 C13.25,15 12.5083333,15.75 12.5083333,16.6666667 C12.5083333,17.5833333 13.25,18.3333333 14.1666667,18.3333333 C15.0833333,18.3333333 15.8333333,17.5833333 15.8333333,16.6666667 C15.8333333,15.75 15.0833333,15 14.1666667,15 Z" id="Shape" fill="#24272C" fill-rule="nonzero"></path>
            </g>
        </g>
    </g>
</svg>