<?xml version="1.0" encoding="UTF-8"?>
<svg width="20px" height="20px" viewBox="0 0 20 20" version="1.1" xmlns="http://www.w3.org/2000/svg" xmlns:xlink="http://www.w3.org/1999/xlink">
    <!-- Generator: Sketch 53.2 (72643) - https://sketchapp.com -->
    <title>profile_20</title>
    <desc>Created with Sketch.</desc>
    <g id="Page-1" stroke="none" stroke-width="1" fill="none" fill-rule="evenodd">
        <g id="Artboard" transform="translate(-79.000000, -631.000000)">
            <g id="outline-account_circle-24px" transform="translate(79.000000, 631.000000)">
                <polygon id="Path" points="0 0 20 0 20 20 0 20"></polygon>
                <path d="M10,1.66666667 C5.4,1.66666667 1.66666667,5.4 1.66666667,10 C1.66666667,14.6 5.4,18.3333333 10,18.3333333 C14.6,18.3333333 18.3333333,14.6 18.3333333,10 C18.3333333,5.4 14.6,1.66666667 10,1.66666667 Z M5.89166667,15.2333333 C6.25,14.4833333 8.43333333,13.75 10,13.75 C11.5666667,13.75 13.7583333,14.4833333 14.1083333,15.2333333 C12.975,16.1333333 11.55,16.6666667 10,16.6666667 C8.45,16.6666667 7.025,16.1333333 5.89166667,15.2333333 Z M15.3,14.025 C14.1083333,12.575 11.2166667,12.0833333 10,12.0833333 C8.78333333,12.0833333 5.89166667,12.575 4.7,14.025 C3.85,12.9083333 3.33333333,11.5166667 3.33333333,10 C3.33333333,6.325 6.325,3.33333333 10,3.33333333 C13.675,3.33333333 16.6666667,6.325 16.6666667,10 C16.6666667,11.5166667 16.15,12.9083333 15.3,14.025 L15.3,14.025 Z M10,5 C8.38333333,5 7.08333333,6.3 7.08333333,7.91666667 C7.08333333,9.53333333 8.38333333,10.8333333 10,10.8333333 C11.6166667,10.8333333 12.9166667,9.53333333 12.9166667,7.91666667 C12.9166667,6.3 11.6166667,5 10,5 Z M10,9.16666667 C9.30833333,9.16666667 8.75,8.60833333 8.75,7.91666667 C8.75,7.225 9.30833333,6.66666667 10,6.66666667 C10.6916667,6.66666667 11.25,7.225 11.25,7.91666667 C11.25,8.60833333 10.6916667,9.16666667 10,9.16666667 Z" id="Shape" fill="#24272C" fill-rule="nonzero"></path>
            </g>
        </g>
    </g>
</svg>