<?xml version="1.0" encoding="UTF-8"?>
<svg width="20px" height="20px" viewBox="0 0 20 20" version="1.1" xmlns="http://www.w3.org/2000/svg" xmlns:xlink="http://www.w3.org/1999/xlink">
    <!-- Generator: Sketch 53.2 (72643) - https://sketchapp.com -->
    <title>reviews_20</title>
    <desc>Created with Sketch.</desc>
    <g id="Page-1" stroke="none" stroke-width="1" fill="none" fill-rule="evenodd">
        <g id="Artboard" transform="translate(-79.000000, -687.000000)">
            <g id="outline-stars-24px" transform="translate(79.000000, 687.000000)">
                <polygon id="Path" points="0 0 20 0 20 20 0 20"></polygon>
                <path d="M9.99166667,1.66666667 C5.39166667,1.66666667 1.66666667,5.4 1.66666667,10 C1.66666667,14.6 5.39166667,18.3333333 9.99166667,18.3333333 C14.6,18.3333333 18.3333333,14.6 18.3333333,10 C18.3333333,5.4 14.6,1.66666667 9.99166667,1.66666667 Z M16.225,7.63333333 L12.05,7.275 L10.3833333,3.35 C13.0583333,3.50833333 15.3083333,5.24166667 16.225,7.63333333 Z M12,12.85 L10,11.65 L8.00833333,12.85 L8.53333333,10.5833333 L6.775,9.05833333 L9.09166667,8.85833333 L10,6.71666667 L10.9083333,8.85 L13.225,9.05 L11.4666667,10.575 L12,12.85 L12,12.85 Z M9.61666667,3.35 L7.95,7.28333333 L3.76666667,7.64166667 C4.68333333,5.24166667 6.93333333,3.5 9.61666667,3.35 L9.61666667,3.35 Z M3.33333333,10 C3.33333333,9.46666667 3.4,8.95 3.525,8.45 L6.68333333,11.1833333 L5.75833333,15.1416667 C4.275,13.9166667 3.33333333,12.0666667 3.33333333,10 Z M6.53333333,15.6833333 L10,13.5916667 L13.4666667,15.675 C12.45,16.3 11.2666667,16.6666667 9.99166667,16.6666667 C8.725,16.6666667 7.54166667,16.3 6.53333333,15.6833333 Z M14.2416667,15.1416667 L13.3166667,11.1833333 L16.475,8.45 C16.5916667,8.94166667 16.6666667,9.46666667 16.6666667,10 C16.6666667,12.0666667 15.7166667,13.9166667 14.2416667,15.1416667 Z" id="Shape" fill="#24272C" fill-rule="nonzero"></path>
            </g>
        </g>
    </g>
</svg>