<?xml version="1.0" encoding="UTF-8"?>
<svg width="20px" height="20px" viewBox="0 0 20 20" version="1.1" xmlns="http://www.w3.org/2000/svg" xmlns:xlink="http://www.w3.org/1999/xlink">
    <!-- Generator: Sketch 53.2 (72643) - https://sketchapp.com -->
    <title>sellwithus_20</title>
    <desc>Created with Sketch.</desc>
    <g id="Page-1" stroke="none" stroke-width="1" fill="none" fill-rule="evenodd">
        <g id="Artboard" transform="translate(-79.000000, -855.000000)">
            <g id="outline-local_mall-24px" transform="translate(79.000000, 855.000000)">
                <polygon id="Path" points="0 0 20 0 20 20 0 20"></polygon>
                <path d="M15.8333333,5 L14.1666667,5 C14.1666667,2.7 12.3,0.833333333 10,0.833333333 C7.7,0.833333333 5.83333333,2.7 5.83333333,5 L4.16666667,5 C3.25,5 2.5,5.75 2.5,6.66666667 L2.5,16.6666667 C2.5,17.5833333 3.25,18.3333333 4.16666667,18.3333333 L15.8333333,18.3333333 C16.75,18.3333333 17.5,17.5833333 17.5,16.6666667 L17.5,6.66666667 C17.5,5.75 16.75,5 15.8333333,5 Z M10,2.5 C11.3833333,2.5 12.5,3.61666667 12.5,5 L7.5,5 C7.5,3.61666667 8.61666667,2.5 10,2.5 Z M15.8333333,16.6666667 L4.16666667,16.6666667 L4.16666667,6.66666667 L15.8333333,6.66666667 L15.8333333,16.6666667 Z M10,10 C8.61666667,10 7.5,8.88333333 7.5,7.5 L5.83333333,7.5 C5.83333333,9.8 7.7,11.6666667 10,11.6666667 C12.3,11.6666667 14.1666667,9.8 14.1666667,7.5 L12.5,7.5 C12.5,8.88333333 11.3833333,10 10,10 Z" id="Shape" fill="#24272C" fill-rule="nonzero"></path>
            </g>
        </g>
    </g>
</svg>