<?xml version="1.0" encoding="UTF-8"?>
<svg width="20px" height="20px" viewBox="0 0 20 20" version="1.1" xmlns="http://www.w3.org/2000/svg" xmlns:xlink="http://www.w3.org/1999/xlink">
    <!-- Generator: Sketch 53.2 (72643) - https://sketchapp.com -->
    <title>wishlist_20</title>
    <desc>Created with Sketch.</desc>
    <g id="Page-1" stroke="none" stroke-width="1" fill="none" fill-rule="evenodd">
        <g id="Artboard" transform="translate(-79.000000, -575.000000)">
            <g id="outline-favorite_border-24px" transform="translate(79.000000, 575.000000)">
                <polygon id="Path" points="0 0 20 0 20 20 0 20"></polygon>
                <path d="M13.75,2.5 C12.3,2.5 10.9083333,3.175 10,4.24166667 C9.09166667,3.175 7.7,2.5 6.25,2.5 C3.68333333,2.5 1.66666667,4.51666667 1.66666667,7.08333333 C1.66666667,10.2333333 4.5,12.8 8.79166667,16.7 L10,17.7916667 L11.2083333,16.6916667 C15.5,12.8 18.3333333,10.2333333 18.3333333,7.08333333 C18.3333333,4.51666667 16.3166667,2.5 13.75,2.5 Z M10.0833333,15.4583333 L10,15.5416667 L9.91666667,15.4583333 C5.95,11.8666667 3.33333333,9.49166667 3.33333333,7.08333333 C3.33333333,5.41666667 4.58333333,4.16666667 6.25,4.16666667 C7.53333333,4.16666667 8.78333333,4.99166667 9.225,6.13333333 L10.7833333,6.13333333 C11.2166667,4.99166667 12.4666667,4.16666667 13.75,4.16666667 C15.4166667,4.16666667 16.6666667,5.41666667 16.6666667,7.08333333 C16.6666667,9.49166667 14.05,11.8666667 10.0833333,15.4583333 Z" id="Shape" fill="#24272C" fill-rule="nonzero"></path>
            </g>
        </g>
    </g>
</svg>