<svg width="61" height="45" viewBox="0 0 61 45" fill="none" xmlns="http://www.w3.org/2000/svg">
<mask id="mask0_131_7449" style="mask-type:luminance" maskUnits="userSpaceOnUse" x="0" y="0" width="61" height="45">
<path d="M60.046 0H0.556152V44.6173H60.046V0Z" fill="white"/>
</mask>
<g mask="url(#mask0_131_7449)">
<path fill-rule="evenodd" clip-rule="evenodd" d="M37.4623 27.4434C34.0053 29.9915 28.9945 31.3511 24.6803 31.3511C18.6311 31.3511 13.1853 29.1137 9.06529 25.3925C8.74164 25.0998 9.03169 24.701 9.4201 24.9289C13.8661 27.5159 19.364 29.0722 25.0429 29.0722C29.137 29.0532 33.187 28.2252 36.96 26.6356C37.5452 26.387 38.0346 27.0189 37.4624 27.4435" fill="white"/>
<path fill-rule="evenodd" clip-rule="evenodd" d="M38.8997 25.799C38.4595 25.2345 35.9786 25.5323 34.8651 25.6643C34.5259 25.7058 34.4742 25.4105 34.7796 25.1982C36.7555 23.8077 39.9976 24.209 40.3757 24.6751C40.7534 25.1439 40.2773 28.3937 38.4206 29.9448C38.1357 30.1831 37.8638 30.0562 37.9907 29.7402C38.4077 28.6993 39.3425 26.3661 38.8997 25.799" fill="white"/>
<path fill-rule="evenodd" clip-rule="evenodd" d="M34.9428 15.3812V14.0295C34.9417 13.9843 34.9497 13.9393 34.9665 13.8973C34.9833 13.8554 35.0084 13.8172 35.0404 13.7852C35.0724 13.7533 35.1105 13.7281 35.1525 13.7114C35.1945 13.6946 35.2395 13.6865 35.2847 13.6877H41.3364C41.3821 13.6859 41.4277 13.6935 41.4704 13.71C41.5131 13.7265 41.552 13.7515 41.5847 13.7835C41.6174 13.8154 41.6432 13.8537 41.6607 13.896C41.6781 13.9383 41.6867 13.9838 41.686 14.0295V15.187C41.6834 15.3812 41.5203 15.635 41.2303 16.0364L38.0944 20.5136C39.2597 20.4852 40.4897 20.6586 41.5462 21.2542C41.6412 21.3059 41.7208 21.3817 41.7772 21.474C41.8336 21.5663 41.8647 21.6718 41.8673 21.7799V23.2222C41.8673 23.419 41.6498 23.6495 41.4219 23.5304C39.5601 22.5542 37.0871 22.448 35.0284 23.5408C34.8186 23.6548 34.5985 23.4268 34.5985 23.23V21.8604C34.5985 21.64 34.6011 21.2647 34.8212 20.9307L38.4543 15.7206H35.2924C35.2468 15.7226 35.2013 15.7152 35.1587 15.699C35.116 15.6828 35.0772 15.6581 35.0444 15.6263C35.0117 15.5946 34.9858 15.5564 34.9683 15.5143C34.9509 15.4722 34.9422 15.4268 34.9428 15.3812ZM12.8669 23.8154H11.0256C10.9423 23.8113 10.8633 23.7774 10.8029 23.7199C10.7426 23.6623 10.7049 23.585 10.6967 23.5021V14.0531C10.6975 14.0075 10.7074 13.9625 10.7257 13.9207C10.744 13.8789 10.7704 13.8411 10.8034 13.8096C10.8364 13.778 10.8753 13.7533 10.9179 13.7369C10.9604 13.7205 11.0058 13.7127 11.0515 13.7139H12.7683C12.853 13.7166 12.9337 13.7502 12.9952 13.8084C13.0568 13.8665 13.095 13.9452 13.1025 14.0295V15.2649H13.1362C13.5842 14.0711 14.4258 13.5145 15.5599 13.5145C16.7122 13.5145 17.4321 14.0712 17.9501 15.2649C18.3952 14.071 19.4081 13.5143 20.4932 13.5143C21.2648 13.5143 22.109 13.8329 22.6243 14.5475C23.2067 15.3423 23.0879 16.4974 23.0879 17.51L23.0853 23.4737C23.0845 23.5194 23.0748 23.5646 23.0565 23.6065C23.0382 23.6485 23.0119 23.6865 22.9789 23.7182C22.946 23.75 22.9071 23.7749 22.8644 23.7916C22.8218 23.8083 22.7763 23.8164 22.7306 23.8155H20.8919C20.8037 23.8108 20.7206 23.773 20.6591 23.7096C20.5976 23.6462 20.5624 23.5619 20.5605 23.4737V18.4655C20.5605 18.0667 20.5967 17.0722 20.5087 16.6943C20.3714 16.0597 19.9597 15.8811 19.4261 15.8811C19.187 15.8884 18.9553 15.9657 18.7597 16.1033C18.5641 16.2409 18.4131 16.4329 18.3255 16.6554C18.1366 17.1319 18.1547 17.9294 18.1547 18.4653V23.4734C18.1539 23.5192 18.1441 23.5644 18.1258 23.6063C18.1076 23.6483 18.0812 23.6862 18.0482 23.718C18.0153 23.7498 17.9764 23.7747 17.9337 23.7914C17.8911 23.8081 17.8456 23.8162 17.7999 23.8153H15.9614C15.8731 23.811 15.7897 23.7734 15.7281 23.7099C15.6665 23.6464 15.6314 23.5618 15.63 23.4734L15.6274 18.4653C15.6274 17.4113 15.8005 15.8602 14.4931 15.8602C13.1699 15.8602 13.2217 17.3725 13.2217 18.4653V23.4734C13.2209 23.5192 13.2111 23.5643 13.1928 23.6063C13.1746 23.6483 13.1482 23.6862 13.1153 23.718C13.0823 23.7497 13.0434 23.7747 13.0008 23.7914C12.9582 23.8081 12.9127 23.8162 12.8669 23.8153M46.8962 13.5142C49.6282 13.5142 51.1068 15.8603 51.1068 18.8435C51.1068 21.7257 49.4728 24.0123 46.8961 24.0123C44.2133 24.0123 42.7529 21.6661 42.7529 18.7425C42.7529 15.8008 44.2315 13.5142 46.8962 13.5142ZM46.9119 15.4434C45.555 15.4434 45.4695 17.2926 45.4695 18.4446C45.4695 19.5997 45.4514 22.0649 46.8964 22.0649C48.3233 22.0649 48.3906 20.0761 48.3906 18.8642C48.3906 18.0666 48.3569 17.1137 48.1161 16.3575C47.909 15.6998 47.4972 15.4434 46.9122 15.4434M54.6493 23.8154H52.8158C52.7276 23.8108 52.6445 23.773 52.583 23.7096C52.5215 23.6462 52.4863 23.5619 52.4844 23.4736L52.4819 14.0216C52.4918 13.9353 52.5338 13.8557 52.5994 13.7987C52.6651 13.7417 52.7497 13.7113 52.8366 13.7135H54.5431C54.6191 13.7161 54.6922 13.7433 54.7515 13.7909C54.8107 13.8385 54.853 13.904 54.872 13.9776V15.4227H54.9057C55.421 14.1305 56.1435 13.5142 57.4149 13.5142C58.2412 13.5142 59.0464 13.812 59.5643 14.6277C60.046 15.3838 60.046 16.6554 60.046 17.5695V23.5176C60.0325 23.6016 59.9893 23.6779 59.9241 23.7327C59.859 23.7874 59.7763 23.8167 59.6912 23.8154H57.8448C57.7644 23.8111 57.688 23.7791 57.6285 23.7248C57.569 23.6705 57.5301 23.5973 57.5185 23.5176V18.3852C57.5185 17.352 57.6376 15.8396 56.3662 15.8396C55.9182 15.8396 55.5064 16.14 55.3019 16.5958C55.0428 17.1733 55.0092 17.7482 55.0092 18.3852V23.4737C55.006 23.5664 54.9665 23.6543 54.8992 23.7182C54.8319 23.7821 54.7421 23.8171 54.6493 23.8155M30.1185 19.3017C30.1185 20.019 30.1367 20.6172 29.7741 21.2542C29.4815 21.7721 29.0154 22.0906 28.5 22.0906C27.793 22.0906 27.3787 21.552 27.3787 20.757C27.3787 19.1877 28.7849 18.9029 30.1185 18.9029V19.3017ZM31.9752 23.7894C31.9157 23.8401 31.8423 23.8714 31.7645 23.8793C31.6868 23.8872 31.6086 23.8712 31.5402 23.8334C30.9291 23.3259 30.8177 23.0902 30.4836 22.6059C29.4736 23.6367 28.7564 23.9447 27.4486 23.9447C25.8975 23.9447 24.6933 22.9891 24.6933 21.0755C24.6933 19.5813 25.5013 18.5636 26.6562 18.0664C27.6556 17.6262 29.0515 17.5484 30.1186 17.4267V17.1888C30.1186 16.7512 30.1522 16.2332 29.8932 15.8552C29.6705 15.516 29.2406 15.3761 28.86 15.3761C28.1582 15.3761 27.5341 15.7361 27.3814 16.4819C27.3499 16.6476 27.2286 16.8107 27.0603 16.8185L25.2761 16.6269C25.1259 16.5932 24.9575 16.4715 25.0016 16.2413C25.4107 14.0762 27.3683 13.4236 29.119 13.4236C30.0149 13.4236 31.1854 13.6619 31.8924 14.3403C32.7883 15.1767 32.7029 16.2928 32.7029 17.5073V20.3765C32.7029 21.2389 33.0603 21.6169 33.3969 22.083C33.5135 22.2488 33.5393 22.4482 33.389 22.5725C33.0135 22.8858 32.3454 23.4685 31.9777 23.7948L31.9751 23.7896M5.98129 19.3017C5.98129 20.019 5.99947 20.6172 5.63686 21.2542C5.34429 21.7721 4.88073 22.0906 4.36287 22.0906C3.65592 22.0906 3.24413 21.552 3.24413 20.757C3.24413 19.1877 4.65033 18.9029 5.98129 18.9029V19.3017ZM7.83799 23.7894C7.77853 23.8401 7.70506 23.8714 7.62735 23.8793C7.54964 23.8872 7.47138 23.8712 7.40299 23.8334C6.79188 23.3259 6.68305 23.0902 6.34641 22.6059C5.33643 23.6367 4.62184 23.9447 3.31141 23.9447C1.76287 23.9449 0.556152 22.9894 0.556152 21.0757C0.556152 19.5816 1.36666 18.5639 2.519 18.0663C3.51837 17.6261 4.91433 17.5484 5.98137 17.4266V17.1888C5.98137 16.7512 6.01505 16.2332 5.75868 15.8552C5.53339 15.516 5.10358 15.3761 4.72547 15.3761C4.02372 15.3761 3.3971 15.7361 3.24421 16.4819C3.21313 16.6476 3.09147 16.8107 2.92567 16.8185L1.13846 16.6269C0.988948 16.5932 0.822912 16.4715 0.864303 16.2407C1.27601 14.0762 3.23115 13.4236 4.98169 13.4236C5.87766 13.4236 7.04809 13.6619 7.75513 14.3403C8.65101 15.1767 8.56564 16.2928 8.56564 17.5073V20.3765C8.56564 21.2389 8.92297 21.6169 9.2596 22.083C9.37874 22.2488 9.40463 22.4482 9.25441 22.5725C8.8789 22.8858 8.21082 23.4685 7.8431 23.7948L7.83791 23.7896" fill="white"/>
</g>
</svg>
