<svg width="60" height="45" viewBox="0 0 60 45" fill="none" xmlns="http://www.w3.org/2000/svg">
<mask id="mask0_131_7575" style="mask-type:luminance" maskUnits="userSpaceOnUse" x="0" y="0" width="60" height="45">
<path d="M59.6583 0H0.168457V44.6173H59.6583V0Z" fill="white"/>
</mask>
<g mask="url(#mask0_131_7575)">
<path d="M33.9155 23.9981C33.9155 27.2159 31.3414 29.8304 28.2037 29.8304C25.0661 29.8304 22.4921 27.2159 22.4921 23.9981V19.0506C22.4921 19.0506 25.227 19.7343 25.227 22.6304V23.9981C25.227 25.7679 26.5545 27.1757 28.2036 27.1757C29.8527 27.1757 31.1801 25.7679 31.1801 23.9981V21.1825C31.3006 18.769 33.352 18.0048 33.8751 17.7232H33.9154V23.9981H33.9155ZM19.2341 18.2059C19.9983 18.2059 20.7225 18.3266 21.3659 18.6081V21.6651C20.7682 21.1661 20.0128 20.8953 19.2341 20.9009C17.4243 20.9009 15.9764 22.3087 15.9764 24.0785V29.8307H13.2413V19.2917C13.2413 19.2917 14.3676 19.3319 15.0916 19.8548C16.1375 18.809 17.6254 18.2057 19.2345 18.2057M6.12161 27.2157C4.31173 27.2157 2.82323 25.7678 2.82323 23.9978C2.82323 22.2279 4.31158 20.78 6.12161 20.78C7.93164 20.78 9.41999 22.2279 9.41999 23.9978C9.41999 25.7678 7.93164 27.2157 6.12161 27.2157ZM6.12161 18.2057C2.82323 18.2057 0.168701 20.8202 0.168701 23.9978C0.168701 27.2156 2.82339 29.7898 6.12161 29.7898C7.42809 29.7969 8.70041 29.3727 9.74136 28.5832C10.3448 29.5888 12.0742 29.7898 12.0742 29.7898V23.9978C12.0742 20.8202 9.41952 18.2057 6.1213 18.2057M53.7052 27.2157C51.8954 27.2157 50.4069 25.7678 50.4069 23.9978C50.4069 22.2279 51.8954 20.78 53.7052 20.78C55.5151 20.78 57.0036 22.2279 57.0036 23.9978C57.0036 25.7678 55.5154 27.2157 53.7052 27.2157ZM53.7052 18.2057C50.4069 18.2057 47.7525 20.8202 47.7525 23.9978C47.7525 27.2156 50.4072 29.7898 53.7052 29.7898C55.0117 29.7969 56.2841 29.3728 57.325 28.5832C57.9284 29.5888 59.658 29.7898 59.658 29.7898V23.9978C59.658 20.8202 57.0032 18.2057 53.7049 18.2057M41.0752 27.2157C39.2653 27.2157 37.7768 25.7678 37.7768 23.9978C37.7768 22.2279 39.265 20.78 41.0752 20.78C42.8853 20.78 44.3735 22.2279 44.3735 23.9978C44.4138 25.7677 42.9256 27.2157 41.0752 27.2157ZM41.0752 18.2057C39.9068 18.2106 38.7635 18.5452 37.7768 19.171V18.2459C37.6561 15.8325 35.685 15.0682 35.1621 14.7867H35.1219V29.8302C35.1219 29.8302 36.8916 29.6291 37.5756 28.6637C38.5811 29.3475 39.7878 29.79 41.0752 29.79C44.3735 29.79 47.0281 27.1755 47.0281 23.9979C47.0684 20.8203 44.3732 18.2058 41.0752 18.2058" fill="white"/>
</g>
</svg>
