<svg width="60" height="45" viewBox="0 0 60 45" fill="none" xmlns="http://www.w3.org/2000/svg">
<mask id="mask0_131_7622" style="mask-type:luminance" maskUnits="userSpaceOnUse" x="0" y="0" width="60" height="45">
<path d="M59.9644 0H0.474609V44.6173H59.9644V0Z" fill="white"/>
</mask>
<g mask="url(#mask0_131_7622)">
<path d="M3.82715 29.9096C4.4679 29.9736 5.0678 30.2538 5.52821 30.704C5.56608 30.7417 5.57024 30.7683 5.53709 30.8061C5.30146 31.0753 5.06585 31.3445 4.83027 31.6136C4.78508 31.6652 4.75028 31.6303 4.71481 31.597C4.29316 31.2006 3.70263 30.9528 3.12498 31.0476C1.10204 31.3269 1.38472 34.7192 3.50003 34.539C3.98938 34.5177 4.44019 34.2657 4.78243 33.9243C4.83501 33.8626 4.85943 33.91 4.89224 33.9409C5.14543 34.1757 5.39895 34.4104 5.64874 34.642C3.7911 36.7893 0.255831 35.4166 0.440822 32.5555C0.615264 30.816 2.09436 29.6719 3.82715 29.9094" fill="white"/>
<path d="M36.3168 8.92407C39.2536 8.86642 40.0141 12.9121 37.2373 13.9053C35.9907 14.3559 34.5013 13.6826 34.0402 12.4292C33.3614 10.8408 34.5998 8.95555 36.3168 8.92374" fill="white"/>
<path d="M50.833 29.9809H52.0184C52.0533 31.8274 52.0532 33.7432 52.0184 35.5898C51.7202 35.5884 51.4218 35.5803 51.1239 35.5893C51.0766 35.5925 51.0292 35.5826 50.987 35.5608C50.9448 35.539 50.9094 35.506 50.8846 35.4655C50.0269 34.3349 49.1753 33.1997 48.3076 32.0763C48.2079 33.2013 48.3408 34.4474 48.26 35.5891H47.0746C47.0396 33.7428 47.0396 31.8266 47.0746 29.9804C47.3272 30.0192 48.1545 29.8913 48.2597 30.0742C49.1008 31.1781 49.9282 32.2921 50.7856 33.3838C50.8841 32.2944 50.7524 31.0859 50.833 29.9806" fill="white"/>
<path d="M43.0718 32.666C42.9668 29.5842 38.6012 28.8537 37.3581 31.6003C36.5441 33.3339 37.7661 35.5333 39.704 35.6606C41.4726 35.9098 43.1691 34.4832 43.0718 32.666ZM40.8026 34.399C39.0515 35.2355 37.5488 32.787 38.932 31.475C40.8973 29.7382 43.1469 33.1682 40.8026 34.399Z" fill="white"/>
<path d="M10.0982 33.3435C9.38141 33.3343 8.66462 33.343 7.94783 33.3364C7.85986 33.3357 7.84241 33.3613 7.84283 33.4444C7.84615 34.121 7.84283 34.7976 7.84665 35.4741C7.84715 35.5615 7.82854 35.5917 7.73492 35.5904C7.38928 35.5846 7.04347 35.5859 6.69774 35.5898C6.62548 35.5906 6.60795 35.5702 6.60803 35.4993C6.61003 33.6915 6.61003 31.8837 6.60803 30.0759C6.60803 29.9995 6.62722 29.9792 6.70372 29.9801C7.05305 29.9843 7.40241 29.9843 7.75179 29.9801C7.83186 29.979 7.84665 30.0063 7.8464 30.0798C7.8484 30.7814 7.83527 31.4836 7.85089 32.1851C8.56062 32.2173 9.28463 32.1837 9.99918 32.1986C10.0924 32.1991 10.112 32.1696 10.1116 32.0823C10.1227 31.3846 10.0814 30.6702 10.1252 29.9814H11.3396C11.3669 31.837 11.3685 33.736 11.3391 35.5906H10.1258C10.0695 34.8562 10.1456 34.0845 10.0984 33.3449" fill="white"/>
<path d="M12.8556 29.9805H17.0629C17.1061 30.2985 17.0602 30.6413 17.0802 30.9679C17.0818 31.0569 17.0592 31.0842 16.9672 31.0835C16.0061 31.0908 15.0357 31.0607 14.0792 31.0928C14.0662 31.4639 14.0641 31.8351 14.0803 32.2059C14.95 32.2527 15.8506 32.1786 16.7165 32.2325C16.7157 32.5525 16.7112 32.8721 16.7165 33.1923C16.7181 33.2874 16.6935 33.3157 16.5959 33.3153C15.8028 33.3114 15.0093 33.313 14.2166 33.313C14.0711 33.313 14.0695 33.313 14.0714 33.4639C14.0756 33.8016 14.0604 34.1394 14.0793 34.4773C15.0824 34.5198 16.1076 34.4579 17.1112 34.4995C17.1354 34.8624 17.1337 35.2266 17.106 35.5893H12.8561C12.826 33.7355 12.8275 31.8347 12.8555 29.9805" fill="white"/>
<path d="M24.0634 29.98C24.4346 29.9806 24.806 29.9837 25.1772 29.98C25.261 29.9791 25.2856 29.9982 25.2852 30.0858C25.2814 30.8535 25.2831 31.6212 25.2831 32.4091C25.99 31.6609 26.7035 30.9162 27.3898 30.1496C27.5115 29.9918 27.639 29.9784 27.8046 29.9804C28.2084 29.9856 28.6124 29.9821 29.0148 29.9821C28.3376 30.7735 27.5266 31.5271 26.8069 32.3073C26.7552 32.3603 26.7788 32.3912 26.8098 32.4331C27.5838 33.488 28.3768 34.527 29.1423 35.5884H28.4347C28.2248 35.5539 27.7129 35.6744 27.5998 35.5031C27.2121 34.949 26.804 34.4095 26.4064 33.8626C26.2559 33.6588 26.1084 33.4529 25.9638 33.2448C25.9338 33.2018 25.9194 33.2126 25.892 33.2412C25.6982 33.4431 25.5039 33.6443 25.3092 33.845C25.2375 34.3738 25.3038 34.9425 25.2853 35.4846C25.2861 35.5722 25.2611 35.5913 25.1773 35.5904C24.8061 35.5863 24.4348 35.5896 24.0635 35.5904C24.0361 33.7338 24.0361 31.8372 24.0635 29.9807" fill="white"/>
<path d="M36.3146 31.7981C36.0865 29.4722 33.5478 30.0307 31.8793 30.0013C31.8633 31.8527 31.8633 33.7173 31.8793 35.5687C32.2728 35.6162 32.6938 35.5728 33.0969 35.5891C33.1608 35.0491 33.0773 34.4599 33.1268 33.9104C33.7739 33.8942 34.4452 33.9747 35.0608 33.7328C35.8727 33.4677 36.3772 32.6364 36.3146 31.7981ZM35.0691 32.0079C35.0072 32.9515 33.9266 32.8126 33.2428 32.8182C33.1375 32.8211 33.0975 32.8016 33.1028 32.684C33.1144 32.1826 33.1044 31.6795 33.1045 31.1775C33.1037 31.1111 33.1211 31.0905 33.1896 31.0912C33.9187 31.0966 35.1239 30.927 35.0691 32.0079Z" fill="white"/>
<path d="M20.6425 31.0463C18.8603 31.2622 18.7818 34.1467 20.537 34.5195C21.049 34.5889 21.5837 34.499 21.9963 34.1686C22.0936 34.1316 22.3152 33.8417 22.3917 33.9336C22.6215 34.1662 22.8523 34.3978 23.0842 34.6284C23.2162 34.8286 22.1594 35.4535 21.9552 35.5023C20.2338 36.1586 18.1295 35.0688 17.9816 33.145C17.7573 31.5939 18.9131 30.0426 20.4986 29.9095C21.413 29.7923 22.385 30.0524 23.0535 30.7111C23.0886 30.7408 23.0868 30.7618 23.056 30.7971C22.8249 31.0605 22.5955 31.3252 22.3677 31.5914C22.3239 31.6424 22.2981 31.6459 22.2394 31.598C21.8034 31.2205 21.229 30.9506 20.6426 31.0464" fill="white"/>
<path d="M53.1479 29.9805C54.6867 30.0067 56.2455 29.9496 57.7748 30.0012C57.7926 30.372 57.7912 30.7435 57.7706 31.1143L57.7721 31.1128C57.2526 31.148 56.7172 31.116 56.1918 31.1233C56.1021 31.1225 56.0768 31.1465 56.077 31.2373C56.0718 32.6803 56.0945 34.1285 56.0704 35.5691C55.6762 35.6147 55.2564 35.5735 54.8537 35.5896C54.7987 34.1628 54.8528 32.6905 54.8342 31.2482C54.8342 31.1256 54.8342 31.1254 54.711 31.1254C54.2202 31.1254 53.7293 31.1235 53.2384 31.1271C53.1554 31.1277 53.1263 31.1089 53.1279 31.0201C53.1508 30.6779 53.0964 30.3092 53.1483 29.9809" fill="white"/>
<path d="M45.4848 35.5896C45.1135 35.588 44.7422 35.5843 44.3711 35.5867C44.2963 35.5872 44.2735 35.5701 44.2736 35.4916C44.2759 33.6866 44.2759 31.8817 44.2736 30.0767C44.2736 29.9971 44.2985 29.9821 44.3722 29.9825C44.7435 29.9849 45.1148 29.9816 45.4861 29.9803C45.5184 31.8282 45.5219 33.744 45.4849 35.5895" fill="white"/>
<path d="M35.1405 19.0377C35.004 22.3077 32.2427 25.2169 28.9731 25.4569C25.1987 25.9221 21.5439 22.7726 21.5003 18.9584C21.489 17.9752 21.5833 17.0604 21.9571 16.1395C22.3234 15.2458 22.8704 14.4375 23.5639 13.7652C24.6563 12.6985 26.0761 12.0309 27.5945 11.8702C29.1128 11.7095 30.641 12.065 31.9325 12.8793C32.1733 12.9918 32.1884 13.0324 31.9814 13.2059C31.9049 13.3095 31.8281 13.4129 31.751 13.516C31.4833 13.9692 31.4033 14.4853 31.3993 14.9978C31.4686 15.5063 31.6485 16.0474 32.0199 16.458C32.151 16.6029 32.1512 16.6025 32.0277 16.7627C31.9138 16.9106 31.8118 17.0683 31.6852 17.2064C31.1894 17.8809 30.678 18.5431 30.1769 19.2139C30.1382 19.3103 30.0251 19.1824 29.9574 19.1724C29.8262 19.152 29.7018 19.1028 29.567 19.0893C29.4322 19.076 29.2964 19.0755 29.1615 19.0877C28.9874 19.1064 28.8178 19.1552 28.6603 19.2318C28.5844 19.2635 28.5114 19.3017 28.442 19.3459C28.3922 19.3807 28.3565 19.4462 28.2876 19.4422C28.2386 19.4395 28.1962 19.3862 28.1584 19.3578L27.9953 19.2363C27.672 18.9954 27.3497 18.7532 27.0287 18.5098C26.9478 18.4486 26.8669 18.3873 26.786 18.3262C26.774 18.3171 26.642 18.2169 26.6736 18.206C26.8246 18.0222 26.9556 17.8113 27.117 17.6412C27.1093 17.6053 27.1893 17.5697 27.117 17.5336C26.5391 17.0992 25.954 16.674 25.3862 16.2267C25.3317 16.1843 25.2926 16.1806 25.2454 16.2457C25.0678 16.4914 24.8856 16.7334 24.7028 16.9754C24.4682 17.3243 24.119 17.6673 23.9365 18.0268C24.4889 18.4948 25.1194 18.9085 25.6884 19.3685C25.7394 19.4076 25.7698 19.424 25.8196 19.3492C25.942 19.1654 26.0848 18.9951 26.2143 18.8157C26.2565 18.7575 26.293 18.7588 26.3394 18.801C26.5546 18.997 26.7989 19.1619 27.031 19.3371C27.1689 19.4427 27.3084 19.5465 27.4471 19.6512L27.6641 19.8151C27.697 19.8422 27.7315 19.8673 27.7674 19.8903C27.7991 19.9027 27.8276 19.9218 27.8513 19.9462C27.8937 20.0018 27.8316 20.0708 27.8105 20.1281C27.6981 20.415 27.6693 20.7277 27.7274 21.0302C28.1104 23.1767 31.2427 22.735 31.0523 20.5589C31.0243 20.3562 30.9626 20.1597 30.8695 19.9774C30.8253 19.8096 30.5801 19.7027 30.7397 19.5354C31.285 18.8498 31.7848 18.1197 32.338 17.4444C32.3969 17.3635 32.6438 16.9338 32.7233 17.0183C33.1349 17.2629 33.6172 17.3208 34.0807 17.3121C34.3495 17.2921 34.613 17.2266 34.86 17.1187C34.9459 17.0811 34.968 17.1148 34.9798 17.183C35.1172 17.7912 35.1708 18.4154 35.1391 19.0381" fill="white"/>
<path d="M59.1954 29.9796C59.4119 29.9087 59.4219 30.2827 59.563 30.3107C59.6367 30.3137 59.6672 30.1604 59.731 30.085C59.7703 30.0385 59.7821 29.9688 59.8704 29.9761C59.9309 29.981 59.9515 29.9952 59.9505 30.0574C59.9514 30.2817 59.9401 30.5084 59.9557 30.7321C59.7216 30.8674 59.8462 30.435 59.8145 30.3097C59.814 30.2864 59.8358 30.2478 59.7867 30.2422C59.4854 30.6576 59.6423 30.5962 59.3234 30.2499V30.7415C59.303 30.751 59.2808 30.7559 59.2582 30.756C59.2357 30.7561 59.2135 30.7513 59.193 30.7419L59.1939 30.7429C59.1737 30.4889 59.1742 30.2335 59.1954 29.9796Z" fill="white"/>
<path d="M58.5805 30.1099C58.5114 30.0992 58.4411 30.0986 58.3718 30.1082C58.3337 30.0677 58.3503 30.0231 58.3622 29.9789L58.9713 29.9795C58.9869 30.0234 59.0024 30.0672 58.9638 30.1079C58.7331 30.0906 58.7331 30.0906 58.7331 30.3196C58.7331 30.4601 58.7331 30.6006 58.7331 30.7411C58.5927 30.7684 58.5946 30.768 58.5912 30.6307C58.5982 30.4571 58.5946 30.2832 58.5806 30.1099" fill="white"/>
</g>
</svg>
