<svg width="60" height="45" viewBox="0 0 60 45" fill="none" xmlns="http://www.w3.org/2000/svg">
<g clip-path="url(#clip0_131_7428)">
<path d="M19.3462 27.4915H16.7495V37.8287H19.3462V27.4915Z" fill="white"/>
<path d="M40.2832 30.4538C39.6142 30.0877 38.8638 29.8978 38.102 29.9019C36.4199 29.9019 35.2562 31.076 35.2562 32.6591C35.2562 34.1951 36.3715 35.4188 38.102 35.4188C38.8633 35.4217 39.6131 35.2331 40.2832 34.8701V37.6447C39.5159 37.8823 38.7182 38.0062 37.9152 38.0124C34.9962 38.0124 32.4358 35.9901 32.4358 32.6591C32.4358 29.5722 34.7552 27.3082 37.9152 27.3082C38.7188 27.3101 39.5173 27.4352 40.2832 27.6792V30.4538Z" fill="white"/>
<path d="M13.1795 30.4538C12.5105 30.0877 11.76 29.8978 10.9982 29.9019C9.31618 29.9019 8.15239 31.076 8.15239 32.6591C8.15239 34.1951 9.26769 35.4188 10.9982 35.4188C11.7595 35.4217 12.5094 35.2331 13.1795 34.8701V37.6447C12.4121 37.8823 11.6144 38.0062 10.8115 38.0124C7.89241 38.0124 5.33203 35.9901 5.33203 32.6591C5.33203 29.5722 7.65146 27.3082 10.8115 27.3082C11.615 27.3101 12.4135 27.4352 13.1795 27.6792V30.4538Z" fill="white"/>
<path d="M48.4519 29.9404C46.9113 29.9404 45.7673 31.1583 45.7673 32.6587C45.7673 34.1625 46.9114 35.3796 48.4519 35.3796C49.9908 35.3796 51.1382 34.1625 51.1382 32.6587C51.1382 31.1583 49.9907 29.9404 48.4519 29.9404ZM53.8894 32.6587C53.8894 35.6159 51.6168 38.012 48.4519 38.012C45.2869 38.012 43.0176 35.6158 43.0176 32.6587C43.0176 29.7065 45.2869 27.3078 48.4518 27.3078C51.6168 27.3078 53.8893 29.7064 53.8893 32.6587" fill="white"/>
<path d="M29.1932 29.8411C29.1545 29.8288 28.0614 29.5255 27.1633 29.5255C26.1228 29.5255 25.5569 29.8758 25.5569 30.3724C25.5569 31.002 26.3202 31.2218 26.7471 31.3573L27.4635 31.5862C29.1488 32.1249 29.917 33.2843 29.917 34.5433C29.917 37.1401 27.6436 38.0128 25.6565 38.0128C24.7158 38.0042 23.7778 37.9097 22.8542 37.7303V35.3515C23.0829 35.4093 24.1718 35.7357 25.306 35.7357C26.5985 35.7357 27.192 35.3564 27.192 34.7707C27.192 34.2468 26.6779 33.9444 26.034 33.7412C25.8768 33.6883 25.6408 33.6139 25.4796 33.561C24.0337 33.1016 22.8279 32.2481 22.8279 30.537C22.8279 28.6036 24.2692 27.3055 26.6623 27.3055C27.5157 27.3171 28.3649 27.4275 29.1932 27.6343V29.8411Z" fill="white"/>
<path d="M2.57855 16.3823C2.57855 16.0388 2.44272 15.7093 2.20093 15.4664C1.95914 15.2236 1.63121 15.0871 1.28927 15.0871C0.947338 15.0871 0.619406 15.2236 0.37762 15.4664C0.135834 15.7093 0 16.0388 0 16.3823L0 19.0957C0 19.4392 0.135834 19.7686 0.37762 20.0115C0.619406 20.2544 0.947338 20.3908 1.28927 20.3908C1.63121 20.3908 1.95914 20.2544 2.20093 20.0115C2.44272 19.7686 2.57855 19.4392 2.57855 19.0957V16.3823Z" fill="white"/>
<path d="M9.65985 12.8207C9.65985 12.4772 9.52401 12.1478 9.28223 11.9049C9.04044 11.662 8.71251 11.5256 8.37057 11.5256C8.02864 11.5256 7.7007 11.662 7.45892 11.9049C7.21713 12.1478 7.0813 12.4772 7.0813 12.8207V19.0961C7.0813 19.4396 7.21713 19.7691 7.45892 20.0119C7.7007 20.2548 8.02864 20.3913 8.37057 20.3913C8.71251 20.3913 9.04044 20.2548 9.28223 20.0119C9.52401 19.7691 9.65985 19.4396 9.65985 19.0961V12.8207Z" fill="white"/>
<path d="M16.7407 7.94793C16.7407 7.60443 16.6048 7.27501 16.363 7.03212C16.1213 6.78923 15.7933 6.65277 15.4514 6.65277C15.1094 6.65277 14.7815 6.78923 14.5397 7.03212C14.2979 7.27501 14.1621 7.60443 14.1621 7.94793V21.6744C14.1621 22.0179 14.2979 22.3473 14.5397 22.5902C14.7815 22.8331 15.1094 22.9696 15.4514 22.9696C15.7933 22.9696 16.1213 22.8331 16.363 22.5902C16.6048 22.3473 16.7407 22.0179 16.7407 21.6744V7.94793Z" fill="white"/>
<path d="M23.8222 12.8207C23.8222 12.4772 23.6864 12.1478 23.4446 11.9049C23.2028 11.662 22.8749 11.5256 22.5329 11.5256C22.191 11.5256 21.8631 11.662 21.6213 11.9049C21.3795 12.1478 21.2437 12.4772 21.2437 12.8207V19.0961C21.2437 19.4396 21.3795 19.7691 21.6213 20.0119C21.8631 20.2548 22.191 20.3913 22.5329 20.3913C22.8749 20.3913 23.2028 20.2548 23.4446 20.0119C23.6864 19.7691 23.8222 19.4396 23.8222 19.0961V12.8207Z" fill="white"/>
<path d="M30.895 16.3823C30.895 16.0399 30.7596 15.7115 30.5186 15.4694C30.2776 15.2273 29.9507 15.0912 29.6099 15.0912C29.269 15.0912 28.9421 15.2273 28.7011 15.4694C28.4601 15.7115 28.3247 16.0399 28.3247 16.3823V19.0957C28.3247 19.4381 28.4601 19.7665 28.7011 20.0086C28.9421 20.2507 29.269 20.3867 29.6099 20.3867C29.9507 20.3867 30.2776 20.2507 30.5186 20.0086C30.7596 19.7665 30.895 19.4381 30.895 19.0957V16.3823Z" fill="white"/>
<path d="M30.8984 16.3823C30.8984 16.0388 30.7625 15.7093 30.5208 15.4664C30.279 15.2236 29.951 15.0871 29.6091 15.0871C29.2672 15.0871 28.9392 15.2236 28.6974 15.4664C28.4557 15.7093 28.3198 16.0388 28.3198 16.3823V19.0957C28.3198 19.4392 28.4557 19.7686 28.6974 20.0115C28.9392 20.2544 29.2672 20.3908 29.6091 20.3908C29.951 20.3908 30.279 20.2544 30.5208 20.0115C30.7625 19.7686 30.8984 19.4392 30.8984 19.0957V16.3823Z" fill="white"/>
<path d="M37.9797 12.8207C37.9797 12.4772 37.8438 12.1478 37.6021 11.9049C37.3603 11.662 37.0323 11.5256 36.6904 11.5256C36.3485 11.5256 36.0205 11.662 35.7787 11.9049C35.537 12.1478 35.4011 12.4772 35.4011 12.8207V19.0961C35.4011 19.4396 35.537 19.7691 35.7787 20.0119C36.0205 20.2548 36.3485 20.3913 36.6904 20.3913C37.0323 20.3913 37.3603 20.2548 37.6021 20.0119C37.8438 19.7691 37.9797 19.4396 37.9797 19.0961V12.8207Z" fill="white"/>
<path d="M45.0605 7.94793C45.0605 7.60443 44.9246 7.27501 44.6829 7.03212C44.4411 6.78923 44.1131 6.65277 43.7712 6.65277C43.4293 6.65277 43.1013 6.78923 42.8596 7.03212C42.6178 7.27501 42.4819 7.60443 42.4819 7.94793V21.6744C42.4819 22.0179 42.6178 22.3473 42.8596 22.5902C43.1013 22.8331 43.4293 22.9696 43.7712 22.9696C44.1131 22.9696 44.4411 22.8331 44.6829 22.5902C44.9246 22.3473 45.0605 22.0179 45.0605 21.6744V7.94793Z" fill="white"/>
<path d="M52.142 12.8207C52.142 12.4772 52.0062 12.1478 51.7644 11.9049C51.5226 11.662 51.1947 11.5256 50.8528 11.5256C50.5108 11.5256 50.1829 11.662 49.9411 11.9049C49.6993 12.1478 49.5635 12.4772 49.5635 12.8207V19.0961C49.5635 19.4396 49.6993 19.7691 49.9411 20.0119C50.1829 20.2548 50.5108 20.3913 50.8528 20.3913C51.1947 20.3913 51.5226 20.2548 51.7644 20.0119C52.0062 19.7691 52.142 19.4396 52.142 19.0961V12.8207Z" fill="white"/>
<path d="M59.2149 16.3823C59.2149 16.0399 59.0795 15.7115 58.8384 15.4694C58.5974 15.2273 58.2705 15.0912 57.9297 15.0912C57.5888 15.0912 57.262 15.2273 57.0209 15.4694C56.7799 15.7115 56.6445 16.0399 56.6445 16.3823V19.0957C56.6445 19.4381 56.7799 19.7665 57.0209 20.0086C57.262 20.2507 57.5888 20.3867 57.9297 20.3867C58.2705 20.3867 58.5974 20.2507 58.8384 20.0086C59.0795 19.7665 59.2149 19.4381 59.2149 19.0957V16.3823Z" fill="white"/>
<path d="M57.734 36.4672V36.6292H57.275V37.8279H57.087V36.6292H56.6252V36.4672H57.734Z" fill="white"/>
<path d="M57.8303 36.4672H58.1256L58.5311 37.5835H58.5377L58.93 36.4672H59.2198V37.8279H59.0262V36.7127H59.0196L58.6084 37.8279H58.4299L58.0285 36.7127H58.0195V37.8279H57.8303V36.4672Z" fill="white"/>
</g>
<defs>
<clipPath id="clip0_131_7428">
<rect width="59.2194" height="44.6173" fill="white"/>
</clipPath>
</defs>
</svg>
