<svg width="60" height="45" viewBox="0 0 60 45" fill="none" xmlns="http://www.w3.org/2000/svg">
<mask id="mask0_131_7554" style="mask-type:luminance" maskUnits="userSpaceOnUse" x="0" y="0" width="60" height="45">
<path d="M59.8316 0H0.341797V44.6173H59.8316V0Z" fill="white"/>
</mask>
<g mask="url(#mask0_131_7554)">
<path d="M4.81204 24.7704C4.30686 24.9532 3.77263 25.0424 3.23548 25.0338C1.30773 25.0338 0.343248 24.101 0.342041 22.2354C0.342041 20.4686 1.30652 19.5858 3.23548 19.587C3.77266 19.5781 4.30694 19.6673 4.81204 19.8504V20.7502C4.33697 20.5475 3.82507 20.4454 3.30858 20.4503C2.01733 20.4503 1.37231 21.0453 1.37351 22.2354C1.37351 23.5266 2.01854 24.1716 3.30858 24.1704C3.82507 24.1753 4.33697 24.0732 4.81204 23.8705V24.7704Z" fill="white"/>
<path d="M5.3313 22.316C5.3313 20.4943 6.22994 19.5835 8.02722 19.5835C9.7977 19.5835 10.6829 20.4943 10.6829 22.316C10.6829 24.1267 9.7977 25.0327 8.02722 25.0339C6.308 25.0339 5.40936 24.1279 5.3313 22.316ZM8.02722 24.167C9.11 24.167 9.65139 23.5427 9.65139 22.2941C9.65139 21.065 9.11 20.4505 8.02722 20.4505C6.91885 20.4505 6.36405 21.065 6.36285 22.2941C6.36285 23.5451 6.91887 24.167 8.02722 24.167Z" fill="white"/>
<path d="M11.4658 24.9936V19.6237H12.4974L14.319 23.6986L16.1041 19.6237H17.0991V24.9973H16.1773V21.2516L14.7215 24.9937H13.8728L12.384 21.2516V24.9937L11.4658 24.9936Z" fill="white"/>
<path d="M18.2258 24.9936V19.6237H19.261L21.0827 23.6986L22.8678 19.6237H23.8627V24.9973H22.9409V21.2516L21.4852 24.9937H20.6364L19.1476 21.2516V24.9937L18.2258 24.9936Z" fill="white"/>
<path d="M29.942 19.6237L27.5863 24.9973H26.5145L24.2612 19.6237H25.4464L27.1067 23.7352L28.7671 19.6198H29.9413L29.942 19.6237Z" fill="white"/>
<path d="M28.8447 24.9936L31.1237 19.62H32.1954L34.5255 24.9936H33.4538L32.777 23.5267H31.0944L31.4383 22.6634H32.5174L31.6394 20.6442L29.8689 24.9899H28.8447V24.9936Z" fill="white"/>
<path d="M34.6609 22.8829V19.6237H35.6559V22.8829C35.6559 23.7389 36.0936 24.1669 36.969 24.1669C37.847 24.1669 38.2822 23.7389 38.2822 22.8829V19.6237H39.2772V22.8829C39.2772 24.3169 38.5066 25.0326 36.9653 25.0301C35.4254 25.0301 34.6609 24.3168 34.6609 22.8829Z" fill="white"/>
<path d="M41.2818 19.6237V24.1302H43.7912V24.9936H40.2869V19.6237H41.2818Z" fill="white"/>
<path d="M47.3177 19.6237V20.487H45.7776V24.9936H44.7826V20.487H43.2427V19.6237H47.3177Z" fill="white"/>
<path d="M48.3052 19.7992C48.3532 19.7946 48.4013 19.8076 48.4405 19.8358C48.4555 19.8497 48.4672 19.8668 48.4748 19.8858C48.4824 19.9047 48.4857 19.9252 48.4844 19.9456C48.4858 19.9646 48.483 19.9836 48.476 20.0013C48.469 20.019 48.4582 20.0349 48.4442 20.0479C48.417 20.0696 48.3838 20.0824 48.3491 20.0845L48.4954 20.3113H48.4113L48.2722 20.0918H48.1881V20.3113H48.1077V19.7956H48.3052V19.7992ZM48.2723 20.026H48.3235C48.3388 20.0259 48.3539 20.0221 48.3674 20.0151C48.3788 20.0086 48.3887 19.9999 48.3967 19.9895C48.405 19.9752 48.4088 19.9588 48.4077 19.9423C48.4085 19.928 48.4046 19.9139 48.3967 19.9021C48.391 19.892 48.382 19.8842 48.3711 19.8801C48.3597 19.8743 48.3473 19.8706 48.3345 19.8692C48.3214 19.8661 48.3078 19.8649 48.2943 19.8655H48.1882V20.0301H48.2724L48.2723 20.026Z" fill="white"/>
<path d="M48.2688 19.6163C48.182 19.6163 48.0971 19.6421 48.0249 19.6903C47.9527 19.7385 47.8965 19.8071 47.8632 19.8873C47.83 19.9675 47.8213 20.0558 47.8383 20.1409C47.8552 20.226 47.897 20.3043 47.9584 20.3656C48.0198 20.427 48.098 20.4688 48.1831 20.4858C48.2683 20.5027 48.3565 20.494 48.4367 20.4608C48.5169 20.4276 48.5855 20.3713 48.6337 20.2991C48.682 20.2269 48.7077 20.1421 48.7077 20.0553C48.7074 19.939 48.661 19.8275 48.5788 19.7453C48.4965 19.663 48.3851 19.6167 48.2688 19.6163ZM48.2688 20.432C48.1943 20.432 48.1214 20.4099 48.0595 20.3685C47.9975 20.3271 47.9492 20.2683 47.9207 20.1995C47.8922 20.1306 47.8847 20.0549 47.8992 19.9818C47.9138 19.9087 47.9497 19.8415 48.0024 19.7889C48.055 19.7362 48.1222 19.7003 48.1953 19.6857C48.2684 19.6712 48.3441 19.6787 48.413 19.7072C48.4818 19.7357 48.5406 19.784 48.582 19.8459C48.6234 19.9079 48.6455 19.9807 48.6455 20.0553C48.6456 20.1048 48.6359 20.1538 48.617 20.1995C48.5981 20.2453 48.5703 20.2868 48.5353 20.3218C48.5003 20.3568 48.4588 20.3846 48.413 20.4035C48.3673 20.4224 48.3183 20.4321 48.2688 20.432Z" fill="white"/>
<path d="M55.5115 17.4179L51.1914 19.909V24.7046L55.5115 27.1991L59.8316 24.7046V19.909L55.5115 17.4179ZM59.0854 24.2766L55.5115 26.3397L51.9376 24.2766V20.3406L55.5115 18.2775L59.0854 20.3406V24.2766Z" fill="white"/>
<path d="M55.2557 25.3447C55.2555 25.3531 55.253 25.3614 55.2486 25.3686C55.2443 25.3758 55.238 25.3817 55.2306 25.3858C55.2232 25.3899 55.2149 25.3919 55.2064 25.3918C55.198 25.3916 55.1897 25.3892 55.1825 25.3849L52.6691 23.933C52.6472 23.9203 52.6289 23.9022 52.6161 23.8804C52.6033 23.8586 52.5963 23.8339 52.5959 23.8086V20.9993C52.5962 20.9909 52.5986 20.9826 52.603 20.9754C52.6074 20.9682 52.6136 20.9623 52.621 20.9582C52.6284 20.9541 52.6367 20.9521 52.6452 20.9522C52.6536 20.9524 52.6619 20.9548 52.6691 20.9591L55.1822 22.4113C55.2041 22.424 55.2224 22.4421 55.2352 22.4639C55.248 22.4857 55.255 22.5104 55.2554 22.5357L55.2557 25.3447Z" fill="white"/>
<path d="M58.0354 20.5748L55.6285 21.9649C55.5994 21.981 55.5667 21.9895 55.5334 21.9895C55.5001 21.9895 55.4674 21.981 55.4383 21.9649L53.0313 20.5748C53.0238 20.5706 53.0176 20.5645 53.0132 20.5571C53.0089 20.5497 53.0066 20.5413 53.0066 20.5327C53.0066 20.5242 53.0089 20.5157 53.0132 20.5083C53.0176 20.5009 53.0238 20.4948 53.0313 20.4907L55.4383 19.1006C55.4674 19.0844 55.5001 19.0759 55.5334 19.0759C55.5667 19.0759 55.5994 19.0844 55.6285 19.1006L58.0354 20.4907C58.0422 20.4954 58.0477 20.5017 58.0516 20.509C58.0554 20.5163 58.0574 20.5245 58.0574 20.5327C58.0574 20.541 58.0554 20.5491 58.0516 20.5564C58.0477 20.5638 58.0422 20.5701 58.0354 20.5748Z" fill="white"/>
<path d="M58.0356 24.1266L55.8517 25.385C55.8445 25.3893 55.8362 25.3917 55.8278 25.3919C55.8193 25.392 55.811 25.39 55.8036 25.3859C55.7962 25.3818 55.79 25.3759 55.7856 25.3687C55.7812 25.3615 55.7788 25.3532 55.7786 25.3448V22.8244C55.7788 22.8159 55.7812 22.8077 55.7856 22.8005C55.79 22.7933 55.7962 22.7873 55.8036 22.7833C55.811 22.7792 55.8193 22.7771 55.8278 22.7773C55.8362 22.7775 55.8445 22.7798 55.8517 22.7842L58.0356 24.0425C58.0423 24.0472 58.0479 24.0535 58.0517 24.0608C58.0555 24.0682 58.0575 24.0763 58.0575 24.0846C58.0575 24.0928 58.0555 24.101 58.0517 24.1083C58.0479 24.1156 58.0423 24.1219 58.0356 24.1266Z" fill="white"/>
</g>
</svg>
