<svg width="61" height="45" viewBox="0 0 61 45" fill="none" xmlns="http://www.w3.org/2000/svg">
<mask id="mask0_131_7526" style="mask-type:luminance" maskUnits="userSpaceOnUse" x="0" y="0" width="61" height="45">
<path d="M60.3521 0H0.862305V44.6173H60.3521V0Z" fill="white"/>
</mask>
<g mask="url(#mask0_131_7526)">
<path d="M18.1724 22.0895C18.1724 20.5806 17.1712 19.7234 15.7537 19.7234H14.8862V24.4573H15.7291C17.047 24.4573 18.1724 23.7412 18.1724 22.0895ZM33.6035 23.7928L27.2127 28.8251L21.3716 24.2265C20.5288 26.2512 18.4921 27.6574 16.1466 27.6574H11.1479V16.5216H16.1466C18.7674 16.5216 20.656 18.1881 21.37 19.9637L27.2125 15.3699L29.3765 17.0731L24.0221 21.2818L25.0512 22.0872L30.4042 17.8809L32.5714 19.5793L27.2175 23.7927L28.245 24.5997L33.6038 20.3856V16.5219H37.4885V24.4071H41.3636V27.671H33.6036V23.7927L33.6035 23.7928ZM46.2844 24.409H50.1579V27.6713H42.3957V16.5216H46.2843L46.2844 24.409Z" fill="white"/>
</g>
</svg>
