<svg width="61" height="45" viewBox="0 0 61 45" fill="none" xmlns="http://www.w3.org/2000/svg">
<mask id="mask0_131_7534" style="mask-type:luminance" maskUnits="userSpaceOnUse" x="0" y="0" width="61" height="45">
<path d="M60.1785 0H0.688721V44.6173H60.1785V0Z" fill="white"/>
</mask>
<g mask="url(#mask0_131_7534)">
<path d="M0.688721 16.3112V25.9073L3.08775 23.4983V18.7102H11.9106V16.3112H0.688721Z" fill="white"/>
<path d="M5.48657 21.0993H10.3243V23.4983H5.48657V21.0993Z" fill="white"/>
<path d="M0.688721 25.8973L3.08775 28.3063H11.9106V25.8973H0.688721Z" fill="white"/>
<path d="M16.7185 18.7102H21.923V19.4537H17.5314V21.9122H21.4571V22.6557H17.5314V25.1737H21.9726V25.9172H16.7185V18.7102Z" fill="white"/>
<path d="M25.0852 23.2009L23.0728 20.5838H23.9848L25.5608 22.6455L27.1371 20.5838H28.0194L25.997 23.1712L28.0987 25.8974H27.1769L25.5313 23.7264L23.8856 25.8974H23.0034L25.0852 23.2009Z" fill="white"/>
<path d="M29.6651 24.4896V21.2776H28.9216V20.5836H29.6651V18.9877H30.4581V20.5937H32.1533V21.2876H30.4582V24.3904C30.4582 25.0348 30.825 25.2727 31.3504 25.2727C31.6198 25.2754 31.8856 25.2106 32.1236 25.0843V25.7684C31.826 25.9204 31.4962 25.9986 31.162 25.9966C30.3095 25.9867 29.6651 25.5703 29.6651 24.4898" fill="white"/>
<path d="M33.5413 20.5838H34.3343V21.9716C34.7308 21.0894 35.4942 20.4451 36.5053 20.4946V21.3471H36.4458C35.2859 21.3471 34.3343 22.1798 34.3343 23.7858V25.9073H33.5413V20.5838Z" fill="white"/>
<path d="M41.373 22.9234C41.2838 21.9519 40.7286 21.1292 39.6778 21.1292C38.7559 21.1292 38.0619 21.8826 37.953 22.9234H41.373ZM39.8265 25.332C40.56 25.332 41.0755 25.0346 41.5018 24.5885L41.9975 25.0346C41.4625 25.6294 40.808 26.0359 39.8067 26.0359C38.3396 26.0359 37.1599 24.9156 37.1599 23.2602C37.1599 21.7236 38.2405 20.4844 39.7077 20.4844C41.2839 20.4844 42.186 21.7335 42.186 23.2998C42.186 23.3791 42.186 23.4485 42.1761 23.5774H37.9625C38.0715 24.6877 38.8844 25.3321 39.8262 25.3321L39.8265 25.332Z" fill="white"/>
<path d="M43.5738 20.5838H44.3668V21.476C44.7138 20.9506 45.1896 20.4648 46.0818 20.4648C46.9442 20.4648 47.4994 20.9308 47.7869 21.5256C48.1635 20.9407 48.7286 20.4648 49.6506 20.4648C50.8703 20.4648 51.6233 21.2876 51.6233 22.5962V25.8874H50.8304V22.7846C50.8304 21.7635 50.3149 21.1786 49.4524 21.1786C48.6498 21.1786 47.9753 21.7734 47.9753 22.8242V25.8874H47.1922V22.7547C47.1922 21.7535 46.6668 21.1785 45.8242 21.1785C44.9816 21.1785 44.3471 21.8725 44.3471 22.8538V25.8774H43.554L43.5738 20.5837V20.5838Z" fill="white"/>
<path d="M57.2044 22.9234C57.1151 21.9519 56.56 21.1292 55.5092 21.1292C54.5873 21.1292 53.8933 21.8826 53.7843 22.9234H57.2044ZM55.6479 25.332C56.3816 25.332 56.897 25.0346 57.3233 24.5885L57.8191 25.0346C57.284 25.6294 56.6294 26.0359 55.6283 26.0359C54.171 26.0359 52.9814 24.9156 52.9814 23.2602C52.9814 21.7236 54.062 20.4844 55.5292 20.4844C57.1054 20.4844 58.0075 21.7335 58.0075 23.2998C58.0075 23.3791 58.0075 23.4485 57.9976 23.5774H53.7839C53.8831 24.6877 54.7158 25.3321 55.6476 25.3321L55.6479 25.332Z" fill="white"/>
<path d="M58.5724 20.0187H58.2651V19.8601H59.0383V20.0187H58.7311V20.8214H58.5625V20.0187H58.5724Z" fill="white"/>
<path d="M59.2267 19.8601H59.4052L59.7025 20.3165L59.9999 19.8601H60.1784V20.8217H60.0098V20.1277L59.7025 20.5841H59.6926L59.3853 20.138V20.822H59.2168L59.2267 19.8604V19.8601Z" fill="white"/>
</g>
</svg>
