<svg width="60" height="45" viewBox="0 0 60 45" fill="none" xmlns="http://www.w3.org/2000/svg">
<mask id="mask0_131_7582" style="mask-type:luminance" maskUnits="userSpaceOnUse" x="-1" y="0" width="61" height="45">
<path d="M59.4849 0H-0.00488281V44.6173H59.4849V0Z" fill="white"/>
</mask>
<g mask="url(#mask0_131_7582)">
<path d="M38.5685 25.6527H36.931V18.97L42.1974 18.9744C42.1974 18.9744 43.1616 18.9384 43.775 19.5444C43.775 19.5444 44.401 20.0672 44.401 21.345V25.6516H42.7678V21.2336C42.7678 21.2336 42.788 20.783 42.634 20.6249C42.5844 20.57 42.5236 20.5263 42.4558 20.4967C42.388 20.467 42.3146 20.4522 42.2406 20.4531H38.5645L38.568 25.6504L38.5685 25.6527ZM45.539 25.6515V18.975H52.1104V20.4601H47.1665V21.5951H50.6011V23.0292H47.1666V24.1684H52.1412V25.6539H45.5353L45.539 25.6515ZM34.0775 25.6515V18.975H35.708V25.6539H34.0776L34.0775 25.6515ZM54.4577 25.6516V20.4581H52.9184V18.9731H59.0406V20.4581H56.0894V25.6516H54.4588H54.4577ZM28.6923 25.6516V20.4581H27.1532V18.9731H33.2753V20.4581H30.324V25.6516H28.6934H28.6923ZM23.7753 21.5905C24.1737 21.5874 24.4121 21.5905 24.5081 21.5324C24.5583 21.5019 24.6001 21.4592 24.6297 21.4084C24.6593 21.3575 24.6757 21.3001 24.6774 21.2413V20.8045C24.6763 20.7455 24.6602 20.6879 24.6305 20.6369C24.6009 20.586 24.5587 20.5434 24.5081 20.5133C24.3809 20.4442 24.1654 20.4572 23.654 20.4567H20.4776V21.5904H23.7752L23.7753 21.5905ZM24.6539 25.6516V23.3723C24.6536 23.313 24.6376 23.2548 24.6075 23.2037C24.5774 23.1527 24.5343 23.1105 24.4826 23.0815C24.4054 23.0335 24.174 23.0249 23.8335 23.0249H20.4776V25.6512H18.8472V18.9747H23.9369C24.8158 18.9773 25.4227 19.1066 25.8407 19.5124C26.2514 19.9308 26.3059 20.4782 26.3082 21.0478V21.5235C26.3057 21.7485 26.2551 21.9705 26.1599 22.1745C26.0646 22.3784 25.9269 22.5597 25.7559 22.7061L25.8168 22.7363C25.8898 22.7711 25.955 22.8204 26.0083 22.8812C26.2391 23.1758 26.2365 23.4293 26.2357 23.7409V25.6531H24.654L24.6539 25.6516ZM-0.00409591 18.9727V25.6496H1.62644V23.0257H6.56646V21.5912H1.62644V20.4563H7.3687V18.9708H-0.00488281L-0.00409591 18.9727Z" fill="white"/>
<path d="M58.49 24.4704V24.7773H58.7755C58.8527 24.7773 58.9276 24.7562 58.9391 24.6415C58.9554 24.4894 58.8456 24.4707 58.7755 24.4707L58.49 24.4704ZM58.3754 24.3697H58.773C58.9112 24.3697 59.0446 24.3956 59.0563 24.5967C59.0616 24.6412 59.0532 24.6864 59.0323 24.7261C59.0114 24.7659 58.9789 24.7983 58.9392 24.8193C59.0308 24.8778 59.0336 24.8917 59.0472 25.0462C59.0563 25.1633 59.0399 25.182 59.0894 25.2592H58.9536L58.9349 25.1469C58.9161 25.0414 58.9675 24.8778 58.7828 24.8778H58.4901V25.2592H58.3755V24.3695L58.3754 24.3697ZM58.6744 24.124C58.5333 24.1246 58.3955 24.1669 58.2785 24.2457C58.1614 24.3244 58.0703 24.4361 58.0167 24.5666C57.9631 24.6971 57.9493 24.8406 57.9772 24.9789C58.005 25.1172 58.0732 25.2442 58.1732 25.3438C58.2731 25.4434 58.4004 25.5111 58.5388 25.5384C58.6772 25.5658 58.8206 25.5515 58.9509 25.4973C59.0812 25.4432 59.1926 25.3517 59.2709 25.2344C59.3492 25.117 59.391 24.9791 59.391 24.838C59.3914 24.7439 59.373 24.6507 59.3371 24.5638C59.3012 24.4768 59.2484 24.3979 59.1817 24.3315C59.1151 24.2651 59.0359 24.2125 58.9488 24.1769C58.8618 24.1413 58.7685 24.1233 58.6744 24.124ZM58.6767 25.6448C58.517 25.6447 58.361 25.5973 58.2283 25.5085C58.0956 25.4198 57.9922 25.2937 57.9312 25.1461C57.8701 24.9986 57.8542 24.8363 57.8855 24.6797C57.9167 24.5232 57.9936 24.3794 58.1066 24.2665C58.2195 24.1537 58.3634 24.0769 58.52 24.0458C58.6766 24.0148 58.8389 24.0308 58.9863 24.092C59.1338 24.1532 59.2598 24.2567 59.3485 24.3895C59.4371 24.5223 59.4844 24.6783 59.4843 24.838C59.4844 24.944 59.4635 25.0489 59.423 25.1469C59.3825 25.2448 59.3231 25.3338 59.2481 25.4087C59.1732 25.4836 59.0842 25.5431 58.9863 25.5836C58.8883 25.6241 58.7834 25.6449 58.6774 25.6448" fill="white"/>
<path d="M16.6049 25.7179C17.1346 25.538 17.5469 24.928 17.6459 24.161V23.9395H14.9302V25.7179H16.6045L16.6049 25.7179ZM17.6463 20.6781V20.4776C17.5422 19.677 17.0992 19.0466 16.5347 18.8984H14.9306V20.6779H17.6463L17.6463 20.6781ZM8.08862 23.9396V24.1594C8.18699 24.9271 8.59917 25.5381 9.1304 25.7182H10.7961V23.9398H8.08862V23.9396ZM9.19981 18.8998C8.63591 19.0481 8.19186 19.6789 8.08862 20.4805V20.6796H10.7961V18.9001H9.19981V18.8998ZM17.6482 21.4201H14.9325V23.1996H17.6482V21.4201ZM11.5375 25.7191H14.194V23.9407H11.5375V25.7191ZM14.194 18.898H11.5375V20.6777H14.194V18.898ZM8.09091 23.1972H10.7986V21.4177H8.09091V23.1972Z" fill="white"/>
</g>
</svg>
