<?xml version="1.0" encoding="utf-8"?>
<!-- Generator: Adobe Illustrator 28.2.0, SVG Export Plug-In . SVG Version: 6.00 Build 0)  -->
<svg version="1.1" id="Layer_1" xmlns="http://www.w3.org/2000/svg" xmlns:xlink="http://www.w3.org/1999/xlink" x="0px" y="0px"
	 viewBox="0 0 74 55" style="enable-background:new 0 0 74 55;" xml:space="preserve">
<style type="text/css">
	.st0{fill:#FFFFFF;filter:url(#Adobe_OpacityMaskFilter);}
	.st1{mask:url(#mask0_169_23_00000011726754758201093650000016936713821584011680_);}
	.st2{fill:#FFFFFF;}
</style>
<defs>
	<filter id="Adobe_OpacityMaskFilter" filterUnits="userSpaceOnUse" x="0.7" y="20.2" width="73.3" height="15.3">
		<feColorMatrix  type="matrix" values="1 0 0 0 0  0 1 0 0 0  0 0 1 0 0  0 0 0 1 0"/>
	</filter>
</defs>
<mask maskUnits="userSpaceOnUse" x="0.7" y="20.2" width="73.3" height="15.3" id="mask0_169_23_00000011726754758201093650000016936713821584011680_">
	<path class="st0" d="M74,0H0.7v55H74V0z"/>
</mask>
<g class="st1">
	<path class="st2" d="M5.5,22.5l-1.9,1.8c-0.1,0.1-0.3,0.1-0.4,0l-1.9-1.8c-0.1-0.1-0.1-0.3,0-0.4l1.9-1.8c0.1-0.1,0.3-0.1,0.4,0
		l1.9,1.8C5.6,22.2,5.6,22.4,5.5,22.5z"/>
	<path class="st2" d="M68,30l3.3,4.8c0.1,0.2,0,0.4-0.2,0.4h-2.8c-0.2,0-0.4-0.1-0.5-0.2l-1.9-2.9L64,35c-0.1,0.2-0.3,0.2-0.5,0.2
		h-2.8c-0.2,0-0.3-0.2-0.2-0.4l3.3-4.8l-3.3-4.8c-0.1-0.2,0-0.4,0.2-0.4h2.9c0.1,0,0.2,0,0.3,0.1l2,3l1.9-3c0.1-0.1,0.2-0.1,0.3-0.1
		H71c0.2,0,0.3,0.2,0.2,0.4L68,30z"/>
	<path class="st2" d="M22.5,20.6h-2.3c-0.2,0-0.4,0.1-0.6,0.2L17.4,23c-0.2,0.2-0.2,0.4-0.2,0.6v1.7h-1.3c-0.2,0-0.3,0.1-0.3,0.3
		v1.9c0,0.2,0.1,0.3,0.3,0.3h1.3V35c0,0.2,0.1,0.3,0.3,0.3h2.5c0.2,0,0.3-0.1,0.3-0.3v-7.3h1.9c0.2,0,0.3-0.1,0.3-0.3v-1.9
		c0-0.2-0.1-0.3-0.3-0.3h-1.9v-1.2c0-0.5,0.4-0.8,0.9-0.8h1.5c0.2,0,0.3-0.1,0.3-0.3v-2.1C22.8,20.7,22.6,20.6,22.5,20.6z"/>
	<path class="st2" d="M74,34.3c0,0.6-0.5,1.2-1.2,1.2c-0.6,0-1.2-0.5-1.2-1.2c0-0.6,0.5-1.1,1.2-1.1C73.5,33.1,74,33.6,74,34.3z
		 M73.8,34.3c0-0.6-0.4-1-1-1c-0.6,0-1,0.4-1,1c0,0.5,0.5,1,1,1C73.4,35.3,73.8,34.8,73.8,34.3z M73.1,34.5l0.3,0.4h-0.2l-0.3-0.5h0
		h-0.3v0.5h-0.2v-1.3h0.5c0.3,0,0.4,0.1,0.4,0.4C73.3,34.2,73.2,34.3,73.1,34.5C73,34.4,73.1,34.4,73.1,34.5z M72.8,34.3
		c0.2,0,0.3-0.1,0.3-0.2c0-0.1-0.1-0.2-0.2-0.2h-0.4v0.5H72.8z"/>
	<path class="st2" d="M49.1,35.3h-2.5c-0.2,0-0.3-0.1-0.3-0.3V20.9c0-0.2,0.1-0.3,0.3-0.3h2.5c0.2,0,0.3,0.1,0.3,0.3V35
		C49.4,35.1,49.2,35.3,49.1,35.3z"/>
	<path class="st2" d="M40.5,24.6c-1.4,0-2.6,0.6-3.3,1.6v-5.3c0-0.2-0.1-0.3-0.3-0.3h-2.5c-0.2,0-0.3,0.1-0.3,0.3V35
		c0,0.2,0.1,0.3,0.3,0.3h2.5c0.2,0,0.3-0.1,0.3-0.3v-1c0.7,1,1.9,1.5,3.3,1.5c3,0,5-2.3,5-5.4C45.5,27,43.5,24.6,40.5,24.6z
		 M39.9,32.7c-1.5,0-2.7-1.2-2.7-2.7c0-1.4,1.1-2.6,2.7-2.6c1.5,0,2.6,1.2,2.6,2.6C42.5,31.5,41.4,32.7,39.9,32.7z"/>
	<path class="st2" d="M27.9,24.6c-3.1,0-5.5,2.4-5.5,5.4c0,3.1,2.4,5.4,5.5,5.4s5.5-2.4,5.5-5.4C33.4,27,31,24.6,27.9,24.6z
		 M27.9,32.7c-1.5,0-2.7-1.2-2.7-2.6s1.1-2.6,2.7-2.6c1.5,0,2.6,1.2,2.6,2.6S29.4,32.7,27.9,32.7z"/>
	<path class="st2" d="M55.7,24.6c-3.1,0-5.5,2.4-5.5,5.4c0,3.1,2.4,5.4,5.5,5.4c3.1,0,5.5-2.4,5.5-5.4C61.2,27,58.8,24.6,55.7,24.6z
		 M55.7,32.7c-1.5,0-2.7-1.2-2.7-2.6s1.1-2.6,2.7-2.6c1.5,0,2.6,1.2,2.6,2.6S57.2,32.7,55.7,32.7z"/>
	<path class="st2" d="M3.4,35.3H1c-0.2,0-0.3-0.1-0.3-0.3v-7.4c0-0.1,0.1-0.3,0.2-0.4l2.4-2.3c0.2-0.2,0.5,0,0.5,0.2V35
		C3.7,35.1,3.6,35.3,3.4,35.3z"/>
	<path class="st2" d="M15.1,28.3c0-2-1.7-3.7-3.9-3.8c-1.4,0-2.4,0.7-3,1.6v-1.1c0-0.2-0.1-0.3-0.3-0.3H5.6c-0.2,0-0.3,0.1-0.3,0.3
		V35c0,0.2,0.1,0.3,0.3,0.3H8c0.2,0,0.3-0.1,0.3-0.3v-5.8c0.1-1.1,0.8-1.8,1.9-1.8c1.2,0,1.9,0.8,1.9,1.9V35c0,0.2,0.1,0.3,0.3,0.3
		h2.5c0.2,0,0.3-0.1,0.3-0.3V28.3z"/>
</g>
</svg>
