<svg width="60" height="45" viewBox="0 0 60 45" fill="none" xmlns="http://www.w3.org/2000/svg">
<mask id="mask0_131_7638" style="mask-type:luminance" maskUnits="userSpaceOnUse" x="0" y="0" width="60" height="45">
<path d="M59.7909 0H0.301147V44.6173H59.7909V0Z" fill="white"/>
</mask>
<g mask="url(#mask0_131_7638)">
<path d="M51.2706 31.0683V30.0457H49.9956V28.4558L49.9527 28.4689L48.7551 28.8338L48.7315 28.841V30.0457H46.8413V29.3746C46.8413 29.0622 46.9115 28.823 47.0497 28.6635C47.187 28.506 47.3834 28.4259 47.6338 28.4259C47.8139 28.4259 48.0004 28.4681 48.1879 28.5515L48.235 28.5723V27.4953L48.2129 27.4872C48.0378 27.4246 47.7997 27.393 47.5047 27.393C47.1328 27.393 46.7949 27.4736 46.5002 27.6333C46.2054 27.7933 45.9734 28.0217 45.8109 28.3121C45.649 28.6022 45.5668 28.9371 45.5668 29.3078V30.0457H44.679V31.0683H45.5668V35.3766H46.8413V31.0683H48.7315V33.8062C48.7315 34.9338 49.2655 35.5052 50.3186 35.5052C50.4916 35.5052 50.6737 35.485 50.8597 35.4454C51.049 35.4048 51.1779 35.3643 51.2538 35.321L51.2706 35.3111V34.2789L51.2188 34.3131C51.1496 34.3591 51.0635 34.3966 50.9624 34.4244C50.861 34.4528 50.7763 34.4671 50.7107 34.4671C50.464 34.4671 50.2815 34.4009 50.1682 34.2702C50.0537 34.1384 49.9956 33.9078 49.9956 33.5852V31.0683H51.2706ZM41.8328 34.4672C41.3702 34.4672 41.0055 34.3144 40.7485 34.0135C40.4899 33.711 40.3589 33.2797 40.3589 32.7318C40.3589 32.1666 40.4899 31.7241 40.7486 31.4163C41.0058 31.1105 41.3671 30.9553 41.8225 30.9553C42.2644 30.9553 42.6162 31.1035 42.8681 31.3961C43.1214 31.6902 43.2499 32.1291 43.2499 32.701C43.2499 33.2799 43.129 33.7245 42.8907 34.022C42.6541 34.3172 42.2982 34.4672 41.8328 34.4672ZM41.8896 29.9172C41.007 29.9172 40.306 30.1748 39.8063 30.6828C39.3068 31.1909 39.0535 31.894 39.0535 32.7728C39.0535 33.6075 39.3008 34.2788 39.7884 34.7679C40.2759 35.2573 40.9395 35.5051 41.7605 35.5051C42.616 35.5051 43.303 35.244 43.8026 34.7289C44.3022 34.2144 44.5553 33.5179 44.5553 32.6597C44.5553 31.8119 44.3178 31.1356 43.8492 30.6497C43.3803 30.1636 42.7209 29.9172 41.8896 29.9172ZM36.9986 29.9172C36.3983 29.9172 35.9017 30.0701 35.5224 30.3717C35.1407 30.6751 34.9471 31.073 34.9471 31.5544C34.9471 31.8047 34.9889 32.027 35.0712 32.2155C35.1539 32.4048 35.282 32.5713 35.452 32.711C35.6209 32.8497 35.8814 32.995 36.2267 33.1427C36.517 33.2617 36.7335 33.3624 36.871 33.4417C37.0054 33.5194 37.1008 33.5976 37.1547 33.6737C37.207 33.7481 37.2336 33.85 37.2336 33.9759C37.2336 34.334 36.9644 34.5082 36.4103 34.5082C36.2048 34.5082 35.9703 34.4656 35.7135 34.3813C35.4566 34.2971 35.2165 34.1761 35 34.0209L34.9471 33.9831V35.2053L34.9666 35.2143C35.1469 35.2972 35.3742 35.3671 35.6422 35.4221C35.9097 35.4772 36.1527 35.5052 36.3638 35.5052C37.0153 35.5052 37.5399 35.3515 37.9226 35.0482C38.3079 34.7427 38.5031 34.3355 38.5031 33.8373C38.5031 33.478 38.398 33.1698 38.1908 32.9213C37.9851 32.6748 37.628 32.4485 37.1299 32.2484C36.7331 32.0898 36.4789 31.9581 36.3741 31.8571C36.273 31.7594 36.2217 31.6213 36.2217 31.4464C36.2217 31.2914 36.285 31.1672 36.4151 31.0666C36.5462 30.9655 36.7286 30.9141 36.9575 30.9141C37.1698 30.9141 37.3871 30.9475 37.6031 31.0129C37.8191 31.0784 38.0087 31.1661 38.167 31.2734L38.2191 31.3088V30.1494L38.1991 30.1409C38.053 30.0785 37.8604 30.0251 37.6266 29.9818C37.3936 29.9389 37.1823 29.9172 36.9986 29.9172ZM31.6245 34.4672C31.1621 34.4672 30.7972 34.3144 30.5403 34.0135C30.2816 33.711 30.1508 33.2799 30.1508 32.7318C30.1508 32.1666 30.2818 31.7241 30.5406 31.4163C30.7975 31.1105 31.1587 30.9553 31.6143 30.9553C32.0561 30.9553 32.4079 31.1035 32.6599 31.3961C32.9132 31.6902 33.0417 32.1291 33.0417 32.701C33.0417 33.2799 32.9207 33.7245 32.6824 34.022C32.4458 34.3172 32.09 34.4672 31.6245 34.4672ZM31.6814 29.9172C30.7987 29.9172 30.0977 30.1748 29.5981 30.6828C29.0987 31.1909 28.8452 31.894 28.8452 32.7728C28.8452 33.6078 29.0926 34.2788 29.5802 34.7679C30.0678 35.2573 30.7313 35.5051 31.5523 35.5051C32.4077 35.5051 33.0949 35.244 33.5945 34.7289C34.0939 34.2144 34.3471 33.5179 34.3471 32.6597C34.3471 31.8119 34.1095 31.1356 33.6409 30.6497C33.1719 30.1636 32.5126 29.9172 31.6814 29.9172ZM26.9106 30.9688V30.0457H25.6516V35.3765H26.9106V32.6496C26.9106 32.1859 27.0161 31.805 27.2244 31.5172C27.43 31.2329 27.704 31.0889 28.0386 31.0889C28.152 31.0889 28.2793 31.1075 28.4171 31.1443C28.5536 31.181 28.6524 31.2207 28.7107 31.2625L28.7636 31.3007V30.0365L28.7432 30.0278C28.6259 29.9782 28.4601 29.9531 28.2502 29.9531C27.9339 29.9531 27.6507 30.0544 27.4083 30.2537C27.1954 30.429 27.0415 30.6692 26.9239 30.9688H26.9106ZM23.397 29.9172C22.8195 29.9172 22.3043 30.0406 21.8661 30.2838C21.427 30.5275 21.0874 30.8755 20.8563 31.318C20.6263 31.7594 20.5096 32.275 20.5096 32.85C20.5096 33.3537 20.6228 33.8159 20.8466 34.2233C21.0705 34.6313 21.3875 34.9505 21.7887 35.172C22.1893 35.3931 22.6523 35.5052 23.165 35.5052C23.7633 35.5052 24.2741 35.3861 24.6837 35.1511L24.7002 35.1416V33.9928L24.6473 34.0313C24.4618 34.1659 24.2545 34.2733 24.0314 34.3507C23.8089 34.4281 23.606 34.4672 23.4282 34.4672C22.9341 34.4672 22.5376 34.3132 22.2497 34.0097C21.9612 33.7057 21.8149 33.279 21.8149 32.7419C21.8149 32.2015 21.9675 31.7638 22.2682 31.4407C22.5678 31.1187 22.9651 30.9553 23.4489 30.9553C23.8627 30.9553 24.266 31.0949 24.6475 31.3705L24.7002 31.4087V30.1982L24.6832 30.1887C24.5396 30.1087 24.3439 30.0426 24.1007 29.9924C23.8587 29.9424 23.622 29.9172 23.397 29.9172ZM19.6425 30.0457H18.3835V35.3765H19.6425V30.0457ZM19.0258 27.7747C18.8187 27.7747 18.6379 27.8449 18.4895 27.9842C18.3404 28.1238 18.2647 28.2996 18.2647 28.507C18.2647 28.7112 18.3395 28.8838 18.4871 29.0197C18.6338 29.1552 18.8151 29.2239 19.0258 29.2239C19.2366 29.2239 19.4186 29.1552 19.567 29.0199C19.7165 28.8838 19.7922 28.7112 19.7922 28.507C19.7922 28.3068 19.7185 28.1328 19.5732 27.9898C19.428 27.847 19.2438 27.7747 19.0258 27.7747ZM15.8847 29.6524V35.3765H17.1695V27.9379H15.3913L13.131 33.4631L10.9376 27.9379H9.08691V35.3765H10.2943V29.6518H10.3358L12.652 35.3765H13.5632L15.8432 29.6524H15.8847Z" fill="white"/>
<path d="M23.1597 9.11206H29.9788V15.9312H23.1597V9.11206Z" fill="white"/>
<path d="M30.6606 9.11206H37.4797V15.9312H30.6606V9.11206Z" fill="white"/>
<path d="M23.1597 16.6131H29.9788V23.4322H23.1597V16.6131Z" fill="white"/>
<path d="M30.6606 16.6131H37.4797V23.4322H30.6606V16.6131Z" fill="white"/>
</g>
</svg>
