<svg width="60" height="45" viewBox="0 0 60 45" fill="none" xmlns="http://www.w3.org/2000/svg">
<mask id="mask0_131_7458" style="mask-type:luminance" maskUnits="userSpaceOnUse" x="0" y="0" width="60" height="45">
<path d="M59.8724 0H0.382568V44.6173H59.8724V0Z" fill="white"/>
</mask>
<g mask="url(#mask0_131_7458)">
<path d="M8.22461 30.0153H9.8643L13.6527 34.9237V30.0153H15.4112V37.9495H13.9017L9.98316 32.9419V37.9497H8.22461V30.0155M20.6302 34.4605C20.5284 33.6983 20.0649 33.1796 19.3298 33.1796C18.6004 33.1796 18.1255 33.6876 17.9841 34.4605H20.6302ZM16.2652 34.9685V34.9464C16.2652 33.2238 17.5261 31.8103 19.3298 31.8103C21.3936 31.8103 22.3435 33.3728 22.3435 35.0789C22.3435 35.2169 22.3319 35.3716 22.3209 35.5317H18.0123C18.1876 36.3046 18.736 36.7133 19.5219 36.7133C20.1156 36.7133 20.5398 36.5314 21.0261 36.0947L22.0269 36.9614C21.4559 37.6572 20.619 38.0824 19.4995 38.0824C17.6393 38.0824 16.2653 36.8126 16.2653 34.9683M23.4408 36.2379V33.3836H22.7001V31.9198H23.4408V30.3798H25.1937V31.9198H26.6525V33.3836H25.1937V35.9562C25.1937 36.3537 25.3689 36.5413 25.7591 36.5413C26.0628 36.5433 26.3621 36.4712 26.6299 36.3316V37.7009C26.2087 37.9416 25.7268 38.0621 25.239 38.0488C24.1703 38.0488 23.4409 37.6346 23.4409 36.2378M40.6243 34.9465V34.9244C40.6243 33.925 39.929 33.257 39.109 33.257C38.289 33.257 37.6105 33.9251 37.6105 34.9244V34.9465C37.6105 35.9459 38.2891 36.6139 39.109 36.6139C39.9289 36.6139 40.624 35.957 40.624 34.9465L40.6243 34.9465ZM35.8748 31.9208H37.6332V32.7877C38.0573 32.2247 38.6453 31.8105 39.5613 31.8105C41.0033 31.8105 42.3772 32.9091 42.3772 34.9245V34.9465C42.3772 36.9618 41.0258 38.0605 39.5614 38.0605C38.6227 38.0605 38.046 37.6464 37.6333 37.1661V39.75H35.8746V31.9209M47.8442 34.9465V34.9245C47.8442 33.9251 47.1488 33.2571 46.3288 33.2571C45.5089 33.2571 44.8249 33.9252 44.8249 34.9245V34.9465C44.8249 35.9459 45.509 36.6139 46.3288 36.6139C47.1487 36.6139 47.8442 35.957 47.8442 34.9465ZM43.0947 31.9209H44.8531V32.7877C45.2772 32.2247 45.8652 31.8105 46.7812 31.8105C48.2231 31.8105 49.5971 32.9091 49.5971 34.9245V34.9465C49.5971 36.9618 48.2457 38.0605 46.7812 38.0605C45.8426 38.0605 45.2659 37.6464 44.8532 37.1661V39.75H43.0946V31.9209M32.3062 34.6537L31.2319 32.0973L30.1576 34.6537H32.3062ZM30.4573 30.0158H32.0575L35.433 37.9499H33.5841L32.8377 36.1829H29.6319L28.8911 37.9499H27.076L30.4573 30.0158Z" fill="white"/>
<path d="M16.3369 4.86737V25.148H26.1165V12.9796H31.7053V25.148H41.4849V4.86737H16.3369Z" fill="white"/>
<path d="M52.0306 33.2602H51.8357V31.9045H51.8304L51.4511 33.2602H51.3299L50.9506 31.9045H50.9453V33.2602H50.7504V31.6378H51.0506L51.393 32.8683L51.7354 31.6386H52.0303L52.0306 33.2602ZM50.519 31.8509H50.1554V33.2602H49.9605V31.8509H49.5969V31.6378H50.5188V31.8504" fill="white"/>
</g>
</svg>
