<svg width="60" height="45" viewBox="0 0 60 45" fill="none" xmlns="http://www.w3.org/2000/svg">
<mask id="mask0_131_7490" style="mask-type:luminance" maskUnits="userSpaceOnUse" x="0" y="0" width="60" height="45">
<path d="M59.5254 0H0.0356445V44.6173H59.5254V0Z" fill="white"/>
</mask>
<g mask="url(#mask0_131_7490)">
<path d="M34.2221 25.9615C34.2221 27.8568 33.3166 28.805 31.5058 28.806C29.6938 28.806 28.8696 27.8792 28.8696 26.0287V22.3856H30.332V26.048C30.332 27.0678 30.7425 27.581 31.5603 27.581C32.378 27.581 32.7661 27.0871 32.7661 26.1026V22.3888H34.2252V25.9678L34.2221 25.9615Z" fill="white"/>
<path d="M40.0137 28.4726C39.5423 28.6971 38.9233 28.8061 38.1632 28.8061C37.1691 28.8061 36.3898 28.5207 35.8189 27.953C35.2513 27.3854 34.9669 26.6264 34.9658 25.676C34.9658 24.6658 35.2855 23.8469 35.9247 23.2195C36.563 22.5909 37.3925 22.2767 38.4134 22.2767C39.0452 22.2767 39.5775 22.3536 40.0108 22.5108V23.88C39.5601 23.6225 39.0481 23.4918 38.5291 23.5016C37.9198 23.5016 37.4292 23.6876 37.0572 24.0596C36.6851 24.4316 36.496 24.9383 36.496 25.5732C36.496 26.2082 36.6724 26.67 37.0251 27.0324C37.3778 27.3948 37.8525 27.5776 38.4457 27.5776C38.9933 27.5864 39.533 27.4468 40.0076 27.1735V28.4723L40.0137 28.4726Z" fill="white"/>
<path d="M52.6911 25.9615C52.6911 27.8568 51.7856 28.805 49.9747 28.806C48.1628 28.806 47.3386 27.8792 47.3386 26.0287V22.3856H48.801V26.048C48.801 27.0678 49.2115 27.581 50.0293 27.581C50.847 27.581 51.2351 27.0871 51.2351 26.1026V22.3888H52.6942V25.9678L52.6911 25.9615Z" fill="white"/>
<path d="M53.5154 28.4533V27.0454C53.7687 27.2555 54.0576 27.4184 54.3684 27.5265C54.6673 27.6315 54.9817 27.6857 55.2985 27.6868C55.4601 27.689 55.6215 27.6729 55.7795 27.6387C55.9005 27.613 56.0165 27.5675 56.1227 27.504C56.2067 27.4547 56.2772 27.3852 56.3279 27.302C56.3725 27.225 56.3958 27.1375 56.3953 27.0486C56.3971 26.9293 56.3586 26.8129 56.2862 26.7181C56.2035 26.6126 56.1038 26.5216 55.9912 26.4487C55.8495 26.3572 55.7004 26.2778 55.5454 26.2114C55.3754 26.1344 55.1894 26.0575 54.9906 25.9773C54.4839 25.7721 54.1086 25.5219 53.8585 25.2237C53.6089 24.9222 53.4768 24.5406 53.4865 24.1493C53.4783 23.8542 53.548 23.5622 53.6886 23.3027C53.8236 23.0672 54.0127 22.8672 54.2402 22.719C54.4883 22.559 54.7631 22.445 55.0516 22.3823C55.3714 22.3093 55.6984 22.2727 56.0265 22.2733C56.3259 22.2698 56.6251 22.2902 56.9212 22.3342C57.1676 22.3692 57.4095 22.4305 57.6428 22.517V23.832C57.5314 23.7572 57.4133 23.6928 57.2901 23.6396C57.1621 23.5842 57.0302 23.5381 56.8956 23.5018C56.7629 23.4658 56.6279 23.439 56.4915 23.4216C56.3649 23.4055 56.2375 23.3969 56.1099 23.3959C55.958 23.395 55.8064 23.41 55.6577 23.4409C55.5371 23.4662 55.4212 23.5106 55.3145 23.5724C55.2277 23.6212 55.1532 23.6892 55.0965 23.7712C55.0448 23.849 55.0179 23.9407 55.0195 24.0342C55.0186 24.1359 55.0488 24.2355 55.1061 24.3196C55.1726 24.4126 55.2552 24.493 55.35 24.5569C55.4725 24.6403 55.6012 24.7143 55.7349 24.7782C55.8857 24.849 56.0556 24.9257 56.2448 24.9995C56.4842 25.0957 56.7167 25.2082 56.9408 25.3362C57.1347 25.4462 57.3127 25.5821 57.4699 25.7403C57.6151 25.8879 57.7306 26.0621 57.8098 26.2534C57.8917 26.4672 57.9319 26.6947 57.9285 26.9237C57.9393 27.2327 57.8686 27.5391 57.7232 27.812C57.5884 28.0489 57.3966 28.2484 57.1653 28.3925C56.9136 28.5465 56.6368 28.655 56.3475 28.7132C56.0226 28.7802 55.6915 28.8125 55.3598 28.8094C55.0201 28.8104 54.681 28.7814 54.3463 28.7229C54.0574 28.6744 53.7767 28.5859 53.5122 28.4599L53.5154 28.4533Z" fill="white"/>
<path d="M42.4928 28.697H41.0337V22.3856H42.4928V28.697Z" fill="white"/>
<path d="M43.0671 25.955L45.3248 28.697H47.1656L44.3435 25.3938L46.6013 22.3856H44.8631L43.0768 25.0154L43.0671 25.955Z" fill="white"/>
<path d="M26.7631 26.2405C26.9371 26.1593 27.0999 26.0558 27.2473 25.9327C27.7155 25.5414 27.9496 25.0283 27.9496 24.3933C27.9496 23.0528 27.1339 22.3826 25.5024 22.3826H22.491V28.6939H23.9501V23.4729H25.2522C26.0283 23.4729 26.4163 23.7968 26.4163 24.4446C26.4163 25.0924 26.0283 25.4388 25.2522 25.4388V25.4453H24.428L27.0193 28.6908H28.8601L26.7631 26.2341V26.2405Z" fill="white"/>
<path d="M11.9016 33.1388H10.1861L11.3979 27.7028L11.1768 25.1597L11.0355 24.8616L10.6316 26.6447L7.76127 25.7402L5.196 28.9632C4.97756 29.115 4.25511 29.4319 3.55649 29.7386C3.0524 29.9598 2.57621 30.1688 2.34809 30.291L1.31229 32.0935L1.94726 32.2509L1.678 32.8858H0.0356445L1.76422 29.1303L3.34209 27.8765L3.96416 25.0575L4.84297 24.06C4.435 23.7291 4.05425 23.366 3.70434 22.9741C3.43541 22.6733 3.20028 22.344 3.0032 21.9919C2.69411 21.4249 2.56513 20.8711 2.61974 20.3459C2.76626 18.9374 4.17358 18.1641 4.33356 18.0806L4.33525 18.0796L4.33617 18.0791C4.33617 18.0796 4.33475 18.0807 4.33325 18.0823L4.33264 18.0829C4.12197 18.3087 3.94236 18.5616 3.79856 18.8348C3.67168 19.0719 3.57841 19.3256 3.52153 19.5884C3.45681 19.8892 3.45441 20.1999 3.51446 20.5016C3.61251 20.9843 3.87789 21.4442 4.30313 21.8681C4.57143 22.13 4.86723 22.362 5.1854 22.5602C5.59785 22.8175 6.03018 23.0414 6.47833 23.2297C6.48069 23.2297 6.76077 23.2231 6.95293 23.2231L12.4627 21.7737L12.9657 21.1505L17.3969 22.8155C16.9937 24.0655 16.5141 25.5618 16.5196 25.5899C16.5228 25.6088 13.3798 27.6094 13.3479 27.6296L11.2602 32.315L11.9016 32.5845V33.1393V33.1388ZM17.6413 22.0583L13.4471 20.553L14.2327 19.5796L14.4766 19.9322L15.5318 20.2721L16.901 18.0372L15.3518 19.647L14.7651 19.4739L13.9986 18.5695L14.4122 17.6488L16.0096 16.9367L17.4654 16.6226L18.3728 17.2383L20.5278 16.3176L20.9257 16.8212V16.8339L20.8999 17.8954L18.2638 19.8391L20.5376 19.8327L19.9764 20.6056L18.0587 20.7693C18.0565 20.7762 17.8713 21.3464 17.641 22.0582L17.6413 22.0583Z" fill="white"/>
<path d="M13.8705 27.9177L15.9586 26.5932L13.7002 31.8559L14.3448 32.1029V32.6288L12.834 32.632L13.8705 27.9177Z" fill="white"/>
<path d="M8.60468 29.1043L6.21872 30.3165L5.33998 31.8687L6.00704 32.0548L5.73768 32.6256H4.26562L5.41049 29.582C5.51955 29.5146 6.73178 28.4339 6.73178 28.4339L6.83407 27.7476L7.95045 26.3463L9.60845 26.8722L8.60468 29.1043Z" fill="white"/>
<path d="M59.5254 22.7769C59.5324 22.9126 59.4984 23.0472 59.428 23.1634C59.3576 23.2796 59.2539 23.372 59.1304 23.4287C59.007 23.4854 58.8693 23.5037 58.7353 23.4813C58.6013 23.459 58.4771 23.3969 58.3787 23.3032C58.2803 23.2095 58.2123 23.0884 58.1835 22.9557C58.1546 22.8229 58.1662 22.6845 58.2168 22.5584C58.2675 22.4323 58.3547 22.3243 58.4674 22.2484C58.58 22.1724 58.7128 22.1319 58.8487 22.1322C58.9356 22.1294 59.0223 22.1439 59.1036 22.1749C59.1849 22.2059 59.2592 22.2528 59.3221 22.3128C59.3851 22.3728 59.4355 22.4447 59.4704 22.5244C59.5054 22.6041 59.524 22.6899 59.5254 22.7769ZM58.3389 22.7769C58.3378 22.8448 58.3505 22.9123 58.3761 22.9752C58.4017 23.0382 58.4397 23.0953 58.4879 23.1432C58.5361 23.1911 58.5935 23.2288 58.6566 23.2541C58.7197 23.2793 58.7873 23.2915 58.8552 23.29C58.9223 23.2914 58.9889 23.279 59.051 23.2538C59.1131 23.2286 59.1695 23.191 59.2166 23.1433C59.2637 23.0956 59.3006 23.0388 59.3251 22.9763C59.3495 22.9139 59.361 22.8471 59.3589 22.7801C59.3607 22.7125 59.349 22.6452 59.3245 22.5821C59.2999 22.5191 59.2631 22.4616 59.2161 22.4129C59.169 22.3643 59.1128 22.3256 59.0506 22.299C58.9884 22.2724 58.9215 22.2584 58.8538 22.258C58.7862 22.2576 58.7191 22.2706 58.6566 22.2965C58.5941 22.3223 58.5373 22.3603 58.4897 22.4083C58.4421 22.4563 58.4045 22.5134 58.3792 22.5761C58.3538 22.6389 58.3413 22.706 58.3423 22.7736L58.3389 22.7769ZM58.7462 23.1136H58.5922V22.469C58.6758 22.4542 58.7607 22.4477 58.8456 22.4497C58.9256 22.4428 59.0058 22.4595 59.0764 22.4978C59.0967 22.5152 59.113 22.5369 59.1241 22.5612C59.1351 22.5856 59.1408 22.6121 59.1406 22.6389C59.1368 22.6754 59.1213 22.7098 59.0965 22.737C59.0717 22.7641 59.0388 22.7825 59.0027 22.7895V22.7959C59.0353 22.8087 59.0638 22.8301 59.0853 22.8578C59.1067 22.8855 59.1203 22.9185 59.1246 22.9533C59.1302 23.0093 59.1465 23.0638 59.1727 23.1137H59.0092C58.9842 23.0641 58.9669 23.011 58.9578 22.9563C58.945 22.8855 58.9065 22.854 58.82 22.854H58.7464V23.1137L58.7462 23.1136ZM58.7494 22.748H58.8231C58.9065 22.748 58.977 22.7191 58.977 22.655C58.977 22.5972 58.9321 22.5556 58.836 22.5556C58.808 22.555 58.7801 22.5572 58.7525 22.5621V22.7481L58.7494 22.748Z" fill="white"/>
<path d="M22.5166 16.7669V19.8296H23.9822V15.7118L22.5166 16.7669Z" fill="white"/>
<path d="M25.6533 14.5092V19.8296H27.1189V13.4541L25.6533 14.5092Z" fill="white"/>
<path d="M28.8699 12.1938V19.8296H30.3355V11.1387L28.8699 12.1938Z" fill="white"/>
<path d="M24.1845 33.3505C23.9699 33.4419 23.7377 33.4846 23.5046 33.4756C23.139 33.4756 22.8536 33.3697 22.6419 33.1549C22.4303 32.9401 22.3274 32.6549 22.3274 32.2955C22.3206 32.1252 22.3484 31.9552 22.409 31.796C22.4696 31.6367 22.5619 31.4913 22.6802 31.3686C22.8003 31.2494 22.9438 31.1562 23.1016 31.0949C23.2595 31.0337 23.4282 31.0057 23.5974 31.0126C23.7966 31.0075 23.9951 31.0368 24.1843 31.0992V31.6156C24.0194 31.5179 23.8307 31.4679 23.6391 31.4713C23.539 31.467 23.4392 31.4836 23.3458 31.5201C23.2525 31.5565 23.1678 31.612 23.0971 31.6829C23.0265 31.7595 22.9719 31.8495 22.9367 31.9475C22.9014 32.0455 22.8862 32.1496 22.8919 32.2536C22.8857 32.354 22.8999 32.4545 22.9335 32.5493C22.9671 32.6441 23.0195 32.7311 23.0875 32.8052C23.1552 32.8744 23.2367 32.9284 23.3268 32.9638C23.4169 32.9992 23.5134 33.0152 23.6101 33.0106C23.8122 33.0139 24.0111 32.9606 24.1845 32.8567V33.3474V33.3505Z" fill="white"/>
<path d="M25.9385 33.4787C25.784 33.4841 25.63 33.4572 25.4864 33.3998C25.3428 33.3423 25.2127 33.2556 25.1044 33.1451C24.8895 32.9239 24.7837 32.6352 24.7837 32.276C24.7837 31.9008 24.8927 31.5962 25.1108 31.362C25.2217 31.2453 25.3564 31.1536 25.5057 31.0934C25.655 31.0331 25.8155 31.0055 25.9764 31.0125C26.1296 31.0065 26.2822 31.0332 26.4243 31.0907C26.5664 31.1482 26.6947 31.2352 26.8006 31.346C27.0091 31.5672 27.1149 31.8623 27.1149 32.2247C27.1282 32.5573 27.0108 32.8819 26.7878 33.1291C26.6782 33.2428 26.5459 33.3322 26.3994 33.3913C26.253 33.4504 26.0957 33.478 25.9379 33.4723L25.9385 33.4787ZM25.961 31.4775C25.8747 31.4745 25.7889 31.4921 25.7108 31.5289C25.6327 31.5658 25.5645 31.6207 25.512 31.6892C25.3934 31.8515 25.3345 32.0497 25.3452 32.2504C25.3335 32.4502 25.3925 32.6478 25.512 32.8084C25.564 32.8739 25.6304 32.9265 25.706 32.9621C25.7817 32.9977 25.8646 33.0153 25.9481 33.0136C26.0317 33.0162 26.1147 32.9996 26.1908 32.9651C26.267 32.9306 26.3342 32.8792 26.3875 32.8148C26.4965 32.6833 26.551 32.4973 26.551 32.26C26.5622 32.0556 26.507 31.8531 26.3936 31.6827C26.3435 31.616 26.2779 31.5624 26.2025 31.5267C26.1271 31.4909 26.0442 31.4741 25.9608 31.4775L25.961 31.4775Z" fill="white"/>
<path d="M30.5984 33.437H30.0692V32.0127C30.0692 31.8588 30.0756 31.6888 30.0885 31.5028H30.0757C30.0576 31.609 30.033 31.7139 30.0019 31.8171L29.4439 33.4366H29.0046L28.4369 31.8335C28.4047 31.7242 28.3801 31.6128 28.3631 31.5H28.3474C28.3631 31.7341 28.3698 31.9394 28.3698 32.119V33.4371H27.8853V31.0574H28.671L29.1585 32.4683C29.1968 32.5788 29.2247 32.6926 29.2419 32.8083H29.2515C29.2759 32.6919 29.3081 32.5772 29.3477 32.4651L29.8352 31.0573H30.6016V33.4368L30.5984 33.437Z" fill="white"/>
<path d="M34.2254 33.437H33.6962V32.0127C33.6962 31.8588 33.7026 31.6888 33.7155 31.5028H33.7026C33.6845 31.609 33.6599 31.7139 33.6289 31.8171L33.0709 33.4366H32.6316L32.0638 31.8335C32.0317 31.7242 32.0071 31.6128 31.9901 31.5H31.9744C31.9901 31.7341 31.9968 31.9394 31.9968 32.119V33.4371H31.5122V31.0574H32.2979L32.7854 32.4683C32.8237 32.5788 32.8517 32.6926 32.8688 32.8083H32.8784C32.9029 32.6919 32.935 32.5772 32.9747 32.4651L33.4622 31.0573H34.2286V33.4368L34.2254 33.437Z" fill="white"/>
<path d="M35.0334 33.3439V32.8116C35.127 32.89 35.2332 32.9518 35.3476 32.9944C35.4575 33.035 35.5737 33.0557 35.6908 33.0553C35.7502 33.0561 35.8094 33.0497 35.8672 33.036C35.9117 33.0266 35.954 33.0092 35.9923 32.9847C36.0232 32.965 36.0495 32.9387 36.0692 32.9078C36.0874 32.879 36.0963 32.8455 36.0949 32.8115C36.095 32.7669 36.0816 32.7233 36.0564 32.6865C36.0264 32.6462 35.9895 32.6115 35.9473 32.5842C35.8959 32.549 35.8411 32.519 35.7838 32.4944C35.7197 32.4655 35.6523 32.4366 35.5786 32.4078C35.4184 32.3481 35.2753 32.2501 35.1615 32.1224C35.0685 32.0087 35.0196 31.8652 35.0237 31.7184C35.0211 31.607 35.0464 31.4968 35.0974 31.3977C35.1462 31.3089 35.2155 31.2331 35.2995 31.1764C35.3909 31.1171 35.4918 31.0738 35.5977 31.0482C35.7152 31.0191 35.8359 31.0051 35.9569 31.0065C36.0675 31.0048 36.1781 31.0123 36.2874 31.0289C36.3779 31.0437 36.467 31.0663 36.5536 31.0962V31.5933C36.5125 31.5643 36.4684 31.5396 36.4222 31.5196C36.3757 31.4983 36.3274 31.4811 36.2778 31.4683C36.2294 31.4545 36.1801 31.4438 36.1303 31.4362C36.0835 31.4299 36.0364 31.4267 35.9892 31.4266C35.9332 31.4266 35.8774 31.4319 35.8225 31.4423C35.7782 31.4508 35.7359 31.467 35.6974 31.4904C35.6648 31.5091 35.6373 31.5355 35.6172 31.5674C35.5981 31.5969 35.588 31.6315 35.5884 31.6667C35.5871 31.7046 35.5984 31.7418 35.6205 31.7726C35.6462 31.8064 35.6764 31.8366 35.7102 31.8624C35.7551 31.8937 35.8023 31.9215 35.8513 31.9458C35.9059 31.9747 35.97 32.0003 36.0402 32.0292C36.1288 32.0655 36.2145 32.1083 36.2967 32.1575C36.3682 32.199 36.4339 32.2497 36.4923 32.3081C36.5463 32.3634 36.5888 32.4288 36.6174 32.5005C36.6473 32.5816 36.6615 32.6676 36.6591 32.7539C36.6629 32.8699 36.6364 32.9848 36.5821 33.0874C36.5329 33.176 36.4624 33.251 36.3769 33.3055C36.2842 33.3632 36.1822 33.4045 36.0754 33.4274C35.9563 33.4524 35.8348 33.4642 35.7131 33.4626C35.5883 33.4636 35.4638 33.4529 35.341 33.4305C35.2342 33.4124 35.1305 33.379 35.0332 33.3311L35.0334 33.3439Z" fill="white"/>
<path d="M39.1291 33.3504C38.9145 33.4418 38.6823 33.4845 38.4492 33.4755C38.0836 33.4755 37.7982 33.3696 37.5865 33.1548C37.3749 32.94 37.272 32.6548 37.272 32.2953C37.2652 32.125 37.2929 31.9551 37.3536 31.7958C37.4142 31.6366 37.5065 31.4912 37.6248 31.3685C37.7449 31.2492 37.8884 31.1561 38.0462 31.0948C38.2041 31.0335 38.3728 31.0055 38.542 31.0125C38.7411 31.0074 38.9397 31.0367 39.1289 31.0991V31.6155C38.964 31.5177 38.7753 31.4678 38.5837 31.4711C38.4836 31.4669 38.3837 31.4835 38.2904 31.52C38.1971 31.5564 38.1124 31.6119 38.0417 31.6828C37.971 31.7594 37.9165 31.8494 37.8812 31.9474C37.846 32.0455 37.8307 32.1496 37.8364 32.2536C37.8303 32.354 37.8445 32.4546 37.8781 32.5494C37.9117 32.6441 37.9641 32.7312 38.0321 32.8052C38.0998 32.8744 38.1814 32.9284 38.2715 32.9638C38.3616 32.9992 38.4581 33.0151 38.5548 33.0105C38.7569 33.0138 38.9559 32.9604 39.1292 32.8566V33.3473L39.1291 33.3504Z" fill="white"/>
<path d="M40.8831 33.4787C40.7285 33.4841 40.5745 33.4572 40.4309 33.3998C40.2873 33.3423 40.1572 33.2556 40.0489 33.1451C39.834 32.9239 39.7283 32.6352 39.7283 32.276C39.7283 31.9008 39.8373 31.5962 40.0554 31.362C40.1663 31.2453 40.3009 31.1536 40.4503 31.0934C40.5996 31.0331 40.7601 31.0055 40.921 31.0125C41.0741 31.0065 41.2268 31.0332 41.3689 31.0907C41.511 31.1482 41.6392 31.2352 41.7452 31.346C41.9536 31.5672 42.0595 31.8623 42.0595 32.2247C42.0728 32.5573 41.9554 32.8819 41.7324 33.1291C41.6228 33.2428 41.4905 33.3322 41.344 33.3913C41.1976 33.4504 41.0403 33.478 40.8825 33.4723L40.8831 33.4787ZM40.9055 31.4775C40.8192 31.4745 40.7334 31.4921 40.6553 31.5289C40.5772 31.5657 40.509 31.6207 40.4565 31.6892C40.3379 31.8515 40.2791 32.0497 40.2897 32.2504C40.278 32.4502 40.337 32.6478 40.4565 32.8084C40.5085 32.8739 40.5749 32.9265 40.6505 32.9621C40.7262 32.9977 40.8091 33.0153 40.8927 33.0136C40.9762 33.0162 41.0592 32.9996 41.1353 32.9651C41.2115 32.9306 41.2787 32.8792 41.332 32.8148C41.441 32.6833 41.4955 32.4973 41.4955 32.26C41.5067 32.0556 41.4515 31.8531 41.3381 31.6827C41.288 31.616 41.2224 31.5624 41.147 31.5267C41.0716 31.4909 40.9887 31.4741 40.9053 31.4775L40.9055 31.4775Z" fill="white"/>
<path d="M43.3654 32.616V33.437H42.8298V31.0574H43.6701C44.2698 31.0574 44.5712 31.3108 44.5712 31.8174C44.5748 31.9273 44.5536 32.0365 44.5092 32.137C44.4648 32.2375 44.3983 32.3267 44.3147 32.3979C44.1196 32.5533 43.8744 32.632 43.6252 32.6192H43.3687L43.3654 32.616ZM43.3654 31.4679V32.2086H43.5771C43.8625 32.2086 44.0068 32.0836 44.0068 31.8334C44.0068 31.5833 43.8625 31.4678 43.5771 31.4678L43.3654 31.4679Z" fill="white"/>
<path d="M46.7199 33.437H45.2927V31.0574H46.6653V31.4936H45.8283V32.0227H46.6073V32.4588H45.8283V33.004H46.7199V33.4402V33.437Z" fill="white"/>
</g>
</svg>
