<svg width="61" height="45" viewBox="0 0 61 45" fill="none" xmlns="http://www.w3.org/2000/svg">
<mask id="mask0_131_7591" style="mask-type:luminance" maskUnits="userSpaceOnUse" x="0" y="0" width="61" height="45">
<path d="M60.3113 0H0.821533V44.6173H60.3113V0Z" fill="white"/>
</mask>
<g mask="url(#mask0_131_7591)">
<path d="M31.7621 10.2893H30.0874V20.3026H31.7621V10.2893Z" fill="white"/>
<path fill-rule="evenodd" clip-rule="evenodd" d="M32.1677 22.7176L33.8414 21.6806V13.0115C33.3452 12.6436 32.7737 12.3903 32.1679 12.27L32.1677 22.7176Z" fill="white"/>
<path fill-rule="evenodd" clip-rule="evenodd" d="M28.0032 21.6858L29.6779 22.7228V12.2751C29.0721 12.3937 28.5001 12.6451 28.0032 13.0114V21.6858Z" fill="white"/>
<path fill-rule="evenodd" clip-rule="evenodd" d="M34.2471 10.765V21.4991L35.0248 21.0169C35.3032 20.8337 35.531 20.5832 35.687 20.2887C35.8431 19.9942 35.9224 19.6651 35.9176 19.3318V14.2623C35.9218 12.8001 34.2471 10.765 34.2471 10.765Z" fill="white"/>
<path fill-rule="evenodd" clip-rule="evenodd" d="M25.9289 19.3279C25.9239 19.6613 26.0031 19.9905 26.1592 20.2851C26.3154 20.5797 26.5434 20.8301 26.8221 21.013L27.5999 21.4951V10.765C27.5999 10.765 25.9289 12.8001 25.9289 14.2623V19.3279Z" fill="white"/>
<path fill-rule="evenodd" clip-rule="evenodd" d="M37.2098 34.2314V26.3348L38.4179 25.8267V34.2314H37.2098ZM35.3069 30.9234C35.3131 30.7104 35.2736 30.4985 35.1912 30.3019C35.1087 30.1054 34.985 29.9288 34.8286 29.784C34.5184 29.5016 34.1113 29.3495 33.6918 29.3593C33.2767 29.3476 32.8738 29.5003 32.5706 29.784C32.2605 30.085 32.0753 30.4919 32.0521 30.9234H35.3069ZM33.6685 34.3261C32.8189 34.3261 32.1276 34.053 31.5945 33.5069C31.0614 32.9607 30.7965 32.2361 30.7999 31.333C30.7999 30.4308 31.0691 29.708 31.6075 29.1644C32.1458 28.6208 32.8419 28.3499 33.6957 28.3517C34.5504 28.3517 35.2417 28.6109 35.7697 29.1294C36.2976 29.6479 36.5634 30.3289 36.5669 31.1723C36.5679 31.3619 36.5535 31.5514 36.5241 31.7387H32.0391C32.046 32.172 32.2234 32.5852 32.533 32.8885C32.8394 33.1737 33.2461 33.3264 33.6646 33.3132C34.3239 33.3132 34.788 33.0436 35.0568 32.5044H36.3647C36.1938 33.0356 35.856 33.4975 35.4016 33.8214C34.8932 34.1716 34.2854 34.3486 33.6685 34.3261ZM26.0688 28.4464V29.3537C26.4577 28.6822 27.0812 28.3465 27.9393 28.3465C28.2411 28.3365 28.5417 28.389 28.8223 28.5005C29.1029 28.612 29.3574 28.7802 29.57 28.9946C30.0021 29.4267 30.2181 30.0317 30.2181 30.8096V34.2316H29.0176V30.9973C29.0176 30.4788 28.888 30.0817 28.6288 29.806C28.4893 29.665 28.3215 29.5551 28.1365 29.4836C27.9514 29.4121 27.7533 29.3806 27.5552 29.3912C27.3549 29.3794 27.1544 29.4101 26.9668 29.4811C26.7791 29.5521 26.6086 29.662 26.4663 29.8034C26.201 30.0791 26.0683 30.4762 26.0683 30.9946V34.2313H24.8567V28.4466L26.0688 28.4464ZM22.604 34.2311V28.4464H23.816V34.2311H22.604ZM21.7263 29.4224H20.3004V32.624C20.2923 32.7085 20.3019 32.7937 20.3285 32.8742C20.3551 32.9548 20.3981 33.0289 20.4549 33.092C20.5573 33.1866 20.7323 33.2332 20.9811 33.2332H21.7252V34.2313H20.7684C19.645 34.2313 19.0832 33.6955 19.0832 32.6239V27.5143L20.3056 27.0075V28.4464H21.7315L21.7263 29.4224ZM14.378 28.4463V29.3537C14.7634 28.6857 15.3882 28.3517 16.2524 28.3517C16.5543 28.3421 16.8549 28.3947 17.1357 28.5062C17.4164 28.6177 17.6712 28.7857 17.8843 28.9998C18.3164 29.4319 18.5324 30.0369 18.5324 30.8148V34.2316H17.3308V30.9973C17.3308 30.4788 17.2011 30.0817 16.9419 29.806C16.8024 29.665 16.6346 29.5551 16.4496 29.4836C16.2645 29.4121 16.0665 29.3806 15.8684 29.3912C15.6672 29.3787 15.4658 29.409 15.2772 29.48C15.0886 29.5511 14.9172 29.6613 14.7744 29.8034C14.509 30.0791 14.376 30.4762 14.3752 30.9946V34.2313H13.1647V28.4466L14.378 28.4463ZM11.2669 30.9234C11.2731 30.7104 11.2337 30.4985 11.1512 30.3019C11.0687 30.1054 10.9451 29.9288 10.7886 29.784C10.4758 29.4991 10.0645 29.3468 9.6415 29.3593C9.22638 29.3476 8.82344 29.5003 8.52024 29.784C8.20959 30.0846 8.02434 30.4918 8.00178 30.9234H11.2669ZM9.62343 34.326C8.7731 34.326 8.08177 34.0529 7.54943 33.5068C7.01709 32.9607 6.7518 32.2361 6.75355 31.333C6.75355 30.4308 7.02273 29.708 7.56109 29.1644C8.09945 28.6208 8.79552 28.3499 9.6493 28.3517C10.5031 28.3517 11.1944 28.6109 11.7233 29.1294C12.2522 29.6479 12.5179 30.3289 12.5205 31.1723C12.5215 31.3619 12.5072 31.5514 12.4777 31.7387H7.99274C7.99938 32.1723 8.1774 32.5857 8.48788 32.8885C8.79404 33.1742 9.20094 33.3269 9.61949 33.3132C10.278 33.3132 10.742 33.0436 11.0116 32.5044H12.3182C12.1473 33.0356 11.8095 33.4975 11.3551 33.8214C10.8471 34.1713 10.2398 34.3481 9.62335 34.3256L9.62343 34.326ZM3.58424 27.8164C3.26775 27.8022 2.95615 27.8984 2.70279 28.0886C2.58785 28.1849 2.49714 28.3069 2.43795 28.4447C2.37877 28.5825 2.35277 28.7322 2.36204 28.8819C2.35519 29.0381 2.38938 29.1935 2.46119 29.3324C2.533 29.4714 2.63994 29.5891 2.77137 29.6739C3.0689 29.8678 3.40067 30.0032 3.7489 30.0729C4.13084 30.1593 4.51322 30.2556 4.89603 30.362C5.2713 30.4687 5.60868 30.6794 5.86916 30.9699C6.1369 31.2628 6.27129 31.6793 6.27231 32.2194C6.27334 32.7595 6.04304 33.2421 5.58139 33.6673C5.12078 34.095 4.50465 34.3111 3.73299 34.3154C2.96134 34.3197 2.33444 34.1409 1.8523 33.779C1.61872 33.6114 1.43037 33.3884 1.30414 33.13C1.17791 32.8717 1.11774 32.586 1.12902 32.2987H2.42529C2.44001 32.5922 2.56999 32.868 2.78697 33.0661C2.99957 33.2545 3.31153 33.3487 3.72287 33.3487C4.07487 33.3686 4.4216 33.2562 4.69508 33.0337C4.89442 32.8597 5.01969 32.616 5.04523 32.3527C5.07077 32.0893 4.99466 31.8261 4.83247 31.617C4.67894 31.45 4.48529 31.3251 4.26991 31.254C4.02081 31.1685 3.76724 31.0967 3.51033 31.0388C3.23394 30.9767 2.9557 30.9032 2.6756 30.8184C2.40895 30.74 2.15235 30.6308 1.911 30.493C1.67363 30.3533 1.47873 30.1517 1.34721 29.9097C1.19397 29.6212 1.11888 29.2977 1.12941 28.9712C1.11958 28.6786 1.17726 28.3875 1.29797 28.1207C1.41868 27.8539 1.59918 27.6185 1.82551 27.4326C2.28957 27.0437 2.89198 26.8493 3.63274 26.8493C4.37351 26.8493 4.96503 27.013 5.40731 27.3406C5.85063 27.6767 6.09692 28.1633 6.14619 28.8002H4.8066C4.78191 28.5276 4.65222 28.2752 4.44492 28.0964C4.20328 27.8985 3.89609 27.7985 3.58424 27.8164Z" fill="white"/>
<path fill-rule="evenodd" clip-rule="evenodd" d="M56.1582 28.7756C55.7611 28.7705 55.3685 28.8594 55.0123 29.0349C54.661 29.212 54.368 29.4865 54.1684 29.8256C53.9413 30.225 53.8258 30.678 53.834 31.1374H58.3799C58.4209 30.6819 58.3287 30.2244 58.1144 29.8204C57.9254 29.4786 57.6363 29.2027 57.2861 29.0297C56.9349 28.8589 56.5489 28.7719 56.1585 28.7756H56.1582ZM56.1375 33.7933C56.6597 33.8111 57.1736 33.6592 57.6022 33.3604C57.7958 33.2223 57.9596 33.0465 58.0836 32.8436C58.2077 32.6407 58.2895 32.4148 58.3242 32.1795H58.8232C58.7319 32.7581 58.422 33.2797 57.9574 33.6365C57.4873 34.0046 56.8875 34.1887 56.1579 34.1887C55.6533 34.1983 55.1548 34.0782 54.71 33.84C54.2877 33.6083 53.9415 33.2595 53.7132 32.8354C53.462 32.3563 53.3379 31.8207 53.3528 31.28C53.3401 30.7456 53.4641 30.2169 53.7132 29.744C53.9408 29.3207 54.2855 28.972 54.706 28.7394C55.1509 28.5011 55.6494 28.3811 56.1539 28.3907C56.6588 28.3778 57.1582 28.4981 57.6018 28.7394C57.989 28.9527 58.3087 29.2702 58.5247 29.6558C58.7317 30.0262 58.8397 30.4436 58.8384 30.8678C58.8371 31.0531 58.8194 31.2379 58.7853 31.4201H53.834C53.8254 31.8844 53.9409 32.3426 54.1684 32.7474C54.3652 33.0868 54.6567 33.3616 55.0071 33.5381C55.3588 33.7101 55.7459 33.7975 56.1374 33.7934L56.1375 33.7933ZM50.2331 28.3492C50.9124 28.3492 51.4646 28.5575 51.8897 28.974C52.3148 29.3906 52.527 30.0045 52.5262 30.8159V34.1162H52.0492V30.8405C52.0492 30.1612 51.8755 29.6415 51.5307 29.285C51.186 28.9286 50.7102 28.7484 50.1048 28.7484C49.8264 28.7366 49.5485 28.7839 49.2896 28.8871C49.0307 28.9903 48.7965 29.1471 48.6025 29.3473C48.224 29.7465 48.0348 30.3346 48.0348 31.1114V34.1158H47.5578V28.4633H48.0348V29.9526C48.1483 29.4667 48.4378 29.0399 48.8475 28.7549C49.257 28.481 49.7406 28.3394 50.2331 28.3492ZM43.0455 27.268C42.4898 27.26 41.9421 27.4005 41.4589 27.675C40.9857 27.9471 40.5993 28.3476 40.3441 28.8302C40.062 29.37 39.9215 29.9725 39.9358 30.5814C39.9219 31.1894 40.0624 31.791 40.3441 32.33C40.5996 32.8122 40.986 33.2125 41.4589 33.4849C41.9444 33.7511 42.4892 33.8907 43.0429 33.8907C43.5966 33.8907 44.1414 33.7511 44.6269 33.4849C45.1021 33.2139 45.4905 32.8133 45.7468 32.33C46.0285 31.791 46.169 31.1894 46.1551 30.5814C46.169 29.9734 46.0285 29.3718 45.7468 28.8328C45.4909 28.3492 45.1024 27.9485 44.6269 27.6778C44.1453 27.4038 43.5996 27.2626 43.0455 27.2685V27.268ZM43.0455 26.8415C43.6946 26.8316 44.3346 26.9954 44.8991 27.3159C45.4428 27.6264 45.8877 28.0842 46.1824 28.6366C46.4975 29.2355 46.6562 29.9043 46.6438 30.5809C46.6549 31.2549 46.4962 31.9209 46.1824 32.5175C45.8867 33.0711 45.4422 33.5312 44.8991 33.8459C44.3324 34.1603 43.6949 34.3254 43.0468 34.3254C42.3986 34.3254 41.7612 34.1603 41.1945 33.8459C40.6471 33.5312 40.1982 33.0702 39.8982 32.5146C39.5828 31.9195 39.424 31.254 39.4367 30.5806C39.424 29.9036 39.5847 29.2346 39.9035 28.6371C40.2022 28.082 40.6515 27.6223 41.1997 27.3111C41.7624 26.9935 42.3995 26.8315 43.0455 26.8416V26.8415Z" fill="white"/>
<path d="M60.126 29.2267L59.9961 29.031H59.8898V29.2267H59.7605V28.6136H60.0405C60.1857 28.6136 60.2722 28.69 60.2722 28.8158C60.274 28.8571 60.2624 28.8979 60.239 28.9321C60.2156 28.9662 60.1818 28.9918 60.1426 29.005L60.2929 29.224L60.126 29.2267ZM60.126 28.8236C60.126 28.7653 60.0859 28.7355 60.0198 28.7355H59.8902V28.9117H60.0263C60.0924 28.9117 60.13 28.8767 60.13 28.8249L60.126 28.8236Z" fill="white"/>
<path d="M59.9874 29.5651C59.863 29.5653 59.7412 29.5287 59.6376 29.4597C59.5341 29.3907 59.4533 29.2925 59.4055 29.1776C59.3578 29.0627 59.3452 28.9362 59.3694 28.8141C59.3937 28.692 59.4536 28.5799 59.5416 28.4919C59.6296 28.4039 59.7417 28.344 59.8638 28.3198C59.9858 28.2955 60.1124 28.3081 60.2273 28.3558C60.3422 28.4036 60.4404 28.4844 60.5094 28.588C60.5783 28.6915 60.615 28.8133 60.6148 28.9377C60.6144 29.104 60.5482 29.2634 60.4306 29.3809C60.3131 29.4985 60.1537 29.5647 59.9874 29.5651ZM59.9874 28.4464C59.8902 28.4464 59.7953 28.4753 59.7145 28.5292C59.6337 28.5832 59.5707 28.66 59.5335 28.7497C59.4963 28.8395 59.4866 28.9383 59.5056 29.0336C59.5245 29.1289 59.5713 29.2164 59.64 29.2851C59.7087 29.3538 59.7963 29.4006 59.8916 29.4196C59.9869 29.4385 60.0856 29.4288 60.1754 29.3916C60.2652 29.3544 60.3419 29.2915 60.3959 29.2107C60.4499 29.1299 60.4787 29.0349 60.4787 28.9377C60.4787 28.8074 60.4269 28.6825 60.3348 28.5903C60.2427 28.4982 60.1177 28.4464 59.9874 28.4464Z" fill="white"/>
</g>
</svg>
