<svg width="60" height="45" viewBox="0 0 60 45" fill="none" xmlns="http://www.w3.org/2000/svg">
<mask id="mask0_131_7467" style="mask-type:luminance" maskUnits="userSpaceOnUse" x="0" y="0" width="60" height="45">
<path d="M59.699 0H0.209229V44.6173H59.699V0Z" fill="white"/>
</mask>
<g mask="url(#mask0_131_7467)">
<mask id="mask1_131_7467" style="mask-type:luminance" maskUnits="userSpaceOnUse" x="0" y="16" width="60" height="13">
<path d="M59.699 16.0291H0.229248V28.5638H59.699V16.0291Z" fill="white"/>
</mask>
<g mask="url(#mask1_131_7467)">
<path d="M1.27787 25.7692C0.40336 24.4564 0.0560676 22.8621 0.305309 21.3045C0.554551 19.7469 1.38199 18.3406 2.62249 17.3663C3.86298 16.3919 5.42528 15.9212 6.99757 16.0481C8.56985 16.1749 10.0365 16.8901 11.1047 18.0507C9.89398 17.2229 7.58552 17.6188 5.38393 19.0292C7.38006 17.8102 9.50068 17.6175 10.3514 18.7062C11.3295 19.9568 10.3013 22.3947 8.05326 24.1515C5.80523 25.9084 3.52558 26.2389 3.10309 25.054C2.94776 24.6118 2.82571 24.0476 3.73395 22.2664L4.79918 22.2717L5.00464 21.841H3.92005L4.58215 20.4158C4.58215 20.4158 4.0528 20.4158 4.04784 20.4195C3.30349 21.1197 2.39684 21.624 1.40936 21.8871L1.23719 22.2915H1.97034C1.15047 23.5799 0.898506 24.8494 1.27787 25.7692Z" fill="white"/>
<path d="M12.7642 22.2968C12.7641 23.5487 12.3891 24.7719 11.6874 25.8088C10.9857 26.8456 9.98957 27.6485 8.82739 28.114C7.6652 28.5794 6.39024 28.6862 5.16684 28.4204C3.94344 28.1546 2.82768 27.5285 1.96338 26.6228C3.33849 27.568 6.13892 26.9249 8.61176 24.9933C11.06 23.0811 12.3619 20.5514 11.8174 18.9824C12.4374 19.9765 12.765 21.1251 12.7626 22.2968" fill="white"/>
<path d="M56.0953 25.3184L55.7329 25.2798V25.2955L56.0247 25.4073L56.7056 25.7969V25.911L56.023 26.3195L55.7325 26.435V26.4478L56.0937 26.3964H57.0423V26.7342H55.22V26.4079L56.0541 25.9209L56.2625 25.8343V25.824L56.0479 25.7453L55.2202 25.2838V24.9612H57.0441V25.3184H56.0953Z" fill="white"/>
<path d="M57.0424 24.0349H55.2185V24.3921H57.0424V24.0349Z" fill="white"/>
<path d="M56.9693 22.3355C57.012 22.3995 57.0409 22.4718 57.054 22.5476C57.071 22.6348 57.0796 22.7234 57.0795 22.8122C57.0801 22.918 57.0632 23.0231 57.0294 23.1234C56.9949 23.2212 56.9387 23.31 56.865 23.383C56.7809 23.4631 56.6805 23.524 56.5708 23.5618C56.4293 23.6093 56.2806 23.6319 56.1314 23.6288C55.9782 23.6325 55.8256 23.6077 55.6814 23.5556C55.5718 23.5123 55.4725 23.4467 55.3896 23.3629C55.3178 23.2874 55.2634 23.1971 55.2302 23.0983C55.1985 23.0042 55.1819 22.9057 55.1813 22.8065C55.1802 22.7178 55.1875 22.6292 55.2031 22.5418C55.2139 22.4808 55.2307 22.4209 55.2532 22.3631L55.5553 22.4339C55.5348 22.4792 55.521 22.5272 55.5142 22.5765C55.5046 22.6425 55.5004 22.7091 55.5014 22.7758C55.499 22.8415 55.5116 22.907 55.5383 22.9671C55.565 23.0272 55.6051 23.0804 55.6556 23.1226C55.7946 23.2221 55.9644 23.269 56.1347 23.255C56.2213 23.2559 56.3077 23.2455 56.3916 23.2242C56.4635 23.2066 56.5309 23.1743 56.5897 23.1293C56.6447 23.0868 56.6892 23.0322 56.7196 22.9698C56.7512 22.9004 56.7665 22.8248 56.7643 22.7486C56.766 22.6818 56.7583 22.6151 56.7416 22.5503C56.7284 22.5007 56.7084 22.453 56.6824 22.4087L56.973 22.3368L56.9693 22.3355Z" fill="white"/>
<path d="M55.235 21.9156C55.2271 21.8745 55.221 21.8333 55.2157 21.7857C55.2104 21.7381 55.2055 21.6945 55.2017 21.648C55.1979 21.6015 55.1952 21.5568 55.1926 21.5132C55.1901 21.4696 55.1902 21.431 55.1902 21.3936C55.1899 21.3091 55.198 21.2247 55.2144 21.1418C55.2283 21.0641 55.2552 20.9893 55.2941 20.9207C55.3325 20.8555 55.387 20.8013 55.4524 20.7633C55.5296 20.7215 55.6165 20.7011 55.7042 20.7041C55.8339 20.6983 55.962 20.7348 56.0692 20.8081C56.1628 20.8774 56.2313 20.9754 56.2644 21.0871L56.3466 20.9597L57.042 20.5422V20.9532L56.3244 21.3691L56.2911 21.5569H57.0391V21.9141H55.2333L55.235 21.9156ZM55.5099 21.3681C55.5099 21.4043 55.5099 21.44 55.5124 21.4762C55.5125 21.5039 55.5155 21.5314 55.5214 21.5585H56.0508V21.4066C56.0545 21.3227 56.031 21.2399 55.9838 21.1705C55.956 21.139 55.9211 21.1145 55.882 21.0991C55.843 21.0837 55.8008 21.0777 55.759 21.0818C55.725 21.0798 55.6911 21.0854 55.6596 21.098C55.628 21.1107 55.5997 21.1301 55.5765 21.1549C55.5289 21.2154 55.5056 21.2915 55.5112 21.3683L55.5099 21.3681Z" fill="white"/>
<path d="M56.1302 20.3165C55.8802 20.3327 55.6323 20.2618 55.4287 20.1159C55.3459 20.046 55.2806 19.9578 55.2378 19.8583C55.195 19.7588 55.1759 19.6507 55.182 19.5425C55.1792 19.4249 55.2025 19.3081 55.2503 19.2006C55.2936 19.1051 55.3603 19.022 55.4442 18.959C55.5331 18.8909 55.6351 18.8419 55.7439 18.8151C55.8707 18.783 56.0011 18.7674 56.1318 18.7687C56.3825 18.7522 56.6312 18.8235 56.835 18.9705C56.9178 19.0401 56.9832 19.128 57.026 19.2273C57.0688 19.3266 57.0878 19.4346 57.0815 19.5425C57.0845 19.6608 57.0616 19.7784 57.0146 19.887C56.9712 19.9821 56.905 20.0651 56.8219 20.1286C56.7321 20.1951 56.6304 20.2435 56.5222 20.2712C56.395 20.304 56.264 20.32 56.1326 20.3189L56.1302 20.3165ZM56.1302 19.9413C56.2155 19.942 56.3007 19.9343 56.3846 19.9183C56.4545 19.9054 56.5219 19.8811 56.5839 19.8464C56.6368 19.8163 56.6818 19.774 56.715 19.7231C56.7581 19.645 56.7715 19.5541 56.7528 19.467C56.7342 19.3798 56.6847 19.3023 56.6135 19.2488C56.466 19.1678 56.298 19.1316 56.1302 19.1448C56.0475 19.1446 55.9649 19.1519 55.8836 19.1666C55.8133 19.18 55.7454 19.2034 55.6818 19.2361C55.6274 19.2655 55.5811 19.3079 55.547 19.3594C55.5141 19.4154 55.4976 19.4795 55.4993 19.5443C55.4973 19.6026 55.5103 19.6604 55.5371 19.7121C55.5639 19.7639 55.6035 19.8078 55.6522 19.8398C55.7978 19.9198 55.9634 19.9559 56.129 19.9438L56.1302 19.9413Z" fill="white"/>
<path d="M58.6488 18.8731H58.357V19.6458H58.2428V18.8731H57.9551V18.7703H58.6505L58.6488 18.8731Z" fill="white"/>
<path d="M59.699 19.6457H59.5888V18.9129L59.3344 19.6457H59.2304L58.9807 18.9002L58.9782 19.6457H58.8652V18.7703H59.0384L59.2467 19.3897C59.2467 19.3897 59.2558 19.4156 59.2697 19.4629C59.2775 19.4815 59.2832 19.5009 59.2865 19.5208L59.3354 19.3791L59.545 18.7701H59.6992L59.699 19.6457Z" fill="white"/>
<path d="M30.6438 18.7692H36.3567V20.0929H32.353V21.9665H36.0366V23.2891H32.353V25.4109H36.4772V26.7339H30.6438V18.7692Z" fill="white"/>
<path d="M42.7328 26.7339L39.8091 21.438L39.7873 21.461V26.7342H38.1885V18.7692H40.3046L43.2118 23.9729L43.2349 23.9512V18.7692H44.8323V26.7339H42.7328Z" fill="white"/>
<path d="M49.3667 18.7692H46.6543V26.7347H49.3667C51.8511 26.7565 53.3943 25.5202 53.3943 22.7519C53.3943 19.9836 51.8511 18.7457 49.3667 18.7704M49.2487 25.4109H48.3664V20.1544H49.2508C51.2789 20.1315 51.5779 21.482 51.5779 22.7507C51.5779 24.0193 51.2784 25.434 49.2506 25.4097" fill="white"/>
<path d="M14.5864 18.7692H21.039V20.0929H18.6674V26.7339H16.9578V20.0929H14.5864V18.7692Z" fill="white"/>
<path d="M27.5995 23.3626C28.047 23.1966 28.4328 22.8972 28.7047 22.5049C28.9767 22.1125 29.1216 21.6462 29.12 21.1688C29.1199 21.0509 29.1112 20.9332 29.0941 20.8166C29.0457 20.4631 28.9146 20.1261 28.7116 19.8327C28.5086 19.5393 28.2394 19.2979 27.9257 19.1279C27.8484 19.079 27.3475 18.7692 25.8667 18.7692H22.4006V26.7351H24.1087V23.5706H25.9173C26.3979 24.5994 26.8189 25.655 27.1782 26.7322H29.2792L27.6031 23.3622L27.5995 23.3626ZM24.1062 20.12H26.124C26.8013 20.1303 27.2257 20.3744 27.3015 20.942V20.9523C27.3039 20.9715 27.3052 20.9933 27.3068 21.0114C27.3085 21.0295 27.3093 21.0525 27.3105 21.0706V21.1458C27.3039 21.8371 26.8646 22.2049 26.1228 22.2144H24.105V20.1213L24.1062 20.12Z" fill="white"/>
</g>
</g>
</svg>
