<svg width="60" height="45" viewBox="0 0 60 45" fill="none" xmlns="http://www.w3.org/2000/svg">
<mask id="mask0_131_7552" style="mask-type:luminance" maskUnits="userSpaceOnUse" x="0" y="0" width="61" height="45">
<path d="M60.0052 0H0.515381V44.6173H60.0052V0Z" fill="white"/>
</mask>
<g mask="url(#mask0_131_7552)">
<path fill-rule="evenodd" clip-rule="evenodd" d="M34.7641 16.4731C34.7641 17.4819 35.6168 18.3186 36.6698 18.3186C37.6978 18.3186 38.5505 17.5055 38.5505 16.4721C38.5505 15.4388 37.724 14.6021 36.6698 14.6021C35.6158 14.6021 34.7641 15.4644 34.7641 16.4731ZM51.8578 16.4731C51.8578 17.4819 52.7105 18.3186 53.7635 18.3186C54.7915 18.3186 55.644 17.5055 55.644 16.4721C55.644 15.4388 54.8165 14.6021 53.7635 14.6021C52.7105 14.6021 51.8578 15.4644 51.8578 16.4731ZM38.2969 19.6172H35.0178V29.9006H38.2969V19.6172ZM50.3226 15.0568H41.0385V29.9016H44.3176V24.2935H49.3698V21.4874H44.3176V17.8629H50.3226V15.0568ZM55.3905 19.6172H52.1114V29.9006H55.3905V19.6172ZM15.933 21.4874V19.6142H17.8387V21.4843H19.7432V22.0762C19.7432 22.7614 19.6837 23.5725 19.5471 24.2105C19.4708 24.5669 19.355 24.9213 19.2194 25.2613C19.0805 25.6085 18.9198 25.9413 18.7455 26.2404C18.518 26.6296 18.254 27.0043 17.9482 27.3556L17.9244 27.3832C17.8449 27.4752 17.7663 27.5663 17.68 27.6547C17.5871 27.753 17.4901 27.8451 17.3919 27.9374C16.173 29.0895 14.5835 29.8084 12.9231 29.9744C12.7238 29.9948 12.322 30.0153 12.1216 30.0153C11.9212 30.0143 11.5195 29.9938 11.3201 29.9744C9.65866 29.8084 8.07026 29.0895 6.8513 27.9374L6.85025 27.9364C6.75251 27.8435 6.65581 27.7517 6.56325 27.6547C6.47692 27.5663 6.39834 27.4752 6.3189 27.3833L6.29505 27.3556C5.98926 27.0043 5.72522 26.6306 5.49771 26.2404C5.32342 25.9424 5.1627 25.6095 5.0239 25.2613C4.88823 24.9213 4.77239 24.5669 4.6962 24.2105C4.55949 23.5725 4.5 22.7614 4.5 22.0762V15.0568H8.3082V21.4874C8.3082 21.4874 8.3082 21.98 8.31446 22.1418L8.31562 22.1727C8.32353 22.3841 8.33123 22.5901 8.35412 22.7962C8.41674 23.3738 8.54719 23.9217 8.8154 24.3846C8.89264 24.5188 8.97195 24.6489 9.06588 24.7717C9.63882 25.5214 10.5113 26.0847 11.5988 26.2414C11.7282 26.2598 11.9901 26.2762 12.1206 26.2762C12.2521 26.2762 12.513 26.2598 12.6424 26.2414C13.7298 26.0847 14.6023 25.5214 15.1753 24.7717C15.2692 24.6478 15.3485 24.5188 15.4258 24.3846C15.694 23.9207 15.8244 23.3738 15.887 22.7962C15.9099 22.5902 15.9176 22.3841 15.9256 22.1727L15.9267 22.1418C15.933 21.98 15.933 21.4874 15.933 21.4874ZM17.8365 16.3431H16.4078V17.7452H17.8365V16.3431ZM18.3134 14.9401H19.2663V15.8751H18.3134V14.9401ZM19.7422 19.6142H17.8375V18.7949L17.8365 17.7452L19.7422 17.7452V19.6142ZM32.2762 29.9016H29.019V23.8561C29.019 23.8561 29.019 23.6441 29.0158 23.5745C29.0128 23.4792 29.0097 23.386 28.9992 23.2929C28.9721 23.044 28.9168 22.8084 28.8009 22.6098C28.7676 22.5524 28.7341 22.4971 28.6934 22.4438C28.4472 22.1212 28.0724 21.8795 27.6049 21.812C27.5496 21.8038 27.4369 21.7966 27.3806 21.7966C27.3241 21.7966 27.2115 21.8038 27.1562 21.812C26.6886 21.8795 26.314 22.1212 26.0676 22.4438C26.027 22.4961 25.9935 22.5524 25.9601 22.6098C25.8443 22.8095 25.789 23.045 25.7619 23.2929C25.7525 23.386 25.7483 23.4792 25.7452 23.5745C25.742 23.6441 25.742 23.8561 25.742 23.8561V29.8904H22.4849V19.607H25.6231V20.542C25.6231 20.542 26.7407 19.1769 28.97 19.2731C30.9738 19.3602 32.2762 20.8687 32.2762 22.919V29.9016Z" fill="white"/>
</g>
</svg>
