<svg width="61" height="45" viewBox="0 0 61 45" fill="none" xmlns="http://www.w3.org/2000/svg">
<mask id="mask0_131_7605" style="mask-type:luminance" maskUnits="userSpaceOnUse" x="0" y="0" width="61" height="45">
<path d="M60.1377 0H0.647949V44.6173H60.1377V0Z" fill="white"/>
</mask>
<g mask="url(#mask0_131_7605)">
<mask id="mask1_131_7605" style="mask-type:luminance" maskUnits="userSpaceOnUse" x="0" y="18" width="61" height="10">
<path d="M60.1377 18.8278H0.647949V27.8188H60.1377V18.8278Z" fill="white"/>
</mask>
<g mask="url(#mask1_131_7605)">
<path d="M20.2081 18.8278C20.4529 18.8917 20.7008 18.9459 20.9418 19.0213C21.9821 19.3484 22.8896 20.3044 22.9053 21.5477C22.9269 23.243 22.9218 24.9387 22.8988 26.6339C22.889 27.353 22.3565 27.804 21.6286 27.7906C20.9518 27.7778 20.4614 27.2847 20.4561 26.5777C20.4458 25.1994 20.4542 23.8211 20.447 22.4428C20.4472 22.2503 20.4221 22.0585 20.3723 21.8724C20.1903 21.2165 19.6447 20.9471 19.0682 20.9748C18.3115 21.0112 17.8203 21.446 17.7703 22.1142C17.7329 22.6148 17.7395 23.119 17.7359 23.6216C17.729 24.6127 17.7413 25.604 17.7214 26.5948C17.7067 27.3295 17.1915 27.8005 16.461 27.7909C15.7702 27.782 15.2811 27.2946 15.2748 26.5704C15.2628 25.1999 15.2724 23.8292 15.2632 22.4587C15.2658 22.2428 15.2357 22.0276 15.1738 21.8207C14.9656 21.1804 14.4314 20.9473 13.8775 20.9752C13.1499 21.0124 12.6684 21.4333 12.5888 22.0511C12.5648 22.2348 12.5523 22.4197 12.5514 22.6049C12.5481 23.8594 12.5593 25.1139 12.5421 26.3682C12.541 26.6443 12.4847 26.9175 12.3764 27.1716C12.149 27.6765 11.5706 27.9042 10.9931 27.771C10.7429 27.7081 10.5201 27.5652 10.3585 27.364C10.1969 27.1629 10.1055 26.9145 10.098 26.6566C10.079 25.7819 10.085 24.9068 10.0831 24.0319C10.0812 23.2343 10.0831 22.4368 10.0822 21.6392C10.0836 21.5541 10.0801 21.469 10.0717 21.3843C10.0471 21.1783 9.93914 21.0357 9.72715 21.0027C9.51515 20.9696 9.37099 21.0705 9.28318 21.2615C9.04427 21.7808 8.8045 22.2998 8.56387 22.8183C8.01965 23.9966 7.48196 25.1777 6.92743 26.351C6.77903 26.657 6.606 26.9504 6.41004 27.2284C5.87817 27.9977 4.50574 28.0032 3.94767 27.1974C3.78642 26.9704 3.64449 26.7303 3.52337 26.4797C2.60059 24.5058 1.68341 22.5295 0.771807 20.5505C0.447053 19.8448 0.783926 19.119 1.51354 18.9065C1.60128 18.881 1.68855 18.8539 1.77613 18.8278H1.96278C1.98135 18.8414 1.99843 18.8643 2.01857 18.8672C2.53557 18.9459 2.8257 19.273 3.01794 19.7319C3.6861 21.325 4.36354 22.9144 5.03776 24.5048C5.07136 24.5841 5.1133 24.6597 5.17547 24.7857C5.24424 24.6358 5.29028 24.5409 5.33183 24.444C5.87581 23.1751 6.4109 21.9021 6.96599 20.6377C7.32702 19.8154 7.90083 19.2038 8.80025 18.9551C8.9766 18.9065 9.1568 18.8699 9.33535 18.8278H9.94197C9.97313 18.8496 10.0073 18.8666 10.0435 18.8784C10.7614 18.992 11.4154 19.3574 11.8884 19.9093C11.9166 19.9349 11.9475 19.9574 11.9804 19.9765C12.0375 19.9319 12.0863 19.8949 12.1337 19.8563C12.613 19.4493 13.17 19.1442 13.771 18.9595C13.9399 18.9108 14.1118 18.8714 14.2818 18.8278H14.9822C15.0369 18.8524 15.0941 18.8712 15.1528 18.8838C15.8474 18.9611 16.4489 19.2291 16.9326 19.7406C17.0057 19.8179 17.0796 19.8944 17.1598 19.9781C17.207 19.9423 17.2455 19.9176 17.279 19.8877C17.8186 19.3933 18.4832 19.0558 19.2007 18.9119C19.3197 18.8883 19.4368 18.8563 19.5548 18.8281L20.2081 18.8278Z" fill="white"/>
<path d="M29.7757 21.0533C29.5696 21.6333 29.3636 22.2133 29.1575 22.7933C28.6458 24.2399 28.1343 25.6866 27.6231 27.1333C27.4779 27.5425 27.2931 27.6952 26.9534 27.7004C26.5737 27.7062 26.3405 27.543 26.1941 27.1397C25.3242 24.7475 24.4569 22.3544 23.5919 19.9602C23.5118 19.7388 23.4616 19.5092 23.6077 19.293C23.672 19.1948 23.7634 19.1174 23.8707 19.0699C23.978 19.0225 24.0968 19.007 24.2127 19.0254C24.3258 19.0348 24.4337 19.0772 24.523 19.1474C24.6123 19.2175 24.679 19.3123 24.7149 19.4201C24.839 19.7269 24.9415 20.043 25.0504 20.3565C25.6454 22.0673 26.2403 23.7785 26.8352 25.4901C26.86 25.5614 26.8947 25.6293 26.9475 25.7508C27.0025 25.6213 27.0443 25.5378 27.0749 25.4505C27.7442 23.5357 28.4128 21.6209 29.0807 19.7061C29.1112 19.6187 29.1405 19.5309 29.1757 19.4454C29.2855 19.1801 29.4624 19.0223 29.7738 19.0191C30.0955 19.0159 30.3167 19.1476 30.426 19.44C30.6018 19.9092 30.7632 20.3837 30.9276 20.857C31.4612 22.3938 31.9943 23.9309 32.5268 25.4683C32.5541 25.547 32.5897 25.623 32.6434 25.7539C32.6995 25.623 32.7412 25.5392 32.7721 25.4517C33.4704 23.4736 34.1681 21.4953 34.8653 19.5168C34.9912 19.1605 35.1564 19.0264 35.456 19.0251C35.8809 19.0234 36.1602 19.3695 36.0243 19.7701C35.7543 20.5659 35.4631 21.3547 35.1777 22.1453C34.5859 23.7845 33.9927 25.4233 33.3982 27.0617C33.2775 27.3937 33.1164 27.6901 32.6963 27.7015C32.3247 27.7116 32.1219 27.5647 31.9813 27.1669C31.6682 26.2796 31.3573 25.3916 31.0486 24.5027C30.6727 23.4252 30.2972 22.3474 29.922 21.2695C29.8973 21.1987 29.8629 21.1315 29.8329 21.0626L29.7761 21.0539" fill="white"/>
<path d="M42.431 26.3923C42.3241 26.5072 42.2331 26.6126 42.1344 26.7099C41.2352 27.5971 40.148 27.9228 38.9023 27.7905C38.198 27.7156 37.5572 27.488 37.0112 27.0342C36.3824 26.5115 36.1264 25.8268 36.1577 25.0204C36.2132 23.5853 37.247 22.8241 38.4745 22.562C39.7209 22.2958 40.9553 22.4189 42.1798 22.7197C42.2543 22.7381 42.3293 22.7563 42.4645 22.7895C42.45 22.4973 42.4634 22.2222 42.4183 21.9568C42.2408 20.9115 41.5026 20.2699 40.4345 20.1557C39.577 20.0499 38.7066 20.1654 37.9064 20.4912C37.5939 20.6208 37.2806 20.4959 37.1648 20.2172C37.0413 19.9198 37.1657 19.6728 37.5061 19.5176C38.3971 19.1115 39.3387 19.0291 40.3025 19.0612C40.9306 19.0824 41.5366 19.1868 42.0953 19.4842C43.0571 19.996 43.5655 20.8354 43.6061 21.8842C43.6729 23.6082 43.6525 25.3357 43.6597 27.062C43.6617 27.5248 43.4307 27.7554 43.0243 27.7434C42.9524 27.7456 42.8808 27.733 42.8139 27.7064C42.747 27.6798 42.6863 27.6398 42.6355 27.5888C42.5847 27.5378 42.5449 27.477 42.5185 27.4101C42.4922 27.3431 42.4798 27.2715 42.4822 27.1996C42.4749 26.9521 42.477 26.7044 42.4734 26.4567C42.4734 26.4449 42.4585 26.4331 42.4313 26.3926M42.4775 24.227C42.4714 24.142 42.4721 24.0566 42.4797 23.9718C42.5191 23.7363 42.4084 23.6374 42.1867 23.6019C41.6678 23.5193 41.1538 23.3912 40.6322 23.3448C39.8891 23.2787 39.1403 23.2706 38.4354 23.5869C37.7734 23.8839 37.3928 24.3795 37.3957 25.1194C37.3986 25.8639 37.801 26.347 38.4599 26.637C39.0645 26.9032 39.7001 26.9077 40.3311 26.7774C41.4426 26.5479 42.5622 25.778 42.4775 24.2268" fill="white"/>
<path d="M51.2302 23.8332C51.2987 24.5702 51.5214 25.2077 51.985 25.7454C53.0099 26.9331 54.8876 27.096 56.2264 26.1189C56.3829 26.0048 56.5277 25.875 56.6828 25.7591C56.9416 25.5669 57.1948 25.5873 57.3871 25.8083C57.5794 26.0294 57.576 26.2904 57.35 26.5139C56.6641 27.1929 55.8533 27.6217 54.8813 27.7422C53.9821 27.8537 53.1149 27.7721 52.3016 27.3581C51.1125 26.7528 50.3937 25.7764 50.1168 24.4859C49.8229 23.1163 50.023 21.8192 50.8461 20.6674C51.7426 19.4132 52.9998 18.8609 54.5264 19.0518C56.2267 19.2643 57.2371 20.3151 57.7027 21.9075C57.8265 22.3311 57.8589 22.786 57.8915 23.2295C57.9191 23.6016 57.6639 23.8321 57.2849 23.8324C55.3723 23.8337 53.4598 23.834 51.5473 23.8331H51.2298M56.6909 22.9498C56.5735 21.8571 56.2397 20.9039 55.243 20.3505C54.3425 19.8509 53.4174 19.8937 52.5603 20.4731C51.6988 21.0554 51.3337 21.9251 51.2143 22.9499L56.6909 22.9498Z" fill="white"/>
<path d="M46.476 21.0474C46.5108 20.9923 46.5482 20.9389 46.5799 20.8821C47.1464 19.8686 47.9957 19.2415 49.1467 19.0397C49.4095 18.9936 49.6836 18.9956 49.8723 19.2364C49.9494 19.3294 49.9984 19.4425 50.0134 19.5624C50.0284 19.6823 50.0088 19.804 49.957 19.9131C49.8407 20.1843 49.5908 20.259 49.3332 20.2929C47.8932 20.4827 46.7958 21.5362 46.5202 23.1026C46.452 23.56 46.4195 24.0221 46.4231 24.4846C46.4085 25.3201 46.4213 26.156 46.418 26.9917C46.4161 27.4495 46.1714 27.7126 45.7733 27.6983C45.4271 27.6858 45.1887 27.4416 45.1874 27.0811C45.1841 26.2067 45.1866 25.3322 45.1867 24.4578C45.1871 22.8714 45.1876 21.285 45.1883 19.6986C45.1887 19.2902 45.4277 19.0213 45.7871 19.0161C45.8705 19.0108 45.9541 19.0232 46.0325 19.0525C46.1108 19.0817 46.1821 19.1272 46.2417 19.1858C46.3013 19.2445 46.3478 19.3151 46.3783 19.3929C46.4088 19.4708 46.4225 19.5542 46.4186 19.6377C46.4233 20.1013 46.4197 20.5649 46.4197 21.0286L46.4761 21.0478" fill="white"/>
<path d="M58.0638 20.067C58.0618 19.9315 58.0866 19.7969 58.137 19.6711C58.1873 19.5452 58.2621 19.4306 58.3571 19.3339C58.452 19.2372 58.5652 19.1603 58.6901 19.1076C58.815 19.055 58.9491 19.0277 59.0847 19.0272C59.3587 19.0265 59.6221 19.1329 59.8188 19.3236C60.0155 19.5143 60.13 19.7743 60.1378 20.0482C60.1447 20.6086 59.6476 21.0965 59.0765 21.0899C58.9428 21.0896 58.8104 21.0628 58.687 21.0112C58.5636 20.9595 58.4517 20.884 58.3576 20.7889C58.2635 20.6939 58.1891 20.5811 58.1388 20.4572C58.0884 20.3333 58.063 20.2007 58.064 20.067M59.0843 20.9326C59.3177 20.9333 59.5418 20.8414 59.7074 20.6769C59.8729 20.5125 59.9664 20.289 59.9672 20.0556C59.9679 19.8222 59.876 19.5981 59.7115 19.4325C59.5471 19.267 59.3236 19.1735 59.0902 19.1727C58.9724 19.172 58.8556 19.1945 58.7465 19.239C58.6374 19.2834 58.5381 19.3489 58.4544 19.4318C58.3706 19.5146 58.304 19.6131 58.2583 19.7217C58.2127 19.8303 58.1889 19.9469 58.1883 20.0647C58.19 20.1805 58.2146 20.2949 58.2606 20.4013C58.3066 20.5076 58.3731 20.6038 58.4563 20.6844C58.5396 20.7651 58.6379 20.8285 58.7457 20.871C58.8534 20.9136 58.9684 20.9345 59.0843 20.9326Z" fill="white"/>
<path d="M59.3473 20.1523L59.5047 20.4518L59.4288 20.5117C59.3541 20.4284 59.2744 20.3497 59.19 20.2762C59.1292 20.2245 59.0542 20.1923 58.9748 20.1838C58.9457 20.1831 58.9165 20.3004 58.8822 20.3612C58.8566 20.4067 58.8227 20.4477 58.7926 20.4907C58.7609 20.4459 58.7374 20.3959 58.7231 20.343C58.7124 20.2117 58.712 20.0799 58.7216 19.9485C58.7319 19.8161 58.7295 19.5898 58.7866 19.5717C58.9572 19.5225 59.138 19.5197 59.3101 19.5638C59.572 19.63 59.5828 19.893 59.3471 20.1523M59.1362 19.6517C58.9605 19.6825 58.8788 19.7068 58.8812 19.8637C58.8835 20.0079 58.9509 20.0769 59.0779 20.0389C59.1711 20.0111 59.2472 19.9267 59.3309 19.8675L59.1363 19.6517" fill="white"/>
</g>
</g>
</svg>
