<svg xmlns="http://www.w3.org/2000/svg" width="50" height="50" viewBox="0 0 50 50">
  <g id="icon_Expert" transform="translate(0 -0.172)">
    <circle id="Ellipse_13" data-name="Ellipse 13" cx="25" cy="25" r="25" transform="translate(0 0.172)" fill="#f5f7fb"/>
    <g id="Layer_4" transform="translate(0.278 3.99)">
      <g id="Group_18271" data-name="Group 18271" transform="translate(13.28 8)">
        <path id="Path_17673" data-name="Path 17673" d="M35.89,31.157a1.128,1.128,0,0,0,.143-1.268l-3.409-7.022a9.531,9.531,0,1,0-15.8-.013l-3.413,7.031a1.129,1.129,0,0,0,.141,1.272,1.231,1.231,0,0,0,1.34.3l2.626-.919c.046.057,1.1,3.011,1.1,3.011a1.236,1.236,0,0,0,1.11.812l.073,0a1.281,1.281,0,0,0,1.149-.71l3.2-6.62c.193.012.386.03.582.03s.379-.017.567-.029l3.2,6.627a1.278,1.278,0,0,0,1.145.7l.073,0a1.24,1.24,0,0,0,1.114-.822l.982-2.808a.707.707,0,0,1,.114-.192l2.624.918a1.232,1.232,0,0,0,1.343-.3ZM19.819,33.02l-.948-2.71a1.837,1.837,0,0,0-.848-1.015.992.992,0,0,0-.758-.052l-2.515.878,2.98-6.14a9.522,9.522,0,0,0,5.05,2.881Zm4.911-7.264a8.225,8.225,0,1,1,8.225-8.225,8.234,8.234,0,0,1-8.225,8.225ZM31.42,29.3a1.833,1.833,0,0,0-.846,1.009l-.944,2.7-2.964-6.14a9.521,9.521,0,0,0,5.052-2.873l2.976,6.132-2.51-.878a.982.982,0,0,0-.765.049Z" transform="translate(-13.28 -8)"/>
        <path id="Path_17674" data-name="Path 17674" d="M8.653,4.458,7,3.131l.628-1.9A.927.927,0,0,0,7.5.392.959.959,0,0,0,6.183.178L4.513,1.388,2.846.172A.958.958,0,0,0,1.53.387a.929.929,0,0,0-.131.844L2.048,3.2.4,4.439A1.03,1.03,0,0,0,.056,5.608a.941.941,0,0,0,.884.7h2.1l.583,1.65a.993.993,0,0,0,.945.692A.869.869,0,0,0,5.4,8.043l.588-1.737h2.1a.942.942,0,0,0,.885-.7A1.023,1.023,0,0,0,8.653,4.458Zm-.628.857-2.176,0a.7.7,0,0,0-.732.485L4.526,7.545,3.91,5.8a.7.7,0,0,0-.733-.491L1,5.315A.39.39,0,0,1,.984,5.24L2.632,4a.991.991,0,0,0,.352-1.1L2.358,1.044l1.6,1.169a.954.954,0,0,0,1.1,0L6.633,1.076,6.045,2.854A.922.922,0,0,0,6.37,3.9L8.032,5.222A.169.169,0,0,1,8.025,5.315Z" transform="matrix(0.809, 0.588, -0.588, 0.809, 10.309, 3.716)" fill="#1973e8"/>
      </g>
    </g>
  </g>
</svg>
