<svg id="icon_check_blue" xmlns="http://www.w3.org/2000/svg" width="16" height="16" viewBox="0 0 16 16">
  <path id="check_circle_FILL1_wght400_GRAD200_opsz24" d="M54.963,153.037,53.5,151.574a.969.969,0,0,0-1.37,1.37l2.148,2.148a.932.932,0,0,0,.683.3.943.943,0,0,0,.687-.3l4.259-4.259a.969.969,0,0,0-1.37-1.37ZM56,160a7.79,7.79,0,0,1-3.12-.63,7.987,7.987,0,0,1-4.25-4.25,8.056,8.056,0,0,1,0-6.249,8.1,8.1,0,0,1,1.713-2.547A7.991,7.991,0,0,1,64,152a7.862,7.862,0,0,1-.62,3.119,7.962,7.962,0,0,1-1.7,2.536,8.1,8.1,0,0,1-2.547,1.713A7.82,7.82,0,0,1,56,160Z" transform="translate(-48 -144)" fill="#1a73e8"/>
</svg>
