<svg id="icon_secure_pay" xmlns="http://www.w3.org/2000/svg" width="50" height="50" viewBox="0 0 50 50">
  <defs>
    <style>
      .cls-1 {
        fill: #f7f7f7;
      }

      .cls-2 {
        fill: #222;
      }

      .cls-3 {
        fill: #1a73e8;
      }
    </style>
  </defs>
  <circle id="Ellipse_13" data-name="Ellipse 13" class="cls-1" cx="25" cy="25" r="25"/>
  <g id="credit-card" transform="translate(11.156 -19.098)">
    <g id="Group_15992" data-name="Group 15992" transform="translate(0 37.163)">
      <g id="Group_15991" data-name="Group 15991" transform="translate(0 0)">
        <path id="Path_17634" data-name="Path 17634" class="cls-2" d="M26.659,138.315a.86.86,0,0,0-.86.86v6.02H1.72V134.876h9.46a.86.86,0,1,0,0-1.72H1.72v-3.44h9.46a.86.86,0,1,0,0-1.72H1.72A1.721,1.721,0,0,0,0,129.716V145.2a1.721,1.721,0,0,0,1.72,1.72H25.8a1.721,1.721,0,0,0,1.72-1.72v-6.02A.86.86,0,0,0,26.659,138.315Z" transform="translate(0 -127.996)"/>
      </g>
    </g>
    <g id="Group_15994" data-name="Group 15994" transform="translate(3.44 47.483)">
      <g id="Group_15993" data-name="Group 15993">
        <path id="Path_17635" data-name="Path 17635" d="M68.3,320H64.86a.86.86,0,0,0,0,1.72H68.3a.86.86,0,0,0,0-1.72Z" transform="translate(-64 -319.996)"/>
      </g>
    </g>
    <path id="Union_2" data-name="Union 2" class="cls-3" d="M6.911,17.086C1.873,14.379,0,11.611,0,6.879V3.442a.865.865,0,0,1,.556-.791L7.007.07a.978.978,0,0,1,.727,0l6.449,2.581a.858.858,0,0,1,.556.791V6.879c0,4.74-1.873,7.5-6.911,10.206a.98.98,0,0,1-.916,0ZM1.842,4.006V6.879c0,3.969,1.409,6.152,5.525,8.461,4.12-2.3,5.529-4.488,5.529-8.461V4.006L7.367,1.795Zm4.569,7.175A.955.955,0,0,1,5.68,10.8L3.837,8.219a.833.833,0,0,1,.256-1.193.963.963,0,0,1,1.279.239l1.149,1.6,2.893-3.38a.975.975,0,0,1,1.3-.134.825.825,0,0,1,.144,1.209l-3.687,4.3a.938.938,0,0,1-.716.325Z" transform="translate(13.757 32.003)"/>
  </g>
</svg>
