<svg id="icon_best_price" xmlns="http://www.w3.org/2000/svg" width="50" height="50" viewBox="0 0 50 50">
  <defs>
    <style>
      .cls-1 {
        fill: #f7f7f7;
      }

      .cls-2 {
        fill: #222;
      }

      .cls-3 {
        fill: #1a73e8;
      }
    </style>
  </defs>
  <circle id="Ellipse_13" data-name="Ellipse 13" class="cls-1" cx="25" cy="25" r="25"/>
  <g id="like" transform="translate(-18 10)">
    <g id="Group_15996" data-name="Group 15996" transform="translate(31 5.037)">
      <g id="Group_15995" data-name="Group 15995">
        <path id="Path_17638" data-name="Path 17638" class="cls-2" d="M55.274,103.51a2.49,2.49,0,0,0-1.855-4.152H48.584a16.1,16.1,0,0,0,.683-4.208v-.83A3.325,3.325,0,0,0,45.946,91h-.83a.83.83,0,0,0-.805.629l-.452,1.81c-.634,2.534-2.646,5.33-4.729,5.838A2.494,2.494,0,0,0,36.812,97.7H31.83a.831.831,0,0,0-.83.83v14.946a.831.831,0,0,0,.83.83h4.982a2.494,2.494,0,0,0,2.249-1.42l2.853.951a9.114,9.114,0,0,0,2.888.469h6.956a2.492,2.492,0,0,0,2.316-3.409,2.49,2.49,0,0,0,1.2-4.064,2.486,2.486,0,0,0,0-3.321Zm-17.631,8.3a.831.831,0,0,1-.83.83H32.661V99.359h4.152a.831.831,0,0,1,.83.83Zm14.116-7.473h1.661a.83.83,0,0,1,0,1.661H51.758a.83.83,0,1,0,0,1.661h1.661a.83.83,0,0,1,0,1.661H51.758a.83.83,0,0,0,0,1.661.83.83,0,0,1,0,1.661H44.8a7.457,7.457,0,0,1-2.364-.384L39.3,111.215V100.941a6.691,6.691,0,0,0,3.728-2.422,12.116,12.116,0,0,0,2.437-4.677l.3-1.181h.182a1.663,1.663,0,0,1,1.661,1.661v.83a13.139,13.139,0,0,1-.795,4.208h-1.7a.83.83,0,1,0,0,1.661h8.3a.83.83,0,1,1,0,1.661H51.758a.83.83,0,0,0,0,1.661Z" transform="translate(-31 -91)"/>
      </g>
    </g>
    <g id="Group_15998" data-name="Group 15998" transform="translate(34.663 23.696)">
      <g id="Group_15997" data-name="Group 15997" transform="translate(0 0)">
        <circle id="Ellipse_138" data-name="Ellipse 138" cx="0.5" cy="0.5" r="0.5" transform="translate(0.336 0.304)"/>
      </g>
    </g>
    <path id="Union_3" data-name="Union 3" class="cls-3" d="M-16708.363-648.162a.831.831,0,0,1,0-1.175l1.174-1.175a.832.832,0,0,1,1.174,0,.824.824,0,0,1,0,1.175l-1.174,1.175a.834.834,0,0,1-.588.243A.843.843,0,0,1-16708.363-648.162Zm-8.221,0-1.174-1.175a.831.831,0,0,1,0-1.175.832.832,0,0,1,1.174,0l1.176,1.175a.835.835,0,0,1,0,1.175.834.834,0,0,1-.588.243A.84.84,0,0,1-16716.584-648.162Zm3.869-2.291v-1.716a.829.829,0,0,1,.826-.831.83.83,0,0,1,.83.831v1.716a.83.83,0,0,1-.83.831A.829.829,0,0,1-16712.715-650.453Z" transform="translate(16758.662 653)"/>
  </g>
</svg>
