<svg xmlns="http://www.w3.org/2000/svg" width="20" height="21" viewBox="0 0 20 21">
    <g fill="none" fill-rule="evenodd">
        <g fill="#E5E5E5">
            <g>
                <g>
                    <g>
                        <g>
                            <path d="M15.987 7.288c-.232-.238-.338-.581-.283-.918l.871-5.342c.068-.423 0-.726-.33-.98-.186-.142-.409-.215-.63-.215-.171 0-.342.043-.5.13l-4.657 2.641c-.287.159-.63.159-.917 0L5.08-.036c-.362-.201-.8-.167-1.13.085-.33.253-.594.556-.524.98L4.492 6.48c.055.337-.05.68-.283.918L.325 10.614c-.294.3-.398.748-.273 1.157.127.409.462.706.866.768l5.053.933c.32.05.598.261.742.567l2.326 5.165c.18.385.553.63.961.63.41 0 .78-.244.962-.63l2.235-5.165c.144-.306.421-.518.742-.567l5.144-.933c.403-.061.74-.36.865-.768.126-.409.02-.857-.272-1.157l-3.689-3.326z" transform="translate(-238 -3815) translate(0 3750) translate(136 50) translate(9 14.903) translate(93 .264) matrix(1 0 0 -1 0 19.667)"/>
                        </g>
                    </g>
                </g>
            </g>
        </g>
    </g>
</svg>
