<svg xmlns="http://www.w3.org/2000/svg" width="24" height="24" viewBox="0 0 24 24">
  <g id="App" transform="translate(-2408 -3784)">
    <rect id="Rectangle_10837" data-name="Rectangle 10837" width="24" height="24" transform="translate(2408 3784)" fill="none"/>
    <path id="browser" d="M14.25,1H3.75A3.754,3.754,0,0,0,0,4.75v9A3.755,3.755,0,0,0,3.75,17.5h10.5A3.755,3.755,0,0,0,18,13.75v-9A3.754,3.754,0,0,0,14.25,1ZM3.75,2.5h10.5A2.25,2.25,0,0,1,16.5,4.75V5.5H1.5V4.75A2.25,2.25,0,0,1,3.75,2.5ZM14.25,16H3.75A2.25,2.25,0,0,1,1.5,13.75V7h15v6.75A2.25,2.25,0,0,1,14.25,16Zm0-6a.75.75,0,0,1-.75.75h-9a.75.75,0,1,1,0-1.5h9A.75.75,0,0,1,14.25,10Zm-3,3a.75.75,0,0,1-.75.75h-6a.75.75,0,1,1,0-1.5h6A.75.75,0,0,1,11.25,13Zm-9-9A.75.75,0,1,1,3,4.75.75.75,0,0,1,2.25,4ZM4.5,4a.75.75,0,1,1,.75.75A.75.75,0,0,1,4.5,4ZM6.75,4a.75.75,0,1,1,.75.75A.75.75,0,0,1,6.75,4Z" transform="translate(2411 3787)" fill="#4ac067"/>
  </g>
</svg>
