<svg id="icon_support_20" xmlns="http://www.w3.org/2000/svg" width="20" height="20" viewBox="0 0 20 20">
  <defs>
    <style>
      .cls-1 {
        fill: none;
        fill-rule: evenodd;
      }

      .cls-2 {
        fill: #222;
      }
    </style>
  </defs>
  <g id="Artboard" transform="translate(-79 -855)">
    <g id="outline-local_mall-24px" transform="translate(79 855)">
      <path id="Path" class="cls-1" d="M0,0H20V20H0Z"/>
      <g id="handshake" transform="translate(1.73 -11.688)">
        <path id="Path_17531" data-name="Path 17531" class="cls-2" d="M15.061,15.332a4.737,4.737,0,0,0-6.841.17A4.722,4.722,0,1,0,1.5,22.125a1.655,1.655,0,0,0,.93,2.826,1.656,1.656,0,0,0,1.643,1.763A1.654,1.654,0,0,0,6.137,28.2a1.655,1.655,0,0,0,2.762.737c.505-.5.907-.819.932-1.579A1.657,1.657,0,0,0,11.4,25.765a1.656,1.656,0,0,0,1.59-1.59,1.657,1.657,0,0,0,1.591-1.693L15.061,22A4.723,4.723,0,0,0,15.061,15.332ZM2.223,22.892l.45-.45a.6.6,0,0,1,.844.844l-.45.45a.6.6,0,0,1-.844-.844Zm1.256,2.171a.593.593,0,0,1,.175-.422L4.1,24.19a.6.6,0,0,1,.844.844l-.4.4a.626.626,0,0,1-.475.228A.6.6,0,0,1,3.479,25.063ZM5.3,27.022a.6.6,0,0,1,0-.844l.4-.4a.6.6,0,0,1,.9-.053.6.6,0,0,1,0,.844l-.45.45a.6.6,0,0,1-.844,0Zm3.308.715-.45.45a.6.6,0,0,1-.844,0,.6.6,0,0,1,0-.844l.45-.45a.6.6,0,1,1,.844.844Zm4.749-4.789a.6.6,0,0,1-.844,0L10.163,20.6l-.745.745,2.346,2.346a.6.6,0,1,1-.844.844L8.613,22.232l-.04-.04-.745.745.04.04,2.306,2.306a.6.6,0,1,1-.844.844h0a1.652,1.652,0,0,0-1.567-.409,1.659,1.659,0,0,0-1.59-1.22,1.657,1.657,0,0,0-1.431-1.522,1.655,1.655,0,0,0-2.452-1.553,3.67,3.67,0,1,1,5.185-5.176l-1.3,1.3,1.044,1.044a2.39,2.39,0,0,0,2.959.331L13.353,22.1a.6.6,0,0,1,0,.844Zm.963-1.691-.161.161-.057-.059-3.882-3.882-.373.373a1.333,1.333,0,0,1-1.883,0l-.3-.3,1.473-1.473a3.663,3.663,0,0,1,5.18,5.18Z" transform="translate(0 0)"/>
      </g>
    </g>
  </g>
</svg>
