<svg id="icon_industry_20" xmlns="http://www.w3.org/2000/svg" width="20" height="20" viewBox="0 0 20 20">
  <defs>
    <style>
      .cls-1 {
        fill: none;
        fill-rule: evenodd;
      }

      .cls-2 {
        fill: #444;
      }
    </style>
  </defs>
  <g id="Artboard" transform="translate(-79 -350)">
    <g id="outline-location_city-24px" transform="translate(79 350)">
      <path id="Path" class="cls-1" d="M0,0H20V20H0Z"/>
      <g id="engineering_2_" data-name="engineering (2)" transform="translate(-27.611 1.803)">
        <path id="Path_17524" data-name="Path 17524" class="cls-2" d="M32.009,6.125h-.541A.469.469,0,0,0,31,6.594V8a.469.469,0,0,0,.34.451c.033.009.247.07.6.156v2.206a.469.469,0,0,0,.469.469h.665a5.094,5.094,0,0,0,.461,1.1l-.473.473a.469.469,0,0,0,0,.663l1.326,1.326a.469.469,0,0,0,.663,0l.473-.473a5.1,5.1,0,0,0,1.1.462v.7a.469.469,0,0,0,.469.469h1.875a.469.469,0,0,0,.469-.469v-.7a5.1,5.1,0,0,0,1.1-.462l.473.473a.469.469,0,0,0,.663,0L43,13.521a.469.469,0,0,0,0-.663l-.473-.473a5.094,5.094,0,0,0,.462-1.1h.665a.469.469,0,0,0,.469-.469V8.607c.351-.086.565-.147.6-.156A.469.469,0,0,0,45.062,8V6.594a.469.469,0,0,0-.469-.469h-.541a6.149,6.149,0,0,0-3.191-4.491l.195-.436a.469.469,0,0,0-.242-.622,7,7,0,0,0-5.567,0,.469.469,0,0,0-.242.622l.195.436a6.149,6.149,0,0,0-3.191,4.491Zm11.178,4.219h-.564a.469.469,0,0,0-.459.375,4.176,4.176,0,0,1-.618,1.478.469.469,0,0,0,.059.59l.4.4-.663.663-.4-.4a.469.469,0,0,0-.59-.059,4.176,4.176,0,0,1-1.478.618.469.469,0,0,0-.375.459v.595h-.938v-.595a.469.469,0,0,0-.375-.459,4.176,4.176,0,0,1-1.478-.618.469.469,0,0,0-.59.059l-.4.4-.663-.663.4-.4a.469.469,0,0,0,.059-.59,4.176,4.176,0,0,1-.618-1.478.469.469,0,0,0-.459-.375h-.564V8.819c.549.115,1.216.239,1.953.344a3.281,3.281,0,1,0,6.407,0c.736-.1,1.4-.228,1.953-.344Zm-7.5-.469a2.343,2.343,0,0,1,.076-.6,21.646,21.646,0,0,0,2.267.127A21.646,21.646,0,0,0,40.3,9.279a2.344,2.344,0,1,1-4.611.6Zm8.438-2.813v.577a26.83,26.83,0,0,1-6.094.83,26.829,26.829,0,0,1-6.094-.83V7.062Zm-8.54-4.57L36.666,4.91a.469.469,0,1,0,.856-.383L36.063,1.265a6.069,6.069,0,0,1,3.936,0L38.541,4.527a.469.469,0,0,0,.856.383l1.081-2.417A5.262,5.262,0,0,1,43.1,6.125H32.961a5.262,5.262,0,0,1,2.624-3.632Z" transform="translate(0 0)"/>
      </g>
    </g>
  </g>
</svg>
