<svg xmlns="http://www.w3.org/2000/svg" width="20" height="20" viewBox="0 0 20 20">
  <defs>
    <style>
      .cls-1 {
        fill: none;
        fill-rule: evenodd;
      }

      .cls-2 {
        fill: #444;
      }
    </style>
  </defs>
  <g id="icon_brand_20" transform="translate(-79 -350)">
    <g id="outline-location_city-24px" transform="translate(79 350)">
      <path id="Path" class="cls-1" d="M0,0H20V20H0Z"/>
      <g id="icon_brand" transform="translate(2 2)">
        <path id="loyalty_FILL0_wght400_GRAD0_opsz48" class="cls-2" d="M88.54,188.232a.541.541,0,0,0,.212-.04.586.586,0,0,0,.192-.141l2.289-2.4a1.376,1.376,0,0,0,.308-.495,1.716,1.716,0,0,0,.1-.575,1.537,1.537,0,0,0-.433-1.1,1.4,1.4,0,0,0-1.048-.454,1.358,1.358,0,0,0-.769.262,4.1,4.1,0,0,0-.846.848,4.1,4.1,0,0,0-.846-.848,1.358,1.358,0,0,0-.769-.262,1.4,1.4,0,0,0-1.048.454,1.537,1.537,0,0,0-.433,1.1,1.716,1.716,0,0,0,.1.575,1.376,1.376,0,0,0,.308.495l2.289,2.4a.586.586,0,0,0,.192.141A.541.541,0,0,0,88.54,188.232Zm-.154,3.916a1.185,1.185,0,0,1-.846-.343l-7.213-7.57a1.311,1.311,0,0,1-.25-.424,1.408,1.408,0,0,1-.077-.464v-6.136a1.208,1.208,0,0,1,.327-.868,1.094,1.094,0,0,1,.827-.343H87a1.57,1.57,0,0,1,.462.071.981.981,0,0,1,.423.272l7.174,7.529a1.241,1.241,0,0,1,0,1.8l-5.847,6.136a1.074,1.074,0,0,1-.375.252A1.18,1.18,0,0,1,88.386,192.148Zm0-1.211,5.847-6.136L87,177.211H81.154v6.136ZM83.174,180.36a.939.939,0,0,0,.7-.313,1.06,1.06,0,0,0,0-1.474.944.944,0,0,0-1.4,0,1.059,1.059,0,0,0,0,1.474A.939.939,0,0,0,83.174,180.36ZM81.154,177.211Z" transform="translate(-80 -176)"/>
      </g>
    </g>
  </g>
</svg>
