<svg id="icon_videos_20" xmlns="http://www.w3.org/2000/svg" width="20" height="20" viewBox="0 0 20 20">
  <defs>
    <style>
      .cls-1 {
        fill: none;
      }

      .cls-1, .cls-2 {
        fill-rule: evenodd;
      }

      .cls-2 {
        fill: #444;
      }
    </style>
  </defs>
  <g id="Artboard">
    <g id="outline-business_center-24px">
      <path id="Path" class="cls-1" d="M0,0H20V20H0Z"/>
      <g id="commit-git_1_" data-name="commit-git (1)" transform="translate(0.873 0.242)">
        <path id="Path_17525" data-name="Path 17525" class="cls-2" d="M3.955,6.238a2.4,2.4,0,1,0-1.108,0V12.4a2.771,2.771,0,0,0,2.771,2.771h3l-.9.9a.554.554,0,0,0,.784.784l1.847-1.847a.554.554,0,0,0,0-.784L8.5,12.376a.554.554,0,0,0-.784.784l.9.9h-3A1.662,1.662,0,0,1,3.955,12.4ZM3.4,5.194A1.293,1.293,0,1,0,2.108,3.9,1.293,1.293,0,0,0,3.4,5.194Z"/>
        <path id="Path_17526" data-name="Path 17526" class="cls-2" d="M12.918,2.446a.554.554,0,0,0-.784-.784L10.287,3.509a.554.554,0,0,0,0,.784L12.134,6.14a.554.554,0,1,0,.784-.784l-.9-.9h3a1.662,1.662,0,0,1,1.662,1.662v6.16a2.4,2.4,0,1,0,1.108,0V6.118A2.771,2.771,0,0,0,15.02,3.347h-3Zm3.025,12.169a1.293,1.293,0,1,1,1.293,1.293A1.293,1.293,0,0,1,15.944,14.615Z" transform="translate(-2.383 0)"/>
      </g>
    </g>
  </g>
</svg>
