<svg xmlns="http://www.w3.org/2000/svg" width="40" height="39.998" viewBox="0 0 40 39.998">
  <g id="default_profile_thumbnail" transform="translate(0 -0.001)">
    <path id="Path_16405" data-name="Path 16405" d="M20,0A20,20,0,1,0,40,20,20,20,0,0,0,20,0Zm0,5.98A6.615,6.615,0,1,1,13.386,12.6,6.616,6.616,0,0,1,20,5.981ZM20,34.77a14.678,14.678,0,0,1-9.558-3.525A2.819,2.819,0,0,1,9.448,29.1a6.671,6.671,0,0,1,6.7-6.67h7.7a6.662,6.662,0,0,1,6.693,6.67,2.812,2.812,0,0,1-.988,2.142A14.673,14.673,0,0,1,20,34.77Z" fill="#6b6684"/>
  </g>
</svg>
