<svg xmlns="http://www.w3.org/2000/svg" width="24.087" height="24.087" viewBox="0 0 24.087 24.087">
  <g id="green_bullt" transform="translate(0 0)">
    <path id="Path_16305" data-name="Path 16305" d="M150.614,68.57a12.044,12.044,0,1,0,12.044,12.044A12.058,12.058,0,0,0,150.614,68.57Zm5.989,9.472-6.933,6.575a1.051,1.051,0,0,1-.684.26.886.886,0,0,1-.684-.293l-3.646-3.743a.967.967,0,0,1,1.4-1.335l2.962,3.06,6.249-5.924a.967.967,0,0,1,1.335,1.4Z" transform="translate(-138.57 -68.57)" fill="
#472dc2"/>
  </g>
</svg>
