<svg xmlns="http://www.w3.org/2000/svg" width="18" height="18" viewBox="0 0 18 18">
  <defs>
    <style>
      .cls-1 {
        fill: #db515e;
      }

      .cls-2 {
        fill: #fff;
      }
    </style>
  </defs>
  <g id="icon_down" transform="translate(-505.5 -2105)">
    <g id="Group_14217" data-name="Group 14217" transform="translate(505.5 2105)">
      <circle id="Ellipse_112" data-name="Ellipse 112" class="cls-1" cx="9" cy="9" r="9"/>
      <g id="Group_14212" data-name="Group 14212" transform="translate(3.6 4.377)">
        <path id="Path_16413" data-name="Path 16413" class="cls-2" d="M249,83.587a.587.587,0,0,1,.587-.587h5.282a1.878,1.878,0,0,1,1.878,1.878V85.7l-4.463,1.33L249,85.7Z" transform="translate(-246.457 -82.296)"/>
        <path id="Path_16414" data-name="Path 16414" class="cls-2" d="M256.747,152v1.448a1.878,1.878,0,0,1-1.878,1.878h-1.077a8.4,8.4,0,0,1,.177,1.291c0,1.619-.745,2.313-1.45,2.454a.586.586,0,0,1-.668-.378l-1.2-3.341a.98.98,0,0,0-.922-.652h-.146a.587.587,0,0,1-.587-.587V152h7.747Zm-4.463,5.92h0Z" transform="translate(-246.457 -148.597)"/>
        <g id="Group_14207" data-name="Group 14207" transform="translate(0 -0.001)">
          <path id="Path_16415" data-name="Path 16415" class="cls-2" d="M427,65.587a.587.587,0,0,1,.587-.587h2.152a.587.587,0,0,1,.587.587V68.4l-1.663,1.33L427,68.4Z" transform="translate(-427 -65)"/>
        </g>
        <g id="Group_14208" data-name="Group 14208" transform="translate(0 3.403)">
          <path id="Path_16416" data-name="Path 16416" class="cls-2" d="M430.326,152v2.817a.587.587,0,0,1-.587.587h-2.152a.587.587,0,0,1-.587-.587V152Z" transform="translate(-427 -152)"/>
        </g>
      </g>
    </g>
  </g>
</svg>
