<svg xmlns="http://www.w3.org/2000/svg" width="44" height="44" viewBox="0 0 44 44">
  <defs>
    <style>
      .cls-1 {
        fill: #472dc2;
      }

      .cls-2 {
        fill: #fff;
      }
    </style>
  </defs>
  <g id="lp_icon2" transform="translate(-108 -977)">
    <circle id="Ellipse_96" data-name="Ellipse 96" class="cls-1" cx="22" cy="22" r="22" transform="translate(108 977)"/>
    <path id="Union_2" data-name="Union 2" class="cls-2" d="M-9631.829-903.313a2.69,2.69,0,0,1-.9-1.737h6.01a2.685,2.685,0,0,1-.895,1.737,3.251,3.251,0,0,1-2.115.745A3.22,3.22,0,0,1-9631.829-903.313Zm-8.29-2.86c2.843-3.414,2.922-7.916,2.922-11.627,0-3.616,3.306-6.638,7.439-6.656h.033c4.15,0,7.49,3.029,7.49,6.656,0,3.711.071,8.213,2.914,11.627Zm9.9-16.933a5.575,5.575,0,0,0-3.816,2.561,7.9,7.9,0,0,0-1.2,4.236,15.127,15.127,0,0,1-1.426,7.382.564.564,0,0,0-.01.43.55.55,0,0,0,.291.311.552.552,0,0,0,.427.012.571.571,0,0,0,.309-.3,16.538,16.538,0,0,0,1.523-7.838,6.871,6.871,0,0,1,1.026-3.623,4.389,4.389,0,0,1,3.06-2.068.562.562,0,0,0,.459-.6.559.559,0,0,0-.543-.518h-.053Z" transform="translate(9759.719 1912.512)"/>
  </g>
</svg>
