<svg xmlns="http://www.w3.org/2000/svg" width="44" height="44" viewBox="0 0 44 44">
  <defs>
    <style>
      .cls-1 {
        fill: #472dc2;
      }

      .cls-2 {
        fill: #fff;
      }
    </style>
  </defs>
  <g id="lp_icon1" transform="translate(-108 -868)">
    <circle id="Ellipse_95" data-name="Ellipse 95" class="cls-1" cx="22" cy="22" r="22" transform="translate(108 868)"/>
    <path id="Path_16291" data-name="Path 16291" class="cls-2" d="M260.545,34.778l2.1,4.164a1.166,1.166,0,0,0,2.1,0l2.1-4.164A10.625,10.625,0,1,0,253.1,24.641a10.413,10.413,0,0,0,7.445,10.137Zm2.019-5.3a1.3,1.3,0,1,1,1.3,1.3A1.31,1.31,0,0,1,262.564,29.478ZM263.7,18.542a3.884,3.884,0,0,1,3.533,2.019,3.477,3.477,0,0,1-.295,3.659,5.407,5.407,0,0,1-1.388,1.3,1.236,1.236,0,0,0-.673,1.136.628.628,0,0,1-.589.547h-.925a.585.585,0,0,1-.589-.631,3.142,3.142,0,0,1,1.556-2.734,2.76,2.76,0,0,0,.883-.841,1.35,1.35,0,0,0,.084-1.43,1.668,1.668,0,0,0-1.64-.883,1.733,1.733,0,0,0-1.893,1.514.59.59,0,0,1-.589.5h-.925a.6.6,0,0,1-.589-.673,3.968,3.968,0,0,1,4.038-3.491Z" transform="translate(-133.804 863.698)"/>
  </g>
</svg>
