<svg xmlns="http://www.w3.org/2000/svg" width="18" height="18" viewBox="0 0 18 18">
    <g transform="translate(-505.729 -2104.229)">
        <circle data-name="Ellipse 112" cx="9" cy="9" r="9" transform="translate(505.729 2104.229)" style="fill:#3dba8e"/>
        <g data-name="Group 14212">
            <path data-name="Path 16413" d="M249 86.658a.624.624 0 0 0 .624.624h5.612a2 2 0 0 0 2-2v-.873L252.49 83 249 84.413z" transform="translate(262.893 2030.287)" style="fill:#fff"/>
            <path data-name="Path 16414" d="M257.231 159.524v-1.538a2 2 0 0 0-2-2h-1.144a8.921 8.921 0 0 0 .188-1.372c0-1.72-.792-2.457-1.541-2.607a.623.623 0 0 0-.709.4l-1.271 3.55a1.041 1.041 0 0 1-.98.692h-.155a.624.624 0 0 0-.624.624v2.245h8.231zm-4.741-6.29z" transform="translate(262.893 1955.176)" style="fill:#fff"/>
            <g data-name="Group 14207">
                <path data-name="Path 16415" d="M427 69.407a.624.624 0 0 0 .624.624h2.286a.624.624 0 0 0 .624-.624v-2.994L428.767 65 427 66.413z" transform="translate(82.191 2048.287)" style="fill:#fff"/>
            </g>
            <g data-name="Group 14208">
                <path data-name="Path 16416" d="M430.534 155.617v-2.993a.624.624 0 0 0-.624-.624h-2.286a.624.624 0 0 0-.624.624v2.993z" transform="translate(82.191 1959.084)" style="fill:#fff"/>
            </g>
        </g>
    </g>
</svg>
