<svg xmlns="http://www.w3.org/2000/svg" width="44" height="44" viewBox="0 0 44 44">
  <defs>
    <style>
      .cls-1 {
        fill: #472dc2;
      }

      .cls-2 {
        fill: #fff;
      }
    </style>
  </defs>
  <g id="lp_icon3" transform="translate(-108 -1086)">
    <circle id="Ellipse_97" data-name="Ellipse 97" class="cls-1" cx="22" cy="22" r="22" transform="translate(108 1086)"/>
    <g id="icon3" transform="translate(-31.658 1049.335)">
      <path id="Path_16294" data-name="Path 16294" class="cls-2" d="M221.668,62.1a.618.618,0,0,0,.617.617h12.348a.618.618,0,0,0,.617-.617c0-3.811-1.634-6.56-4.315-7.583a4.322,4.322,0,1,0-4.954,0c-2.681,1.024-4.314,3.773-4.314,7.583Z" transform="translate(-66.305)"/>
      <path id="Path_16295" data-name="Path 16295" class="cls-2" d="M156.23,421.208h-1.062l-.328-1.009a.643.643,0,0,0-1.174,0l-.328,1.009h-1.061a.618.618,0,0,0-.363,1.118l.858.625-.328,1.009a.617.617,0,0,0,.949.69l.861-.624.859.622a.6.6,0,0,0,.362.118.619.619,0,0,0,.588-.809l-.328-1.009.858-.625a.617.617,0,0,0-.362-1.116Z" transform="translate(0 -353.405)"/>
      <path id="Path_16296" data-name="Path 16296" class="cls-2" d="M305.562,420.158H304.5l-.328-1.009a.643.643,0,0,0-1.174,0l-.328,1.009h-1.061a.618.618,0,0,0-.363,1.118l.858.625-.328,1.009a.617.617,0,0,0,.949.69l.86-.623.859.622a.617.617,0,0,0,.949-.69l-.328-1.009.858-.625a.617.617,0,0,0-.362-1.117Z" transform="translate(-141.43 -352.411)"/>
      <path id="Path_16297" data-name="Path 16297" class="cls-2" d="M455.433,420.581a.618.618,0,0,0-.588-.427h-1.062l-.328-1.009a.643.643,0,0,0-1.174,0l-.328,1.009h-1.061a.618.618,0,0,0-.363,1.118l.858.625-.328,1.009a.617.617,0,0,0,.949.69l.859-.622.859.622a.614.614,0,0,0,.725,0,.618.618,0,0,0,.225-.69l-.328-1.009.858-.625a.616.616,0,0,0,.228-.69Z" transform="translate(-282.812 -352.407)"/>
    </g>
  </g>
</svg>
