<svg xmlns="http://www.w3.org/2000/svg" width="60" height="60" viewBox="0 0 60 60">
  <g id="qna_illustration" transform="translate(0)">
    <path id="Path_16332" data-name="Path 16332" d="M57.419,50.71A28.714,28.714,0,0,1,31.964,79.237c-.3.034-.489-1.171-.794-1.146q-1.159.094-2.342.094a26.686,26.686,0,0,1-17.481-6.263c-.382-.311-1.519.421-1.884.091a28.71,28.71,0,1,1,47.956-21.3Z" transform="translate(0 -19.419)" fill="#465a61"/>
    <path id="Path_16333" data-name="Path 16333" d="M91.862,90.431A23.431,23.431,0,1,1,68.431,67,23.431,23.431,0,0,1,91.862,90.431Z" transform="translate(-39.721 -59.141)" fill="#596c76"/>
    <path id="Path_16334" data-name="Path 16334" d="M311.7,315.3l-3.245-3.245a.88.88,0,0,1,1.244-1.244l3.245,3.245A.88.88,0,1,1,311.7,315.3Zm3.427-6.6a.88.88,0,0,0-.88-.88h-3.392a.88.88,0,0,0,0,1.759h3.392A.88.88,0,0,0,315.131,308.7Zm-7.9,4.506V316.6a.88.88,0,1,1-1.76,0v-3.392a.88.88,0,1,1,1.76,0Z" transform="translate(-269.682 -271.757)" fill="#fff" opacity="0.3"/>
    <path id="Path_16335" data-name="Path 16335" d="M178.44,1.76v27.3a1.76,1.76,0,0,1-1.759,1.76H171.76a1.76,1.76,0,0,1-1.76-1.76V1.76A1.76,1.76,0,0,1,171.76,0h4.921A1.759,1.759,0,0,1,178.44,1.76Z" transform="translate(-150.081)" fill="#ed8014"/>
    <path id="Path_16336" data-name="Path 16336" d="M238.871,1.76v27.3a1.76,1.76,0,0,1-1.76,1.76H217.663l-9.469,9.469a.587.587,0,0,1-1-.415V30.82h-2.859a1.76,1.76,0,0,1-1.76-1.76V1.76A1.76,1.76,0,0,1,204.334,0h32.777a1.76,1.76,0,0,1,1.759,1.76Z" transform="translate(-178.871)" fill="#fb8b1b"/>
    <path id="Path_16337" data-name="Path 16337" d="M346.638,82.169A1.173,1.173,0,0,1,347.811,81h12.9a1.173,1.173,0,0,1,0,2.346h-12.9A1.173,1.173,0,0,1,346.638,82.169Zm14.076,3.519h-12.9a1.173,1.173,0,0,0,0,2.346h12.9a1.173,1.173,0,0,0,0-2.346Zm-4.066,4.692h-8.837a1.173,1.173,0,1,0,0,2.346h8.837a1.173,1.173,0,0,0,0-2.346Z" transform="translate(-306.035 -71.507)" fill="#fff"/>
    <path id="Path_16338" data-name="Path 16338" d="M260.5,135.347a1.232,1.232,0,1,1-1.232-1.232A1.232,1.232,0,0,1,260.5,135.347Zm-1.232-3.045a1.173,1.173,0,0,0,1.173-1.173V126.7a1.173,1.173,0,1,0-2.346,0v4.426A1.173,1.173,0,0,0,259.265,132.3Z" transform="translate(-227.796 -110.823)" fill="#fff"/>
    <path id="Path_16339" data-name="Path 16339" d="M231.775,62.487a5.429,5.429,0,0,1-3.92,1.685,1.173,1.173,0,0,1,0-2.346A3.062,3.062,0,0,0,230.91,58.6a3.06,3.06,0,0,0-6.086-.264,3.116,3.116,0,0,0-.03.428,1.173,1.173,0,1,1-2.346,0,5.406,5.406,0,0,1,10.8-.286A5.363,5.363,0,0,1,231.775,62.487Z" transform="translate(-196.386 -47.101)" fill="#fff"/>
    <path id="Path_16340" data-name="Path 16340" d="M66.162,93.4v12.916a8.524,8.524,0,0,1-1.9,5.376V125.8H49.227V115.619L40.51,103.334a2.346,2.346,0,0,1,3.827-2.715l3.152,4.443v-18.1a2.346,2.346,0,0,1,4.6-.665V84.615a2.346,2.346,0,0,1,4.692,0v3.519a2.346,2.346,0,0,1,4.692,0V93.4a2.346,2.346,0,1,1,4.692,0Z" transform="translate(-35.376 -72.677)" fill="#ffcebf"/>
    <path id="Path_16341" data-name="Path 16341" d="M47.489,102.21V86.961A2.347,2.347,0,0,1,50.96,84.9a2.345,2.345,0,0,0-1.221,2.059V102.21a1.125,1.125,0,0,1-2.251,0Zm5.722.438a1.125,1.125,0,0,0,1.125-1.125V84.615a2.345,2.345,0,0,1,1.221-2.059,2.347,2.347,0,0,0-3.471,2.059v16.908A1.125,1.125,0,0,0,53.21,102.648Zm5.913-16.86a2.346,2.346,0,0,0-2.346,2.346v13.951a1.125,1.125,0,0,0,2.251,0V88.134a2.345,2.345,0,0,1,1.221-2.059A2.336,2.336,0,0,0,59.123,85.788Zm4.692,5.268A2.346,2.346,0,0,0,61.469,93.4v9.043a1.125,1.125,0,0,0,2.251,0V93.4a2.346,2.346,0,0,1,1.221-2.059A2.334,2.334,0,0,0,63.815,91.056Zm-13.279,16.01a.88.88,0,1,0,0,1.76,5.7,5.7,0,0,1,5.689,5.689.88.88,0,0,0,1.76,0A7.457,7.457,0,0,0,50.536,107.066Zm-8.191-5.034a2.346,2.346,0,0,1-.2-2.386,2.347,2.347,0,0,0-1.64,3.688l7.457,10.509a1.1,1.1,0,0,0-.009.139v10.733a1.089,1.089,0,0,0,1.089,1.089h.36a1.089,1.089,0,0,0,1.089-1.089v-8.5a1.126,1.126,0,0,0,.674-1.75Z" transform="translate(-35.376 -72.677)" fill="#ffbfab"/>
    <path id="Path_16342" data-name="Path 16342" d="M101.525,390.3v4.5a1.173,1.173,0,0,1-1.173,1.173H89.217v4.812a27.933,27.933,0,0,1-3.036-1.338c-.147-.081-.294.381-.439.3a28.824,28.824,0,0,1-4.986-3.621V394.96a1.173,1.173,0,0,1,1.173-1.173h.58V390.3a1.173,1.173,0,0,1,1.173-1.173h16.671A1.173,1.173,0,0,1,101.525,390.3Z" transform="translate(-71.296 -343.539)" fill="#ff4343"/>
    <path id="Path_16343" data-name="Path 16343" d="M140.8,430.032v8.4a29.034,29.034,0,0,1-3.258.183,28.606,28.606,0,0,1-14.28-3.793v-4.786a1.173,1.173,0,0,1,1.173-1.173h15.191A1.173,1.173,0,0,1,140.8,430.032Z" transform="translate(-108.825 -378.612)" fill="#ff5757"/>
  </g>
</svg>
