<svg xmlns="http://www.w3.org/2000/svg" width="34.954" height="32.77" viewBox="0 0 34.954 32.77">
  <path id="quote_icon" d="M85.292,37.158V48.081a2.184,2.184,0,0,1-2.185,2.185H72.185A2.184,2.184,0,0,1,70,48.081V32.789C70,25.863,74.164,19.34,80.923,17.5v4.848c-4.164,1.5-6.554,5.968-6.554,10.445v2.185h8.739a2.185,2.185,0,0,1,2.185,2.185Zm17.477-2.185H94.031V32.789c0-4.476,2.39-8.944,6.554-10.445V17.5c-6.759,1.844-10.923,8.367-10.923,15.292V48.081a2.184,2.184,0,0,0,2.185,2.185h10.923a2.184,2.184,0,0,0,2.185-2.185V37.158a2.185,2.185,0,0,0-2.185-2.185Z" transform="translate(-70 -17.496)" fill="#
#dcdcdd"/>
</svg>
