<?xml version="1.0" encoding="utf-8"?>
<!-- Generator: Adobe Illustrator 27.3.1, SVG Export Plug-In . SVG Version: 6.00 Build 0)  -->
<svg version="1.1" id="Layer_1" xmlns="http://www.w3.org/2000/svg" xmlns:xlink="http://www.w3.org/1999/xlink" x="0px" y="0px"
	 viewBox="0 0 24 24" style="enable-background:new 0 0 24 24;" xml:space="preserve">
<style type="text/css">
	.st0{fill:#472DC2;}
</style>
<g id="timeline">
</g>
<g id="navigation">
</g>
<g id="align_center">
</g>
<g id="align_left_1_">
</g>
<g id="align_left">
</g>
<g id="more">
</g>
<g id="share">
</g>
<g id="music">
</g>
<g id="camera">
</g>
<g id="print">
</g>
<g id="wifi_1_">
</g>
<g id="setting">
</g>
<g id="composed">
</g>
<g id="password">
</g>
<g id="list">
</g>
<g id="voice">
</g>
<g id="open_folder">
</g>
<g id="refresh">
	<path class="st0" d="M19.6,12.6c-0.6-0.1-1.1,0.3-1.1,0.8c-0.2,1.4-0.8,2.6-1.8,3.6c-2.5,2.5-6.7,2.5-9.2,0c-2.5-2.5-2.5-6.7,0-9.2
		c1-1,2.2-1.6,3.5-1.8C11.5,6,12.2,6,12.8,6c0.9,0.1,1.7,0.4,2.5,0.8L14,7.1c-0.5,0.1-0.9,0.6-0.8,1.2c0.1,0.5,0.5,0.8,1,0.8
		c0.1,0,0.1,0,0.2,0l3.5-0.6c0.3,0,0.5-0.2,0.6-0.4c0.2-0.2,0.2-0.5,0.2-0.7L18,3.8c-0.1-0.5-0.6-0.9-1.2-0.8
		c-0.5,0.1-0.9,0.6-0.8,1.2l0.2,0.9c-1-0.5-2-0.9-3.2-1C12.2,4,11.4,4,10.6,4.1C8.9,4.4,7.3,5.2,6,6.5c-3.3,3.3-3.3,8.7,0,12
		c1.7,1.7,3.8,2.5,6,2.5c2.2,0,4.4-0.8,6-2.5c1.3-1.3,2.1-2.9,2.4-4.7C20.5,13.2,20.1,12.7,19.6,12.6z"/>
</g>
<g id="link">
</g>
<g id="attach">
</g>
<g id="email">
</g>
<g id="bookmark">
</g>
<g id="folder">
</g>
<g id="file">
</g>
<g id="notification">
</g>
<g id="galery">
</g>
<g id="delete_1_">
</g>
<g id="update">
</g>
<g id="upload">
</g>
<g id="download">
</g>
<g id="menu">
</g>
<g id="down">
</g>
<g id="up">
</g>
<g id="backward">
</g>
<g id="forward">
</g>
<g id="zoom_out">
</g>
<g id="zoom_in">
</g>
<g id="search">
</g>
<g id="home">
</g>
<g id="user">
</g>
<g id="guide">
</g>
</svg>
