<svg xmlns="http://www.w3.org/2000/svg" width="116.378" height="18.036" viewBox="0 0 116.378 18.036">
  <g id="stars" transform="translate(-108.284 -1021.03)">
    <path id="Path_16298" data-name="Path 16298" d="M121.583,52.328l1.811,5.03a.386.386,0,0,0,.357.26l5.343.168a1,1,0,0,1,.584,1.8l-4.224,3.277a.386.386,0,0,0-.136.42l1.491,5.134a1,1,0,0,1-1.528,1.11l-4.421-3a.387.387,0,0,0-.442,0l-4.422,3a1,1,0,0,1-1.528-1.11l1.491-5.134a.386.386,0,0,0-.136-.42L111.6,59.582a1,1,0,0,1,.584-1.8l5.343-.168a.386.386,0,0,0,.357-.26l1.811-5.03a1,1,0,0,1,1.889,0Z" transform="translate(-2.924 969.366)" fill="#f6bf4f" fill-rule="evenodd"/>
    <path id="Path_16299" data-name="Path 16299" d="M121.583,52.328l1.811,5.03a.386.386,0,0,0,.357.26l5.343.168a1,1,0,0,1,.584,1.8l-4.224,3.277a.386.386,0,0,0-.136.42l1.491,5.134a1,1,0,0,1-1.528,1.11l-4.421-3a.387.387,0,0,0-.442,0l-4.422,3a1,1,0,0,1-1.528-1.11l1.491-5.134a.386.386,0,0,0-.136-.42L111.6,59.582a1,1,0,0,1,.584-1.8l5.343-.168a.386.386,0,0,0,.357-.26l1.811-5.03a1,1,0,0,1,1.889,0Z" transform="translate(21.455 969.366)" fill="#f6bf4f" fill-rule="evenodd"/>
    <path id="Path_16300" data-name="Path 16300" d="M121.583,52.328l1.811,5.03a.386.386,0,0,0,.357.26l5.343.168a1,1,0,0,1,.584,1.8l-4.224,3.277a.386.386,0,0,0-.136.42l1.491,5.134a1,1,0,0,1-1.528,1.11l-4.421-3a.387.387,0,0,0-.442,0l-4.422,3a1,1,0,0,1-1.528-1.11l1.491-5.134a.386.386,0,0,0-.136-.42L111.6,59.582a1,1,0,0,1,.584-1.8l5.343-.168a.386.386,0,0,0,.357-.26l1.811-5.03a1,1,0,0,1,1.889,0Z" transform="translate(45.835 969.366)" fill="#f6bf4f" fill-rule="evenodd"/>
    <path id="Path_16301" data-name="Path 16301" d="M121.583,52.328l1.811,5.03a.386.386,0,0,0,.357.26l5.343.168a1,1,0,0,1,.584,1.8l-4.224,3.277a.386.386,0,0,0-.136.42l1.491,5.134a1,1,0,0,1-1.528,1.11l-4.421-3a.387.387,0,0,0-.442,0l-4.422,3a1,1,0,0,1-1.528-1.11l1.491-5.134a.386.386,0,0,0-.136-.42L111.6,59.582a1,1,0,0,1,.584-1.8l5.343-.168a.386.386,0,0,0,.357-.26l1.811-5.03a1,1,0,0,1,1.889,0Z" transform="translate(70.214 969.366)" fill="#f6bf4f" fill-rule="evenodd"/>
    <path id="Path_16302" data-name="Path 16302" d="M121.583,52.328l1.811,5.03a.386.386,0,0,0,.357.26l5.343.168a1,1,0,0,1,.584,1.8l-4.224,3.277a.386.386,0,0,0-.136.42l1.491,5.134a1,1,0,0,1-1.528,1.11l-4.421-3a.387.387,0,0,0-.442,0l-4.422,3a1,1,0,0,1-1.528-1.11l1.491-5.134a.386.386,0,0,0-.136-.42L111.6,59.582a1,1,0,0,1,.584-1.8l5.343-.168a.386.386,0,0,0,.357-.26l1.811-5.03a1,1,0,0,1,1.889,0Z" transform="translate(94.593 969.366)" fill="#f6bf4f" fill-rule="evenodd"/>
  </g>
</svg>
