<svg xmlns="http://www.w3.org/2000/svg" xmlns:xlink="http://www.w3.org/1999/xlink" width="150" height="150" viewBox="0 0 150 150">
  <defs>
    <linearGradient id="linear-gradient" x1="0.5" x2="0.5" y2="1" gradientUnits="objectBoundingBox">
      <stop offset="0" stop-color="#f7f7f7"/>
      <stop offset="1" stop-color="#f7f7f7"/>
    </linearGradient>
    <linearGradient id="linear-gradient-2" x1="0.5" x2="0.5" y2="1" gradientUnits="objectBoundingBox">
      <stop offset="0" stop-color="#ffd5ac"/>
      <stop offset="1" stop-color="#f5c291"/>
    </linearGradient>
    <filter id="Path_16303" x="45.814" y="28" width="80.068" height="97.64" filterUnits="userSpaceOnUse">
      <feOffset dy="3" input="SourceAlpha"/>
      <feGaussianBlur stdDeviation="3" result="blur"/>
      <feFlood flood-color="#f9c99c" flood-opacity="0.404"/>
      <feComposite operator="in" in2="blur"/>
      <feComposite in="SourceGraphic"/>
    </filter>
    <linearGradient id="linear-gradient-3" x1="0.5" x2="0.5" y2="1" gradientUnits="objectBoundingBox">
      <stop offset="0" stop-color="#f29175"/>
      <stop offset="1" stop-color="#cd2d2c"/>
    </linearGradient>
  </defs>
  <g id="submit_note_icon" transform="translate(-612.241 -86)">
    <circle id="Ellipse_102" data-name="Ellipse 102" cx="75" cy="75" r="75" transform="translate(612.241 86)" fill="url(#linear-gradient)"/>
    <g id="noun-thumbs-up-4584576" transform="translate(535.019 75.542)">
      <g transform="matrix(1, 0, 0, 1, 77.22, 10.46)" filter="url(#Path_16303)">
        <path id="Path_16303-2" data-name="Path 16303" d="M194.1,92.468c0-3.48-3.1-6.325-6.891-6.325,3.54,0,6.891-2.624,6.891-6.325,0-3.479-3.1-6.325-6.891-6.325H163.386c1.753-8.206,4.345-14.031.679-22.175-1.948-4.324-5.284-7.852-9.846-6.606-4.03,1.1-3.333,12.9-6.745,20.188-1.3,2.784-6.743,10.782-10.316,10.8l-5.123.02v44.06h2.505c4.281,0,6.961,4.245,11.294,4.322h34.8c3.54,0,6.891-2.625,6.891-6.326,0-3.48-3.1-6.325-6.891-6.325h6.579c3.54,0,6.891-2.625,6.891-6.325,0-3.48-3.1-6.325-6.891-6.325,3.542,0,6.891-2.624,6.891-6.326Z" transform="translate(-77.22 -10.46)" fill-rule="evenodd" fill="url(#linear-gradient-2)"/>
      </g>
      <path id="Path_16304" data-name="Path 16304" d="M116.256,68.034h6.513a5.05,5.05,0,0,1,5.034,5.034v48.116a5.05,5.05,0,0,1-5.034,5.034h-6.513a5.05,5.05,0,0,1-5.034-5.034V73.068a5.05,5.05,0,0,1,5.034-5.034Z" fill-rule="evenodd" fill="url(#linear-gradient-3)"/>
    </g>
  </g>
</svg>
