<?xml version="1.0" encoding="UTF-8"?>
<svg width="20px" height="20px" viewBox="0 0 40 40" version="1.1" xmlns="http://www.w3.org/2000/svg" xmlns:xlink="http://www.w3.org/1999/xlink">
    <!-- Generator: Sketch 55.2 (78181) - https://sketchapp.com -->
    <title>agencies</title>
    
    <g id="agencies" stroke="none" stroke-width="1" fill="none" fill-rule="evenodd">
        <rect fill="#FFFFFF" x="0" y="0" width="40" height="40"></rect>
        <g id="Agencies" transform="translate(4.000000, 4.000000)">
            <rect id="Rectangle" fill="#FFFFFF" x="0" y="0" width="33" height="33"></rect>
            <g id="company" transform="translate(2.000000, 1.000000)">
                <path d="M27.8615217,10.196 L26.1195652,8.416 L27.1108696,7.40266667 L26.3797826,6.65533333 L25.3884783,7.66866667 L23.576087,5.816 C23.0289975,6.38780515 22.7350557,7.16381947 22.7627842,7.963141 C22.7905128,8.76246252 23.1374887,9.51524421 23.7228261,10.046 C23.7456522,10.0693333 23.7697826,10.0893333 23.7926087,10.1126667 L23.7926087,14.8053333 L24.8269565,14.8053333 L24.8269565,10.8053333 C25.8630535,11.2656996 27.0695874,11.0249174 27.8602174,10.2 L27.8615217,10.196 Z" id="Path_4503" fill="#4573B0"></path>
                <polygon id="Path_4504" fill="#4A4A4A" points="0 6.87333333 18.6208696 6.87333333 18.6208696 31.724 0 31.724"></polygon>
                <polygon id="Path_4505" fill="#FB641B" points="0 6.87333333 0 31.724 18.6208696 31.724"></polygon>
                <polygon id="Path_4506" fill="#FFFFFF" points="2.06869565 8.98866667 4.1373913 8.98866667 4.1373913 11.1033333 2.06869565 11.1033333"></polygon>
                <polygon id="Path_4507" fill="#FB641B" points="18.6208696 14.276 30 14.276 30 31.724 18.6208696 31.724"></polygon>
                <polygon id="Path_4508" fill="#4A4A4A" points="18.6208696 14.276 18.6208696 31.724 30 31.724"></polygon>
                <polygon id="Path_4509" fill="#FFFFFF" points="22.758913 21.678 25.8626087 21.678 25.8626087 24.8506667 22.758913 24.8506667"></polygon>
                <polygon id="Path_4510" fill="#4A4A4A" points="1.03434783 4.75866667 17.5858696 4.75866667 17.5858696 6.87333333 1.03434783 6.87333333"></polygon>
                <polygon id="Path_4511" fill="#FB641B" points="3.10369565 0 15.5171739 0 15.5171739 4.75866667 3.10369565 4.75866667"></polygon>
                <polygon id="Path_4512" fill="#FFFFFF" points="8.27608696 8.98866667 10.3447826 8.98866667 10.3447826 11.1033333 8.27608696 11.1033333"></polygon>
                <polygon id="Path_4513" fill="#FFFFFF" points="14.4828261 8.98866667 16.5515217 8.98866667 16.5515217 11.1033333 14.4828261 11.1033333"></polygon>
                <polygon id="Path_4514" fill="#FFFFFF" points="2.06869565 14.8046667 4.1373913 14.8046667 4.1373913 16.9193333 2.06869565 16.9193333"></polygon>
                <polygon id="Path_4515" fill="#FFFFFF" points="8.27608696 14.8046667 10.3447826 14.8046667 10.3447826 16.9193333 8.27608696 16.9193333"></polygon>
                <polygon id="Path_4516" fill="#FFFFFF" points="14.4828261 14.8046667 16.5515217 14.8046667 16.5515217 16.9193333 14.4828261 16.9193333"></polygon>
                <g id="Group_2194" transform="translate(2.068696, 20.620667)" fill="#FFFFFF">
                    <polygon id="Path_4517" points="0 0 2.06869565 0 2.06869565 2.11466667 0 2.11466667"></polygon>
                    <polygon id="Path_4518" points="6.20673913 0 8.27543478 0 8.27543478 2.11466667 6.20673913 2.11466667"></polygon>
                    <polygon id="Path_4519" points="12.4134783 5.816 14.4821739 5.816 14.4821739 7.93066667 12.4134783 7.93066667"></polygon>
                </g>
                <polygon id="Path_4520" fill="#FFFFFF" points="14.4828261 20.6206667 16.5515217 20.6206667 16.5515217 22.7353333 14.4828261 22.7353333"></polygon>
                <polygon id="Path_4521" fill="#FFFFFF" points="2.06869565 26.4366667 4.1373913 26.4366667 4.1373913 28.5513333 2.06869565 28.5513333"></polygon>
                <polygon id="Path_4522" fill="#FFFFFF" points="16.2436957 28.5513333 16.5521739 28.5513333 16.5521739 26.4366667 14.6608696 26.4366667"></polygon>
                <path d="M26.3791304,31.724 L22.241087,31.724 L22.241087,28.3333333 C22.241087,27.5778078 22.8402468,26.9653333 23.5793478,26.9653333 L25.0408696,26.9653333 C25.7799706,26.9653333 26.3791304,27.5778078 26.3791304,28.3333333 L26.3791304,31.724 Z" id="Path_4523" fill="#FFFFFF"></path>
                <polygon id="Path_4524" fill="#FFFFFF" points="22.758913 16.3906667 25.8626087 16.3906667 25.8626087 19.5633333 22.758913 19.5633333"></polygon>
                <path d="M10.4413043,25.9079963 L8.17565217,25.9079963 C7.37387879,25.9079963 6.72391304,26.5724094 6.72391304,27.392 L6.72391304,31.7253333 L11.8963043,31.7253333 L11.8963043,27.392 C11.8963043,26.9978405 11.7429071,26.6198733 11.4699476,26.3414733 C11.196988,26.0630733 10.8268942,25.9071146 10.4413043,25.9079963 Z" id="Path_4525" fill="#FFFFFF"></path>
                <polygon id="Path_4526" fill="#FFFFFF" points="23.4482609 21.678 25.5169565 24.8506667 25.8619565 24.8506667 25.8619565 21.678"></polygon>
                <polygon id="Path_4527" fill="#FFFFFF" points="3.16956522 11.1033333 4.13804348 11.1033333 4.13804348 8.98866667 2.06869565 8.98866667 2.06869565 9.63466667"></polygon>
            </g>
        </g>
    </g>
</svg>
