<svg width="41px" height="41px" viewBox="0 0 41 41" version="1.1" xmlns="http://www.w3.org/2000/svg" xmlns:xlink="http://www.w3.org/1999/xlink"><g  stroke="none" stroke-width="1" fill="none" fill-rule="evenodd"><circle fill="#472DC2" cx="21" cy="21" r="18"></circle><path d="M27.300885,27.8697851 L27.300885,16.05689 L18.05689,16.05689 L18.05689,27.8697851 L27.300885,27.8697851 Z M27.300885,14.3982301 C27.7593786,14.3982301 28.1571833,14.560049 28.494311,14.8836915 C28.8314387,15.2073341 29,15.5983964 29,16.05689 L29,27.8697851 C29,28.3282787 28.8314387,28.7260834 28.494311,29.0632111 C28.1571833,29.4003388 27.7593786,29.5689001 27.300885,29.5689001 L18.05689,29.5689001 C17.5983964,29.5689001 17.2005917,29.4003388 16.863464,29.0632111 C16.5263363,28.7260834 16.357775,28.3282787 16.357775,27.8697851 L16.357775,16.05689 C16.357775,15.5983964 16.5263363,15.2073341 16.863464,14.8836915 C17.2005917,14.560049 17.5983964,14.3982301 18.05689,14.3982301 L27.300885,14.3982301 Z M24.7724399,11 L24.7724399,12.699115 L14.6586599,12.699115 L14.6586599,24.5120101 L13,24.5120101 L13,12.699115 C13,12.2406214 13.1618189,11.8428167 13.4854614,11.505689 C13.809104,11.1685613 14.2001663,11 14.6586599,11 L24.7724399,11 Z"  fill="#FFFFFF" fill-rule="nonzero"></path></g></svg>
