<?xml version="1.0" encoding="UTF-8"?>
<svg width="20px" height="20px" viewBox="0 0 40 40" version="1.1" xmlns="http://www.w3.org/2000/svg" xmlns:xlink="http://www.w3.org/1999/xlink">
    <!-- Generator: Sketch 55.2 (78181) - https://sketchapp.com -->
    <title>Enterprice</title>
    
    <g id="Enterprice" stroke="none" stroke-width="1" fill="none" fill-rule="evenodd">
        <rect fill="#FFFFFF" x="0" y="0" width="40" height="40"></rect>
        <g id="Enterprises-2" transform="translate(0.000000, -2.000000)">
            <g id="Enterprises">
                <rect id="Rectangle" fill="#FFFFFF" x="0" y="0" width="39" height="37.9901961"></rect>
                <g id="three-buildings_2_" transform="translate(1.126320, 7.817623)" fill-rule="nonzero">
                    <g id="Group_2169" transform="translate(0.000000, 0.278088)">
                        <path d="M10.05498,29.3063971 L16.62648,29.3063971 L16.62648,22.7606863 L20.57562,22.7606863 L20.57562,29.3063971 L27.14712,29.3063971 L27.14712,0 L10.05498,0 L10.05498,29.3063971 Z M19.8003,3.45406863 L23.75022,3.45406863 L23.75022,7.30171569 L19.8003,7.30171569 L19.8003,3.45406863 Z M19.8003,9.63811275 L23.75022,9.63811275 L23.75022,13.4857598 L19.8003,13.4857598 L19.8003,9.63811275 Z M19.8003,15.8213971 L23.75022,15.8213971 L23.75022,19.6690441 L19.8003,19.6690441 L19.8003,15.8213971 Z M13.45266,3.45406863 L17.40258,3.45406863 L17.40258,7.30171569 L13.45266,7.30171569 L13.45266,3.45406863 Z M13.45266,9.63811275 L17.40258,9.63811275 L17.40258,13.4857598 L13.45266,13.4857598 L13.45266,9.63811275 Z M13.45266,15.8213971 L17.40258,15.8213971 L17.40258,19.6690441 L13.45266,19.6690441 L13.45266,15.8213971 Z" id="Path_4492" fill="#4573B0"></path>
                        <path d="M28.68138,2.62512255 L28.68138,23.3464951 L31.21872,23.3464951 L31.21872,29.3079167 L37.20132,29.3079167 L37.20132,2.62512255 L28.68138,2.62512255 Z M34.10862,20.5321814 L30.51282,20.5321814 L30.51282,17.0294853 L34.10862,17.0294853 L34.10862,20.5321814 Z M34.10862,14.9020343 L30.51282,14.9020343 L30.51282,11.3993382 L34.10862,11.3993382 L34.10862,14.9020343 Z M34.10862,9.27188725 L30.51282,9.27188725 L30.51282,5.76919118 L34.10862,5.76919118 L34.10862,9.27188725 Z" id="Path_4493" fill="#FB702C"></path>
                        <path d="M0,29.3079167 L5.9826,29.3079167 L5.9826,23.3487745 L8.51994,23.3487745 L8.51994,2.62512255 L0,2.62512255 L0,29.3079167 Z M3.0927,5.76995098 L6.6885,5.76995098 L6.6885,9.27264706 L3.0927,9.27264706 L3.0927,5.76995098 Z M3.0927,11.3993382 L6.6885,11.3993382 L6.6885,14.9020343 L3.0927,14.9020343 L3.0927,11.3993382 Z M3.0927,17.0287255 L6.6885,17.0287255 L6.6885,20.5314216 L3.0927,20.5314216 L3.0927,17.0287255 Z" id="Path_4494" fill="#4A4A4A"></path>
                    </g>
                </g>
            </g>
        </g>
    </g>
</svg>
