<svg xmlns="http://www.w3.org/2000/svg" width="16" height="16" viewBox="0 0 23.824 29.259"><g id="mac_os" transform="translate(-1.282)"><g id="Group_1959" data-name="Group 1959" transform="translate(1.282)"><path id="Path_4201" data-name="Path 4201" d="M21.18,11.819a6.617,6.617,0,0,1,3.159-5.571,6.829,6.829,0,0,0-5.351-2.9c-2.275-.233-4.443,1.34-5.6,1.34S10.449,3.383,8.56,3.417A7.167,7.167,0,0,0,2.507,7.085c-2.58,4.477-.661,11.109,1.853,14.744,1.23,1.777,2.7,3.771,4.619,3.7,1.853-.074,2.552-1.2,4.793-1.2s2.87,1.2,4.829,1.164c1.995-.038,3.256-1.813,4.475-3.593a16.282,16.282,0,0,0,2.029-4.161A6.474,6.474,0,0,1,21.18,11.819Z" transform="translate(-1.282 3.727)" fill="#24272c"/><path id="Path_4202" data-name="Path 4202" d="M11.242,4.672A6.447,6.447,0,0,0,12.764,0a6.55,6.55,0,0,0-4.31,2.215A6.133,6.133,0,0,0,6.9,6.741,5.425,5.425,0,0,0,11.242,4.672Z" transform="translate(4.972)" fill="#24272c"/></g></g></svg>
