<?xml version="1.0" encoding="UTF-8"?>
<svg width="20px" height="20px" viewBox="0 0 40 40" version="1.1" xmlns="http://www.w3.org/2000/svg" xmlns:xlink="http://www.w3.org/1999/xlink">
    <!-- Generator: Sketch 55.2 (78181) - https://sketchapp.com -->
    <title>PSU</title>
    
    <g id="PSU" stroke="none" stroke-width="1" fill="none" fill-rule="evenodd">
        <rect fill="#FFFFFF" x="0" y="0" width="40" height="40"></rect>
        <g id="PSU-2" transform="translate(5.000000, 5.000000)">
            <g id="PSU">
                <rect id="Rectangle" fill="#FFFFFF" x="0" y="0" width="31" height="31.372549"></rect>
                <g id="train-station" transform="translate(2.391340, 0.393412)">
                    <g id="Group_2171" transform="translate(3.781380, 11.541333)" fill="#4A4A4A">
                        <g id="Group_2170">
                            <rect id="Rectangle_1586" x="0" y="0" width="2.16504" height="2.26196078"></rect>
                        </g>
                    </g>
                    <g id="Group_2173" transform="translate(3.781380, 18.609569)" fill="#4A4A4A">
                        <g id="Group_2172">
                            <rect id="Rectangle_1587" x="0" y="0" width="2.16504" height="2.26196078"></rect>
                        </g>
                    </g>
                    <g id="Group_2175" transform="translate(5.638280, 0.000000)" fill="#FB702C" fill-rule="nonzero">
                        <g id="Group_2174">
                            <path d="M2.61826,-7.43973666e-08 C1.17231569,0.000346512264 0.00039178118,1.18682242 0.000620032622,2.65014369 C0.000848284064,4.11346497 1.17314227,5.29956637 2.61908662,5.2994509 C4.06503097,5.29933542 5.23714,4.11304678 5.23714,2.64972549 C5.23714,1.94686587 4.96120331,1.27280272 4.47005021,0.775864755 C3.97889711,0.278926793 3.31277314,-0.000166436093 2.61826,-7.43973666e-08 Z M3.596,3.41270588 L2.48,3.41270588 C2.33380644,3.41624208 2.19221651,3.36083893 2.08639944,3.25869273 C1.98058236,3.15654653 1.91921263,3.01603086 1.9158,2.86807843 C1.9158,2.86807843 1.9158,2.86368627 1.9158,2.86180392 L1.9158,1.38039216 C1.9158,1.06851371 2.16562511,0.815686275 2.4738,0.815686275 C2.78197489,0.815686275 3.0318,1.06851371 3.0318,1.38039216 L3.0318,2.28203922 L3.596,2.28203922 C3.90417489,2.28203922 4.154,2.53486665 4.154,2.8467451 C4.154,3.15862355 3.90417489,3.41145098 3.596,3.41145098 L3.596,3.41270588 Z" id="Path_4498"></path>
                        </g>
                    </g>
                    <g id="Group_2177" transform="translate(10.137000, 11.541333)" fill="#4A4A4A">
                        <g id="Group_2176">
                            <rect id="Rectangle_1588" x="0" y="0" width="2.16504" height="2.26196078"></rect>
                        </g>
                    </g>
                    <g id="Group_2179" transform="translate(5.597360, 25.818980)" fill="#4A4A4A">
                        <g id="Group_2178">
                            <path d="M4.05542,0 L0.82832,0 C0.361910403,0.0156761966 -0.00633529954,0.406199881 8.81082316e-15,0.878431373 L8.81082316e-15,4.73537255 L4.88873131,4.73537255 L4.88873131,0.878431373 C4.89264793,0.405238483 4.52276548,0.0153139026 4.05542,0 L4.05542,0 Z" id="Path_4499"></path>
                        </g>
                    </g>
                    <g id="Group_2181" transform="translate(2.533320, 3.554510)" fill="#4A4A4A">
                        <g id="Group_2180">
                            <path d="M9.54552,0 L9.34836,0 C8.93389529,1.68461132 7.4389588,2.86701171 5.72353,2.86701171 C4.0081012,2.86701171 2.51316471,1.68461132 2.0987,0 L1.4663,0 C0.999903677,0.0044349585 0.623079924,0.386345618 0.61938,0.858352941 L0.61938,3.88768627 L10.39802,3.88768627 L10.39802,0.858352941 C10.3919614,0.385151906 10.0131266,0.00371615764 9.54552,0 Z" id="Path_4500"></path>
                        </g>
                    </g>
                    <g id="Group_2183" transform="translate(10.137000, 18.609569)" fill="#4A4A4A">
                        <g id="Group_2182">
                            <rect id="Rectangle_1589" x="0" y="0" width="2.16504" height="2.26196078"></rect>
                        </g>
                    </g>
                    <g id="Group_2185" transform="translate(16.911740, 18.538667)" fill="#FB641B">
                        <g id="Group_2184">
                            <rect id="Rectangle_1590" x="0" y="0" width="8.66016" height="3.25145098"></rect>
                        </g>
                    </g>
                    <g id="Group_2187" transform="translate(16.911740, 27.444078)" fill="#4A4A4A">
                        <g id="Group_2186">
                            <rect id="Rectangle_1591" x="0" y="0" width="8.66016" height="3.10964706"></rect>
                        </g>
                    </g>
                    <g id="Group_2189" transform="translate(16.911740, 22.920784)" fill="#FB641B">
                        <g id="Group_2188">
                            <rect id="Rectangle_1592" x="0" y="0" width="8.66016" height="3.39262745"></rect>
                        </g>
                    </g>
                    <g id="Group_2191" transform="translate(16.911740, 13.944471)" fill="#FB641B">
                        <g id="Group_2190">
                            <path d="M7.7934,0 L5.68434189e-14,0 L5.68434189e-14,3.46352941 L8.66016,3.46352941 L8.66016,0.871529412 C8.64798057,0.393209249 8.26610891,0.00923631363 7.7934,0 L7.7934,0 Z" id="Path_4501"></path>
                        </g>
                    </g>
                    <g id="Group_2193" transform="translate(0.088660, 8.572863)" fill="#4573B0" fill-rule="nonzero">
                        <g id="Group_2192">
                            <path d="M14.84962,4.46474455e-16 L1.48676,4.46474455e-16 C1.02225024,-0.0119895454 0.634936705,0.357020474 0.61876,0.826980392 L0.61876,21.9814902 L4.39022,21.9814902 L4.39022,18.124549 C4.38533916,17.0287367 5.25309217,16.1332043 6.33578,16.1167059 L9.56288,16.1167059 C10.6467542,16.1325071 11.5165089,17.0275382 11.51402,18.124549 L11.51402,21.9814902 L15.7046,21.9814902 L15.7046,0.824470588 C15.6924229,0.358336376 15.31027,-0.010179625 14.84962,4.46474455e-16 Z M7.04568,12.8627451 C7.04568,13.1746235 6.79585489,13.427451 6.48768,13.427451 L3.13534,13.427451 C2.82716511,13.427451 2.57734,13.1746235 2.57734,12.8627451 L2.57734,9.47011765 C2.57734,9.1582392 2.82716511,8.90541176 3.13534,8.90541176 L6.48768,8.90541176 C6.79585489,8.90541176 7.04568,9.1582392 7.04568,9.47011765 L7.04568,12.8627451 Z M7.04568,5.7945098 C7.04568,6.10638825 6.79585489,6.35921569 6.48768,6.35921569 L3.13534,6.35921569 C2.82716511,6.35921569 2.57734,6.10638825 2.57734,5.7945098 L2.57734,2.40188235 C2.57734,2.09000391 2.82716511,1.83717647 3.13534,1.83717647 L6.48768,1.83717647 C6.79585489,1.83717647 7.04568,2.09000391 7.04568,2.40188235 L7.04568,5.7945098 Z M13.4013,12.8627451 C13.4013,13.1746235 13.1514749,13.427451 12.8433,13.427451 L9.48972,13.427451 C9.18154511,13.427451 8.93172,13.1746235 8.93172,12.8627451 L8.93172,9.47011765 C8.93172,9.1582392 9.18154511,8.90541176 9.48972,8.90541176 L12.84206,8.90541176 C13.1502349,8.90541176 13.40006,9.1582392 13.40006,9.47011765 L13.4013,12.8627451 Z M13.4013,5.7945098 C13.4013,6.10638825 13.1514749,6.35921569 12.8433,6.35921569 L9.48972,6.35921569 C9.18154511,6.35921569 8.93172,6.10638825 8.93172,5.7945098 L8.93172,2.40188235 C8.93172,2.09000391 9.18154511,1.83717647 9.48972,1.83717647 L12.84206,1.83717647 C13.1502349,1.83717647 13.40006,2.09000391 13.40006,2.40188235 L13.4013,5.7945098 Z" id="Path_4502"></path>
                        </g>
                    </g>
                </g>
            </g>
        </g>
    </g>
</svg>
