<?xml version="1.0" encoding="UTF-8"?>
<svg width="20px" height="20px" viewBox="0 0 40 40" version="1.1" xmlns="http://www.w3.org/2000/svg" xmlns:xlink="http://www.w3.org/1999/xlink">
    <title>Startup</title>
    
    <g id="Startup" stroke="none" stroke-width="1" fill="none" fill-rule="evenodd">
        <rect fill="#FFFFFF" x="0" y="0" width="40" height="40"></rect>
        <g id="house-outline" transform="translate(6.000000, 7.000000)">
            <path d="M3,17.1255392 L3,28.4812664 C3,28.7677551 3.22849901,29 3.51036683,29 L15.5039872,29 L15.5039872,18.7148093 L21.137799,18.7148093 L21.137799,28.9987032 L24.4896332,28.9987032 C24.771501,28.9987032 25,28.7664582 25,28.4799696 L25,17.1255392 L14.0047847,6 L3,17.1255392 Z M11.9435407,23.5072595 L6.86028708,23.5072595 L6.86028708,18.7148093 L11.9441786,18.7148093 L11.9435407,23.5072595 Z" id="Path_4534" fill="#FB641B" fill-rule="nonzero"></path>
            <path d="M27.5634674,13.4726424 L14.0024055,0 L7.60395001,6.3557803 L7.60395001,3.56103081 C7.60395001,2.90737756 7.07055601,2.3774869 6.41258115,2.3774869 C5.7546063,2.3774869 5.2212123,2.90737756 5.2212123,3.56103081 L5.2212123,8.7254679 L0.436763936,13.4726424 C-0.1453324,14.0505566 -0.145625297,14.9878316 0.436109732,15.5661047 C1.01784476,16.1443778 1.9613165,16.1446688 2.54341288,15.5667547 L14.0024055,4.18627477 L25.4568184,15.5661047 C26.0387342,16.1440189 26.9820595,16.1438734 27.5637945,15.5657798 C28.1455296,14.9876861 28.1453831,14.0505566 27.5634674,13.4726424 Z" id="Path_4535" fill="#4A4A4A"></path>
        </g>
    </g>
</svg>
