<svg class="overview-tip-icon" width="16px" height="16px" viewBox="0 0 16 16" version="1.1" xmlns="http://www.w3.org/2000/svg" xmlns:xlink="http://www.w3.org/1999/xlink"> 
                                                        <g id="info-16p" stroke="none" stroke-width="1" fill="none" fill-rule="evenodd" opacity="0.699999988">
                                                            <g transform="translate(1.000000, 1.000000)" fill="#24272C" fill-rule="nonzero" id="">
                                                                <path d="M6,4.656 L6,3.312 L7.312,3.312 L7.312,4.656 L6,4.656 Z M6.656,12 C7.6160048,12 8.51199584,11.7546691 9.344,11.264 C10.1546707,10.7946643 10.7946643,10.1546707 11.264,9.344 C11.7546691,8.51199584 12,7.6160048 12,6.656 C12,5.6959952 11.7546691,4.80000416 11.264,3.968 C10.7946643,3.15732928 10.1546707,2.51733568 9.344,2.048 C8.51199584,1.55733088 7.6160048,1.312 6.656,1.312 C5.6959952,1.312 4.80000416,1.55733088 3.968,2.048 C3.15732928,2.51733568 2.51733568,3.15732928 2.048,3.968 C1.55733088,4.80000416 1.312,5.6959952 1.312,6.656 C1.312,7.6160048 1.55733088,8.51199584 2.048,9.344 C2.51733568,10.1546707 3.15732928,10.7946643 3.968,11.264 C4.80000416,11.7546691 5.6959952,12 6.656,12 Z M6.656,5.32907052e-15 C7.87200608,5.32907052e-15 8.99732816,0.30399696 10.032,0.912 C11.0346717,1.48800288 11.8239971,2.27732832 12.4,3.28 C13.008003,4.31467184 13.312,5.43999392 13.312,6.656 C13.312,7.87200608 13.008003,8.99732816 12.4,10.032 C11.8239971,11.0346717 11.0346717,11.8239971 10.032,12.4 C8.99732816,13.008003 7.87200608,13.312 6.656,13.312 C5.43999392,13.312 4.31467184,13.008003 3.28,12.4 C2.27732832,11.8133304 1.48800288,11.0186717 0.912,10.016 C0.30399696,8.98132816 -8.8817842e-16,7.86133936 -8.8817842e-16,6.656 C-8.8817842e-16,5.45066064 0.30399696,4.33067184 0.912,3.296 C1.4986696,2.29332832 2.29332832,1.4986696 3.296,0.912 C4.33067184,0.30399696 5.45066064,5.32907052e-15 6.656,5.32907052e-15 Z M6,10 L6,6 L7.312,6 L7.312,10 L6,10 Z"></path>
                                                            </g>
                                                        </g>
                                                    </svg>
