<svg class="share_mobile_image" width="41px" height="41px" viewBox="0 0 41 41" version="1.1" xmlns="http://www.w3.org/2000/svg" xmlns:xlink="http://www.w3.org/1999/xlink"> <g stroke="none" stroke-width="1" fill="none" fill-rule="evenodd"><g transform="translate(20.000000, 40.000000)" fill="#000000" fill-rule="nonzero">
                                                        <path d="M3.80541231,0.733566309 C3.63462065,0.768331909 3.46320341,0.800363209 3.2911606,0.829660009 C3.46320341,0.800363209 3.63462065,0.768331909 3.80541231,0.733566309 Z"></path>
                                                        <path d="M4.21549992,0.667739128 C4.13385771,0.686489128 4.05221558,0.703676628 3.97057345,0.721254728 C4.05221558,0.703676628 4.13385771,0.686489128 4.21549992,0.667739128 Z"></path>
                                                        <path d="M2.83321383,0.869625879 C2.6333313,0.897750879 2.43219755,0.922750879 2.23043823,0.943844579 C2.43219755,0.922750879 2.6333313,0.897750879 2.83321383,0.869625879 Z"></path>
                                                        <path d="M3.22703556,0.824372078 C3.13100435,0.840387778 3.03434757,0.855231478 2.9380035,0.869293978 C3.03434757,0.855231478 3.13100435,0.840387778 3.22703556,0.824372078 Z"></path>
                                                        <path d="M4.77354435,0.556694776 C4.70159912,0.575835376 4.62934111,0.594976076 4.55708309,0.613335376 C4.62934111,0.594976076 4.70159912,0.575835376 4.77354435,0.556694776 Z"></path>
                                                        <path d="M6.15864559,0.212219979 C6.10046387,0.232923079 6.04228214,0.252454379 5.98410034,0.272766879 C6.04228214,0.252454379 6.10046387,0.232923079 6.15864559,0.212219979 Z"></path>
                                                        <path d="M5.73979952,0.326589991 C5.67661283,0.347293091 5.61311336,0.368386891 5.54961397,0.388308691 C5.61311336,0.368386891 5.67661283,0.347683691 5.73979952,0.326589991 Z"></path>
                                                        <path d="M5.19176485,0.464104444 C5.1248245,0.483635744 5.05725859,0.501995044 4.98969267,0.520745044 C5.05725859,0.501995044 5.1248245,0.483635744 5.19176485,0.464104444 Z"></path>
                                                        <path d="M2.22386934,0.934042383 C2.11595158,0.945370483 2.00803373,0.955526783 1.89980318,0.964511083 C2.00803373,0.955526783 2.11595158,0.945370483 2.22386934,0.934042383 Z"></path>
                                                        <path d="M1.85444637,0.960322616 C1.64111328,0.977510016 1.42684176,0.991181916 1.21194458,1.00016632 C1.42684176,0.991181916 1.64111328,0.977510016 1.85444637,0.960322616 Z"></path>
                                                        <path d="M1.20099638,0.9957726 C1.08776095,1.00046 0.974212646,1.0039757 0.860664348,1.0063194 C0.974212646,1.0039757 1.08776095,1.00046 1.20099638,0.9957726 Z"></path>
                                                        </g>
                                                        <g transform="translate(3.000000, 3.000000)" fill="#09D261" fill-rule="nonzero">
                                                        <path d="M18.0045,0 L17.9955,0 C8.07075,0 0,8.073 0,18 C0,21.9375 1.269,25.587 3.42675,28.55025 L1.1835,35.23725 L8.10225,33.0255 C10.9485,34.911 14.34375,36 18.0045,36 C27.92925,36 36,27.92475 36,18 C36,8.07525 27.92925,0 18.0045,0 Z M28.47825,25.41825 C28.044,26.6445 26.3205,27.6615 24.94575,27.9585 C24.00525,28.15875 22.77675,28.3185 18.64125,26.604 C13.3515,24.4125 9.945,19.03725 9.6795,18.6885 C9.42525,18.33975 7.542,15.84225 7.542,13.25925 C7.542,10.67625 8.85375,9.4185 9.3825,8.8785 C9.81675,8.43525 10.5345,8.23275 11.223,8.23275 C11.44575,8.23275 11.646,8.244 11.826,8.253 C12.35475,8.2755 12.62025,8.307 12.969,9.14175 C13.40325,10.188 14.46075,12.771 14.58675,13.0365 C14.715,13.302 14.84325,13.662 14.66325,14.01075 C14.4945,14.37075 14.346,14.5305 14.0805,14.8365 C13.815,15.1425 13.563,15.3765 13.2975,15.705 C13.0545,15.99075 12.78,16.29675 13.086,16.8255 C13.392,17.343 14.4495,19.06875 16.0065,20.45475 C18.01575,22.2435 19.64475,22.815 20.2275,23.058 C20.66175,23.238 21.17925,23.19525 21.4965,22.85775 C21.89925,22.4235 22.3965,21.7035 22.90275,20.99475 C23.26275,20.48625 23.71725,20.42325 24.19425,20.60325 C24.68025,20.772 27.252,22.04325 27.78075,22.3065 C28.3095,22.572 28.65825,22.698 28.7865,22.92075 C28.9125,23.1435 28.9125,24.18975 28.47825,25.41825 Z"></path>
                                                        </g>
                                                        </g>
                                                        </svg>
