<svg xmlns="http://www.w3.org/2000/svg" width="16" height="16" viewBox="0 0 19.659 30.402"><g id="windows_phone" transform="translate(-63.248)"><path id="Path_4207" data-name="Path 4207" d="M167.047,313h-1.882a.258.258,0,0,0-.255.255v1.274a.258.258,0,0,0,.255.255h1.882a.258.258,0,0,0,.255-.255v-1.274A.258.258,0,0,0,167.047,313Z" transform="translate(-93.028 -286.414)" fill="#24272c"/><path id="Path_4208" data-name="Path 4208" d="M81.209,0H64.947a1.7,1.7,0,0,0-1.7,1.7V28.7a1.7,1.7,0,0,0,1.7,1.7H81.209a1.7,1.7,0,0,0,1.7-1.7V1.7A1.7,1.7,0,0,0,81.209,0ZM71.7,1.383h2.746a.425.425,0,1,1,0,.849H71.7a.425.425,0,0,1,0-.849ZM75.123,28.11a1.105,1.105,0,0,1-1.1,1.1H72.137a1.105,1.105,0,0,1-1.1-1.1V26.836a1.105,1.105,0,0,1,1.1-1.1h1.882a1.105,1.105,0,0,1,1.1,1.1V28.11Zm5.768-3.8a.426.426,0,0,1-.425.425H65.689a.426.426,0,0,1-.425-.425V3.846a.426.426,0,0,1,.425-.425H80.467a.426.426,0,0,1,.425.425Z" fill="#24272c"/><path id="Path_4209" data-name="Path 4209" d="M122.36,100.666a.585.585,0,0,0-.485-.115l-3.263.7a.582.582,0,0,0-.458.566v3.287a.58.58,0,0,0,.579.579H122a.58.58,0,0,0,.579-.579v-3.99A.579.579,0,0,0,122.36,100.666Z" transform="translate(-50.243 -92)" fill="#24272c"/><path id="Path_4210" data-name="Path 4210" d="M182.228,168.426h-4.134a.58.58,0,0,0-.579.579v4.176a.582.582,0,0,0,.457.566l4.137.889a.586.586,0,0,0,.119.012.579.579,0,0,0,.579-.579v-5.064A.58.58,0,0,0,182.228,168.426Z" transform="translate(-104.563 -154.122)" fill="#24272c"/><path id="Path_4211" data-name="Path 4211" d="M182.592,88a.585.585,0,0,0-.486-.116l-4.134.889a.582.582,0,0,0-.458.566v4.176a.58.58,0,0,0,.579.579h4.134a.58.58,0,0,0,.579-.579V88.452A.576.576,0,0,0,182.592,88Z" transform="translate(-104.563 -80.411)" fill="#24272c"/><path id="Path_4212" data-name="Path 4212" d="M122,168.426h-3.264a.58.58,0,0,0-.579.579v3.287a.582.582,0,0,0,.457.566l3.266.7a.586.586,0,0,0,.12.013.579.579,0,0,0,.579-.579V169A.58.58,0,0,0,122,168.426Z" transform="translate(-50.243 -154.122)" fill="#24272c"/></g></svg>
