<svg width="74" height="55" viewBox="0 0 74 55" fill="none" xmlns="http://www.w3.org/2000/svg">
<mask id="mask0_115_597" style="mask-type:luminance" maskUnits="userSpaceOnUse" x="0" y="0" width="74" height="55">
<path d="M73.3333 0H0V55H73.3333V0Z" fill="white"/>
</mask>
<g mask="url(#mask0_115_597)">
<path fill-rule="evenodd" clip-rule="evenodd" d="M45.4945 33.8296C41.233 36.9707 35.0562 38.6466 29.7381 38.6466C22.2812 38.6466 15.5681 35.8886 10.4894 31.3015C10.0904 30.9406 10.4479 30.4491 10.9267 30.73C16.4073 33.919 23.1847 35.8375 30.185 35.8375C35.2318 35.8141 40.2243 34.7933 44.8753 32.8339C45.5967 32.5275 46.2 33.3063 45.4946 33.8298" fill="white"/>
<path fill-rule="evenodd" clip-rule="evenodd" d="M47.2663 31.8026C46.7236 31.1067 43.6654 31.4738 42.2928 31.6365C41.8746 31.6876 41.8109 31.3237 42.1874 31.062C44.6231 29.3479 48.6196 29.8426 49.0857 30.4171C49.5513 30.995 48.9645 35.001 46.6756 36.9131C46.3245 37.2069 45.9893 37.0504 46.1457 36.6609C46.6598 35.3778 47.8121 32.5016 47.2663 31.8025" fill="white"/>
<path fill-rule="evenodd" clip-rule="evenodd" d="M42.3886 18.9606V17.2943C42.3872 17.2386 42.3971 17.1831 42.4178 17.1314C42.4385 17.0796 42.4695 17.0326 42.5089 16.9932C42.5483 16.9538 42.5953 16.9228 42.6471 16.9021C42.6988 16.8814 42.7543 16.8715 42.81 16.8729H50.27C50.3264 16.8708 50.3826 16.8801 50.4352 16.9004C50.4878 16.9207 50.5357 16.9515 50.576 16.991C50.6164 17.0304 50.6482 17.0776 50.6697 17.1298C50.6912 17.1819 50.7018 17.2379 50.701 17.2943V18.7212C50.6978 18.9606 50.4967 19.2734 50.1391 19.7682L46.2735 25.2872C47.71 25.2522 49.2263 25.466 50.5286 26.2002C50.6457 26.2639 50.7439 26.3574 50.8134 26.4711C50.8829 26.5849 50.9212 26.7149 50.9245 26.8482V28.6262C50.9245 28.8687 50.6563 29.1529 50.3754 29.0061C48.0803 27.8027 45.0318 27.6718 42.4941 29.0189C42.2354 29.1594 41.9641 28.8784 41.9641 28.6358V26.9474C41.9641 26.6758 41.9673 26.2132 42.2386 25.8014L46.7172 19.3788H42.8195C42.7633 19.3813 42.7072 19.3723 42.6547 19.3523C42.6021 19.3323 42.5542 19.3018 42.5139 19.2627C42.4735 19.2235 42.4416 19.1765 42.4201 19.1246C42.3985 19.0727 42.3878 19.0168 42.3886 18.9606ZM15.1755 29.3574H12.9057C12.803 29.3523 12.7056 29.3105 12.6312 29.2396C12.5568 29.1687 12.5104 29.0734 12.5003 28.9712V17.3234C12.5013 17.2671 12.5135 17.2117 12.5361 17.1601C12.5586 17.1086 12.5912 17.0621 12.6318 17.0232C12.6725 16.9843 12.7204 16.9539 12.7729 16.9336C12.8254 16.9134 12.8814 16.9037 12.9376 16.9052H15.054C15.1583 16.9086 15.2578 16.95 15.3337 17.0217C15.4096 17.0933 15.4566 17.1903 15.466 17.2943V18.8172H15.5075C16.0597 17.3456 17.0971 16.6594 18.4951 16.6594C19.9156 16.6594 20.8031 17.3457 21.4416 18.8172C21.9903 17.3455 23.2389 16.6592 24.5765 16.6592C25.5277 16.6592 26.5683 17.0519 27.2036 17.9328C27.9214 18.9126 27.775 20.3364 27.775 21.5847L27.7718 28.9361C27.7709 28.9925 27.7588 29.0482 27.7363 29.0999C27.7138 29.1517 27.6813 29.1985 27.6406 29.2376C27.6 29.2768 27.5521 29.3075 27.4995 29.3281C27.447 29.3487 27.3909 29.3587 27.3345 29.3575H25.068C24.9593 29.3518 24.8568 29.3052 24.781 29.227C24.7052 29.1489 24.6618 29.045 24.6594 28.9361V22.7626C24.6594 22.271 24.7041 21.045 24.5956 20.5791C24.4264 19.7969 23.9188 19.5767 23.261 19.5767C22.9663 19.5858 22.6808 19.681 22.4396 19.8506C22.1985 20.0203 22.0124 20.2569 21.9044 20.5312C21.6716 21.1187 21.6938 22.1017 21.6938 22.7623V28.9358C21.6928 28.9923 21.6807 29.0479 21.6582 29.0997C21.6357 29.1514 21.6032 29.1982 21.5625 29.2373C21.5219 29.2765 21.474 29.3072 21.4214 29.3278C21.3689 29.3484 21.3128 29.3584 21.2564 29.3572H18.9901C18.8812 29.352 18.7784 29.3056 18.7025 29.2273C18.6266 29.1491 18.5834 29.0448 18.5816 28.9358L18.5784 22.7623C18.5784 21.463 18.7918 19.551 17.1802 19.551C15.549 19.551 15.6128 21.4152 15.6128 22.7623V28.9358C15.6119 28.9923 15.5998 29.0479 15.5773 29.0997C15.5548 29.1514 15.5223 29.1982 15.4817 29.2373C15.441 29.2765 15.3931 29.3072 15.3406 29.3278C15.288 29.3484 15.2319 29.3584 15.1755 29.3572M57.1236 16.6591C60.4913 16.6591 62.314 19.5511 62.314 23.2286C62.314 26.7814 60.2998 29.6001 57.1235 29.6001C53.8164 29.6001 52.0161 26.708 52.0161 23.104C52.0161 19.4778 53.8388 16.6591 57.1236 16.6591ZM57.143 19.0372C55.4703 19.0372 55.3649 21.3167 55.3649 22.7369C55.3649 24.1606 55.3426 27.1995 57.1239 27.1995C58.8828 27.1995 58.9657 24.748 58.9657 23.2541C58.9657 22.2709 58.9242 21.0962 58.6274 20.1641C58.3721 19.3532 57.8645 19.0372 57.1433 19.0372M66.6809 29.3574H64.4207C64.312 29.3517 64.2095 29.3051 64.1337 29.2269C64.0579 29.1488 64.0145 29.0449 64.0121 28.936L64.009 17.2846C64.0214 17.1781 64.0731 17.0801 64.154 17.0098C64.2349 16.9395 64.3392 16.902 64.4463 16.9047H66.55C66.6437 16.908 66.7337 16.9415 66.8068 17.0002C66.8799 17.0589 66.932 17.1396 66.9554 17.2304V19.0117H66.9969C67.6322 17.4188 68.5227 16.6591 70.0901 16.6591C71.1086 16.6591 72.1012 17.0262 72.7396 18.0317C73.3333 18.9638 73.3333 20.5312 73.3333 21.658V28.9903C73.3168 29.0938 73.2635 29.188 73.1832 29.2554C73.1029 29.3228 73.0009 29.3591 72.8961 29.3574H70.62C70.5209 29.3521 70.4266 29.3126 70.3533 29.2457C70.28 29.1788 70.2321 29.0885 70.2177 28.9903V22.6635C70.2177 21.3899 70.3646 19.5256 68.7972 19.5256C68.245 19.5256 67.7374 19.896 67.4853 20.4578C67.166 21.1697 67.1245 21.8783 67.1245 22.6636V28.9361C67.1206 29.0505 67.0719 29.1588 66.9889 29.2376C66.9059 29.3164 66.7953 29.3595 66.6809 29.3575M36.4416 23.7934C36.4416 24.6776 36.464 25.415 36.017 26.2002C35.6564 26.8387 35.0819 27.2312 34.4465 27.2312C33.575 27.2312 33.0643 26.5674 33.0643 25.5873C33.0643 23.6528 34.7977 23.3018 36.4416 23.3018V23.7934ZM38.7304 29.3254C38.6571 29.3879 38.5665 29.4265 38.4707 29.4362C38.3749 29.4459 38.2785 29.4261 38.1942 29.3796C37.4408 28.754 37.3035 28.4634 36.8917 27.8664C35.6467 29.1371 34.7625 29.5168 33.1505 29.5168C31.2384 29.5168 29.754 28.3388 29.754 25.9799C29.754 24.138 30.7499 22.8835 32.1736 22.2706C33.4056 21.7279 35.1264 21.6321 36.4417 21.482V21.1888C36.4417 20.6493 36.4831 20.0108 36.1639 19.5448C35.8894 19.1266 35.3595 18.9543 34.8903 18.9543C34.0251 18.9543 33.2559 19.398 33.0676 20.3173C33.0288 20.5216 32.8792 20.7227 32.6717 20.7323L30.4723 20.4961C30.2873 20.4546 30.0797 20.3045 30.134 20.0208C30.6383 17.3518 33.0515 16.5474 35.2095 16.5474C36.314 16.5474 37.7568 16.8411 38.6283 17.6774C39.7327 18.7085 39.6275 20.0842 39.6275 21.5814V25.1182C39.6275 26.1813 40.068 26.6473 40.4829 27.2219C40.6267 27.4262 40.6585 27.672 40.4732 27.8253C40.0103 28.2115 39.1868 28.9297 38.7335 29.332L38.7303 29.3256M6.68759 23.7934C6.68759 24.6776 6.71 25.415 6.26302 26.2002C5.90236 26.8387 5.33093 27.2312 4.69256 27.2312C3.82109 27.2312 3.31348 26.5674 3.31348 25.5873C3.31348 23.6528 5.04691 23.3018 6.68759 23.3018V23.7934ZM8.97635 29.3254C8.90306 29.3879 8.81249 29.4265 8.7167 29.4362C8.6209 29.4459 8.52443 29.4261 8.44012 29.3796C7.68681 28.754 7.55265 28.4634 7.13768 27.8664C5.89266 29.1371 5.01179 29.5168 3.39642 29.5168C1.48752 29.5171 0 28.3392 0 25.9802C0 24.1383 0.999118 22.8838 2.41961 22.2705C3.65153 21.7278 5.37235 21.632 6.68769 21.4819V21.1888C6.68769 20.6493 6.72921 20.0108 6.41317 19.5448C6.13546 19.1266 5.60564 18.9543 5.13954 18.9543C4.27448 18.9543 3.50205 19.398 3.31358 20.3173C3.27526 20.5216 3.1253 20.7227 2.92092 20.7323L0.717813 20.4961C0.53351 20.4546 0.328836 20.3045 0.379859 20.02C0.887372 17.3518 3.29748 16.5474 5.45538 16.5474C6.55984 16.5474 8.00265 16.8411 8.87421 17.6774C9.97857 18.7085 9.87333 20.0842 9.87333 21.5814V25.1182C9.87333 26.1813 10.3138 26.6473 10.7288 27.2219C10.8756 27.4262 10.9076 27.672 10.7224 27.8253C10.2595 28.2115 9.43594 28.9297 8.98265 29.332L8.97625 29.3256" fill="white"/>
</g>
</svg>
