<svg width="74" height="55" viewBox="0 0 74 55" fill="none" xmlns="http://www.w3.org/2000/svg">
<mask id="mask0_115_748" style="mask-type:luminance" maskUnits="userSpaceOnUse" x="0" y="0" width="74" height="55">
<path d="M73.9998 0H0.666504V55H73.9998V0Z" fill="white"/>
</mask>
<g mask="url(#mask0_115_748)">
<path d="M42.2666 29.5826C42.2666 33.5493 39.0934 36.7722 35.2257 36.7722C31.3579 36.7722 28.1849 33.5492 28.1849 29.5826V23.4838C28.1849 23.4838 31.5563 24.3266 31.5563 27.8967V29.5826C31.5563 31.7642 33.1926 33.4997 35.2255 33.4997C37.2583 33.4997 38.8946 31.7642 38.8946 29.5826V26.1118C39.0431 23.1367 41.5719 22.1946 42.2168 21.8476H42.2664V29.5826H42.2666ZM24.1688 22.4426C25.1108 22.4426 26.0035 22.5913 26.7966 22.9384V26.7068C26.0598 26.0916 25.1286 25.7578 24.1688 25.7647C21.9377 25.7647 20.1529 27.5001 20.1529 29.6817V36.7725H16.7814V23.781C16.7814 23.781 18.1698 23.8306 19.0623 24.4752C20.3515 23.186 22.1857 22.4423 24.1692 22.4423M8.00492 33.549C5.77388 33.549 3.93899 31.7642 3.93899 29.5823C3.93899 27.4004 5.77369 25.6156 8.00492 25.6156C10.2362 25.6156 12.0708 27.4004 12.0708 29.5823C12.0708 31.7642 10.2362 33.549 8.00492 33.549ZM8.00492 22.4423C3.939 22.4423 0.666748 25.6653 0.666748 29.5822C0.666748 33.5489 3.93919 36.7221 8.00492 36.7221C9.61543 36.7308 11.1838 36.208 12.467 35.2347C13.2108 36.4743 15.3427 36.7221 15.3427 36.7221V29.5822C15.3427 25.6652 12.0703 22.4423 8.00454 22.4423M66.6615 33.549C64.4304 33.549 62.5956 31.7642 62.5956 29.5823C62.5956 27.4004 64.4304 25.6156 66.6615 25.6156C68.8925 25.6156 70.7274 27.4004 70.7274 29.5823C70.7274 31.7642 68.8929 33.549 66.6615 33.549ZM66.6615 22.4423C62.5956 22.4423 59.3235 25.6653 59.3235 29.5822C59.3235 33.5489 62.5959 36.7221 66.6615 36.7221C68.272 36.7308 69.8404 36.208 71.1236 35.2347C71.8674 36.4743 73.9995 36.7221 73.9995 36.7221V29.5822C73.9995 25.6652 70.7268 22.4423 66.6611 22.4423M51.0923 33.549C48.8613 33.549 47.0264 31.7642 47.0264 29.5823C47.0264 27.4004 48.8609 25.6156 51.0923 25.6156C53.3237 25.6156 55.1582 27.4004 55.1582 29.5823C55.2079 31.764 53.3734 33.549 51.0923 33.549ZM51.0923 22.4423C49.652 22.4484 48.2427 22.8608 47.0264 23.6323V22.4919C46.8777 19.5168 44.4479 18.5747 43.8033 18.2277H43.7537V36.7719C43.7537 36.7719 45.9352 36.5239 46.7783 35.3339C48.0179 36.1769 49.5054 36.7223 51.0923 36.7223C55.1582 36.7223 58.4305 33.4994 58.4305 29.5824C58.4802 25.6654 55.1579 22.4425 51.0923 22.4425" fill="white"/>
</g>
</svg>
