<svg width="74" height="55" viewBox="0 0 74 55" fill="none" xmlns="http://www.w3.org/2000/svg">
<mask id="mask0_115_795" style="mask-type:luminance" maskUnits="userSpaceOnUse" x="0" y="0" width="74" height="55">
<path d="M73.3335 0H0.00012207V55H73.3335V0Z" fill="white"/>
</mask>
<g mask="url(#mask0_115_795)">
<path d="M4.51645 35.8696C5.3063 35.9486 6.0458 36.2939 6.61335 36.8489C6.66004 36.8954 6.66516 36.9281 6.6243 36.9747C6.33384 37.3066 6.0434 37.6384 5.753 37.9702C5.6973 38.0337 5.65439 37.9907 5.61067 37.9498C5.0909 37.4611 4.36295 37.1556 3.65088 37.2725C1.15719 37.6168 1.50565 41.7985 4.11321 41.5764C4.71643 41.5501 5.27214 41.2395 5.69402 40.8186C5.75884 40.7425 5.78894 40.801 5.82939 40.8391C6.1415 41.1285 6.45402 41.4178 6.76193 41.7033C4.47201 44.3503 0.114066 42.6582 0.342106 39.1313C0.557141 36.987 2.38043 35.5767 4.51645 35.8694" fill="white"/>
<path d="M44.5665 10.0008C48.1867 9.92969 49.1242 14.9168 45.7011 16.1411C44.1646 16.6966 42.3285 15.8666 41.7602 14.3215C40.9234 12.3635 42.4499 10.0396 44.5665 10.0003" fill="white"/>
<path d="M62.4606 35.9575H63.9219C63.9649 38.2337 63.9648 40.5953 63.9219 42.8716C63.5543 42.8699 63.1865 42.8599 62.8193 42.871C62.7609 42.8749 62.7025 42.8628 62.6505 42.8359C62.5985 42.809 62.5548 42.7683 62.5243 42.7184C61.467 41.3247 60.4172 39.9253 59.3476 38.5406C59.2247 39.9273 59.3886 41.4634 59.2889 42.8707H57.8276C57.7845 40.5949 57.7845 38.2327 57.8276 35.9569C58.139 36.0047 59.1588 35.8471 59.2885 36.0726C60.3253 37.4333 61.3453 38.8066 62.4022 40.1523C62.5237 38.8094 62.3613 37.3197 62.4606 35.9572" fill="white"/>
<path d="M52.8934 39.2675C52.764 35.4685 47.3825 34.5681 45.8502 37.9537C44.8467 40.0908 46.353 42.802 48.742 42.9589C50.9221 43.2661 53.0134 41.5076 52.8934 39.2675ZM50.0962 41.4037C47.9376 42.4349 46.0853 39.4166 47.7903 37.7993C50.2129 35.6584 52.986 39.8865 50.0962 41.4037Z" fill="white"/>
<path d="M12.2467 40.1027C11.3631 40.0913 10.4795 40.102 9.59591 40.094C9.48747 40.093 9.46596 40.1247 9.46648 40.2271C9.47057 41.0611 9.46648 41.8951 9.47119 42.7291C9.4718 42.8369 9.44886 42.8741 9.33346 42.8724C8.90738 42.8653 8.4811 42.8669 8.05492 42.8717C7.96584 42.8727 7.94423 42.8475 7.94434 42.7602C7.94679 40.5317 7.94679 38.3032 7.94434 36.0748C7.94434 35.9805 7.96799 35.9555 8.0623 35.9566C8.49291 35.9618 8.92356 35.9618 9.35425 35.9566C9.45296 35.9552 9.47119 35.9889 9.47088 36.0795C9.47334 36.9444 9.45716 37.81 9.47641 38.6747C10.3513 38.7145 11.2438 38.673 12.1246 38.6914C12.2395 38.692 12.2637 38.6556 12.2632 38.5481C12.2769 37.6879 12.226 36.8073 12.28 35.9582H13.777C13.8106 38.2456 13.8126 40.5866 13.7763 42.8727H12.2807C12.2113 41.9674 12.3051 41.0162 12.247 40.1044" fill="white"/>
<path d="M15.6458 35.9572H20.8321C20.8854 36.3491 20.8288 36.7717 20.8534 37.1743C20.8555 37.284 20.8275 37.3176 20.7142 37.3168C19.5294 37.3258 18.3332 37.2887 17.1541 37.3283C17.138 37.7858 17.1355 38.2433 17.1555 38.7004C18.2276 38.758 19.3378 38.6667 20.4051 38.7332C20.4041 39.1276 20.3986 39.5216 20.4051 39.9163C20.4071 40.0335 20.3768 40.0684 20.2565 40.0679C19.2788 40.0631 18.3007 40.0651 17.3235 40.0651C17.1441 40.0651 17.1421 40.0651 17.1445 40.2511C17.1497 40.6673 17.131 41.0838 17.1542 41.5003C18.3908 41.5528 19.6546 41.4765 20.8917 41.5277C20.9215 41.9751 20.9194 42.424 20.8853 42.8711H15.6464C15.6092 40.5859 15.6111 38.2428 15.6457 35.9572" fill="white"/>
<path d="M29.4617 35.9566C29.9193 35.9573 30.3771 35.9612 30.8347 35.9566C30.938 35.9555 30.9684 35.979 30.9679 36.087C30.9631 37.0333 30.9652 37.9797 30.9652 38.9509C31.8366 38.0286 32.7162 37.1106 33.5622 36.1657C33.7122 35.9711 33.8694 35.9545 34.0735 35.9571C34.5713 35.9634 35.0693 35.9591 35.5653 35.9591C34.7306 36.9347 33.7309 37.8637 32.8437 38.8255C32.7799 38.8908 32.809 38.9289 32.8473 38.9805C33.8013 40.2809 34.7789 41.5616 35.7225 42.8701H34.8503C34.5915 42.8276 33.9604 42.9761 33.8211 42.7649C33.3431 42.0819 32.8401 41.4168 32.3499 40.7426C32.1644 40.4914 31.9826 40.2376 31.8043 39.9811C31.7674 39.9281 31.7497 39.9414 31.7159 39.9766C31.4769 40.2255 31.2374 40.4736 30.9974 40.7209C30.909 41.3728 30.9908 42.0738 30.968 42.7421C30.969 42.8501 30.9381 42.8736 30.8348 42.8725C30.3772 42.8675 29.9195 42.8715 29.4618 42.8725C29.4281 40.5839 29.4281 38.2459 29.4618 35.9574" fill="white"/>
<path d="M44.5638 38.1977C44.2827 35.3306 41.1533 36.019 39.0964 35.9828C39.0767 38.265 39.0767 40.5635 39.0964 42.8458C39.5816 42.9042 40.1004 42.8508 40.5974 42.8709C40.6762 42.2053 40.5732 41.479 40.6342 40.8015C41.4319 40.7816 42.2595 40.8808 43.0183 40.5827C44.0192 40.2558 44.641 39.231 44.5638 38.1977ZM43.0286 38.4564C42.9522 39.6195 41.6201 39.4483 40.7773 39.4552C40.6474 39.4588 40.5981 39.4347 40.6046 39.2898C40.619 38.6717 40.6067 38.0515 40.6068 37.4327C40.6058 37.3508 40.6273 37.3255 40.7116 37.3263C41.6104 37.333 43.0961 37.1239 43.0286 38.4564Z" fill="white"/>
<path d="M25.2448 37.2708C23.0478 37.537 22.951 41.0927 25.1147 41.5523C25.7459 41.6379 26.4049 41.527 26.9135 41.1197C27.0335 41.0742 27.3066 40.7168 27.4009 40.8301C27.6842 41.1168 27.9688 41.4023 28.2546 41.6865C28.4173 41.9333 27.1146 42.7036 26.8629 42.7638C24.741 43.5728 22.1469 42.2294 21.9647 39.8579C21.6882 37.9458 23.1129 36.0335 25.0673 35.8695C26.1946 35.725 27.3928 36.0456 28.2169 36.8576C28.2601 36.8942 28.2578 36.9202 28.2199 36.9637C27.9351 37.2883 27.6522 37.6147 27.3715 37.9427C27.3174 38.0057 27.2856 38.01 27.2133 37.9509C26.6758 37.4855 25.9677 37.1528 25.2449 37.2709" fill="white"/>
<path d="M65.3143 35.9571C67.2111 35.9895 69.1327 35.9191 71.0178 35.9826C71.0398 36.4398 71.0381 36.8978 71.0127 37.3548L71.0146 37.3529C70.3742 37.3963 69.7141 37.3569 69.0665 37.3659C68.9559 37.3649 68.9247 37.3945 68.9249 37.5064C68.9185 39.2853 68.9466 41.0704 68.9169 42.8463C68.4309 42.9025 67.9133 42.8517 67.417 42.8715C67.3491 41.1128 67.4159 39.2979 67.393 37.5199C67.393 37.3687 67.393 37.3685 67.2411 37.3685C66.636 37.3685 66.0309 37.3661 65.4258 37.3706C65.3234 37.3714 65.2876 37.3482 65.2895 37.2387C65.3178 36.8169 65.2508 36.3623 65.3147 35.9577" fill="white"/>
<path d="M55.8679 42.8714C55.4103 42.8695 54.9526 42.8649 54.4951 42.8678C54.4029 42.8684 54.3748 42.8473 54.3749 42.7507C54.3777 40.5256 54.3777 38.3006 54.3749 36.0757C54.3749 35.9775 54.4056 35.959 54.4965 35.9595C54.9541 35.9625 55.4119 35.9584 55.8696 35.9568C55.9094 38.2347 55.9137 40.5963 55.868 42.8713" fill="white"/>
<path d="M43.1165 22.4679C42.9483 26.4988 39.5444 30.085 35.5139 30.3809C30.8611 30.9543 26.3559 27.0719 26.3021 22.3701C26.2883 21.1581 26.4045 20.0304 26.8653 18.8952C27.3168 17.7936 27.9911 16.7972 28.846 15.9685C30.1925 14.6535 31.9428 13.8306 33.8144 13.6325C35.6861 13.4343 37.5699 13.8726 39.1619 14.8764C39.4589 15.0151 39.4774 15.0651 39.2222 15.279C39.1279 15.4067 39.0333 15.5341 38.9383 15.6613C38.6082 16.2199 38.5096 16.8561 38.5047 17.4879C38.5901 18.1148 38.8119 18.7818 39.2697 19.2878C39.4313 19.4665 39.4316 19.466 39.2794 19.6634C39.139 19.8458 39.0131 20.0401 38.8571 20.2104C38.246 21.0419 37.6155 21.8582 36.9978 22.6851C36.9501 22.8038 36.8108 22.6463 36.7273 22.6339C36.5655 22.6088 36.4121 22.5482 36.246 22.5315C36.0798 22.5151 35.9124 22.5144 35.7461 22.5295C35.5315 22.5526 35.3225 22.6127 35.1284 22.7071C35.0348 22.7462 34.9448 22.7933 34.8593 22.8478C34.7978 22.8907 34.7538 22.9714 34.6689 22.9666C34.6085 22.9632 34.5563 22.8974 34.5097 22.8625L34.3086 22.7127C33.91 22.4157 33.5128 22.1172 33.117 21.8171C33.0173 21.7416 32.9176 21.6662 32.8179 21.5907C32.803 21.5796 32.6403 21.4561 32.6793 21.4427C32.8654 21.2161 33.0269 20.9561 33.2258 20.7464C33.2164 20.7021 33.315 20.6583 33.2258 20.6138C32.5135 20.0782 31.7922 19.5542 31.0923 19.0027C31.0252 18.9505 30.977 18.9459 30.9187 19.0262C30.6999 19.3291 30.4752 19.6274 30.2499 19.9257C29.9607 20.3557 29.5302 20.7785 29.3052 21.2217C29.9862 21.7986 30.7635 22.3085 31.4649 22.8756C31.5277 22.9239 31.5651 22.944 31.6266 22.8519C31.7775 22.6253 31.9534 22.4154 32.1132 22.1942C32.1652 22.1225 32.2101 22.1241 32.2673 22.1761C32.5326 22.4177 32.8337 22.621 33.1198 22.8369C33.2899 22.9672 33.4618 23.0951 33.6327 23.2241L33.9003 23.4261C33.9408 23.4596 33.9834 23.4906 34.0277 23.5189C34.0667 23.5342 34.1019 23.5577 34.131 23.5878C34.1833 23.6563 34.1067 23.7414 34.0807 23.8121C33.9422 24.1656 33.9067 24.5512 33.9783 24.9241C34.4504 27.57 38.3117 27.0256 38.0769 24.3431C38.0425 24.0932 37.9663 23.8509 37.8516 23.6263C37.7971 23.4194 37.4949 23.2877 37.6916 23.0814C38.3638 22.2363 38.9799 21.3363 39.6618 20.5038C39.7344 20.4041 40.0387 19.8744 40.1368 19.9786C40.6442 20.2801 41.2387 20.3514 41.8101 20.3408C42.1415 20.316 42.4663 20.2354 42.7707 20.1023C42.8766 20.056 42.9038 20.0975 42.9184 20.1815C43.0878 20.9313 43.1539 21.7007 43.1148 22.4684" fill="white"/>
<path d="M72.769 35.9559C73.0359 35.8686 73.0482 36.3296 73.2222 36.3641C73.313 36.3679 73.3506 36.1789 73.4292 36.086C73.4778 36.0286 73.4922 35.9426 73.6011 35.9517C73.6757 35.9577 73.7011 35.9752 73.6999 36.0519C73.7009 36.3284 73.6871 36.6078 73.7062 36.8837C73.4177 37.0504 73.5713 36.5174 73.5322 36.3629C73.5315 36.3342 73.5585 36.2866 73.498 36.2797C73.1265 36.7917 73.32 36.7161 72.9268 36.2891V36.8951C72.9016 36.9069 72.8742 36.913 72.8465 36.9131C72.8188 36.9132 72.7913 36.9072 72.7661 36.8956L72.7671 36.897C72.7422 36.5838 72.7428 36.269 72.769 35.9559Z" fill="white"/>
<path d="M72.011 36.1167C71.9258 36.1035 71.8392 36.1027 71.7538 36.1145C71.7068 36.0646 71.7272 36.0097 71.742 35.9552L72.4927 35.9559C72.512 36.01 72.5311 36.0639 72.4835 36.1141C72.1992 36.0928 72.1992 36.0928 72.1992 36.3751C72.1992 36.5483 72.1992 36.7215 72.1992 36.8947C72.026 36.9284 72.0284 36.9279 72.0243 36.7586C72.0328 36.5446 72.0284 36.3302 72.0112 36.1167" fill="white"/>
</g>
</svg>
