<svg width="73" height="55" viewBox="0 0 73 55" fill="none" xmlns="http://www.w3.org/2000/svg">
<g clip-path="url(#clip0_115_544)">
<path d="M23.8479 33.8888H20.647V46.6315H23.8479V33.8888Z" fill="white"/>
<path d="M49.6572 37.5406C48.8325 37.0893 47.9075 36.8553 46.9684 36.8602C44.8949 36.8602 43.4603 38.3076 43.4603 40.2591C43.4603 42.1526 44.8351 43.6609 46.9684 43.6609C47.9068 43.6646 48.8312 43.4321 49.6572 42.9846V46.4048C48.7113 46.6978 47.728 46.8505 46.7382 46.8581C43.1398 46.8581 39.9836 44.3652 39.9836 40.2591C39.9836 36.4539 42.8428 33.663 46.7382 33.663C47.7287 33.6653 48.713 33.8196 49.6572 34.1203V37.5406Z" fill="white"/>
<path d="M16.2463 37.5406C15.4216 37.0893 14.4966 36.8553 13.5575 36.8602C11.484 36.8602 10.0494 38.3076 10.0494 40.2591C10.0494 42.1526 11.4243 43.6609 13.5575 43.6609C14.4959 43.6646 15.4203 43.4321 16.2463 42.9846V46.4048C15.3004 46.6978 14.3171 46.8505 13.3273 46.8581C9.72894 46.8581 6.57275 44.3652 6.57275 40.2591C6.57275 36.4539 9.43192 33.663 13.3273 33.663C14.3178 33.6653 15.3021 33.8196 16.2463 34.1203V37.5406Z" fill="white"/>
<path d="M59.7267 36.9077C57.8277 36.9077 56.4174 38.409 56.4174 40.2586C56.4174 42.1123 57.8278 43.6126 59.7267 43.6126C61.6238 43.6126 63.0381 42.1123 63.0381 40.2586C63.0381 38.409 61.6237 36.9077 59.7267 36.9077ZM66.4296 40.2586C66.4296 43.9039 63.6282 46.8576 59.7267 46.8576C55.8253 46.8576 53.0278 43.9038 53.0278 40.2586C53.0278 36.6194 55.8252 33.6625 59.7266 33.6625C63.6281 33.6625 66.4295 36.6193 66.4295 40.2586" fill="white"/>
<path d="M35.9864 36.7854C35.9387 36.7701 34.5913 36.3963 33.4841 36.3963C32.2015 36.3963 31.504 36.8281 31.504 37.4403C31.504 38.2163 32.4449 38.4873 32.9711 38.6544L33.8543 38.9366C35.9317 39.6005 36.8786 41.0298 36.8786 42.5818C36.8786 45.7829 34.0763 46.8586 31.6267 46.8586C30.4671 46.8481 29.3109 46.7315 28.1723 46.5104V43.578C28.4542 43.6493 29.7966 44.0517 31.1947 44.0517C32.7879 44.0517 33.5196 43.5841 33.5196 42.862C33.5196 42.2163 32.8859 41.8435 32.092 41.593C31.8983 41.5278 31.6074 41.4361 31.4087 41.3709C29.6263 40.8046 28.1399 39.7524 28.1399 37.6431C28.1399 35.2598 29.9166 33.6597 32.8666 33.6597C33.9186 33.674 34.9654 33.8101 35.9864 34.065V36.7854Z" fill="white"/>
<path d="M3.17859 20.1946C3.17859 19.7711 3.01115 19.3651 2.7131 19.0656C2.41505 18.7662 2.0108 18.598 1.58929 18.598C1.16779 18.598 0.763544 18.7662 0.465494 19.0656C0.167443 19.3651 0 19.7711 0 20.1946L0 23.5394C0 23.9628 0.167443 24.3689 0.465494 24.6683C0.763544 24.9677 1.16779 25.1359 1.58929 25.1359C2.0108 25.1359 2.41505 24.9677 2.7131 24.6683C3.01115 24.3689 3.17859 23.9628 3.17859 23.5394V20.1946Z" fill="white"/>
<path d="M11.9076 15.8042C11.9076 15.3808 11.7402 14.9747 11.4421 14.6753C11.144 14.3758 10.7398 14.2076 10.3183 14.2076C9.89679 14.2076 9.49255 14.3758 9.1945 14.6753C8.89645 14.9747 8.729 15.3808 8.729 15.8042V23.5399C8.729 23.9633 8.89645 24.3694 9.1945 24.6688C9.49255 24.9682 9.89679 25.1364 10.3183 25.1364C10.7398 25.1364 11.144 24.9682 11.4421 24.6688C11.7402 24.3694 11.9076 23.9633 11.9076 23.5399V15.8042Z" fill="white"/>
<path d="M20.6364 9.79748C20.6364 9.37405 20.4689 8.96796 20.1709 8.66855C19.8728 8.36914 19.4686 8.20093 19.0471 8.20093C18.6256 8.20093 18.2213 8.36914 17.9233 8.66855C17.6252 8.96796 17.4578 9.37405 17.4578 9.79748V26.7182C17.4578 27.1416 17.6252 27.5477 17.9233 27.8471C18.2213 28.1465 18.6256 28.3147 19.0471 28.3147C19.4686 28.3147 19.8728 28.1465 20.1709 27.8471C20.4689 27.5477 20.6364 27.1416 20.6364 26.7182V9.79748Z" fill="white"/>
<path d="M29.3656 15.8042C29.3656 15.3808 29.1982 14.9747 28.9001 14.6753C28.6021 14.3758 28.1978 14.2076 27.7763 14.2076C27.3548 14.2076 26.9506 14.3758 26.6525 14.6753C26.3545 14.9747 26.187 15.3808 26.187 15.8042V23.5399C26.187 23.9633 26.3545 24.3694 26.6525 24.6688C26.9506 24.9682 27.3548 25.1364 27.7763 25.1364C28.1978 25.1364 28.6021 24.9682 28.9001 24.6688C29.1982 24.3694 29.3656 23.9633 29.3656 23.5399V15.8042Z" fill="white"/>
<path d="M38.0845 20.1945C38.0845 19.7724 37.9176 19.3676 37.6205 19.0692C37.3234 18.7707 36.9204 18.603 36.5002 18.603C36.0801 18.603 35.6771 18.7707 35.38 19.0692C35.0829 19.3676 34.916 19.7724 34.916 20.1945V23.5393C34.916 23.9614 35.0829 24.3662 35.38 24.6646C35.6771 24.9631 36.0801 25.1308 36.5002 25.1308C36.9204 25.1308 37.3234 24.9631 37.6205 24.6646C37.9176 24.3662 38.0845 23.9614 38.0845 23.5393V20.1945Z" fill="white"/>
<path d="M38.0885 20.1946C38.0885 19.7711 37.9211 19.3651 37.623 19.0656C37.325 18.7662 36.9207 18.598 36.4992 18.598C36.0777 18.598 35.6735 18.7662 35.3754 19.0656C35.0774 19.3651 34.9099 19.7711 34.9099 20.1946V23.5394C34.9099 23.9628 35.0774 24.3689 35.3754 24.6683C35.6735 24.9677 36.0777 25.1359 36.4992 25.1359C36.9207 25.1359 37.325 24.9677 37.623 24.6683C37.9211 24.3689 38.0885 23.9628 38.0885 23.5394V20.1946Z" fill="white"/>
<path d="M46.8175 15.8042C46.8175 15.3808 46.6501 14.9747 46.352 14.6753C46.054 14.3758 45.6497 14.2076 45.2282 14.2076C44.8067 14.2076 44.4025 14.3758 44.1044 14.6753C43.8064 14.9747 43.6389 15.3808 43.6389 15.8042V23.5399C43.6389 23.9633 43.8064 24.3694 44.1044 24.6688C44.4025 24.9682 44.8067 25.1364 45.2282 25.1364C45.6497 25.1364 46.054 24.9682 46.352 24.6688C46.6501 24.3694 46.8175 23.9633 46.8175 23.5399V15.8042Z" fill="white"/>
<path d="M55.5463 9.79748C55.5463 9.37405 55.3788 8.96796 55.0808 8.66855C54.7827 8.36914 54.3785 8.20093 53.957 8.20093C53.5355 8.20093 53.1312 8.36914 52.8332 8.66855C52.5351 8.96796 52.3677 9.37405 52.3677 9.79748V26.7182C52.3677 27.1416 52.5351 27.5477 52.8332 27.8471C53.1312 28.1465 53.5355 28.3147 53.957 28.3147C54.3785 28.3147 54.7827 28.1465 55.0808 27.8471C55.3788 27.5477 55.5463 27.1416 55.5463 26.7182V9.79748Z" fill="white"/>
<path d="M64.2755 15.8042C64.2755 15.3808 64.1081 14.9747 63.81 14.6753C63.512 14.3758 63.1077 14.2076 62.6862 14.2076C62.2647 14.2076 61.8605 14.3758 61.5624 14.6753C61.2644 14.9747 61.0969 15.3808 61.0969 15.8042V23.5399C61.0969 23.9633 61.2644 24.3694 61.5624 24.6688C61.8605 24.9682 62.2647 25.1364 62.6862 25.1364C63.1077 25.1364 63.512 24.9682 63.81 24.6688C64.1081 24.3694 64.2755 23.9633 64.2755 23.5399V15.8042Z" fill="white"/>
<path d="M72.9944 20.1945C72.9944 19.7724 72.8275 19.3676 72.5304 19.0692C72.2333 18.7707 71.8303 18.603 71.4102 18.603C70.99 18.603 70.587 18.7707 70.2899 19.0692C69.9928 19.3676 69.8259 19.7724 69.8259 20.1945V23.5393C69.8259 23.9614 69.9928 24.3662 70.2899 24.6646C70.587 24.9631 70.99 25.1308 71.4102 25.1308C71.8303 25.1308 72.2333 24.9631 72.5304 24.6646C72.8275 24.3662 72.9944 23.9614 72.9944 23.5393V20.1945Z" fill="white"/>
<path d="M71.1687 44.9534V45.153H70.603V46.6307H70.3712V45.153H69.802V44.9534H71.1687Z" fill="white"/>
<path d="M71.2876 44.9534H71.6516L72.1514 46.3294H72.1595L72.6431 44.9534H73.0004V46.6307H72.7618V45.2559H72.7537L72.2467 46.6307H72.0267L71.5319 45.2559H71.5208V46.6307H71.2876V44.9534Z" fill="white"/>
</g>
<defs>
<clipPath id="clip0_115_544">
<rect width="73" height="55" fill="white"/>
</clipPath>
</defs>
</svg>
