<svg width="74" height="55" viewBox="0 0 74 55" fill="none" xmlns="http://www.w3.org/2000/svg">
<mask id="mask0_115_727" style="mask-type:luminance" maskUnits="userSpaceOnUse" x="0" y="0" width="74" height="55">
<path d="M73.6666 0H0.333252V55H73.6666V0Z" fill="white"/>
</mask>
<g mask="url(#mask0_115_727)">
<path d="M5.84368 30.5346C5.22095 30.7599 4.5624 30.8699 3.90025 30.8593C1.5239 30.8593 0.334983 29.7095 0.333496 27.4097C0.333496 25.2318 1.52242 24.1436 3.90025 24.145C4.56243 24.134 5.22105 24.244 5.84368 24.4697V25.5789C5.25806 25.329 4.62704 25.2031 3.99037 25.2092C2.39863 25.2092 1.60351 25.9426 1.605 27.4096C1.605 29.0014 2.40012 29.7965 3.99037 29.795C4.62704 29.801 5.25806 29.6751 5.84368 29.4252V30.5346Z" fill="white"/>
<path d="M6.48389 27.5091C6.48389 25.2635 7.59164 24.1407 9.80717 24.1407C11.9896 24.1407 13.0809 25.2635 13.0809 27.5091C13.0809 29.7412 11.9896 30.858 9.80717 30.8595C7.68787 30.8595 6.58011 29.7427 6.48389 27.5091ZM9.80717 29.7908C11.1419 29.7908 11.8093 29.0213 11.8093 27.4822C11.8093 25.9671 11.1419 25.2095 9.80717 25.2095C8.44086 25.2095 7.75697 25.9671 7.75548 27.4822C7.75548 29.0242 8.4409 29.7908 9.80717 29.7908Z" fill="white"/>
<path d="M14.0459 30.8098V24.1903H15.3175L17.5631 29.2135L19.7636 24.1903H20.9901V30.8144H19.8538V26.1971L18.0592 30.81H17.013L15.1777 26.1971V30.81L14.0459 30.8098Z" fill="white"/>
<path d="M22.3789 30.8098V24.1903H23.655L25.9006 29.2135L28.101 24.1903H29.3275V30.8144H28.1913V26.1971L26.3967 30.81H25.3505L23.5152 26.1971V30.81L22.3789 30.8098Z" fill="white"/>
<path d="M36.8216 24.1903L33.9177 30.8143H32.5965L29.8188 24.1903H31.2798L33.3265 29.2586L35.3733 24.1854H36.8207L36.8216 24.1903Z" fill="white"/>
<path d="M35.469 30.8097L38.2783 24.1857H39.5994L42.4717 30.8097H41.1506L40.3164 29.0015H38.2422L38.6661 27.9373H39.9963L38.914 25.4482L36.7315 30.8052H35.469V30.8097Z" fill="white"/>
<path d="M42.6387 28.208V24.1903H43.8652V28.208C43.8652 29.2632 44.4048 29.7908 45.4839 29.7908C46.5662 29.7908 47.1027 29.2632 47.1027 28.208V24.1903H48.3292V28.208C48.3292 29.9757 47.3792 30.8579 45.4794 30.8549C43.5811 30.8549 42.6387 29.9756 42.6387 28.208Z" fill="white"/>
<path d="M50.8002 24.1903V29.7456H53.8935V30.8098H49.5737V24.1903H50.8002Z" fill="white"/>
<path d="M58.2405 24.1903V25.2545H56.3421V30.8099H55.1156V25.2545H53.2173V24.1903H58.2405Z" fill="white"/>
<path d="M59.4578 24.4067C59.5171 24.4011 59.5763 24.4171 59.6247 24.4518C59.6432 24.4689 59.6576 24.49 59.667 24.5134C59.6763 24.5368 59.6804 24.562 59.6788 24.5871C59.6805 24.6105 59.677 24.634 59.6684 24.6558C59.6598 24.6776 59.6464 24.6973 59.6292 24.7132C59.5957 24.74 59.5548 24.7557 59.512 24.7583L59.6923 25.0379H59.5886L59.4172 24.7673H59.3135V25.0379H59.2144V24.4022H59.4578V24.4067ZM59.4173 24.6862H59.4804C59.4993 24.6861 59.5178 24.6814 59.5346 24.6728C59.5486 24.6647 59.5608 24.654 59.5706 24.6412C59.5809 24.6236 59.5856 24.6034 59.5842 24.583C59.5852 24.5655 59.5804 24.5481 59.5706 24.5335C59.5636 24.521 59.5525 24.5114 59.5391 24.5064C59.525 24.4993 59.5097 24.4947 59.494 24.4929C59.4778 24.4892 59.4611 24.4876 59.4445 24.4884H59.3137V24.6913H59.4174L59.4173 24.6862Z" fill="white"/>
<path d="M59.4129 24.1813C59.3059 24.1813 59.2013 24.213 59.1123 24.2725C59.0233 24.3319 58.954 24.4164 58.913 24.5153C58.8721 24.6142 58.8613 24.723 58.8822 24.8279C58.9031 24.9329 58.9546 25.0293 59.0303 25.1049C59.106 25.1806 59.2024 25.2322 59.3073 25.253C59.4123 25.2739 59.5211 25.2632 59.62 25.2222C59.7188 25.1813 59.8033 25.1119 59.8628 25.023C59.9222 24.934 59.954 24.8294 59.954 24.7224C59.9535 24.579 59.8964 24.4416 59.795 24.3402C59.6936 24.2389 59.5563 24.1817 59.4129 24.1813ZM59.4129 25.1868C59.321 25.1868 59.2313 25.1596 59.1549 25.1085C59.0785 25.0575 59.019 24.985 58.9838 24.9001C58.9487 24.8152 58.9395 24.7218 58.9574 24.6317C58.9753 24.5416 59.0195 24.4589 59.0845 24.3939C59.1494 24.329 59.2322 24.2848 59.3223 24.2668C59.4124 24.2489 59.5058 24.2581 59.5906 24.2933C59.6755 24.3284 59.748 24.3879 59.7991 24.4643C59.8501 24.5407 59.8773 24.6305 59.8773 24.7224C59.8774 24.7834 59.8655 24.8438 59.8422 24.9002C59.8189 24.9566 59.7847 25.0078 59.7415 25.051C59.6984 25.0941 59.6471 25.1283 59.5907 25.1516C59.5344 25.1749 59.4739 25.1869 59.4129 25.1868Z" fill="white"/>
<path d="M68.3413 21.4712L63.0159 24.542V30.4536L68.3413 33.5285L73.6667 30.4536V24.542L68.3413 21.4712ZM72.7468 29.926L68.3413 32.4692L63.9357 29.926V25.074L68.3413 22.5308L72.7468 25.074V29.926Z" fill="white"/>
<path d="M68.026 31.2426C68.0257 31.253 68.0227 31.2632 68.0173 31.2721C68.0119 31.281 68.0042 31.2883 67.9951 31.2933C67.986 31.2983 67.9757 31.3009 67.9653 31.3007C67.9549 31.3005 67.9447 31.2975 67.9358 31.2922L64.8375 29.5024C64.8105 29.4868 64.788 29.4645 64.7722 29.4376C64.7563 29.4107 64.7478 29.3802 64.7473 29.349V25.8861C64.7476 25.8757 64.7506 25.8655 64.756 25.8566C64.7614 25.8477 64.769 25.8404 64.7782 25.8354C64.7873 25.8303 64.7976 25.8278 64.808 25.828C64.8184 25.8282 64.8286 25.8311 64.8375 25.8365L67.9354 27.6267C67.9624 27.6422 67.9849 27.6646 68.0007 27.6914C68.0165 27.7183 68.0251 27.7489 68.0256 27.78L68.026 31.2426Z" fill="white"/>
<path d="M71.4525 25.3627L68.4854 27.0762C68.4496 27.0962 68.4092 27.1066 68.3682 27.1066C68.3272 27.1066 68.2868 27.0962 68.251 27.0762L65.2839 25.3627C65.2746 25.3575 65.267 25.35 65.2616 25.3409C65.2562 25.3318 65.2534 25.3214 65.2534 25.3108C65.2534 25.3003 65.2562 25.2899 65.2616 25.2808C65.267 25.2716 65.2746 25.2641 65.2839 25.259L68.251 23.5454C68.2868 23.5255 68.3272 23.515 68.3682 23.515C68.4092 23.515 68.4496 23.5255 68.4854 23.5454L71.4525 25.259C71.4609 25.2648 71.4677 25.2726 71.4724 25.2816C71.4771 25.2906 71.4795 25.3006 71.4795 25.3108C71.4795 25.321 71.4771 25.331 71.4724 25.3401C71.4677 25.3491 71.4609 25.3568 71.4525 25.3627Z" fill="white"/>
<path d="M71.4526 29.7411L68.7606 31.2923C68.7517 31.2976 68.7415 31.3006 68.7311 31.3008C68.7207 31.301 68.7104 31.2984 68.7013 31.2934C68.6921 31.2884 68.6845 31.2811 68.6791 31.2722C68.6737 31.2633 68.6707 31.2531 68.6704 31.2427V28.1358C68.6707 28.1254 68.6737 28.1153 68.6791 28.1064C68.6845 28.0975 68.6921 28.0901 68.7013 28.0851C68.7104 28.0801 68.7207 28.0776 68.7311 28.0778C68.7415 28.078 68.7517 28.0809 68.7606 28.0863L71.4526 29.6374C71.461 29.6432 71.4678 29.651 71.4725 29.66C71.4772 29.669 71.4797 29.6791 71.4797 29.6893C71.4797 29.6995 71.4772 29.7095 71.4725 29.7185C71.4678 29.7275 71.461 29.7353 71.4526 29.7411Z" fill="white"/>
</g>
</svg>
