<svg width="74" height="55" viewBox="0 0 74 55" fill="none" xmlns="http://www.w3.org/2000/svg">
<mask id="mask0_115_699" style="mask-type:luminance" maskUnits="userSpaceOnUse" x="0" y="0" width="74" height="55">
<path d="M73.6668 0H0.333496V55H73.6668V0Z" fill="white"/>
</mask>
<g mask="url(#mask0_115_699)">
<path d="M21.6718 27.2298C21.6718 25.3697 20.4376 24.3131 18.6902 24.3131H17.6209V30.1486H18.6598C20.2845 30.1486 21.6718 29.2658 21.6718 27.2298ZM40.6938 29.3294L32.8158 35.5328L25.6155 29.8641C24.5765 32.3599 22.0659 34.0934 19.1745 34.0934H13.0127V20.3662H19.1745C22.4053 20.3662 24.7333 22.4206 25.6134 24.6093L32.8155 18.9465L35.4831 21.046L28.8827 26.2341L30.1513 27.2269L36.75 22.0419L39.4215 24.1354L32.8217 29.3293L34.0883 30.3242L40.6941 25.1293V20.3665H45.4828V30.0867H50.2596V34.1101H40.6939V29.3293L40.6938 29.3294ZM56.3255 30.089H61.1004V34.1105H51.5319V20.3662H56.3254L56.3255 30.089Z" fill="white"/>
</g>
</svg>
