<svg width="74" height="55" viewBox="0 0 74 55" fill="none" xmlns="http://www.w3.org/2000/svg">
<mask id="mask0_115_707" style="mask-type:luminance" maskUnits="userSpaceOnUse" x="0" y="0" width="74" height="55">
<path d="M74.0001 0H0.666748V55H74.0001V0Z" fill="white"/>
</mask>
<g mask="url(#mask0_115_707)">
<path d="M0.666748 20.1068V31.936L3.62404 28.9665V23.0641H14.5V20.1068H0.666748Z" fill="white"/>
<path d="M6.5813 26.0092H12.5448V28.9664H6.5813V26.0092Z" fill="white"/>
<path d="M0.666748 31.9237L3.62404 34.8932H14.5V31.9237H0.666748Z" fill="white"/>
<path d="M20.4268 23.0641H26.8424V23.9806H21.4288V27.0112H26.268V27.9277H21.4288V31.0317H26.9035V31.9482H20.4268V23.0641Z" fill="white"/>
<path d="M30.7406 28.5997L28.2599 25.3737H29.3841L31.3269 27.9151L33.2699 25.3737H34.3575L31.8646 28.5632L34.4553 31.9237H33.319L31.2904 29.2475L29.2618 31.9237H28.1743L30.7406 28.5997Z" fill="white"/>
<path d="M36.3862 30.1884V26.229H35.4697V25.3735H36.3862V23.4062H37.3638V25.386H39.4534V26.2413H37.3639V30.0662C37.3639 30.8605 37.816 31.1538 38.4637 31.1538C38.7958 31.157 39.1234 31.0772 39.4168 30.9216V31.7648C39.0499 31.9521 38.6434 32.0486 38.2315 32.0461C37.1805 32.0339 36.3862 31.5206 36.3862 30.1886" fill="white"/>
<path d="M41.1643 25.3737H42.1419V27.0845C42.6307 25.9969 43.5717 25.2027 44.8181 25.2637V26.3146H44.7447C43.3149 26.3146 42.1419 27.3411 42.1419 29.3208V31.9359H41.1643V25.3737Z" fill="white"/>
<path d="M50.8185 28.2577C50.7085 27.0601 50.0241 26.0461 48.7289 26.0461C47.5924 26.0461 46.7369 26.9747 46.6026 28.2577H50.8185ZM48.9121 31.2268C49.8163 31.2268 50.4518 30.8603 50.9773 30.3104L51.5884 30.8603C50.9288 31.5935 50.122 32.0945 48.8878 32.0945C47.0792 32.0945 45.625 30.7136 45.625 28.6729C45.625 26.7787 46.957 25.2512 48.7656 25.2512C50.7087 25.2512 51.8207 26.7909 51.8207 28.7218C51.8207 28.8195 51.8207 28.9051 51.8085 29.0639H46.6143C46.7488 30.4326 47.7508 31.227 48.9117 31.227L48.9121 31.2268Z" fill="white"/>
<path d="M53.5313 25.3737H54.5089V26.4735C54.9365 25.8258 55.5231 25.2271 56.6229 25.2271C57.6861 25.2271 58.3704 25.8014 58.7248 26.5346C59.1891 25.8136 59.8857 25.2271 61.0221 25.2271C62.5257 25.2271 63.454 26.2413 63.454 27.8543V31.9114H62.4765V28.0866C62.4765 26.8279 61.841 26.1069 60.7779 26.1069C59.7885 26.1069 58.9571 26.8401 58.9571 28.1355V31.9114H57.9917V28.0498C57.9917 26.8156 57.344 26.1068 56.3053 26.1068C55.2666 26.1068 54.4845 26.9622 54.4845 28.1719V31.8991H53.5068L53.5313 25.3735V25.3737Z" fill="white"/>
<path d="M70.334 28.2577C70.224 27.0601 69.5397 26.0461 68.2444 26.0461C67.1079 26.0461 66.2525 26.9747 66.1181 28.2577H70.334ZM68.4154 31.2268C69.3198 31.2268 69.9551 30.8603 70.4807 30.3104L71.0918 30.8603C70.4322 31.5935 69.6253 32.0945 68.3912 32.0945C66.5948 32.0945 65.1284 30.7136 65.1284 28.6729C65.1284 26.7787 66.4604 25.2512 68.269 25.2512C70.2121 25.2512 71.3241 26.7909 71.3241 28.7218C71.3241 28.8195 71.3241 28.9051 71.3119 29.0639H66.1176C66.2399 30.4326 67.2663 31.227 68.415 31.227L68.4154 31.2268Z" fill="white"/>
<path d="M72.0204 24.6771H71.6416V24.4816H72.5947V24.6771H72.216V25.6665H72.0082V24.6771H72.0204Z" fill="white"/>
<path d="M72.8269 24.4816H73.0469L73.4135 25.0442L73.7801 24.4816H74.0001V25.6669H73.7923V24.8114L73.4135 25.374H73.4013L73.0225 24.8241V25.6673H72.8147L72.8269 24.482V24.4816Z" fill="white"/>
</g>
</svg>
