<svg width="74" height="55" viewBox="0 0 74 55" fill="none" xmlns="http://www.w3.org/2000/svg">
<mask id="mask0_115_755" style="mask-type:luminance" maskUnits="userSpaceOnUse" x="0" y="0" width="74" height="55">
<path d="M73.3333 0H0V55H73.3333V0Z" fill="white"/>
</mask>
<g mask="url(#mask0_115_755)">
<path d="M47.5496 31.6222H45.5311V23.3844L52.0229 23.3897C52.0229 23.3897 53.2115 23.3454 53.9676 24.0924C53.9676 24.0924 54.7394 24.7369 54.7394 26.312V31.6208H52.7261V26.1748C52.7261 26.1748 52.7509 25.6192 52.5612 25.4243C52.5 25.3567 52.4251 25.3028 52.3415 25.2663C52.2578 25.2298 52.1674 25.2115 52.0762 25.2126H47.5446L47.5489 31.6193L47.5496 31.6222ZM56.1422 31.6207V23.3905H64.2427V25.2212H58.1484V26.6204H62.3822V28.3881H58.1485V29.7924H64.2806V31.6236H56.1375L56.1422 31.6207ZM42.0135 31.6207V23.3905H44.0235V31.6236H42.0136L42.0135 31.6207ZM67.1363 31.6208V25.2187H65.2388V23.3882H72.7856V25.2187H69.1477V31.6208H67.1376H67.1363ZM35.3752 31.6208V25.2187H33.4778V23.3882H41.0246V25.2187H37.3865V31.6208H35.3765H35.3752ZM29.3139 26.6147C29.8051 26.6109 30.0989 26.6147 30.2172 26.5431C30.2792 26.5054 30.3307 26.4528 30.3672 26.3901C30.4036 26.3275 30.4238 26.2566 30.426 26.1842V25.6457C30.4246 25.5731 30.4047 25.502 30.3682 25.4392C30.3316 25.3763 30.2797 25.3239 30.2172 25.2868C30.0605 25.2016 29.7949 25.2176 29.1645 25.2171H25.2489V26.6146H29.3138L29.3139 26.6147ZM30.397 31.6208V28.8111C30.3966 28.738 30.3769 28.6663 30.3398 28.6033C30.3027 28.5403 30.2496 28.4883 30.1858 28.4526C30.0906 28.3935 29.8054 28.3829 29.3856 28.3829H25.2489V31.6203H23.239V23.3901H29.5131C30.5966 23.3934 31.3447 23.5528 31.8599 24.053C32.3662 24.5688 32.4334 25.2435 32.4362 25.9457V26.532C32.4332 26.8095 32.3708 27.0831 32.2534 27.3345C32.136 27.586 31.9662 27.8094 31.7554 27.9898L31.8305 28.0271C31.9205 28.07 32.0008 28.1307 32.0666 28.2057C32.3511 28.5689 32.3479 28.8814 32.3469 29.2655V31.6227H30.3972L30.397 31.6208ZM0.000970018 23.3877V31.6184H2.01094V28.3839H8.10052V26.6155H2.01094V25.2165H9.08945V23.3854H0L0.000970018 23.3877Z" fill="white"/>
<path d="M72.1068 30.1649V30.5432H72.4587C72.5538 30.5432 72.6462 30.5172 72.6603 30.3758C72.6804 30.1882 72.545 30.1652 72.4587 30.1652L72.1068 30.1649ZM71.9654 30.0407H72.4556C72.6259 30.0407 72.7903 30.0726 72.8048 30.3205C72.8113 30.3754 72.801 30.4311 72.7752 30.4801C72.7494 30.5291 72.7094 30.5691 72.6604 30.5949C72.7734 30.667 72.7768 30.6842 72.7935 30.8746C72.8048 31.019 72.7846 31.0421 72.8456 31.1372H72.6782L72.6551 30.9988C72.632 30.8687 72.6954 30.667 72.4676 30.667H72.1069V31.1372H71.9655V30.0404L71.9654 30.0407ZM72.334 29.7379C72.1601 29.7385 71.9903 29.7907 71.846 29.8878C71.7017 29.9849 71.5894 30.1226 71.5233 30.2834C71.4572 30.4443 71.4402 30.6212 71.4745 30.7917C71.5089 30.9622 71.593 31.1187 71.7162 31.2414C71.8394 31.3642 71.9962 31.4477 72.1668 31.4814C72.3375 31.5151 72.5143 31.4975 72.6749 31.4307C72.8355 31.364 72.9728 31.2512 73.0693 31.1066C73.1659 30.9619 73.2174 30.7919 73.2174 30.618C73.2178 30.502 73.1952 30.3871 73.151 30.2799C73.1067 30.1727 73.0416 30.0754 72.9594 29.9936C72.8772 29.9117 72.7797 29.847 72.6723 29.8031C72.565 29.7592 72.45 29.737 72.334 29.7379ZM72.3368 31.6125C72.14 31.6124 71.9477 31.554 71.7841 31.4446C71.6205 31.3351 71.4931 31.1797 71.4178 30.9978C71.3426 30.816 71.323 30.6159 71.3615 30.4229C71.4 30.2299 71.4948 30.0526 71.6341 29.9135C71.7733 29.7744 71.9506 29.6798 72.1437 29.6415C72.3367 29.6032 72.5368 29.623 72.7186 29.6984C72.9003 29.7738 73.0557 29.9014 73.1649 30.0651C73.2742 30.2288 73.3325 30.4212 73.3324 30.618C73.3325 30.7486 73.3068 30.878 73.2569 30.9987C73.2069 31.1194 73.1337 31.2291 73.0413 31.3215C72.9489 31.4139 72.8392 31.4871 72.7185 31.5371C72.5977 31.587 72.4684 31.6126 72.3377 31.6125" fill="white"/>
<path d="M20.475 31.7026C21.128 31.4808 21.6362 30.7288 21.7583 29.7834V29.5103H18.4106V31.7025H20.4745L20.475 31.7026ZM21.7588 25.4899V25.2428C21.6304 24.256 21.0843 23.4788 20.3884 23.2961H18.411V25.4897H21.7587L21.7588 25.4899ZM9.97693 29.5105V29.7814C10.0982 30.7277 10.6063 31.481 11.2611 31.7029H13.3145V29.5107H9.97693V29.5105ZM11.3467 23.2979C10.6516 23.4806 10.1042 24.2582 9.97693 25.2464V25.4918H13.3145V23.2982H11.3467V23.2979ZM21.7611 26.4047H18.4135V28.5983H21.7611V26.4047ZM14.2283 31.7041H17.5031V29.5118H14.2283V31.7041ZM17.5031 23.2957H14.2283V25.4895H17.5031V23.2957ZM9.97974 28.5953H13.3175V26.4017H9.97974V28.5953Z" fill="white"/>
</g>
</svg>
