<svg width="74" height="55" viewBox="0 0 74 55" fill="none" xmlns="http://www.w3.org/2000/svg">
<mask id="mask0_115_811" style="mask-type:luminance" maskUnits="userSpaceOnUse" x="0" y="0" width="74" height="55">
<path d="M73.6668 0H0.333496V55H73.6668V0Z" fill="white"/>
</mask>
<g mask="url(#mask0_115_811)">
<path d="M28.3478 10.2324H36.7537V18.6384H28.3478V10.2324Z" fill="white"/>
<path d="M37.5942 10.2324H46.0002V18.6384H37.5942V10.2324Z" fill="white"/>
<path d="M28.3478 19.479H36.7537V27.8849H28.3478V19.479Z" fill="white"/>
<path d="M37.5942 19.479H46.0002V27.8849H37.5942V19.479Z" fill="white"/>
<path d="M63.0002 37.298V36.0374H61.4285V34.0775L61.3756 34.0937L59.8994 34.5436L59.8703 34.5524V36.0374H57.5403V35.2102C57.5403 34.825 57.6268 34.5302 57.7972 34.3336C57.9664 34.1394 58.2085 34.0407 58.5172 34.0407C58.7392 34.0407 58.969 34.0928 59.2002 34.1955L59.2582 34.2212V32.8936L59.231 32.8836C59.0152 32.8064 58.7217 32.7675 58.358 32.7675C57.8996 32.7675 57.483 32.8668 57.1198 33.0637C56.7563 33.2609 56.4704 33.5424 56.2701 33.9004C56.0705 34.258 55.9692 34.6709 55.9692 35.1279V36.0374H54.8748V37.298H55.9692V42.6089H57.5403V37.298H59.8703V40.673C59.8703 42.063 60.5286 42.7675 61.8267 42.7675C62.04 42.7675 62.2645 42.7425 62.4938 42.6937C62.7271 42.6437 62.886 42.5937 62.9795 42.5403L63.0002 42.5281V41.2558L62.9364 41.2979C62.8511 41.3546 62.7449 41.4008 62.6204 41.4351C62.4953 41.4701 62.3909 41.4877 62.3101 41.4877C62.0059 41.4877 61.781 41.4061 61.6413 41.245C61.5002 41.0825 61.4285 40.7982 61.4285 40.4006V37.298H63.0002ZM51.3663 41.4879C50.796 41.4879 50.3465 41.2995 50.0296 40.9285C49.7109 40.5556 49.5494 40.024 49.5494 39.3486C49.5494 38.6518 49.7109 38.1064 50.0298 37.727C50.3468 37.35 50.7921 37.1587 51.3535 37.1587C51.8983 37.1587 52.3319 37.3414 52.6425 37.7021C52.9547 38.0646 53.1131 38.6056 53.1131 39.3106C53.1131 40.0242 52.9641 40.5724 52.6703 40.939C52.3786 41.303 51.9399 41.4879 51.3663 41.4879ZM51.4363 35.8791C50.3483 35.8791 49.4842 36.1966 48.8681 36.8228C48.2525 37.4492 47.9402 38.3159 47.9402 39.3992C47.9402 40.428 48.245 41.2556 48.846 41.8586C49.4471 42.4618 50.2651 42.7673 51.2771 42.7673C52.3317 42.7673 53.1786 42.4454 53.7945 41.8105C54.4102 41.1762 54.7222 40.3177 54.7222 39.2597C54.7222 38.2147 54.4295 37.3809 53.8518 36.782C53.2739 36.1828 52.461 35.8791 51.4363 35.8791ZM45.4071 35.879C44.6671 35.879 44.055 36.0676 43.5873 36.4393C43.1169 36.8133 42.8783 37.3038 42.8783 37.8973C42.8783 38.2057 42.9298 38.4798 43.0312 38.7122C43.1332 38.9455 43.291 39.1507 43.5007 39.323C43.7088 39.494 44.0299 39.673 44.4556 39.8551C44.8134 40.0018 45.0803 40.1259 45.2498 40.2237C45.4155 40.3195 45.5331 40.4159 45.5995 40.5097C45.664 40.6014 45.6968 40.727 45.6968 40.8822C45.6968 41.3237 45.3649 41.5384 44.6819 41.5384C44.4286 41.5384 44.1396 41.4858 43.823 41.3819C43.5062 41.2781 43.2103 41.129 42.9435 40.9377L42.8783 40.8911V42.3977L42.9022 42.4088C43.1245 42.511 43.4048 42.5971 43.7351 42.665C44.0648 42.7329 44.3643 42.7675 44.6246 42.7675C45.4277 42.7675 46.0743 42.578 46.5462 42.204C47.0211 41.8275 47.2618 41.3255 47.2618 40.7114C47.2618 40.2684 47.1322 39.8885 46.8768 39.5822C46.6232 39.2783 46.183 38.9994 45.569 38.7528C45.0798 38.5572 44.7665 38.3949 44.6373 38.2703C44.5126 38.1499 44.4494 37.9797 44.4494 37.7641C44.4494 37.573 44.5274 37.4199 44.6878 37.2959C44.8494 37.1712 45.0743 37.1079 45.3564 37.1079C45.6182 37.1079 45.886 37.149 46.1523 37.2297C46.4185 37.3104 46.6523 37.4185 46.8474 37.5508L46.9116 37.5945V36.1653L46.887 36.1548C46.7069 36.0779 46.4695 36.0121 46.1812 35.9587C45.894 35.9058 45.6336 35.879 45.4071 35.879ZM38.7825 41.4879C38.2124 41.4879 37.7627 41.2995 37.4459 40.9285C37.1271 40.5556 36.9658 40.0242 36.9658 39.3486C36.9658 38.6518 37.1272 38.1064 37.4463 37.727C37.763 37.35 38.2082 37.1587 38.7699 37.1587C39.3145 37.1587 39.7481 37.3414 40.0588 37.7021C40.371 38.0646 40.5294 38.6056 40.5294 39.3106C40.5294 40.0242 40.3803 40.5724 40.0865 40.939C39.7948 41.303 39.3563 41.4879 38.7825 41.4879ZM38.8526 35.8791C37.7644 35.8791 36.9003 36.1966 36.2845 36.8228C35.6688 37.4492 35.3564 38.3159 35.3564 39.3992C35.3564 40.4285 35.6613 41.2556 36.2624 41.8586C36.8635 42.4618 37.6814 42.7673 38.6935 42.7673C39.7478 42.7673 40.595 42.4454 41.2108 41.8105C41.8264 41.1762 42.1386 40.3177 42.1386 39.2597C42.1386 38.2147 41.8458 37.3809 41.268 36.782C40.6899 36.1828 39.8772 35.8791 38.8526 35.8791ZM32.9715 37.1754V36.0374H31.4196V42.6087H32.9715V39.2473C32.9715 38.6756 33.1016 38.2061 33.3584 37.8514C33.6118 37.501 33.9497 37.3234 34.3621 37.3234C34.5018 37.3234 34.6587 37.3463 34.8287 37.3917C34.9969 37.4369 35.1187 37.4859 35.1906 37.5375L35.2558 37.5845V36.0261L35.2306 36.0154C35.0861 35.9542 34.8817 35.9233 34.623 35.9233C34.233 35.9233 33.884 36.0481 33.585 36.2939C33.3227 36.5099 33.133 36.8061 32.988 37.1754H32.9715ZM28.6404 35.879C27.9285 35.879 27.2934 36.0312 26.7531 36.3309C26.2119 36.6313 25.7933 37.0603 25.5085 37.6058C25.2249 38.1499 25.081 38.7855 25.081 39.4943C25.081 40.1152 25.2206 40.685 25.4965 41.1871C25.7725 41.6901 26.1632 42.0837 26.6578 42.3566C27.1516 42.6292 27.7224 42.7675 28.3544 42.7675C29.0919 42.7675 29.7216 42.6205 30.2265 42.3309L30.2468 42.3192V40.9031L30.1816 40.9505C29.953 41.1164 29.6974 41.2489 29.4224 41.3443C29.1481 41.4396 28.898 41.4878 28.6788 41.4878C28.0698 41.4878 27.581 41.298 27.2261 40.9239C26.8705 40.5492 26.6901 40.0231 26.6901 39.3611C26.6901 38.6949 26.8782 38.1553 27.2488 37.7571C27.6182 37.3601 28.108 37.1588 28.7044 37.1588C29.2145 37.1588 29.7116 37.3308 30.1818 37.6706L30.2468 37.7177V36.2255L30.2259 36.2137C30.0489 36.1151 29.8075 36.0336 29.5078 35.9718C29.2095 35.9102 28.9177 35.879 28.6404 35.879ZM24.0122 36.0374H22.4602V42.6088H24.0122V36.0374ZM23.252 33.238C22.9966 33.238 22.7738 33.3246 22.5908 33.4962C22.407 33.6683 22.3137 33.885 22.3137 34.1407C22.3137 34.3924 22.4059 34.6051 22.5879 34.7727C22.7687 34.9397 22.9922 35.0244 23.252 35.0244C23.5118 35.0244 23.7361 34.9397 23.9191 34.773C24.1034 34.6051 24.1967 34.3924 24.1967 34.1407C24.1967 33.8939 24.1059 33.6794 23.9267 33.5031C23.7478 33.3272 23.5207 33.238 23.252 33.238ZM19.3799 35.5526V42.6087H20.9637V33.4392H18.7717L15.9854 40.25L13.2815 33.4392H11.0002V42.6087H12.4886V35.5519H12.5398L15.395 42.6087H16.5182L19.3288 35.5526H19.3799Z" fill="white"/>
</g>
</svg>
