<svg width="74" height="55" viewBox="0 0 74 55" fill="none" xmlns="http://www.w3.org/2000/svg">
<mask id="mask0_115_606" style="mask-type:luminance" maskUnits="userSpaceOnUse" x="0" y="0" width="74" height="55">
<path d="M73.6666 0H0.333252V55H73.6666V0Z" fill="white"/>
</mask>
<g mask="url(#mask0_115_606)">
<path d="M10 37H12.0213L16.6912 43.0506V37H18.859V46.7805H16.9981L12.1678 40.6076V46.7807H10V37.0002M25.2924 42.4796C25.1669 41.54 24.5956 40.9007 23.6894 40.9007C22.7903 40.9007 22.2048 41.5268 22.0305 42.4796H25.2924ZM19.9116 43.1058V43.0785C19.9116 40.9551 21.466 39.2127 23.6894 39.2127C26.2334 39.2127 27.4044 41.1388 27.4044 43.2419C27.4044 43.412 27.3901 43.6027 27.3765 43.8H22.0653C22.2814 44.7529 22.9575 45.2566 23.9263 45.2566C24.6581 45.2566 25.181 45.0324 25.7804 44.4941L27.0142 45.5625C26.3103 46.4201 25.2786 46.9443 23.8986 46.9443C21.6055 46.9443 19.9117 45.379 19.9117 43.1055M28.757 44.6706V41.1521H27.844V39.3476H28.757V37.4493H30.9178V39.3476H32.7161V41.1521H30.9178V44.3233C30.9178 44.8133 31.1339 45.0447 31.6149 45.0447C31.9892 45.0471 32.3582 44.9582 32.6883 44.7861V46.4741C32.1691 46.7708 31.5751 46.9193 30.9737 46.9029C29.6563 46.9029 28.7571 46.3923 28.7571 44.6704M49.9393 43.0786V43.0514C49.9393 41.8195 49.0821 40.996 48.0713 40.996C47.0605 40.996 46.2241 41.8196 46.2241 43.0514V43.0786C46.2241 44.3106 47.0606 45.134 48.0713 45.134C49.082 45.134 49.9389 44.3244 49.9389 43.0787L49.9393 43.0786ZM44.0846 39.3489H46.2521V40.4175C46.7749 39.7235 47.4998 39.2129 48.6289 39.2129C50.4064 39.2129 52.1 40.5672 52.1 43.0515V43.0787C52.1 45.5629 50.4341 46.9174 48.629 46.9174C47.4719 46.9174 46.761 46.4069 46.2522 45.8148V49H44.0842V39.349M58.8392 43.0787V43.0515C58.8392 41.8196 57.9821 40.9961 56.9713 40.9961C55.9605 40.9961 55.1173 41.8197 55.1173 43.0515V43.0787C55.1173 44.3107 55.9607 45.1341 56.9713 45.1341C57.9818 45.1341 58.8392 44.3244 58.8392 43.0787ZM52.9845 39.349H55.1521V40.4175C55.6749 39.7235 56.3997 39.2129 57.5288 39.2129C59.3063 39.2129 61 40.5672 61 43.0515V43.0787C61 45.5629 59.3341 46.9174 57.5289 46.9174C56.3718 46.9174 55.661 46.4069 55.1522 45.8148V49H52.9844V39.349M39.6855 42.7177L38.3612 39.5665L37.0369 42.7177H39.6855ZM37.4064 37.0005H39.3789L43.5399 46.781H41.2607L40.3407 44.6028H36.3888L35.4757 46.781H33.2382L37.4064 37.0005Z" fill="white"/>
<path d="M20 6V31H32.0553V16H38.9446V31H51V6H20Z" fill="white"/>
<path d="M64 41H63.7598V39.3288H63.7532L63.2856 41H63.1363L62.6687 39.3288H62.6621V41H62.4219V39H62.792L63.214 40.5169L63.6361 39.001H63.9997L64 41ZM62.1366 39.2628H61.6884V41H61.4482V39.2628H61V39H62.1364V39.2621" fill="white"/>
</g>
</svg>
