<svg width="74" height="55" viewBox="0 0 74 55" fill="none" xmlns="http://www.w3.org/2000/svg">
<mask id="mask0_115_663" style="mask-type:luminance" maskUnits="userSpaceOnUse" x="0" y="0" width="74" height="55">
<path d="M73.3333 0H0V55H73.3333V0Z" fill="white"/>
</mask>
<g mask="url(#mask0_115_663)">
<path d="M42.1419 32.0029C42.1419 34.3393 41.0258 35.5081 38.7935 35.5094C36.5599 35.5094 35.5439 34.367 35.5439 32.0859V27.595H37.3466V32.1096C37.3466 33.3668 37.8527 33.9993 38.8607 33.9993C39.8688 33.9993 40.3472 33.3905 40.3472 32.1768V27.5989H42.1458V32.0108L42.1419 32.0029Z" fill="white"/>
<path d="M49.2814 35.0983C48.7003 35.375 47.9373 35.5094 47.0003 35.5094C45.7748 35.5094 44.8142 35.1576 44.1104 34.4578C43.4107 33.7581 43.0602 32.8225 43.0588 31.651C43.0588 30.4056 43.4529 29.3962 44.2409 28.6227C45.0277 27.848 46.0502 27.4606 47.3087 27.4606C48.0875 27.4606 48.7437 27.5554 49.2778 27.7492V29.437C48.7222 29.1196 48.0911 28.9584 47.4514 28.9705C46.7003 28.9705 46.0954 29.1998 45.6369 29.6583C45.1782 30.117 44.945 30.7416 44.945 31.5243C44.945 32.307 45.1625 32.8763 45.5973 33.323C46.032 33.7697 46.6173 33.995 47.3485 33.995C48.0235 34.0059 48.6889 33.8338 49.2738 33.4969V35.098L49.2814 35.0983Z" fill="white"/>
<path d="M64.9088 32.0029C64.9088 34.3393 63.7926 35.5081 61.5604 35.5094C59.3268 35.5094 58.3108 34.367 58.3108 32.0859V27.595H60.1135V32.1096C60.1135 33.3668 60.6195 33.9993 61.6276 33.9993C62.6356 33.9993 63.114 33.3905 63.114 32.1768V27.5989H64.9126V32.0108L64.9088 32.0029Z" fill="white"/>
<path d="M65.9248 35.0745V33.3391C66.2371 33.598 66.5933 33.7988 66.9764 33.932C67.3449 34.0615 67.7324 34.1283 68.1229 34.1297C68.3222 34.1324 68.5211 34.1125 68.7159 34.0705C68.865 34.0387 69.0079 33.9826 69.1389 33.9044C69.2425 33.8435 69.3294 33.7579 69.3919 33.6553C69.4469 33.5604 69.4755 33.4526 69.4749 33.3429C69.4771 33.1959 69.4298 33.0524 69.3405 32.9355C69.2384 32.8055 69.1155 32.6933 68.9768 32.6035C68.8022 32.4907 68.6183 32.3928 68.4273 32.3109C68.2178 32.2161 67.9884 32.1212 67.7433 32.0224C67.1187 31.7694 66.6561 31.461 66.3479 31.0934C66.0401 30.7217 65.8773 30.2513 65.8892 29.769C65.8791 29.4053 65.965 29.0453 66.1383 28.7254C66.3048 28.4351 66.5379 28.1885 66.8183 28.0059C67.1241 27.8087 67.4629 27.6681 67.8185 27.5908C68.2127 27.5008 68.6159 27.4557 69.0203 27.4564C69.3893 27.4522 69.7582 27.4773 70.1233 27.5315C70.4269 27.5747 70.7251 27.6502 71.0128 27.7568V29.3779C70.8754 29.2857 70.7298 29.2063 70.5779 29.1407C70.4202 29.0724 70.2576 29.0156 70.0916 28.9708C69.9281 28.9265 69.7616 28.8934 69.5935 28.8719C69.4375 28.8521 69.2804 28.8415 69.1231 28.8403C68.9359 28.8391 68.749 28.8577 68.5657 28.8957C68.417 28.9269 68.2742 28.9816 68.1427 29.0578C68.0357 29.1181 67.9437 29.2019 67.8739 29.3029C67.8101 29.3988 67.777 29.5119 67.779 29.6271C67.7779 29.7525 67.8151 29.8753 67.8857 29.9789C67.9677 30.0936 68.0695 30.1927 68.1864 30.2715C68.3374 30.3743 68.496 30.4655 68.6609 30.5442C68.8467 30.6315 69.0562 30.7261 69.2894 30.817C69.5845 30.9356 69.8712 31.0743 70.1473 31.2321C70.3864 31.3677 70.6058 31.5353 70.7996 31.7302C70.9786 31.9121 71.1209 32.1269 71.2186 32.3627C71.3195 32.6263 71.3692 32.9068 71.3649 33.189C71.3783 33.5699 71.291 33.9476 71.1119 34.284C70.9456 34.576 70.7092 34.822 70.4241 34.9996C70.1138 35.1894 69.7726 35.3232 69.416 35.3949C69.0155 35.4776 68.6074 35.5173 68.1985 35.5135C67.7797 35.5147 67.3617 35.479 66.9492 35.4068C66.593 35.3472 66.2469 35.238 65.9209 35.0827L65.9248 35.0745Z" fill="white"/>
<path d="M52.3373 35.375H50.5386V27.595H52.3373V35.375Z" fill="white"/>
<path d="M53.0452 31.995L55.8282 35.375H58.0974L54.6185 31.3032L57.4017 27.595H55.259L53.0571 30.8367L53.0452 31.995Z" fill="white"/>
<path d="M32.9471 32.3469C33.1617 32.2468 33.3624 32.1192 33.5441 31.9674C34.1212 31.4851 34.4098 30.8526 34.4098 30.0699C34.4098 28.4174 33.4042 27.5912 31.3931 27.5912H27.6809V35.3712H29.4796V28.9352H31.0847C32.0414 28.9352 32.5197 29.3345 32.5197 30.1331C32.5197 30.9316 32.0414 31.3586 31.0847 31.3586V31.3666H30.0687L33.263 35.3673H35.5321L32.9471 32.3389V32.3469Z" fill="white"/>
<path d="M14.6272 40.8503H12.5126L14.0063 34.1494L13.7337 31.0145L13.5596 30.647L13.0617 32.845L9.52341 31.73L6.36119 35.703C6.09192 35.8902 5.20135 36.2808 4.34017 36.6589C3.71877 36.9316 3.13177 37.1892 2.85056 37.3399L1.57372 39.5618L2.35646 39.7558L2.02453 40.5385H0L2.13082 35.9091L4.07587 34.3635L4.8427 30.8885L5.92601 29.6589C5.4231 29.2509 4.95375 28.8033 4.52242 28.3203C4.19091 27.9495 3.90106 27.5435 3.65812 27.1095C3.2771 26.4106 3.11811 25.7279 3.18543 25.0805C3.36605 23.3442 5.10085 22.391 5.29806 22.2881L5.30014 22.2868L5.30128 22.2862C5.30128 22.2868 5.29952 22.2881 5.29768 22.2901L5.29692 22.2909C5.03723 22.5692 4.81582 22.8809 4.63856 23.2178C4.48215 23.5101 4.36718 23.8227 4.29706 24.1468C4.21728 24.5175 4.21433 24.9005 4.28835 25.2724C4.40921 25.8674 4.73635 26.4343 5.26055 26.957C5.59128 27.2797 5.95592 27.5657 6.34812 27.8101C6.85655 28.1272 7.3895 28.4032 7.94193 28.6354C7.94484 28.6354 8.29009 28.6272 8.52697 28.6272L15.3189 26.8405L15.939 26.0723L21.4013 28.1248C20.9043 29.6657 20.3131 31.5101 20.3198 31.5449C20.3238 31.5681 16.4494 34.0342 16.4101 34.0591L13.8366 39.8348L14.6272 40.167V40.851V40.8503ZM21.7026 27.1914L16.5324 25.3358L17.5008 24.1359L17.8014 24.5706L19.1021 24.9895L20.79 22.2346L18.8803 24.2189L18.157 24.0056L17.2122 22.8907L17.7221 21.7557L19.6912 20.878L21.4857 20.4907L22.6043 21.2497L25.2608 20.1147L25.7512 20.7356V20.7512L25.7195 22.0598L22.4699 24.4558L25.2728 24.4479L24.581 25.4007L22.2171 25.6025C22.2144 25.6109 21.9861 26.3139 21.7023 27.1912L21.7026 27.1914Z" fill="white"/>
<path d="M17.0543 34.4142L19.6284 32.7815L16.8444 39.2689L17.639 39.5733V40.2216L15.7766 40.2256L17.0543 34.4142Z" fill="white"/>
<path d="M10.5631 35.877L7.62194 37.3713L6.53872 39.2848L7.361 39.5141L7.02897 40.2177H5.21436L6.62563 36.4659C6.76008 36.3829 8.25439 35.0506 8.25439 35.0506L8.38049 34.2047L9.75666 32.4772L11.8005 33.1255L10.5631 35.877Z" fill="white"/>
<path d="M73.3335 28.0772C73.342 28.2444 73.3002 28.4104 73.2134 28.5537C73.1266 28.6969 72.9988 28.8108 72.8466 28.8807C72.6944 28.9505 72.5247 28.9731 72.3595 28.9455C72.1943 28.918 72.0412 28.8415 71.9199 28.726C71.7987 28.6104 71.7148 28.4612 71.6793 28.2975C71.6437 28.1339 71.658 27.9633 71.7204 27.8079C71.7828 27.6525 71.8904 27.5193 72.0292 27.4257C72.1681 27.332 72.3318 27.2821 72.4993 27.2825C72.6065 27.279 72.7133 27.2969 72.8135 27.3351C72.9137 27.3733 73.0053 27.4311 73.0829 27.5051C73.1606 27.579 73.2227 27.6677 73.2657 27.7659C73.3088 27.8641 73.3318 27.97 73.3335 28.0772ZM71.8708 28.0772C71.8695 28.1609 71.8851 28.2441 71.9167 28.3217C71.9483 28.3993 71.9952 28.4697 72.0546 28.5288C72.114 28.5878 72.1847 28.6343 72.2625 28.6654C72.3403 28.6965 72.4236 28.7116 72.5074 28.7097C72.59 28.7114 72.6721 28.6962 72.7487 28.6651C72.8253 28.634 72.8947 28.5876 72.9528 28.5288C73.0109 28.47 73.0564 28.4 73.0865 28.323C73.1167 28.2461 73.1309 28.1638 73.1282 28.0811C73.1304 27.9978 73.116 27.9148 73.0858 27.8371C73.0555 27.7594 73.0101 27.6885 72.9521 27.6285C72.8942 27.5686 72.8248 27.5208 72.7481 27.488C72.6715 27.4552 72.589 27.4381 72.5056 27.4376C72.4223 27.437 72.3396 27.4531 72.2625 27.485C72.1854 27.5168 72.1155 27.5637 72.0568 27.6229C71.998 27.6821 71.9517 27.7524 71.9205 27.8297C71.8893 27.907 71.8738 27.9898 71.875 28.0732L71.8708 28.0772ZM72.3729 28.4922H72.1831V27.6976C72.2862 27.6794 72.3908 27.6714 72.4954 27.6738C72.594 27.6653 72.693 27.6859 72.78 27.7331C72.8051 27.7546 72.8251 27.7813 72.8387 27.8113C72.8524 27.8414 72.8593 27.874 72.8591 27.907C72.8544 27.9521 72.8354 27.9945 72.8048 28.028C72.7742 28.0614 72.7336 28.0841 72.6891 28.0928V28.1006C72.7293 28.1165 72.7645 28.1428 72.7909 28.177C72.8174 28.2111 72.8341 28.2518 72.8394 28.2946C72.8463 28.3637 72.8665 28.4308 72.8987 28.4923H72.6971C72.6663 28.4313 72.645 28.3658 72.6338 28.2983C72.618 28.211 72.5706 28.1722 72.4639 28.1722H72.3732V28.4923L72.3729 28.4922ZM72.3769 28.0416H72.4678C72.5706 28.0416 72.6575 28.006 72.6575 27.9269C72.6575 27.8557 72.6021 27.8044 72.4836 27.8044C72.4491 27.8037 72.4147 27.8064 72.3808 27.8124V28.0417L72.3769 28.0416Z" fill="white"/>
<path d="M27.7126 20.6686V24.444H29.5193V19.368L27.7126 20.6686Z" fill="white"/>
<path d="M31.5791 17.8856V24.444H33.3858V16.585L31.5791 17.8856Z" fill="white"/>
<path d="M35.5442 15.0313V24.4441H37.3508V13.7307L35.5442 15.0313Z" fill="white"/>
<path d="M29.7685 41.1112C29.504 41.2239 29.2177 41.2765 28.9304 41.2654C28.4797 41.2654 28.1279 41.1349 27.867 40.8701C27.606 40.6053 27.4793 40.2537 27.4793 39.8106C27.4709 39.6007 27.5051 39.3913 27.5798 39.1949C27.6546 38.9986 27.7683 38.8194 27.9141 38.6682C28.0622 38.5211 28.2391 38.4062 28.4337 38.3307C28.6282 38.2552 28.8363 38.2207 29.0448 38.2293C29.2903 38.223 29.535 38.2591 29.7682 38.336V38.9726C29.565 38.8521 29.3324 38.7905 29.0962 38.7946C28.9728 38.7894 28.8497 38.8099 28.7347 38.8548C28.6196 38.8998 28.5152 38.9681 28.428 39.0556C28.341 39.15 28.2737 39.2609 28.2303 39.3817C28.1868 39.5025 28.1681 39.6308 28.1751 39.759C28.1675 39.8828 28.185 40.0068 28.2264 40.1236C28.2678 40.2404 28.3324 40.3477 28.4162 40.439C28.4997 40.5243 28.6002 40.5909 28.7112 40.6345C28.8222 40.6782 28.9412 40.6978 29.0604 40.6922C29.3095 40.6962 29.5548 40.6305 29.7685 40.5025V41.1074V41.1112Z" fill="white"/>
<path d="M31.9307 41.2694C31.7401 41.276 31.5503 41.2428 31.3733 41.172C31.1962 41.1012 31.0359 40.9943 30.9025 40.8582C30.6375 40.5854 30.5071 40.2296 30.5071 39.7868C30.5071 39.3243 30.6415 38.9487 30.9103 38.6601C31.047 38.5162 31.213 38.4032 31.3971 38.3289C31.5811 38.2546 31.779 38.2206 31.9773 38.2292C32.1661 38.2219 32.3543 38.2548 32.5295 38.3256C32.7046 38.3965 32.8627 38.5038 32.9933 38.6403C33.2503 38.9131 33.3808 39.2768 33.3808 39.7235C33.3972 40.1336 33.2524 40.5337 32.9775 40.8384C32.8424 40.9786 32.6793 41.0887 32.4988 41.1616C32.3183 41.2345 32.1244 41.2685 31.9299 41.2614L31.9307 41.2694ZM31.9583 38.8025C31.8519 38.7987 31.7462 38.8205 31.6499 38.8659C31.5537 38.9112 31.4696 38.979 31.4048 39.0634C31.2587 39.2635 31.1861 39.5079 31.1993 39.7553C31.1848 40.0016 31.2576 40.2451 31.4048 40.4431C31.4689 40.5238 31.5508 40.5886 31.6441 40.6325C31.7373 40.6764 31.8395 40.6982 31.9425 40.6961C32.0455 40.6992 32.1478 40.6787 32.2417 40.6362C32.3355 40.5937 32.4184 40.5304 32.4841 40.4509C32.6185 40.2889 32.6856 40.0595 32.6856 39.767C32.6995 39.5151 32.6314 39.2654 32.4916 39.0554C32.4299 38.9732 32.349 38.9072 32.2561 38.8631C32.1631 38.819 32.0609 38.7982 31.9581 38.8024L31.9583 38.8025Z" fill="white"/>
<path d="M37.6748 41.218H37.0225V39.4622C37.0225 39.2725 37.0304 39.063 37.0463 38.8336H37.0305C37.0082 38.9645 36.9778 39.0939 36.9396 39.2211L36.2517 41.2175H35.7102L35.0103 39.2413C34.9707 39.1065 34.9403 38.9692 34.9194 38.8303H34.9C34.9194 39.1188 34.9277 39.3718 34.9277 39.5933V41.218H34.3303V38.2846H35.2989L35.8998 40.0239C35.9471 40.16 35.9815 40.3003 36.0026 40.4429H36.0145C36.0446 40.2994 36.0842 40.1581 36.1331 40.0199L36.734 38.2844H37.6788V41.2178L37.6748 41.218Z" fill="white"/>
<path d="M42.146 41.218H41.4937V39.4622C41.4937 39.2725 41.5016 39.063 41.5175 38.8336H41.5017C41.4794 38.9645 41.449 39.0939 41.4108 39.2211L40.7229 41.2175H40.1814L39.4815 39.2413C39.4419 39.1065 39.4115 38.9692 39.3906 38.8303H39.3712C39.3906 39.1188 39.3989 39.3718 39.3989 39.5933V41.218H38.8015V38.2846H39.7701L40.371 40.0239C40.4183 40.16 40.4527 40.3003 40.4738 40.4429H40.4857C40.5158 40.2994 40.5554 40.1581 40.6043 40.0199L41.2052 38.2844H42.15V41.2178L42.146 41.218Z" fill="white"/>
<path d="M43.1421 41.1033V40.4471C43.2575 40.5436 43.3885 40.6198 43.5295 40.6724C43.6649 40.7225 43.8082 40.7479 43.9526 40.7475C44.0257 40.7485 44.0988 40.7405 44.17 40.7237C44.2248 40.7121 44.277 40.6907 44.3242 40.6605C44.3623 40.6361 44.3947 40.6038 44.419 40.5656C44.4414 40.5302 44.4524 40.4888 44.4507 40.447C44.4508 40.392 44.4342 40.3382 44.4032 40.2928C44.3663 40.2431 44.3208 40.2004 44.2688 40.1667C44.2053 40.1234 44.1378 40.0863 44.0672 40.056C43.9882 40.0204 43.9051 39.9848 43.8142 39.9493C43.6168 39.8757 43.4403 39.7549 43.3001 39.5975C43.1855 39.4573 43.1252 39.2805 43.1302 39.0994C43.127 38.9621 43.1582 38.8262 43.2211 38.7041C43.2812 38.5947 43.3666 38.5012 43.4702 38.4314C43.5829 38.3583 43.7072 38.3048 43.8378 38.2732C43.9826 38.2375 44.1314 38.2202 44.2806 38.2218C44.4169 38.2198 44.5532 38.229 44.688 38.2495C44.7996 38.2678 44.9093 38.2956 45.0162 38.3325V38.9453C44.9654 38.9095 44.9111 38.8791 44.8541 38.8544C44.7968 38.8281 44.7372 38.8069 44.6762 38.7911C44.6164 38.7742 44.5557 38.761 44.4943 38.7516C44.4367 38.7438 44.3786 38.7399 44.3204 38.7397C44.2514 38.7397 44.1826 38.7462 44.1148 38.7591C44.0603 38.7695 44.0081 38.7896 43.9607 38.8184C43.9205 38.8415 43.8866 38.874 43.8619 38.9133C43.8383 38.9497 43.8259 38.9923 43.8263 39.0358C43.8248 39.0824 43.8387 39.1283 43.8658 39.1662C43.8976 39.2079 43.9348 39.2452 43.9765 39.2769C44.0318 39.3155 44.09 39.3499 44.1504 39.3797C44.2177 39.4153 44.2967 39.447 44.3832 39.4826C44.4925 39.5273 44.5982 39.5801 44.6995 39.6407C44.7875 39.6919 44.8686 39.7544 44.9406 39.8264C45.0071 39.8946 45.0595 39.9752 45.0947 40.0636C45.1317 40.1635 45.1491 40.2695 45.1462 40.376C45.1509 40.5189 45.1182 40.6606 45.0513 40.787C44.9907 40.8963 44.9037 40.9887 44.7983 41.0558C44.6841 41.127 44.5583 41.1779 44.4267 41.2061C44.2799 41.237 44.13 41.2515 43.98 41.2496C43.8262 41.2508 43.6727 41.2376 43.5214 41.21C43.3896 41.1877 43.2618 41.1464 43.1419 41.0875L43.1421 41.1033Z" fill="white"/>
<path d="M48.1909 41.1112C47.9263 41.2239 47.6401 41.2765 47.3528 41.2654C46.9021 41.2654 46.5503 41.1349 46.2893 40.8701C46.0284 40.6053 45.9016 40.2537 45.9016 39.8106C45.8932 39.6007 45.9274 39.3913 46.0022 39.1949C46.0769 38.9986 46.1906 38.8194 46.3365 38.6682C46.4846 38.5211 46.6615 38.4062 46.856 38.3307C47.0506 38.2552 47.2586 38.2207 47.4671 38.2293C47.7126 38.223 47.9574 38.2591 48.1906 38.336V38.9726C47.9874 38.8521 47.7547 38.7905 47.5186 38.7946C47.3952 38.7894 47.2721 38.8099 47.157 38.8548C47.042 38.8998 46.9376 38.9681 46.8504 39.0556C46.7633 39.15 46.6961 39.2609 46.6526 39.3818C46.6092 39.5026 46.5904 39.631 46.5974 39.7592C46.5899 39.883 46.6073 40.0069 46.6488 40.1238C46.6902 40.2406 46.7547 40.3479 46.8386 40.4392C46.9221 40.5245 47.0226 40.5911 47.1337 40.6347C47.2447 40.6783 47.3638 40.6979 47.483 40.6922C47.7321 40.6962 47.9773 40.6305 48.1911 40.5025V41.1074L48.1909 41.1112Z" fill="white"/>
<path d="M50.3529 41.2694C50.1624 41.276 49.9726 41.2428 49.7955 41.172C49.6185 41.1012 49.4582 40.9943 49.3247 40.8582C49.0598 40.5854 48.9294 40.2296 48.9294 39.7868C48.9294 39.3243 49.0639 38.9487 49.3327 38.6601C49.4694 38.5162 49.6354 38.4032 49.8194 38.3289C50.0035 38.2546 50.2014 38.2206 50.3997 38.2292C50.5885 38.2219 50.7767 38.2548 50.9519 38.3256C51.127 38.3965 51.2851 38.5038 51.4157 38.6403C51.6727 38.9131 51.8031 39.2768 51.8031 39.7235C51.8195 40.1336 51.6748 40.5337 51.3999 40.8384C51.2648 40.9786 51.1017 41.0887 50.9212 41.1616C50.7407 41.2345 50.5468 41.2685 50.3523 41.2614L50.3529 41.2694ZM50.3806 38.8025C50.2742 38.7987 50.1685 38.8205 50.0722 38.8658C49.9759 38.9112 49.8919 38.979 49.8271 39.0634C49.681 39.2635 49.6084 39.5079 49.6216 39.7553C49.6071 40.0016 49.6799 40.2451 49.8271 40.4431C49.8912 40.5238 49.9731 40.5886 50.0663 40.6325C50.1596 40.6764 50.2617 40.6982 50.3648 40.6961C50.4678 40.6992 50.5701 40.6787 50.6639 40.6362C50.7578 40.5937 50.8407 40.5304 50.9063 40.4509C51.0408 40.2889 51.1079 40.0595 51.1079 39.767C51.1217 39.5151 51.0537 39.2654 50.9139 39.0554C50.8521 38.9732 50.7713 38.9072 50.6783 38.8631C50.5854 38.819 50.4832 38.7982 50.3804 38.8024L50.3806 38.8025Z" fill="white"/>
<path d="M53.4129 40.206V41.218H52.7527V38.2847H53.7885C54.5277 38.2847 54.8993 38.597 54.8993 39.2216C54.9038 39.357 54.8776 39.4916 54.8229 39.6155C54.7681 39.7394 54.6862 39.8493 54.5831 39.9372C54.3425 40.1287 54.0403 40.2257 53.7332 40.21H53.417L53.4129 40.206ZM53.4129 38.7907V39.7038H53.6738C54.0256 39.7038 54.2035 39.5497 54.2035 39.2413C54.2035 38.9329 54.0256 38.7906 53.6738 38.7906L53.4129 38.7907Z" fill="white"/>
<path d="M57.548 41.218H55.7888V38.2847H57.4808V38.8223H56.449V39.4747H57.4093V40.0123H56.449V40.6843H57.548V41.222V41.218Z" fill="white"/>
</g>
</svg>
