<svg width="74" height="55" viewBox="0 0 74 55" fill="none" xmlns="http://www.w3.org/2000/svg">
<mask id="mask0_115_764" style="mask-type:luminance" maskUnits="userSpaceOnUse" x="0" y="0" width="74" height="55">
<path d="M73.6667 0H0.333374V55H73.6667V0Z" fill="white"/>
</mask>
<g mask="url(#mask0_115_764)">
<path d="M37.7631 11.6837H35.6987V24.0272H37.7631V11.6837Z" fill="white"/>
<path fill-rule="evenodd" clip-rule="evenodd" d="M38.2632 27.0042L40.3263 25.7259V15.0393C39.7147 14.5858 39.0101 14.2737 38.2634 14.1254L38.2632 27.0042Z" fill="white"/>
<path fill-rule="evenodd" clip-rule="evenodd" d="M33.1293 25.7322L35.1937 27.0105V14.1317C34.4469 14.2778 33.7418 14.5878 33.1293 15.0393V25.7322Z" fill="white"/>
<path fill-rule="evenodd" clip-rule="evenodd" d="M40.8263 12.2701V25.5021L41.785 24.9077C42.1282 24.6818 42.409 24.3731 42.6014 24.01C42.7937 23.647 42.8915 23.2413 42.8856 22.8304V16.5812C42.8907 14.7788 40.8263 12.2701 40.8263 12.2701Z" fill="white"/>
<path fill-rule="evenodd" clip-rule="evenodd" d="M30.5725 22.8257C30.5663 23.2366 30.6639 23.6425 30.8564 24.0056C31.0489 24.3688 31.33 24.6774 31.6736 24.9029L32.6323 25.4972V12.2701C32.6323 12.2701 30.5725 14.7788 30.5725 16.5812V22.8257Z" fill="white"/>
<path fill-rule="evenodd" clip-rule="evenodd" d="M44.4786 41.1973V31.4631L45.9678 30.8368V41.1973H44.4786ZM42.1329 37.1195C42.1405 36.8569 42.0919 36.5957 41.9902 36.3534C41.8885 36.1111 41.7361 35.8935 41.5433 35.715C41.1608 35.3668 40.659 35.1793 40.142 35.1914C39.6302 35.177 39.1335 35.3652 38.7598 35.715C38.3775 36.086 38.1493 36.5876 38.1207 37.1195H42.1329ZM40.1132 41.314C39.066 41.314 38.2137 40.9774 37.5566 40.3041C36.8994 39.6309 36.5729 38.7377 36.5771 37.6244C36.5771 36.5123 36.9089 35.6212 37.5726 34.9512C38.2362 34.2811 39.0943 33.9472 40.1467 33.9493C41.2003 33.9493 42.0525 34.2689 42.7034 34.908C43.3542 35.5472 43.6817 36.3866 43.6861 37.4263C43.6873 37.6601 43.6696 37.8936 43.6333 38.1245H38.1047C38.1131 38.6587 38.3319 39.1679 38.7134 39.5418C39.0912 39.8934 39.5925 40.0816 40.1084 40.0655C40.9212 40.0655 41.4932 39.7331 41.8245 39.0684H43.4368C43.2261 39.7232 42.8097 40.2925 42.2496 40.6918C41.6229 41.1236 40.8737 41.3418 40.1132 41.314ZM30.7451 34.066V35.1845C31.2245 34.3568 31.993 33.9429 33.0508 33.9429C33.4228 33.9307 33.7934 33.9953 34.1392 34.1328C34.4851 34.2702 34.7989 34.4776 35.061 34.7419C35.5936 35.2745 35.8599 36.0203 35.8599 36.9792V41.1975H34.3801V37.2106C34.3801 36.5714 34.2203 36.0819 33.9007 35.7421C33.7288 35.5682 33.522 35.4327 33.2939 35.3446C33.0658 35.2565 32.8216 35.2177 32.5774 35.2308C32.3305 35.2163 32.0833 35.254 31.852 35.3416C31.6206 35.4291 31.4104 35.5645 31.235 35.7389C30.9079 36.0787 30.7444 36.5682 30.7444 37.2073V41.1972H29.2509V34.0663L30.7451 34.066ZM26.474 41.1969V34.066H27.968V41.1969H26.474ZM25.392 35.2691H23.6343V39.2159C23.6243 39.32 23.6361 39.425 23.6689 39.5243C23.7017 39.6236 23.7547 39.715 23.8247 39.7927C23.951 39.9093 24.1667 39.9668 24.4735 39.9668H25.3907V41.1972H24.2112C22.8263 41.1972 22.1339 40.5367 22.1339 39.2158V32.9171L23.6407 32.2924V34.066H25.3984L25.392 35.2691ZM16.3337 34.0659V35.1845C16.8088 34.361 17.579 33.9493 18.6443 33.9493C19.0164 33.9375 19.3871 34.0023 19.7331 34.1398C20.0792 34.2772 20.3933 34.4843 20.6559 34.7483C21.1886 35.2809 21.4549 36.0267 21.4549 36.9856V41.1975H19.9736V37.2106C19.9736 36.5714 19.8138 36.0819 19.4942 35.7421C19.3223 35.5682 19.1155 35.4327 18.8874 35.3446C18.6593 35.2565 18.4151 35.2177 18.1709 35.2308C17.923 35.2154 17.6746 35.2527 17.4421 35.3403C17.2097 35.4278 16.9984 35.5637 16.8223 35.7389C16.4953 36.0787 16.3312 36.5682 16.3302 37.2073V41.1972H14.8381V34.0663L16.3337 34.0659ZM12.4987 37.1195C12.5064 36.8569 12.4577 36.5957 12.356 36.3534C12.2543 36.1111 12.1019 35.8935 11.9091 35.715C11.5234 35.3637 11.0164 35.176 10.495 35.1914C9.9833 35.177 9.4866 35.3652 9.11284 35.715C8.7299 36.0855 8.50154 36.5874 8.47373 37.1195H12.4987ZM10.4727 41.3139C9.42454 41.3139 8.57233 40.9773 7.91611 40.304C7.2599 39.6308 6.93287 38.7376 6.93503 37.6244C6.93503 36.5123 7.26685 35.6212 7.93049 34.9512C8.59413 34.2811 9.45218 33.9472 10.5046 33.9493C11.5571 33.9493 12.4093 34.2689 13.0613 34.908C13.7132 35.5472 14.0408 36.3866 14.044 37.4263C14.0452 37.6601 14.0275 37.8936 13.9912 38.1245H8.46259C8.47077 38.6591 8.69021 39.1686 9.07295 39.5418C9.45034 39.894 9.95194 40.0823 10.4679 40.0655C11.2796 40.0655 11.8516 39.7331 12.184 39.0684H13.7946C13.5839 39.7232 13.1676 40.2925 12.6074 40.6918C11.9812 41.1232 11.2326 41.3411 10.4726 41.3134L10.4727 41.3139ZM3.02821 33.2895C2.63806 33.272 2.25396 33.3906 1.94164 33.6251C1.79995 33.7438 1.68813 33.8941 1.61517 34.064C1.54222 34.2338 1.51016 34.4184 1.52159 34.6029C1.51315 34.7955 1.55529 34.987 1.64382 35.1583C1.73234 35.3296 1.86416 35.4747 2.02618 35.5792C2.39295 35.8182 2.80191 35.9852 3.23118 36.0711C3.702 36.1776 4.17336 36.2963 4.64526 36.4274C5.10785 36.5589 5.52375 36.8187 5.84484 37.1768C6.17488 37.5379 6.34054 38.0513 6.34181 38.7171C6.34308 39.3828 6.05918 39.9777 5.49011 40.5019C4.92231 41.0292 4.16279 41.2955 3.21157 41.3008C2.26035 41.3062 1.48757 41.0858 0.893242 40.6396C0.605297 40.4329 0.373123 40.1581 0.21752 39.8396C0.0619168 39.5211 -0.0122548 39.169 0.00164958 38.8149H1.59957C1.61771 39.1766 1.77794 39.5166 2.04541 39.7608C2.30748 39.993 2.69204 40.1092 3.1991 40.1092C3.63301 40.1337 4.06042 39.9952 4.39754 39.7209C4.64327 39.5064 4.79769 39.206 4.82917 38.8813C4.86066 38.5567 4.76683 38.2322 4.56691 37.9745C4.37764 37.7687 4.13894 37.6147 3.87344 37.527C3.56637 37.4217 3.25379 37.3331 2.9371 37.2618C2.59639 37.1852 2.2534 37.0946 1.90812 36.9901C1.57942 36.8935 1.26311 36.7589 0.965597 36.589C0.672984 36.4168 0.432739 36.1682 0.270603 35.8699C0.0817055 35.5143 -0.0108536 35.1155 0.00212534 34.7131C-0.00999124 34.3523 0.0611046 33.9935 0.209905 33.6646C0.358705 33.3357 0.581216 33.0455 0.860206 32.8164C1.43226 32.337 2.17486 32.0973 3.088 32.0973C4.00114 32.0973 4.73031 32.2992 5.27552 32.7029C5.82199 33.1173 6.1256 33.7171 6.18634 34.5023H4.53501C4.50457 34.1662 4.34471 33.8551 4.08917 33.6347C3.79129 33.3907 3.41262 33.2674 3.02821 33.2895Z" fill="white"/>
<path fill-rule="evenodd" clip-rule="evenodd" d="M67.8362 34.4719C67.3468 34.4656 66.8628 34.5752 66.4237 34.7915C65.9906 35.0099 65.6295 35.3482 65.3835 35.7662C65.1035 36.2585 64.9611 36.817 64.9712 37.3833H70.575C70.6255 36.8218 70.5118 36.2578 70.2477 35.7598C70.0147 35.3384 69.6584 34.9983 69.2266 34.7851C68.7938 34.5745 68.3179 34.4673 67.8366 34.4719H67.8362ZM67.8107 40.6573C68.4544 40.6791 69.0879 40.4919 69.6163 40.1235C69.855 39.9533 70.0568 39.7366 70.2097 39.4865C70.3627 39.2363 70.4635 38.9579 70.5062 38.6679H71.1215C71.0089 39.3812 70.6268 40.024 70.0541 40.4639C69.4746 40.9177 68.7352 41.1446 67.8358 41.1446C67.2139 41.1565 66.5994 41.0084 66.051 40.7148C65.5305 40.4292 65.1038 39.9991 64.8222 39.4764C64.5126 38.8858 64.3597 38.2256 64.378 37.559C64.3624 36.9003 64.5153 36.2486 64.8222 35.6656C65.1029 35.1439 65.5278 34.714 66.0462 34.4272C66.5945 34.1336 67.2091 33.9855 67.831 33.9974C68.4533 33.9815 69.0689 34.1298 69.6158 34.4272C70.0931 34.6902 70.4872 35.0815 70.7535 35.5569C71.0086 36.0135 71.1418 36.528 71.1402 37.051C71.1386 37.2794 71.1167 37.5072 71.0747 37.7317H64.9712C64.9607 38.3041 65.103 38.8689 65.3835 39.3679C65.6261 39.7863 65.9853 40.125 66.4173 40.3426C66.8509 40.5546 67.328 40.6624 67.8106 40.6573L67.8107 40.6573ZM60.5324 33.9463C61.3697 33.9463 62.0504 34.203 62.5745 34.7165C63.0985 35.2299 63.3601 35.9868 63.359 36.987V41.0552H62.7711V37.0173C62.7711 36.18 62.5569 35.5392 62.1319 35.0999C61.707 34.6605 61.1205 34.4384 60.3743 34.4384C60.031 34.4238 59.6885 34.4821 59.3693 34.6093C59.0501 34.7365 58.7615 34.9299 58.5224 35.1766C58.0558 35.6687 57.8225 36.3936 57.8225 37.3513V41.0547H57.2345V34.0869H57.8225V35.9228C57.9624 35.3237 58.3193 34.7977 58.8243 34.4464C59.3291 34.1087 59.9253 33.9342 60.5324 33.9463ZM51.6722 32.6134C50.9872 32.6036 50.3121 32.7768 49.7164 33.1151C49.1331 33.4506 48.6567 33.9443 48.3422 34.5392C47.9944 35.2045 47.8212 35.9473 47.8389 36.6979C47.8217 37.4474 47.9949 38.189 48.3422 38.8534C48.6572 39.4478 49.1335 39.9413 49.7164 40.2771C50.3149 40.6052 50.9864 40.7772 51.669 40.7772C52.3515 40.7772 53.0231 40.6052 53.6216 40.2771C54.2074 39.9429 54.6861 39.4492 55.0021 38.8534C55.3494 38.189 55.5226 37.4474 55.5054 36.6979C55.5225 35.9484 55.3494 35.2068 55.0021 34.5423C54.6866 33.9462 54.2077 33.4523 53.6216 33.1187C53.0279 32.7809 52.3552 32.6068 51.6722 32.6141V32.6134ZM51.6722 32.0877C52.4723 32.0755 53.2612 32.2774 53.9571 32.6725C54.6273 33.0552 55.1757 33.6196 55.539 34.3005C55.9274 35.0388 56.1231 35.8632 56.1079 36.6973C56.1215 37.5281 55.9259 38.3491 55.539 39.0845C55.1745 39.767 54.6266 40.3341 53.9571 40.722C53.2585 41.1097 52.4727 41.3131 51.6738 41.3131C50.8748 41.3131 50.089 41.1097 49.3904 40.722C48.7156 40.3341 48.1623 39.7658 47.7925 39.0809C47.4038 38.3474 47.208 37.527 47.2236 36.6969C47.208 35.8624 47.406 35.0376 47.799 34.3012C48.1672 33.6168 48.7211 33.0502 49.3969 32.6665C50.0905 32.2751 50.8758 32.0753 51.6722 32.0879V32.0877Z" fill="white"/>
<path d="M72.7275 35.028L72.5672 34.7867H72.4362V35.028H72.2769V34.2722H72.622C72.801 34.2722 72.9076 34.3665 72.9076 34.5215C72.9099 34.5724 72.8956 34.6227 72.8667 34.6648C72.8379 34.7069 72.7962 34.7385 72.7478 34.7547L72.9332 35.0247L72.7275 35.028ZM72.7275 34.5311C72.7275 34.4592 72.678 34.4224 72.5965 34.4224H72.4367V34.6397H72.6045C72.6859 34.6397 72.7323 34.5966 72.7323 34.5327L72.7275 34.5311Z" fill="white"/>
<path d="M72.5567 35.4451C72.4033 35.4454 72.2533 35.4002 72.1256 35.3151C71.9979 35.2301 71.8983 35.1091 71.8395 34.9674C71.7806 34.8257 71.7651 34.6698 71.795 34.5193C71.8248 34.3688 71.8987 34.2306 72.0071 34.1221C72.1156 34.0136 72.2538 33.9398 72.4043 33.91C72.5548 33.8801 72.7108 33.8956 72.8524 33.9544C72.9941 34.0133 73.1151 34.1129 73.2002 34.2406C73.2852 34.3683 73.3304 34.5183 73.3301 34.6717C73.3297 34.8767 73.248 35.0732 73.1031 35.2181C72.9582 35.363 72.7617 35.4446 72.5567 35.4451ZM72.5567 34.0661C72.437 34.0661 72.3199 34.1016 72.2203 34.1682C72.1207 34.2347 72.0431 34.3293 71.9972 34.44C71.9514 34.5506 71.9394 34.6724 71.9628 34.7899C71.9861 34.9073 72.0438 35.0153 72.1285 35.0999C72.2132 35.1846 72.3211 35.2423 72.4386 35.2657C72.5561 35.2891 72.6778 35.2771 72.7885 35.2312C72.8991 35.1854 72.9937 35.1078 73.0603 35.0082C73.1268 34.9086 73.1623 34.7915 73.1623 34.6717C73.1623 34.5111 73.0985 34.3571 72.985 34.2435C72.8714 34.1299 72.7173 34.0661 72.5567 34.0661Z" fill="white"/>
</g>
</svg>
