<svg width="74" height="55" viewBox="0 0 74 55" fill="none" xmlns="http://www.w3.org/2000/svg">
<mask id="mask0_115_615" style="mask-type:luminance" maskUnits="userSpaceOnUse" x="0" y="0" width="74" height="55">
<path d="M74.0001 0H0.666748V55H74.0001V0Z" fill="white"/>
</mask>
<g mask="url(#mask0_115_615)">
<mask id="mask1_115_615" style="mask-type:luminance" maskUnits="userSpaceOnUse" x="0" y="19" width="74" height="17">
<path d="M74 19.7592H0.691406V35.2108H74V19.7592Z" fill="white"/>
</mask>
<g mask="url(#mask1_115_615)">
<path d="M1.98419 31.7658C0.906172 30.1476 0.478063 28.1823 0.785304 26.2622C1.09254 24.3422 2.11254 22.6086 3.6417 21.4076C5.17086 20.2065 7.09672 19.6262 9.03488 19.7826C10.973 19.939 12.781 20.8205 14.0978 22.2512C12.6053 21.2309 9.75965 21.7188 7.04574 23.4574C9.50638 21.9548 12.1205 21.7172 13.1692 23.0592C14.3749 24.6009 13.1074 27.6061 10.3362 29.7718C7.56508 31.9374 4.75494 32.3448 4.23414 30.8843C4.04266 30.3391 3.89221 29.6436 5.0118 27.4479L6.32492 27.4545L6.57819 26.9236H5.24121L6.05739 25.1667C6.05739 25.1667 5.40486 25.1667 5.39874 25.1713C4.48117 26.0344 3.36354 26.656 2.14628 26.9803L1.93404 27.4789H2.8378C1.82714 29.0671 1.51654 30.632 1.98419 31.7658Z" fill="white"/>
<path d="M16.1431 27.4854C16.143 29.0286 15.6807 30.5365 14.8157 31.8146C13.9507 33.0927 12.7228 34.0824 11.2902 34.6562C9.85752 35.23 8.28587 35.3616 6.77777 35.034C5.26968 34.7063 3.89428 33.9345 2.82886 32.818C4.52396 33.9832 7.97606 33.1904 11.0243 30.8093C14.0423 28.4522 15.6472 25.3339 14.9759 23.3997C15.7403 24.6251 16.1441 26.0411 16.1411 27.4854" fill="white"/>
<path d="M69.5576 31.2101L69.1108 31.1624V31.1818L69.4705 31.3197L70.3099 31.7999V31.9406L69.4684 32.4441L69.1103 32.5865V32.6022L69.5556 32.5389H70.7249V32.9553H68.4785V32.5531L69.5067 31.9527L69.7636 31.846V31.8333L69.4992 31.7363L68.4788 31.1674V30.7698H70.7271V31.2101H69.5576Z" fill="white"/>
<path d="M70.7251 29.6279H68.4768V30.0682H70.7251V29.6279Z" fill="white"/>
<path d="M70.635 27.5331C70.6876 27.612 70.7232 27.701 70.7393 27.7945C70.7603 27.902 70.7709 28.0112 70.7708 28.1207C70.7715 28.2511 70.7506 28.3807 70.709 28.5043C70.6665 28.6249 70.5972 28.7343 70.5063 28.8244C70.4027 28.923 70.279 28.9982 70.1437 29.0448C69.9692 29.1032 69.786 29.1312 69.6021 29.1273C69.4132 29.1319 69.2251 29.1013 69.0473 29.0371C68.9123 28.9837 68.7898 28.9028 68.6877 28.7995C68.5991 28.7065 68.532 28.5951 68.4911 28.4733C68.452 28.3574 68.4316 28.236 68.4308 28.1136C68.4295 28.0043 68.4384 27.8951 68.4577 27.7874C68.4711 27.7121 68.4918 27.6383 68.5195 27.567L68.8918 27.6543C68.8666 27.7102 68.8496 27.7694 68.8412 27.8301C68.8294 27.9115 68.8242 27.9936 68.8255 28.0758C68.8224 28.1569 68.838 28.2375 68.8709 28.3116C68.9039 28.3857 68.9533 28.4513 69.0155 28.5034C69.1869 28.626 69.3962 28.6838 69.6062 28.6665C69.7129 28.6676 69.8193 28.6549 69.9228 28.6285C70.0114 28.6069 70.0945 28.567 70.1669 28.5115C70.2348 28.4593 70.2896 28.3919 70.3271 28.3149C70.366 28.2295 70.3849 28.1362 70.3823 28.0423C70.3843 27.96 70.3749 27.8777 70.3542 27.7979C70.3379 27.7367 70.3134 27.6779 70.2813 27.6233L70.6395 27.5346L70.635 27.5331Z" fill="white"/>
<path d="M68.4971 27.0154C68.4874 26.9647 68.4798 26.914 68.4733 26.8553C68.4668 26.7966 68.4607 26.7429 68.4561 26.6856C68.4514 26.6282 68.448 26.5731 68.4449 26.5194C68.4418 26.4657 68.4419 26.418 68.4419 26.3719C68.4415 26.2677 68.4515 26.1638 68.4718 26.0615C68.4888 25.9658 68.5221 25.8736 68.57 25.789C68.6173 25.7086 68.6845 25.6418 68.7651 25.595C68.8603 25.5435 68.9674 25.5183 69.0755 25.522C69.2354 25.5149 69.3933 25.5598 69.5254 25.6502C69.6409 25.7356 69.7253 25.8564 69.7661 25.9941L69.8674 25.8371L70.7247 25.3224V25.829L69.8401 26.3417L69.7991 26.5732H70.7211V27.0135H68.4951L68.4971 27.0154ZM68.836 26.3405C68.836 26.3851 68.836 26.4292 68.839 26.4738C68.8392 26.5079 68.8429 26.5419 68.8502 26.5752H69.5027V26.388C69.5074 26.2846 69.4784 26.1825 69.4202 26.0969C69.3859 26.0581 69.3429 26.0279 69.2948 26.0089C69.2466 25.9899 69.1946 25.9826 69.143 25.9875C69.1012 25.9852 69.0594 25.992 69.0205 26.0076C68.9816 26.0232 68.9467 26.0471 68.9181 26.0777C68.8595 26.1523 68.8308 26.2461 68.8376 26.3407L68.836 26.3405Z" fill="white"/>
<path d="M69.6006 25.0441C69.2924 25.0641 68.9868 24.9767 68.7358 24.7969C68.6338 24.7107 68.5533 24.602 68.5005 24.4793C68.4477 24.3567 68.4242 24.2234 68.4318 24.0901C68.4283 23.9451 68.457 23.8012 68.5159 23.6686C68.5694 23.5508 68.6516 23.4484 68.755 23.3707C68.8646 23.2868 68.9904 23.2264 69.1244 23.1934C69.2807 23.1538 69.4414 23.1346 69.6026 23.1362C69.9117 23.1158 70.2182 23.2038 70.4694 23.3849C70.5715 23.4707 70.6521 23.5791 70.7048 23.7015C70.7576 23.824 70.781 23.957 70.7733 24.0901C70.7769 24.2359 70.7488 24.3808 70.6908 24.5147C70.6373 24.632 70.5557 24.7343 70.4532 24.8126C70.3426 24.8945 70.2172 24.9542 70.0838 24.9883C69.927 25.0287 69.7655 25.0485 69.6036 25.0471L69.6006 25.0441ZM69.6006 24.5816C69.7058 24.5825 69.8108 24.573 69.9142 24.5533C70.0004 24.5374 70.0834 24.5074 70.1599 24.4646C70.2251 24.4276 70.2805 24.3755 70.3215 24.3126C70.3746 24.2164 70.3911 24.1043 70.3681 23.9969C70.3452 23.8895 70.2842 23.794 70.1964 23.728C70.0145 23.6281 69.8074 23.5836 69.6006 23.5999C69.4986 23.5995 69.3969 23.6085 69.2966 23.6267C69.21 23.6432 69.1262 23.672 69.0479 23.7124C68.9808 23.7486 68.9237 23.8008 68.8817 23.8644C68.8412 23.9334 68.8208 24.0123 68.8229 24.0923C68.8204 24.1641 68.8365 24.2353 68.8695 24.2991C68.9025 24.3629 68.9514 24.4171 69.0114 24.4566C69.1908 24.5551 69.395 24.5996 69.5991 24.5847L69.6006 24.5816Z" fill="white"/>
<path d="M72.7055 23.2649H72.3458V24.2173H72.205V23.2649H71.8503V23.1382H72.7075L72.7055 23.2649Z" fill="white"/>
<path d="M73.9999 24.2173H73.8641V23.314L73.5505 24.2173H73.4224L73.1145 23.2983L73.1115 24.2173H72.9722V23.1382H73.1856L73.4424 23.9017C73.4424 23.9017 73.4536 23.9336 73.4708 23.9919C73.4804 24.0149 73.4873 24.0388 73.4915 24.0633L73.5518 23.8887L73.8102 23.1379H74.0002L73.9999 24.2173Z" fill="white"/>
<path d="M38.1836 23.1367H45.2259V24.7685H40.2906V27.0781H44.8313V28.7084H40.2906V31.3241H45.3744V32.9548H38.1836V23.1367Z" fill="white"/>
<path d="M53.0856 32.9548L49.4816 26.4266L49.4548 26.455V32.9552H47.4839V23.1367H50.0925L53.6762 29.5514L53.7046 29.5246V23.1367H55.6737V32.9548H53.0856Z" fill="white"/>
<path d="M61.2633 23.1367H57.9197V32.9558H61.2633C64.3258 32.9827 66.2281 31.4588 66.2281 28.0463C66.2281 24.6337 64.3258 23.1078 61.2633 23.1383M61.1178 31.3241H60.0302V24.8443H61.1204C63.6205 24.8161 63.9891 26.4809 63.9891 28.0447C63.9891 29.6086 63.6198 31.3525 61.1202 31.3225" fill="white"/>
<path d="M18.3894 23.1367H26.3435V24.7685H23.42V32.9548H21.3126V24.7685H18.3894V23.1367Z" fill="white"/>
<path d="M34.4306 28.7991C34.9823 28.5944 35.4579 28.2254 35.7931 27.7417C36.1283 27.2581 36.307 26.6832 36.305 26.0948C36.3048 25.9495 36.2942 25.8044 36.273 25.6606C36.2133 25.2249 36.0518 24.8094 35.8016 24.4477C35.5513 24.0861 35.2194 23.7884 34.8328 23.5789C34.7375 23.5186 34.12 23.1367 32.2946 23.1367H28.022V32.9564H30.1275V29.0555H32.357C32.9494 30.3237 33.4684 31.625 33.9112 32.9528H36.5012L34.4351 28.7986L34.4306 28.7991ZM30.1244 24.8019H32.6118C33.4467 24.8147 33.9698 25.1156 34.0632 25.8151V25.8278C34.0662 25.8516 34.0678 25.8785 34.0698 25.9008C34.0719 25.9231 34.0728 25.9514 34.0744 25.9737V26.0665C34.0663 26.9186 33.5247 27.372 32.6103 27.3836H30.1229V24.8035L30.1244 24.8019Z" fill="white"/>
</g>
</g>
</svg>
