<svg width="74" height="55" viewBox="0 0 74 55" fill="none" xmlns="http://www.w3.org/2000/svg">
<mask id="mask0_115_725" style="mask-type:luminance" maskUnits="userSpaceOnUse" x="0" y="0" width="74" height="55">
<path d="M73.3333 0H0V55H73.3333V0Z" fill="white"/>
</mask>
<g mask="url(#mask0_115_725)">
<path fill-rule="evenodd" clip-rule="evenodd" d="M42.64 20.3065C42.64 21.55 43.6911 22.5814 44.9891 22.5814C46.2563 22.5814 47.3074 21.5791 47.3074 20.3052C47.3074 19.0314 46.2886 18 44.9891 18C43.6898 18 42.64 19.063 42.64 20.3065ZM63.7114 20.3065C63.7114 21.55 64.7625 22.5814 66.0606 22.5814C67.3278 22.5814 68.3787 21.5791 68.3787 20.3052C68.3787 19.0314 67.3586 18 66.0606 18C64.7625 18 63.7114 19.063 63.7114 20.3065ZM46.9949 24.1822H42.9527V36.8586H46.9949V24.1822ZM61.819 18.5606H50.3744V36.8598H54.4166V29.9467H60.6444V26.4875H54.4166V22.0197H61.819V18.5606ZM68.0662 24.1822H64.024V36.8586H68.0662V24.1822ZM19.4267 26.4875V24.1785H21.7759V26.4838H24.1236V27.2135C24.1236 28.058 24.0503 29.0579 23.8819 29.8444C23.7878 30.2837 23.6451 30.7206 23.4779 31.1397C23.3067 31.5677 23.1086 31.9779 22.8937 32.3466C22.6133 32.8264 22.2878 33.2883 21.9108 33.7214L21.8815 33.7553C21.7836 33.8688 21.6867 33.981 21.5803 34.09C21.4658 34.2112 21.3462 34.3248 21.2252 34.4385C19.7226 35.8588 17.7633 36.745 15.7165 36.9495C15.4708 36.9748 14.9755 37 14.7285 37C14.4814 36.9988 13.9862 36.9735 13.7404 36.9495C11.6924 36.745 9.73432 35.8588 8.23171 34.4385L8.23042 34.4373C8.10994 34.3228 7.99072 34.2096 7.87663 34.09C7.77021 33.981 7.67334 33.8688 7.57542 33.7555L7.54601 33.7214C7.16907 33.2883 6.84359 32.8276 6.56313 32.3466C6.34829 31.9792 6.15017 31.5689 5.97907 31.1397C5.81183 30.7206 5.66902 30.2837 5.57511 29.8444C5.40658 29.0579 5.33325 28.058 5.33325 27.2135V18.5606H10.0276V26.4875C10.0276 26.4875 10.0276 27.0948 10.0354 27.2942L10.0368 27.3324C10.0465 27.593 10.056 27.847 10.0842 28.101C10.1614 28.813 10.3222 29.4884 10.6529 30.059C10.7481 30.2244 10.8458 30.3847 10.9616 30.5362C11.6679 31.4603 12.7434 32.1547 14.0839 32.3478C14.2434 32.3705 14.5664 32.3907 14.7272 32.3907C14.8893 32.3907 15.2109 32.3705 15.3704 32.3478C16.7109 32.1547 17.7864 31.4603 18.4927 30.5362C18.6085 30.3835 18.7063 30.2244 18.8015 30.059C19.1321 29.4871 19.2929 28.813 19.37 28.101C19.3983 27.847 19.4078 27.593 19.4176 27.3324L19.419 27.2942C19.4267 27.0948 19.4267 26.4875 19.4267 26.4875ZM21.7732 20.1462H20.012V21.8745H21.7732V20.1462ZM22.3611 18.4167H23.5357V19.5693H22.3611V18.4167ZM24.1224 24.1785H21.7745V23.1685L21.7732 21.8745L24.1224 21.8745V24.1785ZM39.5731 36.8598H35.5579V29.4075C35.5579 29.4075 35.5579 29.1462 35.554 29.0604C35.5503 28.943 35.5464 28.8281 35.5336 28.7132C35.5001 28.4064 35.4319 28.116 35.2891 27.8711C35.248 27.8004 35.2068 27.7323 35.1566 27.6666C34.853 27.2689 34.3911 26.971 33.8148 26.8877C33.7466 26.8776 33.6076 26.8687 33.5382 26.8687C33.4687 26.8687 33.3298 26.8776 33.2616 26.8877C32.6852 26.971 32.2234 27.2689 31.9197 27.6666C31.8697 27.731 31.8284 27.8004 31.7872 27.8711C31.6445 28.1173 31.5763 28.4077 31.5429 28.7132C31.5312 28.8281 31.5261 28.943 31.5223 29.0604C31.5184 29.1462 31.5184 29.4075 31.5184 29.4075V36.846H27.5033V24.1696H31.3718V25.3222C31.3718 25.3222 32.7495 23.6394 35.4975 23.7581C37.9676 23.8654 39.5731 25.725 39.5731 28.2524V36.8598Z" fill="white"/>
</g>
</svg>
