<svg width="74" height="55" viewBox="0 0 74 55" fill="none" xmlns="http://www.w3.org/2000/svg">
<mask id="mask0_115_778" style="mask-type:luminance" maskUnits="userSpaceOnUse" x="0" y="0" width="75" height="55">
<path d="M74.0001 0H0.666748V55H74.0001V0Z" fill="white"/>
</mask>
<g mask="url(#mask0_115_778)">
<mask id="mask1_115_778" style="mask-type:luminance" maskUnits="userSpaceOnUse" x="0" y="23" width="75" height="12">
<path d="M74.0001 23.2091H0.666748V34.2923H74.0001V23.2091Z" fill="white"/>
</mask>
<g mask="url(#mask1_115_778)">
<path d="M24.7787 23.2091C25.0803 23.2879 25.386 23.3546 25.683 23.4476C26.9655 23.8509 28.0841 25.0293 28.1035 26.562C28.1301 28.6517 28.1238 30.7421 28.0955 32.8317C28.0834 33.7181 27.4269 34.2741 26.5296 34.2576C25.6954 34.2418 25.0909 33.634 25.0843 32.7624C25.0716 31.0634 25.082 29.3644 25.0732 27.6654C25.0734 27.428 25.0424 27.1915 24.981 26.9622C24.7568 26.1536 24.0841 25.8216 23.3735 25.8557C22.4407 25.9005 21.8352 26.4365 21.7736 27.2603C21.7274 27.8773 21.7355 28.4989 21.7312 29.1185C21.7226 30.3401 21.7378 31.5621 21.7133 32.7835C21.6952 33.6892 21.06 34.2697 20.1595 34.2579C19.3081 34.2469 18.7051 33.6461 18.6973 32.7534C18.6825 31.064 18.6944 29.3743 18.6831 27.685C18.6863 27.4187 18.6491 27.1536 18.5728 26.8985C18.3161 26.1092 17.6577 25.8218 16.9749 25.8562C16.078 25.9021 15.4844 26.4208 15.3863 27.1825C15.3567 27.4089 15.3413 27.6369 15.3402 27.8652C15.3361 29.4115 15.3499 30.958 15.3288 32.5041C15.3274 32.8446 15.2579 33.1813 15.1245 33.4945C14.8441 34.117 14.1312 34.3976 13.4193 34.2335C13.1108 34.1559 12.8361 33.9797 12.637 33.7317C12.4378 33.4838 12.3251 33.1775 12.3159 32.8596C12.2925 31.7814 12.2999 30.7027 12.2975 29.6242C12.2951 28.641 12.2975 27.6579 12.2964 26.6747C12.2982 26.5698 12.2938 26.4649 12.2834 26.3605C12.2531 26.1065 12.12 25.9308 11.8587 25.89C11.5974 25.8493 11.4197 25.9737 11.3114 26.2091C11.0169 26.8493 10.7214 27.489 10.4247 28.1282C9.75387 29.5807 9.09106 31.0367 8.40749 32.483C8.22456 32.8602 8.01126 33.2219 7.7697 33.5645C7.11407 34.5128 5.42226 34.5196 4.73432 33.5263C4.53555 33.2465 4.36059 32.9506 4.21129 32.6416C3.07378 30.2084 1.94316 27.7721 0.819428 25.3327C0.419102 24.4628 0.834367 23.568 1.73377 23.3061C1.84192 23.2747 1.9495 23.2413 2.05746 23.2091H2.28755C2.31044 23.2259 2.33149 23.2541 2.35632 23.2576C2.99363 23.3546 3.35127 23.7579 3.58825 24.3236C4.41189 26.2874 5.24698 28.2467 6.07809 30.2072C6.11951 30.3049 6.17121 30.3981 6.24784 30.5534C6.33262 30.3686 6.38937 30.2516 6.44058 30.1322C7.11116 28.5681 7.77077 26.9988 8.45502 25.4401C8.90006 24.4265 9.6074 23.6726 10.7161 23.366C10.9335 23.3061 11.1556 23.261 11.3757 23.2091H12.1235C12.1619 23.2359 12.2041 23.257 12.2487 23.2715C13.1336 23.4115 13.9398 23.8619 14.5229 24.5422C14.5577 24.5738 14.5957 24.6016 14.6364 24.6251C14.7067 24.5701 14.7668 24.5245 14.8253 24.4769C15.4161 23.9752 16.1028 23.5991 16.8436 23.3715C17.0518 23.3114 17.2638 23.2628 17.4733 23.2091H18.3366C18.4041 23.2394 18.4746 23.2626 18.547 23.2782C19.4032 23.3734 20.1447 23.7038 20.7409 24.3343C20.831 24.4296 20.9221 24.5239 21.0209 24.6271C21.0791 24.5829 21.1267 24.5525 21.168 24.5156C21.8331 23.9061 22.6523 23.4902 23.5369 23.3128C23.6835 23.2837 23.8279 23.2442 23.9734 23.2095L24.7787 23.2091Z" fill="white"/>
<path d="M36.5727 25.9525C36.3186 26.6675 36.0646 27.3824 35.8107 28.0974C35.1798 29.8806 34.5493 31.6639 33.9191 33.4472C33.7402 33.9516 33.5123 34.1399 33.0936 34.1463C32.6255 34.1535 32.3381 33.9523 32.1576 33.4552C31.0853 30.5063 30.0161 27.5562 28.9499 24.6049C28.8512 24.332 28.7893 24.049 28.9693 23.7825C29.0487 23.6615 29.1613 23.566 29.2935 23.5075C29.4258 23.449 29.5722 23.43 29.7151 23.4527C29.8546 23.4642 29.9876 23.5165 30.0976 23.603C30.2077 23.6895 30.2899 23.8063 30.3341 23.9391C30.4871 24.3174 30.6135 24.7071 30.7478 25.0934C31.4812 27.2024 32.2146 29.3118 32.948 31.4217C32.9785 31.5096 33.0213 31.5932 33.0863 31.7431C33.1542 31.5834 33.2057 31.4805 33.2433 31.3728C34.0684 29.0125 34.8926 26.6521 35.7159 24.2917C35.7535 24.184 35.7896 24.0757 35.8331 23.9704C35.9684 23.6433 36.1865 23.4488 36.5703 23.4449C36.9669 23.4409 37.2396 23.6033 37.3743 23.9637C37.5909 24.5421 37.79 25.127 37.9926 25.7105C38.6504 27.6048 39.3075 29.4996 39.9639 31.3948C39.9977 31.4918 40.0415 31.5856 40.1077 31.7469C40.1768 31.5855 40.2282 31.4823 40.2664 31.3744C41.1271 28.936 41.9872 26.4973 42.8466 24.0584C43.0018 23.6192 43.2055 23.4538 43.5748 23.4523C44.0986 23.4501 44.4429 23.8768 44.2753 24.3706C43.9425 25.3516 43.5835 26.3239 43.2317 27.2985C42.5022 29.3192 41.771 31.3394 41.0381 33.359C40.8894 33.7683 40.6907 34.1336 40.1729 34.1477C39.7148 34.1601 39.4648 33.9791 39.2915 33.4887C38.9055 32.3949 38.5223 31.3002 38.1418 30.2046C37.6784 28.8762 37.2155 27.5477 36.753 26.219C36.7226 26.1316 36.6801 26.0488 36.6432 25.9639L36.5731 25.9532" fill="white"/>
<path d="M52.1728 32.5339C52.041 32.6756 51.9289 32.8055 51.8071 32.9254C50.6987 34.0191 49.3585 34.4206 47.823 34.2575C46.9547 34.1652 46.1648 33.8846 45.4917 33.3252C44.7167 32.6809 44.4011 31.8369 44.4396 30.8428C44.5081 29.0738 45.7824 28.1354 47.2956 27.8123C48.832 27.4842 50.3537 27.6359 51.8631 28.0068C51.955 28.0294 52.0474 28.0519 52.2141 28.0928C52.1962 27.7325 52.2127 27.3934 52.1571 27.0663C51.9384 25.7778 51.0284 24.9868 49.7117 24.8461C48.6546 24.7156 47.5818 24.858 46.5953 25.2597C46.21 25.4194 45.8239 25.2654 45.6812 24.9218C45.5289 24.5552 45.6822 24.2508 46.1019 24.0595C47.2001 23.5588 48.3609 23.4573 49.549 23.4969C50.3233 23.523 51.0702 23.6517 51.7589 24.0182C52.9446 24.6492 53.5713 25.684 53.6214 26.9768C53.7037 29.102 53.6785 31.2315 53.6874 33.3595C53.6898 33.93 53.4051 34.2142 52.9041 34.1994C52.8155 34.2021 52.7272 34.1866 52.6448 34.1538C52.5624 34.121 52.4875 34.0717 52.4249 34.0089C52.3623 33.9461 52.3132 33.8711 52.2807 33.7886C52.2482 33.706 52.2329 33.6177 52.2359 33.5291C52.227 33.224 52.2295 32.9186 52.225 32.6134C52.225 32.5987 52.2067 32.5843 52.1731 32.5343M52.2302 29.8647C52.2226 29.76 52.2235 29.6548 52.2329 29.5502C52.2814 29.2599 52.145 29.138 51.8716 29.0942C51.232 28.9924 50.5984 28.8345 49.9554 28.7772C49.0394 28.6958 48.1163 28.6859 47.2474 29.0757C46.4313 29.4418 45.9622 30.0527 45.9658 30.9648C45.9693 31.8826 46.4653 32.4781 47.2776 32.8356C48.0229 33.1638 48.8064 33.1693 49.5842 33.0087C50.9544 32.7257 52.3345 31.7767 52.2302 29.8645" fill="white"/>
<path d="M63.0197 29.3793C63.1041 30.2877 63.3786 31.0736 63.9501 31.7365C65.2135 33.2005 67.5281 33.4013 69.1785 32.1969C69.3715 32.0562 69.5499 31.8962 69.7411 31.7533C70.0601 31.5165 70.3722 31.5416 70.6093 31.8141C70.8464 32.0865 70.8421 32.4083 70.5635 32.6838C69.7181 33.5208 68.7185 34.0494 67.5204 34.198C66.4119 34.3354 65.3429 34.2347 64.3404 33.7244C62.8746 32.9783 61.9886 31.7747 61.6472 30.1838C61.2849 28.4955 61.5315 26.8967 62.5462 25.4768C63.6513 23.9307 65.2011 23.2499 67.0829 23.4853C69.1788 23.7472 70.4244 25.0425 70.9983 27.0055C71.151 27.5276 71.1908 28.0884 71.2311 28.6351C71.265 29.0938 70.9506 29.378 70.4833 29.3782C68.1257 29.3799 65.7681 29.3802 63.4105 29.3791H63.0192M69.7511 28.2904C69.6064 26.9433 69.1949 25.7683 67.9663 25.0861C66.8562 24.4703 65.7159 24.523 64.6593 25.2372C63.5973 25.9551 63.1473 27.0271 63 28.2905L69.7511 28.2904Z" fill="white"/>
<path d="M57.1592 25.9451C57.2021 25.8772 57.2481 25.8114 57.2872 25.7414C57.9856 24.4921 59.0326 23.719 60.4513 23.4702C60.7753 23.4134 61.1132 23.4159 61.3458 23.7127C61.4409 23.8274 61.5012 23.9668 61.5198 24.1146C61.5383 24.2624 61.5141 24.4124 61.4503 24.547C61.3069 24.8812 60.9988 24.9733 60.6813 25.0151C58.9062 25.2491 57.5534 26.5477 57.2137 28.4786C57.1296 29.0425 57.0896 29.6121 57.094 30.1822C57.076 31.2121 57.0918 32.2426 57.0877 33.2727C57.0854 33.8371 56.7837 34.1614 56.293 34.1437C55.8662 34.1284 55.5723 33.8273 55.5707 33.3829C55.5666 32.3051 55.5697 31.2271 55.5699 30.1492C55.5704 28.1936 55.571 26.2381 55.5719 24.2825C55.5723 23.7791 55.8669 23.4476 56.3099 23.4411C56.4128 23.4347 56.5159 23.45 56.6124 23.486C56.709 23.5221 56.7969 23.5781 56.8703 23.6504C56.9438 23.7227 57.0012 23.8097 57.0388 23.9057C57.0764 24.0017 57.0933 24.1045 57.0885 24.2074C57.0942 24.7789 57.0898 25.3504 57.0898 25.922L57.1593 25.9456" fill="white"/>
<path d="M71.4435 24.7367C71.441 24.5697 71.4716 24.4038 71.5337 24.2486C71.5957 24.0935 71.6879 23.9522 71.805 23.833C71.922 23.7138 72.0616 23.619 72.2156 23.5541C72.3695 23.4892 72.5348 23.4555 72.7019 23.455C73.0397 23.4541 73.3644 23.5852 73.6069 23.8203C73.8494 24.0553 73.9905 24.3759 74.0001 24.7135C74.0085 25.4043 73.3959 26.0057 72.6918 25.9977C72.5269 25.9973 72.3638 25.9643 72.2117 25.9006C72.0596 25.8369 71.9216 25.7438 71.8056 25.6266C71.6896 25.5094 71.598 25.3705 71.5359 25.2177C71.4737 25.065 71.4424 24.9015 71.4437 24.7366M72.7014 25.8037C72.9891 25.8046 73.2654 25.6913 73.4695 25.4885C73.6736 25.2858 73.7888 25.0103 73.7897 24.7226C73.7907 24.435 73.6774 24.1587 73.4746 23.9546C73.2719 23.7505 72.9964 23.6353 72.7087 23.6343C72.5635 23.6334 72.4195 23.6612 72.285 23.716C72.1505 23.7708 72.0282 23.8515 71.9249 23.9536C71.8216 24.0558 71.7395 24.1772 71.6832 24.3111C71.627 24.445 71.5976 24.5886 71.5969 24.7338C71.599 24.8766 71.6293 25.0176 71.686 25.1487C71.7427 25.2798 71.8248 25.3984 71.9274 25.4978C72.03 25.5972 72.1511 25.6753 72.284 25.7278C72.4168 25.7803 72.5586 25.8061 72.7014 25.8037Z" fill="white"/>
<path d="M73.0256 24.8418L73.2196 25.2111L73.1261 25.2849C73.0341 25.1822 72.9357 25.0852 72.8317 24.9946C72.7567 24.9308 72.6643 24.8911 72.5664 24.8807C72.5306 24.8798 72.4945 25.0245 72.4524 25.0993C72.4207 25.1555 72.379 25.206 72.3419 25.259C72.3028 25.2038 72.2738 25.1422 72.2561 25.0769C72.243 24.9151 72.2424 24.7526 72.2544 24.5907C72.267 24.4274 72.2641 24.1484 72.3344 24.1261C72.5448 24.0654 72.7676 24.0621 72.9798 24.1164C73.3027 24.198 73.316 24.5222 73.0254 24.8418M72.7654 24.2248C72.5489 24.2627 72.4481 24.2927 72.4511 24.4861C72.4539 24.6639 72.5369 24.7489 72.6936 24.7021C72.8084 24.6678 72.9023 24.5637 73.0054 24.4907L72.7656 24.2248" fill="white"/>
</g>
</g>
</svg>
