<svg xmlns="http://www.w3.org/2000/svg" width="20" height="20" viewBox="0 0 20 20">
  <g id="back" opacity="0.7">
    <g id="_x34__2_">
      <g id="Group_10460" data-name="Group 10460">
        <path id="Path_3633" data-name="Path 3633" d="M10,0A10,10,0,1,0,20,10,10,10,0,0,0,10,0Zm4.375,10.625H7.759L10.334,13.2a.625.625,0,0,1-.884.884L5.915,10.549A.613.613,0,0,1,5.753,10a.614.614,0,0,1,.163-.549L9.451,5.915a.625.625,0,1,1,.884.884L7.759,9.375h6.616a.625.625,0,0,1,0,1.25Z" fill="#fff"/>
      </g>
    </g>
  </g>
</svg>
