<svg xmlns="http://www.w3.org/2000/svg" width="24" height="24" viewBox="0 0 24 24">
  <g id="close" opacity="0.7">
    <g id="Group_10480" data-name="Group 10480">
      <g id="Group_10479" data-name="Group 10479">
        <path id="Path_3634" data-name="Path 3634" d="M12,0A12,12,0,1,0,24,12,11.993,11.993,0,0,0,12,0Zm0,22.125A10.125,10.125,0,1,1,22.125,12,10.119,10.119,0,0,1,12,22.125Z" fill="#fff"/>
      </g>
    </g>
    <g id="Group_10482" data-name="Group 10482" transform="translate(7.623 7.623)">
      <g id="Group_10481" data-name="Group 10481">
        <path id="Path_3635" data-name="Path 3635" d="M171.035,169.71l-2.778-2.778,2.778-2.778a.937.937,0,1,0-1.325-1.325l-2.778,2.778-2.778-2.778a.937.937,0,1,0-1.325,1.325l2.778,2.778-2.778,2.778a.937.937,0,1,0,1.325,1.325l2.778-2.778,2.778,2.778a.937.937,0,1,0,1.325-1.325Z" transform="translate(-162.555 -162.556)" fill="#fff"/>
      </g>
    </g>
  </g>
</svg>
