<svg xmlns="http://www.w3.org/2000/svg" width="28" height="28" viewBox="0 0 28 28">
  <g id="expert_icon" transform="translate(0 -0.144)">
    <circle id="Ellipse_13" data-name="Ellipse 13" cx="14" cy="14" r="14" transform="translate(0 0.144)" fill="#f5f7fb" opacity="0.1"/>
    <g id="desktop" transform="translate(6.609 -4.274)">
      <path id="Path_16032" data-name="Path 16032" d="M153.922,401l-2.628.937-.1.348a1.318,1.318,0,0,1-1.194.9v.234h5.45Z" transform="translate(-145.315 -377.818)" fill="#adaca7"/>
      <path id="Path_16033" data-name="Path 16033" d="M195.095,373.222l-.367-1.285L193.213,371l-1.515.937-.268.937h2.628l.1.348a1.318,1.318,0,0,0,1.194.9l.469.234.469-.234A1.318,1.318,0,0,1,195.095,373.222Z" transform="translate(-185.451 -348.756)" fill="#8f8f8b"/>
      <path id="Path_16034" data-name="Path 16034" d="M437,255.685h.937a.94.94,0,0,0,.937-.937v-1.874L437,251Z" transform="translate(-423.35 -232.504)" fill="#adaca7"/>
      <path id="Path_16035" data-name="Path 16035" d="M0,196.622a.94.94,0,0,0,.937.937H13.65a.94.94,0,0,0,.937-.937V191L0,194.748Z" transform="translate(0 -174.378)" fill="#cbc9c2"/>
      <path id="Path_16036" data-name="Path 16036" d="M437.937,11H437l.937,9.37h.937V11.937A.94.94,0,0,0,437.937,11Z" transform="translate(-423.35)" fill="#404242"/>
      <path id="Path_16037" data-name="Path 16037" d="M14.587,11.937A.94.94,0,0,0,13.65,11H.937A.94.94,0,0,0,0,11.937V20.37H14.587v-.937L7.762,15.685Z" fill="#565959"/>
      <path id="Path_16038" data-name="Path 16038" d="M255.325,40.975h-.937L248.5,44.723l5.888,3.749h.937s0-7.5,0-7.5Z" transform="translate(-240.738 -29.038)" fill="#18beb1"/>
      <path id="Path_16039" data-name="Path 16039" d="M42.712,40.974H30s0,7.5,0,7.5H42.712s0-7.5,0-7.5Z" transform="translate(-29.063 -29.037)" fill="#4cd1c7"/>
      <circle id="Ellipse_24" data-name="Ellipse 24" cx="0.469" cy="0.469" r="0.469" transform="translate(7.293 21.307)" fill="#fff"/>
      <path id="Path_16040" data-name="Path 16040" d="M95.917,471.469H86.234a.234.234,0,1,1,0-.469h9.683a.234.234,0,1,1,0,.469Z" transform="translate(-83.314 -445.632)" fill="#8f8f8b"/>
    </g>
  </g>
</svg>
