<svg xmlns="http://www.w3.org/2000/svg" width="24" height="24" viewBox="0 0 24 24">
  <g id="product" transform="translate(-0.195 0.371)">
    <rect id="Rectangle_340" data-name="Rectangle 340" width="24" height="24" transform="translate(0.195 -0.371)" fill="none"/>
    <path id="noun-product-3409268" d="M122.014,37.552A2.555,2.555,0,0,0,119.462,35h-11.91A2.555,2.555,0,0,0,105,37.552v11.91a2.555,2.555,0,0,0,2.552,2.552h11.91a2.555,2.555,0,0,0,2.552-2.552Zm-7.656-.851v2.877l-.465-.235a.832.832,0,0,0-.752,0l-.485.246-.043-2.887Zm5.955,12.76a.851.851,0,0,1-.851.851h-11.91a.851.851,0,0,1-.851-.851V37.552a.851.851,0,0,1,.851-.851h3.4l.065,4.266a.853.853,0,0,0,.4.714.834.834,0,0,0,.812.034l1.3-.66,1.3.66a.832.832,0,0,0,.817-.037.854.854,0,0,0,.4-.724V36.7h3.4a.851.851,0,0,1,.851.851Zm-5.039-4.778a.85.85,0,0,1,.184-.927l.851-.851a.85.85,0,0,1,1.2,0l.851.851a.851.851,0,0,1-.6,1.452v.851a.851.851,0,0,1-1.7,0v-.851A.851.851,0,0,1,115.273,44.683Zm3.338,3.928a.85.85,0,0,1-.851.851h-1.7a.851.851,0,0,1,0-1.7h1.7A.85.85,0,0,1,118.611,48.611Z" transform="translate(-100.944 -32.246)" fill="#61bf23"/>
  </g>
</svg>
