<svg xmlns="http://www.w3.org/2000/svg" width="24" height="24" viewBox="0 0 24 24">
  <g id="product" transform="translate(-0.195 0.371)">
    <rect id="Rectangle_340" data-name="Rectangle 340" width="24" height="24" transform="translate(0.195 -0.371)" fill="none"/>
    <path id="noun-product-3409268" d="M123.574,37.786A2.789,2.789,0,0,0,120.788,35h-13A2.789,2.789,0,0,0,105,37.786v13a2.789,2.789,0,0,0,2.786,2.786h13a2.789,2.789,0,0,0,2.786-2.786Zm-8.358-.929V40l-.507-.257a.909.909,0,0,0-.821,0l-.529.268-.047-3.152Zm6.5,13.931a.929.929,0,0,1-.929.929h-13a.929.929,0,0,1-.929-.929v-13a.929.929,0,0,1,.929-.929H111.5l.07,4.658a.931.931,0,0,0,.441.78.911.911,0,0,0,.886.037l1.424-.721,1.424.721a.908.908,0,0,0,.892-.041.932.932,0,0,0,.435-.79V36.857h3.715a.929.929,0,0,1,.929.929Zm-5.5-5.217a.928.928,0,0,1,.2-1.012l.929-.929a.928.928,0,0,1,1.313,0l.929.929a.929.929,0,0,1-.657,1.585v.929a.929.929,0,0,1-1.857,0v-.929A.929.929,0,0,1,116.215,45.571Zm3.644,4.288a.929.929,0,0,1-.929.929h-1.857a.929.929,0,1,1,0-1.857h1.857A.929.929,0,0,1,119.859,49.859Z" transform="translate(-101.724 -33.026)" fill="#fff"/>
  </g>
</svg>
