<svg xmlns="http://www.w3.org/2000/svg" width="62" height="62" viewBox="0 0 62 62">
  <g id="sucess" transform="translate(1 1)">
    <g id="circle">
      <circle id="Oval_Copy_2" data-name="Oval Copy 2" cx="22.694" cy="22.694" r="22.694" transform="translate(6.804 6.804)" fill="#fff"/>
      <circle id="Oval" cx="30" cy="30" r="30" fill="none" stroke="#61bf23" stroke-linecap="round" stroke-miterlimit="10" stroke-width="2"/>
    </g>
    <g id="tick" transform="translate(19.739 22.008)">
      <path id="Path" d="M19.46.355a1.206,1.206,0,0,0-1.709,0L6.342,11.787,2.062,7.5A1.209,1.209,0,1,0,.353,9.21l5.135,5.145a1.206,1.206,0,0,0,1.709,0L19.46,2.067A1.214,1.214,0,0,0,19.46.355Z" transform="translate(0 0)" fill="#61bf23"/>
      <path id="Path-2" data-name="Path" d="M10.15.352a1.237,1.237,0,0,0-1.728,0L0,8.617v3.392L10.15,2.047A1.185,1.185,0,0,0,10.15.352Z" transform="translate(9.306 0)" fill="#71de56"/>
    </g>
  </g>
</svg>
