<svg xmlns="http://www.w3.org/2000/svg" id="prefix__communications_1_" width="12" height="12" data-name="communications (1)" viewBox="0 0 12 12">
    <g id="prefix__Group_2003" data-name="Group 2003">
        <path id="prefix__Path_3615" d="M11.037 7.877A6.813 6.813 0 0 1 8.9 7.536a.978.978 0 0 0-.951.2L6.6 8.755A7.457 7.457 0 0 1 3.244 5.4l.989-1.314a.97.97 0 0 0 .239-.983A6.824 6.824 0 0 1 4.13.963.964.964 0 0 0 3.167 0H.963A.964.964 0 0 0 0 .963 11.05 11.05 0 0 0 11.037 12a.964.964 0 0 0 .963-.963v-2.2a.964.964 0 0 0-.963-.96z" data-name="Path 3615" style="fill:#65676b"/>
    </g>
</svg>
