<svg xmlns="http://www.w3.org/2000/svg" xmlns:xlink="http://www.w3.org/1999/xlink" width="16" height="16" viewBox="0 0 16 16">
  <defs>
    <style>
      .cls-1 {
        fill: #fff;
        stroke: #707070;
      }

      .cls-2 {
        clip-path: url(#clip-path);
      }

      .cls-3 {
        fill: #1a73e8;
      }
    </style>
    <clipPath id="clip-path">
      <rect id="Rectangle_11403" data-name="Rectangle 11403" class="cls-1" width="16" height="16" transform="translate(0.169)"/>
    </clipPath>
  </defs>
  <g id="icon_arrow_right" class="cls-2" transform="translate(-0.169)">
    <path id="icon_arrow_right-2" data-name="icon_arrow_right" class="cls-3" d="M16.943,20.673a.754.754,0,0,1-.259-.563.7.7,0,0,1,.259-.545l3.326-3.155-3.346-3.174a.687.687,0,0,1-.249-.563.747.747,0,0,1,.269-.563.736.736,0,0,1,.568-.235.836.836,0,0,1,.568.235l3.983,3.756a.988.988,0,0,1,.179.235.619.619,0,0,1,.08.31.568.568,0,0,1-.08.3,1.692,1.692,0,0,1-.179.244L18.1,20.673a.748.748,0,0,1-.578.235A.848.848,0,0,1,16.943,20.673Z" transform="translate(-11.371 -8.676)"/>
  </g>
</svg>
