<svg xmlns="http://www.w3.org/2000/svg" width="38.99" height="18.619" viewBox="0 0 38.99 18.619">
    <path d="M37.041 0a2.012 2.012 0 0 1 1.95 2.069V16.55a2.012 2.012 0 0 1-1.95 2.069H1.95A2.012 2.012 0 0 1 0 16.55V2.069A2.012 2.012 0 0 1 1.95 0zM12.005 4.622H6.591v8.824H8.3V9.841h3.29V8.374H8.3V6.1H12zm4.084 0H13v8.824h1.713v-3.23h1.365l1.559 3.23h1.839v-.085l-1.8-3.606a2.55 2.55 0 0 0 1.118-.955 2.843 2.843 0 0 0 .368-1.506 2.473 2.473 0 0 0-.8-1.97 3.187 3.187 0 0 0-2.011-.691zm9.938 0h-5.563v8.824h5.574v-1.46h-3.86V9.622h3.29V8.2h-3.29V6.1h3.85zm6.58 0h-5.563v8.824h5.574v-1.46h-3.861V9.622h3.29V8.2h-3.29V6.1h3.85zM16.089 6.1a1.34 1.34 0 0 1 1.025.358 1.381 1.381 0 0 1 .334.982 1.286 1.286 0 0 1-.354.961 1.364 1.364 0 0 1-1 .348h-1.381V6.1z" style="fill:#fff;fill-rule:evenodd"/>
</svg>
