<svg xmlns="http://www.w3.org/2000/svg" xmlns:xlink="http://www.w3.org/1999/xlink" preserveAspectRatio="xMidYMid meet" width="200" height="200" viewBox="0 0 200 200" style="width:100%;height:100%"><defs><animate repeatCount="indefinite" dur="5s" begin="0s" xlink:href="#_R_G_L_3_C_0_P_0" fill="freeze" attributeName="d" attributeType="XML" from="M3269.35 603.28 C2876.32,264.69 2283.23,308.82 1944.65,701.84 C1606.06,1094.87 1650.19,1687.96 2043.21,2026.55 C2436.24,2365.14 3029.33,2321.01 3367.92,1927.98 C3706.51,1534.95 3662.38,941.86 3269.35,603.28z " to="M1192.23 -1778.56 C676.97,-1778.56 259.27,-1360.86 259.27,-845.6 C259.27,-330.34 676.97,87.36 1192.23,87.36 C1707.49,87.36 2125.19,-330.34 2125.19,-845.6 C2125.19,-1360.86 1707.49,-1778.56 1192.23,-1778.56z " keyTimes="0;0.048;0.072;0.096;0.12;0.144;0.168;0.2;0.4;0.88;0.888;0.896;0.904;0.912;0.92;0.928;0.936;0.952;0.96;1" values="M3269.35 603.28 C2876.32,264.69 2283.23,308.82 1944.65,701.84 C1606.06,1094.87 1650.19,1687.96 2043.21,2026.55 C2436.24,2365.14 3029.33,2321.01 3367.92,1927.98 C3706.51,1534.95 3662.38,941.86 3269.35,603.28z ;M2656.94 214.31 C2199.16,-30.84 1629.33,141.53 1384.18,599.3 C1139.04,1057.08 1311.4,1626.91 1769.18,1872.05 C2226.95,2117.2 2796.78,1944.83 3041.93,1487.06 C3287.08,1029.28 3114.71,459.46 2656.94,214.31z ;M2319.69 85.32 C1841.82,-106.54 1298.9,125.33 1107.05,603.2 C915.2,1081.07 1147.06,1623.99 1624.93,1815.84 C2102.8,2007.69 2645.72,1775.83 2837.57,1297.96 C3029.42,820.09 2797.56,277.17 2319.69,85.32z ;M2001.02 -0.06 C1503.05,-138.62 987.05,152.74 848.49,650.71 C709.94,1148.68 1001.29,1664.68 1499.26,1803.24 C1997.23,1941.8 2513.23,1650.44 2651.79,1152.47 C2790.35,654.5 2498.99,138.5 2001.02,-0.06z ;M1725.95 -60.14 C1221.83,-157.71 734.07,171.86 636.5,675.98 C538.92,1180.1 868.5,1667.86 1372.61,1765.43 C1876.73,1863 2364.5,1533.43 2462.07,1029.31 C2559.64,525.2 2230.07,37.43 1725.95,-60.14z ;M1486.81 -68.22 C976.54,-124.8 517.02,242.98 460.43,753.25 C403.85,1263.51 771.63,1723.04 1281.9,1779.62 C1792.17,1836.21 2251.69,1468.43 2308.28,958.16 C2364.86,447.89 1997.08,-11.64 1486.81,-68.22z ;M1303.65 -81.42 C788.69,-106.8 350.67,290.08 325.3,805.03 C299.92,1319.98 696.8,1758.01 1211.75,1783.38 C1726.71,1808.76 2164.73,1411.88 2190.1,896.92 C2215.48,381.97 1818.6,-56.05 1303.65,-81.42z ;M1194.84 -80.55 C676.08,-80.55 255.54,339.99 255.54,858.75 C255.54,1377.51 676.08,1798.05 1194.84,1798.05 C1713.6,1798.05 2134.13,1377.51 2134.13,858.75 C2134.13,339.99 1713.6,-80.55 1194.84,-80.55z ;M1194.84 -80.55 C676.08,-80.55 255.54,339.99 255.54,858.75 C255.54,1377.51 676.08,1798.05 1194.84,1798.05 C1713.6,1798.05 2134.13,1377.51 2134.13,858.75 C2134.13,339.99 1713.6,-80.55 1194.84,-80.55z ;M1189.73 -71.06 C674.47,-71.06 256.77,346.64 256.77,861.9 C256.77,1377.16 674.47,1794.86 1189.73,1794.86 C1704.99,1794.86 2122.69,1377.16 2122.69,861.9 C2122.69,346.64 1704.99,-71.06 1189.73,-71.06z ;M1184.73 -110.81 C669.47,-110.81 251.77,306.89 251.77,822.15 C251.77,1337.41 669.47,1755.11 1184.73,1755.11 C1699.99,1755.11 2117.69,1337.41 2117.69,822.15 C2117.69,306.89 1699.99,-110.81 1184.73,-110.81z ;M1187.79 -203.06 C672.53,-203.06 254.83,214.64 254.83,729.9 C254.83,1245.16 672.53,1662.86 1187.79,1662.86 C1703.05,1662.86 2120.75,1245.16 2120.75,729.9 C2120.75,214.64 1703.05,-203.06 1187.79,-203.06z ;M1190.53 -335 C675.27,-335 257.57,82.7 257.57,597.96 C257.57,1113.22 675.27,1530.92 1190.53,1530.92 C1705.79,1530.92 2123.49,1113.22 2123.49,597.96 C2123.49,82.7 1705.79,-335 1190.53,-335z ;M1190.42 -501.94 C675.16,-501.94 257.45,-84.23 257.45,431.03 C257.45,946.29 675.16,1363.99 1190.42,1363.99 C1705.68,1363.99 2123.38,946.29 2123.38,431.03 C2123.38,-84.23 1705.68,-501.94 1190.42,-501.94z ;M1187.8 -691.37 C672.54,-691.37 254.84,-273.67 254.84,241.59 C254.84,756.85 672.54,1174.55 1187.8,1174.55 C1703.06,1174.55 2120.76,756.85 2120.76,241.59 C2120.76,-273.67 1703.06,-691.37 1187.8,-691.37z ;M1190.69 -899.31 C675.43,-899.31 257.73,-481.61 257.73,33.65 C257.73,548.91 675.43,966.61 1190.69,966.61 C1705.95,966.61 2123.65,548.91 2123.65,33.65 C2123.65,-481.61 1705.95,-899.31 1190.69,-899.31z ;M1187.95 -1116.62 C672.69,-1116.62 254.99,-698.92 254.99,-183.66 C254.99,331.6 672.69,749.3 1187.95,749.3 C1703.21,749.3 2120.91,331.6 2120.91,-183.66 C2120.91,-698.92 1703.21,-1116.62 1187.95,-1116.62z ;M1191.64 -1574.58 C676.38,-1574.58 258.68,-1156.88 258.68,-641.62 C258.68,-126.36 676.38,291.34 1191.64,291.34 C1706.9,291.34 2124.6,-126.36 2124.6,-641.62 C2124.6,-1156.88 1706.9,-1574.58 1191.64,-1574.58z ;M1192.23 -1778.56 C676.97,-1778.56 259.27,-1360.86 259.27,-845.6 C259.27,-330.34 676.97,87.36 1192.23,87.36 C1707.49,87.36 2125.19,-330.34 2125.19,-845.6 C2125.19,-1360.86 1707.49,-1778.56 1192.23,-1778.56z ;M1192.23 -1778.56 C676.97,-1778.56 259.27,-1360.86 259.27,-845.6 C259.27,-330.34 676.97,87.36 1192.23,87.36 C1707.49,87.36 2125.19,-330.34 2125.19,-845.6 C2125.19,-1360.86 1707.49,-1778.56 1192.23,-1778.56z " keySplines="0.167 0.167 0.833 0.833;0.167 0.167 0.833 0.833;0.167 0.167 0.833 0.833;0.167 0.167 0.833 0.833;0.167 0.167 0.833 0.833;0.167 0.167 0.833 0.833;0.167 0.167 0.667 1;0.333 0 0.833 0.833;0.167 0.167 0.833 0.833;0.167 0.167 0.833 0.833;0.167 0.167 0.833 0.833;0.167 0.167 0.833 0.833;0.167 0.167 0.833 0.833;0.167 0.167 0.833 0.833;0.167 0.167 0.833 0.833;0.167 0.167 0.833 0.833;0.167 0.167 0.833 0.833;0.167 0.167 0.833 0.833;0 0 0 0" calcMode="spline"/><clipPath id="_R_G_L_3_C_0"><path id="_R_G_L_3_C_0_P_0" fill-rule="nonzero"/></clipPath><animateMotion repeatCount="indefinite" dur="5s" begin="0s" xlink:href="#_R_G_L_3_G" fill="freeze" keyTimes="0;0.2;0.88;0.96;1" path="M44 345 C44,336.33 44,301.67 44,293 C44,293 44,293 44,293 C44,293 44,464 44,464 C44,464 44,464 44,464 " keyPoints="0;0.23;0.23;1;1" keySplines="0.167 0.167 0.667 1;0.167 0.167 0.667 0.667;0.333 0 0.833 0.833;0 0 0 0" calcMode="spline"/><animateTransform repeatCount="indefinite" dur="5s" begin="0s" xlink:href="#_R_G_L_3_G" fill="freeze" attributeName="transform" from="-41" to="0" type="rotate" additive="sum" keyTimes="0;0.2;1" values="-41;0;0" keySplines="0.167 0.167 0.667 1;0 0 0 0" calcMode="spline"/><animateTransform repeatCount="indefinite" dur="5s" begin="0s" xlink:href="#_R_G_L_3_G" fill="freeze" attributeName="transform" from="0.1 0.1" to="0.1 0.1" type="scale" additive="sum" keyTimes="0;1" values="0.1 0.1;0.1 0.1" keySplines="0 0 1 1" calcMode="spline"/><animateTransform repeatCount="indefinite" dur="5s" begin="0s" xlink:href="#_R_G_L_3_G" fill="freeze" attributeName="transform" from="-630 -2788" to="-630 -2788" type="translate" additive="sum" keyTimes="0;1" values="-630 -2788;-630 -2788" keySplines="0 0 1 1" calcMode="spline"/><animate repeatCount="indefinite" dur="5s" begin="0s" xlink:href="#_R_G_L_2_G" fill="freeze" attributeName="opacity" from="1" to="0" keyTimes="0;0.616;0.696;1" values="1;1;0;0" keySplines="0.167 0.167 0.833 0.833;0.167 0.167 0.833 0.833;0 0 0 0" calcMode="spline"/><animateTransform repeatCount="indefinite" dur="5s" begin="0s" xlink:href="#_R_G_L_2_G" fill="freeze" attributeName="transform" from="1 1" to="2.5 2.5" type="scale" additive="sum" keyTimes="0;0.616;0.696;1" values="1 1;1 1;2.5 2.5;2.5 2.5" keySplines="0.167 0.167 0.833 0.833;0.167 0.167 0.833 0.833;0 0 0 0" calcMode="spline"/><animateTransform repeatCount="indefinite" dur="5s" begin="0s" xlink:href="#_R_G_L_2_G" fill="freeze" attributeName="transform" from="-8 0.25" to="-8 0.25" type="translate" additive="sum" keyTimes="0;1" values="-8 0.25;-8 0.25" keySplines="0 0 1 1" calcMode="spline"/><animate repeatCount="indefinite" dur="5s" begin="0s" xlink:href="#_R_G_L_2_G_M" fill="freeze" attributeName="opacity" from="0" to="1" keyTimes="0;0.608;0.6080008;1" values="0;0;1;1" keySplines="0 0 0 0;0 0 0 0;0 0 0 0" calcMode="spline"/><animate repeatCount="indefinite" dur="5s" begin="0s" xlink:href="#_R_G_L_1_G" fill="freeze" attributeName="opacity" from="1" to="0" keyTimes="0;0.496;0.576;1" values="1;1;0;0" keySplines="0.167 0.167 0.833 0.833;0.167 0.167 0.833 0.833;0 0 0 0" calcMode="spline"/><animateTransform repeatCount="indefinite" dur="5s" begin="0s" xlink:href="#_R_G_L_1_G" fill="freeze" attributeName="transform" from="1 1" to="2.5 2.5" type="scale" additive="sum" keyTimes="0;0.496;0.576;1" values="1 1;1 1;2.5 2.5;2.5 2.5" keySplines="0.167 0.167 0.833 0.833;0.167 0.167 0.833 0.833;0 0 0 0" calcMode="spline"/><animateTransform repeatCount="indefinite" dur="5s" begin="0s" xlink:href="#_R_G_L_1_G" fill="freeze" attributeName="transform" from="-8 0.25" to="-8 0.25" type="translate" additive="sum" keyTimes="0;1" values="-8 0.25;-8 0.25" keySplines="0 0 1 1" calcMode="spline"/><animate repeatCount="indefinite" dur="5s" begin="0s" xlink:href="#_R_G_L_1_G_M" fill="freeze" attributeName="opacity" from="0" to="1" keyTimes="0;0.488;0.4880008;1" values="0;0;1;1" keySplines="0 0 0 0;0 0 0 0;0 0 0 0" calcMode="spline"/><animate repeatCount="indefinite" dur="5s" begin="0s" xlink:href="#_R_G_L_0_C_0_P_0" fill="freeze" attributeName="d" attributeType="XML" from="M934.95 -945.93 C419.69,-945.93 1.99,-528.23 1.99,-12.97 C1.99,502.29 419.69,919.99 934.95,919.99 C1450.21,919.99 1867.91,502.29 1867.91,-12.97 C1867.91,-528.23 1450.21,-945.93 934.95,-945.93z " to="M1189.73 -1818.56 C674.47,-1818.56 256.77,-1400.86 256.77,-885.6 C256.77,-370.34 674.47,47.36 1189.73,47.36 C1704.99,47.36 2122.69,-370.34 2122.69,-885.6 C2122.69,-1400.86 1704.99,-1818.56 1189.73,-1818.56z " keyTimes="0;0.2;0.216;0.24;0.264;0.288;0.304;0.32;0.336;0.352;0.36;0.368;0.408;0.504;0.624;0.696;0.88;0.888;0.896;0.904;0.912;0.92;0.928;0.96;1" values="M934.95 -945.93 C419.69,-945.93 1.99,-528.23 1.99,-12.97 C1.99,502.29 419.69,919.99 934.95,919.99 C1450.21,919.99 1867.91,502.29 1867.91,-12.97 C1867.91,-528.23 1450.21,-945.93 934.95,-945.93z ;M934.95 -945.93 C419.69,-945.93 1.99,-528.23 1.99,-12.97 C1.99,502.29 419.69,919.99 934.95,919.99 C1450.21,919.99 1867.91,502.29 1867.91,-12.97 C1867.91,-528.23 1450.21,-945.93 934.95,-945.93z ;M921.46 -1001.17 C406.2,-1001.17 -11.5,-583.46 -11.5,-68.2 C-11.5,447.06 406.2,864.76 921.46,864.76 C1436.72,864.76 1854.42,447.06 1854.42,-68.2 C1854.42,-583.46 1436.72,-1001.17 921.46,-1001.17z ;M971.06 -818.65 C455.8,-818.65 38.1,-400.95 38.1,114.31 C38.1,629.57 455.8,1047.27 971.06,1047.27 C1486.32,1047.27 1904.02,629.57 1904.02,114.31 C1904.02,-400.95 1486.32,-818.65 971.06,-818.65z ;M1035.74 -615.47 C520.48,-615.47 102.78,-197.76 102.78,317.5 C102.78,832.76 520.48,1250.46 1035.74,1250.46 C1551,1250.46 1968.7,832.76 1968.7,317.5 C1968.7,-197.76 1551,-615.47 1035.74,-615.47z ;M1100.42 -456.97 C585.16,-456.97 167.46,-39.27 167.46,475.99 C167.46,991.25 585.16,1408.95 1100.42,1408.95 C1615.68,1408.95 2033.38,991.25 2033.38,475.99 C2033.38,-39.27 1615.68,-456.97 1100.42,-456.97z ;M1122.93 -345.88 C607.67,-345.88 189.96,71.82 189.96,587.08 C189.96,1102.34 607.67,1520.04 1122.93,1520.04 C1638.19,1520.04 2055.89,1102.34 2055.89,587.08 C2055.89,71.82 1638.19,-345.88 1122.93,-345.88z ;M1146.24 -254.79 C630.98,-254.79 213.28,162.91 213.28,678.17 C213.28,1193.43 630.98,1611.13 1146.24,1611.13 C1661.5,1611.13 2079.2,1193.43 2079.2,678.17 C2079.2,162.91 1661.5,-254.79 1146.24,-254.79z ;M1178.23 -176.05 C662.97,-176.05 245.27,241.65 245.27,756.91 C245.27,1272.17 662.97,1689.88 1178.23,1689.88 C1693.49,1689.88 2111.19,1272.17 2111.19,756.91 C2111.19,241.65 1693.49,-176.05 1178.23,-176.05z ;M1187.88 -130.82 C672.62,-130.82 254.92,286.88 254.92,802.14 C254.92,1317.4 672.62,1735.1 1187.88,1735.1 C1703.14,1735.1 2120.84,1317.4 2120.84,802.14 C2120.84,286.88 1703.14,-130.82 1187.88,-130.82z ;M1195.2 -114.97 C679.94,-114.97 262.24,302.73 262.24,817.99 C262.24,1333.25 679.94,1750.95 1195.2,1750.95 C1710.46,1750.95 2128.16,1333.25 2128.16,817.99 C2128.16,302.73 1710.46,-114.97 1195.2,-114.97z ;M1197.52 -119.12 C682.26,-119.12 264.56,298.58 264.56,813.84 C264.56,1329.1 682.26,1746.81 1197.52,1746.81 C1712.78,1746.81 2130.48,1329.1 2130.48,813.84 C2130.48,298.58 1712.78,-119.12 1197.52,-119.12z ;M1192.52 -109.12 C677.26,-109.12 259.56,308.58 259.56,823.84 C259.56,1339.1 677.26,1756.81 1192.52,1756.81 C1707.78,1756.81 2125.48,1339.1 2125.48,823.84 C2125.48,308.58 1707.78,-109.12 1192.52,-109.12z ;M1299.73 -148.56 C784.47,-148.56 366.77,269.14 366.77,784.4 C366.77,1299.66 784.47,1717.36 1299.73,1717.36 C1814.99,1717.36 2232.69,1299.66 2232.69,784.4 C2232.69,269.14 1814.99,-148.56 1299.73,-148.56z ;M1299.73 -148.56 C784.47,-148.56 366.77,269.14 366.77,784.4 C366.77,1299.66 784.47,1717.36 1299.73,1717.36 C1814.99,1717.36 2232.69,1299.66 2232.69,784.4 C2232.69,269.14 1814.99,-148.56 1299.73,-148.56z ;M1192.23 -108.56 C676.97,-108.56 259.27,309.14 259.27,824.4 C259.27,1339.66 676.97,1757.36 1192.23,1757.36 C1707.49,1757.36 2125.19,1339.66 2125.19,824.4 C2125.19,309.14 1707.49,-108.56 1192.23,-108.56z ;M1192.23 -108.56 C676.97,-108.56 259.27,309.14 259.27,824.4 C259.27,1339.66 676.97,1757.36 1192.23,1757.36 C1707.49,1757.36 2125.19,1339.66 2125.19,824.4 C2125.19,309.14 1707.49,-108.56 1192.23,-108.56z ;M1189.81 -146.81 C674.55,-146.81 256.85,270.89 256.85,786.15 C256.85,1301.41 674.55,1719.11 1189.81,1719.11 C1705.07,1719.11 2122.78,1301.41 2122.78,786.15 C2122.78,270.89 1705.07,-146.81 1189.81,-146.81z ;M1187.4 -240.06 C672.14,-240.06 254.44,177.64 254.44,692.9 C254.44,1208.16 672.14,1625.86 1187.4,1625.86 C1702.66,1625.86 2120.36,1208.16 2120.36,692.9 C2120.36,177.64 1702.66,-240.06 1187.4,-240.06z ;M1192.48 -377.06 C677.22,-377.06 259.52,40.64 259.52,555.9 C259.52,1071.16 677.22,1488.86 1192.48,1488.86 C1707.74,1488.86 2125.44,1071.16 2125.44,555.9 C2125.44,40.64 1707.74,-377.06 1192.48,-377.06z ;M1190.48 -544.06 C675.22,-544.06 257.52,-126.36 257.52,388.9 C257.52,904.16 675.22,1321.86 1190.48,1321.86 C1705.74,1321.86 2123.44,904.16 2123.44,388.9 C2123.44,-126.36 1705.74,-544.06 1190.48,-544.06z ;M1188.48 -731.06 C673.22,-731.06 255.52,-313.36 255.52,201.9 C255.52,717.16 673.22,1134.86 1188.48,1134.86 C1703.74,1134.86 2121.44,717.16 2121.44,201.9 C2121.44,-313.36 1703.74,-731.06 1188.48,-731.06z ;M1191.23 -938.56 C675.97,-938.56 258.27,-520.86 258.27,-5.6 C258.27,509.66 675.97,927.36 1191.23,927.36 C1706.49,927.36 2124.19,509.66 2124.19,-5.6 C2124.19,-520.86 1706.49,-938.56 1191.23,-938.56z ;M1189.73 -1818.56 C674.47,-1818.56 256.77,-1400.86 256.77,-885.6 C256.77,-370.34 674.47,47.36 1189.73,47.36 C1704.99,47.36 2122.69,-370.34 2122.69,-885.6 C2122.69,-1400.86 1704.99,-1818.56 1189.73,-1818.56z ;M1189.73 -1818.56 C674.47,-1818.56 256.77,-1400.86 256.77,-885.6 C256.77,-370.34 674.47,47.36 1189.73,47.36 C1704.99,47.36 2122.69,-370.34 2122.69,-885.6 C2122.69,-1400.86 1704.99,-1818.56 1189.73,-1818.56z " keySplines="0.167 0.167 0.833 0.833;0.167 0.167 0.833 0.833;0.167 0.167 0.833 0.833;0.167 0.167 0.833 0.833;0.167 0.167 0.833 0.833;0.167 0.167 0.833 0.833;0.167 0.167 0.833 0.833;0.167 0.167 0.833 0.833;0.167 0.167 0.833 0.833;0.167 0.167 0.833 0.833;0.167 0.167 0.833 0.833;0.167 0.167 0.833 0.833;0.167 0.167 0.833 0.833;0.167 0.167 0.833 0.833;0.167 0.167 0.833 0.833;0.167 0.167 0.833 0.833;0.167 0.167 0.833 0.833;0.167 0.167 0.833 0.833;0.167 0.167 0.833 0.833;0.167 0.167 0.833 0.833;0.167 0.167 0.833 0.833;0.167 0.167 0.833 0.833;0.167 0.167 0.833 0.833;0 0 0 0" calcMode="spline"/><clipPath id="_R_G_L_0_C_0"><path id="_R_G_L_0_C_0_P_0" fill-rule="nonzero"/></clipPath><animateMotion repeatCount="indefinite" dur="5s" begin="0s" xlink:href="#_R_G_L_0_G" fill="freeze" keyTimes="0;0.2;0.368;0.408;0.504;0.624;0.696;0.88;0.96;1" path="M207 400 C207,400 207,400 207,400 C201.83,383.17 176,299 176,299 C176,299 176,299 176,299 C176,299 176,299 176,299 C176,299 176,299 176,299 C176,299 176,299 176,299 C176,299 176,299 176,299 C176,299 176,470 176,470 C176,470 176,470 176,470 " keyPoints="0;0;0.38;0.38;0.38;0.38;0.38;0.38;1;1" keySplines="0.167 0.167 0.667 1;0.167 0.167 0.667 1;0.333 0.333 0.833 0.833;0.167 0.167 0.833 0.833;0.167 0.167 0.833 0.833;0.167 0.167 0.833 0.833;0.167 0.167 0.667 0.667;0.333 0 0.833 0.833;0 0 0 0" calcMode="spline"/><animateTransform repeatCount="indefinite" dur="5s" begin="0s" xlink:href="#_R_G_L_0_G" fill="freeze" attributeName="transform" from="0" to="0" type="rotate" additive="sum" keyTimes="0;0.2;0.368;0.408;0.504;0.624;0.696;1" values="0;0;0;0;-3;-3;0;0" keySplines="0.167 0 0.667 1;0.167 0 0.667 1;0.333 0 0.833 1;0.167 0.167 0.833 0.833;0.167 0.167 0.833 0.833;0.167 0.167 0.833 0.833;0 0 0 0" calcMode="spline"/><animateTransform repeatCount="indefinite" dur="5s" begin="0s" xlink:href="#_R_G_L_0_G" fill="freeze" attributeName="transform" from="0.1 0.1" to="0.1 0.1" type="scale" additive="sum" keyTimes="0;1" values="0.1 0.1;0.1 0.1" keySplines="0 0 1 1" calcMode="spline"/><animateTransform repeatCount="indefinite" dur="5s" begin="0s" xlink:href="#_R_G_L_0_G" fill="freeze" attributeName="transform" from="-1950 -2808" to="-1950 -2808" type="translate" additive="sum" keyTimes="0;1" values="-1950 -2808;-1950 -2808" keySplines="0 0 1 1" calcMode="spline"/><animate repeatCount="indefinite" dur="5s" begin="0s" xlink:href="#_R_G_L_0_G_M" fill="freeze" attributeName="opacity" from="0" to="1" keyTimes="0;0.088;0.0880008;1" values="0;0;1;1" keySplines="0 0 0 0;0 0 0 0;0 0 0 0" calcMode="spline"/><animate attributeType="XML" attributeName="opacity" dur="5s" from="0" to="1" xlink:href="#time_group"/></defs><g id="_R_G"><g id="_R_G_L_4_G" transform=" translate(93.575, 96.927) scale(0.99, 0.99) translate(0, 0)"><path id="_R_G_L_4_G_D_0_P_0" fill="#e5f4ff" fill-opacity="1" fill-rule="nonzero" d=" M6.43 -91.62 C58.72,-91.62 101.12,-49.22 101.12,3.07 C101.12,55.37 58.72,97.77 6.43,97.77 C-45.87,97.77 -88.27,55.37 -88.27,3.07 C-88.27,-49.22 -45.87,-91.62 6.43,-91.62z "/></g><g id="_R_G_L_3_G"><g clip-path="url(#_R_G_L_3_C_0)"><path id="_R_G_L_3_G_G_0_D_0_P_0" fill="#ffb27d" fill-opacity="1" fill-rule="nonzero" d=" M1344.51 932.91 C1344.51,932.91 1248.77,1124.45 1151.51,1256.66 C1112.81,1309.29 1073.87,1352.51 1040.64,1370.53 C1008.11,1388.17 980.57,1415.57 957.78,1445.94 C898.76,1524.57 871.53,1623.01 871.53,1623.01 C871.53,1623.01 622.83,1246.76 622.83,1246.76 C622.83,1246.76 631.32,878.98 661.18,817.46 C704.7,727.8 725.72,546.66 742.44,510.6 C754.84,483.85 790.27,345.66 793.66,335.5 C795.14,331.13 806.92,324.42 822.23,324.43 C834.51,324.43 855.37,336.3 860.62,360.7 C887.22,484 855.21,565.34 855.57,568.95 C864.95,663.72 836.75,734.07 856.53,752.7 C857.26,753.38 858.63,753.06 860.56,751.82 C894.85,729.81 1107.64,419.58 1133.85,412.88 C1161.53,405.82 1344.51,932.91 1344.51,932.91z "/><path id="_R_G_L_3_G_G_0_D_1_P_0" fill="#ffb27d" fill-opacity="1" fill-rule="nonzero" d=" M1561.95 284.67 C1561.95,284.67 1484.93,397.57 1484.93,397.57 C1484.93,397.57 1409.36,508.37 1409.36,508.37 C1404.75,513.93 1399.42,515.86 1393.65,515.31 C1375.51,513.59 1353.08,487.43 1335.59,472.95 C1335.59,472.95 1333.82,471.49 1333.82,471.49 C1310.76,452.42 1307.5,417.95 1326.57,394.9 C1326.57,394.9 1442.08,255.27 1442.08,255.27 C1442.08,255.27 1442.08,255.26 1442.08,255.26 C1442.08,255.26 1476.34,213.85 1476.34,213.85 C1495.42,190.79 1529.89,187.54 1552.93,206.61 C1552.93,206.61 1554.71,208.07 1554.71,208.07 C1577.77,227.14 1581.02,261.61 1561.95,284.67z "/><path id="_R_G_L_3_G_G_0_D_2_P_0" fill="#efa26f" fill-opacity="1" fill-rule="nonzero" d=" M1484.93 397.57 C1484.93,397.57 1409.36,508.37 1409.36,508.37 C1404.75,513.93 1399.42,515.86 1393.65,515.31 C1393.65,515.31 1442.08,255.27 1442.08,255.27 C1442.19,256.73 1450.42,373.4 1484.93,397.57z "/><path id="_R_G_L_3_G_G_0_D_3_P_0" fill="#efa26f" fill-opacity="1" fill-rule="nonzero" d=" M1151.51 1256.66 C1112.81,1309.29 1073.88,1352.51 1040.64,1370.53 C1008.11,1388.17 980.57,1415.57 957.78,1445.94 C931.57,1433.72 901.7,1419.39 872.49,1405.19 C836.93,1387.91 835.56,1337.41 870.4,1318.7 C870.74,1318.52 871.07,1318.33 871.4,1318.14 C904.04,1299.47 937.48,1233.52 937.48,1233.52 C937.48,1233.52 1151.51,1256.66 1151.51,1256.66z "/><path id="_R_G_L_3_G_G_0_D_4_P_0" fill="#ffc197" fill-opacity="1" fill-rule="nonzero" d=" M791.93 341.22 C791.93,341.22 771.78,422.58 771.78,422.58 C771.78,422.58 789.4,429.78 800.71,424.19 C812.02,418.59 821.25,345.6 791.93,341.22z "/><path id="_R_G_L_3_G_G_0_D_5_P_0" fill="#f75d34" fill-opacity="1" fill-rule="nonzero" d=" M946.35 1548.55 C946.35,1548.55 942.96,1715.74 933.27,1940.93 C933.27,1940.93 305.95,1940.93 305.95,1940.93 C449.34,1635.15 574.01,1377.79 574.01,1377.79 C574.01,1377.79 931.19,1388.7 946.35,1548.55z "/><path id="_R_G_L_3_G_G_0_D_6_P_0" fill="#ffffff" fill-opacity="1" fill-rule="nonzero" d=" M968.7 1674.26 C921.09,1684.03 818.48,1646.63 818.48,1646.63 C818.48,1646.63 835.03,1486.77 835.03,1486.77 C835.03,1486.77 719.07,1619.56 719.07,1619.56 C660.06,1597.61 567.77,1540.3 512.94,1504.64 C485.64,1486.88 467.62,1474.49 467.62,1474.49 C545,1349.98 622.83,1233.51 622.83,1233.51 C645.68,1279.22 699.75,1318.91 758.37,1350.65 C855.78,1403.41 965.73,1434.23 965.73,1434.23 C965.69,1529.24 968.7,1674.26 968.7,1674.26z "/><path id="_R_G_L_3_G_G_0_D_7_P_0" fill="#efa26f" fill-opacity="1" fill-rule="nonzero" d=" M860.63 1003.02 C860.63,1003.02 843.59,854.33 827.88,825.34 C812.16,796.34 798.86,738.27 823.04,695.13 C847.22,651.97 855.57,568.95 855.57,568.95 C864.95,663.72 836.75,734.07 856.53,752.7 C857.26,753.39 858.63,753.06 860.56,751.83 C860.56,751.83 860.63,1003.02 860.63,1003.02z "/><path id="_R_G_L_3_G_G_0_D_8_P_0" fill="#f2f7ff" fill-opacity="1" fill-rule="nonzero" d=" M968.7 1674.26 C921.09,1684.03 818.48,1646.63 818.48,1646.63 C818.48,1646.63 835.03,1486.77 835.03,1486.77 C835.03,1486.77 719.07,1619.56 719.07,1619.56 C660.06,1597.61 567.77,1540.3 512.94,1504.64 C653.46,1489.32 758.37,1350.65 758.37,1350.65 C855.78,1403.41 965.73,1434.23 965.73,1434.23 C965.69,1529.24 968.7,1674.26 968.7,1674.26z "/><path id="_R_G_L_3_G_G_0_D_9_P_0" fill="#f75d34" fill-opacity="1" fill-rule="nonzero" d=" M641.99 1529.06 C642.08,1518.4 650.8,1509.84 661.46,1509.94 C672.12,1510.04 680.68,1518.76 680.59,1529.42 C680.49,1540.08 671.77,1548.64 661.11,1548.54 C650.45,1548.44 641.89,1539.72 641.99,1529.06z "/><path id="_R_G_L_3_G_G_0_D_10_P_0" fill="#2b478b" fill-opacity="1" fill-rule="nonzero" d=" M1371.42 1295.11 C1371.42,1295.11 938.12,1295.11 938.12,1295.11 C895.5,1295.11 860.63,1260.23 860.63,1217.61 C860.63,1217.61 860.63,265.19 860.63,265.19 C860.63,222.57 895.5,187.69 938.12,187.69 C938.12,187.69 1371.42,187.69 1371.42,187.69 C1414.04,187.69 1448.91,222.57 1448.91,265.19 C1448.91,265.19 1448.91,1217.61 1448.91,1217.61 C1448.91,1260.23 1414.04,1295.11 1371.42,1295.11z "/><path id="_R_G_L_3_G_G_0_D_11_P_0" fill="#15313f" fill-opacity="1" fill-rule="nonzero" d=" M1419.76 272.52 C1419.76,272.52 1419.76,1202.87 1419.76,1202.87 C1419.76,1234.43 1394.12,1260.25 1362.8,1260.25 C1362.8,1260.25 946.74,1260.25 946.74,1260.25 C915.42,1260.25 889.79,1234.43 889.79,1202.87 C889.79,1202.87 889.79,272.52 889.79,272.52 C889.79,240.96 915.42,215.14 946.74,215.14 C946.74,215.14 1362.8,215.14 1362.8,215.14 C1394.12,215.14 1419.76,240.96 1419.76,272.52z "/><path id="_R_G_L_3_G_G_0_D_12_P_0" fill="#2b478b" fill-opacity="1" fill-rule="nonzero" d=" M1241.72 249.74 C1241.72,249.74 1067.83,249.74 1067.83,249.74 C1053.66,249.74 1042.07,238.15 1042.07,223.99 C1042.07,223.99 1042.07,219.94 1042.07,219.94 C1042.07,205.78 1053.66,194.19 1067.83,194.19 C1067.83,194.19 1241.72,194.19 1241.72,194.19 C1255.88,194.19 1267.47,205.78 1267.47,219.94 C1267.47,219.94 1267.47,223.99 1267.47,223.99 C1267.47,238.15 1255.88,249.74 1241.72,249.74z "/><path id="_R_G_L_3_G_G_0_D_13_P_0" fill="#ffb27d" fill-opacity="1" fill-rule="nonzero" d=" M1523.61 711.03 C1523.61,711.03 1512.13,715.39 1512.13,715.39 C1512.13,715.39 1434.9,744.74 1434.9,744.74 C1433.09,745.43 1431.26,746.02 1429.42,746.48 C1403.85,753.13 1376.64,739.49 1367.05,714.26 C1367.05,714.26 1365.92,711.29 1365.92,711.29 C1355.64,684.25 1369.36,653.71 1396.4,643.43 C1396.4,643.43 1468.4,616.08 1468.4,616.08 C1468.4,616.08 1473.63,614.08 1473.63,614.08 C1473.63,614.08 1485.12,609.72 1485.12,609.72 C1512.16,599.44 1542.69,613.16 1552.96,640.21 C1552.96,640.21 1554.1,643.17 1554.1,643.17 C1564.37,670.22 1550.66,700.75 1523.61,711.03z "/><path id="_R_G_L_3_G_G_0_D_14_P_0" fill="#ffd3b6" fill-opacity="1" fill-rule="nonzero" d=" M1460.89 712.8 C1448.01,717.69 1424.67,726.35 1412.19,728.15 C1408.66,728.66 1402.15,726.73 1396.09,720.09 C1392.44,716.1 1388.96,710.43 1386.37,702.57 C1385.16,698.87 1384.16,695.18 1383.73,691.39 C1383.25,686.94 1383.38,682.49 1384.16,678.09 C1384.86,674.12 1387.57,670.51 1391.52,668.6 C1391.54,668.59 1391.57,668.59 1391.58,668.57 C1404.85,662.24 1422.74,654.51 1438.42,650.21 C1449.26,647.21 1460.23,652 1463.66,661.49 C1463.66,661.49 1465.28,665.92 1465.28,665.92 C1465.28,665.92 1473.57,688.62 1473.57,688.62 C1477,698.05 1471.42,708.83 1460.89,712.8z "/><path id="_R_G_L_3_G_G_0_D_15_P_0" fill="#ffc197" fill-opacity="1" fill-rule="nonzero" d=" M1460.89 712.8 C1448.01,717.69 1424.67,726.35 1412.19,728.15 C1408.66,728.65 1402.15,726.73 1396.09,720.09 C1395.44,718.57 1394.84,716.98 1394.28,715.27 C1393.06,711.57 1392.06,707.89 1391.64,704.09 C1391.16,699.64 1391.29,695.2 1392.06,690.79 C1392.77,686.83 1395.48,683.21 1399.43,681.31 C1399.44,681.29 1399.47,681.29 1399.49,681.28 C1412.76,674.94 1430.64,667.22 1446.33,662.91 C1453.27,660.99 1460.26,662.26 1465.28,665.92 C1465.28,665.92 1473.57,688.62 1473.57,688.62 C1477,698.05 1471.42,708.83 1460.89,712.8z "/><path id="_R_G_L_3_G_G_0_D_16_P_0" fill="#ffb27d" fill-opacity="1" fill-rule="nonzero" d=" M1488.57 819.61 C1488.57,819.61 1429.01,835.82 1429.01,835.82 C1410.92,840.75 1392.08,829.97 1387.15,811.88 C1387.15,811.88 1385.31,805.14 1385.31,805.14 C1380.39,787.04 1391.16,768.2 1409.26,763.27 C1409.26,763.27 1468.82,747.06 1468.82,747.06 C1486.91,742.13 1505.75,752.91 1510.68,771.01 C1510.68,771.01 1512.51,777.75 1512.51,777.75 C1517.44,795.84 1506.67,814.68 1488.57,819.61z "/><path id="_R_G_L_3_G_G_0_D_17_P_0" fill="#ffd3b6" fill-opacity="1" fill-rule="nonzero" d=" M1456.36 816.69 C1445.42,819.61 1425.65,824.76 1415.28,825.33 C1411.51,825.54 1403.96,822.35 1399.04,812.44 C1397.82,810.04 1396.79,807.26 1395.99,804.04 C1395.27,801.12 1394.72,798.22 1394.66,795.29 C1394.59,791.83 1395.03,788.43 1395.99,785.09 C1396.85,782.09 1399.35,779.49 1402.72,778.29 C1402.75,778.28 1402.76,778.28 1402.78,778.26 C1414.13,774.25 1429.37,769.47 1442.56,767.17 C1451.66,765.57 1460.3,769.95 1462.43,777.46 C1462.43,777.46 1463.97,782.82 1463.97,782.82 C1463.97,782.82 1468.56,798.93 1468.56,798.93 C1470.68,806.38 1465.3,814.31 1456.36,816.69z "/><path id="_R_G_L_3_G_G_0_D_18_P_0" fill="#ffc197" fill-opacity="1" fill-rule="nonzero" d=" M1456.36 816.69 C1445.42,819.61 1425.65,824.76 1415.28,825.33 C1411.51,825.54 1403.96,822.35 1399.04,812.44 C1398.37,809.71 1397.89,806.99 1397.84,804.22 C1397.76,800.78 1398.2,797.36 1399.16,794.03 C1400.02,791.04 1402.52,788.43 1405.9,787.23 C1405.92,787.21 1405.94,787.21 1405.95,787.2 C1417.3,783.19 1432.55,778.4 1445.73,776.12 C1453.27,774.79 1460.5,777.57 1463.97,782.82 C1463.97,782.82 1468.56,798.93 1468.56,798.93 C1470.68,806.38 1465.3,814.31 1456.36,816.69z "/><path id="_R_G_L_3_G_G_0_D_19_P_0" fill="#ffb27d" fill-opacity="1" fill-rule="nonzero" d=" M1521.73 596.89 C1521.31,597.04 1520.88,597.19 1520.45,597.33 C1520.45,597.33 1442.37,617.37 1442.37,617.37 C1408.04,626.2 1372.53,607.62 1363.47,576.1 C1363.47,576.1 1358.83,559.95 1358.83,559.95 C1350.12,529.68 1368.83,498.03 1400.74,487.77 C1400.74,487.77 1426.52,481.15 1426.52,481.15 C1426.52,481.15 1478.82,467.72 1478.82,467.72 C1513.15,458.9 1548.65,477.48 1557.71,509 C1557.71,509 1562.36,525.15 1562.36,525.15 C1570.94,555.01 1552.84,586.19 1521.73,596.89z "/><path id="_R_G_L_3_G_G_0_D_20_P_0" fill="#ffd3b6" fill-opacity="1" fill-rule="nonzero" d=" M1485.95 575.09 C1485.95,575.09 1448.02,592.19 1448.02,592.19 C1447.96,592.2 1447.89,592.22 1447.78,592.24 C1446.26,592.66 1444.72,592.96 1443.19,593.19 C1442.56,593.29 1441.91,593.36 1441.27,593.43 C1441,593.46 1440.74,593.46 1440.47,593.44 C1436.29,593.3 1433.42,588.87 1435.23,584.92 C1438.81,577.11 1439.79,568.08 1437.38,559.2 C1437.38,559.2 1436.47,555.89 1436.47,555.89 C1436.47,555.86 1436.46,555.82 1436.44,555.79 C1436.44,555.79 1433.51,545.02 1433.51,545.02 C1431.18,536.44 1426.22,529.26 1419.76,524.06 C1418.98,523.42 1418.18,522.83 1417.36,522.27 C1409.86,517.07 1411.77,505.31 1420.55,502.87 C1420.63,502.84 1420.7,502.83 1420.79,502.8 C1420.79,502.8 1462.42,496.5 1462.42,496.5 C1472.71,493.71 1482.62,501.63 1485.43,511.92 C1485.43,511.92 1488.77,524.19 1488.77,524.19 C1488.77,524.19 1495.89,550.34 1495.89,550.34 C1498.68,560.65 1496.24,572.3 1485.95,575.09z "/><path id="_R_G_L_3_G_G_0_D_21_P_0" fill="#ffc197" fill-opacity="1" fill-rule="nonzero" d=" M1485.95 575.09 C1485.95,575.09 1448.02,592.19 1448.02,592.19 C1447.96,592.2 1447.89,592.22 1447.78,592.25 C1446.89,592.41 1444.11,592.88 1440.47,593.44 C1436.29,593.3 1433.42,588.87 1435.23,584.92 C1438.82,577.11 1439.79,568.08 1437.38,559.2 C1437.38,559.2 1436.47,555.89 1436.47,555.89 C1436.47,555.87 1436.46,555.82 1436.44,555.79 C1436.44,555.79 1433.51,545.02 1433.51,545.02 C1431.18,536.44 1426.22,529.26 1419.76,524.06 C1421.1,522.1 1423.1,520.55 1425.73,519.81 C1425.8,519.78 1425.89,519.77 1425.97,519.74 C1425.97,519.74 1467.6,513.44 1467.6,513.44 C1476.27,511.09 1484.65,516.34 1488.77,524.19 C1488.77,524.19 1495.89,550.34 1495.89,550.34 C1498.68,560.65 1496.24,572.3 1485.95,575.09z "/><path id="_R_G_L_3_G_G_0_D_22_P_0" fill="#ffffff" fill-opacity="1" fill-rule="nonzero" d=" M985.31 430.28 C985.31,430.28 985.31,437.07 985.31,437.07 C985.31,437.07 971.81,437.07 971.81,437.07 C971.81,437.07 971.81,481.01 971.81,481.01 C971.81,481.01 963.49,481.01 963.49,481.01 C963.49,481.01 963.49,437.07 963.49,437.07 C963.49,437.07 949.91,437.07 949.91,437.07 C949.91,437.07 949.91,430.28 949.91,430.28 C949.91,430.28 985.31,430.28 985.31,430.28z "/><path id="_R_G_L_3_G_G_0_D_23_P_0" fill="#ffffff" fill-opacity="1" fill-rule="nonzero" d=" M1030.28 464 C1030.28,464 999.55,464 999.55,464 C999.79,467.22 1000.98,469.8 1003.12,471.74 C1005.27,473.69 1007.89,474.66 1011.01,474.66 C1015.49,474.66 1018.65,472.79 1020.5,469.04 C1020.5,469.04 1029.48,469.04 1029.48,469.04 C1028.26,472.74 1026.06,475.77 1022.87,478.13 C1019.68,480.49 1015.73,481.67 1011.01,481.67 C1007.16,481.67 1003.72,480.81 1000.68,479.08 C997.64,477.35 995.25,474.92 993.53,471.78 C991.8,468.64 990.93,465 990.93,460.87 C990.93,456.73 991.77,453.09 993.45,449.95 C995.13,446.81 997.49,444.39 1000.53,442.69 C1003.57,440.99 1007.07,440.13 1011.01,440.13 C1014.8,440.13 1018.19,440.96 1021.16,442.62 C1024.12,444.27 1026.44,446.59 1028.09,449.59 C1029.74,452.58 1030.57,456.02 1030.57,459.92 C1030.57,461.43 1030.47,462.79 1030.28,464z  M1021.89 457.29 C1021.84,454.22 1020.74,451.77 1018.6,449.92 C1016.46,448.07 1013.81,447.14 1010.64,447.14 C1007.77,447.14 1005.31,448.05 1003.27,449.88 C1001.23,451.7 1000.01,454.17 999.62,457.29 C999.62,457.29 1021.89,457.29 1021.89,457.29z "/><path id="_R_G_L_3_G_G_0_D_24_P_0" fill="#ffffff" fill-opacity="1" fill-rule="nonzero" d=" M1038.49 449.95 C1040.17,446.81 1042.49,444.39 1045.46,442.69 C1048.43,440.99 1051.84,440.13 1055.68,440.13 C1060.55,440.13 1064.58,441.29 1067.77,443.6 C1070.95,445.91 1073.11,449.21 1074.23,453.49 C1074.23,453.49 1065.25,453.49 1065.25,453.49 C1064.52,451.5 1063.35,449.94 1061.74,448.82 C1060.14,447.7 1058.12,447.14 1055.68,447.14 C1052.28,447.14 1049.56,448.35 1047.54,450.76 C1045.52,453.17 1044.51,456.54 1044.51,460.87 C1044.51,465.2 1045.52,468.58 1047.54,471.01 C1049.56,473.45 1052.28,474.66 1055.68,474.66 C1060.5,474.66 1063.69,472.55 1065.25,468.31 C1065.25,468.31 1074.23,468.31 1074.23,468.31 C1073.06,472.4 1070.87,475.65 1067.66,478.06 C1064.44,480.47 1060.45,481.67 1055.68,481.67 C1051.84,481.67 1048.43,480.81 1045.46,479.08 C1042.49,477.35 1040.17,474.92 1038.49,471.78 C1036.81,468.64 1035.97,465 1035.97,460.87 C1035.97,456.73 1036.81,453.09 1038.49,449.95z "/><path id="_R_G_L_3_G_G_0_D_25_P_0" fill="#ffffff" fill-opacity="1" fill-rule="nonzero" d=" M1111.57 442.11 C1113.97,443.42 1115.87,445.37 1117.26,447.95 C1118.65,450.53 1119.34,453.64 1119.34,457.29 C1119.34,457.29 1119.34,481.01 1119.34,481.01 C1119.34,481.01 1111.09,481.01 1111.09,481.01 C1111.09,481.01 1111.09,458.53 1111.09,458.53 C1111.09,454.93 1110.19,452.17 1108.39,450.25 C1106.59,448.32 1104.13,447.36 1101.02,447.36 C1097.9,447.36 1095.43,448.32 1093.61,450.25 C1091.78,452.17 1090.87,454.93 1090.87,458.53 C1090.87,458.53 1090.87,481.01 1090.87,481.01 C1090.87,481.01 1082.55,481.01 1082.55,481.01 C1082.55,481.01 1082.55,426.99 1082.55,426.99 C1082.55,426.99 1090.87,426.99 1090.87,426.99 C1090.87,426.99 1090.87,445.46 1090.87,445.46 C1092.28,443.76 1094.07,442.45 1096.23,441.52 C1098.4,440.6 1100.77,440.13 1103.35,440.13 C1106.42,440.13 1109.16,440.79 1111.57,442.11z "/><path id="_R_G_L_3_G_G_0_D_26_P_0" fill="#ffffff" fill-opacity="1" fill-rule="nonzero" d=" M1138.25 488.9 C1138.25,492.84 1137.26,495.7 1135.29,497.48 C1133.32,499.25 1130.46,500.14 1126.71,500.14 C1126.71,500.14 1122.41,500.14 1122.41,500.14 C1122.41,500.14 1122.41,493.13 1122.41,493.13 C1122.41,493.13 1125.25,493.13 1125.25,493.13 C1126.96,493.13 1128.16,492.8 1128.87,492.15 C1129.57,491.49 1129.92,490.41 1129.92,488.9 C1129.92,488.9 1129.92,440.79 1129.92,440.79 C1129.92,440.79 1138.25,440.79 1138.25,440.79 C1138.25,440.79 1138.25,488.9 1138.25,488.9z  M1130.36 433.93 C1129.34,432.91 1128.83,431.64 1128.83,430.13 C1128.83,428.63 1129.34,427.36 1130.36,426.34 C1131.38,425.32 1132.65,424.8 1134.16,424.8 C1135.62,424.8 1136.86,425.32 1137.88,426.34 C1138.9,427.36 1139.41,428.63 1139.41,430.13 C1139.41,431.64 1138.9,432.91 1137.88,433.93 C1136.86,434.95 1135.62,435.46 1134.16,435.46 C1132.65,435.46 1131.38,434.95 1130.36,433.93z "/><path id="_R_G_L_3_G_G_0_D_27_P_0" fill="#ffffff" fill-opacity="1" fill-rule="nonzero" d=" M1156.35 479.08 C1153.28,477.35 1150.87,474.92 1149.12,471.78 C1147.37,468.64 1146.49,465 1146.49,460.87 C1146.49,456.78 1147.39,453.15 1149.2,449.99 C1151,446.83 1153.45,444.39 1156.57,442.69 C1159.68,440.99 1163.16,440.13 1167.01,440.13 C1170.85,440.13 1174.33,440.99 1177.45,442.69 C1180.56,444.39 1183.02,446.83 1184.82,449.99 C1186.62,453.15 1187.52,456.78 1187.52,460.87 C1187.52,464.95 1186.6,468.58 1184.75,471.74 C1182.9,474.91 1180.38,477.35 1177.19,479.08 C1174,480.81 1170.49,481.67 1166.64,481.67 C1162.85,481.67 1159.42,480.81 1156.35,479.08z  M1172.66 472.91 C1174.54,471.89 1176.06,470.35 1177.23,468.31 C1178.39,466.27 1178.98,463.79 1178.98,460.87 C1178.98,457.95 1178.42,455.48 1177.3,453.46 C1176.18,451.44 1174.7,449.92 1172.85,448.89 C1171,447.87 1169,447.36 1166.86,447.36 C1164.72,447.36 1162.74,447.87 1160.91,448.89 C1159.09,449.92 1157.64,451.44 1156.57,453.46 C1155.5,455.48 1154.96,457.95 1154.96,460.87 C1154.96,465.2 1156.07,468.54 1158.28,470.9 C1160.5,473.27 1163.28,474.44 1166.64,474.44 C1168.78,474.44 1170.79,473.93 1172.66,472.91z "/><path id="_R_G_L_3_G_G_0_D_28_P_0" fill="#ffffff" fill-opacity="1" fill-rule="nonzero" d=" M1195.51 449.95 C1197.19,446.81 1199.51,444.39 1202.48,442.69 C1205.45,440.99 1208.86,440.13 1212.7,440.13 C1217.57,440.13 1221.6,441.29 1224.78,443.6 C1227.97,445.91 1230.13,449.21 1231.25,453.49 C1231.25,453.49 1222.27,453.49 1222.27,453.49 C1221.54,451.5 1220.37,449.94 1218.76,448.82 C1217.16,447.7 1215.14,447.14 1212.7,447.14 C1209.3,447.14 1206.58,448.35 1204.56,450.76 C1202.54,453.17 1201.53,456.54 1201.53,460.87 C1201.53,465.2 1202.54,468.58 1204.56,471.01 C1206.58,473.45 1209.3,474.66 1212.7,474.66 C1217.52,474.66 1220.71,472.55 1222.27,468.31 C1222.27,468.31 1231.25,468.31 1231.25,468.31 C1230.08,472.4 1227.89,475.65 1224.68,478.06 C1221.46,480.47 1217.47,481.67 1212.7,481.67 C1208.86,481.67 1205.45,480.81 1202.48,479.08 C1199.51,477.35 1197.19,474.92 1195.51,471.78 C1193.83,468.64 1192.99,465 1192.99,460.87 C1192.99,456.73 1193.83,453.09 1195.51,449.95z "/><path id="_R_G_L_3_G_G_0_D_29_P_0" fill="#ffffff" fill-opacity="1" fill-rule="nonzero" d=" M1255.48 460.94 C1255.48,460.94 1274.02,481.01 1274.02,481.01 C1274.02,481.01 1262.78,481.01 1262.78,481.01 C1262.78,481.01 1247.89,463.71 1247.89,463.71 C1247.89,463.71 1247.89,481.01 1247.89,481.01 C1247.89,481.01 1239.57,481.01 1239.57,481.01 C1239.57,481.01 1239.57,426.99 1239.57,426.99 C1239.57,426.99 1247.89,426.99 1247.89,426.99 C1247.89,426.99 1247.89,458.38 1247.89,458.38 C1247.89,458.38 1262.49,440.79 1262.49,440.79 C1262.49,440.79 1274.02,440.79 1274.02,440.79 C1274.02,440.79 1255.48,460.94 1255.48,460.94z "/><path id="_R_G_L_3_G_G_0_D_30_P_0" fill="#ffffff" fill-opacity="1" fill-rule="nonzero" d=" M1316.58 464 C1316.58,464 1285.85,464 1285.85,464 C1286.09,467.22 1287.28,469.8 1289.42,471.74 C1291.57,473.69 1294.2,474.66 1297.31,474.66 C1301.79,474.66 1304.95,472.79 1306.8,469.04 C1306.8,469.04 1315.78,469.04 1315.78,469.04 C1314.56,472.74 1312.36,475.77 1309.17,478.13 C1305.98,480.49 1302.03,481.67 1297.31,481.67 C1293.46,481.67 1290.02,480.81 1286.98,479.08 C1283.94,477.35 1281.55,474.92 1279.83,471.78 C1278.1,468.64 1277.24,465 1277.24,460.87 C1277.24,456.73 1278.07,453.09 1279.75,449.95 C1281.43,446.81 1283.79,444.39 1286.83,442.69 C1289.87,440.99 1293.37,440.13 1297.31,440.13 C1301.11,440.13 1304.49,440.96 1307.46,442.62 C1310.42,444.27 1312.74,446.59 1314.39,449.59 C1316.05,452.58 1316.87,456.02 1316.87,459.92 C1316.87,461.43 1316.78,462.79 1316.58,464z  M1308.19 457.29 C1308.14,454.22 1307.04,451.77 1304.9,449.92 C1302.76,448.07 1300.11,447.14 1296.95,447.14 C1294.07,447.14 1291.62,448.05 1289.57,449.88 C1287.53,451.7 1286.31,454.17 1285.92,457.29 C1285.92,457.29 1308.19,457.29 1308.19,457.29z "/><path id="_R_G_L_3_G_G_0_D_31_P_0" fill="#ffffff" fill-opacity="1" fill-rule="nonzero" d=" M1361.26 440.79 C1361.26,440.79 1336.58,499.92 1336.58,499.92 C1336.58,499.92 1327.97,499.92 1327.97,499.92 C1327.97,499.92 1336.15,480.36 1336.15,480.36 C1336.15,480.36 1320.3,440.79 1320.3,440.79 C1320.3,440.79 1329.57,440.79 1329.57,440.79 C1329.57,440.79 1340.89,471.45 1340.89,471.45 C1340.89,471.45 1352.64,440.79 1352.64,440.79 C1352.64,440.79 1361.26,440.79 1361.26,440.79z "/><path id="_R_G_L_3_G_G_0_D_32_P_0" fill="#37839b" fill-opacity="1" fill-rule="nonzero" d=" M1030.28 560.03 C1032.18,556.79 1034.76,554.26 1038.02,552.44 C1041.28,550.62 1044.85,549.71 1048.73,549.71 C1053.17,549.71 1057.12,550.8 1060.58,552.98 C1064.04,555.16 1066.55,558.25 1068.11,562.25 C1068.11,562.25 1059.89,562.25 1059.89,562.25 C1058.81,560.05 1057.31,558.41 1055.39,557.33 C1053.47,556.25 1051.25,555.71 1048.73,555.71 C1045.97,555.71 1043.51,556.33 1041.35,557.57 C1039.19,558.81 1037.5,560.59 1036.28,562.91 C1035.06,565.23 1034.45,567.93 1034.45,571.01 C1034.45,574.09 1035.06,576.79 1036.28,579.11 C1037.5,581.43 1039.19,583.22 1041.35,584.48 C1043.51,585.74 1045.97,586.37 1048.73,586.37 C1051.25,586.37 1053.47,585.83 1055.39,584.75 C1057.31,583.67 1058.81,582.03 1059.89,579.83 C1059.89,579.83 1068.11,579.83 1068.11,579.83 C1066.55,583.83 1064.04,586.91 1060.58,589.07 C1057.12,591.23 1053.17,592.31 1048.73,592.31 C1044.81,592.31 1041.23,591.4 1037.99,589.58 C1034.75,587.76 1032.18,585.23 1030.28,581.99 C1028.38,578.75 1027.43,575.09 1027.43,571.01 C1027.43,566.93 1028.38,563.27 1030.28,560.03z "/><path id="_R_G_L_3_G_G_0_D_33_P_0" fill="#37839b" fill-opacity="1" fill-rule="nonzero" d=" M1075.88 566.45 C1077.26,563.89 1079.14,561.9 1081.52,560.48 C1083.9,559.06 1086.53,558.35 1089.41,558.35 C1092.01,558.35 1094.28,558.86 1096.22,559.88 C1098.16,560.9 1099.71,562.17 1100.87,563.69 C1100.87,563.69 1100.87,558.89 1100.87,558.89 C1100.87,558.89 1107.77,558.89 1107.77,558.89 C1107.77,558.89 1107.77,591.95 1107.77,591.95 C1107.77,591.95 1100.87,591.95 1100.87,591.95 C1100.87,591.95 1100.87,587.03 1100.87,587.03 C1099.71,588.59 1098.13,589.89 1096.13,590.93 C1094.13,591.97 1091.85,592.49 1089.29,592.49 C1086.45,592.49 1083.85,591.76 1081.49,590.3 C1079.13,588.84 1077.26,586.8 1075.88,584.18 C1074.5,581.56 1073.81,578.59 1073.81,575.27 C1073.81,571.95 1074.5,569.01 1075.88,566.45z  M1099.46 569.45 C1098.52,567.77 1097.29,566.49 1095.77,565.61 C1094.25,564.73 1092.61,564.29 1090.85,564.29 C1089.09,564.29 1087.45,564.72 1085.93,565.58 C1084.41,566.44 1083.18,567.7 1082.24,569.36 C1081.3,571.02 1080.83,572.99 1080.83,575.27 C1080.83,577.55 1081.3,579.55 1082.24,581.27 C1083.18,582.99 1084.42,584.3 1085.96,585.2 C1087.5,586.1 1089.13,586.55 1090.85,586.55 C1092.61,586.55 1094.25,586.11 1095.77,585.23 C1097.29,584.35 1098.52,583.06 1099.46,581.36 C1100.4,579.66 1100.87,577.67 1100.87,575.39 C1100.87,573.11 1100.4,571.13 1099.46,569.45z "/><path id="_R_G_L_3_G_G_0_D_34_P_0" fill="#37839b" fill-opacity="1" fill-rule="nonzero" d=" M1123.61 591.95 C1123.61,591.95 1116.77,591.95 1116.77,591.95 C1116.77,591.95 1116.77,547.55 1116.77,547.55 C1116.77,547.55 1123.61,547.55 1123.61,547.55 C1123.61,547.55 1123.61,591.95 1123.61,591.95z "/><path id="_R_G_L_3_G_G_0_D_35_P_0" fill="#37839b" fill-opacity="1" fill-rule="nonzero" d=" M1139.45 591.95 C1139.45,591.95 1132.61,591.95 1132.61,591.95 C1132.61,591.95 1132.61,547.55 1132.61,547.55 C1132.61,547.55 1139.45,547.55 1139.45,547.55 C1139.45,547.55 1139.45,591.95 1139.45,591.95z "/><path id="_R_G_L_3_G_G_0_D_36_P_0" fill="#37839b" fill-opacity="1" fill-rule="nonzero" d=" M1148.81 553.25 C1147.97,552.41 1147.55,551.37 1147.55,550.13 C1147.55,548.89 1147.97,547.85 1148.81,547.01 C1149.65,546.17 1150.69,545.75 1151.93,545.75 C1153.13,545.75 1154.15,546.17 1154.99,547.01 C1155.83,547.85 1156.25,548.89 1156.25,550.13 C1156.25,551.37 1155.83,552.41 1154.99,553.25 C1154.15,554.09 1153.13,554.51 1151.93,554.51 C1150.69,554.51 1149.65,554.09 1148.81,553.25z    M1155.29 591.95 C1155.29,591.95 1148.45,591.95 1148.45,591.95 C1148.45,591.95 1148.45,558.89 1148.45,558.89 C1148.45,558.89 1155.29,558.89 1155.29,558.89 C1155.29,558.89 1155.29,591.95 1155.29,591.95z "/><path id="_R_G_L_3_G_G_0_D_37_P_0" fill="#37839b" fill-opacity="1" fill-rule="nonzero" d=" M1187.96 559.97 C1190.02,561.05 1191.63,562.65 1192.79,564.77 C1193.95,566.89 1194.53,569.45 1194.53,572.45 C1194.53,572.45 1194.53,591.95 1194.53,591.95 C1194.53,591.95 1187.75,591.95 1187.75,591.95 C1187.75,591.95 1187.75,573.47 1187.75,573.47 C1187.75,570.51 1187.01,568.25 1185.53,566.66 C1184.05,565.08 1182.03,564.29 1179.47,564.29 C1176.91,564.29 1174.88,565.08 1173.38,566.66 C1171.88,568.25 1171.13,570.51 1171.13,573.47 C1171.13,573.47 1171.13,591.95 1171.13,591.95 C1171.13,591.95 1164.29,591.95 1164.29,591.95 C1164.29,591.95 1164.29,558.89 1164.29,558.89 C1164.29,558.89 1171.13,558.89 1171.13,558.89 C1171.13,558.89 1171.13,562.67 1171.13,562.67 C1172.25,561.32 1173.68,560.25 1175.42,559.49 C1177.16,558.74 1179.01,558.35 1180.97,558.35 C1183.57,558.35 1185.9,558.89 1187.96,559.97z "/><path id="_R_G_L_3_G_G_0_D_38_P_0" fill="#37839b" fill-opacity="1" fill-rule="nonzero" d=" M1223.36 559.88 C1225.34,560.9 1226.89,562.17 1228.01,563.69 C1228.01,563.69 1228.01,558.89 1228.01,558.89 C1228.01,558.89 1234.91,558.89 1234.91,558.89 C1234.91,558.89 1234.91,592.49 1234.91,592.49 C1234.91,595.53 1234.27,598.24 1232.99,600.62 C1231.71,603 1229.86,604.87 1227.44,606.23 C1225.02,607.59 1222.13,608.27 1218.77,608.27 C1214.29,608.27 1210.57,607.22 1207.61,605.12 C1204.65,603.02 1202.97,600.17 1202.57,596.57 C1202.57,596.57 1209.35,596.57 1209.35,596.57 C1209.87,598.29 1210.98,599.68 1212.68,600.74 C1214.38,601.8 1216.41,602.33 1218.77,602.33 C1221.53,602.33 1223.76,601.49 1225.46,599.81 C1227.16,598.13 1228.01,595.69 1228.01,592.49 C1228.01,592.49 1228.01,586.97 1228.01,586.97 C1226.85,588.53 1225.28,589.84 1223.3,590.9 C1221.32,591.96 1219.07,592.49 1216.55,592.49 C1213.67,592.49 1211.04,591.76 1208.66,590.3 C1206.28,588.84 1204.4,586.8 1203.02,584.18 C1201.64,581.56 1200.95,578.59 1200.95,575.27 C1200.95,571.95 1201.64,569.01 1203.02,566.45 C1204.4,563.89 1206.28,561.9 1208.66,560.48 C1211.04,559.06 1213.67,558.35 1216.55,558.35 C1219.11,558.35 1221.38,558.86 1223.36,559.88z  M1226.6 569.45 C1225.66,567.77 1224.43,566.49 1222.91,565.61 C1221.39,564.73 1219.75,564.29 1217.99,564.29 C1216.23,564.29 1214.59,564.72 1213.07,565.58 C1211.55,566.44 1210.32,567.7 1209.38,569.36 C1208.44,571.02 1207.97,572.99 1207.97,575.27 C1207.97,577.55 1208.44,579.55 1209.38,581.27 C1210.32,582.99 1211.56,584.3 1213.1,585.2 C1214.64,586.1 1216.27,586.55 1217.99,586.55 C1219.75,586.55 1221.39,586.11 1222.91,585.23 C1224.43,584.35 1225.66,583.06 1226.6,581.36 C1227.54,579.66 1228.01,577.67 1228.01,575.39 C1228.01,573.11 1227.54,571.13 1226.6,569.45z "/><path id="_R_G_L_3_G_G_0_D_39_P_0" fill="#37839b" fill-opacity="1" fill-rule="nonzero" d=" M1243.55 591.11 C1242.71,590.27 1242.29,589.23 1242.29,587.99 C1242.29,586.75 1242.71,585.71 1243.55,584.87 C1244.39,584.03 1245.43,583.61 1246.67,583.61 C1247.87,583.61 1248.89,584.03 1249.73,584.87 C1250.57,585.71 1250.99,586.75 1250.99,587.99 C1250.99,589.23 1250.57,590.27 1249.73,591.11 C1248.89,591.95 1247.87,592.37 1246.67,592.37 C1245.43,592.37 1244.39,591.95 1243.55,591.11z "/><path id="_R_G_L_3_G_G_0_D_40_P_0" fill="#37839b" fill-opacity="1" fill-rule="nonzero" d=" M1258.01 591.11 C1257.17,590.27 1256.75,589.23 1256.75,587.99 C1256.75,586.75 1257.17,585.71 1258.01,584.87 C1258.85,584.03 1259.89,583.61 1261.13,583.61 C1262.33,583.61 1263.35,584.03 1264.19,584.87 C1265.03,585.71 1265.45,586.75 1265.45,587.99 C1265.45,589.23 1265.03,590.27 1264.19,591.11 C1263.35,591.95 1262.33,592.37 1261.13,592.37 C1259.89,592.37 1258.85,591.95 1258.01,591.11z "/><path id="_R_G_L_3_G_G_0_D_41_P_0" fill="#37839b" fill-opacity="1" fill-rule="nonzero" d=" M1272.47 591.11 C1271.63,590.27 1271.21,589.23 1271.21,587.99 C1271.21,586.75 1271.63,585.71 1272.47,584.87 C1273.31,584.03 1274.35,583.61 1275.59,583.61 C1276.79,583.61 1277.81,584.03 1278.65,584.87 C1279.49,585.71 1279.91,586.75 1279.91,587.99 C1279.91,589.23 1279.49,590.27 1278.65,591.11 C1277.81,591.95 1276.79,592.37 1275.59,592.37 C1274.35,592.37 1273.31,591.95 1272.47,591.11z "/><path id="_R_G_L_3_G_G_0_D_42_P_0" fill="#4cd964" fill-opacity="1" fill-rule="nonzero" d=" M1335.47 966.4 C1335.47,1001.39 1307.1,1029.76 1272.11,1029.76 C1237.11,1029.76 1208.75,1001.39 1208.75,966.4 C1208.75,931.4 1237.11,903.04 1272.11,903.04 C1307.1,903.04 1335.47,931.4 1335.47,966.4z "/><path id="_R_G_L_3_G_G_0_D_43_P_0" fill="#ffffff" fill-opacity="1" fill-rule="nonzero" d=" M1289.02 994.72 C1285.85,994.63 1282.95,993.57 1280.14,992.21 C1273.32,988.91 1267.47,984.24 1262.05,979.02 C1256.13,973.34 1250.94,967.08 1247.15,959.75 C1245.63,956.81 1244.32,953.78 1243.91,950.45 C1243.6,947.98 1244.05,945.8 1246.02,944.04 C1247.51,942.7 1248.87,941.21 1250.3,939.79 C1252.6,937.51 1255.66,937.5 1257.96,939.76 C1260.08,941.86 1262.2,943.98 1264.3,946.1 C1266.49,948.33 1266.47,951.4 1264.29,953.64 C1263.5,954.45 1262.74,955.27 1261.9,956.01 C1260.75,957.03 1260.53,958.27 1260.82,959.69 C1261.28,961.97 1262.39,963.94 1263.74,965.78 C1267.06,970.3 1270.99,974.15 1276.05,976.72 C1276.72,977.06 1277.42,977.3 1278.14,977.5 C1279.92,978.02 1281.47,977.82 1282.72,976.29 C1283.38,975.49 1284.16,974.8 1284.91,974.09 C1287.07,972.02 1290.13,972 1292.27,974.08 C1294.49,976.25 1296.68,978.44 1298.85,980.67 C1300.9,982.77 1300.91,985.84 1298.88,987.95 C1297.19,989.72 1295.45,991.43 1293.7,993.14 C1292.41,994.4 1290.77,994.75 1289.02,994.72z "/><path id="_R_G_L_3_G_G_0_D_44_P_0" fill="#ff3b30" fill-opacity="1" fill-rule="nonzero" d=" M1099.51 966.4 C1099.51,1001.39 1071.14,1029.76 1036.14,1029.76 C1001.15,1029.76 972.78,1001.39 972.78,966.4 C972.78,931.4 1001.15,903.04 1036.14,903.04 C1071.14,903.04 1099.51,931.4 1099.51,966.4z "/><path id="_R_G_L_3_G_G_0_D_45_P_0" fill="#ffffff" fill-opacity="1" fill-rule="nonzero" d=" M1004.12 958.33 C1006.43,956.15 1009.23,954.85 1012.18,953.83 C1019.34,951.34 1026.77,950.5 1034.3,950.36 C1042.5,950.19 1050.6,950.95 1058.46,953.45 C1061.62,954.46 1064.68,955.67 1067.33,957.73 C1069.29,959.26 1070.52,961.12 1070.37,963.76 C1070.26,965.76 1070.36,967.78 1070.35,969.79 C1070.33,973.03 1068.18,975.21 1064.95,975.23 C1061.96,975.24 1058.97,975.25 1055.98,975.22 C1052.86,975.2 1050.7,973.02 1050.66,969.88 C1050.65,968.76 1050.6,967.64 1050.67,966.52 C1050.76,964.99 1050.04,963.96 1048.84,963.16 C1046.9,961.87 1044.72,961.27 1042.47,960.92 C1036.92,960.07 1031.42,960.12 1026.03,961.89 C1025.32,962.12 1024.65,962.45 1023.99,962.81 C1022.37,963.7 1021.42,964.94 1021.61,966.91 C1021.71,967.94 1021.65,968.98 1021.62,970.01 C1021.55,973 1019.4,975.18 1016.42,975.22 C1013.32,975.26 1010.22,975.26 1007.11,975.22 C1004.17,975.18 1002,973.02 1001.94,970.09 C1001.89,967.65 1001.9,965.2 1001.93,962.76 C1001.95,960.95 1002.86,959.55 1004.12,958.33z "/></g></g><g id="_R_G_L_2_G_M"><g id="_R_G_L_2_G" transform=" translate(108.25, 110.938)"><path id="_R_G_L_2_G_D_0_P_0" fill="#4cd964" fill-opacity="1" fill-rule="nonzero" d=" M8 -6 C11.17,-6 13.75,-3.42 13.75,-0.25 C13.75,2.92 11.17,5.5 8,5.5 C4.83,5.5 2.25,2.92 2.25,-0.25 C2.25,-3.42 4.83,-6 8,-6z "/></g></g><g id="_R_G_L_1_G_M"><g id="_R_G_L_1_G" transform=" translate(108.25, 110.938)"><path id="_R_G_L_1_G_D_0_P_0" fill="#4cd964" fill-opacity="1" fill-rule="nonzero" d=" M8 -6 C11.17,-6 13.75,-3.42 13.75,-0.25 C13.75,2.92 11.17,5.5 8,5.5 C4.83,5.5 2.25,2.92 2.25,-0.25 C2.25,-3.42 4.83,-6 8,-6z "/></g></g><g id="_R_G_L_0_G_M"><g id="_R_G_L_0_G"><g clip-path="url(#_R_G_L_0_C_0)"><path id="_R_G_L_0_G_G_0_D_0_P_0" fill="#ffb27d" fill-opacity="1" fill-rule="nonzero" d=" M2064.14 1941 C2064.14,1941 1604.08,1941 1604.08,1941 C1582.02,1926.21 1467.45,1848.06 1420.04,1789.8 C1410,1777.45 1373.25,1671.05 1345.01,1584.66 C1327.38,1530.7 1313.06,1484.52 1310.64,1473.93 C1309.8,1470.24 1309.24,1462.93 1308.9,1453.03 C1308.9,1453.03 1308.9,1452.93 1308.9,1452.93 C1307.7,1417.6 1309.34,1349.47 1311.03,1295.35 C1311.03,1295.35 1311.04,1295.1 1311.04,1295.1 C1311.04,1295.1 1311.07,1294.39 1311.07,1294.39 C1311.15,1292.01 1311.22,1289.67 1311.3,1287.35 C1311.3,1287.35 1311.3,1287.27 1311.3,1287.27 C1311.31,1287.04 1311.31,1286.8 1311.32,1286.57 C1311.63,1277.17 1311.93,1268.31 1312.21,1260.25 C1312.92,1240.11 1313.52,1224.96 1313.77,1219.03 C1313.77,1219.03 1313.87,1216.27 1313.87,1216.27 C1313.87,1216.27 1313.88,1216.27 1313.89,1216.26 C1314.62,1215.85 1336.75,1204.04 1366.33,1225.35 C1373.47,1230.5 1380.07,1242.94 1386.09,1259.17 C1389.94,1269.53 1393.55,1281.43 1396.91,1293.97 C1409.83,1342.2 1419.1,1399.86 1424.05,1415.3 C1432.03,1440.25 1526.09,1549.97 1531.97,1556.79 C1532.06,1556.91 1532.16,1557.02 1532.25,1557.13 C1532.25,1557.13 1532.25,1383.86 1532.25,1383.86 C1532.25,1383.86 1461.24,1193.86 1461.24,1193.86 C1461.24,1193.86 1432.09,1115.86 1432.09,1115.86 C1432.09,1115.86 1417.44,1076.66 1417.44,1076.66 C1417.44,1076.66 1394.97,1039.77 1376.12,995.39 C1367.87,975.97 1360.31,955.12 1355.63,935.3 C1354.51,930.58 1353.56,925.91 1352.8,921.34 C1352.8,921.34 1352.8,921.32 1352.8,921.32 C1350.03,904.57 1349.84,889.03 1353.69,876.38 C1360.56,853.85 1376.04,849.61 1387.93,850.07 C1389.16,850.11 1390.35,850.22 1391.5,850.35 C1392.66,850.49 1393.81,850.71 1394.92,851.01 C1397.01,851.56 1398.99,852.4 1400.83,853.47 C1400.85,853.47 1400.85,853.48 1400.86,853.49 C1403.91,855.27 1406.54,857.72 1408.58,860.71 C1408.58,860.71 1418.62,873.82 1432.09,891.44 C1440.95,903.04 1451.3,916.59 1461.24,929.65 C1478.94,952.92 1495.38,974.63 1499.9,980.99 C1524.33,1015.38 1590.11,1127.45 1590.11,1127.45 C1590.11,1127.45 1667.11,1130.68 1667.11,1130.68 C1679.31,1131.19 1690.92,1136.05 1699.84,1144.38 C1727.22,1169.95 1786.25,1225.28 1793.49,1233.51 C1793.49,1236.21 1839.37,1258.27 1874.8,1277.91 C1900.15,1288.62 1948.3,1326.58 1948.3,1326.58 C1958.28,1335.39 1965.88,1344.16 1969.73,1352.54 C1986.24,1388.47 2031.02,1700.96 2052.43,1855.44 C2059.32,1905.1 2063.79,1938.43 2064.14,1941z "/><path id="_R_G_L_0_G_G_0_D_1_P_0" fill="#efa26f" fill-opacity="1" fill-rule="nonzero" d=" M1590.11 1127.45 C1590.11,1127.45 1661.45,1243.89 1670.89,1249.13 C1680.33,1254.38 1717.04,1261.72 1721.24,1249.13 C1725.43,1236.54 1590.11,1127.45 1590.11,1127.45z "/><path id="_R_G_L_0_G_G_0_D_2_P_0" fill="#efa26f" fill-opacity="1" fill-rule="nonzero" d=" M1948.66 1326.9 C1948.54,1326.79 1948.42,1326.69 1948.3,1326.58 C1948.3,1326.58 1900.15,1288.62 1874.8,1277.91 C1842.27,1259.87 1800.94,1239.81 1794.39,1234.55 C1801.94,1243.19 1855.06,1303.31 1875.51,1307.81 C1893.46,1311.77 1934.23,1322.92 1948.66,1326.9z "/><path id="_R_G_L_0_G_G_0_D_3_P_0" fill="#efa26f" fill-opacity="1" fill-rule="nonzero" d=" M1532.25 1557.13 C1532.25,1557.13 1532.25,1383.86 1532.25,1383.86 C1532.25,1383.86 1573.41,1452.71 1576.56,1490.48 C1579.71,1528.23 1559.46,1589.37 1532.25,1557.13z "/><path id="_R_G_L_0_G_G_0_D_4_P_0" fill="#ffd3b6" fill-opacity="1" fill-rule="nonzero" d=" M1382.9 921.29 C1376.88,910.97 1366.1,892.26 1362.4,881.79 C1361.35,878.83 1361.48,872.91 1365.12,866.6 C1367.3,862.81 1370.73,858.89 1375.92,855.39 C1378.36,853.74 1380.83,852.28 1383.5,851.3 C1386.62,850.17 1389.86,849.56 1393.2,849.51 C1396.21,849.48 1399.34,851.23 1401.49,854.33 C1401.5,854.34 1401.51,854.36 1401.52,854.37 C1408.67,864.79 1417.71,878.96 1423.85,891.78 C1428.11,900.64 1426.76,910.87 1420.56,915.37 C1420.56,915.37 1417.67,917.48 1417.67,917.48 C1417.67,917.48 1402.84,928.31 1402.84,928.31 C1396.68,932.79 1387.8,929.73 1382.9,921.29z "/><path id="_R_G_L_0_G_G_0_D_5_P_0" fill="#ffc197" fill-opacity="1" fill-rule="nonzero" d=" M1382.9 921.29 C1376.88,910.97 1366.1,892.26 1362.4,881.79 C1361.35,878.83 1361.48,872.91 1365.12,866.6 C1366.09,865.79 1367.13,865.02 1368.25,864.26 C1370.69,862.62 1373.17,861.15 1375.83,860.17 C1378.96,859.04 1382.2,858.43 1385.54,858.39 C1388.54,858.35 1391.68,860.1 1393.82,863.2 C1393.83,863.21 1393.84,863.24 1393.85,863.25 C1401,873.66 1410.04,887.83 1416.18,900.65 C1418.91,906.33 1419.34,912.56 1417.67,917.48 C1417.67,917.48 1402.84,928.3 1402.84,928.3 C1396.68,932.79 1387.8,929.73 1382.9,921.29z "/><path id="_R_G_L_0_G_G_0_D_6_P_0" fill="#efa26f" fill-opacity="1" fill-rule="nonzero" d=" M1833 1869.85 C1833,1869.85 1695.57,1941 1695.57,1941 C1695.57,1941 1604.08,1941 1604.08,1941 C1582.02,1926.21 1467.45,1848.06 1420.04,1789.8 C1410,1777.45 1373.25,1671.05 1345.01,1584.66 C1345.01,1584.66 1345.01,1584.62 1345.01,1584.62 C1348.76,1596.09 1427.57,1763.94 1450.01,1783.02 C1472.45,1802.09 1590.27,1913.18 1622.81,1912.05 C1654.33,1910.97 1822.13,1872.35 1832.53,1869.96 C1832.69,1869.93 1832.84,1869.89 1833,1869.85z "/><path id="_R_G_L_0_G_G_0_D_7_P_0" fill="#ffffff" fill-opacity="1" fill-rule="nonzero" d=" M2109.52 1941 C2109.52,1941 1614.06,1941 1614.06,1941 C1638.91,1931.25 1733.98,1894.93 1832.53,1869.96 C1832.69,1869.93 1832.84,1869.89 1833,1869.85 C1917.64,1848.44 2004.77,1835.46 2052.09,1854.93 C2052.09,1854.93 2052.43,1855.44 2052.43,1855.44 C2052.43,1855.44 2109.52,1941 2109.52,1941z "/><path id="_R_G_L_0_G_G_0_D_8_P_0" fill="#efa26f" fill-opacity="1" fill-rule="nonzero" d=" M1311.31 1286.57 C1311.33,1286.57 1311.34,1286.57 1311.35,1286.56 C1319.7,1283.49 1331.42,1281.47 1337.12,1291 C1346,1305.82 1313.02,1436.58 1308.9,1453.03 C1308.9,1453.03 1311.31,1286.57 1311.31,1286.57z "/><path id="_R_G_L_0_G_G_0_D_9_P_0" fill="#ffc197" fill-opacity="1" fill-rule="nonzero" d=" M1313.87 1216.26 C1313.87,1216.26 1311.04,1295.35 1311.04,1295.35 C1311.04,1295.35 1327.67,1298.06 1337.12,1291 C1346.58,1283.94 1341.57,1215.33 1313.87,1216.26z "/></g></g></g></g><g id="time_group"/></svg>