<svg xmlns="http://www.w3.org/2000/svg" xmlns:xlink="http://www.w3.org/1999/xlink" width="50" height="50" viewBox="0 0 50 50">
  <defs>
    <clipPath id="clip-success_icon">
      <rect width="50" height="50"/>
    </clipPath>
  </defs>
  <g id="success_icon" clip-path="url(#clip-success_icon)">
    <g id="success_icon-2" data-name="success_icon" transform="translate(2.005 2.005)">
      <g id="sucess" transform="translate(-0.003 -0.003)">
        <g id="circle" transform="translate(0 0)">
          <ellipse id="Oval" cx="14.626" cy="19.829" rx="14.626" ry="19.829" transform="translate(7.846 2.59)" fill="rgba(102,114,251,0.31)" opacity="0.812"/>
          <circle id="Oval_Copy_2" data-name="Oval Copy 2" cx="17.081" cy="17.081" r="17.081" transform="translate(6.393 6.393)" fill="#35b456"/>
          <circle id="Oval-2" data-name="Oval" cx="23" cy="23" r="23" transform="translate(-0.002 -0.002)" fill="none" stroke="#61bf23" stroke-linecap="round" stroke-miterlimit="10" stroke-width="2"/>
        </g>
        <g id="tick" transform="translate(14.948 17.704)">
          <path id="Path" d="M15.024.274a.931.931,0,0,0-1.319,0L4.9,9.1l-3.3-3.311A.934.934,0,1,0,.273,7.111l3.964,3.972a.931.931,0,0,0,1.319,0L15.024,1.6A.937.937,0,0,0,15.024.274Z" transform="translate(0 0)" fill="#fff"/>
          <path id="Path-2" data-name="Path" d="M7.836.271A.955.955,0,0,0,6.5.271L0,6.652V9.271l7.836-7.69A.915.915,0,0,0,7.836.271Z" transform="translate(7.185)" fill="#fff"/>
        </g>
      </g>
    </g>
  </g>
</svg>
