<svg id="free" xmlns="http://www.w3.org/2000/svg" xmlns:xlink="http://www.w3.org/1999/xlink" width="24.149" height="24.148" viewBox="0 0 24.149 24.148">
  <defs>
    <linearGradient id="linear-gradient" x1="0.5" x2="0.5" y2="1" gradientUnits="objectBoundingBox">
      <stop offset="0" stop-color="#8173e0"/>
      <stop offset="1" stop-color="#51459f"/>
    </linearGradient>
  </defs>
  <g id="free-sticker-svgrepo-com" transform="translate(0 0)">
    <g id="Group_13061" data-name="Group 13061">
      <path id="Union_2" data-name="Union 2" d="M10.119,22.544a4.384,4.384,0,0,0-.629-.838,3.974,3.974,0,0,0-1.013.421,4.059,4.059,0,0,1-1.726.588,1.4,1.4,0,0,1-.716-.185c-.783-.453-.833-1.455-.877-2.339a4.241,4.241,0,0,0-.134-1.069,4.259,4.259,0,0,0-1.069-.134c-.884-.044-1.886-.094-2.339-.877s0-1.661.4-2.442a4.318,4.318,0,0,0,.422-1.012,4.4,4.4,0,0,0-.839-.631C.852,13.543,0,12.993,0,12.074s.852-1.47,1.6-1.955a4.392,4.392,0,0,0,.839-.631,4.32,4.32,0,0,0-.422-1.012c-.4-.781-.852-1.667-.4-2.442S3.071,5.2,3.956,5.158a4.231,4.231,0,0,0,1.069-.134,4.241,4.241,0,0,0,.134-1.069c.044-.884.094-1.885.877-2.338a1.412,1.412,0,0,1,.716-.185,4.059,4.059,0,0,1,1.726.588,3.971,3.971,0,0,0,1.013.422,4.363,4.363,0,0,0,.63-.839C10.6.852,11.154,0,12.074,0s1.47.852,1.954,1.6a4.378,4.378,0,0,0,.629.838,3.951,3.951,0,0,0,1.013-.421A4.062,4.062,0,0,1,17.4,1.432a1.415,1.415,0,0,1,.717.185c.783.453.833,1.455.877,2.338a4.3,4.3,0,0,0,.134,1.069,4.23,4.23,0,0,0,1.069.134c.884.044,1.885.094,2.338.877s0,1.661-.4,2.442a4.288,4.288,0,0,0-.422,1.012,4.369,4.369,0,0,0,.839.631c.751.485,1.6,1.035,1.6,1.954s-.853,1.47-1.6,1.955a4.42,4.42,0,0,0-.84.631,4.317,4.317,0,0,0,.423,1.012c.4.782.851,1.668.4,2.442s-1.455.833-2.338.877a4.258,4.258,0,0,0-1.069.134,4.217,4.217,0,0,0-.134,1.068c-.044.884-.094,1.886-.877,2.339a1.417,1.417,0,0,1-.717.185,4.062,4.062,0,0,1-1.725-.588,3.971,3.971,0,0,0-1.013-.422,4.37,4.37,0,0,0-.63.839c-.485.751-1.035,1.6-1.954,1.6S10.6,23.3,10.119,22.544Zm5.26-11.834a2.342,2.342,0,1,0,3.834,2.539.49.49,0,0,0-.385-.667l-.144-.02a.488.488,0,0,0-.52.292,1.2,1.2,0,0,1-.26.376,1.228,1.228,0,0,1-1.737,0c-.02-.02-.04-.042-.059-.062a.478.478,0,0,0,.1-.042l2.6-1.408A.49.49,0,0,0,18.975,11l-.026-.036a1.836,1.836,0,0,0-.475-.479,2.391,2.391,0,0,0-1.439-.462A2.269,2.269,0,0,0,15.379,10.711Zm-4.555,0a2.342,2.342,0,1,0,3.31,3.313,2.277,2.277,0,0,0,.523-.774.49.49,0,0,0-.385-.667l-.143-.02a.489.489,0,0,0-.52.292,1.2,1.2,0,0,1-.26.376,1.228,1.228,0,0,1-1.737,0l-.028-.029,2.678-1.486A.49.49,0,0,0,14.419,11a2.383,2.383,0,0,0-.482-.5,2.4,2.4,0,0,0-3.114.211ZM7.73,10.233a.492.492,0,0,0-.143.346l0,3.575a.49.49,0,0,0,.49.489h.133a.489.489,0,0,0,.49-.489V12.484a1.573,1.573,0,0,1,.326-.986,1.061,1.061,0,0,1,.843-.4.49.49,0,0,0,.465-.489V10.5a.488.488,0,0,0-.524-.488,2.118,2.118,0,0,0-1.129.433.49.49,0,0,0-.47-.352H8.077A.489.489,0,0,0,7.73,10.233ZM5.444,8.4A2.051,2.051,0,0,0,4.9,9.88v4.274a.49.49,0,0,0,.49.489h.133a.489.489,0,0,0,.489-.489v-2.97h.762a.49.49,0,0,0,.49-.49v-.115a.49.49,0,0,0-.49-.49H6.012v-.33a.928.928,0,0,1,.243-.57.759.759,0,0,1,.618-.282h.166a.49.49,0,0,0,.49-.489V8.323a.49.49,0,0,0-.49-.49H6.873A1.9,1.9,0,0,0,5.444,8.4Zm6.169,3.1a1.167,1.167,0,0,1,.866-.361,1.2,1.2,0,0,1,.547.123l-1.767.98A1.166,1.166,0,0,1,11.613,11.5Zm4.556,0a1.166,1.166,0,0,1,.866-.361,1.2,1.2,0,0,1,.538.119l-1.755.948A1.167,1.167,0,0,1,16.168,11.5Z" fill="url(#linear-gradient)"/>
    </g>
  </g>
</svg>
