<svg xmlns="http://www.w3.org/2000/svg" xmlns:xlink="http://www.w3.org/1999/xlink" width="23.963" height="23.963" viewBox="0 0 23.963 23.963">
  <defs>
    <linearGradient id="linear-gradient" x1="0.5" x2="0.5" y2="1" gradientUnits="objectBoundingBox">
      <stop offset="0" stop-color="#8173e0"/>
      <stop offset="1" stop-color="#51459f"/>
    </linearGradient>
  </defs>
  <path id="ios" d="M10.535,3A6.541,6.541,0,0,0,4,9.535V20.428a6.541,6.541,0,0,0,6.535,6.535H21.428a6.541,6.541,0,0,0,6.535-6.535V9.535A6.541,6.541,0,0,0,21.428,3ZM8.694,11.208a.63.63,0,1,1-.669.632A.634.634,0,0,1,8.694,11.208Zm5.675.311c1.988,0,3.213,1.388,3.213,3.616s-1.215,3.622-3.213,3.622-3.229-1.394-3.229-3.622S12.387,11.518,14.369,11.518Zm7.043,0A2.254,2.254,0,0,1,23.9,13.5H22.854a1.319,1.319,0,0,0-1.459-1.034c-.85,0-1.411.4-1.411,1.029,0,.49.36.774,1.264.986l.757.185c1.421.332,2,.9,2,1.944,0,1.323-1.024,2.151-2.664,2.151-1.53,0-2.56-.789-2.636-2.025h1.063c.093.654.735,1.072,1.655,1.072.861,0,1.492-.446,1.492-1.062,0-.523-.4-.838-1.313-1.056l-.894-.213c-1.247-.294-1.819-.9-1.819-1.912C18.9,12.335,19.9,11.518,21.412,11.518Zm-7.043,1c-1.3,0-2.128,1.018-2.128,2.619s.8,2.625,2.128,2.625c1.313,0,2.119-1.029,2.119-2.625S15.682,12.515,14.369,12.515Zm-6.187.866H9.207v5.212H8.183Z" transform="translate(-4 -3)" fill="url(#linear-gradient)"/>
</svg>
