<svg xmlns="http://www.w3.org/2000/svg" xmlns:xlink="http://www.w3.org/1999/xlink" width="24.363" height="23.788" viewBox="0 0 24.363 23.788">
  <defs>
    <linearGradient id="linear-gradient" x1="0.5" x2="0.5" y2="1" gradientUnits="objectBoundingBox">
      <stop offset="0" stop-color="#8173e0"/>
      <stop offset="1" stop-color="#51459f"/>
    </linearGradient>
  </defs>
  <g id="small_business" transform="translate(-82.154 -71.12)">
    <path id="Path_16181" data-name="Path 16181" d="M159.481,74.4h-.064V72.077a.94.94,0,0,0-.957-.957H138.052a.94.94,0,0,0-.957.957V74.4h-.064a.94.94,0,0,0-.957.957v3.157a2.874,2.874,0,0,0,1.021,2.168V93.951a.94.94,0,0,0,.957.957H158.46a.94.94,0,0,0,.957-.957V80.686a2.772,2.772,0,0,0,1.02-2.168V75.361a.94.94,0,0,0-.957-.957Zm-17.761,4.113v-2.2h3.093v2.615a1.531,1.531,0,0,1-1.531,1.531,1.552,1.552,0,0,1-1.531-1.531v-.415Zm-1.913,0a.925.925,0,0,1-1.849,0v-2.2h1.818v2.2Zm7.079,10.65a.94.94,0,0,1-.957.957h-5.708a.94.94,0,0,1-.957-.957v-4.05a.94.94,0,0,1,.957-.957h5.708a.94.94,0,0,1,.957.957Zm2.9-10.236a1.531,1.531,0,0,1-1.531,1.531,1.552,1.552,0,0,1-1.531-1.531V76.317h3.093v2.615Zm5.006-.415v.415a1.531,1.531,0,0,1-1.531,1.531,1.552,1.552,0,0,1-1.531-1.531V76.317h3.093v2.2Zm3.731,0a.925.925,0,1,1-1.849,0v-2.2h1.818v2.2Zm-1.435,14.158h-6.621V85.118a.94.94,0,0,1,.957-.957h4.708a.94.94,0,0,1,.957.957Z" transform="translate(-53.921 0)" fill="url(#linear-gradient)"/>
  </g>
</svg>
