<svg xmlns="http://www.w3.org/2000/svg" xmlns:xlink="http://www.w3.org/1999/xlink" width="18.705" height="29.5" viewBox="0 0 18.705 29.5">
  <defs>
    <linearGradient id="linear-gradient" x1="0.5" x2="0.5" y2="1" gradientUnits="objectBoundingBox">
      <stop offset="0" stop-color="#8173e0"/>
      <stop offset="1" stop-color="#51459f"/>
    </linearGradient>
  </defs>
  <g id="startup" transform="translate(-93.244 -42.261)">
    <path id="Union_4" data-name="Union 4" d="M9.716,29.413a4.139,4.139,0,0,1-1.745-2.442,1.263,1.263,0,0,0-.327.508.513.513,0,0,1-.909.1c-.763-1.254-1.49-3.424-.472-4.916a.749.749,0,0,0,.254.034H7.826a2.46,2.46,0,0,0,.364,1.763.22.22,0,0,0,.4-.034c0-.068.073-.135.146-.2A1.842,1.842,0,0,0,9.5,25.277c.182.1.364,0,.364-.136a3.109,3.109,0,0,1,.727-1.288,1.389,1.389,0,0,0,.255-1.119l1.237-.068c.146,0,.254-.034.4-.034a3.4,3.4,0,0,1-.291,3.459,6.227,6.227,0,0,0-1.672,2.983.521.521,0,0,1-.8.339ZM6.554,22.106a1.415,1.415,0,0,1-1.273-.847,34.1,34.1,0,0,1-1.055-3.289L1.355,19.224A.749.749,0,0,1,.3,18.648l-.29-3.39A3.471,3.471,0,0,1,2.191,11.8L3.5,11.256A18.2,18.2,0,0,1,8.88.2.681.681,0,0,1,9.389,0,.952.952,0,0,1,9.9.2a18.005,18.005,0,0,1,5.308,11.052l1.309.543A3.473,3.473,0,0,1,18.7,15.258l-.291,3.39a.742.742,0,0,1-1.054.576l-2.872-1.255a34.181,34.181,0,0,1-1.055,3.289,1.328,1.328,0,0,1-1.273.847Zm.509-12a2.224,2.224,0,0,0,2.327,2.17,2.167,2.167,0,0,0,2.29-2.137,2.224,2.224,0,0,0-2.326-2.17A2.209,2.209,0,0,0,7.062,10.1Z" transform="translate(93.243 42.261)" fill="url(#linear-gradient)"/>
  </g>
</svg>
