<svg xmlns="http://www.w3.org/2000/svg" xmlns:xlink="http://www.w3.org/1999/xlink" width="110" height="110" viewBox="0 0 110 110">
  <defs>
    <linearGradient id="linear-gradient" x1="0.5" x2="0.5" y2="1" gradientUnits="objectBoundingBox">
      <stop offset="0" stop-color="#fe9486"/>
      <stop offset="1" stop-color="#ff715c"/>
    </linearGradient>
    <filter id="Ellipse_3" x="0" y="0" width="110" height="110" filterUnits="userSpaceOnUse">
      <feOffset dy="4" input="SourceAlpha"/>
      <feGaussianBlur stdDeviation="6" result="blur"/>
      <feFlood flood-color="#ccc"/>
      <feComposite operator="in" in2="blur"/>
      <feComposite in="SourceGraphic"/>
    </filter>
  </defs>
  <g id="advice" transform="translate(-334 -2179)">
    <g transform="matrix(1, 0, 0, 1, 334, 2179)" filter="url(#Ellipse_3)">
      <circle id="Ellipse_3-2" data-name="Ellipse 3" cx="37" cy="37" r="37" transform="translate(18 14)" fill="url(#linear-gradient)"/>
    </g>
    <g id="comment" transform="translate(372.499 2213.506)">
      <path id="Path_16306" data-name="Path 16306" d="M33,15.472A16.516,16.516,0,1,0,16.524,33.01h8.914A7.572,7.572,0,0,0,33,25.447V15.472Zm-4.125,9.975a3.438,3.438,0,0,1-3.438,3.438H16.524a12.432,12.432,0,0,1-9.255-4.14,12.274,12.274,0,0,1-3.062-9.672A12.428,12.428,0,0,1,14.915,4.234a13.041,13.041,0,0,1,1.613-.1,12.283,12.283,0,0,1,7.891,2.841,12.428,12.428,0,0,1,4.457,8.694Z" transform="translate(0 0)" fill="#fff"/>
      <path id="Path_16307" data-name="Path 16307" d="M10.063,12.125h4.125a2.063,2.063,0,0,0,0-4.125H10.063a2.063,2.063,0,0,0,0,4.125Z" transform="translate(3 3.009)" fill="#fff"/>
      <path id="Path_16308" data-name="Path 16308" d="M19.688,13H10.063a2.063,2.063,0,1,0,0,4.125h9.625a2.063,2.063,0,0,0,0-4.125Z" transform="translate(3 4.884)" fill="#fff"/>
    </g>
  </g>
</svg>
