<svg xmlns="http://www.w3.org/2000/svg" width="30" height="30" viewBox="0 0 30 30">
  <g id="price" transform="translate(-0.182 0)">
    <circle id="Ellipse_13" data-name="Ellipse 13" cx="15" cy="15" r="15" transform="translate(0.182 0)" fill="#f5f7fb" opacity="0.3"/>
    <g id="rupee" transform="translate(5.017 4.728)">
      <g id="Group_2077" data-name="Group 2077" transform="translate(0)">
        <path id="Path_3698" data-name="Path 3698" d="M19.657,9.829A9.846,9.846,0,1,1,16.482,2.6,9.829,9.829,0,0,1,19.657,9.829Z" transform="translate(0)" fill="#f0cd00"/>
        <path id="Path_3699" data-name="Path 3699" d="M37.165,9.992A9.828,9.828,0,0,1,27.7,19.813,9.829,9.829,0,0,1,27.7.17,9.828,9.828,0,0,1,37.165,9.992Z" transform="translate(-17.508 -0.163)" fill="#ffde50"/>
        <path id="Path_3700" data-name="Path 3700" d="M48.792,34.915,34.9,48.8a9.87,9.87,0,0,1-1.245-1.679L47.113,33.67A9.825,9.825,0,0,1,48.792,34.915Z" transform="translate(-32.31 -32.319)" fill="#ffea94"/>
        <path id="Path_3701" data-name="Path 3701" d="M108.623,95.879,95.878,108.623a9.815,9.815,0,0,1-2.488-1.43l13.8-13.8A9.8,9.8,0,0,1,108.623,95.879Z" transform="translate(-89.644 -89.644)" fill="#ffea94"/>
        <path id="Path_3702" data-name="Path 3702" d="M69.895,62.257a7.637,7.637,0,0,1-15.274.094c0-.031,0-.063,0-.094a7.637,7.637,0,0,1,7.637-7.637h.094a7.6,7.6,0,0,1,4.305,1.393,7.688,7.688,0,0,1,2.1,2.238A7.6,7.6,0,0,1,69.895,62.257Z" transform="translate(-52.429 -52.429)" fill="#faa300"/>
        <path id="Path_3703" data-name="Path 3703" d="M67.657,56.857l-10.8,10.8a7.61,7.61,0,0,1-2.236-5.306c0-.031,0-.063,0-.094a7.637,7.637,0,0,1,7.637-7.637h.094a7.6,7.6,0,0,1,4.305,1.393A7.708,7.708,0,0,1,67.657,56.857Z" transform="translate(-52.429 -52.429)" fill="#ffbd00"/>
        <path id="Path_3704" data-name="Path 3704" d="M242.314,62.257a7.638,7.638,0,0,1-7.637,7.637q-.217,0-.431-.012a7.638,7.638,0,0,0,0-15.251q.214-.012.431-.012A7.638,7.638,0,0,1,242.314,62.257Z" transform="translate(-224.848 -52.429)" fill="#f68e00"/>
      </g>
      <path id="Path_3705" data-name="Path 3705" d="M120.062,128.213h-1.337a3.227,3.227,0,0,0-.347-.84h1.684a.8.8,0,1,0,0-1.6h-7.58a.8.8,0,1,0,0,1.6h3.1a1.643,1.643,0,0,1,1.432.84h-4.528a.8.8,0,0,0,0,1.6h4.528a1.643,1.643,0,0,1-1.432.84h-3.1a.8.8,0,0,0-.584,1.353l4.363,4.631a.8.8,0,1,0,1.168-1.1l-3.089-3.279h1.238a3.252,3.252,0,0,0,3.146-2.444h1.337a.8.8,0,1,0,0-1.6Z" transform="translate(-107.2 -120.724)" fill="#f68e00"/>
      <path id="Path_3706" data-name="Path 3706" d="M145.064,128.213h-1.337a3.227,3.227,0,0,0-.347-.84h1.684a.8.8,0,1,0,0-1.6h-7.58a.8.8,0,1,0,0,1.6h3.1a1.643,1.643,0,0,1,1.432.84h-4.528a.8.8,0,0,0,0,1.6h4.528a1.643,1.643,0,0,1-1.432.84h-3.1a.8.8,0,0,0-.584,1.353l4.363,4.631a.8.8,0,1,0,1.168-1.1l-3.089-3.279h1.238a3.252,3.252,0,0,0,3.146-2.444h1.337a.8.8,0,1,0,0-1.6Z" transform="translate(-131.199 -120.724)" fill="#ffea94"/>
    </g>
  </g>
</svg>
