<svg xmlns="http://www.w3.org/2000/svg" xmlns:xlink="http://www.w3.org/1999/xlink" width="110" height="110" viewBox="0 0 110 110">
  <defs>
    <linearGradient id="linear-gradient" x1="0.5" x2="0.5" y2="1" gradientUnits="objectBoundingBox">
      <stop offset="0" stop-color="#9d85f9"/>
      <stop offset="1" stop-color="#8467f0"/>
    </linearGradient>
    <filter id="Ellipse_28" x="0" y="0" width="110" height="110" filterUnits="userSpaceOnUse">
      <feOffset dy="4" input="SourceAlpha"/>
      <feGaussianBlur stdDeviation="6" result="blur"/>
      <feFlood flood-color="#ccc"/>
      <feComposite operator="in" in2="blur"/>
      <feComposite in="SourceGraphic"/>
    </filter>
  </defs>
  <g id="rs_icon" transform="translate(-642 -2210)">
    <g transform="matrix(1, 0, 0, 1, 642, 2210)" filter="url(#Ellipse_28)">
      <circle id="Ellipse_28-2" data-name="Ellipse 28" cx="37" cy="37" r="37" transform="translate(18 14)" fill="url(#linear-gradient)"/>
    </g>
    <path id="Path_16310" data-name="Path 16310" d="M277.459,200.6h8.8a3.488,3.488,0,0,1,3,1.7h-11.8v4.7h11.8a3.516,3.516,0,0,1-3,1.7h-11.3l17.1,18.2,3.2-3.4-9.6-10.2h.8a8.409,8.409,0,0,0,7.8-6.3h5.1v-4.6h-5.1c-.2-.6-.4-1.2-.6-1.7h5.7V196H277.46Z" transform="translate(410.04 2050.003)" fill="#fff"/>
  </g>
</svg>
