<svg xmlns="http://www.w3.org/2000/svg" width="154.349" height="23.921" viewBox="0 0 154.349 23.921">
  <g id="stars" transform="translate(-108.284 -1021.03)">
    <path id="Path_16298" data-name="Path 16298" d="M124.968,52.544l2.4,6.671a.512.512,0,0,0,.474.344l7.087.223a1.331,1.331,0,0,1,.774,2.383l-5.6,4.346a.512.512,0,0,0-.181.557l1.978,6.809a1.331,1.331,0,0,1-2.027,1.473l-5.864-3.985a.513.513,0,0,0-.586,0l-5.865,3.985a1.332,1.332,0,0,1-2.027-1.473l1.978-6.809a.512.512,0,0,0-.181-.557l-5.6-4.346a1.331,1.331,0,0,1,.774-2.383l7.087-.223a.512.512,0,0,0,.474-.344l2.4-6.671a1.331,1.331,0,0,1,2.505,0Z" transform="translate(-2.924 969.366)" fill="#fec42d" fill-rule="evenodd"/>
    <path id="Path_16299" data-name="Path 16299" d="M124.968,52.544l2.4,6.671a.512.512,0,0,0,.474.344l7.087.223a1.331,1.331,0,0,1,.774,2.383l-5.6,4.346a.512.512,0,0,0-.181.557l1.978,6.809a1.331,1.331,0,0,1-2.027,1.473l-5.864-3.985a.513.513,0,0,0-.586,0l-5.865,3.985a1.332,1.332,0,0,1-2.027-1.473l1.978-6.809a.512.512,0,0,0-.181-.557l-5.6-4.346a1.331,1.331,0,0,1,.774-2.383l7.087-.223a.512.512,0,0,0,.474-.344l2.4-6.671a1.331,1.331,0,0,1,2.505,0Z" transform="translate(29.41 969.366)" fill="#fec42d" fill-rule="evenodd"/>
    <path id="Path_16300" data-name="Path 16300" d="M124.968,52.544l2.4,6.671a.512.512,0,0,0,.474.344l7.087.223a1.331,1.331,0,0,1,.774,2.383l-5.6,4.346a.512.512,0,0,0-.181.557l1.978,6.809a1.331,1.331,0,0,1-2.027,1.473l-5.864-3.985a.513.513,0,0,0-.586,0l-5.865,3.985a1.332,1.332,0,0,1-2.027-1.473l1.978-6.809a.512.512,0,0,0-.181-.557l-5.6-4.346a1.331,1.331,0,0,1,.774-2.383l7.087-.223a.512.512,0,0,0,.474-.344l2.4-6.671a1.331,1.331,0,0,1,2.505,0Z" transform="translate(61.743 969.366)" fill="#fec42d" fill-rule="evenodd"/>
    <path id="Path_16301" data-name="Path 16301" d="M124.968,52.544l2.4,6.671a.512.512,0,0,0,.474.344l7.087.223a1.331,1.331,0,0,1,.774,2.383l-5.6,4.346a.512.512,0,0,0-.181.557l1.978,6.809a1.331,1.331,0,0,1-2.027,1.473l-5.864-3.985a.513.513,0,0,0-.586,0l-5.865,3.985a1.332,1.332,0,0,1-2.027-1.473l1.978-6.809a.512.512,0,0,0-.181-.557l-5.6-4.346a1.331,1.331,0,0,1,.774-2.383l7.087-.223a.512.512,0,0,0,.474-.344l2.4-6.671a1.331,1.331,0,0,1,2.505,0Z" transform="translate(94.077 969.366)" fill="#fec42d" fill-rule="evenodd"/>
    <path id="Path_16302" data-name="Path 16302" d="M124.968,52.544l2.4,6.671a.512.512,0,0,0,.474.344l7.087.223a1.331,1.331,0,0,1,.774,2.383l-5.6,4.346a.512.512,0,0,0-.181.557l1.978,6.809a1.331,1.331,0,0,1-2.027,1.473l-5.864-3.985a.513.513,0,0,0-.586,0l-5.865,3.985a1.332,1.332,0,0,1-2.027-1.473l1.978-6.809a.512.512,0,0,0-.181-.557l-5.6-4.346a1.331,1.331,0,0,1,.774-2.383l7.087-.223a.512.512,0,0,0,.474-.344l2.4-6.671a1.331,1.331,0,0,1,2.505,0Z" transform="translate(126.41 969.366)" fill="#fec42d" fill-rule="evenodd"/>
  </g>
</svg>
