<svg xmlns="http://www.w3.org/2000/svg" width="50" height="50" viewBox="0 0 50 50">
  <g id="advice_expert_icon" transform="translate(-35 -37)">
    <circle id="Ellipse_1" data-name="Ellipse 1" cx="25" cy="25" r="25" transform="translate(35 37)" fill="#2daafa"/>
    <g id="noun-call-support-2075190" transform="translate(-127.171 -58.363)">
      <path id="Path_16041" data-name="Path 16041" d="M175.532,132.632h23.286a.862.862,0,0,0,.858-.866c0-4.376-5.531-6.131-7.91-6.7a.065.065,0,0,1-.047-.062v-.928a7.154,7.154,0,0,0,1.209-2.41,4.805,4.805,0,0,0,1.045-2.114,3.446,3.446,0,0,0-.179-2.972l-.031-.039a6.266,6.266,0,0,0,.094-.757c.3-2,.07-3.495-.694-4.423a2.542,2.542,0,0,0-1.646-.928,3.7,3.7,0,0,0-3.994-2.278c-1.545.6-5.2,1.022-4.883,1.357-2.964.889-2.379,5.515-2.059,7.06l-.031.039a3.393,3.393,0,0,0-.179,2.972,4.933,4.933,0,0,0,1.045,2.114,7.3,7.3,0,0,0,1.209,2.395v.936a.059.059,0,0,1-.047.062c-2.379.546-7.91,2.3-7.91,6.685v.008a.866.866,0,0,0,.866.85Zm11.639-4.2a4.565,4.565,0,0,1-3.737-1.849,1.762,1.762,0,0,0,.819-.983,6.191,6.191,0,0,0,1.24.632,5.049,5.049,0,0,0,3.354,0,5.836,5.836,0,0,0,1.248-.624,1.742,1.742,0,0,0,.811.967,4.541,4.541,0,0,1-3.737,1.857Zm-5.312-9.291c-.3-1.084-.179-1.474-.07-1.615a.393.393,0,0,1,.367-.133.216.216,0,0,0,.07-.008.165.165,0,0,0,.1-.211v-.023a2.2,2.2,0,0,1,.718-2.4c.952,2.223.2-.991,4.751-.64-.928,2.02,1.942-.468,2.629-.047,1.381.842,1.576,3.167,1.576,3.19a.163.163,0,0,0,.172.148h.07a.35.35,0,0,1,.3.133c.1.14.234.53-.07,1.615a4.336,4.336,0,0,1-.507,1.264,8.6,8.6,0,0,1-3.955,1.7.858.858,0,0,0-.663-.328h-.328a.85.85,0,1,0,0,1.7h.328a.858.858,0,0,0,.694-.359,9.308,9.308,0,0,0,3.05-.975,4.985,4.985,0,0,1-2.761,2.6,3.473,3.473,0,0,1-2.317,0,5.279,5.279,0,0,1-3.206-3.963.159.159,0,0,0-.148-.14c-.094.016-.413-.117-.8-1.506Z" fill="#fff"/>
    </g>
  </g>
</svg>
