<svg id="amazon" xmlns="http://www.w3.org/2000/svg" width="24" height="24" viewBox="0 0 24 24">
  <rect id="Rectangle_41" data-name="Rectangle 41" width="24" height="24" fill="none"/>
  <g id="amazon-icon-1" transform="translate(4.522 4.294)">
    <path id="Path_3671" data-name="Path 3671" d="M17.607,191.475c-6.361,3.027-10.309.494-12.836-1.044-.156-.1-.422.023-.192.288a10.12,10.12,0,0,0,7.2,3.481A8.385,8.385,0,0,0,17.8,191.89c.266-.34.078-.528-.191-.415Zm1.786-.987c-.171-.222-1.039-.264-1.585-.2s-1.368.4-1.3.6c.037.075.111.041.487.008s1.432-.171,1.652.117-.337,1.669-.439,1.891.038.28.222.132a2.885,2.885,0,0,0,.734-1.074,2.512,2.512,0,0,0,.224-1.476Z" transform="translate(-4.489 -178.788)" fill="#f90"/>
    <path id="Path_3672" data-name="Path 3672" d="M57.362,6.948A3.988,3.988,0,0,1,56.98,9.11a1.653,1.653,0,0,1-1.411.926c-.783,0-1.239-.6-1.239-1.477,0-1.738,1.557-2.053,3.031-2.053Zm2.056,4.97a.426.426,0,0,1-.482.049,5.019,5.019,0,0,1-1.17-1.359,4.034,4.034,0,0,1-3.361,1.483,2.893,2.893,0,0,1-3.051-3.177A3.464,3.464,0,0,1,53.528,5.58a14.124,14.124,0,0,1,3.834-.708V4.608a2.624,2.624,0,0,0-.247-1.477A1.364,1.364,0,0,0,55.971,2.6a1.554,1.554,0,0,0-1.64,1.224.427.427,0,0,1-.353.373L52,3.985a.361.361,0,0,1-.3-.427c.456-2.4,2.621-3.12,4.559-3.12a4.623,4.623,0,0,1,3.071,1.015c.992.926.9,2.162.9,3.507V8.138a2.789,2.789,0,0,0,.769,1.89.383.383,0,0,1-.006.542c-.416.347-1.156.992-1.563,1.354l-.006-.006" transform="translate(-48.521 -0.438)" fill-rule="evenodd"/>
    <path id="Path_3673" data-name="Path 3673" d="M17.607,191.475c-6.361,3.027-10.309.494-12.836-1.044-.156-.1-.422.023-.192.288a10.12,10.12,0,0,0,7.2,3.481A8.385,8.385,0,0,0,17.8,191.89c.266-.34.078-.528-.191-.415Zm1.786-.987c-.171-.222-1.039-.264-1.585-.2s-1.368.4-1.3.6c.037.075.111.041.487.008s1.432-.171,1.652.117-.337,1.669-.439,1.891.038.28.222.132a2.885,2.885,0,0,0,.734-1.074,2.512,2.512,0,0,0,.224-1.476Z" transform="translate(-4.489 -178.788)" fill="#f90"/>
    <path id="Path_3674" data-name="Path 3674" d="M57.362,6.948A3.988,3.988,0,0,1,56.98,9.11a1.653,1.653,0,0,1-1.411.926c-.783,0-1.239-.6-1.239-1.477,0-1.738,1.557-2.053,3.031-2.053Zm2.056,4.97a.426.426,0,0,1-.482.049,5.019,5.019,0,0,1-1.17-1.359,4.034,4.034,0,0,1-3.361,1.483,2.893,2.893,0,0,1-3.051-3.177A3.464,3.464,0,0,1,53.528,5.58a14.124,14.124,0,0,1,3.834-.708V4.608a2.624,2.624,0,0,0-.247-1.477A1.364,1.364,0,0,0,55.971,2.6a1.554,1.554,0,0,0-1.64,1.224.427.427,0,0,1-.353.373L52,3.985a.361.361,0,0,1-.3-.427c.456-2.4,2.621-3.12,4.559-3.12a4.623,4.623,0,0,1,3.071,1.015c.992.926.9,2.162.9,3.507V8.138a2.789,2.789,0,0,0,.769,1.89.383.383,0,0,1-.006.542c-.416.347-1.156.992-1.563,1.354l-.006-.006" transform="translate(-48.521 -0.438)" fill-rule="evenodd"/>
  </g>
</svg>
