<svg xmlns="http://www.w3.org/2000/svg" xmlns:xlink="http://www.w3.org/1999/xlink" width="22.092" height="24.472" viewBox="0 0 22.092 24.472">
  <defs>
    <linearGradient id="linear-gradient" x1="0.5" x2="0.5" y2="1" gradientUnits="objectBoundingBox">
      <stop offset="0" stop-color="#8173e0"/>
      <stop offset="1" stop-color="#51459f"/>
    </linearGradient>
  </defs>
  <path id="android" d="M12.6,24.031a1.418,1.418,0,0,1-.471-1.074V19.618H9.964v3.339a1.416,1.416,0,0,1-.47,1.074,1.616,1.616,0,0,1-1.146.441,1.593,1.593,0,0,1-1.13-.441,1.418,1.418,0,0,1-.47-1.074l-.017-3.339H5.571a1.72,1.72,0,0,1-1.224-.47A1.511,1.511,0,0,1,3.844,18v-9.8h14.4V18a1.509,1.509,0,0,1-.5,1.146,1.7,1.7,0,0,1-1.208.47H15.36v3.339a1.416,1.416,0,0,1-.47,1.074,1.708,1.708,0,0,1-2.29,0Zm6.747-7.207a1.416,1.416,0,0,1-.471-1.073V9.427a1.4,1.4,0,0,1,.471-1.067,1.607,1.607,0,0,1,1.129-.434,1.626,1.626,0,0,1,1.145.434,1.393,1.393,0,0,1,.471,1.067v6.324a1.413,1.413,0,0,1-.471,1.073,1.61,1.61,0,0,1-1.145.442A1.59,1.59,0,0,1,19.346,16.824Zm-18.876,0A1.416,1.416,0,0,1,0,15.751V9.427A1.4,1.4,0,0,1,.47,8.368a1.611,1.611,0,0,1,1.146-.442,1.6,1.6,0,0,1,1.13.442,1.4,1.4,0,0,1,.47,1.059v6.324a1.425,1.425,0,0,1-.463,1.073,1.584,1.584,0,0,1-1.137.442A1.611,1.611,0,0,1,.47,16.824ZM3.781,7.677a5.443,5.443,0,0,1,1-3.169,6.745,6.745,0,0,1,2.7-2.257L6.37.323A.188.188,0,0,1,6.449.029a.224.224,0,0,1,.313.088l1.13,1.942a8.352,8.352,0,0,1,6.307,0L15.329.118a.225.225,0,0,1,.314-.088.188.188,0,0,1,.078.294L14.608,2.25a6.774,6.774,0,0,1,2.683,2.257,5.45,5.45,0,0,1,1,3.169ZM13.925,4.243a.542.542,0,0,0,0,.809.61.61,0,0,0,.431.169.584.584,0,0,0,.424-.169.561.561,0,0,0,0-.809.582.582,0,0,0-.424-.169A.608.608,0,0,0,13.925,4.243Zm-6.614,0a.56.56,0,0,0,0,.809.585.585,0,0,0,.424.169.612.612,0,0,0,.432-.169.545.545,0,0,0,0-.809.611.611,0,0,0-.432-.169A.582.582,0,0,0,7.311,4.243Z" fill="url(#linear-gradient)"/>
</svg>
