<svg xmlns="http://www.w3.org/2000/svg" width="24" height="24" viewBox="0 0 24 24">
  <path id="angle-square-right" d="M0,5V19a5.006,5.006,0,0,0,5,5H19a5.006,5.006,0,0,0,5-5V5a5.006,5.006,0,0,0-5-5H5A5.006,5.006,0,0,0,0,5Zm16,7a2.993,2.993,0,0,1-.752,1.987c-.291.327-.574.637-.777.84L11.647,17.7a1,1,0,1,1-1.426-1.4l2.829-2.88c.187-.188.441-.468.7-.759a1,1,0,0,0,0-1.323c-.258-.29-.512-.57-.693-.752L10.221,7.7a1,1,0,1,1,1.426-1.4l2.829,2.879c.2.2.48.507.769.833A2.99,2.99,0,0,1,16,12Z" transform="translate(24 24) rotate(180)" fill="#31325d"/>
</svg>
