<svg id="ans_icon" xmlns="http://www.w3.org/2000/svg" width="20" height="20" viewBox="0 0 20 20">
  <rect id="Rectangle_11121" data-name="Rectangle 11121" width="20" height="20" fill="none"/>
  <path id="Path_16286" data-name="Path 16286" d="M115.356,28h-4.379a5.81,5.81,0,0,0,0,11.621h2.463l2.5,2.81a.115.115,0,0,0,.2-.073l1.5-3.2A5.811,5.811,0,0,0,115.356,28Zm-5.97,6.687a.877.877,0,1,1,.62-.257.877.877,0,0,1-.62.257Zm2.9-.877a.877.877,0,1,1,.257.62A.877.877,0,0,1,112.289,33.81Zm4.657.877a.877.877,0,1,1,.62-.257.877.877,0,0,1-.62.257Z" transform="translate(-103.351 -25)" fill="#a9a9a9"/>
</svg>
