<svg xmlns="http://www.w3.org/2000/svg" xmlns:xlink="http://www.w3.org/1999/xlink" width="30" height="30" viewBox="0 0 30 30">
  <defs>
    <clipPath id="clip-path">
      <rect id="Rectangle_31" data-name="Rectangle 31" width="22.642" height="24" fill="#24272c"/>
    </clipPath>
  </defs>
  <g id="api" transform="translate(-249 -9)">
    <rect id="Rectangle_24" data-name="Rectangle 24" width="30" height="30" transform="translate(249 9)" fill="none"/>
    <g id="Group_2" data-name="Group 2" transform="translate(252.679 12)">
      <g id="Group_1" data-name="Group 1" transform="translate(0 0)" clip-path="url(#clip-path)">
        <path id="Path_1" data-name="Path 1" d="M16.776,16.49H13.8a2.6,2.6,0,0,1-.731,1.358,2.549,2.549,0,0,1-1.863.772,2.654,2.654,0,0,1-2.6-2.13H5.537L3.592,17.962l2.079,3.581L7.9,20.6c.144.1.288.2.432.288a3.717,3.717,0,0,0,.453.226L9.1,23.519h4.137l.309-2.408c.144-.062.3-.144.453-.226s.288-.185.432-.288l2.223.947,2.069-3.581Z" transform="translate(0.105 0.481)" fill="#24272c"/>
        <path id="Path_2" data-name="Path 2" d="M22.642,11.835a4.6,4.6,0,0,1-4.631,4.631H16.919v-.257a2,2,0,0,0-.021-.247l1.945-1.472-2.079-3.581-2.233.947c-.144-.1-.288-.2-.432-.288a3.717,3.717,0,0,0-.453-.226l-.309-2.408H9.2l-.309,2.408c-.144.062-.3.144-.453.226s-.288.185-.432.288l-2.233-.947L3.695,14.491,5.64,15.962a2,2,0,0,0-.021.247v.257A5.5,5.5,0,0,1,1.657,14.84,5.322,5.322,0,0,1,0,10.878,5.681,5.681,0,0,1,1.214,7.307,5.285,5.285,0,0,1,4.374,5.3,7.145,7.145,0,0,1,11.321,0a6.943,6.943,0,0,1,5.1,2.1,6.943,6.943,0,0,1,2.1,5.1,4.471,4.471,0,0,1,2.943,1.533,4.526,4.526,0,0,1,1.173,3.1" transform="translate(0 0)" fill="#24272c"/>
        <path id="Path_3" data-name="Path 3" d="M9.277,15.412H7.8l-.238.7H6.545l1.437-3.969H9.1l1.437,3.969H9.515Zm-.249-.747-.492-1.453L8.05,14.664Z" transform="translate(0.191 0.354)" fill="#24272c"/>
        <path id="Path_4" data-name="Path 4" d="M13.716,14.051a1.166,1.166,0,0,1-.487.46,1.707,1.707,0,0,1-.814.176h-.6v1.425h-.967v-3.97h1.567a1.785,1.785,0,0,1,.8.164,1.139,1.139,0,0,1,.493.452,1.335,1.335,0,0,1,.164.663,1.29,1.29,0,0,1-.158.631m-.962-.263a.563.563,0,0,0,0-.736.578.578,0,0,0-.412-.13h-.527v1h.527a.578.578,0,0,0,.412-.13" transform="translate(0.316 0.354)" fill="#24272c"/>
        <rect id="Rectangle_30" data-name="Rectangle 30" width="0.966" height="3.969" transform="translate(14.695 12.497)" fill="#24272c"/>
      </g>
    </g>
  </g>
</svg>
