<svg xmlns="http://www.w3.org/2000/svg" width="50" height="50" viewBox="0 0 50 50">
  <g id="app_icon" transform="translate(-35 -37)">
    <circle id="Ellipse_1" data-name="Ellipse 1" cx="25" cy="25" r="25" transform="translate(35 37)" fill="#2daafa"/>
    <g id="noun-apps-4497959" transform="translate(-139.399 6.242)">
      <path id="Path_16046" data-name="Path 16046" d="M266.066,127.56H268.8a.566.566,0,0,1,.526.526v2.732a.526.526,0,0,1-.526.526h-2.732a.566.566,0,0,1-.526-.526v-2.732A.526.526,0,0,1,266.066,127.56Z" transform="translate(-71.101 -80.758)" fill="#fff"/>
      <path id="Path_16047" data-name="Path 16047" d="M266.066,224.44H268.8a.566.566,0,0,1,.526.526V227.7a.526.526,0,0,1-.526.526h-2.732a.566.566,0,0,1-.526-.526v-2.732A.526.526,0,0,1,266.066,224.44Z" transform="translate(-71.101 -171.946)" fill="#fff"/>
      <path id="Path_16048" data-name="Path 16048" d="M266.066,321.34H268.8a.565.565,0,0,1,.526.526V324.6a.526.526,0,0,1-.526.526h-2.732a.566.566,0,0,1-.526-.526v-2.732A.526.526,0,0,1,266.066,321.34Z" transform="translate(-71.101 -263.154)" fill="#fff"/>
      <path id="Path_16049" data-name="Path 16049" d="M206.449,41.762h-14.1a2.35,2.35,0,0,0-2.35,2.35V67.4a2.35,2.35,0,0,0,2.35,2.35h14.1a2.35,2.35,0,0,0,2.35-2.35V44.112a2.35,2.35,0,0,0-2.35-2.35ZM199.3,68.278a1.469,1.469,0,1,1,1.039-.43A1.469,1.469,0,0,1,199.3,68.278Zm7.167-4.19h-14.1V44.261h14.1Z" fill="#fff"/>
      <path id="Path_16050" data-name="Path 16050" d="M365.788,144.515h2.937a.587.587,0,1,0,0-1.175h-2.937a.587.587,0,1,0,0,1.175Z" transform="translate(-164.908 -95.611)" fill="#fff"/>
      <path id="Path_16051" data-name="Path 16051" d="M365.788,245.015h2.937a.587.587,0,1,0,0-1.175h-2.937a.587.587,0,1,0,0,1.175Z" transform="translate(-164.908 -190.207)" fill="#fff"/>
      <path id="Path_16052" data-name="Path 16052" d="M365.788,345.515h2.937a.587.587,0,1,0,0-1.175h-2.937a.587.587,0,1,0,0,1.175Z" transform="translate(-164.908 -284.803)" fill="#fff"/>
    </g>
  </g>
</svg>
