<svg id="arrow_blue" xmlns="http://www.w3.org/2000/svg" width="24.973" height="20.817" viewBox="0 0 24.973 20.817">
  <path id="Path_16063" data-name="Path 16063" d="M350.681,108.511l7.075,7.019-7.075,7.017a1.985,1.985,0,0,0,0,2.809,2.02,2.02,0,0,0,2.837,0L362,116.934a1.983,1.983,0,0,0,0-2.808l-8.486-8.424a2.021,2.021,0,0,0-2.837,0,1.986,1.986,0,0,0,0,2.809Z" transform="translate(-337.612 -105.121)" fill="#1d59f9"/>
  <path id="Path_16064" data-name="Path 16064" d="M152.022,116.93a1.983,1.983,0,0,0,0-2.808l-8.486-8.424a2.022,2.022,0,0,0-2.838,0,1.985,1.985,0,0,0,0,2.809l7.076,7.019-7.076,7.017a1.985,1.985,0,0,0,0,2.809,2.022,2.022,0,0,0,2.838,0Z" transform="translate(-140.116 -105.117)" fill="#1d59f9"/>
</svg>
