<svg xmlns="http://www.w3.org/2000/svg" width="350.106" height="321.299" viewBox="0 0 350.106 321.299">
  <g id="Ask_Question_image" data-name="Ask Question image" transform="translate(-81.792 -141.47)">
    <path id="Path_16289" data-name="Path 16289" d="M429.985,296.171l-.508,2.348c-.761,3.172-1.65,6.471-2.792,9.9a101.972,101.972,0,0,0-3.553,13.895,60.353,60.353,0,0,0-.508,18.589c.317,2.665.761,5.266,1.205,7.931a97.005,97.005,0,0,1,1.586,20.747c-.317,8.184-1.776,18.4-5.52,32.357-14.91,56.276-103.67,94.787-170.6,83.938-34.514-5.647-46.569-19.6-56.149-27.726-15.734-13.324-40.605-14.529-48.218-15.544-17.765-2.411-30.9-6.979-40.478-13.006C83.51,416.464,79.7,396.732,82.685,379.285c.381-2.221.888-4.441,1.459-6.535a62.076,62.076,0,0,1,1.967-6.091l.381-.952c.888-2.411,1.9-4.695,2.918-6.789a69.442,69.442,0,0,1,9.39-14.466,73.529,73.529,0,0,1,6.916-7.106c1.079-1.015,2.221-1.967,3.363-2.982.127-.127.254-.19.381-.317l7.487-5.964c5.774-4.5,11.611-9.009,17-14.91,9.073-9.9,16.876-23.665,21.064-47.647,2.919-16.5,10.659-27.979,21.381-35.276A54.154,54.154,0,0,1,189.4,223.78a35.375,35.375,0,0,1,3.68-1.142,73.276,73.276,0,0,1,12.562-2.347c17.257-1.776,36.608,1.65,54.436,8.5,23.284,8.946,40.034,5.2,61.986-6.218,24.744-12.879,46.379-17.511,66.871-7.36,6.852,3.363,13.514,8.375,20.176,15.29a97.293,97.293,0,0,1,6.6,7.487l.888,1.079c.19.19.317.444.508.634,1.523,1.967,2.982,3.934,4.314,5.964h0a70.379,70.379,0,0,1,5.773,10.469l.952,2.284a53.849,53.849,0,0,1,3.3,13.133,74.6,74.6,0,0,1-1.459,24.617Z" transform="translate(0 -24.936)" fill="#1b89e5"/>
    <path id="Path_16290" data-name="Path 16290" d="M502.458,500.112c-.825,11.166-8.755,16.94-19.478,14.275-25.886-6.471-30.01-26.33-36.671-40.351-5.266-11.23-14.085-21.571-19.1-31.85-3.236-6.6-9.073-20.874.888-26.9,10.6-6.408,23.919,4.632,27.091,11.039C475.621,467.438,503.219,489.073,502.458,500.112Z" transform="translate(-124.562 -99.386)" fill="#3c3854"/>
    <path id="Path_16291" data-name="Path 16291" d="M498.752,520.66c-2.347-1.205-15.29-1.079-15.354-1.079a369.04,369.04,0,0,1-23.411-31.088c-.571-18.716,9.517-35.593,9.517-35.593,10.6,11.1,6.789,18.589,10.342,22.333s21.254,14.275,30.327,29.629C511.314,510.255,512.9,528.083,498.752,520.66Z" transform="translate(-138.239 -113.842)" fill="#2d2b47"/>
    <path id="Path_16292" data-name="Path 16292" d="M290.761,450c1.142,8.121,6.725,16.305,7.994,27.028l5.012,36.354h0c0,.127.063.317.063.444s.063.19.063.317c1.079,6.471,2.347,13.577,3.807,20.3h0c.19.825.317,1.586.508,2.411.634,2.919,1.332,5.71,2.03,8.311a14.516,14.516,0,0,0,.508,1.776h0c.508,1.9,1.079,3.68,1.586,5.266a16.169,16.169,0,0,0,2.03,1.332,1.853,1.853,0,0,0,.571.127c3.3.825,6.789,1.523,10.6,2.157a156.838,156.838,0,0,0,38.321,1.206h.063c.254,0,.508-.063.761-.063a195.655,195.655,0,0,0,49.424-11.1,144.5,144.5,0,0,1-5.964-23.6,188.46,188.46,0,0,1-2.411-29.946v-5.393c0-2.094.063-4.124.127-6.154,0-.952.063-1.84.127-2.792.381-8.311,1.015-16.242,1.523-23.411.127-1.269.19-2.6.317-3.807a1.756,1.756,0,0,1,.063-.571h0l.444-7.233a47.9,47.9,0,0,0-.444-8.5c-.952-7.3-3.489-16.305-8.946-21.064h0a13.278,13.278,0,0,0-2.792-1.84,72.891,72.891,0,0,0-19.478-6.979h-.127c-.063,0-.19-.063-.254-.063-.825-.19-1.65-.317-2.538-.444l-3.807-.571c-.7-.063-1.459-.19-2.157-.254a.382.382,0,0,1-.254-.063h-.254a.572.572,0,0,1-.317-.063h0c-1.205-.127-2.538-.254-3.807-.444h0a.8.8,0,0,1-.381-.063h-.381L351.605,401.4a27.9,27.9,0,0,0-6.091,0,42.918,42.918,0,0,0-6.916,1.332c-.063,0-.127.063-.19.063-.952.254-1.967.571-2.982.888-.127.063-.19.063-.317.127-.063,0-.127.063-.19.063h0c-.19.063-.444.127-.634.19-.127.063-.254.063-.381.127-.063,0-.063,0-.127.063h0c-.063,0-.063,0-.127.063a4.753,4.753,0,0,1-1.015.317c-.063,0-.19.063-.254.063-2.03.7-4.06,1.523-6.027,2.411a1.071,1.071,0,0,1-.317.127,139.623,139.623,0,0,0-20.112,11.039,60.4,60.4,0,0,0-9.39,8.438c-.063.063-.127.19-.254.254h0c-4.187,5.012-7.042,12.372-5.52,23.031h0Z" transform="translate(-76.236 -94.956)" fill="#3c3854"/>
    <path id="Path_16293" data-name="Path 16293" d="M437.457,289.761c4.441,15.671-9.58,26.139-9.58,26.139L420.2,289l17.257.761Z" transform="translate(-123.704 -53.929)" fill="#2c2a3f"/>
    <path id="Path_16294" data-name="Path 16294" d="M387.029,386.059l-.888,5.456a19.084,19.084,0,0,0,0,3.3,20.356,20.356,0,0,0,3.553,10.151c3.616,5.71-8.311,10.722-19.668,9.073s-12.182-8.755-11.928-12.5c.127-1.713,1.523-16.5-4.632-27.345-.761-1.332,6.154-.19,7.3-.634,4.5-1.776,18.843,6.725,24.744,9.136a2.627,2.627,0,0,1,1.523,3.363h0Z" transform="translate(-99.288 -84.751)" fill="#ff7364"/>
    <path id="Path_16295" data-name="Path 16295" d="M398.245,388.687l-.761,1.9h0a1.387,1.387,0,0,0-.317.19c-.317.19-.7.317-1.015.508l-1.332.571c-.254.127-.508.19-.761.317-.063,0-.127.063-.254.063l-.571.19a23.466,23.466,0,0,0-.7,3.426,15.728,15.728,0,0,0-.063,2.982l-2.157.888a14.623,14.623,0,0,1-17.067-6.852c-.063-.063-.063-.127-.127-.254a15.609,15.609,0,0,1-1.4-3.87L370.9,384.5c3.743,1.523,11.674,4.378,19.034,4.632,1.713.063,3.236.063,4.5,0,1.523-.127,2.792-.254,3.807-.444h0Z" transform="translate(-105.683 -88.839)" fill="#ed4850"/>
    <path id="Path_16296" data-name="Path 16296" d="M335.828,314.27c.063.063.063.19.127.254a93.842,93.842,0,0,0,7.994,15.163c.254.381.508.761.761,1.079,5.774,7.994,11.8,14.973,21.825,17.257a31.977,31.977,0,0,0,6.027.761,27.527,27.527,0,0,0,4.568-.19c.381-.063.761-.063,1.142-.127.19-.063.444-.063.634-.127s.444-.063.634-.127c.127,0,.254-.063.381-.063s.254-.063.381-.063c.19-.063.381-.063.634-.127a27.046,27.046,0,0,0,5.393-1.84.2.2,0,0,0,.127-.063c.19-.063.381-.19.571-.254.063-.063.19-.063.254-.127a30.6,30.6,0,0,0,4.378-2.6c.254-.19.444-.317.7-.508a20.578,20.578,0,0,0,4.187-4.314.062.062,0,0,1,.063-.063,22.375,22.375,0,0,0,3.87-11.42c.634-8.184-1.776-17.194-2.792-25.124-.508-3.743-.634-7.423-.952-11.04v-.063c-.508-5.139-1.4-10.088-4.187-14.529h0a21.658,21.658,0,0,0-3.109-3.934,29.9,29.9,0,0,0-24.363-8.692c-10.088,1.205-21.254,4.251-28.043,12.435-8.692,10.342-6.471,25.505-1.205,38.448h0Z" transform="translate(-91.166 -44.494)" fill="#ff977b"/>
    <path id="Path_16297" data-name="Path 16297" d="M402.1,327.336c-.063-.444.571-.634.825-.254a29.506,29.506,0,0,0,4.885,6.027c3.172,3.172,2.03,6.091-2.03,7.55-2.855,1.015-2.919-1.142-1.079-1.459,2.6-.444,4.251-2.982,1.332-5.583-2.474-2.221-3.68-4.378-3.934-6.281h0Z" transform="translate(-117.085 -67.775)" fill="#ed4850"/>
    <path id="Path_16298" data-name="Path 16298" d="M334.436,308.883c.571,2.6,1.205,5.139,1.84,7.613,0,.063.063.127.063.19,1.65,6.027,3.807,11.8,7.613,17,5.2,7.169,11.357,13.831,20.239,16.115a38.387,38.387,0,0,0,8.882,1.205,36.755,36.755,0,0,0,4.568-.254c.381-.063.761-.063,1.142-.127.19-.063.444-.063.634-.127s.444-.063.634-.127c.127,0,.254-.063.381-.063s.254-.063.381-.063c.19-.063.381-.063.634-.127a27.05,27.05,0,0,0,5.393-1.84.2.2,0,0,0,.127-.063c.19-.063.381-.19.571-.254.063-.063.19-.063.254-.127a30.6,30.6,0,0,0,4.378-2.6c.254-.19.444-.317.7-.508a24.206,24.206,0,0,0,4-4.061,1.25,1.25,0,0,0,.19-.952,1.545,1.545,0,0,0-2.411-.825,32.4,32.4,0,0,1-11.611,5.139c-7.931,1.713-17.7-1.205-24.109-6.218-4.06-3.172-7.3-4.314-12.182-14.4-1.459-2.918-2.474-6.218-4-15.481,0-.127,6.345-5.52,4-17.321a.63.63,0,0,1,.7-.761c7.423,1.205,20.3-2.411,26.774-5.71a.624.624,0,0,1,.825.254c1.4,2.411,6.916,12.372,21.127,8.5,0,0,.952-.254,1.015-.254-.508-5.139-1.4-10.088-4.187-14.592h-.063a1.681,1.681,0,0,0-.381-.317c-4.568-3.49-11.674-4.822-17.194-5.9-5.012-1.015-10.024-1.523-14.973-2.538-5.012-.952-11.484,1.967-15.861,4.251a21.918,21.918,0,0,0-9.961,10.088c-3.616,8.058-1.967,17.067-.127,25.251h0Zm20.3-12.753a37.429,37.429,0,0,1,12.308-.952,1.242,1.242,0,0,0,1.4-1.4c-.254-1.205-1.205-2.728-4.5-2.919-3.68-.19-7.233.444-9.073,1.713a3.3,3.3,0,0,0-1.586,2.284A1.179,1.179,0,0,0,354.738,296.131Z" transform="translate(-91.614 -46.658)" fill="#ff7364"/>
    <path id="Path_16299" data-name="Path 16299" d="M366.843,306.647a37.429,37.429,0,0,1,12.308-.952,1.242,1.242,0,0,0,1.4-1.4c-.254-1.205-1.205-2.728-4.5-2.918-3.68-.19-7.233.444-9.073,1.713a3.3,3.3,0,0,0-1.586,2.284A1.159,1.159,0,0,0,366.843,306.647Z" transform="translate(-103.656 -58.443)" fill="#2c2a3f"/>
    <path id="Path_16300" data-name="Path 16300" d="M397.4,259.6a19.838,19.838,0,0,1-2.474,8.565,9.757,9.757,0,0,1-5.266,4.695c-.19.063-.444.127-.634.19a2.254,2.254,0,0,1-.634.127c-8.311,1.9-18.272.19-23.855-6.535-.19-.254-.761-.825-1.332-1.459-1.142-1.205-2.538-2.665-2.918-3.236h0c0,.063-.063.127-.127.19-.254.508-.508.952-.825,1.459a15.374,15.374,0,0,1-1.9,2.221,22.613,22.613,0,0,1-3.363,2.6l-.063.063c-5.139,3.236-24.236,2.157-26.076.888.19,4.5.825,8.311-.19,12.055-.825,3.109-1.713,7.36-4.378,9.453l-.063.063c-.634,1.586,5.329,9.58,4.5,12.626-2.221,7.867-11.547,10.151-18.78,9.39-5.2-.571-12.182-2.918-13.45-8.438a14.066,14.066,0,0,1-.254-6.852,12.338,12.338,0,0,1,2.6-5.139,4.766,4.766,0,0,0,.063-5.9,22.335,22.335,0,0,1-1.9-2.855,26.5,26.5,0,0,1-3.68-12.689,22.764,22.764,0,0,1,10.088-19.668c4.378-3.045,10.278-5.329,17.955-6.281a4.957,4.957,0,0,0,3.934-2.919c7.55-17.511,38.131-17.384,40.859-.634a5.474,5.474,0,0,0,7.423,4.314c3.3-1.332,7.042-2.411,10.278-2.157,4.758.381,8.121,1.967,10.468,4.187a13.19,13.19,0,0,1,3.172,5.012,18,18,0,0,1,.825,6.662Z" transform="translate(-76.982 -32.014)" fill="#3c3854"/>
    <path id="Path_16301" data-name="Path 16301" d="M409.836,305.534a37.85,37.85,0,0,0,12.308-1.269,1.193,1.193,0,0,1,1.586,1.142c0,1.269-.7,2.918-3.934,3.68-3.553.825-7.169.825-9.263-.063a3.262,3.262,0,0,1-1.967-1.967,1.177,1.177,0,0,1,1.269-1.523h0Z" transform="translate(-119.431 -59.487)" fill="#ff7364"/>
    <path id="Path_16302" data-name="Path 16302" d="M370.544,287.577a37.85,37.85,0,0,0,12.308-1.269,1.193,1.193,0,0,1,1.586,1.142c0,1.269-.7,2.919-3.934,3.68-3.553.825-7.169.825-9.263-.063a3.262,3.262,0,0,1-1.967-1.967,1.172,1.172,0,0,1,1.269-1.523Zm-23.538,11.864a1.562,1.562,0,0,0-.761.063.779.779,0,0,0-.063,1.205,7.286,7.286,0,0,0,6.6,2.348c2.284-.381,4.251-1.269,4.885-3.363.254-.888-.317-1.205-.825-1.4-1.205-.508-1.269,2.665-4.441,3.045C350.622,301.662,349.48,301.091,347.006,299.442ZM381.584,295c.063-.127.508-.19.634-.127.508.127.571.634.444,1.142a6.85,6.85,0,0,1-5.012,4.314c-2.094.381-4.06.063-5.2-1.65-.508-.761-.063-1.205.254-1.586.888-.825,1.9,2.094,4.758,1.523,1.713-.381,2.474-1.205,4.124-3.616h0ZM401,270.51a20.1,20.1,0,0,1-2.474,8.565,9.668,9.668,0,0,1-5.329,4.695c-.19.063-.444.127-.634.19a2.254,2.254,0,0,1-.634.127c-8.438,2.03-18.589,1.205-24.363-5.266a27.023,27.023,0,0,1-2.855-4c-5.456,8.692-17.067,9.453-25.251,9.073h-.444a14.935,14.935,0,0,1-5.266-1.269c.761,7.8,2.094,8.882-.7,16.369a11.889,11.889,0,0,1-4.187,5.647,12.879,12.879,0,0,1,2.6,10.849c-.825,3.934-5.393,5.837-9.073,7.169a23.771,23.771,0,0,1-13.133,1.015,17.921,17.921,0,0,1-6.281-2.855,1.847,1.847,0,0,1,1.4-3.3,13.4,13.4,0,0,0,1.65.127,15.014,15.014,0,0,0,6.852-1.713c3.934-1.967,7.677-5.52,8.882-9.834a23.042,23.042,0,0,0,.444-8.946,2.857,2.857,0,0,1,1.776-2.982c4.758-1.776,8.692-9.58,5.837-17.257a.6.6,0,0,1,.825-.761c6.979,3.3,29.248,5.139,35.529-11.1a1.91,1.91,0,0,1,3.426-.254c3.3,5.647,7.8,8.565,10.024,9.073,8.819,2.157,21.254-3.236,17.13-14.973a13.357,13.357,0,0,1,3.236,5.012,14.321,14.321,0,0,1,1.015,6.6h0Z" transform="translate(-80.583 -42.926)" fill="#2c2a3f"/>
    <path id="Path_16303" data-name="Path 16303" d="M341.955,355.84c2.855,5.774,2.982,8.946-1.459,10.215-7.487,2.221-15.734-2.221-17.384-8.438-2.157-7.931,2.982-13.006,9.073-11.991,5.583.952,7.8,6.218,9.771,10.215h0Z" transform="translate(-88.03 -74.581)" fill="#ff7364"/>
    <path id="Path_16304" data-name="Path 16304" d="M332.538,358.362a4.221,4.221,0,0,1,1.84-.761,3.6,3.6,0,0,1,1.84.063,7.054,7.054,0,0,1,1.713.825l.761.571a2.99,2.99,0,0,1,.634.634,1.269,1.269,0,1,0,2.03-1.523l-.19-.19-.063-.063a11.219,11.219,0,0,0-1.079-.761l-1.142-.571a7.871,7.871,0,0,0-2.411-.571,5.531,5.531,0,0,0-2.474.444,7.164,7.164,0,0,0-1.967,1.332.33.33,0,0,0,0,.508.372.372,0,0,0,.508.063Zm44.6-3.109a.79.79,0,0,0,.952-.508,4.138,4.138,0,0,1,3.236-.19,2.866,2.866,0,0,1,2.094,1.84.812.812,0,0,0,.888.634.233.233,0,0,0,.19-.063.969.969,0,0,0,.508-1.205,4.984,4.984,0,0,0-5.2-3.363c-1.4,0-2.982.444-3.236,1.65a.967.967,0,0,0,.571,1.205h0Z" transform="translate(-91.43 -77.103)" fill="#ed4850"/>
    <path id="Path_16305" data-name="Path 16305" d="M397.236,478.936c-7.74-.761-16.623-10.342-16.686-10.405-37.306-35.593-22.84-65.158-22.84-65.031,4.441,8.311,28.741,12.626,31.279.444,10.024,7.3,11.991,5.774,15.037,31.786C405.231,446.2,400.916,479.254,397.236,478.936Z" transform="translate(-99.852 -95.784)" fill="#d3dfe2"/>
    <path id="Path_16306" data-name="Path 16306" d="M308.2,445.8c10.405,2.792,33.88,15.1,11.1,64.27Z" transform="translate(-82.763 -111.247)" fill="#2d2b47"/>
    <path id="Path_16307" data-name="Path 16307" d="M254.9,540.722l1.523,1.206c6.725,5.71,14.719,14.339,30.834,20.874.7-9.707,1.84-25.822,3.426-34.578l.19-1.079h0c.063-.254.063-.508.127-.7l.634-3.49c0-.127.063-.19.063-.317a17.394,17.394,0,0,0,.317-1.776c.7-3.68,1.459-7.36,2.284-10.913a14.27,14.27,0,0,1,.317-1.4l3.045-13.387a5.286,5.286,0,0,1,.254-.952l2.221-9.453c.063-.381.19-.7.254-1.079.19-.7.317-1.4.508-2.094a5.94,5.94,0,0,1,.254-1.015c.254-1.015.444-1.967.634-2.918,1.523-6.662,2.474-11.8,2.474-14.719a57.33,57.33,0,0,0-.761-10.278c-.952-5.2-3.109-9.961-7.677-12.5-2.03-1.142-7.106-1.332-9.009-.888a14.241,14.241,0,0,0-3.3,1.015,6.842,6.842,0,0,0-2.03,1.65c-13.958,16.94-22.967,62.747-26.584,98.784h0Z" transform="translate(-63.279 -108.78)" fill="#3c3854"/>
    <path id="Path_16308" data-name="Path 16308" d="M311.454,549.487h0c.063-.254.063-.508.127-.761l.634-3.489c0-.127.063-.19.063-.317l.317-1.776c.7-3.68,1.459-7.36,2.284-10.913a14.283,14.283,0,0,1,.317-1.4l1.142-5.139c.317-1.523.7-3.045,1.015-4.5.317-1.269.571-2.474.825-3.68h0a5.292,5.292,0,0,1,.254-.952l2.221-9.453c.063-.381.19-.7.254-1.079.19-.7.317-1.4.508-2.094a5.939,5.939,0,0,1,.254-1.015c.254-1.015.444-1.967.634-2.919,3.3,9.136,2.918,16.052-.317,24.3a33.808,33.808,0,0,0-1.586,5.583h0a103.858,103.858,0,0,0-2.03,21.7h0c13.577,14.91,33.245,2.538,32.865,17.638-.317,12.245-7.36,17-10.976,18.653.254.063.508.19.825.254h0a220.452,220.452,0,0,1,31.279-2.221c18.4-.19,11.674,4.187-.508,7.169h.444c-.254,0-.508.063-.761.063h-.063a156.835,156.835,0,0,1-38.321-1.205c-3.807-.634-7.3-1.332-10.6-2.157-.19-.063-.381-.063-.571-.127-.825-.19-1.65-.444-2.474-.634-4.822-10.088-6.154-25.7-8.311-38.511a4.754,4.754,0,0,0,.254-1.015h0Z" transform="translate(-83.859 -131.059)" fill="#2d2b47"/>
    <g id="Group_13435" data-name="Group 13435" transform="translate(274.345 316.343)">
      <path id="Path_16309" data-name="Path 16309" d="M385.549,423.887c4.251,7.106,6.535,7.931,6.535,7.931s4.822-.19,5.52-1.015c1.4-4.5,2.094-8.629-.063-11.737-2.094-3.045-6.979-1.65-6.979-1.65S383.9,421.1,385.549,423.887Z" transform="translate(-385.286 -417.097)" fill="#ed4850"/>
      <path id="Path_16310" data-name="Path 16310" d="M394.015,436.589c1.523,13.26,1.713,37.052-1.015,45.173,0,0,10.342,11.1,16.242,9.517S416.6,477,416.6,477s-10.405-34.324-16.686-42.382c-2.157-2.6-5.71.508-5.9,1.967h0Z" transform="translate(-388.106 -423.136)" fill="#ed4850"/>
    </g>
    <path id="Path_16311" data-name="Path 16311" d="M395.092,419.894c-1.332,1.332-7.169-7.3-9.644-8.819-2.347-1.459-5.456-2.221-7.55.888-3.363,4.5-4.314,11.42-7.677,11.737-2.284.254-6.408-1.523-8.819-4.06-3.87-4.061-5.2-15.227-5.2-18.653.127-1.65,2.094-4.378,2.538-4.695,3.553,6.662,13.514,12.055,21.635,11.8,3.3-.444,6.408-2.918,5.9-7.931a14.015,14.015,0,0,1,.381-3.87c.952-.254,3.87,3.426,4.441,4.251,2.982,4.378,9.2,14.148,4,19.351h0Z" transform="translate(-100.309 -93.145)" fill="#fff"/>
    <g id="Group_13436" data-name="Group 13436" transform="translate(247.085 302.938)">
      <path id="Path_16312" data-name="Path 16312" d="M431.489,423.588c2.6,28.614-9.771,47.013-17.067,54.626-.888.952-2.855.254-2.284-2.157.508-2.284,11.039-24.553,4.631-54.88-.888-4.124-3.807-19.732-13.07-23.411a5.206,5.206,0,0,1,.381-1.776c.19-.381,18.907,4.822,24.807,20.62.761,2.03-1.967,1.84-2.855,1.84-.444-.063,5.266,2.728,5.456,5.139h0Z" transform="translate(-364.758 -395.97)" fill="#2d2b47"/>
      <path id="Path_16313" data-name="Path 16313" d="M386.212,478.448C376,472.675,345.163,453.9,343.259,430.738c-.127-1.9,5.329-5.52,4.695-5.583,0,0-4.885,2.221-5.076.761-1.079-7.613-.571-14.592,1.332-18.843.7-1.586,1.776-5.076,8.375-9.073.063-.063-1.586,7.8,2.411,20.049,7.487,23.158,36.545,58.624,36.608,58.687C392.176,477.624,391.478,481.43,386.212,478.448Zm10.215,13.514a3.807,3.807,0,1,1-3.807-3.807A3.778,3.778,0,0,1,396.427,491.962Zm3.807,26.013a3.807,3.807,0,1,1-3.807-3.807A3.777,3.777,0,0,1,400.233,517.975Z" transform="translate(-342.321 -396.712)" fill="#2d2b47"/>
    </g>
    <path id="Path_16314" data-name="Path 16314" d="M424.213,541.907a3.807,3.807,0,1,1-3.807-3.807A3.778,3.778,0,0,1,424.213,541.907Zm3.807,26.013a3.807,3.807,0,1,1-3.807-3.807A3.778,3.778,0,0,1,428.02,567.919Z" transform="translate(-122.388 -144.986)" fill="#fff"/>
    <path id="Path_16315" data-name="Path 16315" d="M423.2,458c.952,3.553,1.776,6.916,2.538,10.088.254.952.444,1.9.7,2.792l3.934,15.861c2.284,8.248,4.695,14.021,8.629,16.876,6.789,4.949,8.184,29.756,17.447,37.433-2.6-15.417-2.728-30.517-2.157-44.348l-18.4-23.094L427.7,463.4c-.634-.761-1.142-1.459-1.65-2.03-1.84-2.03-2.855-3.363-2.855-3.363h0Zm14.021-5.2c10.024,5.52,19.795,14.846,21.508,20.429,1.65,5.583-20.112-13.831-20.112-13.831l-1.4-6.6h0Z" transform="translate(-124.801 -113.805)" fill="#2d2b47"/>
    <path id="Path_16316" data-name="Path 16316" d="M445.8,462.593c-1.459-6.408-7.042-5.774-11.61-3.236-5.52,3.045-8.121,9.263-4.251,12.943C435.9,478.01,446.813,467.034,445.8,462.593Z" transform="translate(-126.589 -115.541)" fill="#d3dfe2"/>
    <path id="Path_16317" data-name="Path 16317" d="M388.471,391.895c-3.68-4.885-4.5-9.834,3.934-9.2s7.233,8.375,7.233,8.375Zm10.913,26.2,3.3-.19c-.444,2.474,6.916,14.719,10.215,15.925,6.852,4.695,15.037,3.743,16.305,1.776l1.84,2.03a4.433,4.433,0,0,1-.761,5.329c-2.665,2.728-8.121,4.441-10.278,5.076l-5.076-7.55a50.178,50.178,0,0,0-5.456-5.9l-.063-.127c-4.187-3.49-10.215-11.991-10.024-16.369h0Zm12.562-35.847-8.184,2.982C406.426,380.665,411.057,380.284,411.946,382.251Z" transform="translate(-111.135 -87.605)" fill="#ff7364"/>
    <path id="Path_16318" data-name="Path 16318" d="M415.731,396.45a52.187,52.187,0,0,0,1.079,6.725l4.695-.19,1.269-.063-.571-5.964a39.382,39.382,0,0,1-.127-6.091c.381-4.758,1.65-8.565.063-9.009-1.9-.508-5.52,1.523-6.408,8.248A42.164,42.164,0,0,0,415.731,396.45Z" transform="translate(-122.026 -87.845)" fill="#ff977b"/>
    <path id="Path_16319" data-name="Path 16319" d="M415.734,401.318l5.774,6.6,1.269-.063-.571-5.964A26.072,26.072,0,0,0,415.8,395.1a33.075,33.075,0,0,0-.063,6.218Z" transform="translate(-122.029 -92.713)" fill="#ff7364"/>
    <path id="Path_16320" data-name="Path 16320" d="M389.523,391.932c3.807,2.918,9.58,5.2,12.943,9.009a10.149,10.149,0,0,1,1.84,2.792c0,.063.063.127.063.19,0,0-1.776,10.659-4,15.29a4.142,4.142,0,0,0-.317,1.269c-.19,4.441,5.964,13.07,10.024,16.432.063.063.127.063.127.127.381.317.761.634,1.142,1.015a25.417,25.417,0,0,1,4.187,4.822c1.65,2.6,3.553,5.329,5.076,7.55l2.918,4.124s6.345-4.695,10.659-7.423c1.967-1.205.19-4-2.474-7.106-.571-.7-1.205-1.332-1.84-2.03-2.918-3.045-6.091-6.154-7.042-8.184-2.284-4.695-2.982-12.689-5.837-18.145-6.408-12.055-11.484-21.508-25.188-23.982-1.65-.254-6.535.952-2.284,4.251h0Z" transform="translate(-111.871 -89.99)" fill="#ff977b"/>
    <path id="Path_16321" data-name="Path 16321" d="M410.9,408.6a10.149,10.149,0,0,1,1.84,2.792l4.5,1.205C417.308,412.6,415.976,408.917,410.9,408.6Z" transform="translate(-120.304 -97.648)" fill="#ff7364"/>
    <path id="Path_16322" data-name="Path 16322" d="M389.916,422.313a2.555,2.555,0,0,0,2.411-.825c1.586-1.523,3.426-5.076,5.393-5.329,6.091-.888,11.166,2.982,12.245,3.87l.19.19,1.015-6.916c-15.734-8.5-19.224-2.094-21.635,2.665a22.176,22.176,0,0,0-1.142,2.855c-.571,1.84.254,3.236,1.523,3.49h0Z" transform="translate(-112.01 -97.848)" fill="#ff977b"/>
    <path id="Path_16323" data-name="Path 16323" d="M390.9,424.878a2.555,2.555,0,0,0,2.411-.825c1.586-1.523,3.426-5.076,5.393-5.329a21.415,21.415,0,0,1,10.215,1.205c.381.127,1.4-.888-2.284-2.221-8.629-3.172-11.737-1.206-14.212,3.553-.19.317-1.459,3.363-1.523,3.616Z" transform="translate(-112.993 -100.413)" fill="#ff7364"/>
    <path id="Path_16324" data-name="Path 16324" d="M392.021,431.47a2.09,2.09,0,0,0,.888,0,3.032,3.032,0,0,0,1.523-.825c1.586-1.523,2.474-5.583,4.441-5.837,4.632-.634,9.073,1.65,11.484,3.172a21.019,21.019,0,0,1,1.9,1.332l1.015-6.218c-15.734-8.5-19.034-3.363-21.635,1.967a26.764,26.764,0,0,0-1.142,2.855c-.571,1.84.317,3.236,1.523,3.553h0Z" transform="translate(-112.782 -101.294)" fill="#ff977b"/>
    <path id="Path_16325" data-name="Path 16325" d="M393,434.031a2.089,2.089,0,0,0,.888,0,3.032,3.032,0,0,0,1.523-.825c1.586-1.523,3.68-5.139,5.647-5.456,4.632-.634,5.647.508,8.629,1.015.952.254.888-.444.317-.761-9.263-5.139-12.816-1.269-14.719,3.87A3.232,3.232,0,0,1,393,434.031h0Zm1.9.952a26.765,26.765,0,0,0-1.142,2.855c-.952,2.918,1.713,4.758,3.934,2.665,1.586-1.523,3.172-6.027,5.139-6.281,2.094-.063,3.236-.952,2.982-2.094-.508-2.347-2.474-2.6-4.061-2.347a9.929,9.929,0,0,0-6.852,5.2h0Z" transform="translate(-113.761 -103.856)" fill="#ff7364"/>
    <path id="Path_16326" data-name="Path 16326" d="M416.792,432.742c-15.734-8.5-18.907-3.109-21.508,2.221-.19.317-1.269,3.363-1.4,3.68-.952,2.919,1.776,3.743,4,1.65,1.586-1.523,2.474-5.583,4.441-5.837,3.109-.444,4.124,1.015,6.535,2.094,2.538,1.142,7.423-.952,7.867-3.68l.063-.127Z" transform="translate(-114.014 -104.851)" fill="#ff977b"/>
    <path id="Path_16327" data-name="Path 16327" d="M447.971,463.7c-1.776,5.71-10.342,14.339-15.671,12.943,0,0,27.979,53.548,52.216,60.337,25.759,7.169,32.357-17.13,9.961-34.7C480.963,491.553,447.971,463.7,447.971,463.7Z" transform="translate(-128.127 -117.79)" fill="#3c3854"/>
    <path id="Path_16328" data-name="Path 16328" d="M443.719,459.1a47.6,47.6,0,0,1,3.616,3.616c-.508,6.218-7.423,13.831-16.115,12.5-.571-1.079-1.9-3.363-2.221-4,6.979,1.84,15.8-7.042,14.719-12.118h0Z" transform="translate(-126.921 -116.108)" fill="#fff"/>
    <path id="Path_16329" data-name="Path 16329" d="M211.03,243.705a6.448,6.448,0,1,0,5.456-7.423A6.465,6.465,0,0,0,211.03,243.705Zm-2.6-18.018a6.464,6.464,0,0,0,12.562-2.347,74.44,74.44,0,0,0-12.562,2.347h0ZM404.348,218.2a34.724,34.724,0,0,0-17.067,29.883,9.961,9.961,0,1,0,19.922,0,14.852,14.852,0,0,1,14.783-14.846,12.64,12.64,0,0,1,2.665.254,78.907,78.907,0,0,0-20.3-15.29h0Zm39.209,43.27c-.317-.761-.571-1.523-.952-2.284a67.349,67.349,0,0,0-5.773-10.468c-.063,9.009-2.665,11.864-9.326,15.163-15.1,7.677-15.417,26.711-15.417,28.931a9.961,9.961,0,0,0,19.922-.063c0-2.411,1.015-9.326,4.378-11.039a42.177,42.177,0,0,0,10.405-7.106,51.065,51.065,0,0,0-3.236-13.133h0Zm-21.508,51.01a9.93,9.93,0,1,0,10.088,9.961,10.046,10.046,0,0,0-10.088-9.961h0ZM169.41,391.6a7.247,7.247,0,0,0-8.819-5.266,7.172,7.172,0,0,0-5.139,8.755,7.1,7.1,0,0,0,8.629,5.139A7.027,7.027,0,0,0,169.41,391.6Zm4.061-56.466A25.167,25.167,0,0,0,149.3,316.223c-5.393,5.837-11.23,10.405-17,14.91l-7.487,5.964c-.127.127-.254.19-.381.317a25.565,25.565,0,0,0,.444,10.024,7.244,7.244,0,0,0,8.692,5.266,7.327,7.327,0,0,0,5.266-8.819,10.741,10.741,0,0,1,20.81-5.329c1.713,6.662.444,9.136-3.743,12.753-9.263,8.058-6.091,21.445-5.71,22.967a7.1,7.1,0,0,0,8.629,5.139,7.175,7.175,0,0,0,5.266-8.692c-.444-1.65-.952-6.725,1.142-8.5,8.819-7.487,11.166-15.544,8.248-27.091Z" transform="translate(-15.475 -28.048)" fill="#156db7"/>
    <path id="Path_16330" data-name="Path 16330" d="M235.77,163.187c.381,10.722-3.236,17.384-12.372,22.333-2.157,1.205-2.665,5.71-2.6,7.3a6.477,6.477,0,0,1-12.943.508c-.063-1.459-.254-13.831,9.39-19.16,4.314-2.347,5.9-4.314,5.71-10.469a9.682,9.682,0,0,0-19.351.7,6.475,6.475,0,1,1-12.943.444,22.57,22.57,0,0,1,45.11-1.65ZM221.5,212.1a6.476,6.476,0,1,1-6.789-6.218A6.459,6.459,0,0,1,221.5,212.1h0ZM156.654,306c3.553,11.357,1.65,19.541-6.662,27.535-1.967,1.9-1.142,6.916-.634,8.565a7.174,7.174,0,0,1-13.7,4.251c-.508-1.523-4.378-14.719,4.441-23.284,3.934-3.807,5.076-6.345,3.045-12.943a10.726,10.726,0,0,0-20.493,6.345v.063a7.184,7.184,0,1,1-13.7,4.314A24.984,24.984,0,1,1,156.654,306Zm-.888,56.657a7.174,7.174,0,0,1-13.7,4.251,7.175,7.175,0,1,1,13.7-4.251h0ZM434.481,218.766c1.586,16.432-3.363,27.028-16.876,35.466-3.236,2.03-3.553,9.073-3.363,11.42a9.943,9.943,0,0,1-19.795,1.9c-.254-2.221-1.713-21.191,12.562-30.263,6.408-4.06,8.692-7.169,7.74-16.623a14.855,14.855,0,0,0-29.566,2.918,9.947,9.947,0,1,1-19.795,1.967,34.712,34.712,0,0,1,69.092-6.789h0ZM417.1,295.281a9.944,9.944,0,1,1-10.976-9.073,9.9,9.9,0,0,1,10.976,9.073Z" transform="translate(-9.508)" fill="#ffbc15"/>
  </g>
</svg>
