<?xml version="1.0" encoding="UTF-8"?>
<svg width="14px" height="15px" viewBox="0 0 14 15" version="1.1" xmlns="http://www.w3.org/2000/svg" xmlns:xlink="http://www.w3.org/1999/xlink">
    <!-- Generator: Sketch 62 (91390) - https://sketch.com -->
    <title>Group 2</title>
    <desc>Created with Sketch.</desc>
    <g id="Page-1" stroke="none" stroke-width="1" fill="none" fill-rule="evenodd">
        <g id="Artboard" transform="translate(-152.000000, -142.000000)">
            <g id="Group" transform="translate(100.000000, 50.000000)">
                <g id="Group-12-Copy" transform="translate(0.000000, 76.000000)">
                    <g id="Group-13" transform="translate(49.000000, 14.000000)">
                        <g id="Group-2">
                            <rect id="Rectangle" fill="#000" opacity="0" x="0" y="0" width="20" height="20"></rect>
                            <path d="M16.012,16.45 C16.216,16.45 16.39,16.378 16.534,16.234 C16.678,16.09 16.75,15.916 16.75,15.712 L16.75,15.712 L16.75,13.066 C16.75,12.862 16.678,12.688 16.534,12.544 C16.39,12.4 16.216,12.328 16.012,12.328 C15.028,12.328 14.14,12.19 13.348,11.914 C13.216,11.854 13.078,11.842 12.934,11.878 C12.79,11.914 12.67,11.986 12.574,12.094 L12.574,12.094 L10.918,13.75 C9.862,13.198 8.908,12.496 8.056,11.644 C7.204,10.792 6.502,9.838 5.95,8.782 L5.95,8.782 L7.606,7.126 C7.714,7.03 7.78,6.91 7.804,6.766 C7.828,6.622 7.822,6.484 7.786,6.352 C7.51,5.56 7.372,4.672 7.372,3.688 C7.372,3.484 7.3,3.31 7.156,3.166 C7.012,3.022 6.838,2.95 6.634,2.95 L6.634,2.95 L3.988,2.95 C3.784,2.95 3.61,3.022 3.466,3.166 C3.322,3.31 3.25,3.484 3.25,3.688 C3.25,5.416 3.586,7.072 4.258,8.656 C4.906,10.18 5.818,11.53 6.994,12.706 C8.17,13.882 9.52,14.794 11.044,15.442 C12.628,16.114 14.284,16.45 16.012,16.45 Z" id="юбн" fill="#000" fill-rule="nonzero"></path>
                        </g>
                    </g>
                </g>
            </g>
        </g>
    </g>
</svg>