<svg xmlns="http://www.w3.org/2000/svg" xmlns:xlink="http://www.w3.org/1999/xlink" width="24" height="24" viewBox="0 0 24 24">
  <defs>
    <clipPath id="clip-Normal">
      <rect width="24" height="24"/>
    </clipPath>
  </defs>
  <g id="Normal" clip-path="url(#clip-Normal)">
    <path id="phone-call_1_" data-name="phone-call (1)" d="M10.65,12.2A9.1,9.1,0,0,1,5.81,7.345L8.36,4.79,3.665.091,1.287,2.469A4.425,4.425,0,0,0,0,5.625C0,11.061,6.939,18,12.375,18a4.417,4.417,0,0,0,3.155-1.287l2.378-2.378-4.7-4.7Zm3.819,3.457a2.925,2.925,0,0,1-2.094.847C7.7,16.5,1.5,10.3,1.5,5.625A2.93,2.93,0,0,1,2.347,3.53L3.665,2.212,6.243,4.79l-2.2,2.2.184.46a10.779,10.779,0,0,0,6.335,6.327l.454.173,2.194-2.2,2.578,2.578ZM10.5,1.5V0A7.508,7.508,0,0,1,18,7.5H16.5a6.007,6.007,0,0,0-6-6Zm0,3V3A4.5,4.5,0,0,1,15,7.5H13.5A3,3,0,0,0,10.5,4.5Z" transform="translate(3 3)" fill="#fff"/>
  </g>
</svg>
