<svg xmlns="http://www.w3.org/2000/svg" xmlns:xlink="http://www.w3.org/1999/xlink" width="100" height="100" viewBox="0 0 100 100">
  <defs>
    <linearGradient id="linear-gradient" x1="0.5" x2="0.5" y2="1" gradientUnits="objectBoundingBox">
      <stop offset="0" stop-color="#6aa3fa"/>
      <stop offset="1" stop-color="#4a88fa"/>
    </linearGradient>
    <filter id="Rectangle_13" x="0" y="0" width="100" height="100" filterUnits="userSpaceOnUse">
      <feOffset dy="5" input="SourceAlpha"/>
      <feGaussianBlur stdDeviation="5" result="blur"/>
      <feFlood flood-opacity="0.102"/>
      <feComposite operator="in" in2="blur"/>
      <feComposite in="SourceGraphic"/>
    </filter>
  </defs>
  <g id="call_demo_icon" transform="translate(-236 -1034)">
    <g transform="matrix(1, 0, 0, 1, 236, 1034)" filter="url(#Rectangle_13)">
      <rect id="Rectangle_13-2" data-name="Rectangle 13" width="70" height="70" rx="15" transform="translate(15 10)" fill="url(#linear-gradient)"/>
    </g>
    <g id="icon_in3" transform="translate(268.934 1062.681)">
      <path id="Path_4" data-name="Path 4" d="M156.113,91.1a23.168,23.168,0,0,1-16.419-6.842c-9.7-9.7-6.78-19.881-5.442-21.22l3.11-3.11a3.414,3.414,0,0,1,4.822,0,1.5,1.5,0,0,1,.109.124l4.035,5.172a3.413,3.413,0,0,1-.059,4.77l-4.949,4.673a15.457,15.457,0,0,0,8.838,8.03,58.318,58.318,0,0,1,4.124-4.705,3.409,3.409,0,0,1,4.733-.081l5.314,3.9a1.484,1.484,0,0,1,.159.137,3.411,3.411,0,0,1,0,4.817l-3.254,3.255c-1,1-4.173,1.082-5.119,1.082Z" transform="translate(-132.776 -58.459)" fill="#fff"/>
      <path id="Path_5" data-name="Path 5" d="M124.746,65.428a11.762,11.762,0,0,0-10.968-10.984,1.054,1.054,0,1,1,.142-2.1,13.871,13.871,0,0,1,12.93,12.947,1.054,1.054,0,0,1-.982,1.121l-.07,0a1.055,1.055,0,0,1-1.052-.984Z" transform="translate(-92.72 -52.339)" fill="#fff"/>
      <path id="Path_6" data-name="Path 6" d="M184.674,125.176a1.05,1.05,0,0,1,1.123-.98,8.741,8.741,0,0,1,8.15,8.158,1.054,1.054,0,0,1-.981,1.122l-.071,0a1.054,1.054,0,0,1-1.051-.984,6.633,6.633,0,0,0-6.189-6.2,1.055,1.055,0,0,1-.981-1.123Z" transform="translate(-164.948 -119.065)" fill="#fff"/>
      <path id="Path_7" data-name="Path 7" d="M253.46,193.955l-.069,0a1.054,1.054,0,0,1-1.051-.986,1.983,1.983,0,0,0-1.88-1.879,1.054,1.054,0,0,1,.147-2.1,4.09,4.09,0,0,1,3.836,3.845,1.054,1.054,0,0,1-.983,1.121Z" transform="translate(-230.068 -179.234)" fill="#fff"/>
    </g>
  </g>
</svg>
