<svg xmlns="http://www.w3.org/2000/svg" width="12.015" height="12.015" viewBox="0 0 12.015 12.015">
  <path id="call_icon" d="M14.608,14.965a.656.656,0,0,0,.657-.657h0V11.953a.656.656,0,0,0-.657-.657,7.173,7.173,0,0,1-2.371-.368.546.546,0,0,0-.368-.032.619.619,0,0,0-.32.192h0l-1.474,1.474A10.51,10.51,0,0,1,5.653,8.14h0L7.127,6.667a.534.534,0,0,0,.176-.32.852.852,0,0,0-.016-.368,7.173,7.173,0,0,1-.368-2.371.656.656,0,0,0-.657-.657H3.907a.656.656,0,0,0-.657.657,11.4,11.4,0,0,0,6.937,10.461A11.208,11.208,0,0,0,14.608,14.965Z" transform="translate(-3.25 -2.95)" fill="#1973e8"/>
</svg>
