<svg xmlns="http://www.w3.org/2000/svg" width="28" height="28" viewBox="0 0 28 28">
  <g id="call_free" transform="translate(0.345 0.535)">
    <rect id="Rectangle_10892" data-name="Rectangle 10892" width="28" height="28" transform="translate(-0.345 -0.535)" fill="none"/>
    <path id="phone-call" d="M21.025,15.238a2.822,2.822,0,0,1,0,3.985l-.828.955C12.742,27.316-5.4,9.178,1.627,1.7L2.673.788A2.8,2.8,0,0,1,6.612.825C6.64.853,8.327,3.044,8.327,3.044a2.822,2.822,0,0,1-.006,3.9L7.267,8.267a11.635,11.635,0,0,0,6.309,6.322l1.334-1.061a2.822,2.822,0,0,1,3.9-.005S21,15.209,21.025,15.238Zm-1.253,1.324s-2.178-1.676-2.207-1.7a1,1,0,0,0-1.41,0c-.025.025-1.861,1.488-1.861,1.488a.91.91,0,0,1-.891.138A13.663,13.663,0,0,1,5.373,8.47a.91.91,0,0,1,.132-.91S6.969,5.718,6.994,5.7a1,1,0,0,0,0-1.41c-.028-.027-1.7-2.208-1.7-2.208a1,1,0,0,0-1.375.036l-1.047.91c-5.136,6.176,10.586,21.026,16,15.911l.829-.956a1.02,1.02,0,0,0,.077-1.417Z" transform="translate(0.012 2.715)" fill="#747474"/>
    <path id="Combined-Shape" d="M15.818,0a.813.813,0,0,1,.833.793v5.55a.813.813,0,0,1-.833.793H.833A.813.813,0,0,1,0,6.343V.793A.813.813,0,0,1,.833,0ZM5.127,1.772H2.815V5.154h.732V3.772h1.4V3.209h-1.4V2.336h1.58Zm1.744,0H5.551V5.154h.732V3.916h.583l.666,1.238h.785V5.121L7.549,3.739a1.064,1.064,0,0,0,.477-.368,1,1,0,0,0,.157-.577.9.9,0,0,0-.341-.755,1.46,1.46,0,0,0-.859-.265Zm4.244,0H8.739V5.154h2.38v-.56H9.471V3.688h1.4V3.142h-1.4V2.336h1.644Zm2.81,0H11.549V5.154h2.38v-.56H12.28V3.688h1.4V3.142h-1.4V2.336h1.644Zm-7.054.564a.612.612,0,0,1,.438.137.5.5,0,0,1,.143.376.466.466,0,0,1-.151.368.624.624,0,0,1-.427.134h-.59V2.336Z" transform="translate(10.608 1.714)" fill="#1973e8" fill-rule="evenodd"/>
  </g>
</svg>
