<svg xmlns="http://www.w3.org/2000/svg" width="30" height="30" viewBox="0 0 30 30">
  <g id="call" transform="translate(-503 -1463)">
    <rect id="Rectangle_10892" data-name="Rectangle 10892" width="30" height="30" transform="translate(503 1463)" fill="none"/>
    <g id="Group_12035" data-name="Group 12035" transform="translate(503.229 1463.419)">
      <path id="phone-call" d="M22.7,16.453a3.047,3.047,0,0,1,0,4.3L21.8,21.787C13.755,29.495-5.835,9.91,1.753,1.834L2.884.851A3.028,3.028,0,0,1,7.137.891c.03.03,1.852,2.4,1.852,2.4A3.047,3.047,0,0,1,8.982,7.5L7.843,8.927a12.563,12.563,0,0,0,6.813,6.826l1.44-1.145A3.047,3.047,0,0,1,20.3,14.6S22.669,16.423,22.7,16.453Zm-1.353,1.429s-2.352-1.81-2.383-1.84a1.081,1.081,0,0,0-1.523,0c-.027.028-2.009,1.607-2.009,1.607a.983.983,0,0,1-.962.149A14.753,14.753,0,0,1,5.8,9.141a.983.983,0,0,1,.143-.983s1.58-1.984,1.606-2.009a1.081,1.081,0,0,0,0-1.523c-.03-.029-1.84-2.384-1.84-2.384a1.081,1.081,0,0,0-1.484.038l-1.13.983c-5.546,6.668,11.43,22.7,17.274,17.181l.9-1.032a1.1,1.1,0,0,0,.084-1.53Z" transform="translate(2.937 2.975)" fill="#93959f"/>
      <path id="phone-call-2" data-name="phone-call" d="M11.838.983A.983.983,0,0,1,12.821,0,9.84,9.84,0,0,1,22.65,9.829a.983.983,0,1,1-1.966,0,7.872,7.872,0,0,0-7.863-7.863.983.983,0,0,1-.983-.983ZM12.821,5.9a3.932,3.932,0,0,1,3.932,3.932.983.983,0,1,0,1.966,0,5.9,5.9,0,0,0-5.9-5.9.983.983,0,0,0,0,1.966Z" transform="translate(3.878 2.975)" fill="#fb641b"/>
    </g>
  </g>
</svg>
