<svg id="call_icon" xmlns="http://www.w3.org/2000/svg" width="16" height="16" viewBox="0 0 16 16">
  <rect id="Rectangle" width="16" height="16" fill="#472dc2" opacity="0"/>
  <path id="_" data-name="юбн" d="M13.434,13.722a.588.588,0,0,0,.589-.589h0V11.022a.588.588,0,0,0-.589-.589,6.432,6.432,0,0,1-2.126-.33.49.49,0,0,0-.33-.029.555.555,0,0,0-.287.172h0L9.369,11.568A9.424,9.424,0,0,1,5.4,7.6h0L6.726,6.282A.479.479,0,0,0,6.884,6a.764.764,0,0,0-.014-.33,6.432,6.432,0,0,1-.33-2.126A.588.588,0,0,0,5.95,2.95H3.839a.588.588,0,0,0-.589.589,10.219,10.219,0,0,0,6.219,9.379A10.049,10.049,0,0,0,13.434,13.722Z" transform="translate(-0.469 -0.636)" fill="#472dc2"/>
</svg>
