<svg xmlns="http://www.w3.org/2000/svg" width="30" height="30" viewBox="0 0 30 30">
  <g id="category" transform="translate(-503 -1463)">
    <rect id="Rectangle_10892" data-name="Rectangle 10892" width="30" height="30" transform="translate(503 1463)" fill="none"/>
    <g id="apps-sort" transform="translate(506.023 1466.023)">
      <path id="Union_1" data-name="Union 1" d="M-9151.03-295.07a3.992,3.992,0,0,1-3.993-3.991v-2.994a3.993,3.993,0,0,1,3.993-3.993h2.994a3.992,3.992,0,0,1,3.99,3.993v2.994a3.991,3.991,0,0,1-3.99,3.991Zm-2-6.985v2.994a2,2,0,0,0,2,2h2.994a2,2,0,0,0,2-2v-2.994a2,2,0,0,0-2-2h-2.994A2,2,0,0,0-9153.031-302.055Zm14.976-5.99a3.992,3.992,0,0,1-3.993-3.991v-3a3.992,3.992,0,0,1,3.993-3.991h2.994a3.991,3.991,0,0,1,3.99,3.991v3a3.991,3.991,0,0,1-3.99,3.991Zm-2-6.987v3a2,2,0,0,0,2,2h2.994a2,2,0,0,0,2-2v-3a2,2,0,0,0-2-2h-2.994A2,2,0,0,0-9140.057-315.032Zm-10.974,6.987a3.992,3.992,0,0,1-3.993-3.991v-3a3.992,3.992,0,0,1,3.993-3.991h2.994a3.991,3.991,0,0,1,3.99,3.991v3a3.991,3.991,0,0,1-3.99,3.991Zm-2-6.987v3a2,2,0,0,0,2,2h2.994a2,2,0,0,0,2-2v-3a2,2,0,0,0-2-2h-2.994A2,2,0,0,0-9153.031-315.032Z" transform="translate(9155.023 319.023)" fill="#747474"/>
      <path id="Path_3717" data-name="Path 3717" d="M6.986,13H3.992A3.992,3.992,0,0,0,0,16.992v2.994a3.992,3.992,0,0,0,3.992,3.992H6.986a3.992,3.992,0,0,0,3.992-3.992V16.992A3.992,3.992,0,0,0,6.986,13Zm2,6.986a2,2,0,0,1-2,2H3.992a2,2,0,0,1-2-2V16.992a2,2,0,0,1,2-2H6.986a2,2,0,0,1,2,2Z" transform="translate(12.975 -0.025)" fill="#1973e8"/>
    </g>
  </g>
</svg>
