<?xml version="1.0" encoding="UTF-8"?>
<svg width="20px" height="20px" viewBox="0 0 20 20" version="1.1" xmlns="http://www.w3.org/2000/svg" xmlns:xlink="http://www.w3.org/1999/xlink">
    <!-- Generator: Sketch 53.2 (72643) - https://sketchapp.com -->
    <title>categories_20</title>
    <desc>Created with Sketch.</desc>
    <g id="Page-1" stroke="none" stroke-width="1" fill="none" fill-rule="evenodd">
        <g id="Artboard" transform="translate(-79.000000, -238.000000)">
            <g id="outline-apps-24px" transform="translate(79.000000, 238.000000)">
                <polygon id="Path" points="0 0 20 0 20 20 0 20"></polygon>
                <path d="M3.33333333,6.66666667 L6.66666667,6.66666667 L6.66666667,3.33333333 L3.33333333,3.33333333 L3.33333333,6.66666667 Z M8.33333333,16.6666667 L11.6666667,16.6666667 L11.6666667,13.3333333 L8.33333333,13.3333333 L8.33333333,16.6666667 Z M3.33333333,16.6666667 L6.66666667,16.6666667 L6.66666667,13.3333333 L3.33333333,13.3333333 L3.33333333,16.6666667 Z M3.33333333,11.6666667 L6.66666667,11.6666667 L6.66666667,8.33333333 L3.33333333,8.33333333 L3.33333333,11.6666667 Z M8.33333333,11.6666667 L11.6666667,11.6666667 L11.6666667,8.33333333 L8.33333333,8.33333333 L8.33333333,11.6666667 Z M13.3333333,3.33333333 L13.3333333,6.66666667 L16.6666667,6.66666667 L16.6666667,3.33333333 L13.3333333,3.33333333 Z M8.33333333,6.66666667 L11.6666667,6.66666667 L11.6666667,3.33333333 L8.33333333,3.33333333 L8.33333333,6.66666667 Z M13.3333333,11.6666667 L16.6666667,11.6666667 L16.6666667,8.33333333 L13.3333333,8.33333333 L13.3333333,11.6666667 Z M13.3333333,16.6666667 L16.6666667,16.6666667 L16.6666667,13.3333333 L13.3333333,13.3333333 L13.3333333,16.6666667 Z" id="Shape" fill="#24272C" fill-rule="nonzero"></path>
            </g>
        </g>
    </g>
</svg>