<svg id="ch-1" xmlns="http://www.w3.org/2000/svg" width="8.64" height="8.64" viewBox="0 0 8.64 8.64">
  <g id="Group_10557" data-name="Group 10557" transform="translate(2.008 2.743)">
    <g id="Group_10556" data-name="Group 10556">
      <path id="Path_15970" data-name="Path 15970" d="M127.694,165.476a.361.361,0,0,0-.511-.013l-2.306,2.187-1.1-1.129a.361.361,0,1,0-.517.5l1.348,1.384a.361.361,0,0,0,.507.01l2.564-2.432A.361.361,0,0,0,127.694,165.476Z" transform="translate(-123.158 -165.364)" fill="#333"/>
    </g>
  </g>
  <g id="Group_10559" data-name="Group 10559" transform="translate(0 0)">
    <g id="Group_10558" data-name="Group 10558">
      <path id="Path_15971" data-name="Path 15971" d="M4.32,0A4.32,4.32,0,1,0,8.64,4.32,4.325,4.325,0,0,0,4.32,0Zm0,7.939A3.619,3.619,0,1,1,7.939,4.32,3.624,3.624,0,0,1,4.32,7.939Z" fill="#333"/>
    </g>
  </g>
</svg>
