<svg xmlns="http://www.w3.org/2000/svg" width="50" height="50" viewBox="0 0 50 50">
  <g id="close_deals_icon" transform="translate(-35 -37)">
    <circle id="Ellipse_1" data-name="Ellipse 1" cx="25" cy="25" r="25" transform="translate(35 37)" fill="#627ce1"/>
    <g id="noun-deal-3696513" transform="translate(-109.45 -105.248)">
      <path id="Path_16055" data-name="Path 16055" d="M220.959,158.026a21.855,21.855,0,0,1-3.664,1.285V170.52c0,.058-.017.1-.017.149l2.877,3.059a12.6,12.6,0,0,0,3.548,2.645l3.614,1.816a.566.566,0,0,0,.63-.075.572.572,0,0,0-.1-.928l-1.724-.986a.7.7,0,0,1-.265-.953.705.705,0,0,1,.962-.265l1.186.68,3.805,1.84a.674.674,0,0,0,.8-.166.658.658,0,0,0-.158-1l-4.186-2.5a.7.7,0,0,1-.249-.962.712.712,0,0,1,.962-.249l2.545,1.517,2.645,1.136a1.2,1.2,0,0,0,1.5-.464,1.239,1.239,0,0,0,.149-.92,1.2,1.2,0,0,0-.539-.746l-.638-.39-1.393-.846-2.5-1.517a.694.694,0,0,1-.232-.962.7.7,0,0,1,.962-.24l3.366,2.039,1.161.713h.008l1.89,1.152a1.3,1.3,0,0,0,1.683-.282,1.275,1.275,0,0,0,.29-1.02,1.321,1.321,0,0,0-.572-.9l-11.324-7.5a9.271,9.271,0,0,1-7.022.622,3.38,3.38,0,0,1-2.47-3.25.7.7,0,0,1,.431-.647c.307-.133,7.693-3.225,11.913-3.225.24,0,.481.025.721.025a11.725,11.725,0,0,0-4.469-.671c-1.766-.017-4.079.936-6.126,1.782Z" transform="translate(-59.617 0)" fill="#fff"/>
      <path id="Path_16056" data-name="Path 16056" d="M248.625,183.461a7.794,7.794,0,0,0,6.292-.7.722.722,0,0,1,.763.017l11.689,7.743a2.709,2.709,0,0,1,.779.788v-9.965a25.575,25.575,0,0,1-2.728-.738,26.511,26.511,0,0,0-7.3-1.509c-3.349,0-9.169,2.23-10.885,2.918a2.006,2.006,0,0,0,1.393,1.443Z" transform="translate(-86.91 -20.826)" fill="#fff"/>
      <path id="Path_16057" data-name="Path 16057" d="M502.344,195.62h-3.109a.648.648,0,0,0-.647.647v10.346a.648.648,0,0,0,.647.647h3.109a.648.648,0,0,0,.647-.647V196.267A.648.648,0,0,0,502.344,195.62Z" transform="translate(-315.941 -35.879)" fill="#fff"/>
      <path id="Path_16058" data-name="Path 16058" d="M156.269,193.922V183.576a.648.648,0,0,0-.647-.647H152.5a.648.648,0,0,0-.647.647v10.338a.648.648,0,0,0,.647.647h3.117a.638.638,0,0,0,.655-.639Z" transform="translate(0 -24.315)" fill="#fff"/>
    </g>
  </g>
</svg>
