<svg xmlns="http://www.w3.org/2000/svg" xmlns:xlink="http://www.w3.org/1999/xlink" width="30" height="30" viewBox="0 0 30 30">
  <defs>
    <clipPath id="clip-path">
      <rect id="Rectangle_23" data-name="Rectangle 23" width="24" height="24" transform="translate(212 12)" fill="#24272c"/>
    </clipPath>
  </defs>
  <g id="community" transform="translate(-209 -9)">
    <rect id="Rectangle_22" data-name="Rectangle 22" width="30" height="30" transform="translate(209 9)" fill="none"/>
    <g id="Mask_Group_5" data-name="Mask Group 5" clip-path="url(#clip-path)">
      <path id="groups_FILL1_wght400_GRAD0_opsz24" d="M0,18V16.425a1.993,1.993,0,0,1,1.113-1.763A5.59,5.59,0,0,1,4,14q.325,0,.625.012a4.238,4.238,0,0,1,.575.063,3.787,3.787,0,0,0-.525,1.075A4.186,4.186,0,0,0,4.5,16.375V18Zm6,0V16.375A2.985,2.985,0,0,1,7.663,13.75a8.332,8.332,0,0,1,4.337-1,8.321,8.321,0,0,1,4.35,1A2.988,2.988,0,0,1,18,16.375V18Zm13.5,0V16.375a4.473,4.473,0,0,0-.163-1.225,3.9,3.9,0,0,0-.487-1.075,4.2,4.2,0,0,1,.563-.063Q19.7,14,20,14a5.579,5.579,0,0,1,2.9.662A2,2,0,0,1,24,16.425V18ZM4,13a1.923,1.923,0,0,1-1.412-.588,2,2,0,0,1,0-2.837A1.945,1.945,0,0,1,4,9a2.006,2.006,0,0,1,1.425,3.412A1.913,1.913,0,0,1,4,13Zm16,0a2.006,2.006,0,0,1-2-2,1.915,1.915,0,0,1,.587-1.425,2.006,2.006,0,0,1,2.838,2.837A1.913,1.913,0,0,1,20,13Zm-8-1A2.988,2.988,0,0,1,9,9a2.883,2.883,0,0,1,.875-2.138A2.915,2.915,0,0,1,12,6a2.946,2.946,0,0,1,3,3,2.914,2.914,0,0,1-.863,2.125A2.88,2.88,0,0,1,12,12Z" transform="translate(212 12)" fill="#24272c"/>
    </g>
  </g>
</svg>
