<?xml version="1.0" encoding="UTF-8"?>
<svg width="20px" height="20px" viewBox="0 0 20 20" version="1.1" xmlns="http://www.w3.org/2000/svg" xmlns:xlink="http://www.w3.org/1999/xlink">
    <!-- Generator: Sketch 53.2 (72643) - https://sketchapp.com -->
    <title>compare_20</title>
    <desc>Created with Sketch.</desc>
    <g id="Page-1" stroke="none" stroke-width="1" fill="none" fill-rule="evenodd">
        <g id="Artboard" transform="translate(-79.000000, -462.000000)">
            <g id="outline-compare-24px" transform="translate(79.000000, 462.000000)">
                <polygon id="Path" points="0 0 20 0 20 20 0 20"></polygon>
                <path d="M8.33333333,2.5 L4.16666667,2.5 C3.25,2.5 2.5,3.25 2.5,4.16666667 L2.5,15.8333333 C2.5,16.75 3.25,17.5 4.16666667,17.5 L8.33333333,17.5 L8.33333333,19.1666667 L10,19.1666667 L10,0.833333333 L8.33333333,0.833333333 L8.33333333,2.5 Z M8.33333333,15 L4.16666667,15 L8.33333333,10 L8.33333333,15 Z M15.8333333,2.5 L11.6666667,2.5 L11.6666667,4.16666667 L15.8333333,4.16666667 L15.8333333,15 L11.6666667,10 L11.6666667,17.5 L15.8333333,17.5 C16.75,17.5 17.5,16.75 17.5,15.8333333 L17.5,4.16666667 C17.5,3.25 16.75,2.5 15.8333333,2.5 Z" id="Shape" fill="#24272C" fill-rule="nonzero"></path>
            </g>
        </g>
    </g>
</svg>