<svg xmlns="http://www.w3.org/2000/svg" width="30" height="30" viewBox="0 0 30 30">
  <g id="icon_Customer_Support:" transform="translate(-49 -9)">
    <rect id="Rectangle_2" data-name="Rectangle 2" width="30" height="30" transform="translate(49 9)" fill="none"/>
    <g id="call-center-agent" transform="translate(12.229 11.175)">
      <path id="Path_17518" data-name="Path 17518" d="M76.51,337.148a8.75,8.75,0,0,1-11.482,0,9.806,9.806,0,0,0-2.1,2.074A9.688,9.688,0,0,0,61,345.056v.1a.751.751,0,0,0,.751.751H79.786a.751.751,0,0,0,.751-.751v-.1a9.687,9.687,0,0,0-1.932-5.833A9.807,9.807,0,0,0,76.51,337.148Z" transform="translate(-18.998 -320.258)" fill="#24272c"/>
      <path id="Path_17519" data-name="Path 17519" d="M119.617,70.985a.765.765,0,0,1,.772-.715h4.487a7.287,7.287,0,1,0-.921,1.5h-3.587A.751.751,0,0,1,119.617,70.985Z" transform="translate(-66.493 -56.994)" fill="#24272c"/>
      <path id="Path_17520" data-name="Path 17520" d="M61.79,7.264h-.2a10.334,10.334,0,0,0-3.428-5.031,10.27,10.27,0,0,0-12.786,0,10.334,10.334,0,0,0-3.428,5.031h-.2A.751.751,0,0,0,41,8.015v3.006a.751.751,0,0,0,.751.751H43v-1.5a8.725,8.725,0,0,1,.531-3.006h0a8.771,8.771,0,0,1,16.477,0h0a8.726,8.726,0,0,1,.531,3.006v3.006H58.383l-.921,1.5h3.827a.751.751,0,0,0,.751-.751v-2.3a.751.751,0,0,0,.5-.708V8.015a.751.751,0,0,0-.751-.751Z" transform="translate(0 0)" fill="#24272c"/>
    </g>
  </g>
</svg>
