<?xml version="1.0" encoding="UTF-8"?>
<svg width="298px" height="68px" viewBox="0 0 298 68" version="1.1" xmlns="http://www.w3.org/2000/svg" xmlns:xlink="http://www.w3.org/1999/xlink">
    <!-- Generator: Sketch 53.2 (72643) - https://sketchapp.com -->
    <title>dark_asset</title>
    <desc>Created with Sketch.</desc>
    <g id="Page-1" stroke="none" stroke-width="1" fill="none" fill-rule="evenodd">
        <g id="dark_asset-copy" transform="translate(-34.000000, -22.000000)" fill-rule="nonzero">
            <g id="tj-ems" transform="translate(36.000000, 24.000000)">
                <g id="tj-logo-04" transform="translate(2.000000, 8.000000)">
                    <path d="M29.924507,27.7426471 L28.4579577,26.3014706 L26.8706338,24.7269853 C26.3670489,24.2330641 25.6134062,24.1409188 25.0141549,24.5 C24.9177817,24.5579147 24.8295302,24.6294483 24.7519014,24.7125735 C24.68453,24.7726467 24.6263466,24.843117 24.5793662,24.9215441 C24.1906979,25.4821033 24.238502,26.2519749 24.6932394,26.7554412 L24.7519014,26.8166912 L27.8057746,29.8467647 C28.4023357,30.4279662 29.327946,30.4279662 29.924507,29.8467647 C30.2032554,29.574279 30.3614392,29.1933991 30.3614392,28.7947059 C30.3614392,28.3960127 30.2032554,28.0151328 29.924507,27.7426471 Z M29.924507,27.7426471 L28.4579577,26.3014706 L26.8706338,24.7269853 C26.3670489,24.2330641 25.6134062,24.1409188 25.0141549,24.5 C24.9177817,24.5579147 24.8295302,24.6294483 24.7519014,24.7125735 C24.68453,24.7726467 24.6263466,24.843117 24.5793662,24.9215441 C24.1906979,25.4821033 24.238502,26.2519749 24.6932394,26.7554412 L24.7519014,26.8166912 L27.8057746,29.8467647 C28.4023357,30.4279662 29.327946,30.4279662 29.924507,29.8467647 C30.2032554,29.574279 30.3614392,29.1933991 30.3614392,28.7947059 C30.3614392,28.3960127 30.2032554,28.0151328 29.924507,27.7426471 Z M29.924507,27.7426471 L28.4579577,26.3014706 L26.8706338,24.7269853 C26.3670489,24.2330641 25.6134062,24.1409188 25.0141549,24.5 C24.9177817,24.5579147 24.8295302,24.6294483 24.7519014,24.7125735 C24.68453,24.7726467 24.6263466,24.843117 24.5793662,24.9215441 C24.1906979,25.4821033 24.238502,26.2519749 24.6932394,26.7554412 L24.7519014,26.8166912 L27.8057746,29.8467647 C28.4023357,30.4279662 29.327946,30.4279662 29.924507,29.8467647 C30.2032554,29.574279 30.3614392,29.1933991 30.3614392,28.7947059 C30.3614392,28.3960127 30.2032554,28.0151328 29.924507,27.7426471 Z M29.924507,27.7426471 L28.4579577,26.3014706 L26.8706338,24.7269853 C26.3670489,24.2330641 25.6134062,24.1409188 25.0141549,24.5 C24.9177817,24.5579147 24.8295302,24.6294483 24.7519014,24.7125735 C24.68453,24.7726467 24.6263466,24.843117 24.5793662,24.9215441 C24.1906979,25.4821033 24.238502,26.2519749 24.6932394,26.7554412 L24.7519014,26.8166912 L27.8057746,29.8467647 C28.4023357,30.4279662 29.327946,30.4279662 29.924507,29.8467647 C30.2032554,29.574279 30.3614392,29.1933991 30.3614392,28.7947059 C30.3614392,28.3960127 30.2032554,28.0151328 29.924507,27.7426471 Z M29.924507,27.7426471 L28.4579577,26.3014706 L26.8706338,24.7269853 C26.3670489,24.2330641 25.6134062,24.1409188 25.0141549,24.5 C24.9177817,24.5579147 24.8295302,24.6294483 24.7519014,24.7125735 C24.68453,24.7726467 24.6263466,24.843117 24.5793662,24.9215441 C24.1906979,25.4821033 24.238502,26.2519749 24.6932394,26.7554412 L24.7519014,26.8166912 L27.8057746,29.8467647 C28.4023357,30.4279662 29.327946,30.4279662 29.924507,29.8467647 C30.2032554,29.574279 30.3614392,29.1933991 30.3614392,28.7947059 C30.3614392,28.3960127 30.2032554,28.0151328 29.924507,27.7426471 Z M43.5375352,34.1054412 C43.1359723,34.8909905 42.6852534,35.6480483 42.1883099,36.3716912 C42.1921509,36.3808805 42.1921509,36.3913254 42.1883099,36.4005147 L42.1883099,36.4005147 C41.8398942,36.9777932 41.2654611,37.3653405 40.6182394,37.4597794 C40.0996531,37.5164184 39.5834679,37.331934 39.2069014,36.9553676 L35.1730282,32.9308824 C36.7827528,31.212011 37.6897115,28.9072396 37.7023944,26.5032353 C37.7014353,23.9463978 36.681257,21.5053462 34.8866197,19.7657353 L33.2889437,18.1768382 L33.2889437,18.1768382 L29.1480986,14.0838971 C27.3026386,12.2831706 24.8691877,11.2846275 22.3433099,11.2916176 C19.8196866,11.2743342 17.387025,12.2745823 15.5523239,14.0838971 L14.0340141,15.6007353 C13.3394411,16.2914 12.7495253,17.0883578 12.284507,17.9642647 L12.284507,17.9642647 C11.579818,19.3045096 11.2117974,20.8093087 11.2147887,22.3382353 C11.2203871,24.8947986 12.2412257,27.3344404 14.0340141,29.0757353 L15.5005634,30.5385294 L19.7656338,34.7719853 C21.3042872,36.2816524 23.2709241,37.2286947 25.3695775,37.4705882 C25.7670992,37.5180305 26.1668621,37.5420881 26.5669718,37.5426471 C28.9452362,37.5549843 31.2468728,36.6651549 33.0439437,35.0386029 L37.0674648,39.0594853 C37.9740369,39.951115 39.1726621,40.4473351 40.4180986,40.4466176 C40.5910924,40.4463769 40.763924,40.4355495 40.9357042,40.4141912 C42.4500325,40.2359058 43.8121648,39.3699162 44.6590141,38.0470588 L44.6590141,38.0470588 L44.6590141,38.0470588 C44.6590141,38.0470588 44.6590141,38.0470588 44.6590141,38.0182353 L44.6590141,38.0182353 C45.2017033,37.2072875 45.7005337,36.3652866 46.153169,35.4961765 L43.5375352,34.1054412 Z M34.113662,29.2342647 C33.7761381,29.9576591 33.3167873,30.6117922 32.7575352,31.1654412 L31.2392254,32.6750735 C29.6082838,34.2379499 27.3613061,34.8950745 25.1901408,34.4441176 C23.9525296,34.1916934 22.8087379,33.578327 21.8912676,32.6750735 L17.9919718,28.8235294 L16.1527465,26.9968382 C14.912846,25.7939556 14.2099338,24.1054103 14.2134507,22.3382353 C14.2099219,21.2899654 14.4629199,20.2581305 14.9484507,19.3405882 C14.9484507,19.3405882 14.9484507,19.3405882 14.9484507,19.3405882 C15.2651054,18.7347186 15.6702472,18.1840688 16.1492958,17.7084559 L17.6710563,16.2132353 C19.3499369,14.5812326 21.6978667,13.9311892 23.9306338,14.4802206 C25.097832,14.7513875 26.1717811,15.3506756 27.0362676,16.2132353 L30.7940845,19.9386765 L32.7747887,21.9022794 C34.7183301,23.7785879 35.2677509,26.7563649 34.1309155,29.2522794 L34.113662,29.2342647 Z M28.4579577,26.3014706 L26.8706338,24.7269853 C26.3670489,24.2330641 25.6134062,24.1409188 25.0141549,24.5 C24.9177817,24.5579147 24.8295302,24.6294483 24.7519014,24.7125735 C24.68453,24.7726467 24.6263466,24.843117 24.5793662,24.9215441 C24.1906979,25.4821033 24.238502,26.2519749 24.6932394,26.7554412 L24.7519014,26.8166912 L27.8057746,29.8467647 C28.4023357,30.4279662 29.327946,30.4279662 29.924507,29.8467647 C30.2021391,29.5743745 30.3595996,29.1942851 30.3595996,28.7965074 C30.3595996,28.3987296 30.2021391,28.0186402 29.924507,27.74625 L28.4579577,26.3014706 Z M29.924507,27.7426471 L28.4579577,26.3014706 L26.8706338,24.7269853 C26.3670489,24.2330641 25.6134062,24.1409188 25.0141549,24.5 C24.9177817,24.5579147 24.8295302,24.6294483 24.7519014,24.7125735 C24.68453,24.7726467 24.6263466,24.843117 24.5793662,24.9215441 C24.1906979,25.4821033 24.238502,26.2519749 24.6932394,26.7554412 L24.7519014,26.8166912 L27.8057746,29.8467647 C28.4023357,30.4279662 29.327946,30.4279662 29.924507,29.8467647 C30.2032554,29.574279 30.3614392,29.1933991 30.3614392,28.7947059 C30.3614392,28.3960127 30.2032554,28.0151328 29.924507,27.7426471 Z M29.924507,27.7426471 L28.4579577,26.3014706 L26.8706338,24.7269853 C26.3670489,24.2330641 25.6134062,24.1409188 25.0141549,24.5 C24.9177817,24.5579147 24.8295302,24.6294483 24.7519014,24.7125735 C24.68453,24.7726467 24.6263466,24.843117 24.5793662,24.9215441 C24.1906979,25.4821033 24.238502,26.2519749 24.6932394,26.7554412 L24.7519014,26.8166912 L27.8057746,29.8467647 C28.4023357,30.4279662 29.327946,30.4279662 29.924507,29.8467647 C30.2032554,29.574279 30.3614392,29.1933991 30.3614392,28.7947059 C30.3614392,28.3960127 30.2032554,28.0151328 29.924507,27.7426471 Z M29.924507,27.7426471 L28.4579577,26.3014706 L26.8706338,24.7269853 C26.3670489,24.2330641 25.6134062,24.1409188 25.0141549,24.5 C24.9177817,24.5579147 24.8295302,24.6294483 24.7519014,24.7125735 C24.68453,24.7726467 24.6263466,24.843117 24.5793662,24.9215441 C24.1906979,25.4821033 24.238502,26.2519749 24.6932394,26.7554412 L24.7519014,26.8166912 L27.8057746,29.8467647 C28.4023357,30.4279662 29.327946,30.4279662 29.924507,29.8467647 C30.2032554,29.574279 30.3614392,29.1933991 30.3614392,28.7947059 C30.3614392,28.3960127 30.2032554,28.0151328 29.924507,27.7426471 Z M29.924507,27.7426471 L28.4579577,26.3014706 L26.8706338,24.7269853 C26.3670489,24.2330641 25.6134062,24.1409188 25.0141549,24.5 C24.9177817,24.5579147 24.8295302,24.6294483 24.7519014,24.7125735 C24.68453,24.7726467 24.6263466,24.843117 24.5793662,24.9215441 C24.1906979,25.4821033 24.238502,26.2519749 24.6932394,26.7554412 L24.7519014,26.8166912 L27.8057746,29.8467647 C28.4023357,30.4279662 29.327946,30.4279662 29.924507,29.8467647 C30.2032554,29.574279 30.3614392,29.1933991 30.3614392,28.7947059 C30.3614392,28.3960127 30.2032554,28.0151328 29.924507,27.7426471 Z M29.924507,27.7426471 L28.4579577,26.3014706 L26.8706338,24.7269853 C26.3670489,24.2330641 25.6134062,24.1409188 25.0141549,24.5 C24.9177817,24.5579147 24.8295302,24.6294483 24.7519014,24.7125735 C24.68453,24.7726467 24.6263466,24.843117 24.5793662,24.9215441 C24.1906979,25.4821033 24.238502,26.2519749 24.6932394,26.7554412 L24.7519014,26.8166912 L27.8057746,29.8467647 C28.4023357,30.4279662 29.327946,30.4279662 29.924507,29.8467647 C30.2032554,29.574279 30.3614392,29.1933991 30.3614392,28.7947059 C30.3614392,28.3960127 30.2032554,28.0151328 29.924507,27.7426471 Z" id="Shape" fill="#F4A86F"></path>
                    <path d="M46.1945775,35.4997794 L43.5375352,34.11625 C45.7234843,29.9457538 46.4251507,25.1020229 45.5182394,20.4430882 C44.9449961,17.4370469 43.7301448,14.6045909 41.9640141,12.1563235 L44.4278169,10.4557353 C46.4191981,13.2424081 47.7944819,16.4551644 48.4547887,19.8630147 C49.5026749,25.190162 48.7015158,30.7328013 46.1945775,35.4997794 L46.1945775,35.4997794 Z" id="Path" fill="#F2796E"></path>
                    <path d="M44.4278169,10.4701471 L41.9640141,12.1707353 C37.7817606,6.30514706 30.7319718,2.76705882 23.2439437,3.19220588 L23.0576056,0.234191176 C31.6153521,-0.263014706 39.655493,3.76867647 44.4278169,10.4701471 Z" id="Path" fill="#6186BD"></path>
                    <path d="M23.2439437,3.19220588 C22.2993468,3.25397604 21.3590988,3.37428603 20.428169,3.5525 C14.1423586,4.6872169 8.67314355,8.70043218 5.52112676,14.4910294 L2.86753521,13.1291176 C6.45363434,6.50700094 12.699119,1.91715468 19.879507,0.626911765 C20.9321066,0.425500422 21.9959288,0.294327777 23.064507,0.234191176 L23.2439437,3.19220588 Z" id="Path" fill="#D57FB3"></path>
                    <path d="M6.85309859,36.5626471 L4.40309859,38.2704412 C2.45026418,35.5130158 1.10252415,32.3406674 0.455492958,28.9784559 C-0.587230912,23.5627032 0.270098537,17.9360285 2.87098592,13.1255147 L5.52112676,14.4910294 C3.23439656,18.7198037 2.48112906,23.6664404 3.39894366,28.4272059 C3.96431328,31.3709165 5.14362625,34.148508 6.85309859,36.5626471 L6.85309859,36.5626471 Z" id="Path" fill="#00A9DA"></path>
                    <path d="M25.9527465,47.1985294 C25.9438613,47.6076334 25.7774138,47.9957274 25.4910292,48.2750832 C25.2046446,48.554439 24.8225026,48.7014705 24.4309859,48.6829412 C16.2459155,48.6829412 8.85450704,44.6296324 4.41690141,38.28125 L6.86690141,36.5734559 C10.9993297,42.3577419 17.5197425,45.7457305 24.4309859,45.6997059 L24.4551408,45.6997059 C24.8443804,45.6900478 25.2212534,45.8427771 25.5023321,46.1240844 C25.7834108,46.4053917 25.9455102,46.792073 25.9527465,47.1985294 Z" id="Path" fill="#D5E27E"></path>
                </g>
                <polygon id="Line" fill="#FFFFFF" points="62 8 66 8 66 57 62 57"></polygon>
                <g id="Group" transform="translate(75.000000, 0.000000)" fill="#FFFFFF">
                    <path d="M23.616,57 L19.424,57 C18.9546643,57 18.5680015,56.8906678 18.264,56.672 C17.9599985,56.4533322 17.7493339,56.173335 17.632,55.832 L16.256,51.768 L7.392,51.768 L6.016,55.832 C5.9093328,56.1306682 5.70133488,56.3999988 5.392,56.64 C5.08266512,56.8800012 4.70400224,57 4.256,57 L0.032,57 L9.056,33.688 L14.592,33.688 L23.616,57 Z M8.64,48.088 L15.008,48.088 L12.864,41.704 C12.7253326,41.2986646 12.5626676,40.8213361 12.376,40.272 C12.1893324,39.7226639 12.0053342,39.1280032 11.824,38.488 C11.6533325,39.1386699 11.4773342,39.7413306 11.296,40.296 C11.1146658,40.8506694 10.9440008,41.3306646 10.784,41.736 L8.64,48.088 Z M35.648,44.04 C35.5199994,44.2426677 35.3840007,44.3866662 35.24,44.472 C35.0959993,44.5573338 34.9120011,44.6 34.688,44.6 C34.4533322,44.6 34.2186678,44.5493338 33.984,44.448 C33.7493322,44.3466662 33.4960014,44.2373339 33.224,44.12 C32.9519986,44.0026661 32.645335,43.8933338 32.304,43.792 C31.962665,43.6906662 31.5733355,43.64 31.136,43.64 C30.5066635,43.64 30.0240017,43.7599988 29.688,44 C29.3519983,44.2400012 29.184,44.5733312 29.184,45 C29.184,45.3093349 29.2933322,45.5653323 29.512,45.768 C29.7306678,45.9706677 30.0213315,46.1493326 30.384,46.304 C30.7466685,46.4586674 31.157331,46.6053326 31.616,46.744 C32.074669,46.8826674 32.5439976,47.0373325 33.024,47.208 C33.5040024,47.3786675 33.973331,47.5786655 34.432,47.808 C34.890669,48.0373345 35.3013315,48.3199983 35.664,48.656 C36.0266685,48.9920017 36.3173322,49.3999976 36.536,49.88 C36.7546678,50.3600024 36.864,50.9359966 36.864,51.608 C36.864,52.4293374 36.7146682,53.1866632 36.416,53.88 C36.1173318,54.5733368 35.672003,55.1706642 35.08,55.672 C34.487997,56.1733358 33.7573377,56.5626653 32.888,56.84 C32.0186623,57.1173347 31.0186723,57.256 29.888,57.256 C29.3226638,57.256 28.7573362,57.2026672 28.192,57.096 C27.6266638,56.9893328 27.0800026,56.8453342 26.552,56.664 C26.0239974,56.4826658 25.5360022,56.2666679 25.088,56.016 C24.6399978,55.7653321 24.2560016,55.4960014 23.936,55.208 L25.088,53.384 C25.2266674,53.1706656 25.391999,53.0026673 25.584,52.88 C25.776001,52.7573327 26.0266651,52.696 26.336,52.696 C26.6240014,52.696 26.8826655,52.7599994 27.112,52.888 C27.3413345,53.0160006 27.589332,53.1546659 27.856,53.304 C28.122668,53.4533341 28.4346649,53.5919994 28.792,53.72 C29.1493351,53.8480006 29.5999973,53.912 30.144,53.912 C30.5280019,53.912 30.853332,53.8720004 31.12,53.792 C31.386668,53.7119996 31.5999992,53.6026674 31.76,53.464 C31.9200008,53.3253326 32.037333,53.1706675 32.112,53 C32.186667,52.8293325 32.224,52.6533342 32.224,52.472 C32.224,52.1413317 32.1120011,51.8693344 31.888,51.656 C31.6639989,51.4426656 31.3706685,51.2586674 31.008,51.104 C30.6453315,50.9493326 30.2320023,50.805334 29.768,50.672 C29.3039977,50.538666 28.8320024,50.3866675 28.352,50.216 C27.8719976,50.0453325 27.4000023,49.8400012 26.936,49.6 C26.4719977,49.3599988 26.0586685,49.0560018 25.696,48.688 C25.3333315,48.3199982 25.0400011,47.869336 24.816,47.336 C24.5919989,46.802664 24.48,46.1573371 24.48,45.4 C24.48,44.6959965 24.6159986,44.0266698 24.888,43.392 C25.1600014,42.7573302 25.5679973,42.2000024 26.112,41.72 C26.6560027,41.2399976 27.3386626,40.8586681 28.16,40.576 C28.9813374,40.2933319 29.9413278,40.152 31.04,40.152 C31.6373363,40.152 32.2159972,40.2053328 32.776,40.312 C33.3360028,40.4186672 33.8613309,40.567999 34.352,40.76 C34.8426691,40.952001 35.2906646,41.1786654 35.696,41.44 C36.1013354,41.7013346 36.4586651,41.9866651 36.768,42.296 L35.648,44.04 Z M49.728,44.04 C49.5999994,44.2426677 49.4640007,44.3866662 49.32,44.472 C49.1759993,44.5573338 48.9920011,44.6 48.768,44.6 C48.5333322,44.6 48.2986678,44.5493338 48.064,44.448 C47.8293322,44.3466662 47.5760014,44.2373339 47.304,44.12 C47.0319986,44.0026661 46.725335,43.8933338 46.384,43.792 C46.042665,43.6906662 45.6533355,43.64 45.216,43.64 C44.5866635,43.64 44.1040017,43.7599988 43.768,44 C43.4319983,44.2400012 43.264,44.5733312 43.264,45 C43.264,45.3093349 43.3733322,45.5653323 43.592,45.768 C43.8106678,45.9706677 44.1013315,46.1493326 44.464,46.304 C44.8266685,46.4586674 45.237331,46.6053326 45.696,46.744 C46.154669,46.8826674 46.6239976,47.0373325 47.104,47.208 C47.5840024,47.3786675 48.053331,47.5786655 48.512,47.808 C48.970669,48.0373345 49.3813315,48.3199983 49.744,48.656 C50.1066685,48.9920017 50.3973322,49.3999976 50.616,49.88 C50.8346678,50.3600024 50.944,50.9359966 50.944,51.608 C50.944,52.4293374 50.7946682,53.1866632 50.496,53.88 C50.1973318,54.5733368 49.752003,55.1706642 49.16,55.672 C48.567997,56.1733358 47.8373377,56.5626653 46.968,56.84 C46.0986623,57.1173347 45.0986723,57.256 43.968,57.256 C43.4026638,57.256 42.8373362,57.2026672 42.272,57.096 C41.7066638,56.9893328 41.1600026,56.8453342 40.632,56.664 C40.1039974,56.4826658 39.6160022,56.2666679 39.168,56.016 C38.7199978,55.7653321 38.3360016,55.4960014 38.016,55.208 L39.168,53.384 C39.3066674,53.1706656 39.471999,53.0026673 39.664,52.88 C39.856001,52.7573327 40.1066651,52.696 40.416,52.696 C40.7040014,52.696 40.9626655,52.7599994 41.192,52.888 C41.4213345,53.0160006 41.669332,53.1546659 41.936,53.304 C42.202668,53.4533341 42.5146649,53.5919994 42.872,53.72 C43.2293351,53.8480006 43.6799973,53.912 44.224,53.912 C44.6080019,53.912 44.933332,53.8720004 45.2,53.792 C45.466668,53.7119996 45.6799992,53.6026674 45.84,53.464 C46.0000008,53.3253326 46.117333,53.1706675 46.192,53 C46.266667,52.8293325 46.304,52.6533342 46.304,52.472 C46.304,52.1413317 46.1920011,51.8693344 45.968,51.656 C45.7439989,51.4426656 45.4506685,51.2586674 45.088,51.104 C44.7253315,50.9493326 44.3120023,50.805334 43.848,50.672 C43.3839977,50.538666 42.9120024,50.3866675 42.432,50.216 C41.9519976,50.0453325 41.4800023,49.8400012 41.016,49.6 C40.5519977,49.3599988 40.1386685,49.0560018 39.776,48.688 C39.4133315,48.3199982 39.1200011,47.869336 38.896,47.336 C38.6719989,46.802664 38.56,46.1573371 38.56,45.4 C38.56,44.6959965 38.6959986,44.0266698 38.968,43.392 C39.2400014,42.7573302 39.6479973,42.2000024 40.192,41.72 C40.7360027,41.2399976 41.4186626,40.8586681 42.24,40.576 C43.0613374,40.2933319 44.0213278,40.152 45.12,40.152 C45.7173363,40.152 46.2959972,40.2053328 46.856,40.312 C47.4160028,40.4186672 47.9413309,40.567999 48.432,40.76 C48.9226691,40.952001 49.3706646,41.1786654 49.776,41.44 C50.1813354,41.7013346 50.5386651,41.9866651 50.848,42.296 L49.728,44.04 Z M60.768,40.152 C61.8666722,40.152 62.8719954,40.322665 63.784,40.664 C64.6960046,41.005335 65.4799967,41.5013301 66.136,42.152 C66.7920033,42.8026699 67.3039982,43.5999953 67.672,44.544 C68.0400018,45.4880047 68.224,46.5573274 68.224,47.752 C68.224,48.1253352 68.2080002,48.4293322 68.176,48.664 C68.1439998,48.8986678 68.0853338,49.0853326 68,49.224 C67.9146662,49.3626674 67.8000007,49.4586664 67.656,49.512 C67.5119993,49.5653336 67.3280011,49.592 67.104,49.592 L57.536,49.592 C57.6960008,50.9786736 58.1173299,51.9839969 58.8,52.608 C59.4826701,53.2320031 60.3626613,53.544 61.44,53.544 C62.0160029,53.544 62.5119979,53.4746674 62.928,53.336 C63.3440021,53.1973326 63.714665,53.0426675 64.04,52.872 C64.365335,52.7013325 64.6639986,52.5466674 64.936,52.408 C65.2080014,52.2693326 65.4933318,52.2 65.792,52.2 C66.1866686,52.2 66.4853323,52.3439986 66.688,52.632 L68.128,54.408 C67.6159974,54.9946696 67.064003,55.4719982 66.472,55.84 C65.879997,56.2080018 65.2720031,56.495999 64.648,56.704 C64.0239969,56.912001 63.4000031,57.0559996 62.776,57.136 C62.1519969,57.2160004 61.5573362,57.256 60.992,57.256 C59.8293275,57.256 58.7386718,57.0666686 57.72,56.688 C56.7013282,56.3093314 55.8106705,55.7466704 55.048,55 C54.2853295,54.2533296 53.6826689,53.3253389 53.24,52.216 C52.7973311,51.1066611 52.576,49.8160074 52.576,48.344 C52.576,47.2346611 52.7653314,46.184005 53.144,45.192 C53.5226686,44.199995 54.0666631,43.3306704 54.776,42.584 C55.4853369,41.8373296 56.343995,41.2453355 57.352,40.808 C58.360005,40.3706645 59.4986603,40.152 60.768,40.152 Z M60.864,43.576 C59.9146619,43.576 59.173336,43.8453306 58.64,44.384 C58.106664,44.9226694 57.7546675,45.6986616 57.584,46.712 L63.776,46.712 C63.776,46.3173314 63.7253338,45.9333352 63.624,45.56 C63.5226662,45.1866648 63.3573345,44.8533348 63.128,44.56 C62.8986655,44.2666652 62.5973352,44.0293342 62.224,43.848 C61.8506648,43.6666658 61.397336,43.576 60.864,43.576 Z M76.896,57.256 C76.1066627,57.256 75.4106697,57.1413345 74.808,56.912 C74.2053303,56.6826655 73.6986687,56.3573354 73.288,55.936 C72.8773313,55.5146646 72.5653344,55.0053363 72.352,54.408 C72.1386656,53.8106637 72.032,53.1440037 72.032,52.408 L72.032,43.832 L70.624,43.832 C70.3679987,43.832 70.1493342,43.7493342 69.968,43.584 C69.7866658,43.4186658 69.696,43.1760016 69.696,42.856 L69.696,40.92 L72.336,40.408 L73.312,36.36 C73.4400006,35.8479974 73.8026637,35.592 74.4,35.592 L76.992,35.592 L76.992,40.44 L81.024,40.44 L81.024,43.832 L76.992,43.832 L76.992,52.072 C76.992,52.4560019 77.0853324,52.7733321 77.272,53.024 C77.4586676,53.2746679 77.7279982,53.4 78.08,53.4 C78.2613342,53.4 78.4133327,53.3813335 78.536,53.344 C78.6586673,53.3066665 78.7653329,53.2640002 78.856,53.216 C78.9466671,53.1679998 79.0319996,53.1253335 79.112,53.088 C79.1920004,53.0506665 79.2853328,53.032 79.392,53.032 C79.5413341,53.032 79.6613329,53.0666663 79.752,53.136 C79.8426671,53.2053337 79.9359995,53.3146659 80.032,53.464 L81.536,55.816 C80.8959968,56.2960024 80.176004,56.6559988 79.376,56.896 C78.575996,57.1360012 77.7493376,57.256 76.896,57.256 Z M101.968,46.344 C102.181334,46.7493354 102.386666,47.1706645 102.584,47.608 C102.781334,48.0453355 102.970666,48.493331 103.152,48.952 C103.333334,48.4826643 103.525332,48.0266689 103.728,47.584 C103.930668,47.1413311 104.138666,46.7120021 104.352,46.296 L110.336,34.52 C110.442667,34.3173323 110.551999,34.1600006 110.664,34.048 C110.776001,33.9359994 110.901333,33.8533336 111.04,33.8 C111.178667,33.7466664 111.335999,33.7146667 111.512,33.704 C111.688001,33.6933333 111.893332,33.688 112.128,33.688 L116.256,33.688 L116.256,57 L111.488,57 L111.488,43.592 C111.488,42.9413301 111.52,42.2373371 111.584,41.48 L105.408,53.464 C105.215999,53.8373352 104.957335,54.119999 104.632,54.312 C104.306665,54.504001 103.936002,54.6 103.52,54.6 L102.784,54.6 C102.367998,54.6 101.997335,54.504001 101.672,54.312 C101.346665,54.119999 101.088001,53.8373352 100.896,53.464 L94.688,41.464 C94.7306669,41.8373352 94.7626666,42.2079982 94.784,42.576 C94.8053334,42.9440018 94.816,43.2826651 94.816,43.592 L94.816,57 L90.048,57 L90.048,33.688 L94.176,33.688 C94.4106678,33.688 94.6159991,33.6933333 94.792,33.704 C94.9680009,33.7146667 95.1253326,33.7466664 95.264,33.8 C95.4026674,33.8533336 95.5279994,33.9359994 95.64,34.048 C95.7520006,34.1600006 95.8613328,34.3173323 95.968,34.52 L101.968,46.344 Z M131.552,57 C131.082664,57 130.728001,56.9360006 130.488,56.808 C130.247999,56.6799994 130.048001,56.4133354 129.888,56.008 L129.536,55.096 C129.119998,55.4480018 128.720002,55.757332 128.336,56.024 C127.951998,56.290668 127.554669,56.5173324 127.144,56.704 C126.733331,56.8906676 126.296002,57.0293329 125.832,57.12 C125.367998,57.2106671 124.853336,57.256 124.288,57.256 C123.530663,57.256 122.84267,57.1573343 122.224,56.96 C121.60533,56.7626657 121.080002,56.4720019 120.648,56.088 C120.215998,55.7039981 119.882668,55.2266695 119.648,54.656 C119.413332,54.0853305 119.296,53.4266704 119.296,52.68 C119.296,52.0933304 119.445332,51.4906698 119.744,50.872 C120.042668,50.2533302 120.559996,49.6906692 121.296,49.184 C122.032004,48.6773308 123.023994,48.253335 124.272,47.912 C125.520006,47.570665 127.093324,47.3786669 128.992,47.336 L128.992,46.632 C128.992,45.6613285 128.792002,44.9600022 128.392,44.528 C127.991998,44.0959978 127.424004,43.88 126.688,43.88 C126.10133,43.88 125.621335,43.9439994 125.248,44.072 C124.874665,44.2000006 124.541335,44.3439992 124.248,44.504 C123.954665,44.6640008 123.669335,44.8079994 123.392,44.936 C123.114665,45.0640006 122.784002,45.128 122.4,45.128 C122.058665,45.128 121.768001,45.0453342 121.528,44.88 C121.287999,44.7146658 121.098667,44.5093346 120.96,44.264 L120.064,42.712 C121.066672,41.8266622 122.178661,41.1680022 123.4,40.736 C124.621339,40.3039978 125.93066,40.088 127.328,40.088 C128.330672,40.088 129.234663,40.250665 130.04,40.576 C130.845337,40.901335 131.527997,41.3546638 132.088,41.936 C132.648003,42.5173362 133.077332,43.207996 133.376,44.008 C133.674668,44.808004 133.824,45.6826619 133.824,46.632 L133.824,57 L131.552,57 Z M125.856,53.976 C126.496003,53.976 127.055998,53.8640011 127.536,53.64 C128.016002,53.4159989 128.501331,53.0533358 128.992,52.552 L128.992,50.248 C127.999995,50.2906669 127.184003,50.3759994 126.544,50.504 C125.903997,50.6320006 125.397335,50.791999 125.024,50.984 C124.650665,51.176001 124.392001,51.3946654 124.248,51.64 C124.103999,51.8853346 124.032,52.1519986 124.032,52.44 C124.032,53.0053362 124.186665,53.4026655 124.496,53.632 C124.805335,53.8613345 125.258664,53.976 125.856,53.976 Z M137.344,57 L137.344,40.408 L140.416,40.408 C140.725335,40.408 140.983999,40.4773326 141.192,40.616 C141.400001,40.7546674 141.546666,40.9626653 141.632,41.24 L141.92,42.2 C142.240002,41.9013318 142.570665,41.6240013 142.912,41.368 C143.253335,41.1119987 143.618665,40.8960009 144.008,40.72 C144.397335,40.5439991 144.818664,40.4053338 145.272,40.304 C145.725336,40.2026662 146.218664,40.152 146.752,40.152 C147.658671,40.152 148.46133,40.3093318 149.16,40.624 C149.85867,40.9386682 150.447998,41.3759972 150.928,41.936 C151.408002,42.4960028 151.770665,43.1626628 152.016,43.936 C152.261335,44.7093372 152.384,45.5493288 152.384,46.456 L152.384,57 L147.424,57 L147.424,46.456 C147.424,45.6453293 147.237335,45.0133356 146.864,44.56 C146.490665,44.1066644 145.941337,43.88 145.216,43.88 C144.671997,43.88 144.160002,43.9973322 143.68,44.232 C143.199998,44.4666678 142.741336,44.7813314 142.304,45.176 L142.304,57 L137.344,57 Z M167.36,57 C166.890664,57 166.536001,56.9360006 166.296,56.808 C166.055999,56.6799994 165.856001,56.4133354 165.696,56.008 L165.344,55.096 C164.927998,55.4480018 164.528002,55.757332 164.144,56.024 C163.759998,56.290668 163.362669,56.5173324 162.952,56.704 C162.541331,56.8906676 162.104002,57.0293329 161.64,57.12 C161.175998,57.2106671 160.661336,57.256 160.096,57.256 C159.338663,57.256 158.65067,57.1573343 158.032,56.96 C157.41333,56.7626657 156.888002,56.4720019 156.456,56.088 C156.023998,55.7039981 155.690668,55.2266695 155.456,54.656 C155.221332,54.0853305 155.104,53.4266704 155.104,52.68 C155.104,52.0933304 155.253332,51.4906698 155.552,50.872 C155.850668,50.2533302 156.367996,49.6906692 157.104,49.184 C157.840004,48.6773308 158.831994,48.253335 160.08,47.912 C161.328006,47.570665 162.901324,47.3786669 164.8,47.336 L164.8,46.632 C164.8,45.6613285 164.600002,44.9600022 164.2,44.528 C163.799998,44.0959978 163.232004,43.88 162.496,43.88 C161.90933,43.88 161.429335,43.9439994 161.056,44.072 C160.682665,44.2000006 160.349335,44.3439992 160.056,44.504 C159.762665,44.6640008 159.477335,44.8079994 159.2,44.936 C158.922665,45.0640006 158.592002,45.128 158.208,45.128 C157.866665,45.128 157.576001,45.0453342 157.336,44.88 C157.095999,44.7146658 156.906667,44.5093346 156.768,44.264 L155.872,42.712 C156.874672,41.8266622 157.986661,41.1680022 159.208,40.736 C160.429339,40.3039978 161.73866,40.088 163.136,40.088 C164.138672,40.088 165.042663,40.250665 165.848,40.576 C166.653337,40.901335 167.335997,41.3546638 167.896,41.936 C168.456003,42.5173362 168.885332,43.207996 169.184,44.008 C169.482668,44.808004 169.632,45.6826619 169.632,46.632 L169.632,57 L167.36,57 Z M161.664,53.976 C162.304003,53.976 162.863998,53.8640011 163.344,53.64 C163.824002,53.4159989 164.309331,53.0533358 164.8,52.552 L164.8,50.248 C163.807995,50.2906669 162.992003,50.3759994 162.352,50.504 C161.711997,50.6320006 161.205335,50.791999 160.832,50.984 C160.458665,51.176001 160.200001,51.3946654 160.056,51.64 C159.911999,51.8853346 159.84,52.1519986 159.84,52.44 C159.84,53.0053362 159.994665,53.4026655 160.304,53.632 C160.613335,53.8613345 161.066664,53.976 161.664,53.976 Z M179.008,40.12 C179.712004,40.12 180.375997,40.1893326 181,40.328 C181.624003,40.4666674 182.202664,40.6639987 182.736,40.92 L187.744,40.92 L187.744,42.728 C187.744,43.0053347 187.666667,43.2239992 187.512,43.384 C187.357333,43.5440008 187.093335,43.6666662 186.72,43.752 L185.504,44.024 C185.653334,44.5040024 185.728,44.9999974 185.728,45.512 C185.728,46.3440042 185.554668,47.0906634 185.208,47.752 C184.861332,48.4133366 184.38667,48.9759977 183.784,49.44 C183.18133,49.9040023 182.469337,50.2613321 181.648,50.512 C180.826663,50.7626679 179.946671,50.888 179.008,50.888 C178.485331,50.888 177.994669,50.8560003 177.536,50.792 C177.173332,51.0053344 176.992,51.2506653 176.992,51.528 C176.992,51.8053347 177.138665,52.0053327 177.432,52.128 C177.725335,52.2506673 178.111998,52.3359998 178.592,52.384 C179.072002,52.4320002 179.62133,52.4639999 180.24,52.48 C180.85867,52.4960001 181.487997,52.533333 182.128,52.592 C182.768003,52.650667 183.39733,52.7493326 184.016,52.888 C184.63467,53.0266674 185.183998,53.2506651 185.664,53.56 C186.144002,53.8693349 186.530665,54.2826641 186.824,54.8 C187.117335,55.3173359 187.264,55.975996 187.264,56.776 C187.264,57.5226704 187.082668,58.2533298 186.72,58.968 C186.357332,59.6826702 185.824004,60.3173306 185.12,60.872 C184.415996,61.4266694 183.552005,61.8719983 182.528,62.208 C181.503995,62.5440017 180.330673,62.712 179.008,62.712 C177.70666,62.712 176.584005,62.5893346 175.64,62.344 C174.695995,62.0986654 173.912003,61.776002 173.288,61.376 C172.663997,60.975998 172.202668,60.5146693 171.904,59.992 C171.605332,59.4693307 171.456,58.9253362 171.456,58.36 C171.456,57.6239963 171.679998,57.0026692 172.128,56.496 C172.576002,55.9893308 173.189329,55.5920014 173.968,55.304 C173.594665,55.0586654 173.296001,54.7440019 173.072,54.36 C172.847999,53.9759981 172.736,53.4906696 172.736,52.904 C172.736,52.6586654 172.778666,52.4000014 172.864,52.128 C172.949334,51.8559986 173.082666,51.5920013 173.264,51.336 C173.445334,51.0799987 173.674665,50.8346678 173.952,50.6 C174.229335,50.3653322 174.559998,50.1573342 174.944,49.976 C174.079996,49.517331 173.400002,48.9093371 172.904,48.152 C172.407998,47.3946629 172.16,46.5146717 172.16,45.512 C172.16,44.6799958 172.335998,43.93067 172.688,43.264 C173.040002,42.59733 173.522664,42.0320023 174.136,41.568 C174.749336,41.1039977 175.471996,40.7466679 176.304,40.496 C177.136004,40.2453321 178.037328,40.12 179.008,40.12 Z M182.688,57.608 C182.688,57.341332 182.605334,57.1280008 182.44,56.968 C182.274666,56.8079992 182.050668,56.6800005 181.768,56.584 C181.485332,56.4879995 181.154669,56.4186669 180.776,56.376 C180.397331,56.3333331 179.989336,56.3013334 179.552,56.28 C179.114664,56.2586666 178.661336,56.2400001 178.192,56.224 C177.722664,56.2079999 177.258669,56.1733336 176.8,56.12 C176.490665,56.3333344 176.237334,56.5706654 176.04,56.832 C175.842666,57.0933346 175.744,57.3893317 175.744,57.72 C175.744,57.9546678 175.794666,58.167999 175.896,58.36 C175.997334,58.552001 176.175999,58.7173326 176.432,58.856 C176.688001,58.9946674 177.031998,59.1039996 177.464,59.184 C177.896002,59.2640004 178.442663,59.304 179.104,59.304 C179.81867,59.304 180.405331,59.2613338 180.864,59.176 C181.322669,59.0906662 181.687999,58.9733341 181.96,58.824 C182.232001,58.6746659 182.421333,58.496001 182.528,58.288 C182.634667,58.079999 182.688,57.8533346 182.688,57.608 Z M179.008,47.832 C179.829337,47.832 180.423998,47.6266687 180.792,47.216 C181.160002,46.8053313 181.344,46.2746699 181.344,45.624 C181.344,44.9519966 181.160002,44.4240019 180.792,44.04 C180.423998,43.6559981 179.829337,43.464 179.008,43.464 C178.186663,43.464 177.592002,43.6559981 177.224,44.04 C176.855998,44.4240019 176.672,44.9519966 176.672,45.624 C176.672,45.9440016 176.717333,46.237332 176.808,46.504 C176.898667,46.770668 177.039999,47.0026657 177.232,47.2 C177.424001,47.3973343 177.666665,47.5519994 177.96,47.664 C178.253335,47.7760006 178.602665,47.832 179.008,47.832 Z M196.992,40.152 C198.090672,40.152 199.095995,40.322665 200.008,40.664 C200.920005,41.005335 201.703997,41.5013301 202.36,42.152 C203.016003,42.8026699 203.527998,43.5999953 203.896,44.544 C204.264002,45.4880047 204.448,46.5573274 204.448,47.752 C204.448,48.1253352 204.432,48.4293322 204.4,48.664 C204.368,48.8986678 204.309334,49.0853326 204.224,49.224 C204.138666,49.3626674 204.024001,49.4586664 203.88,49.512 C203.735999,49.5653336 203.552001,49.592 203.328,49.592 L193.76,49.592 C193.920001,50.9786736 194.34133,51.9839969 195.024,52.608 C195.70667,53.2320031 196.586661,53.544 197.664,53.544 C198.240003,53.544 198.735998,53.4746674 199.152,53.336 C199.568002,53.1973326 199.938665,53.0426675 200.264,52.872 C200.589335,52.7013325 200.887999,52.5466674 201.16,52.408 C201.432001,52.2693326 201.717332,52.2 202.016,52.2 C202.410669,52.2 202.709332,52.3439986 202.912,52.632 L204.352,54.408 C203.839997,54.9946696 203.288003,55.4719982 202.696,55.84 C202.103997,56.2080018 201.496003,56.495999 200.872,56.704 C200.247997,56.912001 199.624003,57.0559996 199,57.136 C198.375997,57.2160004 197.781336,57.256 197.216,57.256 C196.053328,57.256 194.962672,57.0666686 193.944,56.688 C192.925328,56.3093314 192.03467,55.7466704 191.272,55 C190.50933,54.2533296 189.906669,53.3253389 189.464,52.216 C189.021331,51.1066611 188.8,49.8160074 188.8,48.344 C188.8,47.2346611 188.989331,46.184005 189.368,45.192 C189.746669,44.199995 190.290663,43.3306704 191,42.584 C191.709337,41.8373296 192.567995,41.2453355 193.576,40.808 C194.584005,40.3706645 195.72266,40.152 196.992,40.152 Z M197.088,43.576 C196.138662,43.576 195.397336,43.8453306 194.864,44.384 C194.330664,44.9226694 193.978668,45.6986616 193.808,46.712 L200,46.712 C200,46.3173314 199.949334,45.9333352 199.848,45.56 C199.746666,45.1866648 199.581334,44.8533348 199.352,44.56 C199.122666,44.2666652 198.821335,44.0293342 198.448,43.848 C198.074665,43.6666658 197.621336,43.576 197.088,43.576 Z M207.296,57 L207.296,40.408 L210.24,40.408 C210.485335,40.408 210.690666,40.4293331 210.856,40.472 C211.021334,40.5146669 211.159999,40.5813329 211.272,40.672 C211.384001,40.7626671 211.469333,40.8826659 211.528,41.032 C211.586667,41.1813341 211.637333,41.3626656 211.68,41.576 L211.952,43.128 C212.560003,42.1893286 213.242663,41.4480027 214,40.904 C214.757337,40.3599973 215.583996,40.088 216.48,40.088 C217.237337,40.088 217.845331,40.2693315 218.304,40.632 L217.664,44.28 C217.621333,44.5040011 217.536001,44.6613329 217.408,44.752 C217.279999,44.8426671 217.109334,44.888 216.896,44.888 C216.714666,44.888 216.501335,44.8640002 216.256,44.816 C216.010665,44.7679998 215.701335,44.744 215.328,44.744 C214.02666,44.744 213.00267,45.4373264 212.256,46.824 L212.256,57 L207.296,57 Z" id="AssetManager"></path>
                    <path d="M5.436,24.192 C4.4759952,24.192 3.73800258,23.9240027 3.222,23.388 C2.70599742,22.8519973 2.448,22.080005 2.448,21.072 L2.448,13.632 L0.984,13.632 C0.85599936,13.632 0.74800044,13.5940004 0.66,13.518 C0.57199956,13.4419996 0.528,13.3240008 0.528,13.164 L0.528,12.312 L2.52,12.06 L3.012,8.304 C3.02800008,8.1839994 3.07999956,8.08600038 3.168,8.01 C3.25600044,7.93399962 3.36799932,7.896 3.504,7.896 L4.584,7.896 L4.584,12.084 L8.064,12.084 L8.064,13.632 L4.584,13.632 L4.584,20.928 C4.584,21.4400026 4.70799876,21.8199988 4.956,22.068 C5.20400124,22.3160012 5.52399804,22.44 5.916,22.44 C6.14000112,22.44 6.33399918,22.4100003 6.498,22.35 C6.66200082,22.2899997 6.8039994,22.2240004 6.924,22.152 C7.0440006,22.0799996 7.14599958,22.0140003 7.23,21.954 C7.31400042,21.8939997 7.38799968,21.864 7.452,21.864 C7.56400056,21.864 7.66399956,21.9319993 7.752,22.068 L8.376,23.088 C8.00799816,23.4320017 7.5640026,23.701999 7.044,23.898 C6.5239974,24.094001 5.98800276,24.192 5.436,24.192 Z M15.516,11.652 C16.2440036,11.652 16.9159969,11.7739988 17.532,12.018 C18.1480031,12.2620012 18.6799978,12.6139977 19.128,13.074 C19.5760022,13.5340023 19.9259987,14.1019966 20.178,14.778 C20.4300013,15.4540034 20.556,16.2239957 20.556,17.088 C20.556,17.4240017 20.5200004,17.6479994 20.448,17.76 C20.3759996,17.8720006 20.240001,17.928 20.04,17.928 L11.952,17.928 C11.9680001,18.6960038 12.071999,19.3639972 12.264,19.932 C12.456001,20.5000028 12.7199983,20.9739981 13.056,21.354 C13.3920017,21.7340019 13.7919977,22.0179991 14.256,22.206 C14.7200023,22.3940009 15.2399971,22.488 15.816,22.488 C16.3520027,22.488 16.8139981,22.4260006 17.202,22.302 C17.5900019,22.1779994 17.9239986,22.0440007 18.204,21.9 C18.4840014,21.7559993 18.7179991,21.6220006 18.906,21.498 C19.0940009,21.3739994 19.2559993,21.312 19.392,21.312 C19.5680009,21.312 19.7039995,21.3799993 19.8,21.516 L20.4,22.296 C20.1359987,22.6160016 19.8200018,22.8939988 19.452,23.13 C19.0839982,23.3660012 18.6900021,23.5599992 18.27,23.712 C17.8499979,23.8640008 17.4160022,23.9779996 16.968,24.054 C16.5199978,24.1300004 16.0760022,24.168 15.636,24.168 C14.7959958,24.168 14.0220035,24.0260014 13.314,23.742 C12.6059965,23.4579986 11.9940026,23.0420027 11.478,22.494 C10.9619974,21.9459973 10.5600014,21.268004 10.272,20.46 C9.98399856,19.651996 9.84,18.7240052 9.84,17.676 C9.84,16.8279958 9.9699987,16.0360037 10.23,15.3 C10.4900013,14.5639963 10.8639976,13.9260027 11.352,13.386 C11.8400024,12.8459973 12.4359965,12.4220015 13.14,12.114 C13.8440035,11.8059985 14.6359956,11.652 15.516,11.652 Z M15.564,13.224 C14.5319948,13.224 13.720003,13.521997 13.128,14.118 C12.535997,14.714003 12.1680007,15.5399947 12.024,16.596 L18.636,16.596 C18.636,16.0999975 18.5680007,15.6460021 18.432,15.234 C18.2959993,14.8219979 18.0960013,14.4660015 17.832,14.166 C17.5679987,13.8659985 17.2460019,13.6340008 16.866,13.47 C16.4859981,13.3059992 16.0520024,13.224 15.564,13.224 Z M31.572,14.004 C31.5079997,14.0920004 31.4440003,14.1599998 31.38,14.208 C31.3159997,14.2560002 31.2240006,14.28 31.104,14.28 C30.9839994,14.28 30.8540007,14.2300005 30.714,14.13 C30.5739993,14.0299995 30.3960011,13.9200006 30.18,13.8 C29.9639989,13.6799994 29.7020015,13.5700005 29.394,13.47 C29.0859985,13.3699995 28.7080022,13.32 28.26,13.32 C27.667997,13.32 27.1440023,13.4259989 26.688,13.638 C26.2319977,13.8500011 25.8500015,14.155998 25.542,14.556 C25.2339985,14.956002 25.0020008,15.4399972 24.846,16.008 C24.6899992,16.5760028 24.612,17.2119965 24.612,17.916 C24.612,18.6520037 24.6959992,19.3059971 24.864,19.878 C25.0320008,20.4500029 25.2679985,20.9299981 25.572,21.318 C25.8760015,21.7060019 26.2459978,22.001999 26.682,22.206 C27.1180022,22.410001 27.6079973,22.512 28.152,22.512 C28.6720026,22.512 29.0999983,22.4500006 29.436,22.326 C29.7720017,22.2019994 30.0519989,22.0640008 30.276,21.912 C30.5000011,21.7599992 30.6839993,21.6220006 30.828,21.498 C30.9720007,21.3739994 31.1159993,21.312 31.26,21.312 C31.4440009,21.312 31.5799996,21.3799993 31.668,21.516 L32.268,22.296 C31.7399974,22.9440032 31.080004,23.4179985 30.288,23.718 C29.495996,24.0180015 28.6600044,24.168 27.78,24.168 C27.0199962,24.168 26.3140033,24.0280014 25.662,23.748 C25.0099967,23.4679986 24.4440024,23.0620027 23.964,22.53 C23.4839976,21.9979973 23.1060014,21.3440039 22.83,20.568 C22.5539986,19.7919961 22.416,18.908005 22.416,17.916 C22.416,17.0119955 22.5419987,16.1760038 22.794,15.408 C23.0460013,14.6399962 23.4139976,13.9780028 23.898,13.422 C24.3820024,12.8659972 24.9799964,12.4320016 25.692,12.12 C26.4040036,11.8079984 27.2199954,11.652 28.14,11.652 C28.9880042,11.652 29.7399967,11.7899986 30.396,12.066 C31.0520033,12.3420014 31.6319975,12.7319975 32.136,13.236 L31.572,14.004 Z M34.488,24 L34.488,6.324 L36.624,6.324 L36.624,13.476 C37.1440026,12.9239972 37.7199968,12.4820017 38.352,12.15 C38.9840032,11.8179983 39.7119959,11.652 40.536,11.652 C41.2000033,11.652 41.7859975,11.7619989 42.294,11.982 C42.8020025,12.2020011 43.2259983,12.513998 43.566,12.918 C43.9060017,13.322002 44.1639991,13.8079972 44.34,14.376 C44.5160009,14.9440028 44.604,15.5719966 44.604,16.26 L44.604,24 L42.468,24 L42.468,16.26 C42.468,15.3399954 42.2580021,14.6260025 41.838,14.118 C41.4179979,13.6099975 40.7760043,13.356 39.912,13.356 C39.2799968,13.356 38.6900027,13.5079985 38.142,13.812 C37.5939973,14.1160015 37.0880023,14.5279974 36.624,15.048 L36.624,24 L34.488,24 Z M50.208,11.844 L50.208,24.9 C50.208,25.3880024 50.1440006,25.8419979 50.016,26.262 C49.8879994,26.6820021 49.6860014,27.0479984 49.41,27.36 C49.1339986,27.6720016 48.7780022,27.9179991 48.342,28.098 C47.9059978,28.2780009 47.384003,28.368 46.776,28.368 C46.5119987,28.368 46.2720011,28.3480002 46.056,28.308 C45.8399989,28.2679998 45.6240011,28.2080004 45.408,28.128 L45.504,26.976 C45.5200001,26.8719995 45.5559997,26.8060001 45.612,26.778 C45.6680003,26.7499999 45.7559994,26.736 45.876,26.736 C45.9400003,26.736 46.0079996,26.738 46.08,26.742 C46.1520004,26.746 46.2399995,26.748 46.344,26.748 C46.9680031,26.748 47.4119987,26.6020015 47.676,26.31 C47.9400013,26.0179985 48.072,25.5480032 48.072,24.9 L48.072,11.844 L50.208,11.844 Z M50.688,8.028 C50.688,8.23600104 50.6460004,8.4299991 50.562,8.61 C50.4779996,8.7900009 50.3660007,8.9499993 50.226,9.09 C50.0859993,9.2300007 49.9240009,9.3399996 49.74,9.42 C49.5559991,9.5000004 49.360001,9.54 49.152,9.54 C48.943999,9.54 48.7500009,9.5000004 48.57,9.42 C48.3899991,9.3399996 48.2300007,9.2300007 48.09,9.09 C47.9499993,8.9499993 47.8400004,8.7900009 47.76,8.61 C47.6799996,8.4299991 47.64,8.23600104 47.64,8.028 C47.64,7.81999896 47.6799996,7.62200094 47.76,7.434 C47.8400004,7.24599906 47.9499993,7.0820007 48.09,6.942 C48.2300007,6.8019993 48.3899991,6.6920004 48.57,6.612 C48.7500009,6.5319996 48.943999,6.492 49.152,6.492 C49.360001,6.492 49.5559991,6.5319996 49.74,6.612 C49.9240009,6.6920004 50.0859993,6.8019993 50.226,6.942 C50.3660007,7.0820007 50.4779996,7.24599906 50.562,7.434 C50.6460004,7.62200094 50.688,7.81999896 50.688,8.028 Z M58.848,11.652 C59.7360044,11.652 60.5379964,11.7999985 61.254,12.096 C61.9700036,12.3920015 62.5779975,12.8119973 63.078,13.356 C63.5780025,13.9000027 63.9619987,14.5579961 64.23,15.33 C64.4980013,16.1020039 64.632,16.9639952 64.632,17.916 C64.632,18.8760048 64.4980013,19.7399962 64.23,20.508 C63.9619987,21.2760038 63.5780025,21.9319973 63.078,22.476 C62.5779975,23.0200027 61.9700036,23.4379985 61.254,23.73 C60.5379964,24.0220015 59.7360044,24.168 58.848,24.168 C57.9599956,24.168 57.1580036,24.0220015 56.442,23.73 C55.7259964,23.4379985 55.1160025,23.0200027 54.612,22.476 C54.1079975,21.9319973 53.7200014,21.2760038 53.448,20.508 C53.1759986,19.7399962 53.04,18.8760048 53.04,17.916 C53.04,16.9639952 53.1759986,16.1020039 53.448,15.33 C53.7200014,14.5579961 54.1079975,13.9000027 54.612,13.356 C55.1160025,12.8119973 55.7259964,12.3920015 56.442,12.096 C57.1580036,11.7999985 57.9599956,11.652 58.848,11.652 Z M58.848,22.5 C60.048006,22.5 60.943997,22.098004 61.536,21.294 C62.128003,20.489996 62.424,19.3680072 62.424,17.928 C62.424,16.4799928 62.128003,15.352004 61.536,14.544 C60.943997,13.735996 60.048006,13.332 58.848,13.332 C58.239997,13.332 57.7120022,13.435999 57.264,13.644 C56.8159978,13.852001 56.4420015,14.151998 56.142,14.544 C55.8419985,14.936002 55.6180007,15.4179971 55.47,15.99 C55.3219993,16.5620029 55.248,17.2079964 55.248,17.928 C55.248,18.6480036 55.3219993,19.2919972 55.47,19.86 C55.6180007,20.4280028 55.8419985,20.9059981 56.142,21.294 C56.4420015,21.6820019 56.8159978,21.979999 57.264,22.188 C57.7120022,22.396001 58.239997,22.5 58.848,22.5 Z M75.564,14.004 C75.4999997,14.0920004 75.4360003,14.1599998 75.372,14.208 C75.3079997,14.2560002 75.2160006,14.28 75.096,14.28 C74.9759994,14.28 74.8460007,14.2300005 74.706,14.13 C74.5659993,14.0299995 74.3880011,13.9200006 74.172,13.8 C73.9559989,13.6799994 73.6940015,13.5700005 73.386,13.47 C73.0779985,13.3699995 72.7000022,13.32 72.252,13.32 C71.659997,13.32 71.1360023,13.4259989 70.68,13.638 C70.2239977,13.8500011 69.8420015,14.155998 69.534,14.556 C69.2259985,14.956002 68.9940008,15.4399972 68.838,16.008 C68.6819992,16.5760028 68.604,17.2119965 68.604,17.916 C68.604,18.6520037 68.6879992,19.3059971 68.856,19.878 C69.0240008,20.4500029 69.2599985,20.9299981 69.564,21.318 C69.8680015,21.7060019 70.2379978,22.001999 70.674,22.206 C71.1100022,22.410001 71.5999973,22.512 72.144,22.512 C72.6640026,22.512 73.0919983,22.4500006 73.428,22.326 C73.7640017,22.2019994 74.0439989,22.0640008 74.268,21.912 C74.4920011,21.7599992 74.6759993,21.6220006 74.82,21.498 C74.9640007,21.3739994 75.1079993,21.312 75.252,21.312 C75.4360009,21.312 75.5719996,21.3799993 75.66,21.516 L76.26,22.296 C75.7319974,22.9440032 75.072004,23.4179985 74.28,23.718 C73.487996,24.0180015 72.6520044,24.168 71.772,24.168 C71.0119962,24.168 70.3060033,24.0280014 69.654,23.748 C69.0019967,23.4679986 68.4360024,23.0620027 67.956,22.53 C67.4759976,21.9979973 67.0980014,21.3440039 66.822,20.568 C66.5459986,19.7919961 66.408,18.908005 66.408,17.916 C66.408,17.0119955 66.5339987,16.1760038 66.786,15.408 C67.0380013,14.6399962 67.4059976,13.9780028 67.89,13.422 C68.3740024,12.8659972 68.9719964,12.4320016 69.684,12.12 C70.3960036,11.8079984 71.2119954,11.652 72.132,11.652 C72.9800042,11.652 73.7319967,11.7899986 74.388,12.066 C75.0440033,12.3420014 75.6239975,12.7319975 76.128,13.236 L75.564,14.004 Z M80.7,6.324 L80.7,16.728 L81.252,16.728 C81.4120008,16.728 81.5439995,16.7060002 81.648,16.662 C81.7520005,16.6179998 81.8679994,16.5280007 81.996,16.392 L85.836,12.276 C85.9560006,12.1479994 86.0759994,12.0440004 86.196,11.964 C86.3160006,11.8839996 86.475999,11.844 86.676,11.844 L88.62,11.844 L84.144,16.608 C84.0319994,16.7440007 83.9220005,16.8639995 83.814,16.968 C83.7059995,17.0720005 83.5840007,17.1639996 83.448,17.244 C83.5920007,17.3400005 83.7219994,17.4499994 83.838,17.574 C83.9540006,17.6980006 84.0639995,17.8399992 84.168,18 L88.92,24 L87,24 C86.8239991,24 86.6740006,23.9660003 86.55,23.898 C86.4259994,23.8299997 86.3080006,23.7240007 86.196,23.58 L82.2,18.6 C82.0799994,18.4319992 81.9600006,18.3220003 81.84,18.27 C81.7199994,18.2179997 81.5400012,18.192 81.3,18.192 L80.7,18.192 L80.7,24 L78.552,24 L78.552,6.324 L80.7,6.324 Z M95.148,11.652 C95.8760036,11.652 96.5479969,11.7739988 97.164,12.018 C97.7800031,12.2620012 98.3119978,12.6139977 98.76,13.074 C99.2080022,13.5340023 99.5579987,14.1019966 99.81,14.778 C100.062001,15.4540034 100.188,16.2239957 100.188,17.088 C100.188,17.4240017 100.152,17.6479994 100.08,17.76 C100.008,17.8720006 99.872001,17.928 99.672,17.928 L91.584,17.928 C91.6000001,18.6960038 91.703999,19.3639972 91.896,19.932 C92.088001,20.5000028 92.3519983,20.9739981 92.688,21.354 C93.0240017,21.7340019 93.4239977,22.0179991 93.888,22.206 C94.3520023,22.3940009 94.8719971,22.488 95.448,22.488 C95.9840027,22.488 96.4459981,22.4260006 96.834,22.302 C97.2220019,22.1779994 97.5559986,22.0440007 97.836,21.9 C98.1160014,21.7559993 98.3499991,21.6220006 98.538,21.498 C98.7260009,21.3739994 98.8879993,21.312 99.024,21.312 C99.2000009,21.312 99.3359995,21.3799993 99.432,21.516 L100.032,22.296 C99.7679987,22.6160016 99.4520018,22.8939988 99.084,23.13 C98.7159982,23.3660012 98.3220021,23.5599992 97.902,23.712 C97.4819979,23.8640008 97.0480022,23.9779996 96.6,24.054 C96.1519978,24.1300004 95.7080022,24.168 95.268,24.168 C94.4279958,24.168 93.6540035,24.0260014 92.946,23.742 C92.2379965,23.4579986 91.6260026,23.0420027 91.11,22.494 C90.5939974,21.9459973 90.1920014,21.268004 89.904,20.46 C89.6159986,19.651996 89.472,18.7240052 89.472,17.676 C89.472,16.8279958 89.6019987,16.0360037 89.862,15.3 C90.1220013,14.5639963 90.4959976,13.9260027 90.984,13.386 C91.4720024,12.8459973 92.0679965,12.4220015 92.772,12.114 C93.4760035,11.8059985 94.2679956,11.652 95.148,11.652 Z M95.196,13.224 C94.1639948,13.224 93.352003,13.521997 92.76,14.118 C92.167997,14.714003 91.8000007,15.5399947 91.656,16.596 L98.268,16.596 C98.268,16.0999975 98.2000007,15.6460021 98.064,15.234 C97.9279993,14.8219979 97.7280013,14.4660015 97.464,14.166 C97.1999987,13.8659985 96.8780019,13.6340008 96.498,13.47 C96.1179981,13.3059992 95.6840024,13.224 95.196,13.224 Z M106.164,27.588 C106.092,27.7480008 106.002001,27.8759995 105.894,27.972 C105.785999,28.0680005 105.620001,28.116 105.396,28.116 L103.812,28.116 L106.032,23.292 L101.016,11.844 L102.864,11.844 C103.048001,11.844 103.191999,11.8899995 103.296,11.982 C103.400001,12.0740005 103.476,12.1759994 103.524,12.288 L106.776,19.944 C106.848,20.1200009 106.91,20.2959991 106.962,20.472 C107.014,20.6480009 107.06,20.8279991 107.1,21.012 C107.156,20.8279991 107.212,20.6480009 107.268,20.472 C107.324,20.2959991 107.388,20.1160009 107.46,19.932 L110.616,12.288 C110.664,12.1599994 110.745999,12.0540004 110.862,11.97 C110.978001,11.8859996 111.103999,11.844 111.24,11.844 L112.944,11.844 L106.164,27.588 Z" id="techjockey"></path>
                </g>
            </g>
        </g>
    </g>
</svg>