<?xml version="1.0" encoding="UTF-8"?>
<svg width="353px" height="68px" viewBox="0 0 353 68" version="1.1" xmlns="http://www.w3.org/2000/svg" xmlns:xlink="http://www.w3.org/1999/xlink">
    <!-- Generator: Sketch 53.2 (72643) - https://sketchapp.com -->
    <title>dark_compare</title>
    <desc>Created with Sketch.</desc>
    <g id="Page-1" stroke="none" stroke-width="1" fill="none" fill-rule="evenodd">
        <g id="dark_compare-copy" transform="translate(-34.000000, -22.000000)" fill-rule="nonzero">
            <g id="tj-ems" transform="translate(36.000000, 24.000000)">
                <g id="tj-logo-04" transform="translate(2.000000, 8.000000)">
                    <path d="M29.924507,27.7426471 L28.4579577,26.3014706 L26.8706338,24.7269853 C26.3670489,24.2330641 25.6134062,24.1409188 25.0141549,24.5 C24.9177817,24.5579147 24.8295302,24.6294483 24.7519014,24.7125735 C24.68453,24.7726467 24.6263466,24.843117 24.5793662,24.9215441 C24.1906979,25.4821033 24.238502,26.2519749 24.6932394,26.7554412 L24.7519014,26.8166912 L27.8057746,29.8467647 C28.4023357,30.4279662 29.327946,30.4279662 29.924507,29.8467647 C30.2032554,29.574279 30.3614392,29.1933991 30.3614392,28.7947059 C30.3614392,28.3960127 30.2032554,28.0151328 29.924507,27.7426471 Z M29.924507,27.7426471 L28.4579577,26.3014706 L26.8706338,24.7269853 C26.3670489,24.2330641 25.6134062,24.1409188 25.0141549,24.5 C24.9177817,24.5579147 24.8295302,24.6294483 24.7519014,24.7125735 C24.68453,24.7726467 24.6263466,24.843117 24.5793662,24.9215441 C24.1906979,25.4821033 24.238502,26.2519749 24.6932394,26.7554412 L24.7519014,26.8166912 L27.8057746,29.8467647 C28.4023357,30.4279662 29.327946,30.4279662 29.924507,29.8467647 C30.2032554,29.574279 30.3614392,29.1933991 30.3614392,28.7947059 C30.3614392,28.3960127 30.2032554,28.0151328 29.924507,27.7426471 Z M29.924507,27.7426471 L28.4579577,26.3014706 L26.8706338,24.7269853 C26.3670489,24.2330641 25.6134062,24.1409188 25.0141549,24.5 C24.9177817,24.5579147 24.8295302,24.6294483 24.7519014,24.7125735 C24.68453,24.7726467 24.6263466,24.843117 24.5793662,24.9215441 C24.1906979,25.4821033 24.238502,26.2519749 24.6932394,26.7554412 L24.7519014,26.8166912 L27.8057746,29.8467647 C28.4023357,30.4279662 29.327946,30.4279662 29.924507,29.8467647 C30.2032554,29.574279 30.3614392,29.1933991 30.3614392,28.7947059 C30.3614392,28.3960127 30.2032554,28.0151328 29.924507,27.7426471 Z M29.924507,27.7426471 L28.4579577,26.3014706 L26.8706338,24.7269853 C26.3670489,24.2330641 25.6134062,24.1409188 25.0141549,24.5 C24.9177817,24.5579147 24.8295302,24.6294483 24.7519014,24.7125735 C24.68453,24.7726467 24.6263466,24.843117 24.5793662,24.9215441 C24.1906979,25.4821033 24.238502,26.2519749 24.6932394,26.7554412 L24.7519014,26.8166912 L27.8057746,29.8467647 C28.4023357,30.4279662 29.327946,30.4279662 29.924507,29.8467647 C30.2032554,29.574279 30.3614392,29.1933991 30.3614392,28.7947059 C30.3614392,28.3960127 30.2032554,28.0151328 29.924507,27.7426471 Z M29.924507,27.7426471 L28.4579577,26.3014706 L26.8706338,24.7269853 C26.3670489,24.2330641 25.6134062,24.1409188 25.0141549,24.5 C24.9177817,24.5579147 24.8295302,24.6294483 24.7519014,24.7125735 C24.68453,24.7726467 24.6263466,24.843117 24.5793662,24.9215441 C24.1906979,25.4821033 24.238502,26.2519749 24.6932394,26.7554412 L24.7519014,26.8166912 L27.8057746,29.8467647 C28.4023357,30.4279662 29.327946,30.4279662 29.924507,29.8467647 C30.2032554,29.574279 30.3614392,29.1933991 30.3614392,28.7947059 C30.3614392,28.3960127 30.2032554,28.0151328 29.924507,27.7426471 Z M43.5375352,34.1054412 C43.1359723,34.8909905 42.6852534,35.6480483 42.1883099,36.3716912 C42.1921509,36.3808805 42.1921509,36.3913254 42.1883099,36.4005147 L42.1883099,36.4005147 C41.8398942,36.9777932 41.2654611,37.3653405 40.6182394,37.4597794 C40.0996531,37.5164184 39.5834679,37.331934 39.2069014,36.9553676 L35.1730282,32.9308824 C36.7827528,31.212011 37.6897115,28.9072396 37.7023944,26.5032353 C37.7014353,23.9463978 36.681257,21.5053462 34.8866197,19.7657353 L33.2889437,18.1768382 L33.2889437,18.1768382 L29.1480986,14.0838971 C27.3026386,12.2831706 24.8691877,11.2846275 22.3433099,11.2916176 C19.8196866,11.2743342 17.387025,12.2745823 15.5523239,14.0838971 L14.0340141,15.6007353 C13.3394411,16.2914 12.7495253,17.0883578 12.284507,17.9642647 L12.284507,17.9642647 C11.579818,19.3045096 11.2117974,20.8093087 11.2147887,22.3382353 C11.2203871,24.8947986 12.2412257,27.3344404 14.0340141,29.0757353 L15.5005634,30.5385294 L19.7656338,34.7719853 C21.3042872,36.2816524 23.2709241,37.2286947 25.3695775,37.4705882 C25.7670992,37.5180305 26.1668621,37.5420881 26.5669718,37.5426471 C28.9452362,37.5549843 31.2468728,36.6651549 33.0439437,35.0386029 L37.0674648,39.0594853 C37.9740369,39.951115 39.1726621,40.4473351 40.4180986,40.4466176 C40.5910924,40.4463769 40.763924,40.4355495 40.9357042,40.4141912 C42.4500325,40.2359058 43.8121648,39.3699162 44.6590141,38.0470588 L44.6590141,38.0470588 L44.6590141,38.0470588 C44.6590141,38.0470588 44.6590141,38.0470588 44.6590141,38.0182353 L44.6590141,38.0182353 C45.2017033,37.2072875 45.7005337,36.3652866 46.153169,35.4961765 L43.5375352,34.1054412 Z M34.113662,29.2342647 C33.7761381,29.9576591 33.3167873,30.6117922 32.7575352,31.1654412 L31.2392254,32.6750735 C29.6082838,34.2379499 27.3613061,34.8950745 25.1901408,34.4441176 C23.9525296,34.1916934 22.8087379,33.578327 21.8912676,32.6750735 L17.9919718,28.8235294 L16.1527465,26.9968382 C14.912846,25.7939556 14.2099338,24.1054103 14.2134507,22.3382353 C14.2099219,21.2899654 14.4629199,20.2581305 14.9484507,19.3405882 C14.9484507,19.3405882 14.9484507,19.3405882 14.9484507,19.3405882 C15.2651054,18.7347186 15.6702472,18.1840688 16.1492958,17.7084559 L17.6710563,16.2132353 C19.3499369,14.5812326 21.6978667,13.9311892 23.9306338,14.4802206 C25.097832,14.7513875 26.1717811,15.3506756 27.0362676,16.2132353 L30.7940845,19.9386765 L32.7747887,21.9022794 C34.7183301,23.7785879 35.2677509,26.7563649 34.1309155,29.2522794 L34.113662,29.2342647 Z M28.4579577,26.3014706 L26.8706338,24.7269853 C26.3670489,24.2330641 25.6134062,24.1409188 25.0141549,24.5 C24.9177817,24.5579147 24.8295302,24.6294483 24.7519014,24.7125735 C24.68453,24.7726467 24.6263466,24.843117 24.5793662,24.9215441 C24.1906979,25.4821033 24.238502,26.2519749 24.6932394,26.7554412 L24.7519014,26.8166912 L27.8057746,29.8467647 C28.4023357,30.4279662 29.327946,30.4279662 29.924507,29.8467647 C30.2021391,29.5743745 30.3595996,29.1942851 30.3595996,28.7965074 C30.3595996,28.3987296 30.2021391,28.0186402 29.924507,27.74625 L28.4579577,26.3014706 Z M29.924507,27.7426471 L28.4579577,26.3014706 L26.8706338,24.7269853 C26.3670489,24.2330641 25.6134062,24.1409188 25.0141549,24.5 C24.9177817,24.5579147 24.8295302,24.6294483 24.7519014,24.7125735 C24.68453,24.7726467 24.6263466,24.843117 24.5793662,24.9215441 C24.1906979,25.4821033 24.238502,26.2519749 24.6932394,26.7554412 L24.7519014,26.8166912 L27.8057746,29.8467647 C28.4023357,30.4279662 29.327946,30.4279662 29.924507,29.8467647 C30.2032554,29.574279 30.3614392,29.1933991 30.3614392,28.7947059 C30.3614392,28.3960127 30.2032554,28.0151328 29.924507,27.7426471 Z M29.924507,27.7426471 L28.4579577,26.3014706 L26.8706338,24.7269853 C26.3670489,24.2330641 25.6134062,24.1409188 25.0141549,24.5 C24.9177817,24.5579147 24.8295302,24.6294483 24.7519014,24.7125735 C24.68453,24.7726467 24.6263466,24.843117 24.5793662,24.9215441 C24.1906979,25.4821033 24.238502,26.2519749 24.6932394,26.7554412 L24.7519014,26.8166912 L27.8057746,29.8467647 C28.4023357,30.4279662 29.327946,30.4279662 29.924507,29.8467647 C30.2032554,29.574279 30.3614392,29.1933991 30.3614392,28.7947059 C30.3614392,28.3960127 30.2032554,28.0151328 29.924507,27.7426471 Z M29.924507,27.7426471 L28.4579577,26.3014706 L26.8706338,24.7269853 C26.3670489,24.2330641 25.6134062,24.1409188 25.0141549,24.5 C24.9177817,24.5579147 24.8295302,24.6294483 24.7519014,24.7125735 C24.68453,24.7726467 24.6263466,24.843117 24.5793662,24.9215441 C24.1906979,25.4821033 24.238502,26.2519749 24.6932394,26.7554412 L24.7519014,26.8166912 L27.8057746,29.8467647 C28.4023357,30.4279662 29.327946,30.4279662 29.924507,29.8467647 C30.2032554,29.574279 30.3614392,29.1933991 30.3614392,28.7947059 C30.3614392,28.3960127 30.2032554,28.0151328 29.924507,27.7426471 Z M29.924507,27.7426471 L28.4579577,26.3014706 L26.8706338,24.7269853 C26.3670489,24.2330641 25.6134062,24.1409188 25.0141549,24.5 C24.9177817,24.5579147 24.8295302,24.6294483 24.7519014,24.7125735 C24.68453,24.7726467 24.6263466,24.843117 24.5793662,24.9215441 C24.1906979,25.4821033 24.238502,26.2519749 24.6932394,26.7554412 L24.7519014,26.8166912 L27.8057746,29.8467647 C28.4023357,30.4279662 29.327946,30.4279662 29.924507,29.8467647 C30.2032554,29.574279 30.3614392,29.1933991 30.3614392,28.7947059 C30.3614392,28.3960127 30.2032554,28.0151328 29.924507,27.7426471 Z M29.924507,27.7426471 L28.4579577,26.3014706 L26.8706338,24.7269853 C26.3670489,24.2330641 25.6134062,24.1409188 25.0141549,24.5 C24.9177817,24.5579147 24.8295302,24.6294483 24.7519014,24.7125735 C24.68453,24.7726467 24.6263466,24.843117 24.5793662,24.9215441 C24.1906979,25.4821033 24.238502,26.2519749 24.6932394,26.7554412 L24.7519014,26.8166912 L27.8057746,29.8467647 C28.4023357,30.4279662 29.327946,30.4279662 29.924507,29.8467647 C30.2032554,29.574279 30.3614392,29.1933991 30.3614392,28.7947059 C30.3614392,28.3960127 30.2032554,28.0151328 29.924507,27.7426471 Z" id="Shape" fill="#F4A86F"></path>
                    <path d="M46.1945775,35.4997794 L43.5375352,34.11625 C45.7234843,29.9457538 46.4251507,25.1020229 45.5182394,20.4430882 C44.9449961,17.4370469 43.7301448,14.6045909 41.9640141,12.1563235 L44.4278169,10.4557353 C46.4191981,13.2424081 47.7944819,16.4551644 48.4547887,19.8630147 C49.5026749,25.190162 48.7015158,30.7328013 46.1945775,35.4997794 L46.1945775,35.4997794 Z" id="Path" fill="#F2796E"></path>
                    <path d="M44.4278169,10.4701471 L41.9640141,12.1707353 C37.7817606,6.30514706 30.7319718,2.76705882 23.2439437,3.19220588 L23.0576056,0.234191176 C31.6153521,-0.263014706 39.655493,3.76867647 44.4278169,10.4701471 Z" id="Path" fill="#6186BD"></path>
                    <path d="M23.2439437,3.19220588 C22.2993468,3.25397604 21.3590988,3.37428603 20.428169,3.5525 C14.1423586,4.6872169 8.67314355,8.70043218 5.52112676,14.4910294 L2.86753521,13.1291176 C6.45363434,6.50700094 12.699119,1.91715468 19.879507,0.626911765 C20.9321066,0.425500422 21.9959288,0.294327777 23.064507,0.234191176 L23.2439437,3.19220588 Z" id="Path" fill="#D57FB3"></path>
                    <path d="M6.85309859,36.5626471 L4.40309859,38.2704412 C2.45026418,35.5130158 1.10252415,32.3406674 0.455492958,28.9784559 C-0.587230912,23.5627032 0.270098537,17.9360285 2.87098592,13.1255147 L5.52112676,14.4910294 C3.23439656,18.7198037 2.48112906,23.6664404 3.39894366,28.4272059 C3.96431328,31.3709165 5.14362625,34.148508 6.85309859,36.5626471 L6.85309859,36.5626471 Z" id="Path" fill="#00A9DA"></path>
                    <path d="M25.9527465,47.1985294 C25.9438613,47.6076334 25.7774138,47.9957274 25.4910292,48.2750832 C25.2046446,48.554439 24.8225026,48.7014705 24.4309859,48.6829412 C16.2459155,48.6829412 8.85450704,44.6296324 4.41690141,38.28125 L6.86690141,36.5734559 C10.9993297,42.3577419 17.5197425,45.7457305 24.4309859,45.6997059 L24.4551408,45.6997059 C24.8443804,45.6900478 25.2212534,45.8427771 25.5023321,46.1240844 C25.7834108,46.4053917 25.9455102,46.792073 25.9527465,47.1985294 Z" id="Path" fill="#D5E27E"></path>
                </g>
                <polygon id="Line" fill="#FFFFFF" points="62 8 66 8 66 57 62 57"></polygon>
                <g id="Group" transform="translate(75.000000, 0.000000)" fill="#FFFFFF">
                    <path d="M17.584,50.968 C17.7120006,50.968 17.8399994,50.9919998 17.968,51.04 C18.0960006,51.0880002 18.2186661,51.1706661 18.336,51.288 L20.48,53.544 C19.5413286,54.7706728 18.3653404,55.6959969 16.952,56.32 C15.5386596,56.9440031 13.8666763,57.256 11.936,57.256 C10.1653245,57.256 8.57867368,56.9546697 7.176,56.352 C5.77332632,55.7493303 4.58400488,54.9173386 3.608,53.856 C2.63199512,52.7946614 1.88266928,51.5360073 1.36,50.08 C0.83733072,48.6239927 0.576,47.0426752 0.576,45.336 C0.576,43.5973246 0.87466368,42.0000073 1.472,40.544 C2.06933632,39.0879927 2.90399464,37.8320053 3.976,36.776 C5.04800536,35.7199947 6.3306592,34.8986696 7.824,34.312 C9.3173408,33.7253304 10.9653243,33.432 12.768,33.432 C13.642671,33.432 14.4666628,33.5093326 15.24,33.664 C16.0133372,33.8186674 16.7359966,34.0319986 17.408,34.304 C18.0800034,34.5760014 18.6986638,34.9013314 19.264,35.28 C19.8293362,35.6586686 20.3306645,36.077331 20.768,36.536 L18.944,38.984 C18.8266661,39.1333341 18.6880008,39.2693327 18.528,39.392 C18.3679992,39.5146673 18.1440014,39.576 17.856,39.576 C17.663999,39.576 17.4826675,39.5333338 17.312,39.448 C17.1413325,39.3626662 16.960001,39.2586673 16.768,39.136 C16.575999,39.0133327 16.3653345,38.8800007 16.136,38.736 C15.9066655,38.5919993 15.6346682,38.4586673 15.32,38.336 C15.0053318,38.2133327 14.6373354,38.1093338 14.216,38.024 C13.7946646,37.9386662 13.3013362,37.896 12.736,37.896 C11.7546618,37.896 10.8586707,38.0693316 10.048,38.416 C9.23732928,38.7626684 8.54133624,39.2586634 7.96,39.904 C7.37866376,40.5493366 6.92533496,41.3306621 6.6,42.248 C6.27466504,43.1653379 6.112,44.194661 6.112,45.336 C6.112,46.5306726 6.27466504,47.5919954 6.6,48.52 C6.92533496,49.4480046 7.3679972,50.2293302 7.928,50.864 C8.4880028,51.4986698 9.1413296,51.9813317 9.888,52.312 C10.6346704,52.6426683 11.4346624,52.808 12.288,52.808 C12.7786691,52.808 13.2266646,52.7840002 13.632,52.736 C14.0373354,52.6879998 14.4133316,52.6053339 14.76,52.488 C15.1066684,52.3706661 15.4373318,52.2186676 15.752,52.032 C16.0666682,51.8453324 16.3839984,51.6133347 16.704,51.336 C16.8320006,51.2293328 16.9706659,51.1413337 17.12,51.072 C17.2693341,51.0026663 17.4239992,50.968 17.584,50.968 Z M30.336,40.152 C31.594673,40.152 32.7413282,40.3493314 33.776,40.744 C34.8106718,41.1386686 35.698663,41.7039963 36.44,42.44 C37.181337,43.1760037 37.7573313,44.0693281 38.168,45.12 C38.5786687,46.1706719 38.784,47.3519934 38.784,48.664 C38.784,49.9866733 38.5786687,51.1786614 38.168,52.24 C37.7573313,53.3013386 37.181337,54.202663 36.44,54.944 C35.698663,55.685337 34.8106718,56.255998 33.776,56.656 C32.7413282,57.056002 31.594673,57.256 30.336,57.256 C29.0666603,57.256 27.9120052,57.056002 26.872,56.656 C25.8319948,56.255998 24.9360038,55.685337 24.184,54.944 C23.4319962,54.202663 22.8506687,53.3013386 22.44,52.24 C22.0293313,51.1786614 21.824,49.9866733 21.824,48.664 C21.824,47.3519934 22.0293313,46.1706719 22.44,45.12 C22.8506687,44.0693281 23.4319962,43.1760037 24.184,42.44 C24.9360038,41.7039963 25.8319948,41.1386686 26.872,40.744 C27.9120052,40.3493314 29.0666603,40.152 30.336,40.152 Z M30.336,53.576 C31.477339,53.576 32.3173306,53.1733374 32.856,52.368 C33.3946694,51.5626626 33.664,50.3386749 33.664,48.696 C33.664,47.0533251 33.3946694,45.832004 32.856,45.032 C32.3173306,44.231996 31.477339,43.832 30.336,43.832 C29.1626608,43.832 28.3040027,44.231996 27.76,45.032 C27.2159973,45.832004 26.944,47.0533251 26.944,48.696 C26.944,50.3386749 27.2159973,51.5626626 27.76,52.368 C28.3040027,53.1733374 29.1626608,53.576 30.336,53.576 Z M41.504,57 L41.504,40.408 L44.576,40.408 C44.8853349,40.408 45.143999,40.4773326 45.352,40.616 C45.560001,40.7546674 45.7066662,40.9626653 45.792,41.24 L46.064,42.136 C46.3413347,41.8479986 46.6293318,41.5840012 46.928,41.344 C47.2266682,41.1039988 47.5493316,40.8960009 47.896,40.72 C48.2426684,40.5439991 48.615998,40.4053338 49.016,40.304 C49.416002,40.2026662 49.8559976,40.152 50.336,40.152 C51.3386717,40.152 52.1679967,40.4106641 52.824,40.928 C53.4800033,41.4453359 53.978665,42.1359957 54.32,43 C54.5973347,42.4879974 54.935998,42.0506685 55.336,41.688 C55.736002,41.3253315 56.1679977,41.0320011 56.632,40.808 C57.0960023,40.5839989 57.5866641,40.4186672 58.104,40.312 C58.6213359,40.2053328 59.1359974,40.152 59.648,40.152 C60.5973381,40.152 61.4399963,40.2933319 62.176,40.576 C62.9120037,40.8586681 63.5279975,41.2693306 64.024,41.808 C64.5200025,42.3466694 64.8959987,43.0079961 65.152,43.792 C65.4080013,44.5760039 65.536,45.463995 65.536,46.456 L65.536,57 L60.576,57 L60.576,46.456 C60.576,44.7386581 59.8400074,43.88 58.368,43.88 C57.6959966,43.88 57.1386689,44.1013311 56.696,44.544 C56.2533311,44.9866689 56.032,45.6239958 56.032,46.456 L56.032,57 L51.072,57 L51.072,46.456 C51.072,45.5066619 50.8853352,44.8400019 50.512,44.456 C50.1386648,44.0719981 49.589337,43.88 48.864,43.88 C48.4159978,43.88 47.992002,43.9813323 47.592,44.184 C47.191998,44.3866677 46.8160018,44.658665 46.464,45 L46.464,57 L41.504,57 Z M69.056,62.264 L69.056,40.408 L72.128,40.408 C72.4373349,40.408 72.695999,40.4773326 72.904,40.616 C73.112001,40.7546674 73.2586662,40.9626653 73.344,41.24 L73.712,42.456 C74.0320016,42.1039982 74.3759982,41.7840014 74.744,41.496 C75.1120018,41.2079986 75.5066646,40.960001 75.928,40.752 C76.3493354,40.543999 76.8026642,40.3813339 77.288,40.264 C77.7733358,40.1466661 78.3039971,40.088 78.88,40.088 C79.7440043,40.088 80.5439963,40.2799981 81.28,40.664 C82.0160037,41.0480019 82.650664,41.602663 83.184,42.328 C83.717336,43.053337 84.1359985,43.9413281 84.44,44.992 C84.7440015,46.0426719 84.896,47.23466 84.896,48.568 C84.896,49.8160062 84.7226684,50.9679947 84.376,52.024 C84.0293316,53.0800053 83.5440031,53.9973294 82.92,54.776 C82.2959969,55.5546706 81.5493377,56.1626645 80.68,56.6 C79.8106623,57.0373355 78.8480053,57.256 77.792,57.256 C76.9279957,57.256 76.2026696,57.1333346 75.616,56.888 C75.0293304,56.6426654 74.4960024,56.3120021 74.016,55.896 L74.016,62.264 L69.056,62.264 Z M77.152,43.88 C76.7893315,43.88 76.4613348,43.9146663 76.168,43.984 C75.8746652,44.0533337 75.6026679,44.1519994 75.352,44.28 C75.1013321,44.4080006 74.8693344,44.5706657 74.656,44.768 C74.4426656,44.9653343 74.2293344,45.1919987 74.016,45.448 L74.016,52.488 C74.3893352,52.9040021 74.7946645,53.1946658 75.232,53.36 C75.6693355,53.5253342 76.1279976,53.608 76.608,53.608 C77.066669,53.608 77.4879981,53.5173342 77.872,53.336 C78.2560019,53.1546658 78.5893319,52.864002 78.872,52.464 C79.1546681,52.063998 79.3759992,51.5440032 79.536,50.904 C79.6960008,50.2639968 79.776,49.4853379 79.776,48.568 C79.776,47.693329 79.7120006,46.9573363 79.584,46.36 C79.4559994,45.7626637 79.2773345,45.2800018 79.048,44.912 C78.8186655,44.5439982 78.5440016,44.2800008 78.224,44.12 C77.9039984,43.9599992 77.5466686,43.88 77.152,43.88 Z M99.008,57 C98.5386643,57 98.1840012,56.9360006 97.944,56.808 C97.7039988,56.6799994 97.5040008,56.4133354 97.344,56.008 L96.992,55.096 C96.5759979,55.4480018 96.1760019,55.757332 95.792,56.024 C95.4079981,56.290668 95.0106687,56.5173324 94.6,56.704 C94.1893313,56.8906676 93.7520023,57.0293329 93.288,57.12 C92.8239977,57.2106671 92.3093362,57.256 91.744,57.256 C90.9866629,57.256 90.2986698,57.1573343 89.68,56.96 C89.0613302,56.7626657 88.5360022,56.4720019 88.104,56.088 C87.6719978,55.7039981 87.3386678,55.2266695 87.104,54.656 C86.8693322,54.0853305 86.752,53.4266704 86.752,52.68 C86.752,52.0933304 86.9013318,51.4906698 87.2,50.872 C87.4986682,50.2533302 88.0159963,49.6906692 88.752,49.184 C89.4880037,48.6773308 90.4799938,48.253335 91.728,47.912 C92.9760062,47.570665 94.5493238,47.3786669 96.448,47.336 L96.448,46.632 C96.448,45.6613285 96.248002,44.9600022 95.848,44.528 C95.447998,44.0959978 94.8800037,43.88 94.144,43.88 C93.5573304,43.88 93.0773352,43.9439994 92.704,44.072 C92.3306648,44.2000006 91.9973348,44.3439992 91.704,44.504 C91.4106652,44.6640008 91.1253347,44.8079994 90.848,44.936 C90.5706653,45.0640006 90.2400019,45.128 89.856,45.128 C89.514665,45.128 89.2240012,45.0453342 88.984,44.88 C88.7439988,44.7146658 88.5546674,44.5093346 88.416,44.264 L87.52,42.712 C88.5226717,41.8266622 89.6346606,41.1680022 90.856,40.736 C92.0773394,40.3039978 93.3866597,40.088 94.784,40.088 C95.7866717,40.088 96.6906626,40.250665 97.496,40.576 C98.3013374,40.901335 98.9839972,41.3546638 99.544,41.936 C100.104003,42.5173362 100.533332,43.207996 100.832,44.008 C101.130668,44.808004 101.28,45.6826619 101.28,46.632 L101.28,57 L99.008,57 Z M93.312,53.976 C93.9520032,53.976 94.5119976,53.8640011 94.992,53.64 C95.4720024,53.4159989 95.9573309,53.0533358 96.448,52.552 L96.448,50.248 C95.455995,50.2906669 94.6400032,50.3759994 94,50.504 C93.3599968,50.6320006 92.8533352,50.791999 92.48,50.984 C92.1066648,51.176001 91.8480007,51.3946654 91.704,51.64 C91.5599993,51.8853346 91.488,52.1519986 91.488,52.44 C91.488,53.0053362 91.6426651,53.4026655 91.952,53.632 C92.2613349,53.8613345 92.7146637,53.976 93.312,53.976 Z M104.8,57 L104.8,40.408 L107.744,40.408 C107.989335,40.408 108.194666,40.4293331 108.36,40.472 C108.525334,40.5146669 108.663999,40.5813329 108.776,40.672 C108.888001,40.7626671 108.973333,40.8826659 109.032,41.032 C109.090667,41.1813341 109.141333,41.3626656 109.184,41.576 L109.456,43.128 C110.064003,42.1893286 110.746663,41.4480027 111.504,40.904 C112.261337,40.3599973 113.087996,40.088 113.984,40.088 C114.741337,40.088 115.349331,40.2693315 115.808,40.632 L115.168,44.28 C115.125333,44.5040011 115.040001,44.6613329 114.912,44.752 C114.783999,44.8426671 114.613334,44.888 114.4,44.888 C114.218666,44.888 114.005335,44.8640002 113.76,44.816 C113.514665,44.7679998 113.205335,44.744 112.832,44.744 C111.53066,44.744 110.50667,45.4373264 109.76,46.824 L109.76,57 L104.8,57 Z M125.12,40.152 C126.218672,40.152 127.223995,40.322665 128.136,40.664 C129.048005,41.005335 129.831997,41.5013301 130.488,42.152 C131.144003,42.8026699 131.655998,43.5999953 132.024,44.544 C132.392002,45.4880047 132.576,46.5573274 132.576,47.752 C132.576,48.1253352 132.56,48.4293322 132.528,48.664 C132.496,48.8986678 132.437334,49.0853326 132.352,49.224 C132.266666,49.3626674 132.152001,49.4586664 132.008,49.512 C131.863999,49.5653336 131.680001,49.592 131.456,49.592 L121.888,49.592 C122.048001,50.9786736 122.46933,51.9839969 123.152,52.608 C123.83467,53.2320031 124.714661,53.544 125.792,53.544 C126.368003,53.544 126.863998,53.4746674 127.28,53.336 C127.696002,53.1973326 128.066665,53.0426675 128.392,52.872 C128.717335,52.7013325 129.015999,52.5466674 129.288,52.408 C129.560001,52.2693326 129.845332,52.2 130.144,52.2 C130.538669,52.2 130.837332,52.3439986 131.04,52.632 L132.48,54.408 C131.967997,54.9946696 131.416003,55.4719982 130.824,55.84 C130.231997,56.2080018 129.624003,56.495999 129,56.704 C128.375997,56.912001 127.752003,57.0559996 127.128,57.136 C126.503997,57.2160004 125.909336,57.256 125.344,57.256 C124.181328,57.256 123.090672,57.0666686 122.072,56.688 C121.053328,56.3093314 120.16267,55.7466704 119.4,55 C118.63733,54.2533296 118.034669,53.3253389 117.592,52.216 C117.149331,51.1066611 116.928,49.8160074 116.928,48.344 C116.928,47.2346611 117.117331,46.184005 117.496,45.192 C117.874669,44.199995 118.418663,43.3306704 119.128,42.584 C119.837337,41.8373296 120.695995,41.2453355 121.704,40.808 C122.712005,40.3706645 123.85066,40.152 125.12,40.152 Z M125.216,43.576 C124.266662,43.576 123.525336,43.8453306 122.992,44.384 C122.458664,44.9226694 122.106668,45.6986616 121.936,46.712 L128.128,46.712 C128.128,46.3173314 128.077334,45.9333352 127.976,45.56 C127.874666,45.1866648 127.709334,44.8533348 127.48,44.56 C127.250666,44.2666652 126.949335,44.0293342 126.576,43.848 C126.202665,43.6666658 125.749336,43.576 125.216,43.576 Z M154.592,38.424 C154.431999,38.6800013 154.264001,38.8719994 154.088,39 C153.911999,39.1280006 153.685335,39.192 153.408,39.192 C153.162665,39.192 152.898668,39.1146674 152.616,38.96 C152.333332,38.8053326 152.013335,38.632001 151.656,38.44 C151.298665,38.247999 150.890669,38.0746674 150.432,37.92 C149.973331,37.7653326 149.45067,37.688 148.864,37.688 C147.850662,37.688 147.096002,37.9039978 146.6,38.336 C146.103998,38.7680022 145.856,39.3519963 145.856,40.088 C145.856,40.5573357 146.005332,40.9466651 146.304,41.256 C146.602668,41.5653349 146.994664,41.8319989 147.48,42.056 C147.965336,42.2800011 148.519997,42.4853324 149.144,42.672 C149.768003,42.8586676 150.40533,43.0666655 151.056,43.296 C151.70667,43.5253345 152.343997,43.7946651 152.968,44.104 C153.592003,44.4133349 154.146664,44.8079976 154.632,45.288 C155.117336,45.7680024 155.509332,46.3519966 155.808,47.04 C156.106668,47.7280034 156.256,48.5573285 156.256,49.528 C156.256,50.6053387 156.069335,51.6133286 155.696,52.552 C155.322665,53.4906714 154.781337,54.3093298 154.072,55.008 C153.362663,55.7066702 152.488005,56.255998 151.448,56.656 C150.407995,57.056002 149.226673,57.256 147.904,57.256 C147.178663,57.256 146.440004,57.1813341 145.688,57.032 C144.935996,56.8826659 144.208004,56.6720014 143.504,56.4 C142.799996,56.1279986 142.13867,55.8053352 141.52,55.432 C140.90133,55.0586648 140.362669,54.642669 139.904,54.184 L141.504,51.656 C141.621334,51.463999 141.786666,51.3093339 142,51.192 C142.213334,51.0746661 142.442665,51.016 142.688,51.016 C143.008002,51.016 143.330665,51.1173323 143.656,51.32 C143.981335,51.5226677 144.349331,51.7466654 144.76,51.992 C145.170669,52.2373346 145.642664,52.4613323 146.176,52.664 C146.709336,52.8666677 147.338663,52.968 148.064,52.968 C149.045338,52.968 149.807997,52.7520022 150.352,52.32 C150.896003,51.8879978 151.168,51.2026714 151.168,50.264 C151.168,49.7199973 151.018668,49.277335 150.72,48.936 C150.421332,48.594665 150.029336,48.3120011 149.544,48.088 C149.058664,47.8639989 148.50667,47.6666675 147.888,47.496 C147.26933,47.3253325 146.63467,47.136001 145.984,46.928 C145.33333,46.719999 144.69867,46.4640015 144.08,46.16 C143.46133,45.8559985 142.909336,45.4560025 142.424,44.96 C141.938664,44.4639975 141.546668,43.845337 141.248,43.104 C140.949332,42.362663 140.8,41.4480054 140.8,40.36 C140.8,39.485329 140.975998,38.6320042 141.328,37.8 C141.680002,36.9679958 142.19733,36.2266699 142.88,35.576 C143.56267,34.9253301 144.399995,34.4053353 145.392,34.016 C146.384005,33.6266647 147.519994,33.432 148.8,33.432 C149.51467,33.432 150.210663,33.4879994 150.888,33.6 C151.565337,33.7120006 152.207997,33.8773322 152.816,34.096 C153.424003,34.3146678 153.991997,34.5759985 154.52,34.88 C155.048003,35.1840015 155.519998,35.5279981 155.936,35.912 L154.592,38.424 Z M166.336,40.152 C167.594673,40.152 168.741328,40.3493314 169.776,40.744 C170.810672,41.1386686 171.698663,41.7039963 172.44,42.44 C173.181337,43.1760037 173.757331,44.0693281 174.168,45.12 C174.578669,46.1706719 174.784,47.3519934 174.784,48.664 C174.784,49.9866733 174.578669,51.1786614 174.168,52.24 C173.757331,53.3013386 173.181337,54.202663 172.44,54.944 C171.698663,55.685337 170.810672,56.255998 169.776,56.656 C168.741328,57.056002 167.594673,57.256 166.336,57.256 C165.06666,57.256 163.912005,57.056002 162.872,56.656 C161.831995,56.255998 160.936004,55.685337 160.184,54.944 C159.431996,54.202663 158.850669,53.3013386 158.44,52.24 C158.029331,51.1786614 157.824,49.9866733 157.824,48.664 C157.824,47.3519934 158.029331,46.1706719 158.44,45.12 C158.850669,44.0693281 159.431996,43.1760037 160.184,42.44 C160.936004,41.7039963 161.831995,41.1386686 162.872,40.744 C163.912005,40.3493314 165.06666,40.152 166.336,40.152 Z M166.336,53.576 C167.477339,53.576 168.317331,53.1733374 168.856,52.368 C169.394669,51.5626626 169.664,50.3386749 169.664,48.696 C169.664,47.0533251 169.394669,45.832004 168.856,45.032 C168.317331,44.231996 167.477339,43.832 166.336,43.832 C165.162661,43.832 164.304003,44.231996 163.76,45.032 C163.215997,45.832004 162.944,47.0533251 162.944,48.696 C162.944,50.3386749 163.215997,51.5626626 163.76,52.368 C164.304003,53.1733374 165.162661,53.576 166.336,53.576 Z M178.24,57 L178.24,43.816 L177.152,43.592 C176.778665,43.5066662 176.477334,43.3733342 176.248,43.192 C176.018666,43.0106658 175.904,42.7440018 175.904,42.392 L175.904,40.44 L178.24,40.44 L178.24,39.496 C178.24,38.5466619 178.391998,37.6880038 178.696,36.92 C179.000002,36.1519962 179.43733,35.4960027 180.008,34.952 C180.57867,34.4079973 181.274663,33.9866682 182.096,33.688 C182.917337,33.3893318 183.850661,33.24 184.896,33.24 C185.301335,33.24 185.677332,33.2639998 186.024,33.312 C186.370668,33.3600002 186.730665,33.4373328 187.104,33.544 L187.008,35.96 C186.997333,36.1306675 186.952,36.2719994 186.872,36.384 C186.792,36.4960006 186.693334,36.5866663 186.576,36.656 C186.458666,36.7253337 186.328001,36.7759998 186.184,36.808 C186.039999,36.8400002 185.898667,36.856 185.76,36.856 C185.322664,36.856 184.933335,36.8986662 184.592,36.984 C184.250665,37.0693338 183.965334,37.2213322 183.736,37.44 C183.506666,37.6586678 183.333334,37.9466649 183.216,38.304 C183.098666,38.6613351 183.04,39.1119973 183.04,39.656 L183.04,40.44 L186.944,40.44 L186.944,43.832 L183.2,43.832 L183.2,57 L178.24,57 Z M194.912,57.256 C194.122663,57.256 193.42667,57.1413345 192.824,56.912 C192.22133,56.6826655 191.714669,56.3573354 191.304,55.936 C190.893331,55.5146646 190.581334,55.0053363 190.368,54.408 C190.154666,53.8106637 190.048,53.1440037 190.048,52.408 L190.048,43.832 L188.64,43.832 C188.383999,43.832 188.165334,43.7493342 187.984,43.584 C187.802666,43.4186658 187.712,43.1760016 187.712,42.856 L187.712,40.92 L190.352,40.408 L191.328,36.36 C191.456001,35.8479974 191.818664,35.592 192.416,35.592 L195.008,35.592 L195.008,40.44 L199.04,40.44 L199.04,43.832 L195.008,43.832 L195.008,52.072 C195.008,52.4560019 195.101332,52.7733321 195.288,53.024 C195.474668,53.2746679 195.743998,53.4 196.096,53.4 C196.277334,53.4 196.429333,53.3813335 196.552,53.344 C196.674667,53.3066665 196.781333,53.2640002 196.872,53.216 C196.962667,53.1679998 197.048,53.1253335 197.128,53.088 C197.208,53.0506665 197.301333,53.032 197.408,53.032 C197.557334,53.032 197.677333,53.0666663 197.768,53.136 C197.858667,53.2053337 197.952,53.3146659 198.048,53.464 L199.552,55.816 C198.911997,56.2960024 198.192004,56.6559988 197.392,56.896 C196.591996,57.1360012 195.765338,57.256 194.912,57.256 Z M199.968,40.408 L203.936,40.408 C204.288002,40.408 204.591999,40.4879992 204.848,40.648 C205.104001,40.8080008 205.258666,41.0159987 205.312,41.272 L206.976,48.712 C207.104001,49.2773362 207.221333,49.826664 207.328,50.36 C207.434667,50.893336 207.530666,51.4213307 207.616,51.944 C207.765334,51.4213307 207.922666,50.8960026 208.088,50.368 C208.253334,49.8399974 208.415999,49.2880029 208.576,48.712 L210.656,41.256 C210.72,41.0106654 210.874665,40.8053342 211.12,40.64 C211.365335,40.4746658 211.647998,40.392 211.968,40.392 L214.176,40.392 C214.528002,40.392 214.829332,40.4746658 215.08,40.64 C215.330668,40.8053342 215.488,41.0106654 215.552,41.256 L217.536,48.712 C217.685334,49.2773362 217.837333,49.826664 217.992,50.36 C218.146667,50.893336 218.293333,51.4319973 218.432,51.976 C218.517334,51.442664 218.621333,50.9120026 218.744,50.384 C218.866667,49.8559974 218.997333,49.2986696 219.136,48.712 L220.896,41.272 C220.949334,41.0159987 221.101332,40.8080008 221.352,40.648 C221.602668,40.4879992 221.887998,40.408 222.208,40.408 L225.984,40.408 L220.832,57 L216.8,57 C216.586666,57 216.405334,56.9360006 216.256,56.808 C216.106666,56.6799994 215.989334,56.4666682 215.904,56.168 L213.536,47.896 C213.429333,47.5226648 213.328,47.1546685 213.232,46.792 C213.136,46.4293315 213.050667,46.0666685 212.976,45.704 C212.901333,46.0773352 212.818667,46.4479982 212.728,46.816 C212.637333,47.1840018 212.533334,47.5546648 212.416,47.928 L210.016,56.168 C209.855999,56.7226694 209.504003,57 208.96,57 L205.12,57 L199.968,40.408 Z M239.36,57 C238.890664,57 238.536001,56.9360006 238.296,56.808 C238.055999,56.6799994 237.856001,56.4133354 237.696,56.008 L237.344,55.096 C236.927998,55.4480018 236.528002,55.757332 236.144,56.024 C235.759998,56.290668 235.362669,56.5173324 234.952,56.704 C234.541331,56.8906676 234.104002,57.0293329 233.64,57.12 C233.175998,57.2106671 232.661336,57.256 232.096,57.256 C231.338663,57.256 230.65067,57.1573343 230.032,56.96 C229.41333,56.7626657 228.888002,56.4720019 228.456,56.088 C228.023998,55.7039981 227.690668,55.2266695 227.456,54.656 C227.221332,54.0853305 227.104,53.4266704 227.104,52.68 C227.104,52.0933304 227.253332,51.4906698 227.552,50.872 C227.850668,50.2533302 228.367996,49.6906692 229.104,49.184 C229.840004,48.6773308 230.831994,48.253335 232.08,47.912 C233.328006,47.570665 234.901324,47.3786669 236.8,47.336 L236.8,46.632 C236.8,45.6613285 236.600002,44.9600022 236.2,44.528 C235.799998,44.0959978 235.232004,43.88 234.496,43.88 C233.90933,43.88 233.429335,43.9439994 233.056,44.072 C232.682665,44.2000006 232.349335,44.3439992 232.056,44.504 C231.762665,44.6640008 231.477335,44.8079994 231.2,44.936 C230.922665,45.0640006 230.592002,45.128 230.208,45.128 C229.866665,45.128 229.576001,45.0453342 229.336,44.88 C229.095999,44.7146658 228.906667,44.5093346 228.768,44.264 L227.872,42.712 C228.874672,41.8266622 229.986661,41.1680022 231.208,40.736 C232.429339,40.3039978 233.73866,40.088 235.136,40.088 C236.138672,40.088 237.042663,40.250665 237.848,40.576 C238.653337,40.901335 239.335997,41.3546638 239.896,41.936 C240.456003,42.5173362 240.885332,43.207996 241.184,44.008 C241.482668,44.808004 241.632,45.6826619 241.632,46.632 L241.632,57 L239.36,57 Z M233.664,53.976 C234.304003,53.976 234.863998,53.8640011 235.344,53.64 C235.824002,53.4159989 236.309331,53.0533358 236.8,52.552 L236.8,50.248 C235.807995,50.2906669 234.992003,50.3759994 234.352,50.504 C233.711997,50.6320006 233.205335,50.791999 232.832,50.984 C232.458665,51.176001 232.200001,51.3946654 232.056,51.64 C231.911999,51.8853346 231.84,52.1519986 231.84,52.44 C231.84,53.0053362 231.994665,53.4026655 232.304,53.632 C232.613335,53.8613345 233.066664,53.976 233.664,53.976 Z M245.152,57 L245.152,40.408 L248.096,40.408 C248.341335,40.408 248.546666,40.4293331 248.712,40.472 C248.877334,40.5146669 249.015999,40.5813329 249.128,40.672 C249.240001,40.7626671 249.325333,40.8826659 249.384,41.032 C249.442667,41.1813341 249.493333,41.3626656 249.536,41.576 L249.808,43.128 C250.416003,42.1893286 251.098663,41.4480027 251.856,40.904 C252.613337,40.3599973 253.439996,40.088 254.336,40.088 C255.093337,40.088 255.701331,40.2693315 256.16,40.632 L255.52,44.28 C255.477333,44.5040011 255.392001,44.6613329 255.264,44.752 C255.135999,44.8426671 254.965334,44.888 254.752,44.888 C254.570666,44.888 254.357335,44.8640002 254.112,44.816 C253.866665,44.7679998 253.557335,44.744 253.184,44.744 C251.88266,44.744 250.85867,45.4373264 250.112,46.824 L250.112,57 L245.152,57 Z M265.472,40.152 C266.570672,40.152 267.575995,40.322665 268.488,40.664 C269.400005,41.005335 270.183997,41.5013301 270.84,42.152 C271.496003,42.8026699 272.007998,43.5999953 272.376,44.544 C272.744002,45.4880047 272.928,46.5573274 272.928,47.752 C272.928,48.1253352 272.912,48.4293322 272.88,48.664 C272.848,48.8986678 272.789334,49.0853326 272.704,49.224 C272.618666,49.3626674 272.504001,49.4586664 272.36,49.512 C272.215999,49.5653336 272.032001,49.592 271.808,49.592 L262.24,49.592 C262.400001,50.9786736 262.82133,51.9839969 263.504,52.608 C264.18667,53.2320031 265.066661,53.544 266.144,53.544 C266.720003,53.544 267.215998,53.4746674 267.632,53.336 C268.048002,53.1973326 268.418665,53.0426675 268.744,52.872 C269.069335,52.7013325 269.367999,52.5466674 269.64,52.408 C269.912001,52.2693326 270.197332,52.2 270.496,52.2 C270.890669,52.2 271.189332,52.3439986 271.392,52.632 L272.832,54.408 C272.319997,54.9946696 271.768003,55.4719982 271.176,55.84 C270.583997,56.2080018 269.976003,56.495999 269.352,56.704 C268.727997,56.912001 268.104003,57.0559996 267.48,57.136 C266.855997,57.2160004 266.261336,57.256 265.696,57.256 C264.533328,57.256 263.442672,57.0666686 262.424,56.688 C261.405328,56.3093314 260.51467,55.7466704 259.752,55 C258.98933,54.2533296 258.386669,53.3253389 257.944,52.216 C257.501331,51.1066611 257.28,49.8160074 257.28,48.344 C257.28,47.2346611 257.469331,46.184005 257.848,45.192 C258.226669,44.199995 258.770663,43.3306704 259.48,42.584 C260.189337,41.8373296 261.047995,41.2453355 262.056,40.808 C263.064005,40.3706645 264.20266,40.152 265.472,40.152 Z M265.568,43.576 C264.618662,43.576 263.877336,43.8453306 263.344,44.384 C262.810664,44.9226694 262.458668,45.6986616 262.288,46.712 L268.48,46.712 C268.48,46.3173314 268.429334,45.9333352 268.328,45.56 C268.226666,45.1866648 268.061334,44.8533348 267.832,44.56 C267.602666,44.2666652 267.301335,44.0293342 266.928,43.848 C266.554665,43.6666658 266.101336,43.576 265.568,43.576 Z" id="CompareSoftware"></path>
                    <path d="M5.436,24.192 C4.4759952,24.192 3.73800258,23.9240027 3.222,23.388 C2.70599742,22.8519973 2.448,22.080005 2.448,21.072 L2.448,13.632 L0.984,13.632 C0.85599936,13.632 0.74800044,13.5940004 0.66,13.518 C0.57199956,13.4419996 0.528,13.3240008 0.528,13.164 L0.528,12.312 L2.52,12.06 L3.012,8.304 C3.02800008,8.1839994 3.07999956,8.08600038 3.168,8.01 C3.25600044,7.93399962 3.36799932,7.896 3.504,7.896 L4.584,7.896 L4.584,12.084 L8.064,12.084 L8.064,13.632 L4.584,13.632 L4.584,20.928 C4.584,21.4400026 4.70799876,21.8199988 4.956,22.068 C5.20400124,22.3160012 5.52399804,22.44 5.916,22.44 C6.14000112,22.44 6.33399918,22.4100003 6.498,22.35 C6.66200082,22.2899997 6.8039994,22.2240004 6.924,22.152 C7.0440006,22.0799996 7.14599958,22.0140003 7.23,21.954 C7.31400042,21.8939997 7.38799968,21.864 7.452,21.864 C7.56400056,21.864 7.66399956,21.9319993 7.752,22.068 L8.376,23.088 C8.00799816,23.4320017 7.5640026,23.701999 7.044,23.898 C6.5239974,24.094001 5.98800276,24.192 5.436,24.192 Z M15.516,11.652 C16.2440036,11.652 16.9159969,11.7739988 17.532,12.018 C18.1480031,12.2620012 18.6799978,12.6139977 19.128,13.074 C19.5760022,13.5340023 19.9259987,14.1019966 20.178,14.778 C20.4300013,15.4540034 20.556,16.2239957 20.556,17.088 C20.556,17.4240017 20.5200004,17.6479994 20.448,17.76 C20.3759996,17.8720006 20.240001,17.928 20.04,17.928 L11.952,17.928 C11.9680001,18.6960038 12.071999,19.3639972 12.264,19.932 C12.456001,20.5000028 12.7199983,20.9739981 13.056,21.354 C13.3920017,21.7340019 13.7919977,22.0179991 14.256,22.206 C14.7200023,22.3940009 15.2399971,22.488 15.816,22.488 C16.3520027,22.488 16.8139981,22.4260006 17.202,22.302 C17.5900019,22.1779994 17.9239986,22.0440007 18.204,21.9 C18.4840014,21.7559993 18.7179991,21.6220006 18.906,21.498 C19.0940009,21.3739994 19.2559993,21.312 19.392,21.312 C19.5680009,21.312 19.7039995,21.3799993 19.8,21.516 L20.4,22.296 C20.1359987,22.6160016 19.8200018,22.8939988 19.452,23.13 C19.0839982,23.3660012 18.6900021,23.5599992 18.27,23.712 C17.8499979,23.8640008 17.4160022,23.9779996 16.968,24.054 C16.5199978,24.1300004 16.0760022,24.168 15.636,24.168 C14.7959958,24.168 14.0220035,24.0260014 13.314,23.742 C12.6059965,23.4579986 11.9940026,23.0420027 11.478,22.494 C10.9619974,21.9459973 10.5600014,21.268004 10.272,20.46 C9.98399856,19.651996 9.84,18.7240052 9.84,17.676 C9.84,16.8279958 9.9699987,16.0360037 10.23,15.3 C10.4900013,14.5639963 10.8639976,13.9260027 11.352,13.386 C11.8400024,12.8459973 12.4359965,12.4220015 13.14,12.114 C13.8440035,11.8059985 14.6359956,11.652 15.516,11.652 Z M15.564,13.224 C14.5319948,13.224 13.720003,13.521997 13.128,14.118 C12.535997,14.714003 12.1680007,15.5399947 12.024,16.596 L18.636,16.596 C18.636,16.0999975 18.5680007,15.6460021 18.432,15.234 C18.2959993,14.8219979 18.0960013,14.4660015 17.832,14.166 C17.5679987,13.8659985 17.2460019,13.6340008 16.866,13.47 C16.4859981,13.3059992 16.0520024,13.224 15.564,13.224 Z M31.572,14.004 C31.5079997,14.0920004 31.4440003,14.1599998 31.38,14.208 C31.3159997,14.2560002 31.2240006,14.28 31.104,14.28 C30.9839994,14.28 30.8540007,14.2300005 30.714,14.13 C30.5739993,14.0299995 30.3960011,13.9200006 30.18,13.8 C29.9639989,13.6799994 29.7020015,13.5700005 29.394,13.47 C29.0859985,13.3699995 28.7080022,13.32 28.26,13.32 C27.667997,13.32 27.1440023,13.4259989 26.688,13.638 C26.2319977,13.8500011 25.8500015,14.155998 25.542,14.556 C25.2339985,14.956002 25.0020008,15.4399972 24.846,16.008 C24.6899992,16.5760028 24.612,17.2119965 24.612,17.916 C24.612,18.6520037 24.6959992,19.3059971 24.864,19.878 C25.0320008,20.4500029 25.2679985,20.9299981 25.572,21.318 C25.8760015,21.7060019 26.2459978,22.001999 26.682,22.206 C27.1180022,22.410001 27.6079973,22.512 28.152,22.512 C28.6720026,22.512 29.0999983,22.4500006 29.436,22.326 C29.7720017,22.2019994 30.0519989,22.0640008 30.276,21.912 C30.5000011,21.7599992 30.6839993,21.6220006 30.828,21.498 C30.9720007,21.3739994 31.1159993,21.312 31.26,21.312 C31.4440009,21.312 31.5799996,21.3799993 31.668,21.516 L32.268,22.296 C31.7399974,22.9440032 31.080004,23.4179985 30.288,23.718 C29.495996,24.0180015 28.6600044,24.168 27.78,24.168 C27.0199962,24.168 26.3140033,24.0280014 25.662,23.748 C25.0099967,23.4679986 24.4440024,23.0620027 23.964,22.53 C23.4839976,21.9979973 23.1060014,21.3440039 22.83,20.568 C22.5539986,19.7919961 22.416,18.908005 22.416,17.916 C22.416,17.0119955 22.5419987,16.1760038 22.794,15.408 C23.0460013,14.6399962 23.4139976,13.9780028 23.898,13.422 C24.3820024,12.8659972 24.9799964,12.4320016 25.692,12.12 C26.4040036,11.8079984 27.2199954,11.652 28.14,11.652 C28.9880042,11.652 29.7399967,11.7899986 30.396,12.066 C31.0520033,12.3420014 31.6319975,12.7319975 32.136,13.236 L31.572,14.004 Z M34.488,24 L34.488,6.324 L36.624,6.324 L36.624,13.476 C37.1440026,12.9239972 37.7199968,12.4820017 38.352,12.15 C38.9840032,11.8179983 39.7119959,11.652 40.536,11.652 C41.2000033,11.652 41.7859975,11.7619989 42.294,11.982 C42.8020025,12.2020011 43.2259983,12.513998 43.566,12.918 C43.9060017,13.322002 44.1639991,13.8079972 44.34,14.376 C44.5160009,14.9440028 44.604,15.5719966 44.604,16.26 L44.604,24 L42.468,24 L42.468,16.26 C42.468,15.3399954 42.2580021,14.6260025 41.838,14.118 C41.4179979,13.6099975 40.7760043,13.356 39.912,13.356 C39.2799968,13.356 38.6900027,13.5079985 38.142,13.812 C37.5939973,14.1160015 37.0880023,14.5279974 36.624,15.048 L36.624,24 L34.488,24 Z M50.208,11.844 L50.208,24.9 C50.208,25.3880024 50.1440006,25.8419979 50.016,26.262 C49.8879994,26.6820021 49.6860014,27.0479984 49.41,27.36 C49.1339986,27.6720016 48.7780022,27.9179991 48.342,28.098 C47.9059978,28.2780009 47.384003,28.368 46.776,28.368 C46.5119987,28.368 46.2720011,28.3480002 46.056,28.308 C45.8399989,28.2679998 45.6240011,28.2080004 45.408,28.128 L45.504,26.976 C45.5200001,26.8719995 45.5559997,26.8060001 45.612,26.778 C45.6680003,26.7499999 45.7559994,26.736 45.876,26.736 C45.9400003,26.736 46.0079996,26.738 46.08,26.742 C46.1520004,26.746 46.2399995,26.748 46.344,26.748 C46.9680031,26.748 47.4119987,26.6020015 47.676,26.31 C47.9400013,26.0179985 48.072,25.5480032 48.072,24.9 L48.072,11.844 L50.208,11.844 Z M50.688,8.028 C50.688,8.23600104 50.6460004,8.4299991 50.562,8.61 C50.4779996,8.7900009 50.3660007,8.9499993 50.226,9.09 C50.0859993,9.2300007 49.9240009,9.3399996 49.74,9.42 C49.5559991,9.5000004 49.360001,9.54 49.152,9.54 C48.943999,9.54 48.7500009,9.5000004 48.57,9.42 C48.3899991,9.3399996 48.2300007,9.2300007 48.09,9.09 C47.9499993,8.9499993 47.8400004,8.7900009 47.76,8.61 C47.6799996,8.4299991 47.64,8.23600104 47.64,8.028 C47.64,7.81999896 47.6799996,7.62200094 47.76,7.434 C47.8400004,7.24599906 47.9499993,7.0820007 48.09,6.942 C48.2300007,6.8019993 48.3899991,6.6920004 48.57,6.612 C48.7500009,6.5319996 48.943999,6.492 49.152,6.492 C49.360001,6.492 49.5559991,6.5319996 49.74,6.612 C49.9240009,6.6920004 50.0859993,6.8019993 50.226,6.942 C50.3660007,7.0820007 50.4779996,7.24599906 50.562,7.434 C50.6460004,7.62200094 50.688,7.81999896 50.688,8.028 Z M58.848,11.652 C59.7360044,11.652 60.5379964,11.7999985 61.254,12.096 C61.9700036,12.3920015 62.5779975,12.8119973 63.078,13.356 C63.5780025,13.9000027 63.9619987,14.5579961 64.23,15.33 C64.4980013,16.1020039 64.632,16.9639952 64.632,17.916 C64.632,18.8760048 64.4980013,19.7399962 64.23,20.508 C63.9619987,21.2760038 63.5780025,21.9319973 63.078,22.476 C62.5779975,23.0200027 61.9700036,23.4379985 61.254,23.73 C60.5379964,24.0220015 59.7360044,24.168 58.848,24.168 C57.9599956,24.168 57.1580036,24.0220015 56.442,23.73 C55.7259964,23.4379985 55.1160025,23.0200027 54.612,22.476 C54.1079975,21.9319973 53.7200014,21.2760038 53.448,20.508 C53.1759986,19.7399962 53.04,18.8760048 53.04,17.916 C53.04,16.9639952 53.1759986,16.1020039 53.448,15.33 C53.7200014,14.5579961 54.1079975,13.9000027 54.612,13.356 C55.1160025,12.8119973 55.7259964,12.3920015 56.442,12.096 C57.1580036,11.7999985 57.9599956,11.652 58.848,11.652 Z M58.848,22.5 C60.048006,22.5 60.943997,22.098004 61.536,21.294 C62.128003,20.489996 62.424,19.3680072 62.424,17.928 C62.424,16.4799928 62.128003,15.352004 61.536,14.544 C60.943997,13.735996 60.048006,13.332 58.848,13.332 C58.239997,13.332 57.7120022,13.435999 57.264,13.644 C56.8159978,13.852001 56.4420015,14.151998 56.142,14.544 C55.8419985,14.936002 55.6180007,15.4179971 55.47,15.99 C55.3219993,16.5620029 55.248,17.2079964 55.248,17.928 C55.248,18.6480036 55.3219993,19.2919972 55.47,19.86 C55.6180007,20.4280028 55.8419985,20.9059981 56.142,21.294 C56.4420015,21.6820019 56.8159978,21.979999 57.264,22.188 C57.7120022,22.396001 58.239997,22.5 58.848,22.5 Z M75.564,14.004 C75.4999997,14.0920004 75.4360003,14.1599998 75.372,14.208 C75.3079997,14.2560002 75.2160006,14.28 75.096,14.28 C74.9759994,14.28 74.8460007,14.2300005 74.706,14.13 C74.5659993,14.0299995 74.3880011,13.9200006 74.172,13.8 C73.9559989,13.6799994 73.6940015,13.5700005 73.386,13.47 C73.0779985,13.3699995 72.7000022,13.32 72.252,13.32 C71.659997,13.32 71.1360023,13.4259989 70.68,13.638 C70.2239977,13.8500011 69.8420015,14.155998 69.534,14.556 C69.2259985,14.956002 68.9940008,15.4399972 68.838,16.008 C68.6819992,16.5760028 68.604,17.2119965 68.604,17.916 C68.604,18.6520037 68.6879992,19.3059971 68.856,19.878 C69.0240008,20.4500029 69.2599985,20.9299981 69.564,21.318 C69.8680015,21.7060019 70.2379978,22.001999 70.674,22.206 C71.1100022,22.410001 71.5999973,22.512 72.144,22.512 C72.6640026,22.512 73.0919983,22.4500006 73.428,22.326 C73.7640017,22.2019994 74.0439989,22.0640008 74.268,21.912 C74.4920011,21.7599992 74.6759993,21.6220006 74.82,21.498 C74.9640007,21.3739994 75.1079993,21.312 75.252,21.312 C75.4360009,21.312 75.5719996,21.3799993 75.66,21.516 L76.26,22.296 C75.7319974,22.9440032 75.072004,23.4179985 74.28,23.718 C73.487996,24.0180015 72.6520044,24.168 71.772,24.168 C71.0119962,24.168 70.3060033,24.0280014 69.654,23.748 C69.0019967,23.4679986 68.4360024,23.0620027 67.956,22.53 C67.4759976,21.9979973 67.0980014,21.3440039 66.822,20.568 C66.5459986,19.7919961 66.408,18.908005 66.408,17.916 C66.408,17.0119955 66.5339987,16.1760038 66.786,15.408 C67.0380013,14.6399962 67.4059976,13.9780028 67.89,13.422 C68.3740024,12.8659972 68.9719964,12.4320016 69.684,12.12 C70.3960036,11.8079984 71.2119954,11.652 72.132,11.652 C72.9800042,11.652 73.7319967,11.7899986 74.388,12.066 C75.0440033,12.3420014 75.6239975,12.7319975 76.128,13.236 L75.564,14.004 Z M80.7,6.324 L80.7,16.728 L81.252,16.728 C81.4120008,16.728 81.5439995,16.7060002 81.648,16.662 C81.7520005,16.6179998 81.8679994,16.5280007 81.996,16.392 L85.836,12.276 C85.9560006,12.1479994 86.0759994,12.0440004 86.196,11.964 C86.3160006,11.8839996 86.475999,11.844 86.676,11.844 L88.62,11.844 L84.144,16.608 C84.0319994,16.7440007 83.9220005,16.8639995 83.814,16.968 C83.7059995,17.0720005 83.5840007,17.1639996 83.448,17.244 C83.5920007,17.3400005 83.7219994,17.4499994 83.838,17.574 C83.9540006,17.6980006 84.0639995,17.8399992 84.168,18 L88.92,24 L87,24 C86.8239991,24 86.6740006,23.9660003 86.55,23.898 C86.4259994,23.8299997 86.3080006,23.7240007 86.196,23.58 L82.2,18.6 C82.0799994,18.4319992 81.9600006,18.3220003 81.84,18.27 C81.7199994,18.2179997 81.5400012,18.192 81.3,18.192 L80.7,18.192 L80.7,24 L78.552,24 L78.552,6.324 L80.7,6.324 Z M95.148,11.652 C95.8760036,11.652 96.5479969,11.7739988 97.164,12.018 C97.7800031,12.2620012 98.3119978,12.6139977 98.76,13.074 C99.2080022,13.5340023 99.5579987,14.1019966 99.81,14.778 C100.062001,15.4540034 100.188,16.2239957 100.188,17.088 C100.188,17.4240017 100.152,17.6479994 100.08,17.76 C100.008,17.8720006 99.872001,17.928 99.672,17.928 L91.584,17.928 C91.6000001,18.6960038 91.703999,19.3639972 91.896,19.932 C92.088001,20.5000028 92.3519983,20.9739981 92.688,21.354 C93.0240017,21.7340019 93.4239977,22.0179991 93.888,22.206 C94.3520023,22.3940009 94.8719971,22.488 95.448,22.488 C95.9840027,22.488 96.4459981,22.4260006 96.834,22.302 C97.2220019,22.1779994 97.5559986,22.0440007 97.836,21.9 C98.1160014,21.7559993 98.3499991,21.6220006 98.538,21.498 C98.7260009,21.3739994 98.8879993,21.312 99.024,21.312 C99.2000009,21.312 99.3359995,21.3799993 99.432,21.516 L100.032,22.296 C99.7679987,22.6160016 99.4520018,22.8939988 99.084,23.13 C98.7159982,23.3660012 98.3220021,23.5599992 97.902,23.712 C97.4819979,23.8640008 97.0480022,23.9779996 96.6,24.054 C96.1519978,24.1300004 95.7080022,24.168 95.268,24.168 C94.4279958,24.168 93.6540035,24.0260014 92.946,23.742 C92.2379965,23.4579986 91.6260026,23.0420027 91.11,22.494 C90.5939974,21.9459973 90.1920014,21.268004 89.904,20.46 C89.6159986,19.651996 89.472,18.7240052 89.472,17.676 C89.472,16.8279958 89.6019987,16.0360037 89.862,15.3 C90.1220013,14.5639963 90.4959976,13.9260027 90.984,13.386 C91.4720024,12.8459973 92.0679965,12.4220015 92.772,12.114 C93.4760035,11.8059985 94.2679956,11.652 95.148,11.652 Z M95.196,13.224 C94.1639948,13.224 93.352003,13.521997 92.76,14.118 C92.167997,14.714003 91.8000007,15.5399947 91.656,16.596 L98.268,16.596 C98.268,16.0999975 98.2000007,15.6460021 98.064,15.234 C97.9279993,14.8219979 97.7280013,14.4660015 97.464,14.166 C97.1999987,13.8659985 96.8780019,13.6340008 96.498,13.47 C96.1179981,13.3059992 95.6840024,13.224 95.196,13.224 Z M106.164,27.588 C106.092,27.7480008 106.002001,27.8759995 105.894,27.972 C105.785999,28.0680005 105.620001,28.116 105.396,28.116 L103.812,28.116 L106.032,23.292 L101.016,11.844 L102.864,11.844 C103.048001,11.844 103.191999,11.8899995 103.296,11.982 C103.400001,12.0740005 103.476,12.1759994 103.524,12.288 L106.776,19.944 C106.848,20.1200009 106.91,20.2959991 106.962,20.472 C107.014,20.6480009 107.06,20.8279991 107.1,21.012 C107.156,20.8279991 107.212,20.6480009 107.268,20.472 C107.324,20.2959991 107.388,20.1160009 107.46,19.932 L110.616,12.288 C110.664,12.1599994 110.745999,12.0540004 110.862,11.97 C110.978001,11.8859996 111.103999,11.844 111.24,11.844 L112.944,11.844 L106.164,27.588 Z" id="techjockey"></path>
                </g>
            </g>
        </g>
    </g>
</svg>