<svg xmlns="http://www.w3.org/2000/svg" xmlns:xlink="http://www.w3.org/1999/xlink" width="45.902" height="43.4" viewBox="0 0 45.902 43.4">
  <defs>
    <linearGradient id="linear-gradient" x1="0.5" y1="1.001" x2="0.5" y2="0.001" gradientUnits="objectBoundingBox">
      <stop offset="0" stop-color="#7a65cc"/>
      <stop offset="1" stop-color="#a592ef"/>
    </linearGradient>
  </defs>
  <g id="data-backup-software" transform="translate(-2 -3.3)">
    <path id="Path_376" data-name="Path 376" d="M41.3,30.2a6.747,6.747,0,0,1,5.3,2.2L43.9,9.7a7.426,7.426,0,0,0-7.3-6.4H13.4A7.34,7.34,0,0,0,6.1,9.7L3.3,32.3a7.083,7.083,0,0,1,5.4-2.1H41.3ZM18.2,12.4a.99.99,0,0,1,1.4,1.4,7.825,7.825,0,0,0-2.3,5.4,7.727,7.727,0,0,0,2.2,5.4,7.605,7.605,0,0,0,10.8,0,7.412,7.412,0,0,0,2.3-5.4,7.69,7.69,0,0,0-2-5.2l-.2,2.8a.987.987,0,0,1-1,.9h-.1a.987.987,0,0,1-.9-1l.4-4.8a.987.987,0,0,1,1-.9l4.8.4a.951.951,0,1,1-.1,1.9l-2.1-.2a9.533,9.533,0,1,1-16.9,6A8.973,8.973,0,0,1,18.2,12.4Z" fill="url(#linear-gradient)"/>
    <path id="Path_377" data-name="Path 377" d="M41.6,39a1.8,1.8,0,1,1-1.8-1.8A1.793,1.793,0,0,1,41.6,39Z" fill="#fc0"/>
    <path id="Path_378" data-name="Path 378" d="M41.3,31.4H8.7A6.7,6.7,0,0,0,2,38.1V40a6.7,6.7,0,0,0,6.7,6.7H41.2A6.7,6.7,0,0,0,47.9,40V38.1A6.553,6.553,0,0,0,41.3,31.4ZM39.8,41.9A2.9,2.9,0,1,1,42.7,39,2.9,2.9,0,0,1,39.8,41.9Z" fill="#472dc2"/>
  </g>
</svg>
