<svg xmlns="http://www.w3.org/2000/svg" width="30" height="30" viewBox="0 0 30 30">
  <g id="demo" transform="translate(-503 -1463)">
    <rect id="Rectangle_10892" data-name="Rectangle 10892" width="30" height="30" transform="translate(503 1463)" fill="none"/>
    <g id="Group_12036" data-name="Group 12036" transform="translate(503.229 1463.419)">
      <path id="laptop_4_" data-name="laptop (4)" d="M23.916,16.245V6.435A5.442,5.442,0,0,0,18.48,1H7.609A5.442,5.442,0,0,0,2.174,6.435v9.81a3.254,3.254,0,0,0,1.087,6.322H22.829a3.254,3.254,0,0,0,1.087-6.322ZM7.609,3.174H18.48a3.261,3.261,0,0,1,3.261,3.261v9.61H17.229a2.174,2.174,0,0,0-1.661.77l-.269.317h-4.51l-.267-.317a2.174,2.174,0,0,0-1.661-.77H4.348V6.435A3.261,3.261,0,0,1,7.609,3.174Zm15.22,17.219H3.261a1.087,1.087,0,1,1,0-2.174h5.6l.267.317a2.174,2.174,0,0,0,1.66.77H15.3a2.174,2.174,0,0,0,1.661-.77l.269-.317h5.6a1.087,1.087,0,1,1,0,2.174Z" transform="translate(1.725 2.797)" fill="#747474"/>
      <path id="play_1_" data-name="play (1)" d="M7.634,2.118,5.107.265A1.324,1.324,0,0,0,3,1.332V5.04A1.323,1.323,0,0,0,5.107,6.107L7.634,4.255a1.324,1.324,0,0,0,0-2.136Z" transform="translate(9.63 9.634)" fill="#1973e8"/>
    </g>
  </g>
</svg>
