<?xml version="1.0" encoding="UTF-8"?>
<svg width="20px" height="20px" viewBox="0 0 20 20" version="1.1" xmlns="http://www.w3.org/2000/svg" xmlns:xlink="http://www.w3.org/1999/xlink">
    <!-- Generator: Sketch 53.2 (72643) - https://sketchapp.com -->
    <title>departments_20</title>
    <desc>Created with Sketch.</desc>
    <g id="Page-1" stroke="none" stroke-width="1" fill="none" fill-rule="evenodd">
        <g id="Artboard" transform="translate(-79.000000, -294.000000)">
            <g id="outline-business_center-24px" transform="translate(79.000000, 294.000000)">
                <polygon id="Path" points="0 0 20 0 20 20 0 20"></polygon>
                <path d="M16.6666667,5.83333333 L13.3333333,5.83333333 L13.3333333,4.16666667 L11.6666667,2.5 L8.33333333,2.5 L6.66666667,4.16666667 L6.66666667,5.83333333 L3.33333333,5.83333333 C2.41666667,5.83333333 1.66666667,6.58333333 1.66666667,7.5 L1.66666667,11.6666667 C1.66666667,12.2916667 2,12.8166667 2.5,13.1083333 L2.5,15.8333333 C2.5,16.7583333 3.24166667,17.5 4.16666667,17.5 L15.8333333,17.5 C16.7583333,17.5 17.5,16.7583333 17.5,15.8333333 L17.5,13.1 C17.9916667,12.8083333 18.3333333,12.275 18.3333333,11.6666667 L18.3333333,7.5 C18.3333333,6.58333333 17.5833333,5.83333333 16.6666667,5.83333333 Z M8.33333333,4.16666667 L11.6666667,4.16666667 L11.6666667,5.83333333 L8.33333333,5.83333333 L8.33333333,4.16666667 Z M3.33333333,7.5 L16.6666667,7.5 L16.6666667,11.6666667 L12.5,11.6666667 L12.5,9.16666667 L7.5,9.16666667 L7.5,11.6666667 L3.33333333,11.6666667 L3.33333333,7.5 Z M10.8333333,12.5 L9.16666667,12.5 L9.16666667,10.8333333 L10.8333333,10.8333333 L10.8333333,12.5 Z M15.8333333,15.8333333 L4.16666667,15.8333333 L4.16666667,13.3333333 L7.5,13.3333333 L7.5,14.1666667 L12.5,14.1666667 L12.5,13.3333333 L15.8333333,13.3333333 L15.8333333,15.8333333 Z" id="Shape" fill="#24272C" fill-rule="nonzero"></path>
            </g>
        </g>
    </g>
</svg>