<svg xmlns="http://www.w3.org/2000/svg" width="9" height="12" viewBox="0 0 9 12">
  <path id="description" d="M11,1.511V.5a.5.5,0,1,0-1,0v.55A2.5,2.5,0,0,0,9.5,1H9V.5a.5.5,0,0,0-1,0V1H7V.5a.5.5,0,1,0-1,0V1H5.5a2.5,2.5,0,0,0-.5.05V.5a.5.5,0,1,0-1,0V1.511A2.49,2.49,0,0,0,3,3.5v6A2.5,2.5,0,0,0,5.5,12h4A2.5,2.5,0,0,0,12,9.5v-6a2.49,2.49,0,0,0-1-1.989ZM7.5,8.5h-2a.5.5,0,0,1,0-1h2a.5.5,0,0,1,0,1Zm2-2h-4a.5.5,0,0,1,0-1h4a.5.5,0,0,1,0,1Zm0-2h-4a.5.5,0,0,1,0-1h4a.5.5,0,0,1,0,1Z" transform="translate(-3 0)" fill="#24272c"/>
</svg>
