<svg xmlns="http://www.w3.org/2000/svg" xmlns:xlink="http://www.w3.org/1999/xlink" width="46" height="45.6" viewBox="0 0 46 45.6">
  <defs>
    <linearGradient id="linear-gradient" x1="0.5" y1="0.99" x2="0.5" y2="-0.008" gradientUnits="objectBoundingBox">
      <stop offset="0" stop-color="#7a65cc"/>
      <stop offset="1" stop-color="#a592ef"/>
    </linearGradient>
    <linearGradient id="linear-gradient-2" x1="0.491" y1="-0.006" x2="0.491" y2="1.001" gradientUnits="objectBoundingBox">
      <stop offset="0" stop-color="#a592ef"/>
      <stop offset="1" stop-color="#7a65cc"/>
    </linearGradient>
    <linearGradient id="linear-gradient-3" x1="0.503" y1="-0.006" x2="0.503" y2="1.001" xlink:href="#linear-gradient-2"/>
    <linearGradient id="linear-gradient-4" x1="0.505" y1="0.003" x2="0.505" y2="1.006" xlink:href="#linear-gradient-2"/>
  </defs>
  <g id="designing-solution" transform="translate(-2 -2.2)">
    <path id="Path_445" data-name="Path 445" d="M48,40.2v7.6H44V45.9a.8.8,0,0,0-1.6,0v1.9H39.9V44.3a.8.8,0,1,0-1.6,0v3.5H35.8V45.9a.86.86,0,0,0-.8-.8.789.789,0,0,0-.8.8v1.9H31.8V44.3a.8.8,0,0,0-1.6,0v3.5H27.7V45.9a.8.8,0,1,0-1.6,0v1.9H23.6V44.3a.8.8,0,0,0-1.6,0v3.5H19.5V45.9a.8.8,0,1,0-1.6,0v1.9H15.5V44.3a.8.8,0,0,0-1.6,0v3.5H11.4V45.9a.8.8,0,0,0-1.6,0v1.9H7.6V44.3a.86.86,0,0,0-.8-.8.789.789,0,0,0-.8.8v3.5H2V40.2Z" fill="#fc0"/>
    <path id="Path_446" data-name="Path 446" d="M18.2,37.1H48v3.1H2V37.1Z" fill="url(#linear-gradient)"/>
    <path id="Path_447" data-name="Path 447" d="M25,12.2l7.9,14.9L31.4,37H18.7l-1.6-9.9Z" fill="#472dc2"/>
    <path id="Path_448" data-name="Path 448" d="M24.2,11.9h1.6V21H24.2Z" fill="#fc0"/>
    <path id="Path_449" data-name="Path 449" d="M21.7,6.7V5.4h-.3V5.3c-.1,0-.2.1-.3.1H7.8V7h9.4A16.709,16.709,0,0,0,8.9,18.4l1.5.3A14.717,14.717,0,0,1,21.3,7h.5V6.8h0Z" fill="#fc0"/>
    <path id="Path_450" data-name="Path 450" d="M42.1,5.4H28.8c-.1,0-.2-.1-.3-.1v.1h-.3V6.6l-.1.3h.1V7h.4A15.143,15.143,0,0,1,39.5,18.7h0v.1l1.5-.3h0v-.1A16.292,16.292,0,0,0,32.7,7h9.4Z" fill="#fc0"/>
    <path id="Path_451" data-name="Path 451" d="M27.6,23A2.6,2.6,0,1,1,25,20.4,2.467,2.467,0,0,1,27.6,23Z" fill="#fc0"/>
    <path id="Path_452" data-name="Path 452" d="M43.9,18.2v6.1H37.8V18.2Z" fill="url(#linear-gradient-2)"/>
    <path id="Path_453" data-name="Path 453" d="M6,18.2h6.1v6.1H6Z" fill="url(#linear-gradient-3)"/>
    <path id="Path_454" data-name="Path 454" d="M42.1,3.6H47V8.5H42.1Z" fill="#472dc2"/>
    <path id="Path_455" data-name="Path 455" d="M7.9,6.2V8.5H3V3.6H7.9Z" fill="#472dc2"/>
    <path id="Path_456" data-name="Path 456" d="M24.9,2.2A3.611,3.611,0,0,1,28.3,5a3.329,3.329,0,0,1-2.1,3.8,3.458,3.458,0,0,1-3.8-5.6A3.946,3.946,0,0,1,24.9,2.2Z" fill="url(#linear-gradient-4)"/>
  </g>
</svg>
