<svg xmlns="http://www.w3.org/2000/svg" width="16" height="16" viewBox="0 0 16 16">
  <g id="discount_icon" transform="translate(-146.128 -74.397)">
    <rect id="Rectangle_11061" data-name="Rectangle 11061" width="16" height="16" transform="translate(146.129 74.397)" fill="none"/>
    <g id="noun-offer-2340123" transform="translate(62.824 61.097)">
      <path id="Path_16278" data-name="Path 16278" d="M97.244,19.915l-.477-.558a.968.968,0,0,1-.232-.558l-.054-.735a2.105,2.105,0,0,0-1.947-1.947l-.735-.054a.934.934,0,0,1-.558-.232l-.558-.477a2.126,2.126,0,0,0-2.765,0l-.558.477a.968.968,0,0,1-.558.232l-.735.054a2.105,2.105,0,0,0-1.947,1.947l-.054.735a.934.934,0,0,1-.232.558l-.477.558a2.126,2.126,0,0,0,0,2.765l.477.558a.968.968,0,0,1,.232.558l.054.735a2.105,2.105,0,0,0,1.947,1.947l.735.054a.934.934,0,0,1,.558.232l.558.477a2.087,2.087,0,0,0,2.751,0l.558-.477a.968.968,0,0,1,.558-.232l.735-.054a2.105,2.105,0,0,0,1.947-1.947l.054-.735a.934.934,0,0,1,.231-.558l.477-.558a2.079,2.079,0,0,0,.014-2.765Zm-.872,2.016-.477.558a2.1,2.1,0,0,0-.5,1.212l-.054.735a.978.978,0,0,1-.9.9l-.735.054a2.1,2.1,0,0,0-1.212.5l-.558.477a.99.99,0,0,1-1.28,0l-.558-.477a2.1,2.1,0,0,0-1.212-.5l-.735-.054a.978.978,0,0,1-.9-.9l-.054-.735a2.1,2.1,0,0,0-.5-1.212l-.477-.558a.99.99,0,0,1,0-1.28l.477-.558a2.1,2.1,0,0,0,.5-1.212l.054-.735a.978.978,0,0,1,.9-.9l.735-.054a2.1,2.1,0,0,0,1.212-.5l.558-.477a.953.953,0,0,1,.64-.232,1.027,1.027,0,0,1,.64.232l.558.477a2.1,2.1,0,0,0,1.212.5l.735.054a.978.978,0,0,1,.9.9l.054.735a2.1,2.1,0,0,0,.5,1.212l.477.558a.958.958,0,0,1,0,1.28Z" transform="translate(0)" fill="#222"/>
      <path id="Path_16279" data-name="Path 16279" d="M249.678,174.883a.575.575,0,0,0-.8,0l-3.99,3.99a.565.565,0,0,0,.409.967.6.6,0,0,0,.409-.163l3.99-3.99a.563.563,0,0,0-.014-.8Z" transform="translate(-155.988 -155.989)" fill="#222"/>
      <path id="Path_16280" data-name="Path 16280" d="M236.01,165.045a.967.967,0,1,1-.967-.967.967.967,0,0,1,.967.967" transform="translate(-145.602 -145.606)" fill="#222"/>
      <path id="Path_16281" data-name="Path 16281" d="M388.33,317.365a.967.967,0,1,1-.967-.967.967.967,0,0,1,.967.967" transform="translate(-294.218 -294.222)" fill="#222"/>
    </g>
  </g>
</svg>
