<svg id="noun-edit-1272189" xmlns="http://www.w3.org/2000/svg" width="13.445" height="14.362" viewBox="0 0 13.445 14.362">
  <path id="Path_16287" data-name="Path 16287" d="M236.733,39.455l-.356,2.494a.764.764,0,0,0,.851.866l2.536-.315a.764.764,0,0,0,.446-.218l5.019-5.019A2.306,2.306,0,1,0,241.969,34l-5.021,5.021a.764.764,0,0,0-.215.432Zm1.476.468,4.84-4.84a.778.778,0,0,1,1.1,1.1l-4.831,4.836-1.283.153Z" transform="translate(-232.747 -32.865)" fill="#472dc2"/>
  <path id="Path_16288" data-name="Path 16288" d="M110.708,16.8h-5.118a1.986,1.986,0,0,0-1.986,1.986v10.39a1.986,1.986,0,0,0,1.986,1.986h9.473a1.986,1.986,0,0,0,1.986-1.986V22.95a.764.764,0,0,0-1.528,0v6.226a.458.458,0,0,1-.458.458h-9.473a.458.458,0,0,1-.458-.458V18.786a.458.458,0,0,1,.458-.458h5.118a.764.764,0,1,0,0-1.528Z" transform="translate(-103.603 -16.8)" fill="#472dc2"/>
</svg>
