<svg xmlns="http://www.w3.org/2000/svg" width="239.535" height="51.152" viewBox="0 0 239.535 51.152">
  <g id="esellerhub" transform="translate(-4.183 -8.3)">
    <g id="tj-ems" transform="translate(2 2)">
      <g id="tj-logo-04" transform="translate(2 8)">
        <path id="Shape" d="M29.9,27.7l-1.5-1.4-1.6-1.6a1.513,1.513,0,0,0-1.9-.2c-.1.1-.2.1-.3.2l-.2.2a1.5,1.5,0,0,0,.1,1.8l.1.1,3.1,3a1.45,1.45,0,0,0,2.1,0,1.5,1.5,0,0,0,.4-1.1A1.209,1.209,0,0,0,29.9,27.7Zm0,0-1.5-1.4-1.6-1.6a1.513,1.513,0,0,0-1.9-.2c-.1.1-.2.1-.3.2l-.2.2a1.5,1.5,0,0,0,.1,1.8l.1.1,3.1,3a1.45,1.45,0,0,0,2.1,0,1.5,1.5,0,0,0,.4-1.1A1.209,1.209,0,0,0,29.9,27.7Zm0,0-1.5-1.4-1.6-1.6a1.513,1.513,0,0,0-1.9-.2c-.1.1-.2.1-.3.2l-.2.2a1.5,1.5,0,0,0,.1,1.8l.1.1,3.1,3a1.45,1.45,0,0,0,2.1,0,1.5,1.5,0,0,0,.4-1.1A1.209,1.209,0,0,0,29.9,27.7Zm0,0-1.5-1.4-1.6-1.6a1.513,1.513,0,0,0-1.9-.2c-.1.1-.2.1-.3.2l-.2.2a1.5,1.5,0,0,0,.1,1.8l.1.1,3.1,3a1.45,1.45,0,0,0,2.1,0,1.5,1.5,0,0,0,.4-1.1A1.209,1.209,0,0,0,29.9,27.7Zm0,0-1.5-1.4-1.6-1.6a1.513,1.513,0,0,0-1.9-.2c-.1.1-.2.1-.3.2l-.2.2a1.5,1.5,0,0,0,.1,1.8l.1.1,3.1,3a1.45,1.45,0,0,0,2.1,0,1.5,1.5,0,0,0,.4-1.1A1.209,1.209,0,0,0,29.9,27.7Zm13.6,6.4c-.4.8-.9,1.5-1.3,2.3h0a2.087,2.087,0,0,1-1.6,1.1,1.553,1.553,0,0,1-1.4-.5l-4-4a9.345,9.345,0,0,0,2.5-6.4,9.129,9.129,0,0,0-2.8-6.7l-1.6-1.6h0l-4.1-4.1a9.657,9.657,0,0,0-13.6,0L14,15.6A8.068,8.068,0,0,0,12.3,18h0a9.257,9.257,0,0,0-1.1,4.4A9.129,9.129,0,0,0,14,29.1l1.5,1.5,4.3,4.2a9.268,9.268,0,0,0,5.6,2.7c.4,0,.8.1,1.2.1a9.782,9.782,0,0,0,6.5-2.5l4,4a4.762,4.762,0,0,0,3.4,1.4H41a4.932,4.932,0,0,0,3.7-2.4h0c.5-.8,1-1.7,1.5-2.5Zm-9.4-4.9a5.223,5.223,0,0,1-1.4,1.9l-1.5,1.5a6.737,6.737,0,0,1-6,1.8,7.151,7.151,0,0,1-3.3-1.8L18,28.8,16.2,27a6.655,6.655,0,0,1-1.9-4.7,6.3,6.3,0,0,1,.7-3h0a4.813,4.813,0,0,1,1.2-1.6l1.5-1.5A6.652,6.652,0,0,1,24,14.5a7.26,7.26,0,0,1,3.1,1.7l3.8,3.7,2,2a6.569,6.569,0,0,1,1.2,7.3Zm-5.6-2.9-1.6-1.6a1.513,1.513,0,0,0-1.9-.2c-.1.1-.2.1-.3.2l-.2.2a1.5,1.5,0,0,0,.1,1.8l.1.1,3.1,3a1.45,1.45,0,0,0,2.1,0,1.5,1.5,0,0,0,.4-1.1,2.1,2.1,0,0,0-.4-1.1Zm1.4,1.4-1.5-1.4-1.6-1.6a1.513,1.513,0,0,0-1.9-.2c-.1.1-.2.1-.3.2l-.2.2a1.5,1.5,0,0,0,.1,1.8l.1.1,3.1,3a1.45,1.45,0,0,0,2.1,0,1.5,1.5,0,0,0,.4-1.1A1.209,1.209,0,0,0,29.9,27.7Zm0,0-1.5-1.4-1.6-1.6a1.513,1.513,0,0,0-1.9-.2c-.1.1-.2.1-.3.2l-.2.2a1.5,1.5,0,0,0,.1,1.8l.1.1,3.1,3a1.45,1.45,0,0,0,2.1,0,1.5,1.5,0,0,0,.4-1.1A1.209,1.209,0,0,0,29.9,27.7Zm0,0-1.5-1.4-1.6-1.6a1.513,1.513,0,0,0-1.9-.2c-.1.1-.2.1-.3.2l-.2.2a1.5,1.5,0,0,0,.1,1.8l.1.1,3.1,3a1.45,1.45,0,0,0,2.1,0,1.5,1.5,0,0,0,.4-1.1A1.209,1.209,0,0,0,29.9,27.7Zm0,0-1.5-1.4-1.6-1.6a1.513,1.513,0,0,0-1.9-.2c-.1.1-.2.1-.3.2l-.2.2a1.5,1.5,0,0,0,.1,1.8l.1.1,3.1,3a1.45,1.45,0,0,0,2.1,0,1.5,1.5,0,0,0,.4-1.1A1.209,1.209,0,0,0,29.9,27.7Zm0,0-1.5-1.4-1.6-1.6a1.513,1.513,0,0,0-1.9-.2c-.1.1-.2.1-.3.2l-.2.2a1.5,1.5,0,0,0,.1,1.8l.1.1,3.1,3a1.45,1.45,0,0,0,2.1,0,1.5,1.5,0,0,0,.4-1.1A1.209,1.209,0,0,0,29.9,27.7Z" fill="#f4a86f"/>
        <path id="Path" d="M46.2,35.5l-2.7-1.4a20.94,20.94,0,0,0,2-13.7,21.233,21.233,0,0,0-3.6-8.3l2.5-1.7a23.124,23.124,0,0,1,4,9.4,23.646,23.646,0,0,1-2.2,15.7Z" fill="#f2796e"/>
        <path id="Path_1" data-name="Path 1" d="M44.4,10.5,42,12.2a21.529,21.529,0,0,0-18.7-9l-.2-3A24.458,24.458,0,0,1,44.4,10.5Z" fill="#6186bd"/>
        <path id="Path_2" data-name="Path 2" d="M23.2,3.2a26.956,26.956,0,0,0-2.8.4A21.254,21.254,0,0,0,5.5,14.5L2.8,13.1A24.38,24.38,0,0,1,19.8.6C20.9.4,21.9.3,23,.2Z" fill="#d57fb3"/>
        <path id="Path_3" data-name="Path 3" d="M6.9,36.6,4.5,38.3A22.543,22.543,0,0,1,.6,29,24.4,24.4,0,0,1,3,13.1l2.7,1.4A20.946,20.946,0,0,0,3.6,28.4a17.81,17.81,0,0,0,3.3,8.2Z" fill="#00a9da"/>
        <path id="Path_4" data-name="Path 4" d="M26,47.2a1.606,1.606,0,0,1-.5,1.1,1.5,1.5,0,0,1-1.1.4,24.441,24.441,0,0,1-20-10.4l2.4-1.7a21.271,21.271,0,0,0,17.6,9.1h0a1.159,1.159,0,0,1,1,.4A3.881,3.881,0,0,1,26,47.2Z" fill="#d5e27e"/>
      </g>
      <path id="Line" d="M62,8h4V57H62Z" fill="#fff"/>
      <g id="Group" transform="translate(75)">
        <path id="techjockey" d="M5.4,24.2a2.947,2.947,0,0,1-2.2-.8,3.2,3.2,0,0,1-.8-2.3V13.7H1a.367.367,0,0,1-.3-.1c-.1-.1-.1-.2-.1-.4v-.9l2-.3L3,8.3c0-.1.1-.2.2-.3a.367.367,0,0,1,.3-.1H4.6v4.2H8.1v1.5H4.6v7.3A1.246,1.246,0,0,0,5,22a1.528,1.528,0,0,0,1,.4,1.268,1.268,0,0,0,.6-.1c.2-.1.3-.1.4-.2l.1-.1h.1a.31.31,0,0,1,.2-.1c.1,0,.2.1.3.2l.6,1a3.219,3.219,0,0,1-1.3.8A4.529,4.529,0,0,1,5.4,24.2ZM15.5,11.7a4.477,4.477,0,0,1,2,.4,4.188,4.188,0,0,1,1.6,1.1,4.784,4.784,0,0,1,1,1.7,5.558,5.558,0,0,1,.4,2.3c0,.3,0,.6-.1.7a.52.52,0,0,1-.4.2H12a6.014,6.014,0,0,0,.3,2,4.678,4.678,0,0,0,.8,1.4,2.73,2.73,0,0,0,1.2.9,4.146,4.146,0,0,0,1.6.3,5.9,5.9,0,0,0,1.4-.2,10.375,10.375,0,0,0,1-.4,4.348,4.348,0,0,0,.7-.4c.2-.1.3-.2.5-.2a.52.52,0,0,1,.4.2l.6.8a6.47,6.47,0,0,1-.9.8l-1.2.6a6.753,6.753,0,0,1-1.4.2,5.7,5.7,0,0,1-1.3.1,5.867,5.867,0,0,1-2.3-.4,5.675,5.675,0,0,1-1.8-1.2,5.613,5.613,0,0,1-1.2-2,7.885,7.885,0,0,1-.4-2.8,6.722,6.722,0,0,1,.4-2.4,5.927,5.927,0,0,1,1.1-1.9,5.936,5.936,0,0,1,1.8-1.3A3.6,3.6,0,0,1,15.5,11.7Zm.1,1.5a3.244,3.244,0,0,0-2.4.9,3.879,3.879,0,0,0-1.1,2.5h6.6a6.753,6.753,0,0,0-.2-1.4,2.384,2.384,0,0,0-.6-1.1,3.592,3.592,0,0,0-1-.7A5.067,5.067,0,0,0,15.6,13.2Zm16,.8c-.1.1-.1.2-.2.2s-.2.1-.3.1a.756.756,0,0,1-.4-.1,2.186,2.186,0,0,0-.5-.3,6.89,6.89,0,0,0-.8-.3,3.6,3.6,0,0,0-1.1-.2,4.146,4.146,0,0,0-1.6.3,2.445,2.445,0,0,0-1.1.9,3.224,3.224,0,0,0-.8,1.4,5.845,5.845,0,0,0-.2,1.9,6.448,6.448,0,0,0,.3,2,3.653,3.653,0,0,0,.7,1.4,3.126,3.126,0,0,0,1.1.9,3.339,3.339,0,0,0,1.5.3,5.067,5.067,0,0,0,1.3-.2,5.938,5.938,0,0,0,.8-.4,2.092,2.092,0,0,1,.6-.4.758.758,0,0,1,.4-.2c.1,0,.3,0,.3.1l.7.9a4.831,4.831,0,0,1-2,1.4,6.9,6.9,0,0,1-2.5.4,4.638,4.638,0,0,1-2.1-.4A5.229,5.229,0,0,1,24,22.5a4.333,4.333,0,0,1-1.1-2,7.664,7.664,0,0,1-.4-2.7,6.9,6.9,0,0,1,.4-2.5,6.44,6.44,0,0,1,1.1-2A4.628,4.628,0,0,1,25.8,12a6.042,6.042,0,0,1,2.4-.5,5.867,5.867,0,0,1,2.3.4,5.229,5.229,0,0,1,1.7,1.2Zm2.9,10V6.3h2.1v7.2a5.155,5.155,0,0,1,1.7-1.3,5.091,5.091,0,0,1,2.2-.5,5.23,5.23,0,0,1,1.8.3,3.805,3.805,0,0,1,1.3.9,5.3,5.3,0,0,1,.8,1.5,5.822,5.822,0,0,1,.3,1.9V24H42.6V16.3a3.281,3.281,0,0,0-.6-2.1,2.407,2.407,0,0,0-1.9-.8,4.075,4.075,0,0,0-1.8.5,5.665,5.665,0,0,0-1.5,1.2v9H34.5ZM50.2,11.8V24.9a6.752,6.752,0,0,1-.2,1.4,2.384,2.384,0,0,1-.6,1.1,2.1,2.1,0,0,1-1.1.7,3.808,3.808,0,0,1-1.6.3,1.483,1.483,0,0,1-.7-.1,1.421,1.421,0,0,1-.6-.2l.1-1.2a.349.349,0,0,1,.1-.2h.8c.6,0,1.1-.1,1.3-.4a1.955,1.955,0,0,0,.4-1.4V11.8ZM50.7,8a1.268,1.268,0,0,1-.1.6c-.1.2-.2.3-.3.5a2.186,2.186,0,0,1-.5.3,1.85,1.85,0,0,1-1.2,0c-.2-.1-.3-.2-.5-.3a2.186,2.186,0,0,1-.3-.5,1.268,1.268,0,0,1-.1-.6,1.268,1.268,0,0,1,.1-.6,2.186,2.186,0,0,1,.3-.5,2.186,2.186,0,0,1,.5-.3,1.85,1.85,0,0,1,1.2,0c.2.1.3.2.5.3a.85.85,0,0,1,.3.5C50.6,7.6,50.7,7.8,50.7,8Zm8.1,3.7a6.051,6.051,0,0,1,2.4.4A4.628,4.628,0,0,1,63,13.4a5.613,5.613,0,0,1,1.2,2,7.1,7.1,0,0,1,.4,2.6,7.1,7.1,0,0,1-.4,2.6,6.657,6.657,0,0,1-1.2,2,5.936,5.936,0,0,1-1.8,1.3,7.4,7.4,0,0,1-4.8,0,4.628,4.628,0,0,1-1.8-1.3,6.657,6.657,0,0,1-1.2-2A7.1,7.1,0,0,1,53,18a7.1,7.1,0,0,1,.4-2.6,6.657,6.657,0,0,1,1.2-2,4.628,4.628,0,0,1,1.8-1.3A6.375,6.375,0,0,1,58.8,11.7Zm0,10.8a3.16,3.16,0,0,0,2.7-1.2,5.51,5.51,0,0,0,.9-3.4,5.714,5.714,0,0,0-.9-3.4,3.16,3.16,0,0,0-2.7-1.2,4.146,4.146,0,0,0-1.6.3,2.445,2.445,0,0,0-1.1.9,6.11,6.11,0,0,0-.7,1.4,11.076,11.076,0,0,0-.2,1.9,10.074,10.074,0,0,0,.2,1.9,3.088,3.088,0,0,0,.7,1.4,3.126,3.126,0,0,0,1.1.9A2.352,2.352,0,0,0,58.8,22.5ZM75.6,14c-.1.1-.1.2-.2.2s-.2.1-.3.1a.756.756,0,0,1-.4-.1c-.2-.1-.3-.2-.5-.3a6.89,6.89,0,0,0-.8-.3,3.6,3.6,0,0,0-1.1-.2,4.146,4.146,0,0,0-1.6.3,2.445,2.445,0,0,0-1.1.9,3.223,3.223,0,0,0-.8,1.4,5.845,5.845,0,0,0-.2,1.9,6.448,6.448,0,0,0,.3,2,3.653,3.653,0,0,0,.7,1.4,3.126,3.126,0,0,0,1.1.9,3.339,3.339,0,0,0,1.5.3,5.067,5.067,0,0,0,1.3-.2,5.938,5.938,0,0,0,.8-.4,2.092,2.092,0,0,1,.6-.4c.2-.1.3-.2.4-.2a.52.52,0,0,1,.4.2l.6.8a4.831,4.831,0,0,1-2,1.4,6.9,6.9,0,0,1-2.5.4,4.638,4.638,0,0,1-2.1-.4A5.229,5.229,0,0,1,68,22.5a4.333,4.333,0,0,1-1.1-2,7.664,7.664,0,0,1-.4-2.7,6.9,6.9,0,0,1,.4-2.5,6.44,6.44,0,0,1,1.1-2A4.628,4.628,0,0,1,69.8,12a6.042,6.042,0,0,1,2.4-.5,5.867,5.867,0,0,1,2.3.4,5.229,5.229,0,0,1,1.7,1.2Zm5.1-7.7V16.7h.6c.2,0,.3,0,.4-.1q.15,0,.3-.3l3.8-4.1a1.38,1.38,0,0,1,.4-.3.749.749,0,0,1,.5-.1h1.9l-4.5,4.8c-.1.1-.2.3-.3.4a1.38,1.38,0,0,1-.4.3c.1.1.3.2.4.3s.2.3.3.4l4.8,6H87c-.2,0-.3,0-.4-.1a1.38,1.38,0,0,0-.4-.3l-4-5c-.1-.2-.2-.3-.4-.3a.749.749,0,0,0-.5-.1h-.6V24H78.6V6.3Zm14.4,5.4a4.477,4.477,0,0,1,2,.4,4.188,4.188,0,0,1,1.6,1.1,4.784,4.784,0,0,1,1,1.7,5.558,5.558,0,0,1,.4,2.3c0,.3,0,.6-.1.7a.52.52,0,0,1-.4.2H91.5a6.013,6.013,0,0,0,.3,2,4.678,4.678,0,0,0,.8,1.4,2.73,2.73,0,0,0,1.2.9,4.146,4.146,0,0,0,1.6.3,5.9,5.9,0,0,0,1.4-.2,10.375,10.375,0,0,0,1-.4,4.348,4.348,0,0,0,.7-.4c.2-.1.3-.2.5-.2a.52.52,0,0,1,.4.2l.6.8a6.47,6.47,0,0,1-.9.8l-1.2.6a3.079,3.079,0,0,1-1.3.3,5.7,5.7,0,0,1-1.3.1,5.867,5.867,0,0,1-2.3-.4,5.675,5.675,0,0,1-1.8-1.2,5.613,5.613,0,0,1-1.2-2,7.885,7.885,0,0,1-.4-2.8,6.722,6.722,0,0,1,.4-2.4,5.927,5.927,0,0,1,1.1-1.9,5.936,5.936,0,0,1,1.8-1.3A3.339,3.339,0,0,1,95.1,11.7Zm.1,1.5a3.244,3.244,0,0,0-2.4.9,3.879,3.879,0,0,0-1.1,2.5h6.6a6.753,6.753,0,0,0-.2-1.4,2.384,2.384,0,0,0-.6-1.1,3.592,3.592,0,0,0-1-.7A5.067,5.067,0,0,0,95.2,13.2Zm11,14.4a1.38,1.38,0,0,1-.3.4.749.749,0,0,1-.5.1h-1.6l2.2-4.8-5-11.4h1.8c.2,0,.3,0,.4.1s.2.2.2.3l3.3,7.7c.1.2.1.4.2.5a1.087,1.087,0,0,1,.1.5l.2-.5h0c.1-.2.1-.4.2-.5l3.2-7.6c0-.1.1-.2.2-.3s.2-.1.4-.1h1.7Z" fill="#fff"/>
        <g id="Group-24" transform="translate(0.072 32.227)">
          <path id="Shape-2" data-name="Shape" d="M5.274,18.071c0,2.491,1.035,3.742,3.128,3.742a4.549,4.549,0,0,0,1.689-.271,5.758,5.758,0,0,0,1.118-.59l.868-.59a1.627,1.627,0,0,1,.916-.26.885.885,0,0,1,.428.106,1.189,1.189,0,0,1,.369.283l1.189,1.369a14.788,14.788,0,0,1-1.748,1.511,9.267,9.267,0,0,1-1.712,1.051,9.1,9.1,0,0,1-1.867.614,10.78,10.78,0,0,1-2.129.189,6.813,6.813,0,0,1-2.688-.508,5.841,5.841,0,0,1-2.081-1.428,6.259,6.259,0,0,1-1.344-2.219,8.265,8.265,0,0,1-.476-2.9,11.93,11.93,0,0,1,.285-2.609A11.227,11.227,0,0,1,2.063,13.2,10.681,10.681,0,0,1,3.4,11.1a8.432,8.432,0,0,1,1.8-1.641A8.285,8.285,0,0,1,9.948,7.967a6.466,6.466,0,0,1,2.379.39,5.575,5.575,0,0,1,1.689.991,4.144,4.144,0,0,1,1.023,1.369,3.52,3.52,0,0,1,.357,1.5,4.692,4.692,0,0,1-.464,2.077,4.243,4.243,0,0,1-1.7,1.641,11,11,0,0,1-3.08,1.275,30.931,30.931,0,0,1-4.9.826Zm4.365-7.082A3.111,3.111,0,0,0,8.3,11.3a4.055,4.055,0,0,0-1.189.838,6.144,6.144,0,0,0-.892,1.322,7.871,7.871,0,0,0-.63,1.711,26.242,26.242,0,0,0,2.9-.567,7.31,7.31,0,0,0,1.712-.649,1.98,1.98,0,0,0,.821-.755,2.007,2.007,0,0,0,.19-.885,1.068,1.068,0,0,0-.1-.46,1.039,1.039,0,0,0-.285-.425,1.512,1.512,0,0,0-.5-.319A2.012,2.012,0,0,0,9.663,11Z" fill="#fff"/>
          <path id="Path-2" data-name="Path" d="M17.987,13.314H25.92l-.452,3.541H17.595Z" fill="#fff"/>
          <path id="Path-3" data-name="Path" d="M42.343,5.772a2.12,2.12,0,0,1-.5.519,1.04,1.04,0,0,1-.595.165,1.2,1.2,0,0,1-.7-.248l-.821-.567a7.637,7.637,0,0,0-1.082-.567,4.059,4.059,0,0,0-1.5-.248,4.131,4.131,0,0,0-1.439.236,2.774,2.774,0,0,0-1.047.661,2.572,2.572,0,0,0-.63.991,3.518,3.518,0,0,0-.214,1.18,1.844,1.844,0,0,0,.369,1.18,3.42,3.42,0,0,0,.987.826,7.577,7.577,0,0,0,1.391.649c.523.189,1.059.4,1.594.614a15.026,15.026,0,0,1,1.594.755,5.524,5.524,0,0,1,1.391,1.05,4.61,4.61,0,0,1,.975,1.511,5.453,5.453,0,0,1,.381,2.136,9.016,9.016,0,0,1-.606,3.3,8.089,8.089,0,0,1-4.46,4.58,9.049,9.049,0,0,1-3.568.685,9.175,9.175,0,0,1-2.034-.224,10.118,10.118,0,0,1-1.915-.637,9.53,9.53,0,0,1-1.689-.98,6.437,6.437,0,0,1-1.32-1.275l1.665-2.231a1.805,1.805,0,0,1,.487-.4,1.2,1.2,0,0,1,.607-.177,1.361,1.361,0,0,1,.844.342l.928.72a7.7,7.7,0,0,0,1.189.732,4.2,4.2,0,0,0,1.772.33,3.5,3.5,0,0,0,2.6-.932,3.677,3.677,0,0,0,.928-2.679,2.054,2.054,0,0,0-.369-1.275,3.263,3.263,0,0,0-.975-.85,8.175,8.175,0,0,0-1.368-.6l-1.582-.555a15.518,15.518,0,0,1-1.57-.708A5.1,5.1,0,0,1,30.7,12.748a4.906,4.906,0,0,1-.963-1.535,6.061,6.061,0,0,1-.369-2.278,7.878,7.878,0,0,1,.571-2.974,7.664,7.664,0,0,1,1.641-2.538,8.03,8.03,0,0,1,2.592-1.759,8.536,8.536,0,0,1,3.413-.649,8.289,8.289,0,0,1,1.891.212,8.847,8.847,0,0,1,1.713.578,7.286,7.286,0,0,1,1.439.873,6.642,6.642,0,0,1,1.189,1.1Z" fill="#fff"/>
          <path id="Shape-3" data-name="Shape" d="M48.742,18.071c0,2.491,1.046,3.742,3.128,3.742a4.5,4.5,0,0,0,1.689-.271,5.894,5.894,0,0,0,1.189-.59l.868-.59a1.6,1.6,0,0,1,.916-.26.956.956,0,0,1,.428.106,1.344,1.344,0,0,1,.357.283l1.106,1.346a15.872,15.872,0,0,1-1.7,1.511A9.767,9.767,0,0,1,55,24.4a9.245,9.245,0,0,1-1.855.614A11.025,11.025,0,0,1,51,25.2a6.859,6.859,0,0,1-2.688-.507,5.949,5.949,0,0,1-2.081-1.428,6.624,6.624,0,0,1-1.344-2.219,8.262,8.262,0,0,1-.476-2.9A11.917,11.917,0,0,1,45.6,13.114a10.727,10.727,0,0,1,1.344-2.1A8.668,8.668,0,0,1,48.73,9.372a8.122,8.122,0,0,1,2.2-1.086,8.023,8.023,0,0,1,2.533-.4,6.454,6.454,0,0,1,2.319.39,5.432,5.432,0,0,1,1.689.991,4.347,4.347,0,0,1,1.035,1.369,3.624,3.624,0,0,1,.345,1.5,4.833,4.833,0,0,1-.452,2.077,4.359,4.359,0,0,1-1.677,1.723A10.746,10.746,0,0,1,53.665,17.2a31.137,31.137,0,0,1-4.912.826Zm4.376-7.082a3.077,3.077,0,0,0-1.344.307,3.746,3.746,0,0,0-1.189.838,5.763,5.763,0,0,0-.9,1.322,8.538,8.538,0,0,0-.63,1.711,26.552,26.552,0,0,0,2.914-.567,7.31,7.31,0,0,0,1.713-.649,1.931,1.931,0,0,0,.809-.755,2.017,2.017,0,0,0,.2-.885,1.279,1.279,0,0,0-.1-.46,1.181,1.181,0,0,0-.3-.425,1.513,1.513,0,0,0-.5-.319A1.953,1.953,0,0,0,53.118,11Z" fill="#fff"/>
          <path id="Path-4" data-name="Path" d="M60.242,24.976,63.179.59h4.412L64.642,24.941Z" fill="#fff"/>
          <path id="Path-5" data-name="Path" d="M68.162,24.976,71.088.59h4.4L72.55,24.941Z" fill="#fff"/>
          <path id="Shape-4" data-name="Shape" d="M80.459,18.071c0,2.491,1.047,3.742,3.128,3.742a4.5,4.5,0,0,0,1.689-.271,5.891,5.891,0,0,0,1.13-.59l.868-.59a1.6,1.6,0,0,1,.916-.26.956.956,0,0,1,.428.106,1.34,1.34,0,0,1,.357.283l1.189,1.369a15.862,15.862,0,0,1-1.7,1.511,9.761,9.761,0,0,1-1.724,1.051,9.243,9.243,0,0,1-1.855.614,11.017,11.017,0,0,1-2.141.189,6.859,6.859,0,0,1-2.688-.508,5.949,5.949,0,0,1-2.081-1.428,6.624,6.624,0,0,1-1.344-2.219,8.264,8.264,0,0,1-.476-2.9,11.916,11.916,0,0,1,1.13-5.028,10.725,10.725,0,0,1,1.356-2.1A8.67,8.67,0,0,1,80.423,9.4a8.124,8.124,0,0,1,2.2-1.086,8.023,8.023,0,0,1,2.533-.4,6.454,6.454,0,0,1,2.319.39,5.433,5.433,0,0,1,1.689.991A4.346,4.346,0,0,1,90.2,10.658a3.624,3.624,0,0,1,.333,1.5,4.831,4.831,0,0,1-.452,2.077,4.359,4.359,0,0,1-1.641,1.7,10.751,10.751,0,0,1-3.068,1.275,31.138,31.138,0,0,1-4.912.826Zm4.376-7.082a3.077,3.077,0,0,0-1.344.307,3.746,3.746,0,0,0-1.189.838,5.77,5.77,0,0,0-.9,1.322,8.538,8.538,0,0,0-.63,1.711,26.547,26.547,0,0,0,2.914-.567,7.31,7.31,0,0,0,1.713-.649A1.933,1.933,0,0,0,86.2,13.2a2.018,2.018,0,0,0,.2-.885,1.277,1.277,0,0,0-.1-.46,1.18,1.18,0,0,0-.3-.425,1.512,1.512,0,0,0-.5-.319A1.953,1.953,0,0,0,84.835,11Z" fill="#fff"/>
          <path id="Path-6" data-name="Path" d="M97.667,11.9A11.8,11.8,0,0,1,99,9.891a6.156,6.156,0,0,1,1.475-1.3,3.585,3.585,0,0,1,1.546-.543,3.229,3.229,0,0,1,1.605.283l-.808,4.237a3.772,3.772,0,0,0-1.784-.342,2.673,2.673,0,0,0-1.546.649,5.468,5.468,0,0,0-1.272,1.712,14.578,14.578,0,0,0-.987,2.845l-.9,7.542H91.935L93.957,8.121h2.307a1.6,1.6,0,0,1,1.082.342,1.41,1.41,0,0,1,.393,1.1Z" fill="#fff"/>
          <path id="Path-7" data-name="Path" d="M131.977,1.287l-2.89,23.69H124.33L125.6,14.754h-9.241l-1.248,10.257h-4.757l2.889-23.69H118l-1.189,10.139h9.241l1.189-10.139Z" fill="#fff"/>
          <path id="Path-8" data-name="Path" d="M149.09,8.144l-2.021,16.832h-2.26c-1.058,0-1.593-.508-1.593-1.511V21.943a8.722,8.722,0,0,1-2.676,2.479,6.184,6.184,0,0,1-3.009.8,4.127,4.127,0,0,1-1.891-.425,3.664,3.664,0,0,1-1.391-1.18,5.169,5.169,0,0,1-.773-2.007,8.526,8.526,0,0,1,0-2.715L134.665,8.2h4.471L137.864,18.9a4.038,4.038,0,0,0,.155,2.148,1.19,1.19,0,0,0,1.189.626,2.535,2.535,0,0,0,1.189-.33,4.632,4.632,0,0,0,1.189-.956,8,8,0,0,0,1.071-1.5,9.749,9.749,0,0,0,.808-1.948L144.524,8.2Z" fill="#fff"/>
          <path id="Shape-5" data-name="Shape" d="M156.571,11.131a9.351,9.351,0,0,1,2.521-2.361,5.452,5.452,0,0,1,2.938-.862,4.509,4.509,0,0,1,1.89.378,3.739,3.739,0,0,1,1.451,1.18,5.445,5.445,0,0,1,.94,1.971,10.365,10.365,0,0,1,.333,2.821,13.16,13.16,0,0,1-.3,2.833A13.916,13.916,0,0,1,165.5,19.7a11.882,11.882,0,0,1-1.237,2.136,9.458,9.458,0,0,1-1.653,1.771,7.311,7.311,0,0,1-1.926,1.18,5.664,5.664,0,0,1-2.105.413,4.786,4.786,0,0,1-2.236-.5,5.047,5.047,0,0,1-1.653-1.334l-.1.378a2,2,0,0,1-.524.909,1.481,1.481,0,0,1-1.034.3h-2.45L153.467.59h4.388Zm-1.189,9.821a3.015,3.015,0,0,0,1.189.708,4.465,4.465,0,0,0,1.272.2,2.9,2.9,0,0,0,1.784-.625,5.537,5.537,0,0,0,1.4-1.653,8.977,8.977,0,0,0,.9-2.361,10.675,10.675,0,0,0,.321-2.609,4.592,4.592,0,0,0-.523-2.5,1.643,1.643,0,0,0-1.451-.8,2.221,2.221,0,0,0-1.189.437,6.356,6.356,0,0,0-1.189,1.18,10.144,10.144,0,0,0-1.082,1.782,13.449,13.449,0,0,0-.869,2.2Z" fill="#fff"/>
        </g>
      </g>
    </g>
  </g>
</svg>
