<svg xmlns="http://www.w3.org/2000/svg" width="170.621" height="36.436" viewBox="0 0 170.621 36.436">
  <g id="esellerhub_logo_white" transform="translate(-4.179 -8.3)">
    <g id="tj-ems" transform="translate(4.179 8.3)">
      <g id="tj-logo-04" transform="translate(0 1.327)">
        <path id="Shape" d="M24.52,23.01l-1.068-1-1.14-1.14a1.078,1.078,0,0,0-1.353-.142c-.071.071-.142.071-.214.142l-.142.142a1.068,1.068,0,0,0,.071,1.282l.071.071,2.208,2.137a1.033,1.033,0,0,0,1.5,0,1.068,1.068,0,0,0,.285-.784A.861.861,0,0,0,24.52,23.01Zm0,0-1.068-1-1.14-1.14a1.078,1.078,0,0,0-1.353-.142c-.071.071-.142.071-.214.142l-.142.142a1.068,1.068,0,0,0,.071,1.282l.071.071,2.208,2.137a1.033,1.033,0,0,0,1.5,0,1.068,1.068,0,0,0,.285-.784A.861.861,0,0,0,24.52,23.01Zm0,0-1.068-1-1.14-1.14a1.078,1.078,0,0,0-1.353-.142c-.071.071-.142.071-.214.142l-.142.142a1.068,1.068,0,0,0,.071,1.282l.071.071,2.208,2.137a1.033,1.033,0,0,0,1.5,0,1.068,1.068,0,0,0,.285-.784A.861.861,0,0,0,24.52,23.01Zm0,0-1.068-1-1.14-1.14a1.078,1.078,0,0,0-1.353-.142c-.071.071-.142.071-.214.142l-.142.142a1.068,1.068,0,0,0,.071,1.282l.071.071,2.208,2.137a1.033,1.033,0,0,0,1.5,0,1.068,1.068,0,0,0,.285-.784A.861.861,0,0,0,24.52,23.01Zm0,0-1.068-1-1.14-1.14a1.078,1.078,0,0,0-1.353-.142c-.071.071-.142.071-.214.142l-.142.142a1.068,1.068,0,0,0,.071,1.282l.071.071,2.208,2.137a1.033,1.033,0,0,0,1.5,0,1.068,1.068,0,0,0,.285-.784A.861.861,0,0,0,24.52,23.01Zm9.687,4.559c-.285.57-.641,1.068-.926,1.638h0a1.487,1.487,0,0,1-1.14.784,1.106,1.106,0,0,1-1-.356l-2.849-2.849a6.656,6.656,0,0,0,1.781-4.559,6.5,6.5,0,0,0-1.994-4.772l-1.14-1.14h0l-2.92-2.92a6.879,6.879,0,0,0-9.687,0l-1.14,1A5.747,5.747,0,0,0,11.983,16.1h0a6.594,6.594,0,0,0-.784,3.134,6.5,6.5,0,0,0,1.994,4.772l1.068,1.068,3.063,2.992a6.6,6.6,0,0,0,3.989,1.923c.285,0,.57.071.855.071a6.968,6.968,0,0,0,4.63-1.781l2.849,2.849a3.392,3.392,0,0,0,2.422,1h.356a3.513,3.513,0,0,0,2.635-1.71h0c.356-.57.712-1.211,1.068-1.781Zm-6.7-3.49a3.72,3.72,0,0,1-1,1.353L25.446,26.5a4.8,4.8,0,0,1-4.274,1.282A5.094,5.094,0,0,1,18.821,26.5l-2.778-2.707-1.282-1.282a4.74,4.74,0,0,1-1.353-3.348,4.487,4.487,0,0,1,.5-2.137h0a3.428,3.428,0,0,1,.855-1.14l1.068-1.068a4.738,4.738,0,0,1,4.487-1.211,5.171,5.171,0,0,1,2.208,1.211l2.707,2.635,1.425,1.425a4.679,4.679,0,0,1,.855,5.2Zm-3.989-2.066-1.14-1.14a1.078,1.078,0,0,0-1.353-.142c-.071.071-.142.071-.214.142l-.142.142a1.068,1.068,0,0,0,.071,1.282l.071.071,2.208,2.137a1.033,1.033,0,0,0,1.5,0,1.068,1.068,0,0,0,.285-.784,1.5,1.5,0,0,0-.285-.784Zm1,1-1.068-1-1.14-1.14a1.078,1.078,0,0,0-1.353-.142c-.071.071-.142.071-.214.142l-.142.142a1.068,1.068,0,0,0,.071,1.282l.071.071,2.208,2.137a1.033,1.033,0,0,0,1.5,0,1.068,1.068,0,0,0,.285-.784.861.861,0,0,0-.214-.712Zm0,0-1.068-1-1.14-1.14a1.078,1.078,0,0,0-1.353-.142c-.071.071-.142.071-.214.142l-.142.142a1.068,1.068,0,0,0,.071,1.282l.071.071,2.208,2.137a1.033,1.033,0,0,0,1.5,0,1.068,1.068,0,0,0,.285-.784.861.861,0,0,0-.214-.712Zm0,0-1.068-1-1.14-1.14a1.078,1.078,0,0,0-1.353-.142c-.071.071-.142.071-.214.142l-.142.142a1.068,1.068,0,0,0,.071,1.282l.071.071,2.208,2.137a1.033,1.033,0,0,0,1.5,0,1.068,1.068,0,0,0,.285-.784.861.861,0,0,0-.214-.712Zm0,0-1.068-1-1.14-1.14a1.078,1.078,0,0,0-1.353-.142c-.071.071-.142.071-.214.142l-.142.142a1.068,1.068,0,0,0,.071,1.282l.071.071,2.208,2.137a1.033,1.033,0,0,0,1.5,0,1.068,1.068,0,0,0,.285-.784.861.861,0,0,0-.214-.712Zm0,0-1.068-1-1.14-1.14a1.078,1.078,0,0,0-1.353-.142c-.071.071-.142.071-.214.142l-.142.142a1.068,1.068,0,0,0,.071,1.282l.071.071,2.208,2.137a1.033,1.033,0,0,0,1.5,0,1.068,1.068,0,0,0,.285-.784.861.861,0,0,0-.214-.712Z" transform="translate(-3.35 -3.396)" fill="#f4a86f"/>
        <path id="Path" d="M44.963,28.279l-1.923-1a14.915,14.915,0,0,0,1.425-9.758A15.124,15.124,0,0,0,41.9,11.611L43.681,10.4a16.471,16.471,0,0,1,2.849,6.7,16.843,16.843,0,0,1-1.567,11.183Z" transform="translate(-12.183 -3.109)" fill="#f2796e"/>
        <path id="Path_1" data-name="Path 1" d="M38.272,7.526l-1.71,1.211a15.335,15.335,0,0,0-13.32-6.411L23.1.19A17.421,17.421,0,0,1,38.272,7.526Z" transform="translate(-6.774 -0.164)" fill="#6186bd"/>
        <path id="Path_2" data-name="Path 2" d="M17.331,2.337a19.2,19.2,0,0,0-1.994.285A15.139,15.139,0,0,0,4.723,10.386l-1.923-1A17.366,17.366,0,0,1,14.909.485C15.692.342,16.4.271,17.188.2Z" transform="translate(-0.933 -0.174)" fill="#d57fb3"/>
        <path id="Path_3" data-name="Path 3" d="M4.966,29.839,3.257,31.05A16.057,16.057,0,0,1,.479,24.425,17.38,17.38,0,0,1,2.188,13.1l1.923,1a14.92,14.92,0,0,0-1.5,9.9A12.686,12.686,0,0,0,4.966,29.839Z" transform="translate(-0.179 -3.886)" fill="#00a9da"/>
        <path id="Path_4" data-name="Path 4" d="M19.786,44.15a1.144,1.144,0,0,1-.356.784,1.068,1.068,0,0,1-.784.285A17.407,17.407,0,0,1,4.4,37.814L6.11,36.6a15.151,15.151,0,0,0,12.536,6.482h0a.826.826,0,0,1,.712.285A2.764,2.764,0,0,1,19.786,44.15Z" transform="translate(-1.394 -10.647)" fill="#d5e27e"/>
      </g>
      <path id="Line" d="M62,8h1.5V42.9H62Z" transform="translate(-19.39 -6.789)" fill="#fff" opacity="0.3"/>
      <g id="Group" transform="translate(52.297 0)">
        <path id="techjockey" d="M4.019,19.05a2.1,2.1,0,0,1-1.567-.57,2.279,2.279,0,0,1-.57-1.638V11.571h-1A.261.261,0,0,1,.671,11.5C.6,11.428.6,11.357.6,11.215v-.641l1.425-.214.285-2.635c0-.071.071-.142.142-.214a.261.261,0,0,1,.214-.071h.784v2.992H5.942V11.5H3.449v5.2a.888.888,0,0,0,.285.784,1.088,1.088,0,0,0,.712.285.9.9,0,0,0,.427-.071c.142-.071.214-.071.285-.142l.071-.071H5.3a.221.221,0,0,1,.142-.071c.071,0,.142.071.214.142l.427.712a2.293,2.293,0,0,1-.926.57A3.226,3.226,0,0,1,4.019,19.05Zm7.194-8.9a3.189,3.189,0,0,1,1.425.285,2.983,2.983,0,0,1,1.14.784,3.408,3.408,0,0,1,.712,1.211,3.959,3.959,0,0,1,.285,1.638c0,.214,0,.427-.071.5a.37.37,0,0,1-.285.142H8.72a4.284,4.284,0,0,0,.214,1.425,3.332,3.332,0,0,0,.57,1,1.945,1.945,0,0,0,.855.641,2.953,2.953,0,0,0,1.14.214,4.2,4.2,0,0,0,1-.142,7.39,7.39,0,0,0,.712-.285,3.1,3.1,0,0,0,.5-.285c.142-.071.214-.142.356-.142a.37.37,0,0,1,.285.142l.427.57a4.609,4.609,0,0,1-.641.57l-.855.427a4.81,4.81,0,0,1-1,.142,4.06,4.06,0,0,1-.926.071,4.179,4.179,0,0,1-1.638-.285,4.042,4.042,0,0,1-1.282-.855,4,4,0,0,1-.855-1.425A5.616,5.616,0,0,1,7.3,14.491a4.788,4.788,0,0,1,.285-1.709,4.222,4.222,0,0,1,.784-1.353A4.228,4.228,0,0,1,9.646,10.5,2.564,2.564,0,0,1,11.213,10.146Zm.071,1.068a2.311,2.311,0,0,0-1.709.641,2.763,2.763,0,0,0-.784,1.781h4.7a4.81,4.81,0,0,0-.142-1,1.7,1.7,0,0,0-.427-.784,2.559,2.559,0,0,0-.712-.5A3.609,3.609,0,0,0,11.284,11.215Zm11.4.57c-.071.071-.071.142-.142.142S22.4,12,22.325,12a.538.538,0,0,1-.285-.071,1.557,1.557,0,0,0-.356-.214,4.908,4.908,0,0,0-.57-.214,2.564,2.564,0,0,0-.784-.142,2.953,2.953,0,0,0-1.14.214,1.742,1.742,0,0,0-.784.641,2.3,2.3,0,0,0-.57,1,4.163,4.163,0,0,0-.142,1.353,4.593,4.593,0,0,0,.214,1.425,2.6,2.6,0,0,0,.5,1,2.227,2.227,0,0,0,.784.641,2.378,2.378,0,0,0,1.068.214,3.609,3.609,0,0,0,.926-.142,4.23,4.23,0,0,0,.57-.285,1.49,1.49,0,0,1,.427-.285.54.54,0,0,1,.285-.142c.071,0,.214,0,.214.071l.5.641a3.441,3.441,0,0,1-1.425,1,4.915,4.915,0,0,1-1.781.285,3.3,3.3,0,0,1-1.5-.285,3.725,3.725,0,0,1-1.211-.855,3.086,3.086,0,0,1-.784-1.425,5.459,5.459,0,0,1-.285-1.923,4.915,4.915,0,0,1,.285-1.781,4.587,4.587,0,0,1,.784-1.425,3.3,3.3,0,0,1,1.282-.926A4.3,4.3,0,0,1,20.259,10a4.179,4.179,0,0,1,1.638.285,3.725,3.725,0,0,1,1.211.855Zm2.066,7.123V6.3h1.5v5.128a3.672,3.672,0,0,1,1.211-.926,3.626,3.626,0,0,1,1.567-.356,3.725,3.725,0,0,1,1.282.214,2.71,2.71,0,0,1,.926.641,3.775,3.775,0,0,1,.57,1.068,4.147,4.147,0,0,1,.214,1.353v5.485h-1.5V13.423a2.337,2.337,0,0,0-.427-1.5,1.714,1.714,0,0,0-1.353-.57,2.9,2.9,0,0,0-1.282.356,4.035,4.035,0,0,0-1.068.855v6.411H24.747Zm11.183-8.69v9.331a4.81,4.81,0,0,1-.142,1,1.7,1.7,0,0,1-.427.784,1.5,1.5,0,0,1-.784.5,2.712,2.712,0,0,1-1.14.214,1.056,1.056,0,0,1-.5-.071,1.012,1.012,0,0,1-.427-.142l.071-.855a.249.249,0,0,1,.071-.142h.57c.427,0,.784-.071.926-.285a1.393,1.393,0,0,0,.285-1V10.218Zm.356-2.707a.9.9,0,0,1-.071.427c-.071.142-.142.214-.214.356a1.557,1.557,0,0,1-.356.214,1.318,1.318,0,0,1-.855,0c-.142-.071-.214-.142-.356-.214a1.557,1.557,0,0,1-.214-.356.9.9,0,0,1-.071-.427.9.9,0,0,1,.071-.427,1.557,1.557,0,0,1,.214-.356,1.557,1.557,0,0,1,.356-.214,1.318,1.318,0,0,1,.855,0c.142.071.214.142.356.214a.605.605,0,0,1,.214.356C36.215,7.226,36.286,7.368,36.286,7.511Zm5.77,2.635a4.31,4.31,0,0,1,1.709.285,3.3,3.3,0,0,1,1.282.926,4,4,0,0,1,.855,1.425,5.057,5.057,0,0,1,.285,1.852,5.057,5.057,0,0,1-.285,1.852,4.742,4.742,0,0,1-.855,1.425,4.228,4.228,0,0,1-1.282.926,5.271,5.271,0,0,1-3.419,0,3.3,3.3,0,0,1-1.282-.926,4.742,4.742,0,0,1-.855-1.425,5.057,5.057,0,0,1-.285-1.852,5.057,5.057,0,0,1,.285-1.852,4.742,4.742,0,0,1,.855-1.425,3.3,3.3,0,0,1,1.282-.926A4.541,4.541,0,0,1,42.055,10.146Zm0,7.693a2.251,2.251,0,0,0,1.923-.855,3.925,3.925,0,0,0,.641-2.422,4.07,4.07,0,0,0-.641-2.422,2.251,2.251,0,0,0-1.923-.855,2.953,2.953,0,0,0-1.14.214,1.742,1.742,0,0,0-.784.641,4.352,4.352,0,0,0-.5,1,7.889,7.889,0,0,0-.142,1.353,7.176,7.176,0,0,0,.142,1.353,2.2,2.2,0,0,0,.5,1,2.227,2.227,0,0,0,.784.641A1.675,1.675,0,0,0,42.055,17.839Zm11.966-6.054c-.071.071-.071.142-.142.142s-.142.071-.214.071a.538.538,0,0,1-.285-.071c-.142-.071-.214-.142-.356-.214a4.907,4.907,0,0,0-.57-.214,2.564,2.564,0,0,0-.784-.142,2.953,2.953,0,0,0-1.14.214,1.742,1.742,0,0,0-.784.641,2.3,2.3,0,0,0-.57,1,4.163,4.163,0,0,0-.142,1.353,4.593,4.593,0,0,0,.214,1.425,2.6,2.6,0,0,0,.5,1,2.227,2.227,0,0,0,.784.641,2.378,2.378,0,0,0,1.068.214,3.609,3.609,0,0,0,.926-.142,4.23,4.23,0,0,0,.57-.285,1.49,1.49,0,0,1,.427-.285c.142-.071.214-.142.285-.142a.37.37,0,0,1,.285.142l.427.57a3.441,3.441,0,0,1-1.425,1,4.915,4.915,0,0,1-1.781.285,3.3,3.3,0,0,1-1.5-.285,3.725,3.725,0,0,1-1.211-.855,3.086,3.086,0,0,1-.784-1.425,5.459,5.459,0,0,1-.285-1.923,4.915,4.915,0,0,1,.285-1.781,4.587,4.587,0,0,1,.784-1.425,3.3,3.3,0,0,1,1.282-.926A4.3,4.3,0,0,1,51.6,10a4.179,4.179,0,0,1,1.638.285,3.725,3.725,0,0,1,1.211.855ZM57.655,6.3v7.408h.427c.142,0,.214,0,.285-.071q.107,0,.214-.214l2.707-2.92a.983.983,0,0,1,.285-.214.533.533,0,0,1,.356-.071h1.353l-3.205,3.419c-.071.071-.142.214-.214.285a.983.983,0,0,1-.285.214c.071.071.214.142.285.214s.142.214.214.285L63.5,18.908H62.142c-.142,0-.214,0-.285-.071a.983.983,0,0,0-.285-.214l-2.849-3.561c-.071-.142-.142-.214-.285-.214a.534.534,0,0,0-.356-.071h-.427v4.131h-1.5V6.3Zm10.257,3.846a3.189,3.189,0,0,1,1.425.285,2.983,2.983,0,0,1,1.14.784,3.407,3.407,0,0,1,.712,1.211,3.959,3.959,0,0,1,.285,1.638c0,.214,0,.427-.071.5a.37.37,0,0,1-.285.142h-5.77a4.283,4.283,0,0,0,.214,1.425,3.332,3.332,0,0,0,.57,1,1.945,1.945,0,0,0,.855.641,2.953,2.953,0,0,0,1.14.214,4.2,4.2,0,0,0,1-.142,7.39,7.39,0,0,0,.712-.285,3.1,3.1,0,0,0,.5-.285c.142-.071.214-.142.356-.142a.37.37,0,0,1,.285.142l.427.57a4.61,4.61,0,0,1-.641.57l-.855.427a2.193,2.193,0,0,1-.926.214,4.06,4.06,0,0,1-.926.071,4.179,4.179,0,0,1-1.638-.285,4.042,4.042,0,0,1-1.282-.855,4,4,0,0,1-.855-1.425,5.616,5.616,0,0,1-.285-1.994,4.788,4.788,0,0,1,.285-1.709,4.222,4.222,0,0,1,.784-1.353,4.228,4.228,0,0,1,1.282-.926,2.378,2.378,0,0,1,1.567-.427Zm.071,1.068a2.311,2.311,0,0,0-1.709.641,2.763,2.763,0,0,0-.784,1.781h4.7a4.81,4.81,0,0,0-.142-1,1.7,1.7,0,0,0-.427-.784,2.559,2.559,0,0,0-.712-.5,3.609,3.609,0,0,0-.926-.142Zm7.835,10.257a.983.983,0,0,1-.214.285.534.534,0,0,1-.356.071h-1.14l1.567-3.419-3.561-8.12H73.4c.142,0,.214,0,.285.071s.142.142.142.214l2.351,5.485c.071.142.071.285.142.356a.774.774,0,0,1,.071.356l.142-.356h0c.071-.142.071-.285.142-.356l2.279-5.413c0-.071.071-.142.142-.214s.142-.071.285-.071H80.59Z" transform="translate(-0.6 -6.3)" fill="#fff"/>
        <g id="Group-24" transform="translate(0.288 18.888)">
          <path id="Shape-2" data-name="Shape" d="M4.025,15.163c0,1.774.737,2.665,2.228,2.665a3.24,3.24,0,0,0,1.2-.193,4.1,4.1,0,0,0,.8-.42l.618-.42a1.159,1.159,0,0,1,.652-.185.63.63,0,0,1,.3.076.847.847,0,0,1,.263.2l.847.975a10.533,10.533,0,0,1-1.245,1.076,6.6,6.6,0,0,1-1.219.749,6.482,6.482,0,0,1-1.33.437,7.679,7.679,0,0,1-1.516.135A4.853,4.853,0,0,1,3.712,19.9,4.16,4.16,0,0,1,2.23,18.88,4.458,4.458,0,0,1,1.273,17.3a5.887,5.887,0,0,1-.339-2.066,8.5,8.5,0,0,1,.2-1.858,8,8,0,0,1,.6-1.682,7.608,7.608,0,0,1,.952-1.5A6.006,6.006,0,0,1,3.972,9.029,5.9,5.9,0,0,1,7.354,7.966a4.606,4.606,0,0,1,1.695.278,3.971,3.971,0,0,1,1.2.706,2.952,2.952,0,0,1,.729.975,2.507,2.507,0,0,1,.254,1.068,3.342,3.342,0,0,1-.331,1.479,3.022,3.022,0,0,1-1.211,1.169A7.835,7.835,0,0,1,7.5,14.55a22.031,22.031,0,0,1-3.49.588Zm3.109-5.044a2.216,2.216,0,0,0-.954.222,2.888,2.888,0,0,0-.847.6,4.376,4.376,0,0,0-.635.942A5.606,5.606,0,0,0,4.249,13.1a18.692,18.692,0,0,0,2.066-.4,5.207,5.207,0,0,0,1.219-.462,1.41,1.41,0,0,0,.585-.538,1.43,1.43,0,0,0,.135-.63.761.761,0,0,0-.071-.328.74.74,0,0,0-.2-.3,1.077,1.077,0,0,0-.356-.227,1.433,1.433,0,0,0-.473-.079Z" transform="translate(-0.933 -2.712)" fill="#fff"/>
          <path id="Path-2" data-name="Path" d="M17.874,13.314h5.651L23.2,15.836H17.595Z" transform="translate(-5.727 -4.251)" fill="#fff"/>
          <path id="Path-3" data-name="Path" d="M37.9,4.4a1.51,1.51,0,0,1-.356.37.741.741,0,0,1-.424.118.855.855,0,0,1-.5-.177l-.585-.4a5.44,5.44,0,0,0-.771-.4A2.891,2.891,0,0,0,34.2,3.729a2.943,2.943,0,0,0-1.025.168,1.976,1.976,0,0,0-.746.471,1.832,1.832,0,0,0-.449.706,2.506,2.506,0,0,0-.152.841,1.313,1.313,0,0,0,.263.841,2.436,2.436,0,0,0,.7.588,5.4,5.4,0,0,0,.991.462c.373.135.754.285,1.135.437a10.7,10.7,0,0,1,1.135.538,3.935,3.935,0,0,1,.991.748A3.284,3.284,0,0,1,37.74,10.6a3.884,3.884,0,0,1,.271,1.521,6.422,6.422,0,0,1-.432,2.351A5.762,5.762,0,0,1,34.4,17.739a6.446,6.446,0,0,1-2.541.488,6.535,6.535,0,0,1-1.449-.16,7.207,7.207,0,0,1-1.364-.454,6.788,6.788,0,0,1-1.2-.7,4.585,4.585,0,0,1-.94-.908l1.186-1.589a1.286,1.286,0,0,1,.347-.285.855.855,0,0,1,.432-.126.969.969,0,0,1,.6.244l.661.513a5.485,5.485,0,0,0,.847.521,2.992,2.992,0,0,0,1.262.235,2.493,2.493,0,0,0,1.852-.664,2.619,2.619,0,0,0,.661-1.908,1.463,1.463,0,0,0-.263-.908,2.324,2.324,0,0,0-.694-.605,5.823,5.823,0,0,0-.974-.427l-1.127-.4a11.054,11.054,0,0,1-1.118-.5,3.633,3.633,0,0,1-.969-.736,3.5,3.5,0,0,1-.686-1.093,4.317,4.317,0,0,1-.263-1.623,5.611,5.611,0,0,1,.407-2.118A5.459,5.459,0,0,1,30.235,2.73a5.72,5.72,0,0,1,1.846-1.253,6.08,6.08,0,0,1,2.431-.462,5.9,5.9,0,0,1,1.347.151,6.3,6.3,0,0,1,1.22.412A5.19,5.19,0,0,1,38.1,2.2a4.731,4.731,0,0,1,.847.784Z" transform="translate(-8.405 -0.712)" fill="#fff"/>
          <path id="Shape-3" data-name="Shape" d="M47.5,15.14q0,2.661,2.228,2.665a3.205,3.205,0,0,0,1.2-.193,4.2,4.2,0,0,0,.847-.42l.618-.42a1.14,1.14,0,0,1,.652-.185.681.681,0,0,1,.3.076.957.957,0,0,1,.254.2l.788.959A11.305,11.305,0,0,1,53.18,18.9a6.957,6.957,0,0,1-1.227.749,6.585,6.585,0,0,1-1.321.437,7.853,7.853,0,0,1-1.528.132,4.886,4.886,0,0,1-1.915-.361,4.237,4.237,0,0,1-1.482-1.017,4.718,4.718,0,0,1-.957-1.581,5.885,5.885,0,0,1-.339-2.066,8.488,8.488,0,0,1,.847-3.584,7.641,7.641,0,0,1,.957-1.5,6.174,6.174,0,0,1,1.272-1.17,5.785,5.785,0,0,1,1.567-.774,5.715,5.715,0,0,1,1.8-.285,4.6,4.6,0,0,1,1.652.278,3.869,3.869,0,0,1,1.2.706,3.1,3.1,0,0,1,.737.975,2.581,2.581,0,0,1,.246,1.068,3.442,3.442,0,0,1-.322,1.479A3.1,3.1,0,0,1,53.18,13.62a7.654,7.654,0,0,1-2.177.9,22.179,22.179,0,0,1-3.5.588ZM50.613,10.1a2.192,2.192,0,0,0-.957.219,2.668,2.668,0,0,0-.847.6,4.1,4.1,0,0,0-.641.942,6.082,6.082,0,0,0-.449,1.219,18.912,18.912,0,0,0,2.076-.4,5.207,5.207,0,0,0,1.22-.462,1.375,1.375,0,0,0,.576-.538,1.437,1.437,0,0,0,.142-.63.911.911,0,0,0-.071-.328.841.841,0,0,0-.214-.3,1.078,1.078,0,0,0-.356-.227,1.391,1.391,0,0,0-.479-.076Z" transform="translate(-13.442 -2.689)" fill="#fff"/>
          <path id="Path-4" data-name="Path" d="M60.242,17.96,62.334.59h3.143l-2.1,17.345Z" transform="translate(-17.997 -0.59)" fill="#fff"/>
          <path id="Path-5" data-name="Path" d="M68.162,17.96,70.246.59H73.38L71.288,17.935Z" transform="translate(-20.275 -0.59)" fill="#fff"/>
          <path id="Shape-4" data-name="Shape" d="M79.22,15.148c0,1.774.746,2.665,2.228,2.665a3.205,3.205,0,0,0,1.2-.193,4.2,4.2,0,0,0,.8-.42l.618-.42a1.14,1.14,0,0,1,.652-.185.681.681,0,0,1,.3.076.954.954,0,0,1,.254.2l.847.975a11.3,11.3,0,0,1-1.211,1.076,6.952,6.952,0,0,1-1.228.749,6.584,6.584,0,0,1-1.321.437,7.848,7.848,0,0,1-1.525.135,4.886,4.886,0,0,1-1.915-.362,4.237,4.237,0,0,1-1.482-1.017,4.718,4.718,0,0,1-.957-1.581,5.886,5.886,0,0,1-.339-2.066,8.488,8.488,0,0,1,.8-3.581,7.639,7.639,0,0,1,.966-1.5,6.175,6.175,0,0,1,1.269-1.17A5.787,5.787,0,0,1,80.762,8.2a5.715,5.715,0,0,1,1.8-.285,4.6,4.6,0,0,1,1.652.278,3.87,3.87,0,0,1,1.2.706,3.1,3.1,0,0,1,.738.971,2.581,2.581,0,0,1,.237,1.068,3.441,3.441,0,0,1-.322,1.479,3.1,3.1,0,0,1-1.169,1.211,7.658,7.658,0,0,1-2.185.908,22.179,22.179,0,0,1-3.5.588ZM82.337,10.1a2.192,2.192,0,0,0-.957.219,2.668,2.668,0,0,0-.847.6,4.109,4.109,0,0,0-.641.942,6.081,6.081,0,0,0-.449,1.219,18.909,18.909,0,0,0,2.076-.4,5.207,5.207,0,0,0,1.22-.462,1.377,1.377,0,0,0,.571-.535,1.437,1.437,0,0,0,.142-.63.91.91,0,0,0-.071-.328.84.84,0,0,0-.214-.3,1.077,1.077,0,0,0-.356-.227,1.391,1.391,0,0,0-.474-.079Z" transform="translate(-22.575 -2.697)" fill="#fff"/>
          <path id="Path-6" data-name="Path" d="M96.018,10.789a8.407,8.407,0,0,1,.949-1.431,4.385,4.385,0,0,1,1.051-.926,2.554,2.554,0,0,1,1.1-.387,2.3,2.3,0,0,1,1.143.2l-.576,3.018a2.687,2.687,0,0,0-1.271-.244,1.9,1.9,0,0,0-1.1.462,3.894,3.894,0,0,0-.906,1.219,10.382,10.382,0,0,0-.7,2.026L95.065,20.1h-3.13l1.44-12h1.643a1.14,1.14,0,0,1,.771.244,1,1,0,0,1,.28.784Z" transform="translate(-27.115 -2.733)" fill="#fff"/>
          <path id="Path-7" data-name="Path" d="M125.756,1.287,123.7,18.161h-3.388l.9-7.282h-6.582l-.889,7.306h-3.388l2.058-16.874H115.8l-.847,7.222h6.582l.847-7.222Z" transform="translate(-32.414 -0.791)" fill="#fff"/>
          <path id="Path-8" data-name="Path" d="M144.566,8.144l-1.44,11.989h-1.61c-.754,0-1.135-.362-1.135-1.076V17.973a6.213,6.213,0,0,1-1.906,1.766,4.4,4.4,0,0,1-2.143.57,2.94,2.94,0,0,1-1.347-.3,2.61,2.61,0,0,1-.991-.841,3.682,3.682,0,0,1-.551-1.43,6.072,6.072,0,0,1,0-1.934l.847-7.618h3.185l-.906,7.622a2.876,2.876,0,0,0,.11,1.53.848.848,0,0,0,.847.446,1.806,1.806,0,0,0,.847-.235,3.3,3.3,0,0,0,.847-.681,5.7,5.7,0,0,0,.763-1.068,6.946,6.946,0,0,0,.576-1.388l.754-6.225Z" transform="translate(-39.035 -2.763)" fill="#fff"/>
          <path id="Shape-5" data-name="Shape" d="M154.848,8.1a6.661,6.661,0,0,1,1.8-1.682,3.883,3.883,0,0,1,2.093-.614,3.212,3.212,0,0,1,1.346.269,2.663,2.663,0,0,1,1.034.841,3.878,3.878,0,0,1,.67,1.4,7.383,7.383,0,0,1,.237,2.009,9.375,9.375,0,0,1-.214,2.018,9.912,9.912,0,0,1-.6,1.858,8.464,8.464,0,0,1-.881,1.521,6.737,6.737,0,0,1-1.177,1.261,5.208,5.208,0,0,1-1.372.841,4.035,4.035,0,0,1-1.5.294,3.409,3.409,0,0,1-1.593-.356,3.6,3.6,0,0,1-1.177-.95l-.071.269a1.425,1.425,0,0,1-.373.647,1.055,1.055,0,0,1-.737.214h-1.745L152.637.59h3.126Zm-.847,7a2.147,2.147,0,0,0,.847.5,3.181,3.181,0,0,0,.906.142,2.066,2.066,0,0,0,1.271-.445,3.944,3.944,0,0,0,1-1.177,6.4,6.4,0,0,0,.641-1.682,7.6,7.6,0,0,0,.229-1.858,3.271,3.271,0,0,0-.373-1.781,1.17,1.17,0,0,0-1.034-.57,1.582,1.582,0,0,0-.847.311,4.528,4.528,0,0,0-.847.841,7.226,7.226,0,0,0-.771,1.269,9.58,9.58,0,0,0-.619,1.567Z" transform="translate(-43.988 -0.59)" fill="#fff"/>
        </g>
      </g>
    </g>
  </g>
</svg>
