<svg xmlns="http://www.w3.org/2000/svg" xmlns:xlink="http://www.w3.org/1999/xlink" width="50" height="50" viewBox="0 0 50 50">
  <defs>
    <clipPath id="clip-path">
      <rect id="Rectangle_84" data-name="Rectangle 84" width="50" height="50"/>
    </clipPath>
    <linearGradient id="linear-gradient" x1="0.5" y1="1" x2="0.536" y2="-0.047" gradientUnits="objectBoundingBox">
      <stop offset="0" stop-color="#472dc2"/>
      <stop offset="1" stop-color="#a592ef"/>
    </linearGradient>
  </defs>
  <g id="expense-management-software" clip-path="url(#clip-path)">
    <g id="profit" transform="translate(0 -0.25)">
      <path id="Path_150" data-name="Path 150" d="M140.8,5.326a3.282,3.282,0,0,1,2.7,2.7.848.848,0,0,0,1.673,0,3.282,3.282,0,0,1,2.7-2.7.848.848,0,0,0,0-1.672,3.282,3.282,0,0,1-2.7-2.7.848.848,0,0,0-1.673,0,3.282,3.282,0,0,1-2.7,2.7.848.848,0,0,0,0,1.672Zm0,0" transform="translate(-132.453)" fill="#fc0"/>
      <path id="Path_151" data-name="Path 151" d="M700.972,394.33a3.283,3.283,0,0,1,2.7,2.7.848.848,0,0,0,1.673,0,3.283,3.283,0,0,1,2.7-2.7.848.848,0,0,0,0-1.672,3.282,3.282,0,0,1-2.7-2.7.848.848,0,0,0-1.673,0,3.282,3.282,0,0,1-2.7,2.7.848.848,0,0,0,0,1.672Zm0,0" transform="translate(-662.092 -367.798)" fill="#fc0"/>
      <path id="Union_46" data-name="Union 46" d="M-4660.52,451.967V437.2A10.326,10.326,0,0,1-4648.4,439a.856.856,0,0,0,.6.248h10.6a2.12,2.12,0,0,1,1.5.621,2.121,2.121,0,0,1,.621,1.5,2.121,2.121,0,0,1-2.122,2.12h-10.6a.849.849,0,0,0-.847.85.847.847,0,0,0,.847.848h12.725a.88.88,0,0,0,.364-.086l11.623-5.5a2.288,2.288,0,0,1,2.211.135,2.3,2.3,0,0,1,1.069,1.987,2.3,2.3,0,0,1-1.147,1.943l-11,6.369a14.453,14.453,0,0,1-7.224,1.94Zm-8.482,0v-14.42h6.786v14.42Zm.847-4.242a1.7,1.7,0,0,0,1.7,1.7,1.7,1.7,0,0,0,1.7-1.7,1.7,1.7,0,0,0-1.7-1.7,1.7,1.7,0,0,0-1.7,1.7Zm14.421-26.3a10.181,10.181,0,0,1,10.179-10.18,10.191,10.191,0,0,1,10.179,10.18,10.178,10.178,0,0,1-10.178,10.179,10.18,10.18,0,0,1-10.176-10.174Zm10.179,6.786v1.7a8.491,8.491,0,0,0,8.482-8.482h-1.7a6.793,6.793,0,0,1-6.777,6.786Zm-2.545-2.545h1.7v.848h1.7v-.848a2.545,2.545,0,0,0,2.545-2.545,2.545,2.545,0,0,0-2.545-2.544h-1.7a.849.849,0,0,1-.848-.848.849.849,0,0,1,.848-.848h3.394v-1.7h-1.7v-.848h-1.7v.848a2.546,2.546,0,0,0-2.544,2.545,2.546,2.546,0,0,0,2.544,2.545h1.7a.848.848,0,0,1,.849.847.849.849,0,0,1-.249.6.848.848,0,0,1-.6.248h-3.393Zm-5.937-4.241h1.7a6.793,6.793,0,0,1,6.786-6.787v-1.7a8.49,8.49,0,0,0-8.49,8.492Z" transform="translate(4669 -402.519)" fill="url(#linear-gradient)"/>
    </g>
  </g>
</svg>
