<svg xmlns="http://www.w3.org/2000/svg" xmlns:xlink="http://www.w3.org/1999/xlink" width="50" height="50" viewBox="0 0 50 50">
  <defs>
    <clipPath id="clip-path">
      <rect id="Rectangle_11111" data-name="Rectangle 11111" width="13.75" height="28.75" fill="#fff" stroke="#707070" stroke-width="1"/>
    </clipPath>
  </defs>
  <g id="expert_Advice_icon" transform="translate(0 -0.172)">
    <circle id="Ellipse_13" data-name="Ellipse 13" cx="25" cy="25" r="25" transform="translate(0 0.172)" fill="#f5f7fb"/>
    <g id="noun-support-2828255" transform="translate(11.25 11.422)">
      <path id="Path_16284" data-name="Path 16284" d="M123.4,28.481v7.373a.481.481,0,0,1-.482.482h-5.7L111.5,40.06a.167.167,0,0,1-.247-.2l1.38-3.524h-1.81a.481.481,0,0,1-.481-.482V28.481a.481.481,0,0,1,.481-.481h12.1a.481.481,0,0,1,.482.481Zm-8.884,3.686a1.008,1.008,0,1,0-.3.712A1.007,1.007,0,0,0,114.519,32.167Zm3.358,0a1.008,1.008,0,1,0-.3.712A1.007,1.007,0,0,0,117.877,32.167Zm3.358,0a1.008,1.008,0,1,0-.3.712A1.007,1.007,0,0,0,121.234,32.167Z" transform="translate(-96.248 -26.75)" fill="#01b763"/>
      <path id="Path_16284-2" data-name="Path 16284" d="M99.19,29.734a15.013,15.013,0,0,1,2.8-1.642,4.833,4.833,0,0,1,2.2.082c.757.294,4.2,4.584,4.2,5.594,0,.783,0,.783-2.328,3.633a1.543,1.543,0,0,0-.151,1.759,20.424,20.424,0,0,0,3.514,4.576A20.422,20.422,0,0,0,114,47.25a1.543,1.543,0,0,0,1.759-.151c2.851-2.326,2.851-2.326,3.633-2.328,1.011,0,5.3,3.441,5.594,4.2a4.833,4.833,0,0,1,.082,2.2,15.042,15.042,0,0,1-1.642,2.8,5.277,5.277,0,0,1-2.815,1.173c-4.947.252-9.774-3.283-14.542-8.051s-8.3-9.595-8.051-14.542a5.276,5.276,0,0,1,1.173-2.815Z" transform="translate(-98.005 -26.774)" fill="#ffa001"/>
      <g id="Mask_Group_71" data-name="Mask Group 71" transform="translate(13.169)" clip-path="url(#clip-path)">
        <path id="Path_16285" data-name="Path 16285" d="M99.19,29.734a15.013,15.013,0,0,1,2.8-1.642,4.833,4.833,0,0,1,2.2.082c.757.294,4.2,4.584,4.2,5.594,0,.783,0,.783-2.328,3.633a1.543,1.543,0,0,0-.151,1.759,20.424,20.424,0,0,0,3.514,4.576A20.422,20.422,0,0,0,114,47.25a1.543,1.543,0,0,0,1.759-.151c2.851-2.326,2.851-2.326,3.633-2.328,1.011,0,5.3,3.441,5.594,4.2a4.833,4.833,0,0,1,.082,2.2,15.042,15.042,0,0,1-1.642,2.8,5.277,5.277,0,0,1-2.815,1.173c-4.947.252-9.774-3.283-14.542-8.051s-8.3-9.595-8.051-14.542a5.276,5.276,0,0,1,1.173-2.815Z" transform="translate(-111.174 -26.774)" fill="#f87f02"/>
      </g>
    </g>
  </g>
</svg>
