<svg id="call" xmlns="http://www.w3.org/2000/svg" xmlns:xlink="http://www.w3.org/1999/xlink" width="48" height="48" viewBox="0 0 48 48">
  <defs>
    <clipPath id="clip-path">
      <rect id="Rectangle_11111" data-name="Rectangle 11111" width="11" height="23" fill="#fff" stroke="#707070" stroke-width="1"/>
    </clipPath>
  </defs>
  <circle id="Ellipse_13" data-name="Ellipse 13" cx="24" cy="24" r="24" fill="#f4f4f4"/>
  <g id="noun-support-2828255" transform="translate(13.138 13)">
    <path id="Path_16284" data-name="Path 16284" d="M120.789,28.385v5.9a.385.385,0,0,1-.385.385h-4.563l-4.578,2.979a.134.134,0,0,1-.2-.161l1.1-2.819h-1.448a.385.385,0,0,1-.385-.385v-5.9a.385.385,0,0,1,.385-.385H120.4a.385.385,0,0,1,.385.385Zm-7.107,2.949a.806.806,0,1,0-.236.57A.805.805,0,0,0,113.682,31.334Zm2.686,0a.806.806,0,1,0-.236.57A.805.805,0,0,0,116.369,31.334Zm2.686,0a.806.806,0,1,0-.236.57A.805.805,0,0,0,119.055,31.334Z" transform="translate(-99.065 -27)" fill="#01b763"/>
    <path id="Path_16284-2" data-name="Path 16284" d="M98.953,29.387a12.011,12.011,0,0,1,2.242-1.314,3.866,3.866,0,0,1,1.759.065c.606.236,3.361,3.667,3.359,4.475,0,.626,0,.626-1.863,2.906a1.235,1.235,0,0,0-.121,1.407A17.726,17.726,0,0,0,110.8,43.4a1.234,1.234,0,0,0,1.407-.121c2.28-1.861,2.28-1.861,2.907-1.863.809,0,4.24,2.753,4.475,3.359a3.866,3.866,0,0,1,.065,1.759,12.033,12.033,0,0,1-1.314,2.242,4.221,4.221,0,0,1-2.252.938c-3.958.2-7.819-2.626-11.634-6.441S97.814,35.6,98.015,31.639a4.22,4.22,0,0,1,.938-2.252Z" transform="translate(-98.005 -27.019)" fill="#ffa001"/>
    <g id="Mask_Group_71" data-name="Mask Group 71" transform="translate(10.535)" clip-path="url(#clip-path)">
      <path id="Path_16285" data-name="Path 16285" d="M98.953,29.387a12.011,12.011,0,0,1,2.242-1.314,3.866,3.866,0,0,1,1.759.065c.606.236,3.361,3.667,3.359,4.475,0,.626,0,.626-1.863,2.906a1.235,1.235,0,0,0-.121,1.407A17.726,17.726,0,0,0,110.8,43.4a1.234,1.234,0,0,0,1.407-.121c2.28-1.861,2.28-1.861,2.907-1.863.809,0,4.24,2.753,4.475,3.359a3.866,3.866,0,0,1,.065,1.759,12.033,12.033,0,0,1-1.314,2.242,4.221,4.221,0,0,1-2.252.938c-3.958.2-7.819-2.626-11.634-6.441S97.814,35.6,98.015,31.639a4.22,4.22,0,0,1,.938-2.252Z" transform="translate(-108.541 -27.019)" fill="#f87f02"/>
    </g>
  </g>
</svg>
