<svg width="41px" height="41px" viewBox="0 0 41 41" version="1.1" xmlns="http://www.w3.org/2000/svg" xmlns:xlink="http://www.w3.org/1999/xlink"><g  stroke="none" stroke-width="1" fill="none" fill-rule="evenodd"><g  transform="translate(3.000000, 3.000000)" fill-rule="nonzero"><path d="M20.4046391,34.9147644 C20.2582463,34.94953 20.1113172,34.9815613 19.9638519,35.0108581 C20.1113172,34.9815613 20.2582463,34.94953 20.4046391,34.9147644 Z"  fill="#000000"></path><path d="M20.7561428,34.8613824 C20.6861637,34.8801324 20.6161848,34.8973199 20.5462058,34.914898 C20.6161848,34.8973199 20.6861637,34.8801324 20.7561428,34.8613824 Z"  fill="#000000"></path><path d="M19.5713261,35.0329494 C19.3999983,35.0610744 19.2275979,35.0860744 19.0546613,35.1071681 C19.2275979,35.0860744 19.3999983,35.0610744 19.5713261,35.0329494 Z"  fill="#000000"></path><path d="M19.9088876,34.9962531 C19.8265752,35.0122688 19.7437265,35.0271125 19.6611459,35.041175 C19.7437265,35.0271125 19.8265752,35.0122688 19.9088876,34.9962531 Z"  fill="#000000"></path><path d="M21.2344666,34.7659783 C21.1727992,34.7851189 21.1108638,34.8042596 21.0489284,34.8226189 C21.1108638,34.8042596 21.1727992,34.7851189 21.2344666,34.7659783 Z"  fill="#000000"></path> <path d="M22.4216962,34.4704352 C22.3718262,34.4911383 22.3219561,34.5106696 22.272086,34.5309821 C22.3219561,34.5106696 22.3718262,34.4911383 22.4216962,34.4704352 Z"  fill="#000000"></path><path d="M22.0626853,34.5683829 C22.0085253,34.589086 21.9540972,34.6101798 21.8996691,34.6301016 C21.9540972,34.6101798 22.0085253,34.5894766 22.0626853,34.5683829 Z"  fill="#000000"></path><path d="M21.5929413,34.6866152 C21.5355639,34.7061465 21.4776502,34.7245058 21.4197366,34.7432558 C21.4776502,34.7245058 21.5355639,34.7061465 21.5929413,34.6866152 Z"  fill="#000000"></path> <path d="M19.0490309,35.0912886 C18.9565299,35.1026167 18.8640289,35.112773 18.7712599,35.1217573 C18.8640289,35.112773 18.9565299,35.1026167 19.0490309,35.0912886 Z"  fill="#000000"></path><path d="M35.1428571,17.5714286 C35.1428571,7.86848015 27.274377,0 17.5714286,0 C7.86848015,0 0,7.86848015 0,17.5714286 C0,27.274377 7.86848015,35.1428571 17.5714286,35.1428571 C17.6746543,35.1428571 17.7773437,35.1407122 17.8803013,35.1388353 L17.8803013,21.4602225 L14.1051897,21.4602225 L14.1051897,17.0606624 L17.8803013,17.0606624 L17.8803013,13.8231288 C17.8803013,10.0683943 20.1724483,8.02479332 23.5217874,8.02479332 C25.1256736,8.02479332 26.50434,8.1443743 26.90625,8.19772995 L26.90625,12.1219156 L24.5966753,12.1219156 C22.7745405,12.1219156 22.4216962,12.987939 22.4216962,14.2585536 L22.4216962,17.0606624 L26.7786255,17.0606624 L26.2107501,21.4602225 L22.4216962,21.4602225 L22.4216962,34.4639805 C29.7662724,32.3584442 35.1428571,25.591932 35.1428571,17.5714286 Z"  fill="#3C5B9B"></path><path d="M18.7323826,35.1131448 C18.5495257,35.1303322 18.3658644,35.1440041 18.1816668,35.1529885 C18.3658644,35.1440041 18.5495257,35.1303322 18.7323826,35.1131448 Z"  fill="#000000"></path><path d="M18.1722826,35.1456232 C18.0752237,35.1503106 17.9778966,35.1538263 17.8805694,35.15617 C17.9778966,35.1538263 18.0752237,35.1503106 18.1722826,35.1456232 Z"  fill="#000000"></path> </g></g></svg>
