<?xml version="1.0" encoding="UTF-8"?>
<svg width="20px" height="20px" viewBox="0 0 20 20" version="1.1" xmlns="http://www.w3.org/2000/svg" xmlns:xlink="http://www.w3.org/1999/xlink">
    <!-- Generator: Sketch 55.1 (78136) - https://sketchapp.com -->
    <title>faq</title>
    <desc>Created with Sketch.</desc>
    <g id="Page-1" stroke="none" stroke-width="1" fill="none" fill-rule="evenodd">
        <g id="Artboard" transform="translate(-109.000000, -107.000000)">
            <g id="faq" transform="translate(109.000000, 107.000000)">
                <polygon id="Path" points="0 0 20 0 20 20 0 20"></polygon>
                <path d="M10,1.66666667 C5.4,1.66666667 1.66666667,5.4 1.66666667,10 C1.66666667,14.6 5.4,18.3333333 10,18.3333333 C14.6,18.3333333 18.3333333,14.6 18.3333333,10 C18.3333333,5.4 14.6,1.66666667 10,1.66666667 Z M10.8333333,15.8333333 L9.16666667,15.8333333 L9.16666667,14.1666667 L10.8333333,14.1666667 L10.8333333,15.8333333 Z M12.5583333,9.375 L11.8083333,10.1416667 C11.2083333,10.75 10.8333333,11.25 10.8333333,12.5 L9.16666667,12.5 L9.16666667,12.0833333 C9.16666667,11.1666667 9.54166667,10.3333333 10.1416667,9.725 L11.175,8.675 C11.4833333,8.375 11.6666667,7.95833333 11.6666667,7.5 C11.6666667,6.58333333 10.9166667,5.83333333 10,5.83333333 C9.08333333,5.83333333 8.33333333,6.58333333 8.33333333,7.5 L6.66666667,7.5 C6.66666667,5.65833333 8.15833333,4.16666667 10,4.16666667 C11.8416667,4.16666667 13.3333333,5.65833333 13.3333333,7.5 C13.3333333,8.23333333 13.0333333,8.9 12.5583333,9.375 Z" id="Shape" fill="#24272C" fill-rule="nonzero"></path>
            </g>
        </g>
    </g>
</svg>