<?xml version="1.0" encoding="UTF-8"?>
<svg width="34px" height="34px" viewBox="0 0 34 34" version="1.1" xmlns="http://www.w3.org/2000/svg" xmlns:xlink="http://www.w3.org/1999/xlink">
    <!-- Generator: Sketch 53.2 (72643) - https://sketchapp.com -->
    <title>FB</title>
    <desc>Created with Sketch.</desc>
    <g id="Page-1" stroke="none" stroke-width="1" fill="none" fill-rule="evenodd">
        <g id="facebook-(1)" transform="translate(1.000000, 1.000000)" fill-rule="nonzero">
            <path d="M18.579834,31.7305107 C18.4465332,31.7652763 18.3127441,31.7973076 18.1784668,31.8266044 C18.3127441,31.7973076 18.4465332,31.7652763 18.579834,31.7305107 Z" id="Path" fill="#000000"></path>
            <path d="M18.8999024,31.6839391 C18.8361816,31.7026891 18.7724609,31.7198766 18.7087402,31.7374547 C18.7724609,31.7198766 18.8361816,31.7026891 18.8999024,31.6839391 Z" id="Path" fill="#000000"></path>
            <path d="M17.8210449,31.838914 C17.6650391,31.867039 17.5080566,31.892039 17.3505859,31.9131327 C17.5080566,31.892039 17.6650391,31.867039 17.8210449,31.838914 Z" id="Path" fill="#000000"></path>
            <path d="M18.128418,31.8069006 C18.0534668,31.8229163 17.9780274,31.83776 17.902832,31.8518225 C17.9780274,31.83776 18.0534668,31.8229163 18.128418,31.8069006 Z" id="Path" fill="#000000"></path>
            <path d="M19.3354492,31.5970939 C19.2792969,31.6162345 19.2229004,31.6353752 19.1665039,31.6537345 C19.2229004,31.6353752 19.2792969,31.6162345 19.3354492,31.5970939 Z" id="Path" fill="#000000"></path>
            <path d="M20.4165039,31.3283279 C20.3710938,31.349031 20.3256836,31.3685623 20.2802734,31.3888748 C20.3256836,31.3685623 20.3710938,31.349031 20.4165039,31.3283279 Z" id="Path" fill="#000000"></path>
            <path d="M20.0895996,31.4172888 C20.0402832,31.4379919 19.9907226,31.4590857 19.9411621,31.4790075 C19.9907226,31.4590857 20.0402832,31.4383825 20.0895996,31.4172888 Z" id="Path" fill="#000000"></path>
            <path d="M19.6618653,31.5249692 C19.6096191,31.5445005 19.5568848,31.5628598 19.5041504,31.5816098 C19.5568848,31.5628598 19.6096191,31.5445005 19.6618653,31.5249692 Z" id="Path" fill="#000000"></path>
            <path d="M17.345459,31.8939274 C17.2612305,31.9052555 17.1770019,31.9154118 17.0925293,31.9243961 C17.1770019,31.9154118 17.2612305,31.9052555 17.345459,31.8939274 Z" id="Path" fill="#000000"></path>
            <path d="M32,15.9688109 C32,7.15082848 24.8352051,0 16,0 C7.16479494,0 0,7.15082848 0,15.9688109 C0,24.7867934 7.16479494,31.9376218 16,31.9376218 C16.0939941,31.9376218 16.1875,31.9356725 16.28125,31.9339668 L16.28125,19.502924 L12.84375,19.502924 L12.84375,15.5046296 L16.28125,15.5046296 L16.28125,12.5623782 C16.28125,9.15009747 18.3684082,7.29288496 21.4182129,7.29288496 C22.8786621,7.29288496 24.1340332,7.40155945 24.5,7.45004875 L24.5,11.0163256 L22.3969726,11.0163256 C20.737793,11.0163256 20.4165039,11.8033626 20.4165039,12.9580897 L20.4165039,15.5046296 L24.3837891,15.5046296 L23.8666992,19.502924 L20.4165039,19.502924 L20.4165039,31.3206628 C27.1042481,29.4071638 32,23.2577972 32,15.9688109 Z" id="Path" fill="#FFFFFF"></path>
            <path d="M17.0571289,31.9133628 C16.890625,31.9305502 16.7233887,31.9442221 16.5556641,31.9532065 C16.7233887,31.9442221 16.890625,31.9305502 17.0571289,31.9133628 Z" id="Path" fill="#000000"></path>
            <path d="M16.5471191,31.9442149 C16.4587402,31.9489023 16.3701172,31.952418 16.2814941,31.9547617 C16.3701172,31.952418 16.4587402,31.9489023 16.5471191,31.9442149 Z" id="Path" fill="#000000"></path>
        </g>
    </g>
</svg>