<svg id="free_tag" xmlns="http://www.w3.org/2000/svg" width="29.267" height="12.543" viewBox="0 0 29.267 12.543">
  <g id="Group-11" transform="translate(0)">
    <path id="Combined-Shape" d="M27.8,0a1.43,1.43,0,0,1,1.463,1.394v9.756A1.43,1.43,0,0,1,27.8,12.543H1.463A1.43,1.43,0,0,1,0,11.149V1.394A1.43,1.43,0,0,1,1.463,0ZM9.012,3.114H4.947V9.059H6.233V6.629H8.7V5.641H6.233V4.106H9.012Zm3.065,0H9.758V9.059h1.286V6.883h1.025l1.17,2.176h1.38V9l-1.35-2.429a1.869,1.869,0,0,0,.838-.647,1.763,1.763,0,0,0,.277-1.015,1.587,1.587,0,0,0-.6-1.327,2.567,2.567,0,0,0-1.509-.466Zm7.46,0H15.361V9.059h4.184V8.075h-2.9V6.482h2.469v-.96H16.647V4.106h2.89Zm4.939,0H20.3V9.059h4.184V8.075h-2.9V6.482h2.469v-.96H21.586V4.106h2.89Zm-12.4.992a1.075,1.075,0,0,1,.77.241.874.874,0,0,1,.251.661.819.819,0,0,1-.266.647,1.1,1.1,0,0,1-.75.235H11.044V4.106Z" transform="translate(0 0)" fill="#06b663" fill-rule="evenodd"/>
  </g>
</svg>
