<svg xmlns="http://www.w3.org/2000/svg" xmlns:xlink="http://www.w3.org/1999/xlink" width="50" height="50" viewBox="0 0 50 50">
  <defs>
    <clipPath id="clip-path">
      <rect id="Rectangle_109" data-name="Rectangle 109" width="50" height="50"/>
    </clipPath>
    <linearGradient id="linear-gradient" x1="0.634" y1="1" x2="0.621" y2="-0.021" gradientUnits="objectBoundingBox">
      <stop offset="0" stop-color="#472dc2"/>
      <stop offset="1" stop-color="#a592ef"/>
    </linearGradient>
    <linearGradient id="linear-gradient-2" x1="0.656" x2="0.662" y2="0" xlink:href="#linear-gradient"/>
  </defs>
  <g id="gst-software" clip-path="url(#clip-path)">
    <g id="stamp" transform="translate(1 1)">
      <path id="Union_45" data-name="Union 45" d="M-4808.56,508.791a1.435,1.435,0,0,1-1.435-1.435v-2.965a4.308,4.308,0,0,1,4.3-4.3h17.217a4.309,4.309,0,0,1,4.3,4.3v2.965a1.435,1.435,0,0,1-1.435,1.435Zm8.529-11.574a30.627,30.627,0,0,0-2.392-9.39,5.764,5.764,0,0,1-.22-3.531,5.729,5.729,0,0,1,4.319-4.167,5.759,5.759,0,0,1,4.859,1.152,5.722,5.722,0,0,1,2.123,4.458,5.629,5.629,0,0,1-.59,2.519,23.457,23.457,0,0,0-2.168,8.959Z" transform="translate(4833.148 -465.555)" fill="url(#linear-gradient)"/>
      <path id="Path_141" data-name="Path 141" d="M272,483.435a1.434,1.434,0,0,0,1.435,1.435h17.218a1.434,1.434,0,0,0,1.435-1.435V482H272Zm0,0" transform="translate(-245.982 -435.895)" fill="#fc0"/>
      <path id="Path_143" data-name="Path 143" d="M16.557,8.789,8.789,16.653h7.768Zm0,0" transform="translate(-7.948 -7.949)" fill="#fc0"/>
      <path id="Path_144" data-name="Path 144" d="M20.279,44.67V38.835a7.183,7.183,0,0,1,7.174-7.174h2.83a28.417,28.417,0,0,0-2.229-8.33,8.637,8.637,0,0,1-.342-5.274,8.544,8.544,0,0,1,6.519-6.293,8.821,8.821,0,0,1,3.265-.021V1.434A1.434,1.434,0,0,0,36.062,0H11.479V10.139a1.434,1.434,0,0,1-1.435,1.435H0V47.54a1.434,1.434,0,0,0,1.435,1.435H23.148V46.1H21.714a1.434,1.434,0,0,1-1.435-1.435ZM17.314,8.97V7.327a1.435,1.435,0,1,1,2.87,0V8.984a4.288,4.288,0,0,1,2.292,1.87,1.435,1.435,0,1,1-2.483,1.438,1.435,1.435,0,1,0-1.244,2.151,4.294,4.294,0,0,1,1.435,8.345v1.584a1.435,1.435,0,0,1-2.87,0v-1.6a4.289,4.289,0,0,1-2.292-1.87A1.435,1.435,0,0,1,17.5,19.464a1.435,1.435,0,1,0,1.244-2.151,4.294,4.294,0,0,1-1.435-8.345ZM15.879,43.235h-8.7a1.435,1.435,0,0,1,0-2.87h8.7a1.435,1.435,0,1,1,0,2.87Zm0-5.835h-8.7a1.435,1.435,0,0,1,0-2.87h8.7a1.435,1.435,0,1,1,0,2.87Zm2.87-5.739H7.174a1.435,1.435,0,1,1,0-2.87H18.748a1.435,1.435,0,0,1,0,2.87Zm0,0" fill="url(#linear-gradient-2)"/>
    </g>
  </g>
</svg>
