<svg id="help_icon" xmlns="http://www.w3.org/2000/svg" width="16" height="15.046" viewBox="0 0 16 15.046">
  <path id="Path_16298" data-name="Path 16298" d="M14.658,15.295A4.611,4.611,0,0,0,8,15.461a4.6,4.6,0,1,0-6.54,6.445,1.611,1.611,0,0,0,.9,2.75,1.612,1.612,0,0,0,1.6,1.716,1.61,1.61,0,0,0,2.01,1.443,1.611,1.611,0,0,0,2.688.717c.492-.489.882-.8.907-1.537A1.612,1.612,0,0,0,11.1,25.449,1.612,1.612,0,0,0,12.643,23.9a1.613,1.613,0,0,0,1.549-1.647l.467-.467A4.6,4.6,0,0,0,14.658,15.295ZM2.163,22.653l.438-.438a.581.581,0,0,1,.822.822l-.438.438A.581.581,0,0,1,2.163,22.653Zm1.222,2.113a.577.577,0,0,1,.17-.411l.439-.439a.581.581,0,0,1,.821.822l-.387.387a.609.609,0,0,1-.462.222A.584.584,0,0,1,3.385,24.766Zm1.769,1.906a.584.584,0,0,1,0-.822l.387-.387a.589.589,0,0,1,.873-.052.582.582,0,0,1,0,.822l-.438.438A.581.581,0,0,1,5.154,26.672Zm3.22.7-.438.438a.581.581,0,0,1-.822,0,.584.584,0,0,1,0-.822l.438-.438a.581.581,0,1,1,.822.822ZM13,22.708a.584.584,0,0,1-.822,0L9.891,20.425l-.725.725,2.283,2.283a.581.581,0,1,1-.822.822L8.383,22.011l-.039-.039-.725.725.039.039L9.9,24.98a.581.581,0,1,1-.822.822h0a1.608,1.608,0,0,0-1.525-.4,1.615,1.615,0,0,0-1.547-1.187,1.613,1.613,0,0,0-1.392-1.482,1.61,1.61,0,0,0-2.386-1.512,3.572,3.572,0,1,1,5.046-5.037L6.006,17.454,7.022,18.47a2.326,2.326,0,0,0,2.88.322L13,21.886a.582.582,0,0,1,0,.822Zm.937-1.646-.156.156-.055-.058L9.943,17.382l-.363.363a1.3,1.3,0,0,1-1.833,0l-.291-.291L8.891,16.02a3.565,3.565,0,0,1,5.042,5.042Z" transform="translate(0 -13.955)"/>
</svg>
