<?xml version="1.0" encoding="UTF-8"?>
<svg width="20px" height="20px" viewBox="0 0 20 20" version="1.1" xmlns="http://www.w3.org/2000/svg" xmlns:xlink="http://www.w3.org/1999/xlink">
    <!-- Generator: Sketch 53.2 (72643) - https://sketchapp.com -->
    <title>home_20</title>
    <desc>Created with Sketch.</desc>
    <g id="Page-1" stroke="none" stroke-width="1" fill="none" fill-rule="evenodd">
        <g id="Artboard" transform="translate(-79.000000, -124.000000)">
            <g id="outline-home-24px" transform="translate(79.000000, 124.000000)">
                <polygon id="Path" points="0 0 20 0 20 20 0 20"></polygon>
                <path d="M10,4.74166667 L14.1666667,8.49166667 L14.1666667,15 L12.5,15 L12.5,10 L7.5,10 L7.5,15 L5.83333333,15 L5.83333333,8.49166667 L10,4.74166667 L10,4.74166667 Z M10,2.5 L1.66666667,10 L4.16666667,10 L4.16666667,16.6666667 L9.16666667,16.6666667 L9.16666667,11.6666667 L10.8333333,11.6666667 L10.8333333,16.6666667 L15.8333333,16.6666667 L15.8333333,10 L18.3333333,10 L10,2.5 Z" id="Shape" fill="#24272C" fill-rule="nonzero"></path>
            </g>
        </g>
    </g>
</svg>