<svg xmlns="http://www.w3.org/2000/svg" width="30" height="30" viewBox="0 0 30 30">
  <g id="home" transform="translate(-503 -1463)">
    <rect id="Rectangle_10892" data-name="Rectangle 10892" width="30" height="30" transform="translate(503 1463)" fill="none"/>
    <g id="Group_12033" data-name="Group 12033" transform="translate(473.898 1464.088)">
      <path id="Subtraction_1" data-name="Subtraction 1" d="M-33.616-812.536h-1.461a2.824,2.824,0,0,1-2.821-2.821v-9.229a2.814,2.814,0,0,1,.826-1.994l7.131-7.132a4.679,4.679,0,0,1,3.325-1.374,4.679,4.679,0,0,1,3.325,1.374l7.132,7.132a2.822,2.822,0,0,1,.826,1.994v9.229a2.824,2.824,0,0,1-2.821,2.821h-1.462v-1.88h1.462a.941.941,0,0,0,.94-.94v-9.229a.939.939,0,0,0-.275-.662l-7.131-7.132a2.811,2.811,0,0,0-2-.824,2.808,2.808,0,0,0-2,.824l-7.132,7.129a.945.945,0,0,0-.275.665v9.229a.942.942,0,0,0,.94.94h1.461v1.88Z" transform="translate(70.718 837.897)" fill="#747474"/>
      <g id="Rectangle_10894" data-name="Rectangle 10894" transform="translate(39.102 13.912)">
        <path id="Path_17076" data-name="Path 17076" d="M5,0H5a5,5,0,0,1,5,5v6.4H0V5A5,5,0,0,1,5,0Z" fill="none"/>
        <path id="Path_17077" data-name="Path 17077" d="M5,.85H5A4.15,4.15,0,0,1,9.15,5v5.55H.85V5A4.15,4.15,0,0,1,5,.85Z" fill="none" stroke="#1973e8" stroke-width="1.7"/>
      </g>
    </g>
  </g>
</svg>
