<svg id="icon_seller" xmlns="http://www.w3.org/2000/svg" width="24" height="24" viewBox="0 0 24 24">
  <rect id="Rectangle_193" data-name="Rectangle 193" width="24" height="24" fill="none"/>
  <g id="noun-rupee-1060357" transform="translate(2.121 2.121)">
    <path id="Path_16282" data-name="Path 16282" d="M147.079,67.2a9.852,9.852,0,1,0,6.993,2.886,9.9,9.9,0,0,0-6.993-2.886Zm5.875,15.754a8.3,8.3,0,0,1-5.875,2.444,8.2,8.2,0,0,1-5.875-2.444,8.3,8.3,0,0,1-2.444-5.875A8.2,8.2,0,0,1,141.2,71.2a8.3,8.3,0,0,1,5.875-2.444,8.2,8.2,0,0,1,5.875,2.444,8.3,8.3,0,0,1,2.444,5.875A8.2,8.2,0,0,1,152.954,82.953Z" transform="translate(-137.646 -67.645)" fill="#24282c"/>
    <path id="Path_16290" data-name="Path 16290" d="M249.414,121.13v1.179c.752.036,2.673-.109,2.97.744h-2.97V124.1h3.109a1.852,1.852,0,0,1-1.465.979l-1.643.036-.02,1.052,3.445,3.663h1.782l-3.247-3.645a2.918,2.918,0,0,0,2.752-2.14l1.247.036v-1h-1.346a1.585,1.585,0,0,0-.376-.925h1.762V121.13Z" transform="translate(-242.815 -115.679)" fill-rule="evenodd"/>
  </g>
</svg>
