<svg xmlns="http://www.w3.org/2000/svg" width="18" height="18" viewBox="0 0 18 18">
  <path id="icon_download" d="M189-766.905a1.154,1.154,0,0,1-.4-.069.994.994,0,0,1-.355-.238l-3.732-3.732a.846.846,0,0,1-.264-.626.921.921,0,0,1,.264-.638.916.916,0,0,1,.642-.289.849.849,0,0,1,.642.27l2.308,2.308v-9.18a.871.871,0,0,1,.258-.642A.871.871,0,0,1,189-780a.871.871,0,0,1,.641.258.871.871,0,0,1,.259.642v9.18l2.308-2.308a.855.855,0,0,1,.636-.265.9.9,0,0,1,.647.283.939.939,0,0,1,.27.632.839.839,0,0,1-.27.632l-3.732,3.732a1,1,0,0,1-.355.238A1.154,1.154,0,0,1,189-766.905ZM182.17-762a2.094,2.094,0,0,1-1.539-.63,2.094,2.094,0,0,1-.63-1.539v-2.354a.871.871,0,0,1,.258-.642.871.871,0,0,1,.641-.258.871.871,0,0,1,.642.258.871.871,0,0,1,.258.642v2.354a.353.353,0,0,0,.115.254.354.354,0,0,0,.254.116h13.661a.353.353,0,0,0,.254-.116.353.353,0,0,0,.115-.254v-2.354a.871.871,0,0,1,.258-.642.871.871,0,0,1,.642-.258.871.871,0,0,1,.642.258.871.871,0,0,1,.258.642v2.354a2.1,2.1,0,0,1-.63,1.539,2.094,2.094,0,0,1-1.539.63Z" transform="translate(-180.001 779.999)" fill="#fff"/>
</svg>
