<svg xmlns="http://www.w3.org/2000/svg" width="70" height="35" viewBox="0 0 70 35">
  <g id="icon_profile" transform="translate(-1358 -14)">
    <g id="Rectangle_11113" data-name="Rectangle 11113" transform="translate(1358 14)" fill="#fff" stroke="#ddd" stroke-width="1">
      <rect width="70" height="35" rx="17.5" stroke="none"/>
      <rect x="0.5" y="0.5" width="69" height="34" rx="17" fill="none"/>
    </g>
    <g id="noun-profile-1995071" transform="translate(1325.509 4.358)">
      <path id="Path_16286" data-name="Path 16286" d="M97.024,14a13.024,13.024,0,1,0,13.024,13.024A13.036,13.036,0,0,0,97.024,14Zm0,7.458a4.085,4.085,0,1,1-4.085,4.085A4.1,4.1,0,0,1,97.024,21.458ZM89.9,34.921v-.6a3.153,3.153,0,0,1,3.153-3.153H101a3.153,3.153,0,0,1,3.153,3.153v.6a10.638,10.638,0,0,1-14.257,0Z" transform="translate(-12.509)" fill="#4c5965"/>
    </g>
    <g id="menu-burger" transform="translate(1372.845 -48.283)">
      <path id="Path_16287" data-name="Path 16287" d="M13.271,224H.885a.919.919,0,0,0,0,1.837H13.271a.919.919,0,0,0,0-1.837Z" transform="translate(0 -144.943)" fill="#222"/>
      <path id="Path_16288" data-name="Path 16288" d="M.885,76.5H13.271a.919.919,0,0,0,0-1.837H.885a.919.919,0,0,0,0,1.837Z" fill="#222"/>
      <path id="Path_16289" data-name="Path 16289" d="M13.271,373.333H.885a.919.919,0,0,0,0,1.837H13.271a.919.919,0,0,0,0-1.837Z" transform="translate(0 -289.887)" fill="#222"/>
    </g>
  </g>
</svg>
