<svg xmlns="http://www.w3.org/2000/svg" xmlns:xlink="http://www.w3.org/1999/xlink" width="20" height="20" viewBox="0 0 20 20">
  <defs>
    <clipPath id="clip-path">
      <rect id="Rectangle_11729" data-name="Rectangle 11729" width="18.246" height="17.96" transform="translate(0 0)" fill="none"/>
    </clipPath>
  </defs>
  <g id="icon_enterprise" transform="translate(-6428 -7552)">
    <g id="Group_16490" data-name="Group 16490" transform="translate(6429 7553)">
      <g id="Group_16489" data-name="Group 16489" clip-path="url(#clip-path)">
        <path id="Path_17413" data-name="Path 17413" d="M2.782,17.96V13.474a1.7,1.7,0,0,1,1.7-1.7H7.268a1.7,1.7,0,0,1,1.7,1.7V17.96Zm4.637-1.552V13.474a.151.151,0,0,0-.151-.152H4.485a.152.152,0,0,0-.152.152v2.934Z" fill="#24272c"/>
        <path id="Path_17414" data-name="Path 17414" d="M2.631,17.959A2.633,2.633,0,0,1,0,15.329V4.689A2.636,2.636,0,0,1,1.937,2.151L9.6.061A1.745,1.745,0,0,1,10.054,0a1.705,1.705,0,0,1,1.7,1.705V4.668l4.9,2.047a2.627,2.627,0,0,1,1.6,2.417v6.2a2.634,2.634,0,0,1-2.631,2.63Zm12.983-1.55a1.081,1.081,0,0,0,1.079-1.079v-6.2a1.077,1.077,0,0,0-.653-.991L11.753,6.3V16.409Zm-5.6-14.851L2.346,3.648a1.084,1.084,0,0,0-.8,1.042V15.33a1.082,1.082,0,0,0,1.08,1.079H10.2V1.705a.146.146,0,0,0-.06-.121l-.09-.03v-.08ZM13.759,14.25a.775.775,0,0,1,0-1.551h.928a.775.775,0,1,1,0,1.551Zm0-2.782a.776.776,0,0,1,0-1.551h.928a.776.776,0,1,1,0,1.551ZM4.485,9.613a.775.775,0,1,1,0-1.551H7.267a.775.775,0,1,1,0,1.551Zm0-2.782a.776.776,0,1,1,0-1.552H7.267a.776.776,0,1,1,0,1.552Z" fill="#24272c"/>
      </g>
    </g>
    <path id="Path" d="M0,0H20V20H0Z" transform="translate(6428 7552)" fill="none" fill-rule="evenodd"/>
  </g>
</svg>
