<svg xmlns="http://www.w3.org/2000/svg" width="20" height="20" viewBox="0 0 24 24">
  <g id="icon_wishlist" transform="translate(-8732 -4390)">
    <rect id="Rectangle_11440" data-name="Rectangle 11440" width="24" height="24" transform="translate(8732 4390)" fill="none"/>
    <path id="favorite_FILL0_wght300_GRAD0_opsz40" d="M110.117,241.46l-1.5-1.373a80.176,80.176,0,0,1-6.036-6.1A9.2,9.2,0,0,1,100,227.858,5.745,5.745,0,0,1,105.846,222a6.632,6.632,0,0,1,2.875.7,6.984,6.984,0,0,1,2.662,2.446,7.62,7.62,0,0,1,2.687-2.446,6.392,6.392,0,0,1,2.851-.7,5.745,5.745,0,0,1,5.845,5.857,9.222,9.222,0,0,1-2.635,6.184q-2.635,2.959-5.994,6.043l-1.488,1.363a1.844,1.844,0,0,1-1.266.495A1.8,1.8,0,0,1,110.117,241.46Zm.582-14.7a7.332,7.332,0,0,0-2.185-2.429,4.715,4.715,0,0,0-2.669-.826,4.206,4.206,0,0,0-4.339,4.352,6.322,6.322,0,0,0,.958,3.178,20.548,20.548,0,0,0,2.4,3.275A41.658,41.658,0,0,0,108,237.477l3.144,2.862a.343.343,0,0,0,.484,0q1.455-1.311,3.144-2.856A41.792,41.792,0,0,0,117.9,234.3a20.777,20.777,0,0,0,2.4-3.281,6.3,6.3,0,0,0,.958-3.166,4.216,4.216,0,0,0-4.339-4.352,4.725,4.725,0,0,0-2.679.82,7.517,7.517,0,0,0-2.2,2.435.86.86,0,0,1-.3.295.748.748,0,0,1-.37.1.8.8,0,0,1-.384-.1A.707.707,0,0,1,110.7,226.761ZM111.383,231.986Z" transform="translate(8632.386 4169.418)" fill="#acacac"/>
  </g>
</svg>
