<svg xmlns="http://www.w3.org/2000/svg" xmlns:xlink="http://www.w3.org/1999/xlink" width="50" height="50" viewBox="0 0 50 50">
  <defs>
    <clipPath id="clip-path">
      <rect id="Rectangle_117" data-name="Rectangle 117" width="50" height="50"/>
    </clipPath>
    <linearGradient id="linear-gradient" x1="0.5" x2="0.5" y2="1" gradientUnits="objectBoundingBox">
      <stop offset="0" stop-color="#472dc2"/>
      <stop offset="1" stop-color="#a592ef"/>
    </linearGradient>
  </defs>
  <g id="income-tax-software" clip-path="url(#clip-path)">
    <g id="clipboard" transform="translate(6)">
      <path id="Path_184" data-name="Path 184" d="M158.74,1.457A1.457,1.457,0,0,0,157.283,0h-5.826A1.456,1.456,0,0,0,150,1.457V5.924h8.74Zm0,0" transform="translate(-135.434)" fill="#fc0"/>
      <path id="Path_185" data-name="Path 185" d="M36.415,31h-10.2v4.37a1.457,1.457,0,0,1-1.457,1.457H13.11a1.457,1.457,0,0,1-1.457-1.457V31H1.457A1.457,1.457,0,0,0,0,32.457v43.8a1.457,1.457,0,0,0,1.457,1.457H36.415a1.457,1.457,0,0,0,1.457-1.457v-43.8A1.457,1.457,0,0,0,36.415,31ZM11.653,68.6v1.608a1.457,1.457,0,1,1-2.913,0v-1.62a4.355,4.355,0,0,1-2.327-1.9,1.457,1.457,0,1,1,2.521-1.46A1.457,1.457,0,1,0,10.2,63.046a4.359,4.359,0,0,1-1.46-8.472V52.908a1.457,1.457,0,1,1,2.913,0V54.59a4.353,4.353,0,0,1,2.327,1.9,1.457,1.457,0,1,1-2.521,1.46A1.457,1.457,0,1,0,10.2,60.132,4.359,4.359,0,0,1,11.653,68.6Zm18.936,3.181H18.936a1.457,1.457,0,0,1,0-2.913H30.589a1.457,1.457,0,1,1,0,2.913Zm0-5.826H18.936a1.457,1.457,0,1,1,0-2.913H30.589a1.457,1.457,0,1,1,0,2.913Zm0-5.826H18.936a1.457,1.457,0,0,1,0-2.913H30.589a1.457,1.457,0,1,1,0,2.913Zm0-5.826H18.936a1.457,1.457,0,0,1,0-2.913H30.589a1.457,1.457,0,1,1,0,2.913Zm0-5.826H7.283a1.457,1.457,0,0,1,0-2.913H30.589a1.457,1.457,0,1,1,0,2.913Zm0-5.826H7.283a1.457,1.457,0,0,1,0-2.913H30.589a1.457,1.457,0,1,1,0,2.913Zm0,0" transform="translate(0 -27.99)" fill="url(#linear-gradient)"/>
    </g>
  </g>
</svg>
