<?xml version="1.0" encoding="UTF-8"?>
<svg width="34px" height="34px" viewBox="0 0 34 34" version="1.1" xmlns="http://www.w3.org/2000/svg" xmlns:xlink="http://www.w3.org/1999/xlink">
    <!-- Generator: Sketch 53.2 (72643) - https://sketchapp.com -->
    <title>LI Copy</title>
    <desc>Created with Sketch.</desc>
    <g id="Page-1" stroke="none" stroke-width="1" fill="none" fill-rule="evenodd">
        <g id="instagram-(1)" transform="translate(1.000000, 1.000000)" fill="#FFFFFF" fill-rule="nonzero">
            <path d="M19.0625,16 C19.0625,17.6914062 17.6914062,19.0625 16,19.0625 C14.3085938,19.0625 12.9375,17.6914062 12.9375,16 C12.9375,14.3085938 14.3085938,12.9375 16,12.9375 C17.6914062,12.9375 19.0625,14.3085938 19.0625,16 Z M23.1621094,10.581543 C23.2880859,10.9052734 23.4377441,11.3918457 23.4785156,12.2875976 C23.5227051,13.2563476 23.5319824,13.546875 23.5319824,16.0002441 C23.5319824,18.4533691 23.5227051,18.7438965 23.4785156,19.7128906 C23.4375,20.6086426 23.2878418,21.0949707 23.1621094,21.4187012 C22.8530274,22.2199707 22.2197266,22.8532715 21.418457,23.1623535 C21.0947266,23.2883301 20.6081543,23.4379882 19.7124024,23.4787597 C18.7438965,23.5229492 18.4533691,23.5322266 15.9997559,23.5322266 C13.5463868,23.5322266 13.2561035,23.5229492 12.2873535,23.4787597 C11.3916016,23.4379882 10.9050293,23.2883301 10.5812988,23.1623535 C10.1821289,23.0151367 9.82128906,22.7802734 9.52490238,22.4750976 C9.21972656,22.1787109 8.98510744,21.8178711 8.8376465,21.4187012 C8.71191406,21.0949707 8.56225588,20.6086426 8.52148438,19.7128906 C8.47729494,18.7438965 8.46777344,18.4533691 8.46777344,16.0002441 C8.46777344,13.546875 8.47729494,13.2563476 8.52148438,12.2875976 C8.56225588,11.3918457 8.71191406,10.9052734 8.8376465,10.581543 C8.98510744,10.1823731 9.21997069,9.82153319 9.5251465,9.5251465 C9.82128906,9.21997069 10.1823731,8.98510744 10.581543,8.83789062 C10.9050293,8.71215819 11.3916016,8.5625 12.2873535,8.52148438 C13.2561035,8.47729494 13.5466309,8.46801756 16,8.46801756 C18.453125,8.46801756 18.7436524,8.47753906 19.7126465,8.5217285 C20.6083984,8.5625 21.0947266,8.71215819 21.418457,8.83789062 C21.8176269,8.98510744 22.1784668,9.21997069 22.4748535,9.5251465 C22.7800293,9.82153319 23.0148926,10.1826172 23.1621094,10.581543 Z M16,20.7177734 C18.6054688,20.7177734 20.7177734,18.6057129 20.7177734,16 C20.7177734,13.3942871 18.6054688,11.2822266 16,11.2822266 C13.3942871,11.2822266 11.2819824,13.3942871 11.2819824,16 C11.2819824,18.6057129 13.3942871,20.7177734 16,20.7177734 Z M20.9042969,12.1982422 C21.5131836,12.1982422 22.0065918,11.7045899 22.0068359,11.0957031 C22.0068359,10.4868164 21.5131836,9.99316406 20.9042969,9.99316406 C20.2954101,9.99316406 19.8017578,10.4868164 19.8017578,11.0957031 C19.8017578,11.7045899 20.2954101,12.1982422 20.9042969,12.1982422 Z M16,0 C24.8352051,0 32,7.16479494 32,16 C32,24.8352051 24.8352051,32 16,32 C7.16479494,32 0,24.8352051 0,16 C0,7.16479494 7.16479494,0 16,0 Z M25.1320801,19.7878418 C25.1770019,18.8081055 25.1875,18.4951172 25.1875,16 C25.1875,13.5048828 25.1770019,13.1918945 25.1323242,12.2121582 C25.0876465,11.2341309 24.9323731,10.5664063 24.7050781,9.98193363 C24.4746094,9.3688965 24.112793,8.81372069 23.6455078,8.35473631 C23.1865234,7.887207 22.6311035,7.52539063 22.0180664,7.29467775 C21.4335938,7.06787113 20.7658691,6.91259763 19.7878418,6.86816406 C18.8081055,6.82324219 18.4951172,6.8125 16,6.8125 C13.5048828,6.8125 13.1918945,6.82324219 12.2121582,6.86791994 C11.2341309,6.91259763 10.5664063,7.06787113 9.98193363,7.29492188 C9.3688965,7.52563475 8.81347656,7.887207 8.35473631,8.35473631 C7.887207,8.81347656 7.52539063,9.3688965 7.29467775,9.98193363 C7.06762694,10.5664063 6.9123535,11.2341309 6.86791994,12.2121582 C6.82299806,13.1918945 6.8125,13.5048828 6.8125,16 C6.8125,18.4951172 6.82299806,18.8081055 6.86816406,19.7880859 C6.91259763,20.7658691 7.06811525,21.4338379 7.295166,22.0180664 C7.52587888,22.6311035 7.88745119,23.1865234 8.35473631,23.6452637 C8.81372069,24.112793 9.3688965,24.4743653 9.98217775,24.7050781 C10.5664063,24.9321289 11.234375,25.0874024 12.2121582,25.1320801 C13.1921387,25.1767578 13.5048828,25.1875 16.0002441,25.1875 C18.4953613,25.1875 18.8083496,25.1767578 19.7880859,25.1320801 C20.7658691,25.0874024 21.4338379,24.9321289 22.0180664,24.7050781 C23.2521973,24.2277832 24.2277832,23.2521973 24.7050781,22.0180664 C24.9321289,21.4335938 25.0876465,20.7658691 25.1320801,19.7878418 Z" id="Combined-Shape"></path>
        </g>
    </g>
</svg>