<svg id="Instagram" xmlns="http://www.w3.org/2000/svg" width="30" height="30" viewBox="0 0 30 30">
  <rect id="Rectangle_1" data-name="Rectangle 1" width="30" height="30" fill="none" opacity="0.3"/>
  <path id="Path_2" data-name="Path 2" d="M12.165,2.192c3.248,0,3.633.013,4.916.071a6.723,6.723,0,0,1,2.259.419,3.766,3.766,0,0,1,1.4.91,3.764,3.764,0,0,1,.91,1.4,6.734,6.734,0,0,1,.419,2.259c.059,1.283.071,1.668.071,4.916s-.012,3.633-.071,4.915a6.736,6.736,0,0,1-.419,2.259,4.03,4.03,0,0,1-2.309,2.309,6.719,6.719,0,0,1-2.259.419c-1.283.058-1.668.071-4.916.071s-3.633-.013-4.916-.071a6.719,6.719,0,0,1-2.259-.419,3.767,3.767,0,0,1-1.4-.91,3.773,3.773,0,0,1-.91-1.4,6.738,6.738,0,0,1-.418-2.259c-.059-1.283-.071-1.668-.071-4.915s.012-3.633.071-4.916a6.736,6.736,0,0,1,.418-2.259,3.771,3.771,0,0,1,.91-1.4,3.764,3.764,0,0,1,1.4-.91A6.723,6.723,0,0,1,7.25,2.263c1.283-.059,1.667-.071,4.916-.071m0-2.192C8.861,0,8.447.014,7.15.073A8.91,8.91,0,0,0,4.2.639a5.952,5.952,0,0,0-2.155,1.4A5.959,5.959,0,0,0,.639,4.2,8.914,8.914,0,0,0,.074,7.149C.014,8.447,0,8.862,0,12.166s.014,3.718.074,5.015a8.911,8.911,0,0,0,.565,2.953,5.954,5.954,0,0,0,1.4,2.155,5.958,5.958,0,0,0,2.155,1.4,8.926,8.926,0,0,0,2.953.565c1.3.059,1.712.073,5.016.073s3.718-.014,5.016-.073a8.93,8.93,0,0,0,2.953-.565,6.221,6.221,0,0,0,3.558-3.558,8.912,8.912,0,0,0,.565-2.953c.06-1.3.074-1.712.074-5.015s-.014-3.718-.074-5.016A8.915,8.915,0,0,0,23.692,4.2a5.963,5.963,0,0,0-1.4-2.155,5.959,5.959,0,0,0-2.155-1.4A8.914,8.914,0,0,0,17.181.073C15.883.014,15.469,0,12.165,0m0,5.918a6.247,6.247,0,1,0,6.247,6.247,6.247,6.247,0,0,0-6.247-6.247m0,10.3a4.055,4.055,0,1,1,4.055-4.055,4.056,4.056,0,0,1-4.055,4.055M20.119,5.672a1.46,1.46,0,1,0-1.46,1.46,1.46,1.46,0,0,0,1.46-1.46" transform="translate(3.676 2.61)" fill="rgba(255,255,255,0.8)"/>
</svg>
