<svg xmlns="http://www.w3.org/2000/svg" xmlns:xlink="http://www.w3.org/1999/xlink" width="20" height="20" viewBox="0 0 20 20">
  <defs>
    <clipPath id="clip-path">
      <rect id="Rectangle_11475" data-name="Rectangle 11475" width="20" height="20" transform="translate(4 2)" fill="#e7eaf0"/>
    </clipPath>
  </defs>
  <g id="icon_licence" transform="translate(-4 -2)" clip-path="url(#clip-path)">
    <g id="password_2_" data-name="password (2)" transform="translate(4 2)">
      <path id="Path_17067" data-name="Path 17067" d="M15.147,8.428H14.006V7.373l-.914.528-.586-1.015.914-.528-.914-.528.586-1.015.914.528V4.288h1.172V5.344l.914-.528.586,1.015-.914.528.914.528L16.091,7.9l-.914-.528V8.422a4.985,4.985,0,0,1,2.852.246V2.9H0V9.819H12.634a4.976,4.976,0,0,1,2.513-1.391ZM5.523,6.886,4.937,7.9l-.914-.527V8.428H2.852V7.373L1.938,7.9,1.352,6.886l.914-.528-.914-.528.586-1.015.914.527V4.288H4.023V5.343l.914-.528.586,1.015-.914.528Zm5.577,0L10.514,7.9,9.6,7.373V8.428H8.429V7.373L7.515,7.9,6.929,6.886l.914-.528-.914-.528.586-1.015.914.528V4.288H9.6V5.344l.914-.528L11.1,5.831l-.914.528Z" fill="#e7eaf0"/>
      <path id="Path_17068" data-name="Path 17068" d="M16.193,9.489A3.807,3.807,0,1,0,20,13.3,3.811,3.811,0,0,0,16.193,9.489Zm-.512,5.926-1.973-1.973.829-.829,1.144,1.144L17.85,11.59l.829.829Z" fill="#e7eaf0"/>
    </g>
  </g>
</svg>
