<svg id="link_orange" xmlns="http://www.w3.org/2000/svg" width="24" height="24" viewBox="0 0 24 24">
  <g id="Group_12486" data-name="Group 12486">
    <rect id="Rectangle_11012" data-name="Rectangle 11012" width="24" height="24" fill="none"/>
    <path id="Path_16193" data-name="Path 16193" d="M19.127,36.236a.144.144,0,0,0,.05.1l2.565,2.2a.143.143,0,0,0,.2-.011l7.064-7.616a.143.143,0,0,0,0-.2l-7.07-7.6a.143.143,0,0,0-.2-.011L19.177,25.3a.143.143,0,0,0-.014.2l4.633,5.3-4.634,5.326A.143.143,0,0,0,19.127,36.236Z" transform="translate(-12.284 -18.848)" fill="#f75d34"/>
  </g>
</svg>
