<?xml version="1.0" encoding="UTF-8"?>
<svg width="34px" height="34px" viewBox="0 0 34 34" version="1.1" xmlns="http://www.w3.org/2000/svg" xmlns:xlink="http://www.w3.org/1999/xlink">
    <!-- Generator: Sketch 53.2 (72643) - https://sketchapp.com -->
    <title>LI</title>
    <desc>Created with Sketch.</desc>
    <g id="Page-1" stroke="none" stroke-width="1" fill="none" fill-rule="evenodd">
        <g id="linkedin-(1)" transform="translate(1.000000, 1.000000)" fill="#FFFFFF" fill-rule="nonzero">
            <path d="M16,0 C7.16479494,0 0,7.16479494 0,16 C0,24.8352051 7.16479494,32 16,32 C24.8352051,32 32,24.8352051 32,16 C32,7.16479494 24.8352051,0 16,0 Z M11.3505859,24.1875 L7.45385744,24.1875 L7.45385744,12.4641113 L11.3505859,12.4641113 L11.3505859,24.1875 Z M9.40234375,10.8632812 L9.37695312,10.8632812 C8.06933594,10.8632812 7.22363281,9.96313475 7.22363281,8.83813475 C7.22363281,7.68774413 8.09521487,6.8125 9.42822263,6.8125 C10.7612305,6.8125 11.581543,7.68774413 11.6069336,8.83813475 C11.6069336,9.96313475 10.7612305,10.8632812 9.40234375,10.8632812 Z M25.4013672,24.1875 L21.5051269,24.1875 L21.5051269,17.9157715 C21.5051269,16.3395996 20.940918,15.2646484 19.5310059,15.2646484 C18.4545899,15.2646484 17.8134766,15.9897461 17.5317383,16.6896972 C17.4287109,16.9401856 17.4035644,17.2902832 17.4035644,17.640625 L17.4035644,24.1875 L13.5070801,24.1875 C13.5070801,24.1875 13.5581055,13.5639649 13.5070801,12.4641113 L17.4035644,12.4641113 L17.4035644,14.1240234 C17.9213868,13.3251953 18.8479004,12.1889649 20.9152832,12.1889649 C23.4790039,12.1889649 25.4013672,13.8645019 25.4013672,17.465332 L25.4013672,24.1875 Z" id="Shape"></path>
        </g>
    </g>
</svg>