<svg xmlns="http://www.w3.org/2000/svg" xmlns:xlink="http://www.w3.org/1999/xlink" width="25" height="25" viewBox="0 0 30 30">
  <defs>
    <clipPath id="clip-path">
      <rect id="Rectangle_35" data-name="Rectangle 35" width="24" height="24" transform="translate(412 12)" fill="#24272c"/>
    </clipPath>
  </defs>
  <g id="live_online" transform="translate(-409 -9)">
    <rect id="Rectangle_34" data-name="Rectangle 34" width="30" height="30" transform="translate(409 9)" fill="none"/>
    <g id="Mask_Group_9" data-name="Mask Group 9" clip-path="url(#clip-path)">
      <path id="co_present_FILL1_wght400_GRAD0_opsz24" d="M22.909,22.909V5.455H3.273v8.727H1.091V5.455a2.1,2.1,0,0,1,.641-1.541,2.1,2.1,0,0,1,1.54-.64H22.909a2.186,2.186,0,0,1,2.182,2.182V20.727a2.186,2.186,0,0,1-2.182,2.182ZM9.818,15.273a4.2,4.2,0,0,1-3.082-1.282,4.2,4.2,0,0,1-1.282-3.082A4.2,4.2,0,0,1,6.736,7.827,4.2,4.2,0,0,1,9.818,6.545,4.2,4.2,0,0,1,12.9,7.827a4.2,4.2,0,0,1,1.282,3.082A4.2,4.2,0,0,1,12.9,13.991,4.2,4.2,0,0,1,9.818,15.273ZM1.091,24V20.945a3.258,3.258,0,0,1,1.745-2.891,16.218,16.218,0,0,1,3.436-1.269,15.1,15.1,0,0,1,7.091,0A16.218,16.218,0,0,1,16.8,18.055a3.258,3.258,0,0,1,1.745,2.891V24Z" transform="translate(410.909 10.364)" fill="#24272c"/>
    </g>
  </g>
</svg>
