<svg id="profile" xmlns="http://www.w3.org/2000/svg" width="24" height="24" viewBox="0 0 24 24">
  <rect id="Rectangle_193" data-name="Rectangle 193" width="24" height="24" fill="none"/>
  <g id="Group_10416" data-name="Group 10416" transform="translate(2.272 0.935)">
    <g id="user" transform="translate(1.729 2.065)">
      <path id="Path_34" data-name="Path 34" d="M91.492,8.922a4.316,4.316,0,0,0,3.154-1.307,4.317,4.317,0,0,0,1.307-3.154,4.317,4.317,0,0,0-1.307-3.154,4.46,4.46,0,0,0-6.308,0,4.316,4.316,0,0,0-1.307,3.154,4.317,4.317,0,0,0,1.307,3.154A4.318,4.318,0,0,0,91.492,8.922ZM89.106,2.074a3.374,3.374,0,0,1,4.773,0,3.225,3.225,0,0,1,.989,2.386,3.225,3.225,0,0,1-.989,2.387,3.374,3.374,0,0,1-4.773,0,3.224,3.224,0,0,1-.989-2.387A3.225,3.225,0,0,1,89.106,2.074Zm0,0" transform="translate(-83.883 0)" fill="#24282c"/>
      <path id="Path_35" data-name="Path 35" d="M15.415,252.612a11.018,11.018,0,0,0-.15-1.17,9.221,9.221,0,0,0-.288-1.177,5.813,5.813,0,0,0-.484-1.1,4.136,4.136,0,0,0-.729-.951,3.216,3.216,0,0,0-1.048-.658,3.621,3.621,0,0,0-1.338-.242,1.358,1.358,0,0,0-.725.307c-.217.142-.472.306-.755.487a4.327,4.327,0,0,1-.977.431,3.794,3.794,0,0,1-2.391,0,4.315,4.315,0,0,1-.977-.43c-.281-.18-.535-.344-.756-.487a1.356,1.356,0,0,0-.725-.307,3.616,3.616,0,0,0-1.337.242,3.213,3.213,0,0,0-1.048.658,4.138,4.138,0,0,0-.729.95,5.824,5.824,0,0,0-.484,1.1,9.243,9.243,0,0,0-.288,1.176,10.944,10.944,0,0,0-.15,1.171c-.025.354-.037.722-.037,1.094a3.075,3.075,0,0,0,.913,2.327,3.288,3.288,0,0,0,2.354.858h8.918a3.288,3.288,0,0,0,2.354-.858,3.074,3.074,0,0,0,.914-2.327C15.452,253.333,15.439,252.964,15.415,252.612Zm-1.624,2.634a2.214,2.214,0,0,1-1.605.559H3.267a2.214,2.214,0,0,1-1.605-.559,2.008,2.008,0,0,1-.576-1.54c0-.347.011-.69.034-1.019a9.872,9.872,0,0,1,.136-1.054,8.152,8.152,0,0,1,.253-1.037A4.741,4.741,0,0,1,1.9,249.7a3.066,3.066,0,0,1,.536-.7,2.133,2.133,0,0,1,.7-.433,2.5,2.5,0,0,1,.855-.165c.038.02.106.059.215.13.223.145.48.311.765.493a5.377,5.377,0,0,0,1.227.548,4.879,4.879,0,0,0,3.058,0,5.382,5.382,0,0,0,1.227-.549c.291-.186.541-.347.764-.493.11-.071.177-.11.215-.13a2.5,2.5,0,0,1,.855.165,2.136,2.136,0,0,1,.7.433,3.058,3.058,0,0,1,.536.7,4.725,4.725,0,0,1,.394.892,8.133,8.133,0,0,1,.253,1.037,9.953,9.953,0,0,1,.136,1.054h0c.023.328.035.67.035,1.018A2.008,2.008,0,0,1,13.79,255.246Zm0,0" transform="translate(0 -238.37)" fill="#24282c"/>
    </g>
  </g>
</svg>
