<svg xmlns="http://www.w3.org/2000/svg" width="164.512" height="30.192" viewBox="0 0 164.512 30.192">
  <g id="TJ_Bold_logo" data-name="TJ Bold logo" transform="translate(-14.022 -14.438)">
    <g id="Group_13016" data-name="Group 13016" transform="translate(14.022 14.438)">
      <path id="Path_16290" data-name="Path 16290" d="M38.76,38.323,36.817,36.44a1.278,1.278,0,0,0-1.53-.177c-.059.059-.177.118-.235.177l-.177.177a1.131,1.131,0,0,0-.235.706,1.162,1.162,0,0,0,.353.824l2,1.883a1.236,1.236,0,0,0,2.119-.883A.988.988,0,0,0,38.76,38.323Zm0,0L36.817,36.44a1.278,1.278,0,0,0-1.53-.177c-.059.059-.177.118-.235.177l-.177.177a1.131,1.131,0,0,0-.235.706,1.162,1.162,0,0,0,.353.824l2,1.883a1.236,1.236,0,0,0,2.119-.883A.988.988,0,0,0,38.76,38.323Zm7.416,5.3-.059.118a1.247,1.247,0,0,1-.706.471h-.118a.756.756,0,0,1-.589-.235L42.35,41.737a6.3,6.3,0,0,0,.883-1.295,5.868,5.868,0,0,0,.647-2.648A6.16,6.16,0,0,0,42,33.438l-3.649-3.472a6.409,6.409,0,0,0-3.59-1.707,4.757,4.757,0,0,0-.942-.059,6.619,6.619,0,0,0-4.532,1.766l-.942.942a7.1,7.1,0,0,0-1.177,1.53l-.059.059a5.528,5.528,0,0,0-.706,2.766,5.927,5.927,0,0,0,1.883,4.355l.824.824,2.707,2.59A7,7,0,0,0,35.581,44.8c.294,0,.53.059.824.059a6.836,6.836,0,0,0,4.12-1.413l2.413,2.3a3.5,3.5,0,0,0,2.354.942h.353a3.522,3.522,0,0,0,2.531-1.53h0l.059-.059c.294-.412.589-.883.824-1.295l-2.236-1.118C46.646,42.914,46.411,43.267,46.175,43.62Zm-5.238-4.355a3.662,3.662,0,0,1-.824,1.118l-1,.942a4.022,4.022,0,0,1-2.766,1.118,3.619,3.619,0,0,1-.824-.059,3.445,3.445,0,0,1-1.942-1l-3.649-3.472a3.573,3.573,0,0,1-1.177-2.648,3.265,3.265,0,0,1,.412-1.648l.059-.118a4.641,4.641,0,0,1,.706-.883l.942-.942a3.917,3.917,0,0,1,2.766-1.118,4.575,4.575,0,0,1,.942.118,3.732,3.732,0,0,1,1.824,1l3.649,3.472a3.573,3.573,0,0,1,1.177,2.648A2.653,2.653,0,0,1,40.937,39.265Zm-4.12-2.825a1.278,1.278,0,0,0-1.53-.177c-.059.059-.177.118-.235.177l-.177.177a1.131,1.131,0,0,0-.235.706,1.162,1.162,0,0,0,.353.824l2,1.883a1.249,1.249,0,0,0,1.766-1.766Z" transform="translate(-19.115 -21.373)" fill="#f4a86f"/>
      <path id="Path_16291" data-name="Path 16291" d="M63.055,43.026a3.49,3.49,0,0,1-.235.53l-2.236-1.118.118-.294a11.984,11.984,0,0,0,1.236-8.181A12.145,12.145,0,0,0,59.7,29.018l.177.235,2.06-1.354a14.408,14.408,0,0,1,1.118,15.126Z" transform="translate(-32.817 -21.249)" fill="#f2796e"/>
      <path id="Path_16292" data-name="Path 16292" d="M53.831,23.251,51.771,24.6l-.177-.235a13.744,13.744,0,0,0-10.947-5.415h-.471L40,16.6h.647a16.209,16.209,0,0,1,12.83,6.18.812.812,0,0,1,.177.235A.813.813,0,0,1,53.831,23.251Z" transform="translate(-24.711 -16.6)" fill="#6186bd"/>
      <path id="Path_16293" data-name="Path 16293" d="M30.878,18.954h-.294c-.589.059-1.177.118-1.766.235a13.409,13.409,0,0,0-9.358,6.533l.177-.294L17.4,24.369a15.808,15.808,0,0,1,10.947-7.533c.589-.118,1.177-.177,1.766-.235H30.7Z" transform="translate(-15.412 -16.6)" fill="#d57fb3"/>
      <path id="Path_16294" data-name="Path 16294" d="M18.835,44.219l-.059-.059-2.06,1.354a14.4,14.4,0,0,1-1-15.185.45.45,0,0,0,.118-.294.446.446,0,0,0,.118-.235l2.236,1.059-.177.294c-.059.059-.059.177-.118.235a11.683,11.683,0,0,0-1.177,8.063A13.443,13.443,0,0,0,18.835,44.219Z" transform="translate(-14.022 -22.031)" fill="#00a9da"/>
      <path id="Path_16295" data-name="Path 16295" d="M33.078,61.127A1.232,1.232,0,0,1,31.842,62.3h-.059a16.258,16.258,0,0,1-12.889-6.3l-.059-.059a.058.058,0,0,0-.059-.059h0c-.059-.059-.118-.177-.177-.235L20.66,54.3l.059.059.059.059.059.118a13.576,13.576,0,0,0,11.006,5.473A1.115,1.115,0,0,1,33.078,61.127Z" transform="translate(-15.906 -32.112)" fill="#d5e27e"/>
    </g>
    <g id="Group_13015" data-name="Group 13015" transform="translate(54.722 17.907)">
      <path id="Path_16296" data-name="Path 16296" d="M86.93,38.018a3.146,3.146,0,0,1-2.407-.879,3.545,3.545,0,0,1-.833-2.5V26.956H82.209a.526.526,0,0,1-.37-.139A.566.566,0,0,1,81.7,26.4V25.382l2.083-.278.555-3.842c.046-.139.093-.278.185-.324a.526.526,0,0,1,.37-.139h1.25v4.3H89.8V26.91H86.143v7.544a1.524,1.524,0,0,0,.37,1.111,1.326,1.326,0,0,0,.972.37,2.345,2.345,0,0,0,.6-.093,1.814,1.814,0,0,0,.417-.185,2.656,2.656,0,0,1,.324-.185c.093-.046.139-.093.231-.093s.139,0,.185.046a.639.639,0,0,1,.139.185l.741,1.2a4.978,4.978,0,0,1-1.435.879A4.726,4.726,0,0,1,86.93,38.018Z" transform="translate(-81.7 -19.134)" fill="#1b1b1b"/>
      <path id="Path_16297" data-name="Path 16297" d="M114.747,40.6a5.1,5.1,0,0,1-1.065.926,8.049,8.049,0,0,1-1.25.648c-.463.139-.926.278-1.389.37a7.007,7.007,0,0,1-1.389.093,6.1,6.1,0,0,1-2.453-.463,5.514,5.514,0,0,1-1.944-1.3,6.111,6.111,0,0,1-1.3-2.129,8.3,8.3,0,0,1-.463-2.962,7.454,7.454,0,0,1,.417-2.5,6.411,6.411,0,0,1,1.2-2.037,5.642,5.642,0,0,1,1.9-1.342,6.242,6.242,0,0,1,2.546-.509,6.5,6.5,0,0,1,2.175.37,5.47,5.47,0,0,1,1.713,1.111,5.145,5.145,0,0,1,1.111,1.805,6.642,6.642,0,0,1,.417,2.453,1.582,1.582,0,0,1-.139.787.487.487,0,0,1-.463.185h-8.424a7.766,7.766,0,0,0,.324,1.99,4.266,4.266,0,0,0,.787,1.435,3.131,3.131,0,0,0,1.2.833,4.324,4.324,0,0,0,1.574.278,4.5,4.5,0,0,0,1.435-.185,7.624,7.624,0,0,0,1.018-.417,5.285,5.285,0,0,0,.741-.417.862.862,0,0,1,.509-.185.57.57,0,0,1,.463.231Zm-2.037-6.017a4.077,4.077,0,0,0-.231-1.342,2.667,2.667,0,0,0-.6-1.065,2.363,2.363,0,0,0-.972-.694,3.03,3.03,0,0,0-1.342-.231,3.326,3.326,0,0,0-2.453.879A4.18,4.18,0,0,0,106,34.63h6.711Z" transform="translate(-93.41 -23.753)" fill="#1b1b1b"/>
      <path id="Path_16298" data-name="Path 16298" d="M143.112,32.046c-.093.093-.139.185-.231.231a.669.669,0,0,1-.324.093.746.746,0,0,1-.417-.139,2.939,2.939,0,0,0-.555-.324,7.905,7.905,0,0,0-.833-.324,4.167,4.167,0,0,0-1.157-.139,3.621,3.621,0,0,0-1.62.324,3.207,3.207,0,0,0-1.157.926,3.663,3.663,0,0,0-.694,1.481,8.6,8.6,0,0,0-.231,1.944,8.4,8.4,0,0,0,.231,1.99,4.445,4.445,0,0,0,.741,1.481,3.208,3.208,0,0,0,1.157.926,3.854,3.854,0,0,0,1.481.324,3.491,3.491,0,0,0,1.3-.185,7.942,7.942,0,0,0,.879-.417,2.885,2.885,0,0,0,.555-.417.663.663,0,0,1,.463-.185.57.57,0,0,1,.463.231l.694.926a6.085,6.085,0,0,1-.972.926,3.449,3.449,0,0,1-1.157.6,10.593,10.593,0,0,1-1.3.37,7.006,7.006,0,0,1-1.389.093,5.528,5.528,0,0,1-2.268-.463,5,5,0,0,1-1.805-1.3,5.74,5.74,0,0,1-1.2-2.083,8.8,8.8,0,0,1-.463-2.823,7.888,7.888,0,0,1,.417-2.638,5.667,5.667,0,0,1,1.157-2.083,5.176,5.176,0,0,1,1.9-1.389,6.47,6.47,0,0,1,2.592-.509,5.948,5.948,0,0,1,2.453.463,5.046,5.046,0,0,1,1.851,1.25Z" transform="translate(-109.417 -23.807)" fill="#1b1b1b"/>
      <path id="Path_16299" data-name="Path 16299" d="M164.753,24.652a8.313,8.313,0,0,1,1.805-1.342,4.967,4.967,0,0,1,2.268-.509,4.55,4.55,0,0,1,1.851.37,3.588,3.588,0,0,1,1.342.972,4.06,4.06,0,0,1,.833,1.527,6.672,6.672,0,0,1,.278,1.99v8.192h-2.5V27.707a3.248,3.248,0,0,0-.648-2.129,2.377,2.377,0,0,0-1.944-.787,3.336,3.336,0,0,0-1.759.463,6.254,6.254,0,0,0-1.527,1.2V35.9H162.3V17.2h2.453Z" transform="translate(-124.994 -17.2)" fill="#1b1b1b"/>
      <path id="Path_16300" data-name="Path 16300" d="M193.53,23.193V36.847a5.216,5.216,0,0,1-.231,1.481,3.343,3.343,0,0,1-.648,1.2,3.018,3.018,0,0,1-1.157.787,4.743,4.743,0,0,1-1.713.278,4.235,4.235,0,0,1-.787-.046,3.855,3.855,0,0,1-.694-.185l.093-1.342c.046-.139.093-.231.231-.278.093,0,.324-.046.648-.046a1.737,1.737,0,0,0,1.389-.463,2.1,2.1,0,0,0,.417-1.481V23.193Zm.463-3.981a1.479,1.479,0,0,1-.139.648,3.864,3.864,0,0,1-.37.555,1.664,1.664,0,0,1-.555.37,1.581,1.581,0,0,1-1.3,0,3.861,3.861,0,0,1-.555-.37,1.664,1.664,0,0,1-.37-.555,1.581,1.581,0,0,1,0-1.3,3.858,3.858,0,0,1,.37-.555,1.664,1.664,0,0,1,.555-.37,1.581,1.581,0,0,1,1.3,0,3.861,3.861,0,0,1,.555.37,1.665,1.665,0,0,1,.37.555A1.479,1.479,0,0,1,193.993,19.213Z" transform="translate(-138.96 -17.361)" fill="#1b1b1b"/>
      <path id="Path_16301" data-name="Path 16301" d="M213.1,29.3a6.4,6.4,0,0,1,2.546.463,5.234,5.234,0,0,1,1.944,1.342,6.25,6.25,0,0,1,1.25,2.083,8.455,8.455,0,0,1,.417,2.731,8.257,8.257,0,0,1-.417,2.731,5.229,5.229,0,0,1-1.25,2.083,6.348,6.348,0,0,1-1.944,1.342,6.556,6.556,0,0,1-2.546.463,6.632,6.632,0,0,1-2.592-.463,4.885,4.885,0,0,1-1.944-1.342,5.229,5.229,0,0,1-1.25-2.083,8.455,8.455,0,0,1-.417-2.731,8.258,8.258,0,0,1,.417-2.731,5.229,5.229,0,0,1,1.25-2.083,6.348,6.348,0,0,1,1.944-1.342A7.4,7.4,0,0,1,213.1,29.3Zm0,11.34a3.165,3.165,0,0,0,2.731-1.25,5.841,5.841,0,0,0,.879-3.471,5.841,5.841,0,0,0-.879-3.471A3.165,3.165,0,0,0,213.1,31.2a3.11,3.11,0,0,0-2.731,1.25,5.837,5.837,0,0,0-.926,3.471,5.837,5.837,0,0,0,.926,3.471A3.056,3.056,0,0,0,213.1,40.64Z" transform="translate(-148.951 -23.7)" fill="#1b1b1b"/>
      <path id="Path_16302" data-name="Path 16302" d="M248.712,32.046c-.093.093-.139.185-.231.231a.669.669,0,0,1-.324.093.746.746,0,0,1-.417-.139,2.938,2.938,0,0,0-.555-.324,7.9,7.9,0,0,0-.833-.324,4.167,4.167,0,0,0-1.157-.139,3.621,3.621,0,0,0-1.62.324,3.208,3.208,0,0,0-1.157.926,3.663,3.663,0,0,0-.694,1.481,8.6,8.6,0,0,0-.231,1.944,8.4,8.4,0,0,0,.231,1.99,4.445,4.445,0,0,0,.741,1.481,3.208,3.208,0,0,0,1.157.926,3.854,3.854,0,0,0,1.481.324,3.492,3.492,0,0,0,1.3-.185,7.941,7.941,0,0,0,.879-.417,2.885,2.885,0,0,0,.555-.417.663.663,0,0,1,.463-.185.57.57,0,0,1,.463.231l.694.926a6.086,6.086,0,0,1-.972.926,3.448,3.448,0,0,1-1.157.6,10.591,10.591,0,0,1-1.3.37,7.006,7.006,0,0,1-1.389.093,5.528,5.528,0,0,1-2.268-.463,5,5,0,0,1-1.805-1.3,5.739,5.739,0,0,1-1.2-2.083,8.8,8.8,0,0,1-.463-2.823,7.888,7.888,0,0,1,.417-2.638,5.667,5.667,0,0,1,1.157-2.083,5.176,5.176,0,0,1,1.9-1.389,6.47,6.47,0,0,1,2.592-.509,5.948,5.948,0,0,1,2.453.463,5.046,5.046,0,0,1,1.851,1.25Z" transform="translate(-166.14 -23.807)" fill="#1b1b1b"/>
      <path id="Path_16303" data-name="Path 16303" d="M270.407,17.2V28.123h.6a1.369,1.369,0,0,0,.463-.093.778.778,0,0,0,.37-.324l3.842-4.258a2.8,2.8,0,0,1,.37-.37.987.987,0,0,1,.555-.139h2.268l-4.536,4.952a2.949,2.949,0,0,1-.787.741,1.6,1.6,0,0,1,.417.37,4.044,4.044,0,0,1,.37.463l4.814,6.295h-2.222a1.664,1.664,0,0,1-.509-.093,1,1,0,0,1-.417-.37l-3.98-5.184c-.139-.185-.231-.324-.37-.37a1.726,1.726,0,0,0-.555-.093h-.648v6.11H268V17.2Z" transform="translate(-181.771 -17.2)" fill="#1b1b1b"/>
      <path id="Path_16304" data-name="Path 16304" d="M305.347,40.6a5.1,5.1,0,0,1-1.065.926,8.048,8.048,0,0,1-1.25.648c-.463.139-.926.278-1.389.37a7.006,7.006,0,0,1-1.389.093,6.1,6.1,0,0,1-2.453-.463,5.514,5.514,0,0,1-1.944-1.3,6.111,6.111,0,0,1-1.3-2.129,8.3,8.3,0,0,1-.463-2.962,7.454,7.454,0,0,1,.417-2.5,6.411,6.411,0,0,1,1.2-2.037,5.642,5.642,0,0,1,1.9-1.342,6.242,6.242,0,0,1,2.546-.509,6.5,6.5,0,0,1,2.175.37,5.47,5.47,0,0,1,1.713,1.111,5.145,5.145,0,0,1,1.111,1.805,6.642,6.642,0,0,1,.417,2.453,1.582,1.582,0,0,1-.139.787.487.487,0,0,1-.463.185h-8.424a7.765,7.765,0,0,0,.324,1.99,4.265,4.265,0,0,0,.787,1.435,3.131,3.131,0,0,0,1.2.833,4.324,4.324,0,0,0,1.574.278,4.5,4.5,0,0,0,1.435-.185,7.625,7.625,0,0,0,1.018-.417,5.281,5.281,0,0,0,.741-.417.862.862,0,0,1,.509-.185.57.57,0,0,1,.463.231Zm-2.037-6.017a4.076,4.076,0,0,0-.231-1.342,2.667,2.667,0,0,0-.6-1.065,2.364,2.364,0,0,0-.972-.694,3.03,3.03,0,0,0-1.342-.231,3.326,3.326,0,0,0-2.453.879,4.18,4.18,0,0,0-1.111,2.5h6.711Z" transform="translate(-195.791 -23.753)" fill="#1b1b1b"/>
      <path id="Path_16305" data-name="Path 16305" d="M334.375,29.746l-7.128,16.616a1.009,1.009,0,0,1-.324.417.987.987,0,0,1-.555.139h-1.851l2.361-5.138L321.6,29.746h2.129a.831.831,0,0,1,.509.139.709.709,0,0,1,.231.324l3.286,7.73c.046.185.139.37.185.6a2.826,2.826,0,0,1,.139.6c.046-.185.139-.417.185-.6a3.215,3.215,0,0,1,.231-.6l3.147-7.73a.72.72,0,0,1,.278-.37.746.746,0,0,1,.417-.139h2.037Z" transform="translate(-210.562 -23.914)" fill="#1b1b1b"/>
    </g>
  </g>
</svg>
