<svg xmlns="http://www.w3.org/2000/svg" width="16" height="16" viewBox="0 0 16 16">
  <g id="mac_os" transform="translate(1.379 0.945)">
    <rect id="Rectangle_11148" data-name="Rectangle 11148" width="16" height="16" transform="translate(-1.379 -0.945)" fill="none"/>
    <g id="Group_1959" data-name="Group 1959" transform="translate(1.282)">
      <path id="Path_4201" data-name="Path 4201" d="M10.8,7.039A2.887,2.887,0,0,1,12.314,4.6a3.381,3.381,0,0,0-2.56-1.266c-1.088-.1-2.126.586-2.68.586s-1.406-.572-2.31-.557a3.487,3.487,0,0,0-2.9,1.6c-1.234,1.957-.316,4.855.887,6.444.588.776,1.29,1.648,2.21,1.618.887-.032,1.221-.524,2.293-.524s1.373.524,2.311.509c.955-.017,1.558-.792,2.141-1.57a6.852,6.852,0,0,0,.971-1.819A2.882,2.882,0,0,1,10.8,7.039Z" transform="translate(-1.282 0.968)" fill="#777"/>
      <path id="Path_4202" data-name="Path 4202" d="M9.53,2.845A3.925,3.925,0,0,0,10.457,0,3.988,3.988,0,0,0,7.833,1.349,3.734,3.734,0,0,0,6.888,4.1,3.3,3.3,0,0,0,9.53,2.845Z" transform="translate(-1.713)" fill="#777"/>
    </g>
  </g>
</svg>
