<svg width="41px" height="41px" viewBox="0 0 41 41" version="1.1" xmlns="http://www.w3.org/2000/svg" xmlns:xlink="http://www.w3.org/1999/xlink"><g  stroke="none" stroke-width="1" fill="none" fill-rule="evenodd"><circle fill="#FB641B" cx="21" cy="21" r="18"></circle><path d="M20.9640719,20.0179641 L28.9640719,15.011976 L12.9640719,15.011976 L20.9640719,20.0179641 Z M28.9640719,26.988024 L28.9640719,17.0239521 L20.9640719,21.9820359 L12.9640719,17.0239521 L12.9640719,26.988024 L28.9640719,26.988024 Z M28.9640719,13 C29.5069887,13 29.970058,13.1995988 30.3532934,13.5988024 C30.7365289,13.998006 30.9281437,14.4690592 30.9281437,15.011976 L30.9281437,26.988024 C30.9281437,27.5309408 30.7365289,28.001994 30.3532934,28.4011976 C29.970058,28.8004012 29.5069887,29 28.9640719,29 L12.9640719,29 C12.421155,29 11.9580857,28.8004012 11.5748503,28.4011976 C11.1916149,28.001994 11,27.5309408 11,26.988024 L11,15.011976 C11,14.4690592 11.1916149,13.998006 11.5748503,13.5988024 C11.9580857,13.1995988 12.421155,13 12.9640719,13 L28.9640719,13 Z"  fill="#FFFFFF" fill-rule="nonzero"></path></g></svg>
