<svg xmlns="http://www.w3.org/2000/svg" xmlns:xlink="http://www.w3.org/1999/xlink" width="30" height="30" viewBox="0 0 30 30">
  <defs>
    <clipPath id="clip-MSMes">
      <rect width="30" height="30"/>
    </clipPath>
  </defs>
  <g id="MSMes" clip-path="url(#clip-MSMes)">
    <g id="noun-bulding-4379342" transform="translate(-2.012 2)">
      <path id="Path_16183" data-name="Path 16183" d="M472.957,255.81,470.066,257v13.479h5.781v-13.6Zm-.221,13.078-2.223.16v-.917l2.232-.2Zm0-1.687-2.223.16v-.917l2.232-.2Zm0-1.553-2.223.157v-.917l2.232-.2Zm0-1.67-2.223.478v-.917l2.232-.519Zm0-1.67-2.223.47v-.917l2.223-.516Zm0-1.57-2.223.478V260.3l2.232-.519Zm0-1.573-2.223.478v-.917l2.232-.519Zm0-1.57-2.223.478v-.639l2.232-.8Z" transform="translate(-446.988 -243.605)" fill="#24272c"/>
      <path id="Path_16184" data-name="Path 16184" d="M124.151,19.443v7.618l-3.61-1.432-3.61,1.392V44.128h8.712V42.552a.98.98,0,0,1,1.957,0v1.576h6.876V19.443l-5.157-2.194ZM120.2,40.013l-2.578.16V39.045l2.578-.16Zm0-2.146-2.578.318V37.057l2.578-.318Zm0-1.879-2.578.318V35.178l2.578-.318Zm0-2.005-2.578.318V33.178l2.578-.318Zm0-2.005-2.578.318V31.178l2.578-.318Zm0-2.005-2.578.478V29.336l2.578-.478Zm0-2.005-2.578.478V27.5l2.578-.639Zm8.257,9.669-3.67.479V36.731l3.67-.65Zm0-2.6-3.67.478V34.129l3.67-.647Zm0-2.8-3.67.479V31.327l3.67-.636Zm0-2.6-3.67.487V28.726l3.67-.65Zm0-2.759-3.67.639V26.128l3.67-.811Zm0-2.825-3.67.8V23.463l3.67-.968Zm0-2.653-3.67.8V20.81l3.67-.971Z" transform="translate(-111.92 -17.249)" fill="#24272c"/>
    </g>
  </g>
</svg>
