<svg id="net" xmlns="http://www.w3.org/2000/svg" width="24" height="24" viewBox="0 0 24 24">
  <rect id="Rectangle_41" data-name="Rectangle 41" width="24" height="24" fill="none"/>
  <g id="bill" transform="translate(3 2.318)">
    <g id="Group_2034" data-name="Group 2034">
      <path id="Path_3645" data-name="Path 3645" d="M46.064,165.414V154.2a.936.936,0,0,0-.932-.932H30.079a.935.935,0,0,0-.931.932v11.217H46.064Z" transform="translate(-28.221 -147.551)" fill="#4a80aa" fill-rule="evenodd"/>
      <path id="Path_3646" data-name="Path 3646" d="M429.826,165.414V154.2a.936.936,0,0,0-.932-.932h-1.122a.935.935,0,0,1,.931.932v11.217h1.123Z" transform="translate(-411.983 -147.551)" fill="#407093" fill-rule="evenodd"/>
      <path id="Path_3647" data-name="Path 3647" d="M5.616,451.523H21.731a.786.786,0,0,0,.773-.559l.47-1.031c.2-.443.033-.752-.47-.752H16.469a.289.289,0,0,0-.256.222.8.8,0,0,1-.77.579H11.9a.8.8,0,0,1-.769-.579.29.29,0,0,0-.257-.222H4.843c-.5,0-.672.309-.47.752l.47,1.031a.787.787,0,0,0,.773.559Z" transform="translate(-4.29 -432.435)" fill="#365e7d" fill-rule="evenodd"/>
      <path id="Path_3648" data-name="Path 3648" d="M442.025,451.523h1.122a.786.786,0,0,0,.773-.559l.47-1.031c.2-.443.033-.752-.47-.752H442.8c.5,0,.672.309.47.752l-.47,1.031A.787.787,0,0,1,442.025,451.523Z" transform="translate(-425.706 -432.435)" fill="#2b4d66" fill-rule="evenodd"/>
      <path id="Path_3649" data-name="Path 3649" d="M59.7,183.621H74.1a.225.225,0,0,1,.224.225v8.319a.225.225,0,0,1-.224.225H59.7a.226.226,0,0,1-.225-.225v-8.319A.226.226,0,0,1,59.7,183.621Z" transform="translate(-57.419 -176.775)" fill="#fff" fill-rule="evenodd"/>
      <path id="Path_3650" data-name="Path 3650" d="M421.74,183.621h1.123a.225.225,0,0,1,.224.225v8.319a.225.225,0,0,1-.224.225H421.74a.226.226,0,0,0,.225-.225v-8.319A.226.226,0,0,0,421.74,183.621Z" transform="translate(-406.177 -176.775)" fill="#9dc6fb" fill-rule="evenodd"/>
      <path id="Path_3651" data-name="Path 3651" d="M98.643,324.194H109.5a.56.56,0,0,0,.558-.559V322.48a.56.56,0,0,0-.558-.559H98.643a.561.561,0,0,0-.559.559v1.155A.561.561,0,0,0,98.643,324.194Z" transform="translate(-94.587 -309.919)" fill="#80b4fb" fill-rule="evenodd"/>
      <path id="Path_3652" data-name="Path 3652" d="M374.17,324.194h1.123a.56.56,0,0,0,.558-.559V322.48a.56.56,0,0,0-.558-.559H374.17a.56.56,0,0,1,.559.559v1.155A.56.56,0,0,1,374.17,324.194Z" transform="translate(-360.38 -309.919)" fill="#80b4fb" fill-rule="evenodd"/>
      <path id="Path_3653" data-name="Path 3653" d="M138.55.789l-.822-.713a.241.241,0,0,0-.339,0l-.822.713a.245.245,0,0,1-.339,0l-.822-.713a.227.227,0,0,0-.339,0l-.822.713a.469.469,0,0,0-.17.371V12.914a.226.226,0,0,0,.225.225h8.842a.226.226,0,0,0,.225-.225V1.161a.469.469,0,0,0-.17-.371l-.822-.713a.227.227,0,0,0-.339,0l-.822.713a.245.245,0,0,1-.339,0l-.822-.713a.241.241,0,0,0-.339,0l-.822.713a.245.245,0,0,1-.339,0Z" transform="translate(-129.235 0)" fill="#fff6cf" fill-rule="evenodd"/>
      <path id="Path_3654" data-name="Path 3654" d="M337.473,13.139H338.6a.226.226,0,0,0,.225-.225V1.161a.469.469,0,0,0-.17-.371l-.822-.713a.227.227,0,0,0-.339,0L337.1.416l.431.373a.469.469,0,0,1,.17.371V12.914A.226.226,0,0,1,337.473,13.139Z" transform="translate(-324.691 0)" fill="#fff0af" fill-rule="evenodd"/>
    </g>
    <path id="Path_3655" data-name="Path 3655" d="M218.668,55.107a.28.28,0,1,1-.374.417,1.108,1.108,0,0,0-.528-.235v1.749c.108.042.224.084.345.127a1.433,1.433,0,0,1,.923.891,1.5,1.5,0,0,1,.048.764,1.674,1.674,0,0,1-.316.7,1.593,1.593,0,0,1-1,.6v.453a.281.281,0,0,1-.562,0v-.433a1.981,1.981,0,0,1-1.155-.387.28.28,0,1,1,.307-.469,1.724,1.724,0,0,0,.53.255,1.57,1.57,0,0,0,.318.041v-2.17l-.108-.049a3.179,3.179,0,0,1-.626-.367,1.043,1.043,0,0,1-.353-.527,1.333,1.333,0,0,1-.025-.637,1.413,1.413,0,0,1,.273-.6A1.278,1.278,0,0,1,217,54.8c.068-.02.135-.036.2-.049v-.41a.281.281,0,0,1,.562,0v.389a1.731,1.731,0,0,1,.9.382Zm-1.465.214-.039.012a.716.716,0,0,0-.361.247.864.864,0,0,0-.163.361.774.774,0,0,0,.014.37.484.484,0,0,0,.16.246,2.31,2.31,0,0,0,.389.239V55.321Zm.721,2.372-.159-.057v1.916a1.034,1.034,0,0,0,.556-.371,1.093,1.093,0,0,0,.209-.464.932.932,0,0,0-.029-.48A.888.888,0,0,0,217.925,57.693Z" transform="translate(-208.031 -52.041)" fill="#78c2a4"/>
    <path id="Path_3656" data-name="Path 3656" d="M170.686,252.492a.281.281,0,0,1,0-.561h6.022a.281.281,0,0,1,0,.561Zm0,2.236a.281.281,0,0,1,0-.561H175.4a.281.281,0,1,1,0,.561Zm0-1.118a.281.281,0,0,1,0-.561h6.022a.281.281,0,0,1,0,.561Z" transform="translate(-164.213 -242.539)" fill="#dd636e"/>
  </g>
</svg>
