<svg xmlns="http://www.w3.org/2000/svg" width="20.368" height="20.368" viewBox="0 0 20.368 20.368">
  <path id="new_icon" d="M20.288,9.886,19.084,7.8V5.391a.6.6,0,0,0-.3-.517L16.7,3.669l-1.2-2.086a.6.6,0,0,0-.517-.3H12.569L10.482.08a.6.6,0,0,0-.6,0L7.8,1.285H5.39a.6.6,0,0,0-.517.3l-1.2,2.086-2.086,1.2a.6.6,0,0,0-.3.517V7.8L.08,9.886a.6.6,0,0,0,0,.6l1.2,2.086v2.409a.6.6,0,0,0,.3.517l2.086,1.2,1.2,2.086a.6.6,0,0,0,.517.3H7.8l2.086,1.2a.6.6,0,0,0,.6,0l2.086-1.2h2.409a.6.6,0,0,0,.517-.3L16.7,16.7l2.086-1.2a.6.6,0,0,0,.3-.517V12.569l1.2-2.086A.6.6,0,0,0,20.288,9.886ZM7.265,12.1a.6.6,0,0,1-1.093.331l-1.463-2.2V12.1a.6.6,0,1,1-1.193,0V8.267a.6.6,0,0,1,1.093-.331l1.463,2.2V8.267a.6.6,0,0,1,1.193,0Zm2.6-2.514a.6.6,0,1,1,0,1.193H9.183v.724H10.5a.6.6,0,1,1,0,1.193H8.586a.6.6,0,0,1-.6-.6V8.267a.6.6,0,0,1,.6-.6H10.5a.6.6,0,1,1,0,1.193H9.183v.724Zm7.29-1.176L16.2,12.247a.6.6,0,0,1-.556.452h-.023a.6.6,0,0,1-.566-.408l-.712-2.137-.712,2.137a.6.6,0,0,1-1.145-.044l-.959-3.835a.6.6,0,0,1,1.158-.289l.462,1.847.63-1.891a.6.6,0,0,1,1.132,0l.63,1.891L16,8.122a.6.6,0,0,1,1.158.289Z" transform="translate(0 0)" fill="#525cd5"/>
</svg>
