<?xml version="1.0" encoding="UTF-8"?>
<svg width="16px" height="16px" viewBox="0 0 16 16" version="1.1" xmlns="http://www.w3.org/2000/svg" xmlns:xlink="http://www.w3.org/1999/xlink">
    <!-- Generator: Sketch 53.2 (72643) - https://sketchapp.com -->
    <title>not_16</title>
    <desc>Created with Sketch.</desc>
    <g id="Page-1" stroke="none" stroke-width="1" fill="none" fill-rule="evenodd">
        <path d="M13.1072792,2.89272078 L13.1072792,2.89272078 C13.6003153,3.38575685 13.6003153,4.18512626 13.1072792,4.67816233 L9.78544155,8 L13.1072792,11.3218377 C13.6003153,11.8148737 13.6003153,12.6142432 13.1072792,13.1072792 L13.1072792,13.1072792 C12.6142432,13.6003153 11.8148737,13.6003153 11.3218377,13.1072792 L8,9.78544155 L4.67816233,13.1072792 C4.18512626,13.6003153 3.38575685,13.6003153 2.89272078,13.1072792 L2.89272078,13.1072792 C2.39968471,12.6142432 2.39968471,11.8148737 2.89272078,11.3218377 L6.21455845,8 L2.89272078,4.67816233 C2.39968471,4.18512626 2.39968471,3.38575685 2.89272078,2.89272078 L2.89272078,2.89272078 C3.38575685,2.39968471 4.18512626,2.39968471 4.67816233,2.89272078 L8,6.21455845 L11.3218377,2.89272078 C11.8148737,2.39968471 12.6142432,2.39968471 13.1072792,2.89272078 Z" id="Path" fill="#D0021B" fill-rule="nonzero"></path>
    </g>
</svg>