<svg xmlns="http://www.w3.org/2000/svg" width="50" height="50" viewBox="0 0 50 50">
  <g id="noticed_icon" transform="translate(-35 -37)">
    <circle id="Ellipse_1" data-name="Ellipse 1" cx="25" cy="25" r="25" transform="translate(35 37)" fill="#e54c85"/>
    <g id="noun-customer-2881375" transform="translate(-25.779 26.675)">
      <path id="Path_16042" data-name="Path 16042" d="M103.1,315.121l-3.072,2.2a5.968,5.968,0,0,1-4.375,1.046l-2.139-.322L89.9,317.5a.427.427,0,1,1,.129-.844l3.619.543a1.291,1.291,0,0,0,.575-2.509l-4.974-1.556a3.524,3.524,0,0,0-1.85-.06l-3.128.76V313.4a1.773,1.773,0,0,0-1.769-1.769H80.007a1.769,1.769,0,0,0-1.769,1.769v7.415a1.769,1.769,0,0,0,1.769,1.769H82.5a1.773,1.773,0,0,0,1.769-1.769v-.31c2.855.748,11.488,2.75,15.035.768h0a13.457,13.457,0,0,0,5.175-4.906.949.949,0,0,0-1.371-1.243Z" transform="translate(-5.728 -274.727)" fill="#fff"/>
      <path id="Path_16043" data-name="Path 16043" d="M301.68,36.027a7.861,7.861,0,1,0-2.115-5.547,7.869,7.869,0,0,0,2.115,5.547ZM307.43,23.6a7.061,7.061,0,0,1,5.585,11.384A6.129,6.129,0,0,0,310.068,32a3.96,3.96,0,0,1-5.284,0,6.129,6.129,0,0,0-2.943,2.98A7.061,7.061,0,0,1,307.43,23.6Z" transform="translate(-216.246)" fill="#fff"/>
      <path id="Path_16044" data-name="Path 16044" d="M398.721,91.441a3.185,3.185,0,1,0-2.248-.933,3.186,3.186,0,0,0,2.248.933Z" transform="translate(-307.537 -59.233)" fill="#fff"/>
    </g>
  </g>
</svg>
