<svg xmlns="http://www.w3.org/2000/svg" width="12" height="12.857" viewBox="0 0 12 12.857">
  <defs>
    <style>
      .cls-1 {
        fill: #4aa862;
      }
    </style>
  </defs>
  <path id="tags" class="cls-1" d="M12.2,4.437,8.059.47A1.655,1.655,0,0,0,6.68.014l-3.758.5a.537.537,0,0,0-.466.6.544.544,0,0,0,.615.458l3.759-.5a.558.558,0,0,1,.464.156L11.434,5.2A1.587,1.587,0,0,1,11.61,7.26a2.642,2.642,0,0,0-.5-.7L7.035,2.593a1.666,1.666,0,0,0-1.379-.456l-3.759.5a.54.54,0,0,0-.468.472l-.417,3.7a1.583,1.583,0,0,0,.471,1.314l4.046,3.939a2.732,2.732,0,0,0,1.928.784h.009a2.734,2.734,0,0,0,1.933-.8l1.728-1.719A2.637,2.637,0,0,0,11.9,8.526l.315-.309A2.652,2.652,0,0,0,12.2,4.437Zm-8.471.919a.546.546,0,1,1,.546-.536A.541.541,0,0,1,3.729,5.357Z" transform="translate(-1.002 0.001)"/>
</svg>
