<?xml version="1.0" encoding="UTF-8"?>
<svg width="20px" height="20px" viewBox="0 0 20 20" version="1.1" xmlns="http://www.w3.org/2000/svg" xmlns:xlink="http://www.w3.org/1999/xlink">
    <!-- Generator: Sketch 53.2 (72643) - https://sketchapp.com -->
    <title>offers</title>
    <desc>Created with Sketch.</desc>
    <g id="Page-1" stroke="none" stroke-width="1" fill="none" fill-rule="evenodd">
        <g id="Artboard" transform="translate(-79.000000, -406.000000)">
            <g id="outline-local_offer-24px" transform="translate(79.000000, 406.000000)">
                <polygon id="Path" points="0 0 20 0 20 20 0 20"></polygon>
                <path d="M17.8416667,9.65 L10.3416667,2.15 C10.0416667,1.85 9.625,1.66666667 9.16666667,1.66666667 L3.33333333,1.66666667 C2.41666667,1.66666667 1.66666667,2.41666667 1.66666667,3.33333333 L1.66666667,9.16666667 C1.66666667,9.625 1.85,10.0416667 2.15833333,10.35 L9.65833333,17.85 C9.95833333,18.15 10.375,18.3333333 10.8333333,18.3333333 C11.2916667,18.3333333 11.7083333,18.15 12.0083333,17.8416667 L17.8416667,12.0083333 C18.15,11.7083333 18.3333333,11.2916667 18.3333333,10.8333333 C18.3333333,10.375 18.1416667,9.95 17.8416667,9.65 Z M10.8333333,16.675 L3.33333333,9.16666667 L3.33333333,3.33333333 L9.16666667,3.33333333 L9.16666667,3.325 L16.6666667,10.825 L10.8333333,16.675 L10.8333333,16.675 Z" id="Shape" fill="#24272C" fill-rule="nonzero"></path>
                <circle id="Oval" fill="#24272C" fill-rule="nonzero" cx="5.41666667" cy="5.41666667" r="1.25"></circle>
            </g>
        </g>
    </g>
</svg>