<svg id="tick" xmlns="http://www.w3.org/2000/svg" width="14.088" height="14.015" viewBox="0 0 14.088 14.015">
  <path id="Path_16185" data-name="Path 16185" d="M9.545,17.109A7.008,7.008,0,1,1,12.331,3.664l.083.036a.861.861,0,1,1-.7,1.573l-.063-.028a5.286,5.286,0,1,0,3.163,4.281L14.8,9.447a.861.861,0,0,1,1.709-.212c0,.035.008.07.012.105a7.007,7.007,0,0,1-6.2,7.726A7.1,7.1,0,0,1,9.545,17.109Z" transform="translate(-2.55 -3.094)" fill="#fb641b"/>
  <path id="Path_16186" data-name="Path 16186" d="M23.319,14.119a.84.84,0,1,0-1.15,1.224L25.1,18.093l.575-.612-.576.614a.842.842,0,0,0,1.189-.038.725.725,0,0,0,.057-.068l6.572-7.615a.84.84,0,1,0-1.271-1.1L25.612,16.27l-2.293-2.15Z" transform="translate(-19.034 -8.111)" fill="#fb641b"/>
</svg>
