<svg xmlns="http://www.w3.org/2000/svg" xmlns:xlink="http://www.w3.org/1999/xlink" width="100" height="100" viewBox="0 0 100 100">
  <defs>
    <linearGradient id="linear-gradient" x1="0.5" x2="0.5" y2="1" gradientUnits="objectBoundingBox">
      <stop offset="0" stop-color="#6aa3fa"/>
      <stop offset="1" stop-color="#4a88fa"/>
    </linearGradient>
    <filter id="Rectangle_13" x="0" y="0" width="100" height="100" filterUnits="userSpaceOnUse">
      <feOffset dy="5" input="SourceAlpha"/>
      <feGaussianBlur stdDeviation="5" result="blur"/>
      <feFlood flood-opacity="0.102"/>
      <feComposite operator="in" in2="blur"/>
      <feComposite in="SourceGraphic"/>
    </filter>
  </defs>
  <g id="paid_icon" transform="translate(-236 -1034)">
    <g transform="matrix(1, 0, 0, 1, 236, 1034)" filter="url(#Rectangle_13)">
      <rect id="Rectangle_13-2" data-name="Rectangle 13" width="70" height="70" rx="15" transform="translate(15 10)" fill="url(#linear-gradient)"/>
    </g>
    <g id="icon_in4" transform="translate(153.145 1016.145)">
      <path id="Path_8" data-name="Path 8" d="M145.8,51.528v1.894A4.856,4.856,0,0,1,149.037,58v3.236h-4.854a4.854,4.854,0,1,0,0,9.709h4.854v3.236a4.854,4.854,0,0,1-4.854,4.854H121.528a4.854,4.854,0,0,1-4.854-4.854V51.528a4.854,4.854,0,0,1,4.854-4.854h19.418a4.854,4.854,0,0,1,4.854,4.854Zm-25.891,0a1.618,1.618,0,0,1,1.618-1.618h19.418a1.618,1.618,0,0,1,1.618,1.618v1.618H121.528a1.618,1.618,0,0,1-1.618-1.618Z" fill="#fff" fill-rule="evenodd"/>
      <path id="Path_9" data-name="Path 9" d="M496.471,306.568v-3.236h-4.854a1.618,1.618,0,0,0,0,3.236Z" transform="translate(-347.434 -238.859)" fill="#fff"/>
    </g>
  </g>
</svg>
