<svg id="price" xmlns="http://www.w3.org/2000/svg" width="48" height="48" viewBox="0 0 48 48">
  <circle id="Ellipse_13" data-name="Ellipse 13" cx="24" cy="24" r="24" fill="#f4f4f4"/>
  <g id="rupee" transform="translate(7.9 7.9)">
    <g id="Group_2077" data-name="Group 2077">
      <path id="Path_3698" data-name="Path 3698" d="M31.646,15.823A15.851,15.851,0,1,1,26.535,4.179,15.823,15.823,0,0,1,31.646,15.823Z" fill="#f0cd00"/>
      <path id="Path_3699" data-name="Path 3699" d="M48.708,15.982A15.822,15.822,0,0,1,33.474,31.794a15.823,15.823,0,0,1,0-31.624A15.822,15.822,0,0,1,48.708,15.982Z" transform="translate(-17.062 -0.159)" fill="#ffde50"/>
      <path id="Path_3700" data-name="Path 3700" d="M58.021,35.674,35.664,58.031a15.891,15.891,0,0,1-2-2.7L55.319,33.67A15.817,15.817,0,0,1,58.021,35.674Z" transform="translate(-31.486 -31.495)" fill="#ffea94"/>
      <path id="Path_3701" data-name="Path 3701" d="M117.913,97.4,97.4,117.914a15.8,15.8,0,0,1-4.006-2.3L115.612,93.39A15.773,15.773,0,0,1,117.913,97.4Z" transform="translate(-87.359 -87.359)" fill="#ffea94"/>
      <path id="Path_3702" data-name="Path 3702" d="M79.211,66.915a12.3,12.3,0,0,1-24.589.151c0-.05,0-.1,0-.151a12.3,12.3,0,0,1,12.3-12.3h.152A12.238,12.238,0,0,1,74,56.864a12.377,12.377,0,0,1,3.387,3.6A12.236,12.236,0,0,1,79.211,66.915Z" transform="translate(-51.092 -51.092)" fill="#faa300"/>
      <path id="Path_3703" data-name="Path 3703" d="M75.609,58.221,58.221,75.609a12.251,12.251,0,0,1-3.6-8.542c0-.05,0-.1,0-.151a12.3,12.3,0,0,1,12.3-12.3h.152A12.238,12.238,0,0,1,74,56.864,12.408,12.408,0,0,1,75.609,58.221Z" transform="translate(-51.092 -51.092)" fill="#ffbd00"/>
      <path id="Path_3704" data-name="Path 3704" d="M247.235,66.915a12.3,12.3,0,0,1-12.3,12.3q-.35,0-.694-.019a12.3,12.3,0,0,0,0-24.552q.345-.019.694-.019A12.3,12.3,0,0,1,247.235,66.915Z" transform="translate(-219.117 -51.092)" fill="#f68e00"/>
    </g>
    <path id="Path_3705" data-name="Path 3705" d="M125.175,129.7h-2.153a5.194,5.194,0,0,0-.559-1.352h2.712a1.292,1.292,0,1,0,0-2.583h-12.2a1.292,1.292,0,0,0,0,2.583h4.985a2.645,2.645,0,0,1,2.305,1.352h-7.29a1.292,1.292,0,0,0,0,2.583h7.29a2.645,2.645,0,0,1-2.305,1.352h-4.985a1.292,1.292,0,0,0-.94,2.177l7.025,7.456a1.292,1.292,0,1,0,1.88-1.772l-4.973-5.279h1.994a5.236,5.236,0,0,0,5.065-3.935h2.153a1.292,1.292,0,0,0,0-2.583Z" transform="translate(-104.467 -117.646)" fill="#f68e00"/>
    <path id="Path_3706" data-name="Path 3706" d="M150.177,129.7h-2.153a5.2,5.2,0,0,0-.559-1.352h2.712a1.292,1.292,0,1,0,0-2.583h-12.2a1.292,1.292,0,0,0,0,2.583h4.985a2.645,2.645,0,0,1,2.305,1.352h-7.29a1.292,1.292,0,0,0,0,2.583h7.29a2.645,2.645,0,0,1-2.305,1.352h-4.985a1.292,1.292,0,0,0-.94,2.177l7.025,7.456a1.292,1.292,0,1,0,1.88-1.772l-4.973-5.279h1.994a5.236,5.236,0,0,0,5.065-3.935h2.153a1.292,1.292,0,1,0,0-2.583Z" transform="translate(-127.855 -117.646)" fill="#ffea94"/>
  </g>
</svg>
