<svg xmlns="http://www.w3.org/2000/svg" width="26" height="26" viewBox="0 0 26 26">
  <g id="pinterest" transform="translate(-39 -1)">
    <path id="Exclusion_1" data-name="Exclusion 1" d="M13,26A13,13,0,0,1,3.808,3.808,13,13,0,0,1,22.192,22.193,12.915,12.915,0,0,1,13,26ZM12.356,8.892c-1.027,0-1.832,1.043-1.832,2.375a3.537,3.537,0,0,0,.252,1.329l-.036.154c-.579,2.455-.918,3.891-1.008,4.269-.007.032-.654,3.177.248,3.419a.477.477,0,0,0,.124.016c.943,0,1.744-2.806,1.752-2.835.065-.236.29-1.118.463-1.8a2.874,2.874,0,0,0,1.905.736,4.252,4.252,0,0,0,3.412-1.707,6.855,6.855,0,0,0,1.282-4.19A4.83,4.83,0,0,0,17.413,7.2a5.662,5.662,0,0,0-3.961-1.513A6.225,6.225,0,0,0,8.86,7.458a5.232,5.232,0,0,0-1.548,3.626,3.4,3.4,0,0,0,1.839,3.374.607.607,0,0,0,.231.047.514.514,0,0,0,.5-.414c.035-.13.109-.426.153-.6l.015-.061a.623.623,0,0,0-.167-.674A2.147,2.147,0,0,1,9.4,11.289a3.691,3.691,0,0,1,3.827-3.715c1.972,0,3.2,1.121,3.2,2.926a6.08,6.08,0,0,1-.691,2.969,2.043,2.043,0,0,1-1.69,1.182,1.12,1.12,0,0,1-.891-.407,1.024,1.024,0,0,1-.179-.89c.085-.362.2-.74.314-1.1l.009-.031a7,7,0,0,0,.412-1.849A1.342,1.342,0,0,0,12.356,8.892Z" transform="translate(39 1)" fill="#fff"/>
  </g>
</svg>
