<svg xmlns="http://www.w3.org/2000/svg" width="16" height="16" viewBox="0 0 16 16">
  <g id="plans_icon" transform="translate(-145.128 -74.397)">
    <rect id="Rectangle_11062" data-name="Rectangle 11062" width="16" height="16" transform="translate(145.128 74.397)" fill="none"/>
    <path id="noun-layer-3244630" d="M144.907,52.5a.409.409,0,0,0-.214.054L140.2,55.147a.409.409,0,0,0,0,.707l1.386.8-1.386.8a.408.408,0,0,0,0,.708l1.386.8-1.386.8a.408.408,0,0,0,0,.708l4.493,2.594a.409.409,0,0,0,.408,0l4.493-2.594a.408.408,0,0,0,0-.708l-1.386-.8,1.386-.8a.408.408,0,0,0,0-.708l-1.386-.8,1.386-.8a.409.409,0,0,0,0-.707L145.1,52.553A.409.409,0,0,0,144.907,52.5Zm-2.5,4.628,2.289,1.322a.409.409,0,0,0,.408,0l2.289-1.322,1.182.682L144.9,59.93l-3.676-2.122Zm0,2.307,2.29,1.322h0a.409.409,0,0,0,.408,0l2.29-1.322,1.181.682L144.9,62.237l-3.676-2.122Z" transform="translate(8.231 24.589)" fill="#ec4a13"/>
  </g>
</svg>
