<?xml version="1.0" encoding="UTF-8"?>
<svg width="20px" height="20px" viewBox="0 0 20 20" version="1.1" xmlns="http://www.w3.org/2000/svg" xmlns:xlink="http://www.w3.org/1999/xlink">
    <!-- Generator: Sketch 57.1 (83088) - https://sketch.com -->
    <title>Artboard Copy</title>
    <desc>Created with Sketch.</desc>
    <g id="Artboard-Copy" stroke="none" stroke-width="1" fill="none" fill-rule="evenodd" opacity="0.699999988">
        <path d="M16.68,6.68 L16.68,5 L3.32,5 L3.32,6.68 L16.68,6.68 Z M16.68,15 L16.68,10 L3.32,10 L3.32,15 L16.68,15 Z M16.68,3.32 C17.146669,3.32 17.5366651,3.4833317 17.85,3.81 C18.1633349,4.1366683 18.32,4.533331 18.32,5 L18.32,15 C18.32,15.466669 18.1633349,15.8633317 17.85,16.19 C17.5366651,16.5166683 17.146669,16.68 16.68,16.68 L3.32,16.68 C2.853331,16.68 2.4633349,16.5166683 2.15,16.19 C1.8366651,15.8633317 1.68,15.466669 1.68,15 L1.68,5 C1.68,4.533331 1.8366651,4.1366683 2.15,3.81 C2.4633349,3.4833317 2.853331,3.32 3.32,3.32 L16.68,3.32 Z" id="" fill="#24272C" fill-rule="nonzero"></path>
    </g>
</svg>