<?xml version="1.0" encoding="UTF-8"?>
<svg width="50px" height="50px" viewBox="0 0 50 50" version="1.1" xmlns="http://www.w3.org/2000/svg" xmlns:xlink="http://www.w3.org/1999/xlink">
    <title>icon_1</title>
    <g id="icon_1" stroke="none" stroke-width="1" fill="none" fill-rule="evenodd" fill-opacity="0.5">
        <path d="M13.7463898,10.0345268 C10.7854836,12.0129261 8.47820709,14.8248804 7.11569372,18.1148195 C5.75318035,21.4049141 5.39690972,25.0248977 6.09186314,28.5173304 C6.7867932,32.0099188 8.5019429,35.2176775 11.0201957,37.7353855 C13.5384485,40.2530936 16.7465185,41.967286 20.239029,42.6613056 C23.7316174,43.3556286 27.3516009,42.9984319 30.6407618,41.6349847 C33.9303117,40.2718487 36.7418768,37.9636384 38.7194979,35.0024209 C40.6972746,32.0412034 41.7524676,28.5602105 41.751535,24.9991385 C41.751535,21.8391627 40.9195352,18.7350634 39.3393528,15.9982077 C37.7591704,13.2616633 35.4865248,10.9896403 32.7496691,9.41008046 C30.0128134,7.83052061 26.9084028,6.99937812 23.7487383,7 C20.1878997,7 16.7072182,8.05612755 13.7463898,10.0345268 Z M30.9395217,25.7396958 L20.6591918,32.0153664 C20.3916775,32.169797 20.0621466,32.1713145 19.7934183,32.0190143 C19.5246901,31.866714 19.3565783,31.5833882 19.3517144,31.2745347 L19.3517144,18.7280186 C19.3550582,18.4182468 19.5225577,18.1337128 19.7915895,17.9801927 C20.0606213,17.8269761 20.3910627,17.8278944 20.6591529,17.9826246 L30.9394828,24.2801633 C31.1881485,24.4406718 31.3383222,24.7163963 31.3383222,25.0121757 C31.3383222,25.3079628 31.1881485,25.5836873 30.9394828,25.7441881 L30.9395217,25.7396958 Z" id="Shape" fill="#000000" fill-rule="nonzero"></path>
    </g>
</svg>