<svg xmlns="http://www.w3.org/2000/svg" width="6.003" height="9.163" viewBox="0 0 6.003 9.163">
  <path id="price" d="M371.455,88.629a.193.193,0,0,0,.158.053h1.316a.269.269,0,0,0,.211-.132.2.2,0,0,0-.053-.237l-2.9-2.949h.184a2.954,2.954,0,0,0,2.87-2.291h1.027a.208.208,0,0,0,.211-.211v-.869a.208.208,0,0,0-.211-.211h-1.027a3.212,3.212,0,0,0-.421-.974h1.448a.208.208,0,0,0,.211-.211v-.869a.208.208,0,0,0-.211-.211h-5.556a.208.208,0,0,0-.211.211v.948a.208.208,0,0,0,.211.211H370.4a1.569,1.569,0,0,1,1.422.9h-3.107a.208.208,0,0,0-.211.211v.869a.208.208,0,0,0,.211.211H371.8a1.541,1.541,0,0,1-1.422.9H368.69a.208.208,0,0,0-.211.211V85.5a.372.372,0,0,0,.053.158Z" transform="translate(-368.479 -79.518)"/>
</svg>
