<svg id="price" xmlns="http://www.w3.org/2000/svg" width="50" height="50" viewBox="0 0 50 50">
  <circle id="Ellipse_13" data-name="Ellipse 13" cx="25" cy="25" r="25" fill="#f7f7f7"/>
  <g id="rupee" transform="translate(8.354 8.354)">
    <g id="Group_2077" data-name="Group 2077">
      <path id="Path_3698" data-name="Path 3698" d="M33.292,16.646A16.676,16.676,0,1,1,27.915,4.4,16.646,16.646,0,0,1,33.292,16.646Z" fill="#f0cd00"/>
      <path id="Path_3699" data-name="Path 3699" d="M50.293,16.8A16.645,16.645,0,0,1,34.266,33.439a16.646,16.646,0,0,1,0-33.269A16.645,16.645,0,0,1,50.293,16.8Z" transform="translate(-17.001 -0.158)" fill="#ffde50"/>
      <path id="Path_3700" data-name="Path 3700" d="M59.288,35.778,35.768,59.3a16.718,16.718,0,0,1-2.108-2.843L56.445,33.67A16.64,16.64,0,0,1,59.288,35.778Z" transform="translate(-31.373 -31.382)" fill="#ffea94"/>
      <path id="Path_3701" data-name="Path 3701" d="M119.189,97.605,97.6,119.189a16.623,16.623,0,0,1-4.214-2.421L116.768,93.39A16.594,16.594,0,0,1,119.189,97.605Z" transform="translate(-87.045 -87.045)" fill="#ffea94"/>
      <path id="Path_3702" data-name="Path 3702" d="M80.49,67.555a12.935,12.935,0,0,1-25.869.159c0-.053,0-.106,0-.159A12.935,12.935,0,0,1,67.555,54.62h.16a12.875,12.875,0,0,1,7.292,2.359,13.021,13.021,0,0,1,3.564,3.791A12.872,12.872,0,0,1,80.49,67.555Z" transform="translate(-50.909 -50.909)" fill="#faa300"/>
      <path id="Path_3703" data-name="Path 3703" d="M76.7,58.408,58.408,76.7a12.888,12.888,0,0,1-3.787-8.987c0-.053,0-.106,0-.159A12.935,12.935,0,0,1,67.555,54.62h.16a12.875,12.875,0,0,1,7.292,2.359A13.054,13.054,0,0,1,76.7,58.408Z" transform="translate(-50.909 -50.909)" fill="#ffbd00"/>
      <path id="Path_3704" data-name="Path 3704" d="M247.91,67.555A12.935,12.935,0,0,1,234.975,80.49q-.368,0-.73-.02a12.935,12.935,0,0,0,0-25.829q.363-.02.73-.02A12.935,12.935,0,0,1,247.91,67.555Z" transform="translate(-218.33 -50.909)" fill="#f68e00"/>
    </g>
    <path id="Path_3705" data-name="Path 3705" d="M125.877,129.909h-2.265a5.465,5.465,0,0,0-.588-1.422h2.853a1.359,1.359,0,0,0,0-2.718H113.039a1.359,1.359,0,0,0,0,2.718h5.244a2.782,2.782,0,0,1,2.425,1.422h-7.67a1.359,1.359,0,1,0,0,2.718h7.67a2.782,2.782,0,0,1-2.425,1.422h-5.244a1.359,1.359,0,0,0-.989,2.291l7.39,7.844a1.359,1.359,0,1,0,1.978-1.864l-5.232-5.553h2.1a5.508,5.508,0,0,0,5.328-4.14h2.265a1.359,1.359,0,1,0,0-2.718Z" transform="translate(-104.092 -117.224)" fill="#f68e00"/>
    <path id="Path_3706" data-name="Path 3706" d="M150.879,129.909h-2.265a5.465,5.465,0,0,0-.588-1.422h2.853a1.359,1.359,0,0,0,0-2.718H138.041a1.359,1.359,0,0,0,0,2.718h5.244a2.782,2.782,0,0,1,2.425,1.422h-7.67a1.359,1.359,0,0,0,0,2.718h7.67a2.782,2.782,0,0,1-2.425,1.422h-5.245a1.359,1.359,0,0,0-.989,2.291l7.39,7.844a1.359,1.359,0,1,0,1.978-1.864l-5.232-5.553h2.1a5.508,5.508,0,0,0,5.328-4.14h2.265a1.359,1.359,0,1,0,0-2.718Z" transform="translate(-127.395 -117.224)" fill="#ffea94"/>
  </g>
</svg>
