<svg xmlns="http://www.w3.org/2000/svg" width="28" height="28" viewBox="0 0 28 28">
  <g id="question_mweb_icon" transform="translate(-502.902 -1462.902)">
    <rect id="Rectangle_10892" data-name="Rectangle 10892" width="28" height="28" transform="translate(502.902 1462.902)" fill="none"/>
    <g id="Layer_2" data-name="Layer 2" transform="translate(503.464 1463.496)">
      <path id="Path_16405" data-name="Path 16405" d="M9.712,26.161a2.679,2.679,0,0,1-1.019-.205,2.582,2.582,0,0,1-1.618-2.422V22.81A1.175,1.175,0,0,0,5.9,21.637H4.454a3.207,3.207,0,0,1-3.2-3.2V4.454a3.207,3.207,0,0,1,3.2-3.2H23.093a3.207,3.207,0,0,1,3.2,3.2V18.433a3.207,3.207,0,0,1-3.2,3.2H15.786a1.179,1.179,0,0,0-.829.342L11.55,25.384a2.587,2.587,0,0,1-1.837.774ZM4.454,3A1.459,1.459,0,0,0,3,4.454V18.433a1.459,1.459,0,0,0,1.456,1.456H5.9A2.925,2.925,0,0,1,8.822,22.81v.725a.874.874,0,0,0,1.491.617l3.407-3.407a2.941,2.941,0,0,1,2.065-.855h7.307a1.459,1.459,0,0,0,1.456-1.456V4.454A1.459,1.459,0,0,0,23.093,3Z" fill="#747474"/>
      <path id="Path_16406" data-name="Path 16406" d="M18.773,9H7.124a.874.874,0,0,1,0-1.747h11.65a.874.874,0,0,1,0,1.747Z" transform="translate(0.825 0.99)" fill="#1973e8"/>
      <path id="Path_16407" data-name="Path 16407" d="M14.113,13H7.124a.874.874,0,0,1,0-1.747h6.99a.874.874,0,0,1,0,1.747Z" transform="translate(0.825 1.65)" fill="#1973e8"/>
    </g>
  </g>
</svg>
