<svg xmlns="http://www.w3.org/2000/svg" width="30" height="30" viewBox="0 0 30 30">
  <g id="quote" transform="translate(-503 -1463)">
    <rect id="Rectangle_10892" data-name="Rectangle 10892" width="30" height="30" transform="translate(503 1463)" fill="none"/>
    <g id="quote-2" data-name="quote" transform="translate(506 1465)">
      <path id="Path_3724" data-name="Path 3724" d="M20.457,4.555,12.486.126a1,1,0,0,0-.972,0L3.543,4.555A3,3,0,0,0,2,7.177V19a5.006,5.006,0,0,0,5,5H17a5.006,5.006,0,0,0,5-5V7.177a3,3,0,0,0-1.543-2.622ZM20,19a3,3,0,0,1-3,3H7a3,3,0,0,1-3-3V7.177A1,1,0,0,1,4.515,6.3L12,2.144,19.486,6.3A1,1,0,0,1,20,7.177Z" fill="#747474"/>
      <circle id="Ellipse_17" data-name="Ellipse 17" cx="2" cy="2" r="2" transform="translate(10 5.5)" fill="#fb641b"/>
    </g>
  </g>
</svg>
