<svg xmlns="http://www.w3.org/2000/svg" width="10" height="9.681" viewBox="0 0 10 9.681">
  <path id="rating" d="M9.938,3.776A1.325,1.325,0,0,0,8.66,2.848H6.839L6.286,1.124a1.345,1.345,0,0,0-2.561,0L3.172,2.848H1.351A1.345,1.345,0,0,0,.56,5.278L2.041,6.362,1.478,8.107A1.345,1.345,0,0,0,3.555,9.6L5.006,8.537,6.457,9.6a1.345,1.345,0,0,0,2.077-1.5L7.97,6.362,9.454,5.278a1.324,1.324,0,0,0,.485-1.5Zm-.976.83L7.235,5.868a.417.417,0,0,0-.151.465L7.74,8.362a.511.511,0,0,1-.79.569l-1.7-1.25a.417.417,0,0,0-.493,0l-1.7,1.25a.511.511,0,0,1-.792-.569l.658-2.029a.417.417,0,0,0-.151-.465L1.05,4.605a.511.511,0,0,1,.3-.924H3.477a.417.417,0,0,0,.4-.289l.646-2.013a.511.511,0,0,1,.973,0l.646,2.013a.417.417,0,0,0,.4.289H8.661a.511.511,0,0,1,.3.924Z" transform="translate(-0.008 -0.19)"/>
</svg>
