<svg xmlns="http://www.w3.org/2000/svg" width="24" height="24" viewBox="0 0 24 24">
    <path data-name="Rectangle 196" style="fill:none" d="M0 0h24v24H0z"/>
    <path d="M13.3 14a.291.291 0 0 1-.206-.085L9.023 9.848a5.554 5.554 0 1 1 .825-.825l4.067 4.067a.293.293 0 0 1 0 .412l-.413.413A.289.289 0 0 1 13.3 14zM5.541 1.166a4.375 4.375 0 1 0 4.376 4.375 4.38 4.38 0 0 0-4.376-4.375z" style="fill:#888;stroke:#888;stroke-miterlimit:10;stroke-width:.5px" transform="translate(5 5)" data-name="Group 91"/>
</svg>
