<svg xmlns="http://www.w3.org/2000/svg" width="50" height="50" viewBox="0 0 50 50">
  <g id="secure_checkout_icon" transform="translate(-35 -37)">
    <circle id="Ellipse_1" data-name="Ellipse 1" cx="25" cy="25" r="25" transform="translate(35 37)" fill="#e46f3d"/>
    <g id="noun-secure-payment-3592885" transform="translate(-36.086 -60.001)">
      <path id="Path_16053" data-name="Path 16053" d="M125.362,165.709h3.347a.753.753,0,0,1,.806.689v.288a.753.753,0,0,1-.806.688h-3.347a.754.754,0,0,1-.806-.688V166.4A.754.754,0,0,1,125.362,165.709Zm-6.7,0h3.348a.754.754,0,0,1,.806.689v.288a.754.754,0,0,1-.806.688h-3.348a.755.755,0,0,1-.806-.688V166.4A.755.755,0,0,1,118.663,165.709Zm-6.7,0h3.347a.754.754,0,0,1,.806.689v.288a.754.754,0,0,1-.806.688h-3.347a.753.753,0,0,1-.806-.688V166.4A.754.754,0,0,1,111.964,165.709Zm-6.7,0h3.349a.753.753,0,0,1,.806.689v.288a.753.753,0,0,1-.806.688h-3.349a.753.753,0,0,1-.806-.688V166.4A.754.754,0,0,1,105.264,165.709Zm.892-10.628h4.4a.905.905,0,0,1,.808.98v1.931a.905.905,0,0,1-.808.98h-4.4a.905.905,0,0,1-.808-.98v-1.931A.906.906,0,0,1,106.156,155.082Zm-1.357-2.908a2.737,2.737,0,0,0-2.392,2.992v13.209a2.737,2.737,0,0,0,2.392,2.992h24.374c1.325,0,2.391-1.333,2.391-2.992v-5.616a8.153,8.153,0,0,1-11.6-10.586H104.8Z" transform="translate(-21.862 -38.477)" fill="#fff"/>
      <path id="Path_16054" data-name="Path 16054" d="M407.14,114.516l.492.49a.638.638,0,0,1-.066.894l-4.309,4.314a.611.611,0,0,1-.83,0l-1.993-2a.636.636,0,0,1-.063-.895l.489-.49a.633.633,0,0,1,.893.063l1.089,1.09,3.4-3.409a.718.718,0,0,1,.5-.221.54.54,0,0,1,.394.159Zm-3.14-3.4a6.256,6.256,0,1,0,6.248,6.257A6.251,6.251,0,0,0,404,111.112Z" transform="translate(-298.621 0)" fill="#fff"/>
    </g>
  </g>
</svg>
