<svg id="secure_icon" xmlns="http://www.w3.org/2000/svg" width="13.5" height="16" viewBox="0 0 13.5 16">
  <path id="Path_16299" data-name="Path 16299" d="M53.115,2.591,46.99.048a.625.625,0,0,0-.479,0L40.385,2.591A.625.625,0,0,0,40,3.168V6.26a10.467,10.467,0,0,0,6.514,9.694.625.625,0,0,0,.472,0A10.467,10.467,0,0,0,53.5,6.26V3.168A.625.625,0,0,0,53.115,2.591ZM52.25,6.26a9.219,9.219,0,0,1-5.5,8.437,9.219,9.219,0,0,1-5.5-8.437V3.585L46.75,1.3l5.5,2.284ZM46.059,8.366,48.746,5.68a.625.625,0,1,1,.884.884L46.5,9.692a.625.625,0,0,1-.884,0L43.871,7.945a.625.625,0,0,1,.884-.884Z" transform="translate(-40 0)"/>
</svg>
