<svg xmlns="http://www.w3.org/2000/svg" xmlns:xlink="http://www.w3.org/1999/xlink" width="20" height="20" viewBox="0 0 20 20">
  <defs>
    <clipPath id="clip-path">
      <rect id="Rectangle_11471" data-name="Rectangle 11471" width="20" height="20" transform="translate(2 2)" fill="#e7eaf0"/>
    </clipPath>
  </defs>
  <g id="icon_checkout" transform="translate(-2 -2)" clip-path="url(#clip-path)">
    <g id="checkout" transform="translate(2 2)">
      <path id="Path_17060" data-name="Path 17060" d="M1.758,2.969h1.25a.587.587,0,0,1,.586.586L5.814,12.5a1.756,1.756,0,0,0,.709,3.363h.694a1.737,1.737,0,0,0-.108.586,1.758,1.758,0,0,0,3.516,0,1.737,1.737,0,0,0-.108-.586h3.731a1.737,1.737,0,0,0-.108.586A1.758,1.758,0,1,0,15.9,14.687H6.523a.586.586,0,0,1,0-1.172h10.8L20,4.141H4.966l-.253-1.01h0A1.757,1.757,0,0,0,3.008,1.8H1.758A1.76,1.76,0,0,0,0,3.555H1.172a.587.587,0,0,1,.586-.586Zm7.7,13.477a.586.586,0,1,1-.586-.586A.587.587,0,0,1,9.453,16.445Zm7.031,0a.586.586,0,1,1-.586-.586A.587.587,0,0,1,16.484,16.445Zm-6.445-7.86,1.172,1.172,2.93-2.93.829.829-3.758,3.758-2-2Z" fill="#e7eaf0"/>
    </g>
  </g>
</svg>
