<svg xmlns="http://www.w3.org/2000/svg" width="50" height="50" viewBox="0 0 50 50">
  <g id="sell_icon" transform="translate(-35 -37)">
    <circle id="Ellipse_1" data-name="Ellipse 1" cx="25" cy="25" r="25" transform="translate(35 37)" fill="#3576fa"/>
    <g id="noun-selling-693578" transform="translate(-25.944 28.914)">
      <path id="Path_16045" data-name="Path 16045" d="M119.941,28.183l-6.9.445a.132.132,0,0,0-.123.117L111.555,41.5l-.567,5.211h0a.963.963,0,0,1-.956.855H108.1a.963.963,0,0,1-.956-.855l-1.226-11.155a2.108,2.108,0,0,1-1.37-1.741l-.711-5.425a2.483,2.483,0,0,1,2.452-2.759h.92a.12.12,0,0,1,.1.046l1.533,1.9a.307.307,0,0,0,.469,0l1.533-1.9a.116.116,0,0,1,.095-.043l1.29.025,7.792.5h0a1.018,1.018,0,0,1,.947,1.128,1.057,1.057,0,0,1-1.024.9ZM109.09,24.852A2.936,2.936,0,1,0,107.019,24a2.933,2.933,0,0,0,2.071.855Zm12.328,7.782-2.241-1.606a.484.484,0,0,0-.763.4v.417H116a.588.588,0,0,0-.588.589v1.2a.588.588,0,0,0,.588.588h2.418v.417a.484.484,0,0,0,.766.392l2.238-1.606h0a.481.481,0,0,0,0-.785Zm0,5.655-2.241-1.606a.484.484,0,0,0-.763.392v.417H116a.588.588,0,0,0-.588.588v1.2a.588.588,0,0,0,.588.588h2.418v.417a.484.484,0,0,0,.766.392l2.238-1.606h0a.481.481,0,0,0,0-.785Zm0,5.655-2.241-1.606a.484.484,0,0,0-.763.392v.417H116a.588.588,0,0,0-.588.588v1.2a.588.588,0,0,0,.588.6h2.418v.417a.484.484,0,0,0,.766.392l2.238-1.606h0a.481.481,0,0,0,0-.785Zm7.574-6.075a14.493,14.493,0,0,0-1.533-.7l-.2-.083a3.574,3.574,0,0,1-.886-.5.653.653,0,0,1-.276-.585.671.671,0,0,1,.432-.509,1.4,1.4,0,0,1,.5-.1,4.128,4.128,0,0,1,2.054.408c.659.307.791-.162.858-.365.089-.27.165-.542.242-.815l.092-.322h0a.613.613,0,0,0-.374-.775,5.661,5.661,0,0,0-1.41-.42c-.441-.071-.441-.071-.441-.512,0-.92-.071-1.082-.984-1.082h-.487c-.524.015-.677.172-.693.7v.561c0,.392,0,.392-.392.533a3.123,3.123,0,0,0-2.274,2.893,2.949,2.949,0,0,0,1.671,2.845,9.654,9.654,0,0,0,1.376.641c.2.083.408.162.613.251h0a2.811,2.811,0,0,1,.662.386.769.769,0,0,1-.184,1.364,2.185,2.185,0,0,1-1.149.15,5.352,5.352,0,0,1-1.839-.552.877.877,0,0,0-.4-.129c-.307,0-.42.325-.475.5-.1.334-.2.671-.291,1.009-.15.552-.055.757.46,1.009h0a6.367,6.367,0,0,0,1.787.515,1.489,1.489,0,0,1,.288.061,1.317,1.317,0,0,1,.025.307v.659a.613.613,0,0,0,.613.65h.981a.576.576,0,0,0,.613-.613v-.92c0-.205.049-.273.261-.331a3.476,3.476,0,0,0,1.805-1.159,3.191,3.191,0,0,0,.681-2.633,3.411,3.411,0,0,0-1.726-2.339Z" transform="translate(-31.417)" fill="#fff"/>
    </g>
  </g>
</svg>
