<svg xmlns="http://www.w3.org/2000/svg" width="50" height="50" viewBox="0 0 50 50">
  <g id="seller_support_icon" transform="translate(-35 -37)">
    <circle id="Ellipse_1" data-name="Ellipse 1" cx="25" cy="25" r="25" transform="translate(35 37)" fill="#38a68a"/>
    <g id="noun-customer-call-1933947" transform="translate(-47.141 37.704)">
      <path id="Path_16059" data-name="Path 16059" d="M109.212,55.058a4.128,4.128,0,0,0,4.691-5.073l-6.218-2.509a6.437,6.437,0,0,1-1.636.818,2.949,2.949,0,0,1-2.782-.764,14.457,14.457,0,0,1-3.873-6.109c-.6-1.8.436-2.945,2.018-3.982,0-.218.109-1.418.436-6.709a4.228,4.228,0,0,0-6.709,2.455,18.34,18.34,0,0,0,14.073,21.872Zm-7.854-17.673Z" transform="translate(0 -17.732)" fill="#fff"/>
      <path id="Path_16060" data-name="Path 16060" d="M286.284,11.2c-4.418,0-7.964,2.4-7.964,5.4a4.86,4.86,0,0,0,2.891,4.145l-.218,3.491,4.691-2.291c3.927.218,8.564-1.854,8.564-5.4,0-2.945-3.6-5.345-7.964-5.345Zm-3.491,6.436a1.064,1.064,0,1,1,0-2.127,1.049,1.049,0,0,1,1.036,1.091A1.036,1.036,0,0,1,282.793,17.635Zm3.491,0a1.036,1.036,0,0,1-1.036-1.036,1.084,1.084,0,0,1,1.036-1.091A1.049,1.049,0,0,1,287.32,16.6,1,1,0,0,1,286.284,17.635Zm3.491,0a1.064,1.064,0,1,1,0-2.127,1.049,1.049,0,0,1,1.036,1.091A1,1,0,0,1,289.774,17.635Z" transform="translate(-174.672)" fill="#fff"/>
    </g>
  </g>
</svg>
