<svg xmlns="http://www.w3.org/2000/svg" width="14" height="14" viewBox="0 0 14 14">
  <path id="noun-share-3669944" d="M99.169,17.5a2.34,2.34,0,0,0-2.333,2.333,2.291,2.291,0,0,0,.089.6l-5.265,2.63a2.333,2.333,0,1,0,0,2.869l5.265,2.631a2.291,2.291,0,0,0-.089.6,2.366,2.366,0,1,0,.509-1.435L92.081,25.1a2.069,2.069,0,0,0,0-1.2l5.265-2.631A2.328,2.328,0,1,0,99.169,17.5Zm0,.933a1.4,1.4,0,1,1-1.4,1.4A1.393,1.393,0,0,1,99.169,18.433ZM89.836,23.1a1.4,1.4,0,1,1-1.4,1.4A1.393,1.393,0,0,1,89.836,23.1Zm9.333,4.667a1.4,1.4,0,1,1-1.4,1.4A1.393,1.393,0,0,1,99.169,27.767Z" transform="translate(-87.503 -17.5)" fill-rule="evenodd"/>
</svg>
