<?xml version="1.0" encoding="UTF-8"?>
<svg width="200px" height="63px" viewBox="0 0 200 63" version="1.1" xmlns="http://www.w3.org/2000/svg" xmlns:xlink="http://www.w3.org/1999/xlink">
    <title>verified by</title>
    <g id="verified-by" stroke="none" stroke-width="1" fill="none" fill-rule="evenodd">
        <g id="verified_tag" transform="translate(13.750000, 7.750000)" fill-rule="nonzero">
            <g id="icon" transform="translate(0.776253, 0.567000)">
                <path d="M35.5161995,29.3939638 C34.3977317,32.4505674 32.6031748,35.2172134 30.2655303,37.4888547 C27.3277057,40.2174344 23.8259497,42.2721832 20.0061647,43.5088114 C19.6857594,43.6198049 19.3494924,43.678622 19.0102999,43.683 L18.9725354,43.683 C18.7654686,43.683 18.5588967,43.6628528 18.3557146,43.6230791 C18.2135292,43.5945937 18.0733623,43.5568887 17.9361087,43.5102049 C14.111928,42.2775533 10.6052606,40.2251023 7.66275623,37.4972157 C5.32467328,35.2267469 3.5304368,32.4603342 2.41348575,29.4037183 C0.300070424,23.7042685 0.420357464,17.4306932 0.516866834,12.3875859 L0.516866834,12.310943 C0.536448445,11.8928904 0.549036624,11.4567223 0.556030056,10.9745683 C0.610890062,8.58818804 2.49965847,6.6457095 4.89195825,6.5153411 C9.44702841,6.42326729 13.7959961,4.60661189 17.0549362,1.43460908 L17.0843086,1.41370645 C18.1532103,0.439431183 19.7918605,0.439431183 20.8607622,1.41370645 L20.8887359,1.44018311 C24.1501909,4.6110935 28.5011548,6.42575408 33.0573086,6.5153411 C35.4496084,6.6457095 37.3383768,8.58818804 37.3932368,10.9745683 C37.4002302,11.4664768 37.4128184,11.897071 37.4324,12.310943 L37.4324,12.3443872 C37.526112,17.397249 37.6450004,23.6819724 35.5161995,29.3939638 Z" id="Path_3" fill="#76DF00"></path>
                <path d="M36.460605,29.3974986 C35.3036873,32.4625617 33.45674,35.2294841 31.0585241,37.490387 C28.0227245,40.2256132 24.4204209,42.2790462 20.5004256,43.5088545 C20.169715,43.6200793 19.8231733,43.6788598 19.4737474,43.683 L19.4737474,0.683 C20.1808524,0.691310948 20.8606197,0.953336543 21.3856881,1.41998364 L21.4139713,1.44645375 C24.7917042,4.62490002 29.2590347,6.4360283 33.9292635,6.52035623 C36.370362,6.6298244 38.3143925,8.57231148 38.3909298,10.9784803 C38.3980006,11.4702671 38.410728,11.9007547 38.4305262,12.3145244 L38.4305262,12.3479603 C38.528103,17.4009653 38.6511347,23.6869203 36.460605,29.3974986 Z" id="Path_4" fill="#72C83E"></path>
                <path d="M30.4737474,22.1787026 C30.339104,28.0826329 25.4098226,32.77231 19.4373017,32.6786849 L19.3981808,32.6786849 C15.5329187,32.7880491 11.9129729,30.8118465 9.94770119,27.5194745 C7.98242951,24.2271025 7.98242951,20.1388975 9.94770119,16.8465255 C11.9129729,13.5541535 15.5329187,11.5779509 19.3981808,11.6873151 L19.4373017,11.6873151 C25.4065093,11.5936336 30.3344044,16.2781542 30.4737474,22.1787026 L30.4737474,22.1787026 Z" id="Path_5" fill="#FFFFFF"></path>
                <path d="M30.4737474,22.1794234 C30.2485785,28.1704886 25.3390622,32.856247 19.4737474,32.6780834 L19.4737474,11.6879249 C25.3364336,11.509689 30.2448381,16.1911907 30.4737474,22.1794234 Z" id="Path_6" fill="#E1EBF0"></path>
                <path d="M24.1122852,20.7209531 L19.122146,25.3336404 L18.043387,26.3305215 C17.5334171,26.8004928 16.7080742,26.8004928 16.1981044,26.3305215 L13.8788429,24.1859923 C13.5356797,23.8839761 13.3966228,23.4338025 13.5155503,23.0098935 C13.6344777,22.5859845 13.9927026,22.2549489 14.451429,22.145048 C14.9101553,22.0351471 15.3973035,22.1636497 15.7241255,22.4807667 L17.1207457,23.7713834 L22.2684091,19.0157275 C22.78142,18.564229 23.5905174,18.5733458 24.0914627,19.0362693 C24.5924079,19.4991929 24.6022735,20.2468797 24.1136917,20.7209531 L24.1122852,20.7209531 Z" id="Path_7" fill="#76DF00"></path>
            </g>
            <g id="text" transform="translate(52.842000, 5.000000)" fill="#24272C" font-style="italic">
                <g id="nm" opacity="0.7" transform="translate(0.000000, 20.000000)" font-family="Roboto-Italic, Roboto" font-size="14" font-weight="normal">
                    <text id="Techjockey.com">
                        <tspan x="0" y="13">Techjockey.com</tspan>
                    </text>
                </g>
                <g id="nm-2" font-family="Roboto-MediumItalic, Roboto" font-size="18" font-weight="400">
                    <text id="Verified-by">
                        <tspan x="0" y="17">Verified by</tspan>
                    </text>
                </g>
            </g>
        </g>
    </g>
</svg>