<svg xmlns="http://www.w3.org/2000/svg" width="16" height="16" viewBox="0 0 16 16">
  <g id="sizes_top_features" transform="translate(3.654 1.134)">
    <g id="Group_12486" data-name="Group 12486">
      <rect id="Rectangle_11012" data-name="Rectangle 11012" width="16" height="16" transform="translate(-3.654 -1.134)" fill="none"/>
      <g id="check_1_" data-name="check (1)" transform="translate(-2.349 -68.54)">
        <path id="Path_16303" data-name="Path 16303" d="M3.545,78.5a1.173,1.173,0,0,1-.831-.344L.2,75.644a.692.692,0,0,1,0-.979h0a.692.692,0,0,1,.979,0l2.364,2.364L9.8,70.776a.692.692,0,0,1,.979,0h0a.692.692,0,0,1,0,.979l-6.4,6.4A1.173,1.173,0,0,1,3.545,78.5Z" transform="translate(1.205 0.87)" fill="#777"/>
      </g>
    </g>
  </g>
</svg>
