<svg id="sort" xmlns="http://www.w3.org/2000/svg" width="10.064" height="10.064" viewBox="0 0 10.064 10.064">
  <path id="Path_16297" data-name="Path 16297" d="M2.935,0H1.677A1.677,1.677,0,0,0,0,1.677V2.935A1.677,1.677,0,0,0,1.677,4.613H2.935A1.677,1.677,0,0,0,4.613,2.935V1.677A1.677,1.677,0,0,0,2.935,0Zm.839,2.935a.839.839,0,0,1-.839.839H1.677a.839.839,0,0,1-.839-.839V1.677A.839.839,0,0,1,1.677.839H2.935a.839.839,0,0,1,.839.839Z"/>
  <path id="Path_16298" data-name="Path 16298" d="M2.935,13H1.677A1.677,1.677,0,0,0,0,14.677v1.258a1.677,1.677,0,0,0,1.677,1.677H2.935a1.677,1.677,0,0,0,1.677-1.677V14.677A1.677,1.677,0,0,0,2.935,13Zm.839,2.935a.839.839,0,0,1-.839.839H1.677a.839.839,0,0,1-.839-.839V14.677a.839.839,0,0,1,.839-.839H2.935a.839.839,0,0,1,.839.839Z" transform="translate(0 -7.548)"/>
  <path id="Path_16299" data-name="Path 16299" d="M17.478,8.016l-.962.96V1.132l.962.96A.419.419,0,0,0,18.07,1.5L16.986.416a1.258,1.258,0,0,0-1.778,0L14.123,1.5a.419.419,0,1,0,.593.593l.962-.96V8.976l-.962-.96a.419.419,0,1,0-.593.593l1.085,1.083a1.258,1.258,0,0,0,1.778,0L18.07,8.609a.419.419,0,0,0-.593-.593Z" transform="translate(-8.129 -0.028)"/>
</svg>
