<svg xmlns="http://www.w3.org/2000/svg" width="16" height="16" viewBox="0 0 16 16">
  <path id="star_blank" data-name="star blank" d="M15.958,6.538a.857.857,0,0,0-.732-.61l-4.618-.438L8.782,1.031a.837.837,0,0,0-1.564,0L5.392,5.491.773,5.928a.859.859,0,0,0-.731.61.912.912,0,0,0,.249.943l3.491,3.194L2.752,15.407a.907.907,0,0,0,.331.916.816.816,0,0,0,.934.043L8,13.881l3.982,2.484a.818.818,0,0,0,.935-.043.908.908,0,0,0,.331-.916l-1.029-4.731,3.491-3.194A.913.913,0,0,0,15.958,6.538Zm0,0" transform="translate(0 -0.492)" fill="#d2d7db"/>
</svg>
