<svg xmlns="http://www.w3.org/2000/svg" xmlns:xlink="http://www.w3.org/1999/xlink" width="30" height="30" viewBox="0 0 30 30">
  <defs>
    <clipPath id="clip-startup">
      <rect width="30" height="30"/>
    </clipPath>
  </defs>
  <g id="startup" clip-path="url(#clip-startup)">
    <g id="small_business" transform="translate(-78.243 -64.12)">
      <path id="Path_16181" data-name="Path 16181" d="M157.451,74.12h-.058V71.994a.858.858,0,0,0-.874-.874H137.881a.858.858,0,0,0-.874.874V74.12h-.058a.858.858,0,0,0-.874.874v2.883a2.625,2.625,0,0,0,.932,1.98V91.972a.858.858,0,0,0,.874.874h18.639a.858.858,0,0,0,.874-.874V79.857a2.531,2.531,0,0,0,.932-1.98V74.993a.858.858,0,0,0-.874-.874ZM141.23,77.876v-2.01h2.825v2.388a1.4,1.4,0,0,1-1.4,1.4,1.417,1.417,0,0,1-1.4-1.4v-.379Zm-1.747,0a.844.844,0,1,1-1.689,0v-2.01h1.66v2.01Zm6.465,9.727a.858.858,0,0,1-.874.874h-5.213a.858.858,0,0,1-.874-.874V83.9a.858.858,0,0,1,.874-.874h5.213a.858.858,0,0,1,.874.874Zm2.65-9.348a1.4,1.4,0,0,1-1.4,1.4,1.417,1.417,0,0,1-1.4-1.4V75.867h2.825v2.388Zm4.572-.379v.379a1.4,1.4,0,0,1-1.4,1.4,1.417,1.417,0,0,1-1.4-1.4V75.867H153.2v2.01Zm3.407,0a.844.844,0,1,1-1.689,0v-2.01h1.66v2.01Zm-1.31,12.93H149.22V83.9a.858.858,0,0,1,.874-.874h4.3a.858.858,0,0,1,.874.874Z" transform="translate(-53.921 0)" fill="#24272c"/>
    </g>
  </g>
</svg>
