<svg xmlns="http://www.w3.org/2000/svg" width="21" height="21" viewBox="0 0 21 21">
    <g fill="none" fill-rule="evenodd">
        <g fill="#FADB14">
            <g>
                <g>
                    <g>
                        <g>
                            <path d="M16.787 7.321c-.244-.234-.355-.57-.298-.901l.915-5.246c.071-.416 0-.714-.347-.962-.196-.14-.429-.212-.662-.212-.179 0-.359.042-.524.127l-4.89 2.594c-.301.156-.661.156-.962 0L5.334.127c-.38-.196-.84-.163-1.187.085-.346.248-.623.545-.55.962l1.12 5.355c.058.33-.054.667-.297.901L.34 10.587c-.307.294-.417.735-.285 1.136.133.402.485.694.91.755l5.305.916c.336.048.628.256.778.557l2.443 5.072c.189.379.58.618 1.01.618.429 0 .819-.24 1.01-.618l2.346-5.072c.15-.3.442-.509.779-.557l5.4-.916c.424-.06.777-.353.91-.755.131-.4.02-.842-.286-1.136l-3.873-3.266z" transform="translate(-145 -3815) translate(0 3750) translate(136 50) translate(9 14.903) translate(0 .264) matrix(1 0 0 -1 0 19.641)"/>
                        </g>
                    </g>
                </g>
            </g>
        </g>
    </g>
</svg>
