<?xml version="1.0" encoding="UTF-8"?>
<svg width="20px" height="20px" viewBox="0 0 20 20" version="1.1" xmlns="http://www.w3.org/2000/svg" xmlns:xlink="http://www.w3.org/1999/xlink">
    <!-- Generator: Sketch 53.2 (72643) - https://sketchapp.com -->
    <title>talktous_20</title>
    <desc>Created with Sketch.</desc>
    <g id="Page-1" stroke="none" stroke-width="1" fill="none" fill-rule="evenodd">
        <g id="Artboard" transform="translate(-79.000000, -182.000000)">
            <g id="talktous_20" transform="translate(79.000000, 182.000000)">
                <polygon id="Path" points="0 0 20 0 20 20 0 20"></polygon>
                <path d="M16.6666667,12.9166667 C15.625,12.9166667 14.625,12.75 13.6916667,12.4416667 C13.6083333,12.4166667 13.5166667,12.4 13.4333333,12.4 C13.2166667,12.4 13.0083333,12.4833333 12.8416667,12.6416667 L11.0083333,14.475 C8.65,13.275 6.71666667,11.35 5.51666667,8.99166667 L7.35,7.15 C7.58333333,6.925 7.65,6.6 7.55833333,6.30833333 C7.25,5.375 7.08333333,4.375 7.08333333,3.33333333 C7.08333333,2.875 6.70833333,2.5 6.25,2.5 L3.33333333,2.5 C2.875,2.5 2.5,2.875 2.5,3.33333333 C2.5,11.1583333 8.84166667,17.5 16.6666667,17.5 C17.125,17.5 17.5,17.125 17.5,16.6666667 L17.5,13.75 C17.5,13.2916667 17.125,12.9166667 16.6666667,12.9166667 Z M4.19166667,4.16666667 L5.44166667,4.16666667 C5.5,4.9 5.625,5.625 5.825,6.325 L4.825,7.33333333 C4.48333333,6.325 4.26666667,5.26666667 4.19166667,4.16666667 L4.19166667,4.16666667 Z M15.8333333,15.8083333 C14.7333333,15.7333333 13.6666667,15.5166667 12.6666667,15.175 L13.6666667,14.175 C14.375,14.375 15.1,14.5 15.8333333,14.55 L15.8333333,15.8083333 Z M10,2.5 L10,10.8333333 L12.5,8.33333333 L17.5,8.33333333 L17.5,2.5 L10,2.5 Z M15.8333333,6.66666667 L11.6666667,6.66666667 L11.6666667,4.16666667 L15.8333333,4.16666667 L15.8333333,6.66666667 Z" id="Shape" fill="#24272C" fill-rule="nonzero"></path>
            </g>
        </g>
    </g>
</svg>