<svg xmlns="http://www.w3.org/2000/svg" xmlns:xlink="http://www.w3.org/1999/xlink" width="50" height="50" viewBox="0 0 50 50">
  <defs>
    <clipPath id="clip-path">
      <rect id="Rectangle_174" data-name="Rectangle 174" width="50" height="50"/>
    </clipPath>
    <linearGradient id="linear-gradient" x1="0.5" x2="0.5" y2="1" gradientUnits="objectBoundingBox">
      <stop offset="0" stop-color="#472dc2"/>
      <stop offset="1" stop-color="#a592ef"/>
    </linearGradient>
  </defs>
  <g id="transport-management-system" clip-path="url(#clip-path)">
    <g id="delivery-truck" transform="translate(0 -85.252)">
      <path id="Union_22" data-name="Union 22" d="M33.081,26.123a4.414,4.414,0,1,1,1.295,3.123A4.414,4.414,0,0,1,33.081,26.123Zm2.208,0a2.206,2.206,0,1,0,.648-1.562,2.206,2.206,0,0,0-.648,1.562Zm-25.3,0A4.414,4.414,0,1,1,14.4,30.537a4.414,4.414,0,0,1-4.411-4.414Zm2.208,0a2.207,2.207,0,1,0,2.2-2.207,2.207,2.207,0,0,0-2.2,2.207Zm31.065-.843a5.825,5.825,0,0,0-11.529,0H20.165A5.827,5.827,0,0,0,18.2,21.709H29.168V1.419A1.42,1.42,0,0,1,30.587,0h6.7a5.673,5.673,0,0,1,4.7,2.5L46.3,8.894a5.676,5.676,0,0,1,.972,3.176v9.639H49a.709.709,0,0,1,.71.71v2.153a.709.709,0,0,1-.71.708ZM32.389,4.56V9.466a.709.709,0,0,0,.71.708h8.836a.71.71,0,0,0,.581-1.117L39.063,4.152a.707.707,0,0,0-.579-.3H33.1a.71.71,0,0,0-.711.708ZM.71,25.279A.708.708,0,0,1,0,24.571V22.418a.709.709,0,0,1,.71-.71H10.6a5.829,5.829,0,0,0-1.964,3.571ZM2.642,19.39a1.313,1.313,0,0,1-1.313-1.313v-5.91a1.313,1.313,0,0,1,1.313-1.313H25.625a1.313,1.313,0,0,1,1.313,1.313v5.909a1.313,1.313,0,0,1-1.313,1.313Z" transform="translate(0 95.252)" fill="url(#linear-gradient)"/>
      <path id="Path_195" data-name="Path 195" d="M10.506,126.531H1.313A1.313,1.313,0,0,1,0,125.218v-5.91A1.313,1.313,0,0,1,1.313,118h9.193a1.313,1.313,0,0,1,1.313,1.313v5.91a1.313,1.313,0,0,1-1.313,1.308Z" transform="translate(1.329 -22.395)" fill="#fc0"/>
      <path id="Path_196" data-name="Path 196" d="M10.506,126.531H1.313A1.313,1.313,0,0,1,0,125.218v-5.91A1.313,1.313,0,0,1,1.313,118h9.193a1.313,1.313,0,0,1,1.313,1.313v5.91a1.313,1.313,0,0,1-1.313,1.308Z" transform="translate(15.196 -22.395)" fill="#fc0"/>
    </g>
  </g>
</svg>
