<svg xmlns="http://www.w3.org/2000/svg" width="85.604" height="55.505" viewBox="0 0 85.604 55.505">
  <g id="ts_icon" transform="translate(-308.625 -232.088)">
    <g id="Group_13872" transform="translate(333.34 232.088)">
      <path id="Path_16342" d="M10.013,18.271a8.656,8.656,0,1,1,8.656,8.656h0a8.62,8.62,0,0,1-8.656-8.656Zm3.558.385L17.419,22.5l2.02-2.02,4.52-4.424-2.02-2.02-4.616,4.424L15.4,16.54ZM8.956,3.172l.866.192a2.451,2.451,0,0,0,2.6-1.25l.481-.866A2.492,2.492,0,0,1,16.265.287a.207.207,0,0,1,.192.192l.769.481a2.462,2.462,0,0,0,2.789,0l.769-.577A2.551,2.551,0,0,1,24.247.96c.1.1.1.1.1.192l.481.866a2.322,2.322,0,0,0,2.5,1.25l.866-.192A2.416,2.416,0,0,1,30.979,5.1v.289l.1.962a2.491,2.491,0,0,0,1.731,2.212l.866.192a2.416,2.416,0,0,1,1.635,3.078c0,.1,0,.192-.1.192l-.385.962A2.532,2.532,0,0,0,35.4,15.77l.673.577a2.555,2.555,0,0,1,.1,3.558l-.1.1-.673.577a2.348,2.348,0,0,0-.577,2.789l.385.962a2.488,2.488,0,0,1-1.25,3.174c-.1,0-.192.1-.289.1L33,27.888A2.257,2.257,0,0,0,31.268,30.1l-.1.962a2.466,2.466,0,0,1-2.6,2.308h-.192l-.866-.192a2.451,2.451,0,0,0-2.6,1.25l-.481.866a2.492,2.492,0,0,1-3.366.962.207.207,0,0,1-.192-.192l-.866-.481a2.462,2.462,0,0,0-2.789,0l-.769.577a2.551,2.551,0,0,1-3.462-.577c-.1-.1-.1-.1-.1-.192l-.481-.866a2.322,2.322,0,0,0-2.5-1.25l-.866.192a2.416,2.416,0,0,1-2.789-2.02v-.289L6.07,30.2a2.491,2.491,0,0,0-1.731-2.212l-.866-.192a2.416,2.416,0,0,1-1.635-3.078c0-.1,0-.192.1-.192l.385-.962a2.532,2.532,0,0,0-.577-2.789l-.673-.577a2.555,2.555,0,0,1-.1-3.558l.1-.1.673-.577a2.348,2.348,0,0,0,.577-2.789l-.385-.962a2.488,2.488,0,0,1,1.25-3.174c.1,0,.192-.1.289-.1l.769-.289A2.257,2.257,0,0,0,5.974,6.442l.1-.962a2.466,2.466,0,0,1,2.6-2.308Zm-2.212,15.1A11.878,11.878,0,1,0,18.669,6.345,11.923,11.923,0,0,0,6.744,18.271Z" transform="translate(-0.298 0.052)" fill="#fff"/>
      <circle id="Ellipse_17" cx="11.541" cy="11.541" r="11.541" transform="translate(6.926 6.686)" fill="#fff"/>
      <path id="Path_16297" d="M11.355,18.468a7.405,7.405,0,1,1,7.405,7.405h0a7.408,7.408,0,0,1-7.405-7.405Zm3.078.385L17.8,22.219l1.731-1.731,3.847-3.847L21.549,14.91,17.7,18.757l-1.635-1.635ZM10.489,5.485l.769.1A2.294,2.294,0,0,0,13.47,4.523l.385-.769a2.094,2.094,0,0,1,2.885-.866c.1,0,.1.1.192.1l.673.481a2.182,2.182,0,0,0,2.4,0l.673-.481a2.081,2.081,0,0,1,2.981.577c0,.1.1.1.1.192l.385.769a2,2,0,0,0,2.212,1.058l.769-.1a2.079,2.079,0,0,1,2.4,1.731v.192l.1.866A2.284,2.284,0,0,0,31.166,10.2l.769.192a2.166,2.166,0,0,1,1.443,2.693c0,.1,0,.1-.1.192l-.289.769a2.227,2.227,0,0,0,.481,2.4l.577.481a2.148,2.148,0,0,1,.1,3.078l-.1.1-.577.481a2.036,2.036,0,0,0-.481,2.4l.289.769a1.95,1.95,0,0,1-1.154,2.693c-.1,0-.192.1-.289.1l-.769.192a2.071,2.071,0,0,0-1.539,1.923l-.1.866a2.162,2.162,0,0,1-2.308,2.02h-.192l-.769-.1a2.294,2.294,0,0,0-2.212,1.058l-.385.769a2.094,2.094,0,0,1-2.885.866c-.1,0-.1-.1-.192-.1l-.673-.481a2.182,2.182,0,0,0-2.4,0l-.673.481a2.081,2.081,0,0,1-2.981-.577c0-.1-.1-.1-.1-.192l-.385-.769a2,2,0,0,0-2.212-1.058l-.769.1a2.079,2.079,0,0,1-2.4-1.731v-.192l-.1-.866a2.284,2.284,0,0,0-1.539-1.923l-.769-.192A2.093,2.093,0,0,1,4.045,23.95c0-.1,0-.1.1-.192l.289-.769a2.227,2.227,0,0,0-.481-2.4L3.372,20.1a2.148,2.148,0,0,1-.1-3.078l.1-.1.577-.481a2.036,2.036,0,0,0,.481-2.4l-.289-.769A1.95,1.95,0,0,1,5.3,10.582c.1,0,.192-.1.289-.1l.769-.192A2.071,2.071,0,0,0,7.892,8.37l.1-.866A2.134,2.134,0,0,1,10.2,5.485a.18.18,0,0,1,.289,0ZM8.566,18.468A10.291,10.291,0,1,0,18.856,8.178h0A10.3,10.3,0,0,0,8.566,18.468Z" transform="translate(-0.389 -0.049)" fill="#0593ff"/>
    </g>
    <g id="Group_13888" data-name="Group 13888" transform="translate(308.625 277.16)">
      <path id="Path_16388" data-name="Path 16388" d="M333.2,252.957h-2.925v8.092h-2.047v-8.092H325.3V251.3h7.9Z" transform="translate(-325.3 -250.813)" fill="#24272c"/>
      <path id="Path_16389" data-name="Path 16389" d="M337.995,255.75c-.292,0-.487-.1-.682-.1a1.6,1.6,0,0,0-1.462.78v4.68H333.9V253.9h1.852l.1.878a1.672,1.672,0,0,1,1.56-.975,1.237,1.237,0,0,1,.585.1Z" transform="translate(-325.515 -250.875)" fill="#24272c"/>
      <path id="Path_16390" data-name="Path 16390" d="M343.39,260.435a2.455,2.455,0,0,1-1.95.877,2.086,2.086,0,0,1-1.755-.682,2.911,2.911,0,0,1-.585-1.95V254h1.95v4.68c0,.78.39,1.17,1.073,1.17a1.382,1.382,0,0,0,1.365-.682V254.1h1.95v7.215h-1.853Z" transform="translate(-325.645 -250.88)" fill="#24272c"/>
      <path id="Path_16391" data-name="Path 16391" d="M350.782,259.162a.705.705,0,0,0-.39-.585,3.929,3.929,0,0,0-1.17-.39c-1.755-.39-2.535-1.073-2.535-2.145a1.9,1.9,0,0,1,.78-1.56,3.706,3.706,0,0,1,4.29,0,1.94,1.94,0,0,1,.78,1.658h-1.95a.885.885,0,0,0-.292-.682,1.192,1.192,0,0,0-.878-.293,1.836,1.836,0,0,0-.78.2.59.59,0,0,0-.292.585.536.536,0,0,0,.292.488,6.056,6.056,0,0,0,.975.292,10.122,10.122,0,0,1,1.17.292,2.053,2.053,0,0,1,1.56,1.95,1.757,1.757,0,0,1-.878,1.56,3.708,3.708,0,0,1-2.145.585,4.554,4.554,0,0,1-1.657-.293,1.962,1.962,0,0,1-1.073-.877,1.874,1.874,0,0,1-.39-1.17h1.852a.791.791,0,0,0,.39.78,1.647,1.647,0,0,0,.975.292,1.946,1.946,0,0,0,.878-.2C350.685,259.552,350.782,259.357,350.782,259.162Z" transform="translate(-325.823 -250.875)" fill="#24272c"/>
      <path id="Path_16392" data-name="Path 16392" d="M356.425,252.1v1.755h1.267v1.365h-1.267v3.607a.689.689,0,0,0,.78.78h.585v1.462a4.892,4.892,0,0,1-1.17.195,1.81,1.81,0,0,1-2.047-2.047v-3.9H353.5v-1.365h1.073V252.2h1.852Z" transform="translate(-326.005 -250.833)" fill="#24272c"/>
      <path id="Path_16393" data-name="Path 16393" d="M362.11,261.3a3.171,3.171,0,0,1-2.535-.975,3.53,3.53,0,0,1-.975-2.632v-.2a4.365,4.365,0,0,1,.39-1.95,3.97,3.97,0,0,1,1.17-1.365,3.367,3.367,0,0,1,1.755-.487,2.89,2.89,0,0,1,2.34.975,3.733,3.733,0,0,1,.877,2.633v.78H360.55a2.225,2.225,0,0,0,.585,1.17,1.554,1.554,0,0,0,1.17.39,2.142,2.142,0,0,0,1.755-.78l.975,1.073a3.9,3.9,0,0,1-1.17.975A5.131,5.131,0,0,1,362.11,261.3Zm-.2-5.947a1.252,1.252,0,0,0-.975.39,2.742,2.742,0,0,0-.487,1.072h2.632v-.195a1.131,1.131,0,0,0-.39-.975C362.7,255.455,362.3,255.357,361.915,255.357Z" transform="translate(-326.133 -250.873)" fill="#24272c"/>
      <path id="Path_16394" data-name="Path 16394" d="M366.1,257.43a4.538,4.538,0,0,1,.78-2.73,2.333,2.333,0,0,1,2.048-.975,2.441,2.441,0,0,1,1.755.78v-3.7h1.95v10.237h-1.755l-.1-.78a2.264,2.264,0,0,1-1.852.878,2.333,2.333,0,0,1-2.048-.975A4.539,4.539,0,0,1,366.1,257.43Zm1.95.1a2.475,2.475,0,0,0,.39,1.56,1.12,1.12,0,0,0,1.073.585,1.405,1.405,0,0,0,1.267-.78v-2.827a1.306,1.306,0,0,0-1.267-.78C368.537,255.285,368.05,256.065,368.05,257.527Z" transform="translate(-326.32 -250.8)" fill="#24272c"/>
      <path id="Path_16395" data-name="Path 16395" d="M382.96,258.51a.951.951,0,0,0-.39-.877,10.98,10.98,0,0,0-1.463-.683,9.517,9.517,0,0,1-1.657-.682,2.707,2.707,0,0,1-1.657-2.438,2.33,2.33,0,0,1,.487-1.365,2.616,2.616,0,0,1,1.267-.975,5.7,5.7,0,0,1,1.852-.39,3.957,3.957,0,0,1,1.853.39,2.778,2.778,0,0,1,1.267,1.073,2.946,2.946,0,0,1,.488,1.56H382.96a1.332,1.332,0,0,0-.39-1.073,1.554,1.554,0,0,0-1.17-.39,2.079,2.079,0,0,0-1.17.293.886.886,0,0,0-.39.78.994.994,0,0,0,.487.78,6.292,6.292,0,0,0,1.365.585,6.2,6.2,0,0,1,2.437,1.267,2.664,2.664,0,0,1,.78,1.853,2.165,2.165,0,0,1-.975,1.95,4.1,4.1,0,0,1-2.535.683,4.522,4.522,0,0,1-2.047-.39,3.241,3.241,0,0,1-1.365-1.17,3.286,3.286,0,0,1-.488-1.658h2.047c0,1.072.683,1.56,1.95,1.56a1.568,1.568,0,0,0,1.072-.292C382.765,259.1,382.96,258.9,382.96,258.51Z" transform="translate(-326.605 -250.808)" fill="#24272c"/>
      <path id="Path_16396" data-name="Path 16396" d="M389.71,261.3a3.171,3.171,0,0,1-2.535-.975,3.529,3.529,0,0,1-.975-2.632v-.2a4.365,4.365,0,0,1,.39-1.95,3.969,3.969,0,0,1,1.17-1.365,3.367,3.367,0,0,1,1.755-.487,2.89,2.89,0,0,1,2.34.975,3.734,3.734,0,0,1,.877,2.633v.78H388.15a2.225,2.225,0,0,0,.585,1.17,1.554,1.554,0,0,0,1.17.39,2.142,2.142,0,0,0,1.755-.78l.975,1.073a3.9,3.9,0,0,1-1.17.975A5.7,5.7,0,0,1,389.71,261.3Zm-.2-5.947a1.252,1.252,0,0,0-.975.39,2.743,2.743,0,0,0-.487,1.072h2.633v-.195a1.131,1.131,0,0,0-.39-.975C390.2,255.455,389.9,255.357,389.515,255.357Z" transform="translate(-326.823 -250.873)" fill="#24272c"/>
      <path id="Path_16397" data-name="Path 16397" d="M395.95,261.037H394V250.8h1.95Z" transform="translate(-327.018 -250.8)" fill="#24272c"/>
      <path id="Path_16398" data-name="Path 16398" d="M399.75,261.037H397.8V250.8h1.95Z" transform="translate(-327.113 -250.8)" fill="#24272c"/>
      <path id="Path_16399" data-name="Path 16399" d="M404.71,261.3a3.171,3.171,0,0,1-2.535-.975,3.529,3.529,0,0,1-.975-2.632v-.2a4.366,4.366,0,0,1,.39-1.95,3.97,3.97,0,0,1,1.17-1.365,3.367,3.367,0,0,1,1.755-.487,2.89,2.89,0,0,1,2.34.975,3.733,3.733,0,0,1,.877,2.633v.78H403.15a2.224,2.224,0,0,0,.585,1.17,1.554,1.554,0,0,0,1.17.39,2.142,2.142,0,0,0,1.755-.78l.975,1.073a3.9,3.9,0,0,1-1.17.975A5.694,5.694,0,0,1,404.71,261.3Zm-.195-5.947a1.252,1.252,0,0,0-.975.39,2.742,2.742,0,0,0-.487,1.072h2.632v-.195a1.131,1.131,0,0,0-.39-.975C405.2,255.455,404.9,255.357,404.515,255.357Z" transform="translate(-327.198 -250.873)" fill="#24272c"/>
      <path id="Path_16400" data-name="Path 16400" d="M412.995,255.75c-.293,0-.488-.1-.683-.1a1.6,1.6,0,0,0-1.462.78v4.68H408.9V253.9h1.852l.1.878a1.672,1.672,0,0,1,1.56-.975,1.237,1.237,0,0,1,.585.1Z" transform="translate(-327.391 -250.875)" fill="#24272c"/>
    </g>
  </g>
</svg>
