<?xml version="1.0" encoding="UTF-8"?>
<svg width="34px" height="34px" viewBox="0 0 34 34" version="1.1" xmlns="http://www.w3.org/2000/svg" xmlns:xlink="http://www.w3.org/1999/xlink">
    <!-- Generator: Sketch 53.2 (72643) - https://sketchapp.com -->
    <title>Twitter</title>
    <desc>Created with Sketch.</desc>
    <g id="Page-1" stroke="none" stroke-width="1" fill="none" fill-rule="evenodd">
        <g id="twitter-(1)" transform="translate(1.000000, 1.000000)" fill="#FFFFFF" fill-rule="nonzero">
            <path d="M16,0 C7.16479494,0 0,7.16479494 0,16 C0,24.8352051 7.16479494,32 16,32 C24.8352051,32 32,24.8352051 32,16 C32,7.16479494 24.8352051,0 16,0 Z M23.3054199,12.4750976 C23.3125,12.6325684 23.315918,12.7907715 23.315918,12.949707 C23.315918,17.8024902 19.6220703,23.3984375 12.8669434,23.3986816 L12.8671875,23.3986816 L12.8669434,23.3986816 C10.7929688,23.3986816 8.86303712,22.7907715 7.237793,21.7490234 C7.5251465,21.782959 7.81762694,21.7998047 8.1137695,21.7998047 C9.83447263,21.7998047 11.4179688,21.2128906 12.6750488,20.2277832 C11.0673828,20.1979981 9.71191406,19.1362305 9.24414062,17.6770019 C9.46801756,17.7199707 9.69824219,17.7434082 9.93432619,17.7434082 C10.2695312,17.7434082 10.5942383,17.6982422 10.902832,17.6140137 C9.22241212,17.2775879 7.956543,15.7924805 7.956543,14.0141601 C7.956543,13.9975586 7.956543,13.982666 7.95703125,13.9672851 C8.45190431,14.2424316 9.01782225,14.407959 9.62036131,14.4265137 C8.63427737,13.7685547 7.986084,12.6437988 7.986084,11.3696289 C7.986084,10.6967774 8.16796875,10.0664062 8.48339844,9.52368163 C10.2944336,11.7458496 13.0009766,13.2072754 16.0532226,13.3608399 C15.9902344,13.0917969 15.9577637,12.8115234 15.9577637,12.5234375 C15.9577637,10.4960938 17.6025391,8.85131837 19.6306152,8.85131837 C20.6870117,8.85131837 21.6411132,9.29785156 22.3112793,10.0117188 C23.1479492,9.84667969 23.9335938,9.54101562 24.6433106,9.12036131 C24.3686524,9.97753906 23.7866211,10.6967774 23.0283203,11.1516113 C23.7712402,11.0627441 24.4792481,10.8657226 25.137207,10.5732422 C24.6457519,11.3098144 24.0224609,11.9567871 23.3054199,12.4750976 Z" id="Shape"></path>
        </g>
    </g>
</svg>