<svg id="Twitter" xmlns="http://www.w3.org/2000/svg" width="30" height="30" viewBox="0 0 30 30">
  <rect id="Rectangle_1" data-name="Rectangle 1" width="30" height="30" fill="none" opacity="0.3"/>
  <path id="Path_3" data-name="Path 3" d="M7.642,19.748A14.088,14.088,0,0,0,21.826,5.563c0-.216,0-.431-.015-.644A10.133,10.133,0,0,0,24.3,2.338a9.974,9.974,0,0,1-2.863.785A5,5,0,0,0,23.627.365a9.983,9.983,0,0,1-3.165,1.21,4.99,4.99,0,0,0-8.5,4.546A14.152,14.152,0,0,1,1.691.913,4.988,4.988,0,0,0,3.235,7.568,4.942,4.942,0,0,1,.977,6.944c0,.021,0,.042,0,.064a4.988,4.988,0,0,0,4,4.887,4.99,4.99,0,0,1-2.252.085A4.991,4.991,0,0,0,7.38,15.443a10,10,0,0,1-6.192,2.134A10.192,10.192,0,0,1,0,17.508a14.114,14.114,0,0,0,7.642,2.239" transform="translate(3.216 4.65)" fill="rgba(255,255,255,0.8)"/>
</svg>
