<svg xmlns="http://www.w3.org/2000/svg" width="12" height="12" viewBox="0 0 12 12">
  <path id="user_satisfaction" d="M.668,6.5,2.449,7.84,1.773,10a1.671,1.671,0,0,0,.592,1.866,1.549,1.549,0,0,0,1.9-.01l1.741-1.323,1.742,1.322a1.573,1.573,0,0,0,1.9.01A1.7,1.7,0,0,0,10.242,10L9.566,7.84,11.347,6.5a1.7,1.7,0,0,0,.582-1.862A1.62,1.62,0,0,0,10.4,3.485H8.209L7.545,1.348a1.6,1.6,0,0,0-3.075,0L3.806,3.485H1.621A1.62,1.62,0,0,0,.088,4.635,1.7,1.7,0,0,0,.67,6.5Z" transform="translate(-0.008 -0.19)" fill="#24272c"/>
</svg>
