<svg xmlns="http://www.w3.org/2000/svg" width="70" height="70" viewBox="0 0 70 70">
  <g id="usp_4" transform="translate(0 -0.429)">
    <g id="XMLID_463_" transform="translate(0 0.429)">
      <g id="XMLID_464_">
        <g id="XMLID_465_">
          <g id="XMLID_466_">
            <g id="XMLID_467_">
              <g id="XMLID_468_">
                <circle id="Ellipse_16" data-name="Ellipse 16" cx="35" cy="35" r="35" fill="#f7f7f7"/>
              </g>
            </g>
          </g>
        </g>
      </g>
    </g>
    <g id="Group_10739" data-name="Group 10739" transform="translate(13.008 13.437)">
      <g id="Group_10738" data-name="Group 10738">
        <g id="Group_10728" data-name="Group 10728">
          <g id="Group_10724" data-name="Group 10724" transform="translate(0 0)">
            <g id="Group_10723" data-name="Group 10723">
              <g id="XMLID_1259_">
                <g id="XMLID_1260_">
                  <g id="XMLID_1261_">
                    <g id="XMLID_1262_">
                      <g id="XMLID_1263_">
                        <g id="XMLID_1264_">
                          <g id="XMLID_1265_">
                            <g id="XMLID_1266_">
                              <g id="XMLID_1558_">
                                <g id="XMLID_1559_">
                                  <g id="XMLID_1560_">
                                    <g id="XMLID_1561_">
                                      <g id="XMLID_1562_">
                                        <g id="XMLID_1563_">
                                          <g id="XMLID_1564_">
                                            <circle id="Ellipse_17" data-name="Ellipse 17" cx="21.992" cy="21.992" r="21.992" fill="#fede51"/>
                                          </g>
                                        </g>
                                      </g>
                                    </g>
                                  </g>
                                </g>
                              </g>
                            </g>
                          </g>
                        </g>
                      </g>
                    </g>
                  </g>
                </g>
              </g>
            </g>
          </g>
          <g id="Group_10727" data-name="Group 10727" transform="translate(21.992)">
            <g id="Group_10726" data-name="Group 10726">
              <g id="XMLID_1267_">
                <g id="XMLID_1268_">
                  <g id="XMLID_1269_">
                    <g id="XMLID_1270_">
                      <g id="XMLID_1271_">
                        <g id="XMLID_1272_">
                          <g id="XMLID_1328_">
                            <g id="XMLID_1329_">
                              <g id="XMLID_1330_">
                                <g id="XMLID_1331_">
                                  <g id="XMLID_1332_">
                                    <g id="XMLID_1333_">
                                      <g id="XMLID_1334_">
                                        <g id="XMLID_1335_">
                                          <g id="Group_10725" data-name="Group 10725">
                                            <path id="Path_15973" data-name="Path 15973" d="M277.991,98.068A21.992,21.992,0,0,1,256,120.06V76.076A21.992,21.992,0,0,1,277.991,98.068Z" transform="translate(-255.999 -76.076)" fill="#febd4e"/>
                                          </g>
                                        </g>
                                      </g>
                                    </g>
                                  </g>
                                </g>
                              </g>
                            </g>
                          </g>
                        </g>
                      </g>
                    </g>
                  </g>
                </g>
              </g>
            </g>
          </g>
        </g>
        <g id="Group_10729" data-name="Group 10729" transform="translate(11.109 9.07)">
          <circle id="Ellipse_18" data-name="Ellipse 18" cx="3.572" cy="3.572" r="3.572" fill="#7f6866"/>
          <circle id="Ellipse_19" data-name="Ellipse 19" cx="3.572" cy="3.572" r="3.572" transform="translate(15.51)" fill="#634c4c"/>
        </g>
      </g>
      <g id="Group_10730" data-name="Group 10730" transform="translate(9.17 21.748)">
        <path id="Path_15974" data-name="Path 15974" d="M176.144,250a16.556,16.556,0,0,1-.619,4.51,15.657,15.657,0,0,1-1.874,4.2,14.551,14.551,0,0,1-1.393,1.844,12.533,12.533,0,0,1-9.381,4.371,12.863,12.863,0,0,1-10.774-6.215,15.657,15.657,0,0,1-1.874-4.2,16.557,16.557,0,0,1-.618-4.51Z" transform="translate(-149.61 -250)" fill="#7f6866"/>
        <path id="Path_15975" data-name="Path 15975" d="M269.267,250a16.554,16.554,0,0,1-.619,4.51,15.656,15.656,0,0,1-1.874,4.2,14.554,14.554,0,0,1-1.393,1.844A12.533,12.533,0,0,1,256,264.923V250Z" transform="translate(-242.733 -250)" fill="#634c4c"/>
        <path id="Path_15976" data-name="Path 15976" d="M201.5,319.112a12.211,12.211,0,0,1-18.109,0c1.919-1.572,5.257-2.612,9.055-2.612S199.58,317.54,201.5,319.112Z" transform="translate(-179.178 -308.207)" fill="#ff7272"/>
        <path id="Path_15977" data-name="Path 15977" d="M265.055,319.112A12.458,12.458,0,0,1,256,323.13V316.5C259.8,316.5,263.135,317.54,265.055,319.112Z" transform="translate(-242.733 -308.207)" fill="#ff5a5a"/>
        <path id="Path_15978" data-name="Path 15978" d="M176.144,250a16.557,16.557,0,0,1-.619,4.51h-25.3a16.556,16.556,0,0,1-.619-4.51Z" transform="translate(-149.61 -250)" fill="#fff"/>
        <path id="Path_15979" data-name="Path 15979" d="M269.267,250a16.555,16.555,0,0,1-.619,4.51H256V250Z" transform="translate(-242.733 -250)" fill="#efe8e6"/>
      </g>
    </g>
  </g>
</svg>
