<svg id="usp_2" xmlns="http://www.w3.org/2000/svg" width="70" height="70" viewBox="0 0 70 70">
  <circle id="Ellipse_20" data-name="Ellipse 20" cx="35" cy="35" r="35" fill="#f7f7f7"/>
  <g id="rupee" transform="translate(13.047 13.047)">
    <g id="Group_2077" data-name="Group 2077">
      <path id="Path_3698" data-name="Path 3698" d="M43.906,21.953A21.993,21.993,0,1,1,36.815,5.8,21.953,21.953,0,0,1,43.906,21.953Z" fill="#f0cd00"/>
      <path id="Path_3699" data-name="Path 3699" d="M60.511,22.108A21.952,21.952,0,0,1,39.376,44.045a21.953,21.953,0,0,1,0-43.875A21.952,21.952,0,0,1,60.511,22.108Z" transform="translate(-16.606 -0.155)" fill="#ffde50"/>
      <path id="Path_3700" data-name="Path 3700" d="M67.458,36.45,36.44,67.468a22.047,22.047,0,0,1-2.78-3.75L63.709,33.67A21.946,21.946,0,0,1,67.458,36.45Z" transform="translate(-30.644 -30.653)" fill="#ffea94"/>
      <path id="Path_3701" data-name="Path 3701" d="M127.413,98.949,98.948,127.414a21.923,21.923,0,0,1-5.558-3.193L124.221,93.39A21.884,21.884,0,0,1,127.413,98.949Z" transform="translate(-85.022 -85.022)" fill="#ffea94"/>
      <path id="Path_3702" data-name="Path 3702" d="M88.737,71.679a17.058,17.058,0,0,1-34.116.21c0-.07,0-.14,0-.21A17.059,17.059,0,0,1,71.679,54.62c.07,0,.141,0,.211,0a16.979,16.979,0,0,1,9.616,3.111,17.172,17.172,0,0,1,4.7,5A16.976,16.976,0,0,1,88.737,71.679Z" transform="translate(-49.726 -49.726)" fill="#faa300"/>
      <path id="Path_3703" data-name="Path 3703" d="M83.74,59.616,59.616,83.74a17,17,0,0,1-4.995-11.852c0-.07,0-.14,0-.21A17.059,17.059,0,0,1,71.679,54.62c.07,0,.141,0,.211,0a16.979,16.979,0,0,1,9.616,3.111A17.216,17.216,0,0,1,83.74,59.616Z" transform="translate(-49.726 -49.726)" fill="#ffbd00"/>
      <path id="Path_3704" data-name="Path 3704" d="M252.267,71.679a17.059,17.059,0,0,1-17.059,17.059q-.485,0-.963-.027a17.059,17.059,0,0,0,0-34.064q.478-.027.963-.027A17.059,17.059,0,0,1,252.267,71.679Z" transform="translate(-213.256 -49.726)" fill="#f68e00"/>
    </g>
    <path id="Path_3705" data-name="Path 3705" d="M130.4,131.229h-2.987a7.207,7.207,0,0,0-.775-1.876H130.4a1.792,1.792,0,1,0,0-3.584H113.472a1.792,1.792,0,1,0,0,3.584h6.916a3.67,3.67,0,0,1,3.2,1.876H113.472a1.792,1.792,0,1,0,0,3.584h10.115a3.669,3.669,0,0,1-3.2,1.875h-6.917a1.792,1.792,0,0,0-1.3,3.021l9.746,10.345a1.792,1.792,0,0,0,2.609-2.458l-6.9-7.324h2.766a7.264,7.264,0,0,0,7.027-5.46H130.4a1.792,1.792,0,1,0,0-3.584Z" transform="translate(-101.673 -114.5)" fill="#f68e00"/>
    <path id="Path_3706" data-name="Path 3706" d="M155.4,131.229h-2.987a7.207,7.207,0,0,0-.775-1.876H155.4a1.792,1.792,0,0,0,0-3.584H138.474a1.792,1.792,0,0,0,0,3.584h6.917a3.67,3.67,0,0,1,3.2,1.876H138.474a1.792,1.792,0,1,0,0,3.584h10.115a3.669,3.669,0,0,1-3.2,1.875h-6.917a1.792,1.792,0,0,0-1.3,3.021l9.746,10.345a1.792,1.792,0,0,0,2.609-2.458l-6.9-7.324h2.766a7.264,7.264,0,0,0,7.027-5.46h2.987a1.792,1.792,0,1,0,0-3.584Z" transform="translate(-124.435 -114.5)" fill="#ffea94"/>
  </g>
</svg>
