<svg xmlns="http://www.w3.org/2000/svg" xmlns:xlink="http://www.w3.org/1999/xlink" width="30" height="30" viewBox="0 0 30 30">
  <defs>
    <clipPath id="clip-path">
      <rect id="Rectangle_33" data-name="Rectangle 33" width="24" height="24" transform="translate(372 12)" fill="#24272c"/>
    </clipPath>
  </defs>
  <g id="videos" transform="translate(-369 -9)">
    <rect id="Rectangle_32" data-name="Rectangle 32" width="30" height="30" transform="translate(369 9)" fill="none"/>
    <g id="Mask_Group_8" data-name="Mask Group 8" clip-path="url(#clip-path)">
      <path id="video_library_FILL1_wght400_GRAD0_opsz24" d="M13.8,17.4,22.2,12,13.8,6.6ZM9.6,21.6a2.407,2.407,0,0,1-2.4-2.4V4.8a2.312,2.312,0,0,1,.706-1.7A2.31,2.31,0,0,1,9.6,2.4H24a2.314,2.314,0,0,1,1.7.7,2.314,2.314,0,0,1,.7,1.7V19.2A2.4,2.4,0,0,1,24,21.6ZM4.8,26.4a2.31,2.31,0,0,1-1.694-.7A2.312,2.312,0,0,1,2.4,24V7.2H4.8V24H21.6v2.4Z" transform="translate(369.6 9.6)" fill="#24272c"/>
    </g>
  </g>
</svg>
