<svg xmlns="http://www.w3.org/2000/svg" width="14.5" height="14.498" viewBox="0 0 14.5 14.498">
  <g id="Layer_2" data-name="Layer 2" transform="translate(-1 -1)">
    <path id="Path_16186" data-name="Path 16186" d="M14.413,25.3H12.566a1.645,1.645,0,0,0-3.216,0H1.482a.52.52,0,0,0,0,1.037h7.87a1.645,1.645,0,0,0,3.214,0h1.846a.52.52,0,0,0,0-1.037Zm-3.453,1.3a.78.78,0,1,1,.723-.778A.752.752,0,0,1,10.96,26.591Z" transform="translate(0 -12.128)" fill="#66686c"/>
    <path id="Path_16187" data-name="Path 16187" d="M13.982,1H2.518A1.5,1.5,0,0,0,1,2.478v7.4a1.5,1.5,0,0,0,1.518,1.478H13.982A1.5,1.5,0,0,0,15.5,9.875v-7.4A1.5,1.5,0,0,0,13.982,1Zm.551,8.875a.544.544,0,0,1-.551.536H2.518a.544.544,0,0,1-.551-.536v-7.4a.544.544,0,0,1,.551-.536H13.982a.544.544,0,0,1,.551.536Z" fill="#66686c"/>
    <path id="Path_16188" data-name="Path 16188" d="M16.94,8.671,12.793,6.079a.518.518,0,0,0-.793.44V11.7a.518.518,0,0,0,.793.44L16.94,9.55a.518.518,0,0,0,0-.881Zm-3.9,2.1V7.451L15.687,9.11Z" transform="translate(-5.876 -2.7)" fill="#66686c"/>
  </g>
</svg>
