<svg id="wallet" xmlns="http://www.w3.org/2000/svg" width="24" height="24" viewBox="0 0 24 24">
  <rect id="Rectangle_41" data-name="Rectangle 41" width="24" height="24" fill="none"/>
  <g id="wallet_2_" data-name="wallet (2)" transform="translate(2 3.826)">
    <path id="Path_3657" data-name="Path 3657" d="M1.5,83H16.481a1.5,1.5,0,0,1,1.5,1.5v1.8a1.5,1.5,0,0,1-1.5,1.5H1.5A1.5,1.5,0,0,1,0,86.3V84.5A1.5,1.5,0,0,1,1.5,83Z" transform="translate(0 -80.88)" fill="#a86a3f"/>
    <path id="Path_3658" data-name="Path 3658" d="M54.032,61.694l9.379-2.487a.6.6,0,0,1,.734.42L65.7,65.38a.6.6,0,0,1-.42.734L53.073,69.365a.6.6,0,0,1-.734-.42L51.2,64.721Z" transform="translate(-49.252 -57.971)" fill="#3db39e"/>
    <path id="Path_3659" data-name="Path 3659" d="M89.542,100.32l-2.023.539a.294.294,0,1,1-.15-.569l1.738-.464-.929-3.476-1.738.464a.294.294,0,1,1-.15-.569l2.023-.539a.279.279,0,0,1,.36.21l1.079,4.045A.279.279,0,0,1,89.542,100.32Zm-8.39,2.262-2.023.539a.279.279,0,0,1-.36-.21L77.69,98.867a.279.279,0,0,1,.21-.36l2.023-.539a.294.294,0,0,1,.15.569L78.335,99l.929,3.476L81,102.013a.279.279,0,0,1,.36.21A.291.291,0,0,1,81.151,102.582Z" transform="translate(-74.724 -93.091)" fill="#78cabb"/>
    <path id="Path_3660" data-name="Path 3660" d="M2.771,33.1c2.667-1.528,9.859-5.738,9.859-5.738a.605.605,0,0,1,.824.21l3,5.154a.593.593,0,0,1-.225.809L5.258,39.825a.605.605,0,0,1-.824-.21S3.6,37.907,2.756,36.469C2.756,33.1,2.771,34.206,2.771,33.1Z" transform="translate(-2.651 -27.277)" fill="#5abeac"/>
    <path id="Path_3661" data-name="Path 3661" d="M19.061,70.6l-2.1-3.626a.285.285,0,0,0-.4-.1l-1.813,1.049a.3.3,0,1,0,.3.509l1.558-.9,1.8,3.116-1.558.9a.3.3,0,0,0,.3.509L18.956,71A.29.29,0,0,0,19.061,70.6Zm-7.941,4.24-1.558.9-1.8-3.116,1.558-.9a.3.3,0,0,0-.3-.509L7.21,72.261a.285.285,0,0,0-.1.4l2.1,3.626a.285.285,0,0,0,.4.1l1.813-1.049a.285.285,0,0,0,.1-.4A.29.29,0,0,0,11.12,74.838Zm.764-5.289a2.4,2.4,0,1,0,3.281.884A2.4,2.4,0,0,0,11.884,69.549ZM19.061,70.6l-2.1-3.626a.285.285,0,0,0-.4-.1l-1.813,1.049a.3.3,0,1,0,.3.509l1.558-.9,1.8,3.116-1.558.9a.3.3,0,0,0,.3.509L18.956,71A.29.29,0,0,0,19.061,70.6Zm-7.941,4.24-1.558.9-1.8-3.116,1.558-.9a.3.3,0,0,0-.3-.509L7.21,72.261a.285.285,0,0,0-.1.4l2.1,3.626a.285.285,0,0,0,.4.1l1.813-1.049a.285.285,0,0,0,.1-.4A.29.29,0,0,0,11.12,74.838Zm.764-5.289a2.4,2.4,0,1,0,3.281.884A2.4,2.4,0,0,0,11.884,69.549Z" transform="translate(-6.79 -65.316)" fill="#8cd2c5"/>
    <path id="Path_3662" data-name="Path 3662" d="M17.08,135.869H1.5a1.5,1.5,0,0,1-1.5-1.5V123.583H17.08a1.5,1.5,0,0,1,1.5,1.5v9.289A1.5,1.5,0,0,1,17.08,135.869ZM1.2,123.583H0v-1.2A1.2,1.2,0,0,0,1.2,123.583Z" transform="translate(0 -118.766)" fill="#c47e4d"/>
    <path id="Path_3663" data-name="Path 3663" d="M374.711,272.3h-2.4a2.1,2.1,0,0,1,0-4.2h2.4a.6.6,0,0,1,.6.6v3A.6.6,0,0,1,374.711,272.3Z" transform="translate(-356.132 -258.946)" fill="#a86a3f"/>
    <path id="Path_3664" data-name="Path 3664" d="M395.045,291.738a1.2,1.2,0,1,1-1.2,1.2A1.2,1.2,0,0,1,395.045,291.738Z" transform="translate(-378.863 -281.677)" fill="#efc75e"/>
    <path id="Path_3665" data-name="Path 3665" d="M395.344,299.139a1.208,1.208,0,0,1-.989-1.888,1.167,1.167,0,0,0-.509.989,1.2,1.2,0,0,0,1.2,1.2,1.248,1.248,0,0,0,.989-.509A1.208,1.208,0,0,1,395.344,299.139Z" transform="translate(-378.863 -286.981)" fill="#d7b354"/>
    <path id="Path_3666" data-name="Path 3666" d="M17.08,423.205H1.5a1.5,1.5,0,0,1-1.5-1.5v.6a1.5,1.5,0,0,0,1.5,1.5H17.08a1.5,1.5,0,0,0,1.5-1.5v-.6A1.5,1.5,0,0,1,17.08,423.205Z" transform="translate(0 -406.702)" fill="#b27245"/>
    <path id="Path_3667" data-name="Path 3667" d="M17.08,123.583H1.2a1.2,1.2,0,0,1-1.2-1.2v.6a1.2,1.2,0,0,0,1.2,1.2H17.08a1.5,1.5,0,0,1,1.5,1.5v-.6A1.5,1.5,0,0,0,17.08,123.583Z" transform="translate(0 -118.766)" fill="#ca8b5f"/>
  </g>
</svg>
