<?xml version="1.0" encoding="utf-8"?>
<!-- Generator: Adobe Illustrator 23.1.1, SVG Export Plug-In . SVG Version: 6.00 Build 0)  -->
<svg version="1.1" id="Layer_1" xmlns="http://www.w3.org/2000/svg" xmlns:xlink="http://www.w3.org/1999/xlink" x="0px" y="0px"
	 viewBox="0 0 266 68" style="enable-background:new 0 0 266 68;" xml:space="preserve">
<style type="text/css">
	.st0{fill:#F4A86F;}
	.st1{fill:#F2796E;}
	.st2{fill:#6186BD;}
	.st3{fill:#D57FB3;}
	.st4{fill:#00A9DA;}
	.st5{fill:#D5E27E;}
	.st6{fill:#FFFFFF;}
</style>
<title>white_cp copy 7</title>
<desc>Created with Sketch.</desc>
<g id="white_cp-copy-7">
	<g id="tj-ems" transform="translate(2.000000, 2.000000)">
		<g id="tj-logo-04" transform="translate(2.000000, 8.000000)">
			<path id="Shape" class="st0" d="M29.9,27.7l-1.5-1.4l-1.6-1.6c-0.5-0.5-1.3-0.6-1.9-0.2c-0.1,0.1-0.2,0.1-0.3,0.2
				c-0.1,0.1-0.1,0.1-0.2,0.2c-0.4,0.6-0.3,1.3,0.1,1.8l0.1,0.1l3.1,3c0.6,0.6,1.5,0.6,2.1,0c0.3-0.3,0.4-0.7,0.4-1.1
				S30.2,28,29.9,27.7z M29.9,27.7l-1.5-1.4l-1.6-1.6c-0.5-0.5-1.3-0.6-1.9-0.2c-0.1,0.1-0.2,0.1-0.3,0.2c-0.1,0.1-0.1,0.1-0.2,0.2
				c-0.4,0.6-0.3,1.3,0.1,1.8l0.1,0.1l3.1,3c0.6,0.6,1.5,0.6,2.1,0c0.3-0.3,0.4-0.7,0.4-1.1S30.2,28,29.9,27.7z M29.9,27.7l-1.5-1.4
				l-1.6-1.6c-0.5-0.5-1.3-0.6-1.9-0.2c-0.1,0.1-0.2,0.1-0.3,0.2c-0.1,0.1-0.1,0.1-0.2,0.2c-0.4,0.6-0.3,1.3,0.1,1.8l0.1,0.1l3.1,3
				c0.6,0.6,1.5,0.6,2.1,0c0.3-0.3,0.4-0.7,0.4-1.1S30.2,28,29.9,27.7z M29.9,27.7l-1.5-1.4l-1.6-1.6c-0.5-0.5-1.3-0.6-1.9-0.2
				c-0.1,0.1-0.2,0.1-0.3,0.2c-0.1,0.1-0.1,0.1-0.2,0.2c-0.4,0.6-0.3,1.3,0.1,1.8l0.1,0.1l3.1,3c0.6,0.6,1.5,0.6,2.1,0
				c0.3-0.3,0.4-0.7,0.4-1.1S30.2,28,29.9,27.7z M29.9,27.7l-1.5-1.4l-1.6-1.6c-0.5-0.5-1.3-0.6-1.9-0.2c-0.1,0.1-0.2,0.1-0.3,0.2
				c-0.1,0.1-0.1,0.1-0.2,0.2c-0.4,0.6-0.3,1.3,0.1,1.8l0.1,0.1l3.1,3c0.6,0.6,1.5,0.6,2.1,0c0.3-0.3,0.4-0.7,0.4-1.1
				S30.2,28,29.9,27.7z M43.5,34.1c-0.4,0.8-0.9,1.5-1.3,2.3c0,0,0,0,0,0l0,0c-0.3,0.6-0.9,1-1.6,1.1c-0.5,0.1-1-0.1-1.4-0.5l-4-4
				c1.6-1.7,2.5-4,2.5-6.4c0-2.6-1-5-2.8-6.7l-1.6-1.6l0,0l-4.1-4.1c-1.8-1.8-4.3-2.8-6.8-2.8c-2.5,0-5,1-6.8,2.8L14,15.6
				c-0.7,0.7-1.3,1.5-1.7,2.4l0,0c-0.7,1.3-1.1,2.8-1.1,4.4c0,2.6,1,5,2.8,6.7l1.5,1.5l4.3,4.2c1.5,1.5,3.5,2.5,5.6,2.7
				c0.4,0,0.8,0.1,1.2,0.1c2.4,0,4.7-0.9,6.5-2.5l4,4c0.9,0.9,2.1,1.4,3.4,1.4c0.2,0,0.3,0,0.5,0c1.5-0.2,2.9-1,3.7-2.4l0,0l0,0
				c0,0,0,0,0,0l0,0c0.5-0.8,1-1.7,1.5-2.5L43.5,34.1z M34.1,29.2c-0.3,0.7-0.8,1.4-1.4,1.9l-1.5,1.5c-1.6,1.6-3.9,2.2-6,1.8
				c-1.2-0.3-2.4-0.9-3.3-1.8L18,28.8L16.2,27c-1.2-1.2-1.9-2.9-1.9-4.7c0-1,0.2-2.1,0.7-3l0,0c0.3-0.6,0.7-1.2,1.2-1.6l1.5-1.5
				c1.7-1.6,4-2.3,6.3-1.7c1.2,0.3,2.2,0.9,3.1,1.7l3.8,3.7l2,2C34.7,23.8,35.3,26.8,34.1,29.2L34.1,29.2z M28.5,26.3l-1.6-1.6
				c-0.5-0.5-1.3-0.6-1.9-0.2c-0.1,0.1-0.2,0.1-0.3,0.2c-0.1,0.1-0.1,0.1-0.2,0.2c-0.4,0.6-0.3,1.3,0.1,1.8l0.1,0.1l3.1,3
				c0.6,0.6,1.5,0.6,2.1,0c0.3-0.3,0.4-0.7,0.4-1.1s-0.2-0.8-0.4-1.1L28.5,26.3z M29.9,27.7l-1.5-1.4l-1.6-1.6
				c-0.5-0.5-1.3-0.6-1.9-0.2c-0.1,0.1-0.2,0.1-0.3,0.2c-0.1,0.1-0.1,0.1-0.2,0.2c-0.4,0.6-0.3,1.3,0.1,1.8l0.1,0.1l3.1,3
				c0.6,0.6,1.5,0.6,2.1,0c0.3-0.3,0.4-0.7,0.4-1.1S30.2,28,29.9,27.7z M29.9,27.7l-1.5-1.4l-1.6-1.6c-0.5-0.5-1.3-0.6-1.9-0.2
				c-0.1,0.1-0.2,0.1-0.3,0.2c-0.1,0.1-0.1,0.1-0.2,0.2c-0.4,0.6-0.3,1.3,0.1,1.8l0.1,0.1l3.1,3c0.6,0.6,1.5,0.6,2.1,0
				c0.3-0.3,0.4-0.7,0.4-1.1S30.2,28,29.9,27.7z M29.9,27.7l-1.5-1.4l-1.6-1.6c-0.5-0.5-1.3-0.6-1.9-0.2c-0.1,0.1-0.2,0.1-0.3,0.2
				c-0.1,0.1-0.1,0.1-0.2,0.2c-0.4,0.6-0.3,1.3,0.1,1.8l0.1,0.1l3.1,3c0.6,0.6,1.5,0.6,2.1,0c0.3-0.3,0.4-0.7,0.4-1.1
				S30.2,28,29.9,27.7z M29.9,27.7l-1.5-1.4l-1.6-1.6c-0.5-0.5-1.3-0.6-1.9-0.2c-0.1,0.1-0.2,0.1-0.3,0.2c-0.1,0.1-0.1,0.1-0.2,0.2
				c-0.4,0.6-0.3,1.3,0.1,1.8l0.1,0.1l3.1,3c0.6,0.6,1.5,0.6,2.1,0c0.3-0.3,0.4-0.7,0.4-1.1S30.2,28,29.9,27.7z M29.9,27.7l-1.5-1.4
				l-1.6-1.6c-0.5-0.5-1.3-0.6-1.9-0.2c-0.1,0.1-0.2,0.1-0.3,0.2c-0.1,0.1-0.1,0.1-0.2,0.2c-0.4,0.6-0.3,1.3,0.1,1.8l0.1,0.1l3.1,3
				c0.6,0.6,1.5,0.6,2.1,0c0.3-0.3,0.4-0.7,0.4-1.1S30.2,28,29.9,27.7z"/>
			<path id="Path" class="st1" d="M46.2,35.5l-2.7-1.4c2.2-4.2,2.9-9,2-13.7c-0.6-3-1.8-5.8-3.6-8.3l2.5-1.7c2,2.8,3.4,6,4,9.4
				C49.5,25.2,48.7,30.7,46.2,35.5L46.2,35.5z"/>
			<path class="st2" d="M44.4,10.5L42,12.2c-4.2-5.9-11.2-9.4-18.7-9l-0.2-3C31.6-0.3,39.7,3.8,44.4,10.5z"/>
			<path class="st3" d="M23.2,3.2c-0.9,0.1-1.9,0.2-2.8,0.4C14.1,4.7,8.7,8.7,5.5,14.5l-2.7-1.4c3.6-6.6,9.8-11.2,17-12.5
				c1.1-0.2,2.1-0.3,3.2-0.4L23.2,3.2z"/>
			<path class="st4" d="M6.9,36.6l-2.4,1.7c-2-2.8-3.3-5.9-3.9-9.3c-1-5.4-0.2-11,2.4-15.9l2.7,1.4c-2.3,4.2-3,9.2-2.1,13.9
				C4,31.4,5.1,34.1,6.9,36.6L6.9,36.6z"/>
			<path class="st5" d="M26,47.2c0,0.4-0.2,0.8-0.5,1.1c-0.3,0.3-0.7,0.4-1.1,0.4c-8.2,0-15.6-4.1-20-10.4l2.4-1.7
				c4.1,5.8,10.7,9.2,17.6,9.1h0c0.4,0,0.8,0.1,1,0.4S25.9,46.8,26,47.2z"/>
		</g>
		<polygon id="Line" class="st6" points="62,8 66,8 66,57 62,57 		"/>
		<g id="Group" transform="translate(75.000000, 0.000000)">
			<path id="TechBandhu" class="st6" d="M18.8,33.7V38h-6.6v19H6.9V38H0.3v-4.3H18.8z M25,40.2c1.1,0,2.1,0.2,3,0.5s1.7,0.8,2.4,1.5
				c0.7,0.7,1.2,1.4,1.5,2.4c0.4,0.9,0.6,2,0.6,3.2c0,0.4,0,0.7,0,0.9c0,0.2-0.1,0.4-0.2,0.6c-0.1,0.1-0.2,0.2-0.3,0.3
				c-0.1,0.1-0.3,0.1-0.6,0.1h-9.6c0.2,1.4,0.6,2.4,1.3,3c0.7,0.6,1.6,0.9,2.6,0.9c0.6,0,1.1-0.1,1.5-0.2c0.4-0.1,0.8-0.3,1.1-0.5
				l0.9-0.5l0,0c0.3-0.1,0.6-0.2,0.9-0.2c0.3,0,0.6,0.1,0.8,0.3l1.5,1.9c-0.5,0.6-1.1,1.1-1.7,1.4c-0.6,0.4-1.2,0.7-1.8,0.9
				c-0.6,0.2-1.2,0.4-1.9,0.4c-0.6,0.1-1.2,0.1-1.8,0.1c-1.2,0-2.3-0.2-3.3-0.6c-1-0.4-1.9-0.9-2.7-1.7s-1.4-1.7-1.8-2.8
				c-0.4-1.1-0.7-2.4-0.7-3.9c0-1.1,0.2-2.2,0.6-3.2c0.4-1,0.9-1.9,1.6-2.6s1.6-1.3,2.6-1.8S23.7,40.2,25,40.2z M25.1,43.6
				c-0.9,0-1.7,0.3-2.2,0.8c-0.5,0.5-0.9,1.3-1.1,2.3H28c0-0.4-0.1-0.8-0.2-1.2c-0.1-0.4-0.3-0.7-0.5-1c-0.2-0.3-0.5-0.5-0.9-0.7
				S25.6,43.6,25.1,43.6z M47.3,44.3c-0.1,0.2-0.3,0.3-0.4,0.4s-0.3,0.2-0.6,0.2c-0.2,0-0.5-0.1-0.7-0.2l-0.7-0.4l0,0
				c-0.2-0.1-0.5-0.3-0.9-0.4c-0.3-0.1-0.7-0.2-1.2-0.2c-0.6,0-1.1,0.1-1.6,0.3c-0.4,0.2-0.8,0.5-1.1,1c-0.3,0.4-0.5,0.9-0.6,1.5
				c-0.1,0.6-0.2,1.3-0.2,2c0,1.6,0.3,2.8,0.9,3.7c0.6,0.9,1.5,1.3,2.5,1.3c0.6,0,1-0.1,1.4-0.2c0.3-0.1,0.6-0.3,0.9-0.5l0.6-0.5
				l0,0c0.2-0.1,0.4-0.2,0.7-0.2c0.3,0,0.6,0.1,0.8,0.3l1.5,1.9c-0.5,0.6-1.1,1.1-1.6,1.4c-0.6,0.4-1.1,0.7-1.7,0.9
				c-0.6,0.2-1.2,0.4-1.8,0.4c-0.6,0.1-1.2,0.1-1.7,0.1c-1,0-2-0.2-2.9-0.6c-0.9-0.4-1.7-0.9-2.4-1.7s-1.3-1.6-1.7-2.7
				c-0.4-1.1-0.6-2.3-0.6-3.6c0-1.2,0.2-2.3,0.5-3.4s0.9-1.9,1.6-2.7c0.7-0.8,1.6-1.4,2.6-1.8c1-0.4,2.2-0.7,3.6-0.7
				c1.3,0,2.4,0.2,3.4,0.6c1,0.4,1.9,1,2.7,1.8L47.3,44.3z M50.8,57V33h5v8.8c0.6-0.5,1.2-0.9,1.9-1.2c0.7-0.3,1.5-0.5,2.5-0.5
				c0.9,0,1.7,0.2,2.4,0.5c0.7,0.3,1.3,0.8,1.8,1.3c0.5,0.6,0.8,1.2,1.1,2c0.2,0.8,0.4,1.6,0.4,2.5V57h-5V46.5
				c0-0.8-0.2-1.4-0.6-1.9c-0.4-0.5-0.9-0.7-1.6-0.7c-0.5,0-1.1,0.1-1.5,0.4c-0.5,0.2-0.9,0.5-1.4,0.9V57H50.8z M75.6,57V33.7h8.6
				c1.6,0,3,0.1,4.1,0.4c1.1,0.3,2.1,0.7,2.8,1.3s1.2,1.2,1.6,2c0.3,0.8,0.5,1.6,0.5,2.6c0,0.5-0.1,1-0.2,1.5
				c-0.1,0.5-0.4,0.9-0.7,1.4c-0.3,0.4-0.7,0.8-1.2,1.2s-1.1,0.6-1.8,0.9c1.5,0.4,2.7,1,3.4,1.8s1.1,1.9,1.1,3.2
				c0,1-0.2,1.9-0.6,2.8s-0.9,1.6-1.7,2.2c-0.7,0.6-1.7,1.1-2.7,1.5S86.3,57,84.9,57H75.6z M81,47.1v5.8h3.8c0.7,0,1.3-0.1,1.8-0.3
				c0.5-0.2,0.8-0.4,1.1-0.7c0.3-0.3,0.4-0.6,0.5-1c0.1-0.4,0.1-0.7,0.1-1.1c0-0.4-0.1-0.8-0.2-1.2c-0.1-0.3-0.3-0.6-0.6-0.9
				s-0.6-0.4-1.1-0.5c-0.4-0.1-1-0.2-1.7-0.2H81z M81,43.5h2.8c0.6,0,1.1,0,1.6-0.1c0.5-0.1,0.9-0.2,1.2-0.4
				c0.3-0.2,0.6-0.5,0.8-0.9c0.2-0.4,0.3-0.8,0.3-1.4c0-0.6-0.1-1-0.2-1.4c-0.1-0.4-0.4-0.7-0.6-0.9c-0.3-0.2-0.7-0.4-1.1-0.5
				c-0.4-0.1-1-0.1-1.6-0.1H81V43.5z M108,57c-0.5,0-0.8-0.1-1.1-0.2c-0.2-0.1-0.4-0.4-0.6-0.8l-0.4-0.9c-0.4,0.4-0.8,0.7-1.2,0.9
				c-0.4,0.3-0.8,0.5-1.2,0.7c-0.4,0.2-0.8,0.3-1.3,0.4c-0.5,0.1-1,0.1-1.5,0.1c-0.8,0-1.4-0.1-2.1-0.3c-0.6-0.2-1.1-0.5-1.6-0.9
				c-0.4-0.4-0.8-0.9-1-1.4c-0.2-0.6-0.4-1.2-0.4-2c0-0.6,0.1-1.2,0.4-1.8c0.3-0.6,0.8-1.2,1.6-1.7c0.7-0.5,1.7-0.9,3-1.3
				s2.8-0.5,4.7-0.6v-0.7c0-1-0.2-1.7-0.6-2.1s-1-0.6-1.7-0.6c-0.6,0-1.1,0.1-1.4,0.2c-0.3,0.1-0.5,0.2-0.8,0.3l-0.2,0.1
				c-0.3,0.2-0.6,0.3-0.9,0.4c-0.3,0.1-0.6,0.2-1,0.2c-0.3,0-0.6-0.1-0.9-0.2c-0.2-0.2-0.4-0.4-0.6-0.6l-0.9-1.6
				c1-0.9,2.1-1.5,3.3-2c1.2-0.4,2.5-0.6,3.9-0.6c1,0,1.9,0.2,2.7,0.5c0.8,0.3,1.5,0.8,2,1.4s1,1.3,1.3,2.1s0.4,1.7,0.4,2.6V57H108z
				 M102.3,54c0.6,0,1.2-0.1,1.7-0.3c0.5-0.2,1-0.6,1.5-1.1v-2.3c-1,0-1.8,0.1-2.4,0.3c-0.6,0.1-1.1,0.3-1.5,0.5
				c-0.4,0.2-0.6,0.4-0.8,0.7c-0.1,0.2-0.2,0.5-0.2,0.8c0,0.6,0.2,1,0.5,1.2S101.7,54,102.3,54z M113.8,57V40.4h3.1
				c0.3,0,0.6,0.1,0.8,0.2s0.4,0.3,0.4,0.6l0.3,1c0.3-0.3,0.7-0.6,1-0.8c0.3-0.3,0.7-0.5,1.1-0.6c0.4-0.2,0.8-0.3,1.3-0.4
				s0.9-0.2,1.5-0.2c0.9,0,1.7,0.2,2.4,0.5c0.7,0.3,1.3,0.8,1.8,1.3c0.5,0.6,0.8,1.2,1.1,2c0.2,0.8,0.4,1.6,0.4,2.5V57h-5V46.5
				c0-0.8-0.2-1.4-0.6-1.9c-0.4-0.5-0.9-0.7-1.6-0.7c-0.5,0-1.1,0.1-1.5,0.4c-0.5,0.2-0.9,0.5-1.4,0.9V57H113.8z M144,57
				c-0.3,0-0.6-0.1-0.8-0.2c-0.2-0.1-0.4-0.3-0.4-0.6l-0.4-1.3c-0.3,0.4-0.7,0.7-1,1c-0.4,0.3-0.8,0.5-1.2,0.7
				c-0.4,0.2-0.9,0.4-1.4,0.5c-0.5,0.1-1,0.2-1.6,0.2c-0.9,0-1.7-0.2-2.4-0.6c-0.7-0.4-1.4-0.9-1.9-1.7c-0.5-0.7-1-1.6-1.3-2.7
				c-0.3-1.1-0.5-2.2-0.5-3.6c0-1.2,0.2-2.4,0.5-3.4c0.3-1.1,0.8-2,1.4-2.8c0.6-0.8,1.4-1.4,2.2-1.8s1.8-0.7,2.9-0.7
				c0.9,0,1.6,0.1,2.2,0.4c0.6,0.3,1.1,0.6,1.6,1V33h5v24H144z M139,53.4c0.4,0,0.7,0,1-0.1c0.3-0.1,0.6-0.2,0.8-0.3
				s0.5-0.3,0.7-0.5c0.2-0.2,0.4-0.4,0.6-0.7v-7c-0.4-0.4-0.8-0.7-1.2-0.9c-0.4-0.2-0.9-0.2-1.4-0.2c-0.5,0-0.9,0.1-1.3,0.3
				s-0.7,0.5-1,0.9s-0.5,0.9-0.7,1.6c-0.2,0.6-0.2,1.4-0.2,2.3c0,0.9,0.1,1.6,0.2,2.2c0.1,0.6,0.3,1.1,0.5,1.4
				c0.2,0.4,0.5,0.6,0.8,0.8C138.3,53.4,138.6,53.4,139,53.4z M150.9,57V33h5v8.8c0.6-0.5,1.2-0.9,1.9-1.2c0.7-0.3,1.5-0.5,2.5-0.5
				c0.9,0,1.7,0.2,2.4,0.5c0.7,0.3,1.3,0.8,1.8,1.3c0.5,0.6,0.8,1.2,1.1,2c0.2,0.8,0.4,1.6,0.4,2.5V57h-5V46.5
				c0-0.8-0.2-1.4-0.6-1.9c-0.4-0.5-0.9-0.7-1.6-0.7c-0.5,0-1.1,0.1-1.5,0.4c-0.5,0.2-0.9,0.5-1.4,0.9V57H150.9z M174.1,40.4v10.5
				c0,0.8,0.2,1.5,0.6,1.9s0.9,0.7,1.6,0.7c0.5,0,1.1-0.1,1.5-0.3c0.5-0.2,0.9-0.5,1.4-0.9V40.4h5V57h-3.1c-0.6,0-1-0.3-1.2-0.8
				l-0.3-1c-0.3,0.3-0.7,0.6-1,0.8s-0.7,0.5-1.1,0.6c-0.4,0.2-0.8,0.3-1.3,0.4c-0.4,0.1-0.9,0.2-1.5,0.2c-0.9,0-1.7-0.2-2.4-0.5
				s-1.3-0.8-1.8-1.3c-0.5-0.6-0.8-1.2-1.1-2c-0.2-0.8-0.4-1.6-0.4-2.5V40.4H174.1z"/>
			<path id="techjockey" class="st6" d="M5.4,24.2c-1,0-1.7-0.3-2.2-0.8s-0.8-1.3-0.8-2.3v-7.4H1c-0.1,0-0.2,0-0.3-0.1
				c-0.1-0.1-0.1-0.2-0.1-0.4v-0.9l2-0.3L3,8.3C3,8.2,3.1,8.1,3.2,8c0.1-0.1,0.2-0.1,0.3-0.1h1.1v4.2h3.5v1.5H4.6v7.3
				c0,0.5,0.1,0.9,0.4,1.1c0.2,0.2,0.6,0.4,1,0.4c0.2,0,0.4,0,0.6-0.1c0.2-0.1,0.3-0.1,0.4-0.2L7.1,22l0,0L7.2,22
				c0.1-0.1,0.2-0.1,0.2-0.1c0.1,0,0.2,0.1,0.3,0.2l0.6,1C8,23.4,7.6,23.7,7,23.9S6,24.2,5.4,24.2z M15.5,11.7c0.7,0,1.4,0.1,2,0.4
				c0.6,0.2,1.1,0.6,1.6,1.1c0.4,0.5,0.8,1,1,1.7c0.3,0.7,0.4,1.4,0.4,2.3c0,0.3,0,0.6-0.1,0.7c-0.1,0.1-0.2,0.2-0.4,0.2H12
				c0,0.8,0.1,1.4,0.3,2s0.5,1,0.8,1.4c0.3,0.4,0.7,0.7,1.2,0.9c0.5,0.2,1,0.3,1.6,0.3c0.5,0,1-0.1,1.4-0.2s0.7-0.3,1-0.4
				c0.3-0.1,0.5-0.3,0.7-0.4s0.3-0.2,0.5-0.2c0.2,0,0.3,0.1,0.4,0.2l0.6,0.8c-0.3,0.3-0.6,0.6-0.9,0.8c-0.4,0.2-0.8,0.4-1.2,0.6
				S17.4,24,17,24.1c-0.4,0.1-0.9,0.1-1.3,0.1c-0.8,0-1.6-0.1-2.3-0.4c-0.7-0.3-1.3-0.7-1.8-1.2c-0.5-0.5-0.9-1.2-1.2-2
				c-0.3-0.8-0.4-1.7-0.4-2.8c0-0.8,0.1-1.6,0.4-2.4c0.3-0.7,0.6-1.4,1.1-1.9c0.5-0.5,1.1-1,1.8-1.3C13.8,11.8,14.6,11.7,15.5,11.7z
				 M15.6,13.2c-1,0-1.8,0.3-2.4,0.9s-1,1.4-1.1,2.5h6.6c0-0.5-0.1-0.9-0.2-1.4c-0.1-0.4-0.3-0.8-0.6-1.1c-0.3-0.3-0.6-0.5-1-0.7
				C16.5,13.3,16.1,13.2,15.6,13.2z M31.6,14c-0.1,0.1-0.1,0.2-0.2,0.2c-0.1,0-0.2,0.1-0.3,0.1s-0.2,0-0.4-0.1
				c-0.1-0.1-0.3-0.2-0.5-0.3s-0.5-0.2-0.8-0.3c-0.3-0.1-0.7-0.2-1.1-0.2c-0.6,0-1.1,0.1-1.6,0.3c-0.5,0.2-0.8,0.5-1.1,0.9
				C25.2,15,25,15.4,24.8,16c-0.2,0.6-0.2,1.2-0.2,1.9c0,0.7,0.1,1.4,0.3,2s0.4,1.1,0.7,1.4c0.3,0.4,0.7,0.7,1.1,0.9
				c0.4,0.2,0.9,0.3,1.5,0.3c0.5,0,0.9-0.1,1.3-0.2c0.3-0.1,0.6-0.3,0.8-0.4c0.2-0.2,0.4-0.3,0.6-0.4c0.1-0.1,0.3-0.2,0.4-0.2
				c0.1,0,0.3,0,0.3,0.1l0.7,0.9c-0.5,0.6-1.2,1.1-2,1.4s-1.6,0.4-2.5,0.4c-0.8,0-1.5-0.1-2.1-0.4c-0.7-0.3-1.2-0.7-1.7-1.2
				c-0.5-0.5-0.9-1.2-1.1-2c-0.3-0.8-0.4-1.7-0.4-2.7c0-0.9,0.1-1.7,0.4-2.5c0.3-0.8,0.6-1.4,1.1-2c0.5-0.6,1.1-1,1.8-1.3
				c0.7-0.3,1.5-0.5,2.4-0.5c0.8,0,1.6,0.1,2.3,0.4s1.2,0.7,1.7,1.2L31.6,14z M34.5,24V6.3h2.1v7.2c0.5-0.6,1.1-1,1.7-1.3
				s1.4-0.5,2.2-0.5c0.7,0,1.2,0.1,1.8,0.3c0.5,0.2,0.9,0.5,1.3,0.9c0.3,0.4,0.6,0.9,0.8,1.5c0.2,0.6,0.3,1.2,0.3,1.9V24h-2.1v-7.7
				c0-0.9-0.2-1.6-0.6-2.1s-1.1-0.8-1.9-0.8c-0.6,0-1.2,0.2-1.8,0.5c-0.5,0.3-1.1,0.7-1.5,1.2v9H34.5z M50.2,11.8v13.1
				c0,0.5-0.1,0.9-0.2,1.4c-0.1,0.4-0.3,0.8-0.6,1.1c-0.3,0.3-0.6,0.6-1.1,0.7c-0.4,0.2-1,0.3-1.6,0.3c-0.3,0-0.5,0-0.7-0.1
				c-0.2,0-0.4-0.1-0.6-0.2l0.1-1.2c0-0.1,0.1-0.2,0.1-0.2s0.1,0,0.3,0l0.1,0l0,0l0.3,0c0,0,0.1,0,0.1,0c0.6,0,1.1-0.1,1.3-0.4
				c0.3-0.3,0.4-0.8,0.4-1.4V11.8H50.2z M50.7,8c0,0.2,0,0.4-0.1,0.6c-0.1,0.2-0.2,0.3-0.3,0.5c-0.1,0.1-0.3,0.2-0.5,0.3
				c-0.2,0.1-0.4,0.1-0.6,0.1s-0.4,0-0.6-0.1c-0.2-0.1-0.3-0.2-0.5-0.3c-0.1-0.1-0.2-0.3-0.3-0.5c-0.1-0.2-0.1-0.4-0.1-0.6
				s0-0.4,0.1-0.6c0.1-0.2,0.2-0.4,0.3-0.5s0.3-0.2,0.5-0.3s0.4-0.1,0.6-0.1s0.4,0,0.6,0.1c0.2,0.1,0.3,0.2,0.5,0.3
				c0.1,0.1,0.3,0.3,0.3,0.5S50.7,7.8,50.7,8z M58.8,11.7c0.9,0,1.7,0.1,2.4,0.4s1.3,0.7,1.8,1.3c0.5,0.5,0.9,1.2,1.2,2
				c0.3,0.8,0.4,1.6,0.4,2.6c0,1-0.1,1.8-0.4,2.6c-0.3,0.8-0.7,1.4-1.2,2c-0.5,0.5-1.1,1-1.8,1.3s-1.5,0.4-2.4,0.4s-1.7-0.1-2.4-0.4
				s-1.3-0.7-1.8-1.3s-0.9-1.2-1.2-2c-0.3-0.8-0.4-1.6-0.4-2.6c0-1,0.1-1.8,0.4-2.6c0.3-0.8,0.7-1.4,1.2-2s1.1-1,1.8-1.3
				S58,11.7,58.8,11.7z M58.8,22.5c1.2,0,2.1-0.4,2.7-1.2c0.6-0.8,0.9-1.9,0.9-3.4c0-1.4-0.3-2.6-0.9-3.4c-0.6-0.8-1.5-1.2-2.7-1.2
				c-0.6,0-1.1,0.1-1.6,0.3s-0.8,0.5-1.1,0.9c-0.3,0.4-0.5,0.9-0.7,1.4c-0.1,0.6-0.2,1.2-0.2,1.9c0,0.7,0.1,1.4,0.2,1.9
				c0.1,0.6,0.4,1,0.7,1.4c0.3,0.4,0.7,0.7,1.1,0.9C57.7,22.4,58.2,22.5,58.8,22.5z M75.6,14c-0.1,0.1-0.1,0.2-0.2,0.2
				c-0.1,0-0.2,0.1-0.3,0.1s-0.2,0-0.4-0.1s-0.3-0.2-0.5-0.3c-0.2-0.1-0.5-0.2-0.8-0.3c-0.3-0.1-0.7-0.2-1.1-0.2
				c-0.6,0-1.1,0.1-1.6,0.3c-0.5,0.2-0.8,0.5-1.1,0.9C69.2,15,69,15.4,68.8,16c-0.2,0.6-0.2,1.2-0.2,1.9c0,0.7,0.1,1.4,0.3,2
				c0.2,0.6,0.4,1.1,0.7,1.4c0.3,0.4,0.7,0.7,1.1,0.9c0.4,0.2,0.9,0.3,1.5,0.3c0.5,0,0.9-0.1,1.3-0.2c0.3-0.1,0.6-0.3,0.8-0.4
				c0.2-0.2,0.4-0.3,0.6-0.4s0.3-0.2,0.4-0.2c0.2,0,0.3,0.1,0.4,0.2l0.6,0.8c-0.5,0.6-1.2,1.1-2,1.4c-0.8,0.3-1.6,0.4-2.5,0.4
				c-0.8,0-1.5-0.1-2.1-0.4c-0.7-0.3-1.2-0.7-1.7-1.2c-0.5-0.5-0.9-1.2-1.1-2c-0.3-0.8-0.4-1.7-0.4-2.7c0-0.9,0.1-1.7,0.4-2.5
				c0.3-0.8,0.6-1.4,1.1-2s1.1-1,1.8-1.3c0.7-0.3,1.5-0.5,2.4-0.5c0.8,0,1.6,0.1,2.3,0.4s1.2,0.7,1.7,1.2L75.6,14z M80.7,6.3v10.4
				h0.6c0.2,0,0.3,0,0.4-0.1c0.1,0,0.2-0.1,0.3-0.3l3.8-4.1c0.1-0.1,0.2-0.2,0.4-0.3c0.1-0.1,0.3-0.1,0.5-0.1h1.9l-4.5,4.8
				c-0.1,0.1-0.2,0.3-0.3,0.4c-0.1,0.1-0.2,0.2-0.4,0.3c0.1,0.1,0.3,0.2,0.4,0.3c0.1,0.1,0.2,0.3,0.3,0.4l4.8,6H87
				c-0.2,0-0.3,0-0.4-0.1c-0.1-0.1-0.2-0.2-0.4-0.3l-4-5c-0.1-0.2-0.2-0.3-0.4-0.3c-0.1-0.1-0.3-0.1-0.5-0.1h-0.6V24h-2.1V6.3H80.7z
				 M95.1,11.7c0.7,0,1.4,0.1,2,0.4c0.6,0.2,1.1,0.6,1.6,1.1c0.4,0.5,0.8,1,1,1.7c0.3,0.7,0.4,1.4,0.4,2.3c0,0.3,0,0.6-0.1,0.7
				c-0.1,0.1-0.2,0.2-0.4,0.2h-8.1c0,0.8,0.1,1.4,0.3,2c0.2,0.6,0.5,1,0.8,1.4c0.3,0.4,0.7,0.7,1.2,0.9c0.5,0.2,1,0.3,1.6,0.3
				c0.5,0,1-0.1,1.4-0.2s0.7-0.3,1-0.4c0.3-0.1,0.5-0.3,0.7-0.4c0.2-0.1,0.3-0.2,0.5-0.2c0.2,0,0.3,0.1,0.4,0.2l0.6,0.8
				c-0.3,0.3-0.6,0.6-0.9,0.8c-0.4,0.2-0.8,0.4-1.2,0.6c-0.4,0.2-0.9,0.3-1.3,0.3c-0.4,0.1-0.9,0.1-1.3,0.1c-0.8,0-1.6-0.1-2.3-0.4
				c-0.7-0.3-1.3-0.7-1.8-1.2c-0.5-0.5-0.9-1.2-1.2-2c-0.3-0.8-0.4-1.7-0.4-2.8c0-0.8,0.1-1.6,0.4-2.4c0.3-0.7,0.6-1.4,1.1-1.9
				c0.5-0.5,1.1-1,1.8-1.3C93.5,11.8,94.3,11.7,95.1,11.7z M95.2,13.2c-1,0-1.8,0.3-2.4,0.9s-1,1.4-1.1,2.5h6.6
				c0-0.5-0.1-0.9-0.2-1.4c-0.1-0.4-0.3-0.8-0.6-1.1c-0.3-0.3-0.6-0.5-1-0.7C96.1,13.3,95.7,13.2,95.2,13.2z M106.2,27.6
				c-0.1,0.2-0.2,0.3-0.3,0.4s-0.3,0.1-0.5,0.1h-1.6l2.2-4.8l-5-11.4h1.8c0.2,0,0.3,0,0.4,0.1c0.1,0.1,0.2,0.2,0.2,0.3l3.3,7.7
				c0.1,0.2,0.1,0.4,0.2,0.5c0.1,0.2,0.1,0.4,0.1,0.5l0.2-0.5l0,0c0.1-0.2,0.1-0.4,0.2-0.5l3.2-7.6c0-0.1,0.1-0.2,0.2-0.3
				c0.1-0.1,0.2-0.1,0.4-0.1h1.7L106.2,27.6z"/>
		</g>
	</g>
</g>
</svg>
