<?xml version="1.0" encoding="UTF-8"?>
<svg width="34px" height="34px" viewBox="0 0 34 34" version="1.1" xmlns="http://www.w3.org/2000/svg" xmlns:xlink="http://www.w3.org/1999/xlink">
    <!-- Generator: Sketch 53.2 (72643) - https://sketchapp.com -->
    <title>YT</title>
    <desc>Created with Sketch.</desc>
    <g id="Page-1" stroke="none" stroke-width="1" fill="none" fill-rule="evenodd">
        <g id="youtube" transform="translate(1.000000, 1.000000)" fill="#FFFFFF" fill-rule="nonzero">
            <path d="M14.0070801,18.9975586 L14.0070801,13.0024414 L19.2116699,16 L14.0070801,18.9975586 Z M16,0 C24.8352051,0 32,7.16479494 32,16 C32,24.8352051 24.8352051,32 16,32 C7.16479494,32 0,24.8352051 0,16 C0,7.16479494 7.16479494,0 16,0 Z M25.9975586,16.0163574 C25.9975586,16.0163574 26.0141601,12.7553711 25.5859375,11.1906738 C25.3552246,10.3342285 24.6799316,9.65869138 23.8234863,9.42822263 C22.2587891,9 16,9 16,9 C16,9 9.74121094,9 8.17651369,9.41186525 C7.33642575,9.642334 6.64453125,10.3342285 6.4140625,11.1906738 C6.00219725,12.7553711 6.00219725,16 6.00219725,16 C6.00219725,16 6.00219725,19.2612305 6.4140625,20.8093262 C6.64477538,21.6657715 7.32006837,22.3413086 8.17651369,22.5717774 C9.75756837,23 16,23 16,23 C16,23 22.2587891,23 23.8234863,22.5881348 C24.6799316,22.357666 25.3552246,21.6823731 25.5859375,20.8259278 C25.9975586,19.2612305 25.9975586,16.0163574 25.9975586,16.0163574 Z" id="Combined-Shape"></path>
        </g>
    </g>
</svg>