<svg xmlns="http://www.w3.org/2000/svg" width="40" height="40" viewBox="0 0 40 40">
  <g id="Icon_Back" data-name="Icon Back" transform="translate(2 0.659)">
    <g id="Path_49" data-name="Path 49" transform="translate(-2 -0.659)" fill="#fff">
      <path d="M 20 39 C 17.4313907623291 39 14.94036960601807 38.5101432800293 12.59613037109375 37.54404067993164 C 10.33300971984863 36.61136245727539 8.300729751586914 35.27636337280273 6.555729866027832 33.57611083984375 C 2.973059892654419 30.08530235290527 1 25.44600105285645 1 20.51282119750977 L 1 19.4871826171875 C 1 14.5540018081665 2.973059892654419 9.914701461791992 6.555729866027832 6.423892021179199 C 8.300729751586914 4.723641872406006 10.33300971984863 3.388641834259033 12.59613037109375 2.455961942672729 C 14.94036960601807 1.489861965179443 17.4313907623291 1.000001907348633 20 1.000001907348633 C 22.5686092376709 1.000001907348633 25.05964088439941 1.489861965179443 27.40386962890625 2.455961942672729 C 29.66699981689453 3.388641834259033 31.69927978515625 4.723641872406006 33.44427108764648 6.423892021179199 C 37.02693939208984 9.914701461791992 39 14.55399227142334 39 19.4871826171875 L 39 20.51282119750977 C 39 25.44601249694824 37.02693939208984 30.08530235290527 33.44427108764648 33.57611083984375 C 31.69927978515625 35.27636337280273 29.66699981689453 36.61136245727539 27.40386962890625 37.54404067993164 C 25.05964088439941 38.5101432800293 22.5686092376709 39 20 39 Z" stroke="none"/>
      <path d="M 20 2.000003814697266 C 15.1822395324707 2.000003814697266 10.65547943115234 3.825462341308594 7.253589630126953 7.140121459960938 C 3.865760803222656 10.44108200073242 2 14.82602119445801 2 19.4871826171875 L 2 20.51282119750977 C 2 25.17398071289062 3.865760803222656 29.55891227722168 7.253589630126953 32.85988235473633 C 10.65547943115234 36.17454147338867 15.1822395324707 38 20 38 C 24.8177604675293 38 29.34452056884766 36.17454147338867 32.74641036987305 32.85988235473633 C 36.13423919677734 29.55891227722168 38 25.17398071289062 38 20.51282119750977 L 38 19.4871826171875 C 38 14.82602119445801 36.13423919677734 10.44108200073242 32.74641036987305 7.140121459960938 C 29.34452056884766 3.825462341308594 24.8177604675293 2.000003814697266 20 2.000003814697266 M 20 3.814697265625e-06 C 31.04570007324219 3.814697265625e-06 40 8.724702835083008 40 19.4871826171875 L 40 20.51282119750977 C 40 31.27529144287109 31.04570007324219 40 20 40 C 8.954299926757812 40 0 31.27529144287109 0 20.51282119750977 L 0 19.4871826171875 C 0 8.724702835083008 8.954299926757812 3.814697265625e-06 20 3.814697265625e-06 Z" stroke="none" fill="#4ac067"/>
    </g>
    <path id="angle-small-left" d="M10.936,12.3a.5.5,0,0,1,0-.7l4.556-4.555a1.49,1.49,0,0,0-2.107-2.108L8.829,9.492a3.482,3.482,0,0,0,0,4.917l4.556,4.556a1.49,1.49,0,0,0,2.107-2.108Z" transform="translate(6.187 6.841)" fill="#4ac067"/>
  </g>
</svg>
