<svg xmlns="http://www.w3.org/2000/svg" width="35" height="35" viewBox="0 0 35 35">
  <g id="time-forward" transform="translate(-0.011)">
    <path id="Path_3637" data-name="Path 3637" d="M33.552,16.04A1.459,1.459,0,0,0,32.093,17.5,14.639,14.639,0,1,1,27.862,7.261a1.259,1.259,0,0,1-.146.031H23.339a1.458,1.458,0,1,0,0,2.916h4.377a4.376,4.376,0,0,0,4.377-4.375V1.458a1.459,1.459,0,0,0-2.918,0V4.469A17.486,17.486,0,1,0,35.011,17.5,1.459,1.459,0,0,0,33.552,16.04Z" transform="translate(0 0)" fill="#4ac067"/>
    <path id="Path_3638" data-name="Path 3638" d="M12.459,6A1.459,1.459,0,0,0,11,7.458v7.291a1.458,1.458,0,0,0,.427,1.031L15.8,20.155a1.459,1.459,0,1,0,2.063-2.062l-3.95-3.947V7.458A1.459,1.459,0,0,0,12.459,6Z" transform="translate(5.044 2.749)" fill="#4ac067"/>
  </g>
</svg>
