<svg id="arrow_left" xmlns="http://www.w3.org/2000/svg" width="30" height="30" viewBox="0 0 30 30">
  <g id="Ellipse_1" data-name="Ellipse 1" fill="#fff" stroke="#0554f2" stroke-width="1">
    <circle cx="15" cy="15" r="15" stroke="none"/>
    <circle cx="15" cy="15" r="14.5" fill="none"/>
  </g>
  <g id="left-arrow" transform="translate(8.82 10.474)">
    <g id="Group_34" data-name="Group 34">
      <path id="Path_5" data-name="Path 5" d="M11.235,45.684l.019,0H3.288l2.5-2.51a.658.658,0,0,0,0-.925l-.39-.39a.652.652,0,0,0-.92,0L.19,46.156a.656.656,0,0,0,0,.923l4.293,4.293a.652.652,0,0,0,.92,0l.39-.39a.645.645,0,0,0,.19-.46.625.625,0,0,0-.19-.451L3.26,47.547h7.984a.675.675,0,0,0,.66-.668v-.551A.662.662,0,0,0,11.235,45.684Z" transform="translate(0 -41.674)" fill="#0554f2"/>
    </g>
  </g>
</svg>
