<svg xmlns="http://www.w3.org/2000/svg" width="30" height="30" viewBox="0 0 30 30">
  <g id="arrow_right" transform="translate(0.43 0.43)">
    <g id="Ellipse_1" data-name="Ellipse 1" transform="translate(-0.43 -0.43)" fill="#fff" stroke="#0554f2" stroke-width="1">
      <circle cx="15" cy="15" r="15" stroke="none"/>
      <circle cx="15" cy="15" r="14.5" fill="none"/>
    </g>
    <g id="left-arrow" transform="translate(8.846 10.044)">
      <g id="Group_34" data-name="Group 34">
        <path id="Path_5" data-name="Path 5" d="M.669,45.684l-.019,0H8.616l-2.5-2.51a.658.658,0,0,1,0-.925l.39-.39a.652.652,0,0,1,.92,0l4.293,4.292a.656.656,0,0,1,0,.923L7.422,51.372a.652.652,0,0,1-.92,0l-.39-.39a.645.645,0,0,1-.19-.46.625.625,0,0,1,.19-.451l2.532-2.524H.66A.675.675,0,0,1,0,46.879v-.551A.662.662,0,0,1,.669,45.684Z" transform="translate(0 -41.674)" fill="#0554f2"/>
      </g>
    </g>
  </g>
</svg>
