<?xml version="1.0" encoding="UTF-8"?>
<svg width="20px" height="20px" viewBox="0 0 20 20" version="1.1" xmlns="http://www.w3.org/2000/svg" xmlns:xlink="http://www.w3.org/1999/xlink">
    <title>calendar</title>
    <g id="calendar" stroke="none" stroke-width="1" fill="none" fill-rule="evenodd">
        <g id="noun-calendar-4804940" transform="translate(1.000000, 2.000000)" fill="#7F7F7F" fill-rule="nonzero">
            <path d="M15.6977729,1.6923476 L13.8140577,1.6923476 L13.8140577,0.634606552 C13.8140577,0.407816688 13.6943646,0.198317381 13.5001051,0.0849931631 C13.3058456,-0.0283310544 13.0664559,-0.0283310544 12.8722,0.0849931631 C12.6779405,0.198317381 12.5582475,0.407823941 12.5582475,0.634606552 L12.5582475,1.6923476 L5.44175051,1.6923476 L5.44175051,0.634606552 C5.44175051,0.407816688 5.32205745,0.198317381 5.12779797,0.0849931631 C4.93353848,-0.0283310544 4.69414877,-0.0283310544 4.49989287,0.0849931631 C4.30563338,0.198317381 4.18594032,0.407823941 4.18594032,0.634606552 L4.18594032,1.6923476 L2.30222503,1.6923476 C1.69154248,1.69178098 1.10568908,1.93684505 0.673726258,2.37327203 C0.241906954,2.80985131 -0.000572054121,3.40196581 1.01347075e-06,4.01917483 L1.01347075e-06,14.1730247 C-0.000558599012,14.7903425 0.24191413,15.3824933 0.673726258,15.8189275 C1.10568908,16.2555068 1.69154248,16.5004322 2.30222503,16.5 L15.6977729,16.5 C16.3084555,16.500422 16.8943089,16.2554995 17.3262717,15.8189275 C17.758091,15.3824933 18.00057,14.7903788 18.000001,14.1730247 L18.000001,4.01917483 C18.0005566,3.40196581 17.7580839,2.80985131 17.3262717,2.37327203 C16.8943089,1.9368378 16.3084555,1.69176738 15.6977729,1.6923476 L15.6977729,1.6923476 Z M2.30222503,2.96157883 L4.18594032,2.96157883 L4.18594032,4.01917483 C4.18594032,4.24596469 4.30563338,4.455464 4.49989287,4.56878822 C4.69415235,4.68211243 4.93354207,4.68211243 5.12779797,4.56878822 C5.32205745,4.455464 5.44175051,4.24595744 5.44175051,4.01917483 L5.44175051,2.96157883 L12.5578887,2.96157883 L12.5580288,4.01917483 C12.5580288,4.24596469 12.6777219,4.455464 12.8719814,4.56878822 C13.0662409,4.68211243 13.3056306,4.68211243 13.4998865,4.56878822 C13.694146,4.455464 13.813839,4.24595744 13.813839,4.01917483 L13.813839,2.96157883 L15.6975543,2.96157883 C15.9750669,2.96157883 16.2412125,3.07291942 16.4374418,3.27138005 C16.6338039,3.46969924 16.7439671,3.73871099 16.7439671,4.01917483 L16.7439671,5.92302168 L1.25588065,5.92302168 L1.25588065,4.01917483 C1.25588065,3.73869648 1.3660439,3.46970649 1.56240597,3.27138005 C1.75862811,3.07291942 2.02479529,2.96157883 2.30229346,2.96157883 L2.30222503,2.96157883 Z M11.9554586,9.54489993 L8.60667924,12.9294682 C8.48908876,13.0486019 8.32944658,13.1157442 8.16294768,13.1157442 C7.99630166,13.1157442 7.83665949,13.0485983 7.71921612,12.9294682 L6.04475469,11.2371115 C5.8954855,11.0750561 5.84040566,10.8461521 5.89955074,10.6329575 C5.95883574,10.4199079 6.12366262,10.2533123 6.33445575,10.1934046 C6.54539239,10.1336274 6.77187238,10.1892966 6.9322214,10.3401603 L8.16295127,11.5831729 L11.067999,8.64794872 L11.067999,8.64780708 C11.2283409,8.49694263 11.4548245,8.44127415 11.6657647,8.50119274 C11.8765614,8.5609699 12.0413955,8.72755832 12.1006697,8.94074565 C12.1598148,9.1539366 12.1047342,9.38283702 11.9554658,9.54475466 L11.9554586,9.54489993 Z" id="Shape"></path>
        </g>
    </g>
</svg>