<svg xmlns="http://www.w3.org/2000/svg" width="45" height="45" viewBox="0 0 45 45">
  <g id="tick_lite" transform="translate(-360 -2293)">
    <circle id="Ellipse_5" data-name="Ellipse 5" cx="22.5" cy="22.5" r="22.5" transform="translate(360 2293)" fill="#f1f5ff"/>
    <path id="Path_16311" data-name="Path 16311" d="M5.754,83.438a1.9,1.9,0,0,1-1.348-.559L.329,78.8a1.124,1.124,0,0,1,0-1.589h0a1.124,1.124,0,0,1,1.589,0l3.836,3.836L15.9,70.9a1.124,1.124,0,0,1,1.589,0h0a1.124,1.124,0,0,1,0,1.589L7.1,82.879A1.9,1.9,0,0,1,5.754,83.438Z" transform="translate(373.339 2238.244)" fill="#0554f2"/>
  </g>
</svg>
