<svg id="department" xmlns="http://www.w3.org/2000/svg" width="40" height="40" viewBox="0 0 40 40">
  <rect id="Rectangle_2_Copy" data-name="Rectangle 2 Copy" width="40" height="40" rx="4" transform="translate(0 0)" fill="#f6f7f9"/>
  <path id="shop" d="M19.709,8.212a.811.811,0,0,0-.02-.178L18.622,3.215A4.08,4.08,0,0,0,14.611,0H5.1A4.08,4.08,0,0,0,1.091,3.215L.02,8.034A.811.811,0,0,0,0,8.212v.821A3.272,3.272,0,0,0,.821,11.2v4.4a4.111,4.111,0,0,0,4.106,4.106h9.854A4.111,4.111,0,0,0,18.888,15.6V11.2a3.272,3.272,0,0,0,.821-2.17ZM1.642,8.3l1.051-4.73A2.449,2.449,0,0,1,5.1,1.642h.65V4.106a.821.821,0,1,0,1.642,0V1.642h4.927V4.106a.821.821,0,1,0,1.642,0V1.642h.65a2.449,2.449,0,0,1,2.4,1.929L18.067,8.3v.732a1.642,1.642,0,0,1-1.642,1.642H15.6a1.642,1.642,0,0,1-1.642-1.642.821.821,0,1,0-1.642,0,1.642,1.642,0,0,1-1.642,1.642H9.033A1.642,1.642,0,0,1,7.391,9.033a.821.821,0,1,0-1.642,0,1.642,1.642,0,0,1-1.642,1.642H3.285A1.642,1.642,0,0,1,1.642,9.033Zm13.139,9.765H4.927A2.464,2.464,0,0,1,2.464,15.6V12.214a3.267,3.267,0,0,0,.821.1h.821A3.277,3.277,0,0,0,6.57,11.2a3.277,3.277,0,0,0,2.464,1.114h1.642A3.277,3.277,0,0,0,13.139,11.2,3.277,3.277,0,0,0,15.6,12.318h.821a3.267,3.267,0,0,0,.821-.1V15.6A2.464,2.464,0,0,1,14.782,18.067Z" transform="translate(10.146 10.146)" fill="#eabc39"/>
</svg>
