<svg id="industry" xmlns="http://www.w3.org/2000/svg" width="40" height="40" viewBox="0 0 40 40">
  <rect id="Rectangle_2_Copy" data-name="Rectangle 2 Copy" width="40" height="40" rx="4" transform="translate(0 0)" fill="#f6f7f9"/>
  <path id="building" d="M3.322,10.8H5.813v1.661H3.322Zm4.152,1.661H9.965V10.8H7.474ZM3.322,15.778H5.813V14.118H3.322Zm4.152,0H9.965V14.118H7.474ZM3.322,5.813H5.813V4.152H3.322Zm4.152,0H9.965V4.152H7.474ZM3.322,9.135H5.813V7.474H3.322Zm4.152,0H9.965V7.474H7.474ZM19.931,6.644V19.931H0V2.491A2.491,2.491,0,0,1,2.491,0h8.3a2.491,2.491,0,0,1,2.491,2.491V4.152h4.152A2.491,2.491,0,0,1,19.931,6.644Zm-8.3-4.152a.83.83,0,0,0-.83-.83h-8.3a.83.83,0,0,0-.83.83V18.27h9.965ZM18.27,6.644a.83.83,0,0,0-.83-.83H13.287V18.27H18.27Zm-3.322,5.813h1.661V10.8H14.948Zm0,3.322h1.661V14.118H14.948Zm0-6.644h1.661V7.474H14.948Z" transform="translate(10.035 9.615)" fill="#5ebeb1"/>
</svg>
