<svg id="software" xmlns="http://www.w3.org/2000/svg" width="40" height="40" viewBox="0 0 40 40">
  <rect id="Rectangle_2_Copy" data-name="Rectangle 2 Copy" width="40" height="40" rx="4" transform="translate(0 0)" fill="#f6f7f9"/>
  <g id="Group_13088" data-name="Group 13088" transform="translate(-97.723 -123.725)">
    <path id="laptop" d="M18.9,13.464V7.294A4.3,4.3,0,0,0,14.6,3H6.012A4.3,4.3,0,0,0,1.718,7.294v6.17a2.571,2.571,0,0,0,.859,5h15.46a2.571,2.571,0,0,0,.859-5ZM6.012,4.718H14.6a2.577,2.577,0,0,1,2.577,2.577v6.012H13.612a1.718,1.718,0,0,0-1.312.608l-.212.251H8.524l-.211-.251A1.718,1.718,0,0,0,7,13.306H3.436V7.294A2.577,2.577,0,0,1,6.012,4.718ZM18.036,16.742H2.577a.859.859,0,1,1,0-1.718H7l.211.251a1.718,1.718,0,0,0,1.311.608h3.563a1.718,1.718,0,0,0,1.312-.608l.212-.251h4.424a.859.859,0,0,1,0,1.718Z" transform="translate(107.303 133.214)" fill="#6d518d"/>
  </g>
</svg>
