<svg xmlns="http://www.w3.org/2000/svg" width="19.45" height="18.604" viewBox="0 0 19.45 18.604">
  <g id="icon_email" transform="translate(0 -10.668)">
    <path id="Path_16177" data-name="Path 16177" d="M28.674,11.539,21.562,16.68l-1.167.846a1.75,1.75,0,0,1-2.08,0l-1.167-.846-7.12-5.133a2.1,2.1,0,0,1,1.717-.879H26.965A2.114,2.114,0,0,1,28.674,11.539Z" transform="translate(-9.63)" fill="#ffd54f"/>
    <g id="Group_12346" data-name="Group 12346" transform="translate(0 11.539)">
      <path id="Path_16178" data-name="Path 16178" d="M.4,32.855l7.12,5.133-6.9,6.9A2.114,2.114,0,0,1,0,43.392v-9.3A2.089,2.089,0,0,1,.4,32.855Z" transform="translate(0 -32.847)" fill="#ffc107"/>
      <path id="Path_16179" data-name="Path 16179" d="M308.532,33.885v9.3a2.114,2.114,0,0,1-.617,1.5l-6.9-6.9,7.112-5.142A2.1,2.1,0,0,1,308.532,33.885Z" transform="translate(-289.082 -32.642)" fill="#ffc107"/>
    </g>
    <path id="Path_16180" data-name="Path 16180" d="M135.611,251.252c-.562,0-.846-.423-.846-1.268a2.14,2.14,0,1,0-.515,1.367,1.508,1.508,0,0,0,1.361.747c1.691,0,1.691-1.592,1.691-2.114a4.651,4.651,0,1,0-1.417,3.343.424.424,0,0,0-.592-.608h0a3.805,3.805,0,1,1,1.164-2.735C136.457,250.931,136.243,251.252,135.611,251.252Zm-2.96,0a1.268,1.268,0,1,1,1.268-1.268A1.268,1.268,0,0,1,132.651,251.252Z" transform="translate(-122.927 -225.362)" fill="#455a64"/>
    <path id="Path_16181" data-name="Path 16181" d="M26.889,162.348l-1.167.846a1.75,1.75,0,0,1-2.08,0l-1.167-.846-6.9,6.9a2.114,2.114,0,0,0,1.5.617h2.135a5.491,5.491,0,0,1,10.95,0h2.136a2.114,2.114,0,0,0,1.5-.617Z" transform="translate(-14.957 -145.668)" fill="#ffa000"/>
  </g>
</svg>
