<svg xmlns="http://www.w3.org/2000/svg" width="18" height="18" viewBox="0 0 18 18">
  <path id="twitter_verify" d="M11,2a9,9,0,1,0,9,9A9.01,9.01,0,0,0,11,2Zm4.4,7.249c0,.092.006.186.006.281a6.165,6.165,0,0,1-9.49,5.193,4.382,4.382,0,0,0,3.209-.9A2.172,2.172,0,0,1,7.1,12.319a2.163,2.163,0,0,0,.979-.037,2.169,2.169,0,0,1-1.738-2.126v-.027a2.159,2.159,0,0,0,.982.272,2.172,2.172,0,0,1-.671-2.894,6.157,6.157,0,0,0,4.468,2.265,2.168,2.168,0,0,1,3.693-1.977,4.345,4.345,0,0,0,1.377-.526,2.174,2.174,0,0,1-.954,1.2,4.359,4.359,0,0,0,1.246-.342A4.407,4.407,0,0,1,15.4,9.249Z" transform="translate(-2 -2)" fill="#02a8f4"/>
</svg>
