<svg xmlns="http://www.w3.org/2000/svg" width="24" height="24" viewBox="0 0 24 24">
  <path id="twitter" d="M14,2A12,12,0,1,0,26,14,12.013,12.013,0,0,0,14,2Zm5.863,9.665c.005.123.008.248.008.374A8.22,8.22,0,0,1,7.217,18.962a5.842,5.842,0,0,0,4.278-1.2,2.9,2.9,0,0,1-2.7-2.007,2.884,2.884,0,0,0,1.305-.05,2.892,2.892,0,0,1-2.317-2.834v-.037a2.878,2.878,0,0,0,1.309.362A2.9,2.9,0,0,1,8.2,9.341a8.21,8.21,0,0,0,5.957,3.02,2.891,2.891,0,0,1,4.924-2.636,5.794,5.794,0,0,0,1.835-.7,2.9,2.9,0,0,1-1.271,1.6,5.812,5.812,0,0,0,1.661-.455A5.876,5.876,0,0,1,19.863,11.665Z" transform="translate(-2 -2)" fill="#02a8f4"/>
</svg>
