<svg xmlns="http://www.w3.org/2000/svg" width="28" height="28" viewBox="0 0 28 28">
  <g id="payment" transform="translate(0 -0.144)">
    <circle id="Ellipse_13" data-name="Ellipse 13" cx="14" cy="14" r="14" transform="translate(0 0.144)" fill="#f5f7fb" opacity="0.1"/>
    <g id="Group_13191" data-name="Group 13191" transform="translate(6.305 6)">
      <g id="Group_10738" data-name="Group 10738">
        <g id="Group_10728" data-name="Group 10728">
          <g id="Group_10727" data-name="Group 10727" transform="translate(8)">
            <circle id="Ellipse_17" data-name="Ellipse 17" cx="8" cy="8" r="8" transform="translate(-8 0)" fill="#fede51"/>
            <path id="Path_15973" data-name="Path 15973" d="M264,84.076a8,8,0,0,1-8,8v-16A8,8,0,0,1,264,84.076Z" transform="translate(-255.999 -76.076)" fill="#febd4e"/>
          </g>
        </g>
        <g id="Group_10729" data-name="Group 10729" transform="translate(4.041 3.3)">
          <circle id="Ellipse_18" data-name="Ellipse 18" cx="1.299" cy="1.299" r="1.299" fill="#7f6866"/>
          <circle id="Ellipse_19" data-name="Ellipse 19" cx="1.299" cy="1.299" r="1.299" transform="translate(5.642)" fill="#634c4c"/>
        </g>
      </g>
      <g id="Group_10730" data-name="Group 10730" transform="translate(3.336 7.911)">
        <path id="Path_15974" data-name="Path 15974" d="M159.262,250a6.023,6.023,0,0,1-.225,1.641,5.7,5.7,0,0,1-.682,1.527,5.292,5.292,0,0,1-.507.671,4.559,4.559,0,0,1-3.413,1.59,4.679,4.679,0,0,1-3.919-2.261,5.7,5.7,0,0,1-.682-1.527A6.023,6.023,0,0,1,149.61,250Z" transform="translate(-149.61 -250)" fill="#7f6866"/>
        <path id="Path_15975" data-name="Path 15975" d="M260.826,250a6.022,6.022,0,0,1-.225,1.641,5.7,5.7,0,0,1-.682,1.527,5.3,5.3,0,0,1-.507.671,4.559,4.559,0,0,1-3.413,1.59V250Z" transform="translate(-251.174 -250)" fill="#634c4c"/>
        <path id="Path_15976" data-name="Path 15976" d="M189.978,317.45a4.442,4.442,0,0,1-6.588,0,6.183,6.183,0,0,1,6.588,0Z" transform="translate(-181.858 -313.483)" fill="#ff7272"/>
        <path id="Path_15977" data-name="Path 15977" d="M259.294,317.45A4.532,4.532,0,0,1,256,318.912V316.5A5.38,5.38,0,0,1,259.294,317.45Z" transform="translate(-251.174 -313.483)" fill="#ff5a5a"/>
        <path id="Path_15978" data-name="Path 15978" d="M159.262,250a6.023,6.023,0,0,1-.225,1.641h-9.2A6.023,6.023,0,0,1,149.61,250Z" transform="translate(-149.61 -250)" fill="#fff"/>
        <path id="Path_15979" data-name="Path 15979" d="M260.826,250a6.023,6.023,0,0,1-.225,1.641H256V250Z" transform="translate(-251.174 -250)" fill="#efe8e6"/>
      </g>
    </g>
  </g>
</svg>
