<svg xmlns="http://www.w3.org/2000/svg" width="28" height="28" viewBox="0 0 28 28">
  <g id="price" transform="translate(0 -0.144)">
    <circle id="Ellipse_13" data-name="Ellipse 13" cx="14" cy="14" r="14" transform="translate(0 0.144)" fill="#f5f7fb" opacity="0.1"/>
    <g id="rupee" transform="translate(4.541 4.894)">
      <g id="Group_2077" data-name="Group 2077">
        <path id="Path_3698" data-name="Path 3698" d="M18.008,9A9.02,9.02,0,1,1,15.1,2.378,9,9,0,0,1,18.008,9Z" fill="#f0cd00"/>
        <path id="Path_3699" data-name="Path 3699" d="M35.578,9.168a9,9,0,0,1-8.669,9,9,9,0,0,1,0-18A9,9,0,0,1,35.578,9.168Z" transform="translate(-17.57 -0.164)" fill="#ffde50"/>
        <path id="Path_3700" data-name="Path 3700" d="M47.522,34.81,34.8,47.532a9.042,9.042,0,0,1-1.14-1.538L45.985,33.67A9,9,0,0,1,47.522,34.81Z" transform="translate(-32.423 -32.433)" fill="#ffea94"/>
        <path id="Path_3701" data-name="Path 3701" d="M107.345,95.67,95.67,107.345a8.991,8.991,0,0,1-2.28-1.31L106.035,93.39A8.976,8.976,0,0,1,107.345,95.67Z" transform="translate(-89.958 -89.958)" fill="#ffea94"/>
        <path id="Path_3702" data-name="Path 3702" d="M68.613,61.617a7,7,0,0,1-13.992.086c0-.029,0-.057,0-.086a7,7,0,0,1,7-7H61.7A6.964,6.964,0,0,1,65.647,55.9a7.043,7.043,0,0,1,1.928,2.05A6.963,6.963,0,0,1,68.613,61.617Z" transform="translate(-52.613 -52.613)" fill="#faa300"/>
        <path id="Path_3703" data-name="Path 3703" d="M66.564,56.669l-9.894,9.894A6.971,6.971,0,0,1,54.621,61.7c0-.029,0-.057,0-.086a7,7,0,0,1,7-7H61.7A6.964,6.964,0,0,1,65.647,55.9,7.061,7.061,0,0,1,66.564,56.669Z" transform="translate(-52.613 -52.613)" fill="#ffbd00"/>
        <path id="Path_3704" data-name="Path 3704" d="M241.637,61.617a7,7,0,0,1-7,7q-.2,0-.4-.011a7,7,0,0,0,0-13.971q.2-.011.4-.011A7,7,0,0,1,241.637,61.617Z" transform="translate(-225.636 -52.613)" fill="#f68e00"/>
      </g>
      <path id="Path_3705" data-name="Path 3705" d="M119.359,128.008h-1.225a2.956,2.956,0,0,0-.318-.769h1.543a.735.735,0,1,0,0-1.47h-6.944a.735.735,0,1,0,0,1.47h2.837a1.505,1.505,0,0,1,1.312.769h-4.149a.735.735,0,0,0,0,1.47h4.149a1.505,1.505,0,0,1-1.312.769h-2.837a.735.735,0,0,0-.535,1.239l4,4.243a.735.735,0,1,0,1.07-1.008l-2.83-3h1.134a2.98,2.98,0,0,0,2.882-2.239h1.225a.735.735,0,0,0,0-1.47Z" transform="translate(-107.576 -121.147)" fill="#f68e00"/>
      <path id="Path_3706" data-name="Path 3706" d="M144.361,128.008h-1.225a2.957,2.957,0,0,0-.318-.769h1.543a.735.735,0,1,0,0-1.47h-6.944a.735.735,0,1,0,0,1.47h2.837a1.505,1.505,0,0,1,1.312.769h-4.148a.735.735,0,1,0,0,1.47h4.148a1.505,1.505,0,0,1-1.312.769h-2.837a.735.735,0,0,0-.535,1.239l4,4.243a.735.735,0,1,0,1.07-1.008l-2.83-3h1.134a2.98,2.98,0,0,0,2.882-2.239h1.225a.735.735,0,1,0,0-1.47Z" transform="translate(-131.659 -121.147)" fill="#ffea94"/>
    </g>
  </g>
</svg>
