<svg xmlns="http://www.w3.org/2000/svg" xmlns:xlink="http://www.w3.org/1999/xlink" width="60" height="60" viewBox="0 0 60 60">
  <defs>
    <clipPath id="clip-path">
      <circle id="Ellipse_5" data-name="Ellipse 5" cx="30" cy="30" r="30" transform="translate(-572 -1656)" fill="#c3e1fa"/>
    </clipPath>
  </defs>
  <g id="accounting" transform="translate(572 1656)">
    <circle id="Ellipse_1" data-name="Ellipse 1" cx="30" cy="30" r="30" transform="translate(-572 -1656)" fill="#f7cd1b"/>
    <g id="Mask_Group_1" data-name="Mask Group 1" clip-path="url(#clip-path)">
      <path id="Path_20" data-name="Path 20" d="M-559-1608.521l23.088,22.729,34.038-25.588-31.351-31.374-14.127,13.66C-550.884-1625.679-559-1608.521-559-1608.521Z" transform="translate(-0.117 -1.589)" fill="#f2a415"/>
    </g>
    <g id="accounting-2" data-name="accounting" transform="translate(-559 -1644.413)">
      <path id="Path_1" data-name="Path 1" d="M26.809,1.523V14.242H0V1.828A1.615,1.615,0,0,1,1.523,0H25.286A1.523,1.523,0,0,1,26.809,1.523Z" fill="#50758d"/>
      <path id="Path_2" data-name="Path 2" d="M26.809,187v18.888a1.523,1.523,0,0,1-1.523,1.523H1.523A1.5,1.5,0,0,1,0,206.193V187Z" transform="translate(0 -172.758)" fill="#50758d"/>
      <path id="Path_3" data-name="Path 3" d="M50,47.083V41.066A1.066,1.066,0,0,1,51.066,40H69.65a1.066,1.066,0,0,1,1.066,1.066v6.017a1.066,1.066,0,0,1-1.066,1.066H51.066A1.066,1.066,0,0,1,50,47.083Z" transform="translate(-46.192 -36.953)" fill="#2edffc"/>
      <path id="Path_4" data-name="Path 4" d="M52.59,48.149H51.066A1.066,1.066,0,0,1,50,47.083V41.066A1.066,1.066,0,0,1,51.066,40H52.59a1.066,1.066,0,0,0-1.066,1.066v6.017A1.066,1.066,0,0,0,52.59,48.149Z" transform="translate(-46.192 -36.953)" fill="#27bdf3"/>
      <path id="Path_5" data-name="Path 5" d="M195.82,228.066v6.093H185.5V227h9.254A1.066,1.066,0,0,1,195.82,228.066Z" transform="translate(-171.372 -209.711)" fill="#f5f5f5"/>
      <path id="Path_6" data-name="Path 6" d="M60.32,227v7.159H50v-5.941A1.109,1.109,0,0,1,51.066,227Z" transform="translate(-46.192 -209.711)" fill="#f5f5f5"/>
      <path id="Path_7" data-name="Path 7" d="M60.32,321v7.159H51.066A1.049,1.049,0,0,1,50,327.245V321Z" transform="translate(-46.192 -296.552)" fill="#f5f5f5"/>
      <path id="Path_8" data-name="Path 8" d="M195.82,321v6.093a1.066,1.066,0,0,1-1.066,1.066H185.5V321Z" transform="translate(-171.372 -296.552)" fill="#f5f5f5"/>
      <path id="Path_9" data-name="Path 9" d="M62.645,219.5H44.137a1.681,1.681,0,0,0-1.637,1.79v12.186a1.608,1.608,0,0,0,1.637,1.485H62.645a1.639,1.639,0,0,0,1.638-1.637V221.138A1.639,1.639,0,0,0,62.645,219.5Zm.5,1.637v5.522H53.962v-6.017h8.683A.5.5,0,0,1,63.14,221.138Zm-19.5.152c0-.387.2-.647.5-.647H52.82v6.017H43.642Zm0,12.186V227.8H52.82v6.017H44.137A.516.516,0,0,1,43.642,233.476Zm19.5-.152a.5.5,0,0,1-.5.5H53.962V227.8H63.14Z" transform="translate(-39.263 -202.782)" fill="#e6e6e6"/>
      <g id="Group_1" data-name="Group 1">
        <path id="Path_10" data-name="Path 10" d="M93.184,361.642H89.071a.571.571,0,1,1,0-1.142h4.113a.571.571,0,1,1,0,1.142Z" transform="translate(-81.76 -333.043)" fill="#2b597f"/>
        <path id="Path_11" data-name="Path 11" d="M97.422,246.176h-1.1v-1.1a.571.571,0,0,0-1.142,0v1.1h-1.1a.571.571,0,1,0,0,1.142h1.1v1.1a.571.571,0,0,0,1.142,0v-1.1h1.1a.571.571,0,1,0,0-1.142Z" transform="translate(-86.379 -225.878)" fill="#2b597f"/>
        <path id="Path_12" data-name="Path 12" d="M228.007,252.7l.781-.781a.571.571,0,0,0-.808-.808l-.781.781-.781-.781a.571.571,0,0,0-.808.808l.781.781-.781.781a.571.571,0,0,0,.808.808l.781-.781.781.781a.571.571,0,0,0,.808-.808Z" transform="translate(-208.273 -231.831)" fill="#2b597f"/>
        <path id="Path_13" data-name="Path 13" d="M253.9,66.374h-1.066a1.334,1.334,0,0,1-1.333-1.333V62.833a1.334,1.334,0,0,1,1.333-1.333H253.9a1.334,1.334,0,0,1,1.333,1.333v2.209A1.334,1.334,0,0,1,253.9,66.374Zm-1.066-3.732a.191.191,0,0,0-.19.19v2.209a.191.191,0,0,0,.19.19H253.9a.191.191,0,0,0,.19-.19V62.833a.191.191,0,0,0-.19-.19Z" transform="translate(-232.345 -56.816)" fill="#2b597f"/>
        <path id="Path_14" data-name="Path 14" d="M26.809,14.242V12.529H2.666a.762.762,0,0,1-.762-.762V1.828A1.615,1.615,0,0,1,3.427,0h-1.9A1.615,1.615,0,0,0,0,1.828V33.435a1.5,1.5,0,0,0,1.523,1.219h1.9A1.5,1.5,0,0,1,1.9,33.435V15a.762.762,0,0,1,.762-.762Z" fill="#2b597f"/>
      </g>
      <ellipse id="Ellipse_2" data-name="Ellipse 2" cx="8.15" cy="1.63" rx="8.15" ry="1.63" transform="translate(21.733 20.777)" fill="#fad207"/>
      <path id="Path_15" data-name="Path 15" d="M306.69,426.75v3.6c0,1.142-3.512,1.752-7.845,1.752S291,431.491,291,430.349v-3.6c0,1.142,3.512,1.752,7.845,1.752S306.69,427.892,306.69,426.75Z" transform="translate(-268.837 -394.248)" fill="#fad207"/>
      <path id="Path_16" data-name="Path 16" d="M306.69,379.5v3.6c0,1.142-3.512,1.752-7.845,1.752S291,384.241,291,383.1v-3.6c0,1.142,3.512,1.752,7.845,1.752S306.69,380.643,306.69,379.5Z" transform="translate(-268.837 -350.596)" fill="#faa515"/>
      <path id="Path_17" data-name="Path 17" d="M306.69,332.25v3.6c0,1.142-3.512,1.752-7.845,1.752S291,336.991,291,335.849v-3.6c0,1.142,3.512,1.752,7.845,1.752S306.69,333.392,306.69,332.25Z" transform="translate(-268.837 -306.945)" fill="#fad207"/>
      <path id="Path_18" data-name="Path 18" d="M306.69,285v3.6c0,1.142-3.512,1.752-7.845,1.752S291,289.741,291,288.6V285c0,1.142,3.512,1.752,7.845,1.752S306.69,286.142,306.69,285Z" transform="translate(-268.837 -263.294)" fill="#faa515"/>
      <path id="Path_19" data-name="Path 19" d="M224.717,347.379a.571.571,0,0,1-.4-.975l2.59-2.59a.571.571,0,0,1,.808.808l-2.59,2.59A.569.569,0,0,1,224.717,347.379Z" transform="translate(-207.074 -317.474)" fill="#2b597f"/>
      <circle id="Ellipse_3" data-name="Ellipse 3" cx="0.571" cy="0.571" r="0.571" transform="translate(17.251 26.01)" fill="#2b597f"/>
      <circle id="Ellipse_4" data-name="Ellipse 4" cx="0.571" cy="0.571" r="0.571" transform="translate(19.536 28.904)" fill="#2b597f"/>
    </g>
  </g>
</svg>
