<svg xmlns="http://www.w3.org/2000/svg" xmlns:xlink="http://www.w3.org/1999/xlink" width="60" height="59.998" viewBox="0 0 60 59.998">
  <defs>
    <clipPath id="clip-path">
      <rect id="Rectangle_11103" data-name="Rectangle 11103" width="14" height="41" transform="translate(125.918 17.303)" fill="#fff" stroke="#707070" stroke-width="1"/>
    </clipPath>
  </defs>
  <g id="apartment_management" transform="translate(0.018)">
    <path id="Path_80" data-name="Path 80" d="M29.991,0A29.991,29.991,0,0,0,19.018,57.908l40.694-31.96A30,30,0,0,0,29.991,0Z" fill="#82a7f8"/>
    <path id="Path_81" data-name="Path 81" d="M122.287,69.558,89.82,52.727,76.65,88.2l4.891,13.317a30.017,30.017,0,0,0,40.745-31.956Z" transform="translate(-62.577 -43.604)" fill="#5a88ed"/>
    <g id="noun-apartment-2026823" transform="translate(-98.936 -10.795)">
      <path id="Union_4" data-name="Union 4" d="M22760.92,22234.391v-26.781l13.383-9.3,13.469,9.311v8.824c-.086,0-.172-.006-.264-.006a12.151,12.151,0,0,0-4.3.8.64.64,0,0,0-.268-.057h-6.686a.7.7,0,0,0-.7.68v5a.7.7,0,0,0,.7.688h.229a12.064,12.064,0,0,0-.857,2.67h-4.2a2.421,2.421,0,0,0-2.418,2.414v5.758Zm4.045-16.521v4.992a.688.688,0,0,0,.686.688h6.715a.686.686,0,0,0,.484-.2.673.673,0,0,0,.2-.486v-4.992a.667.667,0,0,0-.2-.486.674.674,0,0,0-.484-.205h-6.715A.689.689,0,0,0,22764.965,22217.869Zm10.586-9.293v4.986a.691.691,0,0,0,.686.693h6.715a.7.7,0,0,0,.484-.2.686.686,0,0,0,.2-.492v-4.986a.69.69,0,0,0-.2-.492.7.7,0,0,0-.484-.2h-6.715A.689.689,0,0,0,22775.551,22208.576Zm-10.586,0v4.986a.691.691,0,0,0,.686.693h6.715a.687.687,0,0,0,.686-.693v-4.986a.684.684,0,0,0-.686-.691h-6.715A.689.689,0,0,0,22764.965,22208.576Zm11.963,13.594v-3.613h3.77a11.937,11.937,0,0,0-3.477,3.613Zm-10.586,0v-3.613h5.336v3.613Zm10.58-9.293v-3.615h5.336v3.615Zm-10.58,0v-3.615h5.336v3.615Z" transform="translate(-22648.256 -22179)" fill="#f7f9fa"/>
      <path id="Path_16231" data-name="Path 16231" d="M324.887,267.3a10.768,10.768,0,1,0,7.6,3.154A10.755,10.755,0,0,0,324.887,267.3Zm4.542,16.647a.689.689,0,0,1-.811.037l-3.731-2.472-3.731,2.472a.688.688,0,0,1-1.023-.821l4.112-10.707h0a.689.689,0,0,1,1.286,0l4.112,10.707a.689.689,0,0,1-.212.784Z" transform="translate(-185.616 -228.484)" fill="#00ddc1"/>
      <path id="Path_16235" data-name="Path 16235" d="M238.016,391.56h-4.009a1.046,1.046,0,0,0-1.039,1.041v5.758h6.488a12.1,12.1,0,0,1-1.479-5.815c0-.327.013-.64.039-.984Z" transform="translate(-110.84 -342.967)" fill="#ffe377"/>
      <path id="Path_16236" data-name="Path 16236" d="M416.55,367.391l2.317-1.535h0a.689.689,0,0,1,.761,0l2.317,1.535-2.7-7.024Z" transform="translate(-279.976 -314.229)" fill="#f7f9fa"/>
      <g id="Mask_Group_65" data-name="Mask Group 65" clip-path="url(#clip-path)">
        <path id="Path_16237" data-name="Path 16237" d="M127.367,47.216a12.017,12.017,0,0,1,.861-2.668H128a.7.7,0,0,1-.706-.688v-5A.7.7,0,0,1,128,38.18h6.683a.633.633,0,0,1,.269.055,12.01,12.01,0,0,1,4.3-.8c.1,0,.178,0,.264.006V28.614L126.046,19.3l-13.383,9.31v26.78h8.09V49.634a2.425,2.425,0,0,1,2.416-2.418Zm8.016-12.651a.688.688,0,0,1-.688.688h-6.713a.689.689,0,0,1-.688-.688V29.574a.689.689,0,0,1,.688-.688h6.713a.688.688,0,0,1,.688.688Zm-10.585,0a.688.688,0,0,1-.688.688H117.4a.689.689,0,0,1-.688-.688V29.574a.689.689,0,0,1,.688-.688h6.713a.688.688,0,0,1,.688.688Zm0,9.294a.688.688,0,0,1-.688.688H117.4a.689.689,0,0,1-.688-.688V38.868a.689.689,0,0,1,.688-.688h6.713a.688.688,0,0,1,.688.688Z" fill="#e5e5e8"/>
      </g>
    </g>
  </g>
</svg>
