<svg xmlns="http://www.w3.org/2000/svg" xmlns:xlink="http://www.w3.org/1999/xlink" width="60" height="59.998" viewBox="0 0 60 59.998">
  <defs>
    <clipPath id="clip-path">
      <rect id="Rectangle_11101" data-name="Rectangle 11101" width="8" height="18" transform="translate(110.723 71.914)" fill="#fff"/>
    </clipPath>
    <clipPath id="clip-path-2">
      <rect id="Rectangle_11102" data-name="Rectangle 11102" width="14" height="33" transform="translate(96.723 56.914)" fill="#fff" stroke="#707070" stroke-width="1"/>
    </clipPath>
  </defs>
  <g id="asset_managment" transform="translate(0.018)">
    <path id="Path_80" data-name="Path 80" d="M29.991,0A29.991,29.991,0,0,0,19.018,57.908l40.694-31.96A30,30,0,0,0,29.991,0Z" fill="#366796"/>
    <path id="Path_81" data-name="Path 81" d="M122.287,69.558,94.732,57.336,77.3,87.5l4.238,14.017a30.017,30.017,0,0,0,40.745-31.956Z" transform="translate(-62.577 -43.604)" fill="#273b7a"/>
    <g id="noun-asset-4139477" transform="translate(-71.739 -44.406)">
      <ellipse id="Ellipse_94" data-name="Ellipse 94" cx="4.5" cy="6.5" rx="4.5" ry="6.5" transform="translate(93.723 66.914)" fill="#4b5055"/>
      <path id="Path_16224" data-name="Path 16224" d="M418.616,280h-9.492a.791.791,0,0,0-.791.791v13.447a.791.791,0,0,0,.791.791h9.492a.791.791,0,0,0,.791-.791V280.791a.791.791,0,0,0-.791-.791Zm-3.955,5.537v1.582h-1.582v-1.582Zm3.164,0v1.582h-1.582v-1.582Zm-6.328,1.582h-1.582v-1.582H411.5Zm-1.582,1.582H411.5v1.582h-1.582Zm3.164,0h1.582v1.582h-1.582Zm3.164,0h1.582v1.582h-1.583Zm-6.328-7.119h7.91v2.373h-7.91Zm0,10.284H411.5v1.582h-1.583Zm3.164,0h1.582v1.582h-1.583Zm4.746,1.582h-1.583v-1.582h1.582Z" transform="translate(-302.79 -206.64)" fill="#e5e5e8"/>
      <path id="Path_16225" data-name="Path 16225" d="M152.063,65.449a.917.917,0,0,0-.229-.562l-6.328-6.328h0a.919.919,0,0,0-.562-.229H129.123a.791.791,0,0,0-.791.791V87.6a.791.791,0,0,0,.791.791h15.821a.791.791,0,0,0,.791-.791V74.151a2.373,2.373,0,0,1,2.373-2.373h3.164a.791.791,0,0,0,.791-.791Zm-7.119,0V59.912l5.537,5.537Zm-2.373,7.119a.791.791,0,0,1,.791.791v3.164a.791.791,0,0,1-.791.791h-1.582v.791a.791.791,0,1,1-1.582,0v-.791h-1.582a.791.791,0,0,1,0-1.582h3.955V74.151h-3.955a.791.791,0,0,1-.791-.791V70.2a.791.791,0,0,1,.791-.791h1.582v-.791a.791.791,0,1,1,1.582,0V69.4h1.582a.791.791,0,1,1,0,1.582h-3.955v1.582Z" transform="translate(-41.774 0)" fill="#ffe377"/>
      <g id="Mask_Group_63" data-name="Mask Group 63" clip-path="url(#clip-path)">
        <path id="Path_16227" data-name="Path 16227" d="M418.616,280h-9.492a.791.791,0,0,0-.791.791v13.447a.791.791,0,0,0,.791.791h9.492a.791.791,0,0,0,.791-.791V280.791a.791.791,0,0,0-.791-.791Zm-3.955,5.537v1.582h-1.582v-1.582Zm3.164,0v1.582h-1.582v-1.582Zm-6.328,1.582h-1.582v-1.582H411.5Zm-1.582,1.582H411.5v1.582h-1.582Zm3.164,0h1.582v1.582h-1.582Zm3.164,0h1.582v1.582h-1.583Zm-6.328-7.119h7.91v2.373h-7.91Zm0,10.284H411.5v1.582h-1.583Zm3.164,0h1.582v1.582h-1.583Zm4.746,1.582h-1.583v-1.582h1.582Z" transform="translate(-302.789 -206.641)" fill="#d1d1d6"/>
      </g>
      <g id="Mask_Group_64" data-name="Mask Group 64" clip-path="url(#clip-path-2)">
        <path id="Path_16228" data-name="Path 16228" d="M152.063,65.449a.917.917,0,0,0-.229-.562l-6.328-6.328h0a.919.919,0,0,0-.562-.229H129.123a.791.791,0,0,0-.791.791V87.6a.791.791,0,0,0,.791.791h15.821a.791.791,0,0,0,.791-.791V74.151a2.373,2.373,0,0,1,2.373-2.373h3.164a.791.791,0,0,0,.791-.791Zm-7.119,0V59.912l5.537,5.537Zm-2.373,7.119a.791.791,0,0,1,.791.791v3.164a.791.791,0,0,1-.791.791h-1.582v.791a.791.791,0,1,1-1.582,0v-.791h-1.582a.791.791,0,0,1,0-1.582h3.955V74.151h-3.955a.791.791,0,0,1-.791-.791V70.2a.791.791,0,0,1,.791-.791h1.582v-.791a.791.791,0,1,1,1.582,0V69.4h1.582a.791.791,0,1,1,0,1.582h-3.955v1.582Z" transform="translate(-41.773)" fill="#ffc61b"/>
      </g>
    </g>
  </g>
</svg>
