<svg id="crm" xmlns="http://www.w3.org/2000/svg" width="60" height="60" viewBox="0 0 60 60">
  <path id="Path_47" data-name="Path 47" d="M60,30A30,30,0,1,1,30,0,30,30,0,0,1,60,30Zm0,0" fill="#06ccab"/>
  <path id="Path_48" data-name="Path 48" d="M83.109,159.547c13.793-2.029,24.481-12.724,25.4-25.9l-7.745-9.311-2.933,2.831-5.905-5.487L88.94,131.923,76.806,118.629l-3.042,1.994L68.633,116.5,55.7,127.172l4.517,5.374-.428,2.448Zm0,0" transform="translate(-48.572 -99.895)" fill="#11a892"/>
  <path id="Path_49" data-name="Path 49" d="M76.961,129.575v-2.793l-2.066-.355a9.865,9.865,0,0,0-1.489-3.745l1.221-1.776-1.893-1.975-1.7,1.273a9.031,9.031,0,0,0-3.591-1.553L67.1,116.5H64.421l-.34,2.155a9.039,9.039,0,0,0-3.592,1.553l-1.7-1.273-1.893,1.975,1.221,1.776a9.851,9.851,0,0,0-1.489,3.745l-2.066.355v2.793l2.066.355a9.856,9.856,0,0,0,1.489,3.746l-1.221,1.775,1.893,1.975,1.7-1.273a9.033,9.033,0,0,0,3.592,1.553l.34,2.155H67.1l.341-2.155a9.031,9.031,0,0,0,3.591-1.553l1.7,1.273,1.893-1.975-1.221-1.775a9.869,9.869,0,0,0,1.489-3.746Zm-17.386-1.4a6.19,6.19,0,1,1,6.185,6.45A6.321,6.321,0,0,1,59.575,128.178Zm0,0" transform="translate(-47.611 -102.226)" fill="#555a66"/>
  <path id="Path_50" data-name="Path 50" d="M169.959,126.426a9.636,9.636,0,0,0-1.553-3.745l1.273-1.776L167.7,118.93l-1.776,1.273a9.629,9.629,0,0,0-3.745-1.553l-.355-2.155h-1.469v5.234l.072,0a6.45,6.45,0,1,1,0,12.9l-.072,0v5.234h1.469l.355-2.155a9.629,9.629,0,0,0,3.745-1.553l1.776,1.273,1.975-1.975-1.273-1.775a9.641,9.641,0,0,0,1.553-3.746l2.155-.355v-2.793Zm0,0" transform="translate(-141.251 -102.226)" fill="#333940"/>
  <path id="Path_51" data-name="Path 51" d="M275.188,176.863V174.07l-2.155-.355a9.641,9.641,0,0,0-1.553-3.746l1.273-1.775-1.975-1.975L269,167.492a9.623,9.623,0,0,0-3.745-1.553l-.355-2.155H262.11l-.355,2.155a9.623,9.623,0,0,0-3.745,1.553l-1.776-1.273-1.975,1.975,1.273,1.775a9.634,9.634,0,0,0-1.552,3.746l-2.155.355v2.793l2.155.355a9.629,9.629,0,0,0,1.552,3.745l-1.273,1.776,1.975,1.975,1.776-1.273a9.636,9.636,0,0,0,3.745,1.553l.355,2.155H264.9l.355-2.155A9.636,9.636,0,0,0,269,183.441l1.776,1.273,1.975-1.975-1.273-1.776a9.63,9.63,0,0,0,1.553-3.745Zm-18.132-1.4a6.45,6.45,0,1,1,6.45,6.45A6.45,6.45,0,0,1,257.056,175.467Zm0,0" transform="translate(-220.373 -143.722)" fill="#333940"/>
  <path id="Path_52" data-name="Path 52" d="M368.066,173.712a9.64,9.64,0,0,0-1.552-3.746l1.273-1.775-1.975-1.975-1.776,1.273a9.623,9.623,0,0,0-3.745-1.553l-.355-2.155H358.57v5.233a6.449,6.449,0,0,1,0,12.9v5.233h1.365l.355-2.155a9.636,9.636,0,0,0,3.745-1.553l1.776,1.273,1.975-1.975-1.273-1.776a9.628,9.628,0,0,0,1.552-3.745l2.155-.355v-2.793Zm0,0" transform="translate(-315.406 -143.719)" fill="#23272b"/>
  <path id="Path_53" data-name="Path 53" d="M115.92,170.819a7.038,7.038,0,1,1-7.038-7.038A7.038,7.038,0,0,1,115.92,170.819Zm0,0" transform="translate(-90.01 -144.541)" fill="#fff"/>
  <path id="Path_54" data-name="Path 54" d="M160.434,163.781l-.079,0v14.072l.079,0a7.038,7.038,0,0,0,0-14.076Zm0,0" transform="translate(-141.165 -144.541)" fill="#e9edf5"/>
  <g id="Group_3" data-name="Group 3" transform="translate(14.305 20.854)">
    <path id="Path_55" data-name="Path 55" d="M141.085,187.756a2.884,2.884,0,1,1-2.884-2.885A2.884,2.884,0,0,1,141.085,187.756Zm0,0" transform="translate(-133.557 -184.871)" fill="#ffbeaa"/>
    <path id="Path_56" data-name="Path 56" d="M160.433,184.871l-.074,0v5.765l.074,0a2.885,2.885,0,0,0,0-5.769Zm0,0" transform="translate(-155.648 -184.871)" fill="#e09380"/>
    <path id="Path_57" data-name="Path 57" d="M120.148,241.207a6.64,6.64,0,0,0,9.173,0,4.942,4.942,0,0,0-9.173,0Zm0,0" transform="translate(-120.148 -231.712)" fill="#ffce00"/>
    <path id="Path_58" data-name="Path 58" d="M165.02,241.207a4.943,4.943,0,0,0-4.587-3.1l-.074,0v4.937l.074,0A6.616,6.616,0,0,0,165.02,241.207Zm0,0" transform="translate(-155.606 -231.712)" fill="#ffb600"/>
  </g>
  <path id="Path_59" data-name="Path 59" d="M312.1,217.563a6.493,6.493,0,1,1-6.493-6.493A6.493,6.493,0,0,1,312.1,217.563Zm0,0" transform="translate(-262.387 -185.862)" fill="#fff"/>
  <path id="Path_60" data-name="Path 60" d="M365.032,217.567a6.493,6.493,0,0,0-6.462-6.493v12.985A6.493,6.493,0,0,0,365.032,217.567Zm0,0" transform="translate(-315.203 -185.866)" fill="#dce1eb"/>
  <g id="Group_2" data-name="Group 2" transform="translate(1 -1)">
    <path id="Path_61" data-name="Path 61" d="M338.219,234.981a2.821,2.821,0,1,1-2.821-2.82A2.821,2.821,0,0,1,338.219,234.981Zm0,0" transform="translate(-293.327 -204.761)" fill="#ffbeaa"/>
    <path id="Path_62" data-name="Path 62" d="M361.359,234.984a2.821,2.821,0,0,0-2.789-2.82v5.64A2.82,2.82,0,0,0,361.359,234.984Zm0,0" transform="translate(-316.411 -204.764)" fill="#e09380"/>
    <path id="Path_63" data-name="Path 63" d="M317.41,288.427a6.492,6.492,0,0,0,8.97,0,4.833,4.833,0,0,0-8.97,0Zm0,0" transform="translate(-279.764 -251.75)" fill="#ff7045"/>
    <path id="Path_64" data-name="Path 64" d="M358.57,285.4v4.829a6.47,6.47,0,0,0,4.453-1.8A4.833,4.833,0,0,0,358.57,285.4Zm0,0" transform="translate(-316.32 -251.753)" fill="#de4726"/>
  </g>
</svg>
