<svg xmlns="http://www.w3.org/2000/svg" xmlns:xlink="http://www.w3.org/1999/xlink" width="60" height="60" viewBox="0 0 60 60">
  <defs>
    <clipPath id="clip-path">
      <circle id="Ellipse_5" data-name="Ellipse 5" cx="30" cy="30" r="30" transform="translate(-572 -1656)" fill="#c3e1fa"/>
    </clipPath>
  </defs>
  <g id="digital_signature" transform="translate(572 1656)">
    <circle id="Ellipse_1" data-name="Ellipse 1" cx="30" cy="30" r="30" transform="translate(-572 -1656)" fill="#f7cd1b"/>
    <g id="Mask_Group_1" data-name="Mask Group 1" clip-path="url(#clip-path)">
      <path id="Path_20" data-name="Path 20" d="M-552.746-1609.123l16.834,23.331,34.038-25.588-29.347-29.786-16.131,12.072C-550.884-1625.679-552.746-1609.123-552.746-1609.123Z" transform="translate(-0.117 -1.589)" fill="#f2a415"/>
    </g>
    <g id="Group_12978" data-name="Group 12978" transform="translate(-2.452 -1.452)">
      <path id="Path_16210" data-name="Path 16210" d="M8.883.239,19.637,0c1.808,0,4.69,3.055,4.69,4.862l-1.417,23.5a3.273,3.273,0,0,1-3.273,3.273H3.273A3.273,3.273,0,0,1,0,28.365V11.014C0,9.206,7.076.239,8.883.239Z" transform="translate(-551.327 -1640.857)" fill="#fff"/>
      <g id="ic" transform="translate(-559.401 -1642.571)">
        <path id="Path_16205" data-name="Path 16205" d="M237.375,43.089a3.111,3.111,0,0,1-2.489,3.049V66.11a3.744,3.744,0,0,1-3.733,3.733H213.732A3.744,3.744,0,0,1,210,66.11V64.866a1.244,1.244,0,1,1,2.489,0V66.11a1.244,1.244,0,0,0,1.244,1.244h17.421A1.244,1.244,0,0,0,232.4,66.11V44.956a1.244,1.244,0,0,1,1.244-1.244h.622a.622.622,0,0,0,0-1.244h-5.6a1.244,1.244,0,1,1,0-2.489H232.4V38.735a1.244,1.244,0,0,0-1.244-1.244h-8.71a1.244,1.244,0,0,0-1.244,1.244v6.222a1.244,1.244,0,0,1-1.244,1.244h-6.222a1.244,1.244,0,0,0-1.244,1.244,1.244,1.244,0,1,1-2.489,0V45.989a3.679,3.679,0,0,1,1.095-2.638l7.255-7.255A3.679,3.679,0,0,1,220.987,35h10.167a3.744,3.744,0,0,1,3.733,3.733v1.307a3.111,3.111,0,0,1,2.489,3.049Z" transform="translate(-202.534 -35.001)" fill="#2b597f"/>
        <path id="Path_16206" data-name="Path 16206" d="M120.826,220.693l-9.009-9a4.082,4.082,0,0,0-5.637,0,3.982,3.982,0,0,0,0,5.637l1.941,1.941,7.056,7.068h0a1.307,1.307,0,0,0,.883.361h3.883a1.244,1.244,0,0,0,1.244-1.244v-3.883a1.308,1.308,0,0,0-.361-.883Zm-12.892-5.114a1.517,1.517,0,0,1,0-2.128,1.558,1.558,0,0,1,2.128,0l1.058,1.058-2.115,2.128Z" transform="translate(-105.011 -198.083)" fill="#2b597f"/>
        <path id="Path_16207" data-name="Path 16207" d="M374.286,369.114l-.365.364-1.609-1.609h0a1.244,1.244,0,0,0-1.759,0l-2.489,2.489a1.244,1.244,0,0,0,1.759,1.759l1.609-1.609,1.609,1.609h0a1.244,1.244,0,0,0,1.759,0l1.244-1.244a1.244,1.244,0,0,0-1.759-1.759Z" transform="translate(-349.035 -343.862)" fill="#27bdf3"/>
        <path id="Path_16208" data-name="Path 16208" d="M358.711,297.5h-7.466a1.244,1.244,0,1,0,0,2.489h7.466a1.244,1.244,0,1,0,0-2.489Z" transform="translate(-332.58 -278.835)" fill="#27bdf3"/>
        <path id="Path_16209" data-name="Path 16209" d="M293.688,227.5H281.245a1.244,1.244,0,1,0,0,2.489h12.444a1.244,1.244,0,1,0,0-2.489Z" transform="translate(-267.557 -213.812)" fill="#27bdf3"/>
      </g>
    </g>
  </g>
</svg>
