<svg id="erp" xmlns="http://www.w3.org/2000/svg" width="60" height="60" viewBox="0 0 60 60">
  <path id="Path_39" data-name="Path 39" d="M60,30A30,30,0,1,1,30,0,30,30,0,0,1,60,30Zm0,0" fill="#7885e5"/>
  <path id="Path_40" data-name="Path 40" d="M109.631,79.6a30.287,30.287,0,0,0-.182-3.306L98.158,65l-3.6,3.312L82.4,56.152,56.152,82.4,67.769,94.017,65,98.158l11.291,11.291A30.038,30.038,0,0,0,109.631,79.6Zm0,0" transform="translate(-49.631 -49.631)" fill="#4a56ac"/>
  <path id="Path_41" data-name="Path 41" d="M218.567,189.424a5.662,5.662,0,1,1-5.662-5.663A5.663,5.663,0,0,1,218.567,189.424Zm0,0" transform="translate(-182.905 -162.182)" fill="#ffbeaa"/>
  <path id="Path_42" data-name="Path 42" d="M255.641,183.762h-.047v11.322h.047a5.662,5.662,0,1,0,0-11.325Zm0,0" transform="translate(-225.613 -162.182)" fill="#e09380"/>
  <path id="Path_43" data-name="Path 43" d="M187.369,294.5a12.957,12.957,0,0,0,9.018-3.639,9.7,9.7,0,0,0-18.035,0A12.957,12.957,0,0,0,187.369,294.5Zm0,0" transform="translate(-157.369 -251.312)" fill="#ffce00"/>
  <path id="Path_44" data-name="Path 44" d="M264.659,290.861a9.7,9.7,0,0,0-9.018-6.122h-.047v9.76h.047A12.957,12.957,0,0,0,264.659,290.861Zm0,0" transform="translate(-225.593 -251.312)" fill="#ffb600"/>
  <path id="Path_45" data-name="Path 45" d="M103.11,82.438V76.824l-4.331-.714a19.363,19.363,0,0,0-3.12-7.528l2.558-3.569-3.969-3.969L90.679,63.6a19.354,19.354,0,0,0-7.528-3.12l-.714-4.331H76.824l-.714,4.331a19.363,19.363,0,0,0-7.528,3.12l-3.569-2.558-3.969,3.969L63.6,68.583a19.354,19.354,0,0,0-3.12,7.528l-4.331.714v5.613l4.331.714a19.364,19.364,0,0,0,3.12,7.528l-2.558,3.569,3.969,3.969,3.569-2.559a19.356,19.356,0,0,0,7.528,3.12l.714,4.331h5.613l.714-4.331a19.357,19.357,0,0,0,7.528-3.12l3.569,2.559,3.969-3.969-2.559-3.569a19.354,19.354,0,0,0,3.12-7.528ZM66.668,79.631A12.963,12.963,0,1,1,79.631,92.594,12.963,12.963,0,0,1,66.668,79.631Zm0,0" transform="translate(-49.631 -49.631)" fill="#f2f6fc"/>
  <path id="Path_46" data-name="Path 46" d="M274.569,76.111a19.488,19.488,0,0,0-3.084-7.528l2.529-3.569-3.923-3.969L266.562,63.6a19.013,19.013,0,0,0-7.441-3.12l-.705-4.331h-2.822V66.668h.047a12.964,12.964,0,0,1,0,25.926h-.047V103.11h2.822l.705-4.331a19.023,19.023,0,0,0,7.441-3.12l3.529,2.558,3.923-3.969-2.53-3.569a19.477,19.477,0,0,0,3.084-7.528l4.281-.714V76.825Zm0,0" transform="translate(-225.372 -49.631)" fill="#dce1eb"/>
</svg>
