<svg xmlns="http://www.w3.org/2000/svg" xmlns:xlink="http://www.w3.org/1999/xlink" width="60" height="60" viewBox="0 0 60 60">
  <defs>
    <clipPath id="clip-path">
      <circle id="Ellipse_5" data-name="Ellipse 5" cx="30" cy="30" r="30" transform="translate(-572 -1656)" fill="#de4726"/>
    </clipPath>
    <clipPath id="clip-path-2">
      <rect id="Rectangle_11107" data-name="Rectangle 11107" width="17" height="28" transform="translate(0.084 0.176)" fill="#fff" stroke="#707070" stroke-width="1"/>
    </clipPath>
    <clipPath id="clip-path-3">
      <rect id="Rectangle_11108" data-name="Rectangle 11108" width="8" height="20" transform="translate(0.365 0.064)" fill="#1f0d1d" stroke="#707070" stroke-width="1"/>
    </clipPath>
  </defs>
  <g id="income_tax" transform="translate(572 1656)">
    <circle id="Ellipse_1" data-name="Ellipse 1" cx="30" cy="30" r="30" transform="translate(-572 -1656)" fill="#ff7045"/>
    <g id="Mask_Group_1" data-name="Mask Group 1" clip-path="url(#clip-path)">
      <path id="Path_20" data-name="Path 20" d="M-559.811-1617.48l23.9,31.688,34.038-25.588L-526.5-1635.3l-1.123,9.643c-.982.949-9.992,1.707-10,1.867C-541.885-1618.184-559.811-1617.48-559.811-1617.48Z" transform="translate(-0.117 -1.589)" fill="#de4726"/>
    </g>
    <g id="noun-income-tax-1685642" transform="translate(-636.096 -1681.867)">
      <circle id="Ellipse_97" data-name="Ellipse 97" cx="7" cy="7" r="7" transform="translate(97.095 57.867)" fill="#fff"/>
      <path id="Path_16261" data-name="Path 16261" d="M608.258,379.45c-.064-.192-.064-.383-.128-.575A1.864,1.864,0,0,0,608.258,379.45Z" transform="translate(-495.911 -315.904)"/>
      <path id="Path_16262" data-name="Path 16262" d="M403.043,302.393a1.89,1.89,0,0,1-.128-.639c0-.128-.064-.192-.128-.319s-.064-.256-.128-.383-.064-.192-.128-.319l-.192-.383c-.064-.064-.064-.192-.128-.255a2.587,2.587,0,0,1-.319-.575c-.064-.064-.128-.128-.128-.192-.064-.128-.192-.255-.255-.383-.064-.064-.128-.192-.192-.256-.064-.128-.192-.192-.256-.319a.882.882,0,0,1-.192-.256l-.064-.064a8.057,8.057,0,0,0-5.749-2.3,8.3,8.3,0,1,0,8.3,8.3C403.235,303.543,403.171,302.968,403.043,302.393ZM391.8,301.052a1.265,1.265,0,1,1,0,1.788A1.235,1.235,0,0,1,391.8,301.052Zm6.26,6.26a1.265,1.265,0,1,1,0-1.789A1.235,1.235,0,0,1,398.061,307.311Zm-6.26.958-.894-.894,7.218-7.218.894.894Z" transform="translate(-290.696 -238.847)" fill="#4b2746"/>
      <path id="Union_7" data-name="Union 7" d="M1.918,25.332A1.89,1.89,0,0,1,0,23.41V8.084A1.884,1.884,0,0,1,1.918,6.17H32.58V6.164a1.883,1.883,0,0,1,1.914,1.92V19.646a4.139,4.139,0,0,0-.641-.451,8.783,8.783,0,0,0-1.916-.957V12.555H31.3a3.165,3.165,0,0,1-3.193-3.191V8.721H6.391v.643A3.161,3.161,0,0,1,3.2,12.555H2.561v6.387H3.2a3.161,3.161,0,0,1,3.193,3.2v.637H20.313c.068-.062.068-.125.131-.191a7.717,7.717,0,0,0-.9,2.109c-.062.129-.062.32-.123.449a.221.221,0,0,0-.068.191Zm19.137-3.838h.025l-.125.129Q21,21.562,21.055,21.494Zm-13.453,0a4.4,4.4,0,0,0-3.768-3.77V13.832A4.4,4.4,0,0,0,7.6,10.063H26.895a4.407,4.407,0,0,0,3.77,3.77v3.893c-.129,0-.26.068-.383.068a11.681,11.681,0,0,0-1.533-.129,9.771,9.771,0,0,0-7.693,3.83Zm5.18-5.746a4.471,4.471,0,1,0,4.467-4.475A4.442,4.442,0,0,0,12.781,15.748ZM32.58,4.891h-20l18.91-1.854A1.984,1.984,0,0,1,33.6,4.828v.254A2.626,2.626,0,0,0,32.58,4.891ZM30.152.031a1.947,1.947,0,0,1,2.236,1.535l.061.32a3.065,3.065,0,0,0-.766-.129h-.32L11.5,3.74Z" transform="translate(75.488 38.091)" fill="#fff"/>
      <path id="Path_16264" data-name="Path 16264" d="M300.694,210a3.194,3.194,0,1,0,3.194,3.194A3.163,3.163,0,0,0,300.694,210Z" transform="translate(-207.957 -159.357)" fill="#fff"/>
      <path id="Path_16265" data-name="Path 16265" d="M385.88,339.072a2.776,2.776,0,0,0,.255-.447A3.668,3.668,0,0,0,385.88,339.072Z" transform="translate(-289.885 -278.592)"/>
      <g id="Mask_Group_68" data-name="Mask Group 68" transform="translate(93.012 37.691)" clip-path="url(#clip-path-2)">
        <path id="Union_8" data-name="Union 8" d="M1.918,25.332A1.89,1.89,0,0,1,0,23.41V8.084A1.884,1.884,0,0,1,1.918,6.17H32.58V6.164a1.883,1.883,0,0,1,1.914,1.92V19.646a4.139,4.139,0,0,0-.641-.451,8.783,8.783,0,0,0-1.916-.957V12.555H31.3a3.165,3.165,0,0,1-3.193-3.191V8.721H6.391v.643A3.161,3.161,0,0,1,3.2,12.555H2.561v6.387H3.2a3.161,3.161,0,0,1,3.193,3.2v.637H20.313c.068-.062.068-.125.131-.191a7.717,7.717,0,0,0-.9,2.109c-.062.129-.062.32-.123.449a.221.221,0,0,0-.068.191Zm19.137-3.838h.025l-.125.129Q21,21.562,21.055,21.494Zm-13.453,0a4.4,4.4,0,0,0-3.768-3.77V13.832A4.4,4.4,0,0,0,7.6,10.063H26.895a4.407,4.407,0,0,0,3.77,3.77v3.893c-.129,0-.26.068-.383.068a11.681,11.681,0,0,0-1.533-.129,9.771,9.771,0,0,0-7.693,3.83Zm5.18-5.746a4.471,4.471,0,1,0,4.467-4.475A4.442,4.442,0,0,0,12.781,15.748ZM32.58,4.891h-20l18.91-1.854A1.984,1.984,0,0,1,33.6,4.828v.254A2.626,2.626,0,0,0,32.58,4.891ZM30.152.031a1.947,1.947,0,0,1,2.236,1.535l.061.32a3.065,3.065,0,0,0-.766-.129h-.32L11.5,3.74Z" transform="translate(-17.522 0.402)" fill="#e9edf5"/>
      </g>
      <g id="Mask_Group_69" data-name="Mask Group 69" transform="translate(104.731 55.802)" clip-path="url(#clip-path-3)">
        <path id="Path_16273" data-name="Path 16273" d="M403.043,302.393a1.89,1.89,0,0,1-.128-.639c0-.128-.064-.192-.128-.319s-.064-.256-.128-.383-.064-.192-.128-.319l-.192-.383c-.064-.064-.064-.192-.128-.255a2.587,2.587,0,0,1-.319-.575c-.064-.064-.128-.128-.128-.192-.064-.128-.192-.255-.255-.383-.064-.064-.128-.192-.192-.256-.064-.128-.192-.192-.256-.319a.882.882,0,0,1-.192-.256l-.064-.064a8.057,8.057,0,0,0-5.749-2.3,8.3,8.3,0,1,0,8.3,8.3C403.235,303.543,403.171,302.968,403.043,302.393ZM391.8,301.052a1.265,1.265,0,1,1,0,1.788A1.235,1.235,0,0,1,391.8,301.052Zm6.26,6.26a1.265,1.265,0,1,1,0-1.789A1.235,1.235,0,0,1,398.061,307.311Zm-6.26.958-.894-.894,7.218-7.218.894.894Z" transform="translate(-395.428 -294.647)" fill="#1f0d1d"/>
      </g>
    </g>
  </g>
</svg>
