<svg xmlns="http://www.w3.org/2000/svg" xmlns:xlink="http://www.w3.org/1999/xlink" width="60" height="60" viewBox="0 0 60 60">
  <defs>
    <clipPath id="clip-path">
      <circle id="Ellipse_5" data-name="Ellipse 5" cx="30" cy="30" r="30" transform="translate(-572 -1656)" fill="#de4726"/>
    </clipPath>
    <clipPath id="clip-path-2">
      <path id="Path_16218" data-name="Path 16218" d="M-22926.836-22142.535l12.7-16.111-8.158-16.119-15.3,1.168Z" fill="none" stroke="#707070" stroke-width="1"/>
    </clipPath>
  </defs>
  <g id="ivr" transform="translate(572 1656)">
    <circle id="Ellipse_1" data-name="Ellipse 1" cx="30" cy="30" r="30" transform="translate(-572 -1656)" fill="#ff7045"/>
    <g id="Mask_Group_1" data-name="Mask Group 1" clip-path="url(#clip-path)">
      <path id="Path_20" data-name="Path 20" d="M-552.711-1620.91l16.8,35.118,34.038-25.588-27.706-28.534-10.408,9.6c-.982.949-8.182-6.582-8.186-6.422C-552.442-1631.126-552.711-1620.91-552.711-1620.91Z" transform="translate(-0.117 -1.589)" fill="#de4726"/>
    </g>
    <g id="Group_12981" data-name="Group 12981" transform="translate(22374 20531)">
      <path id="Path_16215" data-name="Path 16215" d="M-22854.3-22158h-6.973s-2.619.285-1.863,4.086,1.318,9.342,7.328,15.918,14.461,9.2,18.309,8.941,3.926-2.645,3.926-2.645v-6.3l-8.516-2.9-3.027,2.9-9.184-8.609,3.039-4.035Z" transform="translate(-68 -11.443)" fill="#e9edf5"/>
      <g id="Mask_Group_62" data-name="Mask Group 62" clip-path="url(#clip-path-2)">
        <path id="Path_16217" data-name="Path 16217" d="M-22854.3-22158h-6.973s-2.619.285-1.863,4.086,1.318,9.342,7.328,15.918,14.461,9.2,18.309,8.941,3.926-2.645,3.926-2.645v-6.3l-8.516-2.9-3.027,2.9-9.184-8.609,3.039-4.035Z" transform="translate(-68 -11.443)" fill="#fff"/>
      </g>
      <g id="Group_12981-2" data-name="Group 12981">
        <rect id="Rectangle_11092" data-name="Rectangle 11092" width="15" height="10" rx="5" transform="translate(-22918 -22175)" fill="#fed843"/>
        <path id="Path_16216" data-name="Path 16216" d="M-22850.27-22151.941h0v2.836s.717.549,1.236,0,3.045-3.3,3.045-3.3h-4.281" transform="translate(-65 -14)" fill="#fed843"/>
        <path id="Rectangle_11093" data-name="Rectangle 11093" d="M0,0H3A5,5,0,0,1,8,5V5a5,5,0,0,1-5,5H0a0,0,0,0,1,0,0V0A0,0,0,0,1,0,0Z" transform="translate(-22911 -22175)" fill="#fabe2c"/>
        <circle id="Ellipse_88" data-name="Ellipse 88" cx="1" cy="1" r="1" transform="translate(-22912 -22171)" fill="#4b2746"/>
        <circle id="Ellipse_89" data-name="Ellipse 89" cx="1" cy="1" r="1" transform="translate(-22915 -22171)" fill="#4b2746"/>
        <circle id="Ellipse_90" data-name="Ellipse 90" cx="1" cy="1" r="1" transform="translate(-22909 -22171)" fill="#4b2746"/>
      </g>
    </g>
  </g>
</svg>
