<svg xmlns="http://www.w3.org/2000/svg" width="60" height="59.998" viewBox="0 0 60 59.998">
  <g id="pharmacy" transform="translate(0.018)">
    <path id="Path_80" data-name="Path 80" d="M29.991,0A29.991,29.991,0,0,0,19.018,57.908l40.694-31.96A30,30,0,0,0,29.991,0Z" fill="#7885e5"/>
    <path id="Path_81" data-name="Path 81" d="M122.287,69.558,106.059,58.811,75.08,68.9l6.461,32.618a30.017,30.017,0,0,0,40.745-31.956Z" transform="translate(-62.577 -43.604)" fill="#4a56ac"/>
    <g id="noun-pharmacy-1863885" transform="translate(-66.112 -39.703)">
      <path id="Path_16239" data-name="Path 16239" d="M135.472,272.54a3.2,3.2,0,0,1-.86-.078c.078,6.568,2.267,10.946,6.568,13.37a2.064,2.064,0,0,0-.547,1.486,2.269,2.269,0,0,0,2.267,2.267h14.7a2.269,2.269,0,0,0,2.267-2.267,2.468,2.468,0,0,0-.547-1.486q6.568-3.519,6.568-13.37a2.929,2.929,0,0,1-.86.078Zm17.983,6.255h-2.424v2.424h-1.564v-2.424h-2.424v-1.564h2.424v-2.424h1.564v2.424h2.424Z" transform="translate(-55.099 -205.02)" fill="#f2f6fc"/>
      <path id="Path_16240" data-name="Path 16240" d="M125.082,57.981h-1.016l.391-.547a3.807,3.807,0,0,0-5.317-5.317l-8.522,5.864H95.527a3.987,3.987,0,0,0,0,7.975H125.16a4,4,0,0,0,3.987-3.987,4.125,4.125,0,0,0-4.065-3.987Z" transform="translate(-15.154 0)" fill="#ffce00"/>
    </g>
  </g>
</svg>
