<svg xmlns="http://www.w3.org/2000/svg" xmlns:xlink="http://www.w3.org/1999/xlink" width="60" height="60" viewBox="0 0 60 60">
  <defs>
    <clipPath id="clip-path">
      <circle id="Ellipse_5" data-name="Ellipse 5" cx="30" cy="30" r="30" transform="translate(-572 -1656)" fill="#c3e1fa"/>
    </clipPath>
    <clipPath id="clip-path-2">
      <rect id="Rectangle_11105" data-name="Rectangle 11105" width="14" height="42" transform="translate(133.006 57.266)" fill="#fff" stroke="#707070" stroke-width="1"/>
    </clipPath>
    <clipPath id="clip-path-3">
      <rect id="Rectangle_11106" data-name="Rectangle 11106" width="8" height="18" transform="translate(148.006 78.266)" fill="#fff" stroke="#707070" stroke-width="1"/>
    </clipPath>
  </defs>
  <g id="PLAGRISM" transform="translate(572 1656)">
    <circle id="Ellipse_1" data-name="Ellipse 1" cx="30" cy="30" r="30" transform="translate(-572 -1656)" fill="#06ccab"/>
    <g id="Mask_Group_1" data-name="Mask Group 1" clip-path="url(#clip-path)">
      <path id="Path_20" data-name="Path 20" d="M-555.416-1609.324l19.5,23.532,34.038-25.588-27.5-28.724-17.973,11.01C-550.884-1625.679-555.416-1609.324-555.416-1609.324Z" transform="translate(-0.117 -1.589)" fill="#11a892"/>
    </g>
    <g id="noun-content-2631936" transform="translate(-676.007 -1702.266)">
      <path id="Union_5" data-name="Union 5" d="M23193.193,22209.492a1.192,1.192,0,0,1-1.187-1.187v-28.852a1.194,1.194,0,0,1,1.188-1.189h1.959v.928a2.206,2.206,0,1,0,1.02,0v-.928h5.373v.928a2.208,2.208,0,1,0,1.014,0v-.928h5.373v.928a2.206,2.206,0,1,0,1.02,0v-.928h5.371v.928a2.209,2.209,0,1,0,1.016,0v-.928h2.465a1.194,1.194,0,0,1,1.188,1.189v17.318a8.374,8.374,0,0,0-6.945,7.523c-.023.238-.029.488-.029.723a8.367,8.367,0,0,0,1.3,4.475Zm2.459-5.43a.509.509,0,0,0,.514.506h14.625a.506.506,0,0,0,.508-.506.512.512,0,0,0-.508-.514h-14.625A.514.514,0,0,0,23195.652,22204.063Zm0-4.668a.509.509,0,0,0,.514.506h16.543a.507.507,0,1,0,0-1.014h-16.543A.511.511,0,0,0,23195.652,22199.395Zm0-4.668a.514.514,0,0,0,.514.512h18.664a.51.51,0,0,0,0-1.02h-18.664A.511.511,0,0,0,23195.652,22194.727Zm0-4.656a.511.511,0,0,0,.514.508h18.664a.51.51,0,0,0,0-1.02h-18.664A.507.507,0,0,0,23195.652,22190.07Zm17.988-8.74a1.189,1.189,0,1,1,1.189,1.188A1.188,1.188,0,0,1,23213.641,22181.33Zm-6.387,0a1.187,1.187,0,1,1,1.189,1.188A1.188,1.188,0,0,1,23207.254,22181.33Zm-6.391,0a1.188,1.188,0,1,1,1.188,1.188A1.19,1.19,0,0,1,23200.863,22181.33Zm-6.387,0a1.188,1.188,0,1,1,1.188,1.188A1.186,1.186,0,0,1,23194.477,22181.33Z" transform="translate(-23072.24 -22118)" fill="#fff"/>
      <circle id="Ellipse_96" data-name="Ellipse 96" cx="5.5" cy="5.5" r="5.5" transform="translate(143.006 81.266)" fill="#fff"/>
      <path id="Path_16249" data-name="Path 16249" d="M400.7,310.758a7.352,7.352,0,0,0-9.444,4.353,7,7,0,0,0-.424,1.909q-.025.318-.025.636a7.348,7.348,0,1,0,9.894-6.9Zm1.222,5.083-4.336,4.336a.517.517,0,0,1-.721,0l-2.461-2.461a.51.51,0,0,1,.721-.721l2.1,2.1,3.971-3.971a.51.51,0,0,1,.721-.008.526.526,0,0,1,0,.721Z" transform="translate(-250.011 -230.637)" fill="#ffce00"/>
      <g id="Mask_Group_66" data-name="Mask Group 66" clip-path="url(#clip-path-2)">
        <path id="Union_6" data-name="Union 6" d="M23193.193,22209.492a1.192,1.192,0,0,1-1.187-1.187v-28.852a1.194,1.194,0,0,1,1.188-1.189h1.959v.928a2.206,2.206,0,1,0,1.02,0v-.928h5.373v.928a2.208,2.208,0,1,0,1.014,0v-.928h5.373v.928a2.206,2.206,0,1,0,1.02,0v-.928h5.371v.928a2.209,2.209,0,1,0,1.016,0v-.928h2.465a1.194,1.194,0,0,1,1.188,1.189v17.318a8.374,8.374,0,0,0-6.945,7.523c-.023.238-.029.488-.029.723a8.367,8.367,0,0,0,1.3,4.475Zm2.459-5.43a.509.509,0,0,0,.514.506h14.625a.506.506,0,0,0,.508-.506.512.512,0,0,0-.508-.514h-14.625A.514.514,0,0,0,23195.652,22204.063Zm0-4.668a.509.509,0,0,0,.514.506h16.543a.507.507,0,1,0,0-1.014h-16.543A.511.511,0,0,0,23195.652,22199.395Zm0-4.668a.514.514,0,0,0,.514.512h18.664a.51.51,0,0,0,0-1.02h-18.664A.511.511,0,0,0,23195.652,22194.727Zm0-4.656a.511.511,0,0,0,.514.508h18.664a.51.51,0,0,0,0-1.02h-18.664A.507.507,0,0,0,23195.652,22190.07Zm5.211-8.74a1.188,1.188,0,1,1,1.188,1.188A1.19,1.19,0,0,1,23200.863,22181.33Zm-6.387,0a1.188,1.188,0,1,1,1.188,1.188A1.186,1.186,0,0,1,23194.477,22181.33Z" transform="translate(-23072.24 -22118)" fill="#dddcf3"/>
      </g>
      <g id="Mask_Group_67" data-name="Mask Group 67" clip-path="url(#clip-path-3)">
        <path id="Path_16256" data-name="Path 16256" d="M400.7,310.758a7.352,7.352,0,0,0-9.444,4.353,7,7,0,0,0-.424,1.909q-.025.318-.025.636a7.348,7.348,0,1,0,9.894-6.9Zm1.222,5.083-4.336,4.336a.517.517,0,0,1-.721,0l-2.461-2.461a.51.51,0,0,1,.721-.721l2.1,2.1,3.971-3.971a.51.51,0,0,1,.721-.008.526.526,0,0,1,0,.721Z" transform="translate(-250.012 -230.637)" fill="#ffb600"/>
      </g>
      <path id="Path_16257" data-name="Path 16257" d="M236.332,85.626a1.188,1.188,0,1,1-1.188-1.188,1.188,1.188,0,0,1,1.188,1.188" transform="translate(-105.332 -22.297)" fill="#fff"/>
      <path id="Path_16258" data-name="Path 16258" d="M153.972,85.626a1.188,1.188,0,1,1-1.188-1.188,1.188,1.188,0,0,1,1.188,1.188" transform="translate(-29.361 -22.297)" fill="#fff"/>
      <path id="Path_16259" data-name="Path 16259" d="M236.332,85.626a1.188,1.188,0,1,1-1.188-1.188,1.188,1.188,0,0,1,1.188,1.188" transform="translate(-92.561 -22.297)" fill="#fff"/>
      <path id="Path_16260" data-name="Path 16260" d="M153.972,85.626a1.188,1.188,0,1,1-1.188-1.188,1.188,1.188,0,0,1,1.188,1.188" transform="translate(-16.59 -22.297)" fill="#fff"/>
    </g>
  </g>
</svg>
