<svg xmlns="http://www.w3.org/2000/svg" width="60" height="60" viewBox="0 0 60 60">
  <g id="pos" transform="translate(0 0.67)">
    <g id="Group_22" data-name="Group 22" transform="translate(0 -0.427)">
      <g id="Group_21" data-name="Group 21">
        <g id="Group_20" data-name="Group 20">
          <g id="Group_19" data-name="Group 19">
            <circle id="Ellipse_7" data-name="Ellipse 7" cx="30" cy="30" r="30" transform="translate(0 -0.243)" fill="#8078be"/>
          </g>
        </g>
      </g>
    </g>
    <path id="Path_90" data-name="Path 90" d="M171.124,71.8,161,79.9l4.6,4.6-2.594,2.863,5.342,5.342a29.717,29.717,0,0,0,33.213-32.638L179.417,37.92Z" transform="translate(-142.319 -33.602)" fill="#514899"/>
    <g id="Group_34" data-name="Group 34" transform="translate(18.682 4.318)">
      <g id="Group_23" data-name="Group 23" transform="translate(3.595)">
        <path id="Path_91" data-name="Path 91" d="M236.048,37.92l-1.482,1.48-1.482-1.482L231.6,39.4l-3.182,6.131,3.207,5.775h7.385V37.92l-1.48,1.48Z" transform="translate(-224.192 -37.92)" fill="#e5e5e8"/>
        <path id="Path_92" data-name="Path 92" d="M199.394,39.4l-1.482-1.482L196.43,39.4l-1.482-1.482L193.466,39.4l-1.482-1.482v13.39h7.41Z" transform="translate(-191.984 -37.92)" fill="#f7f9fa"/>
      </g>
      <g id="Group_24" data-name="Group 24" transform="translate(0 9)">
        <path id="Path_93" data-name="Path 93" d="M172.033,148.462H161V115.483h11.032l2.1,17.5Z" transform="translate(-161.001 -115.483)" fill="#e5e5e8"/>
        <path id="Path_94" data-name="Path 94" d="M255.925,115.483h11.032v32.979H255.925Z" transform="translate(-244.91 -115.483)" fill="#d1d1d6"/>
      </g>
      <g id="Group_25" data-name="Group 25" transform="translate(0.995 37.714)">
        <path id="Path_95" data-name="Path 95" d="M179.61,365.864H169.573v-2.935H179.61l1.906,1.513Z" transform="translate(-169.573 -362.929)" fill="#696e73"/>
        <path id="Path_96" data-name="Path 96" d="M255.932,362.929h10.037v2.935H255.932Z" transform="translate(-245.911 -362.929)" fill="#4b5055"/>
      </g>
      <g id="Group_30" data-name="Group 30" transform="translate(2.007 12.261)">
        <g id="Group_26" data-name="Group 26">
          <path id="Path_97" data-name="Path 97" d="M187.322,154.1H178.3V143.585h9.023l1.713,5.423Z" transform="translate(-178.299 -143.585)" fill="#00ddc1"/>
          <path id="Path_98" data-name="Path 98" d="M255.939,143.585h9.024V154.1h-9.024Z" transform="translate(-246.93 -143.585)" fill="#00baa0"/>
        </g>
        <g id="Group_27" data-name="Group 27" transform="translate(6.913 12.474)">
          <path id="Path_99" data-name="Path 99" d="M239.979,253.675h-2.1v-2.589h2.1l.4,1.335Z" transform="translate(-237.874 -251.086)" fill="#696e73"/>
          <path id="Path_100" data-name="Path 100" d="M255.986,251.086h2.105v2.589h-2.1Z" transform="translate(-253.884 -251.086)" fill="#4b5055"/>
        </g>
        <g id="Group_28" data-name="Group 28" transform="translate(6.913 17.019)">
          <path id="Path_101" data-name="Path 101" d="M239.979,292.844h-2.1v-2.589h2.1l.4,1.335Z" transform="translate(-237.874 -290.255)" fill="#696e73"/>
          <path id="Path_102" data-name="Path 102" d="M255.986,290.255h2.105v2.589h-2.1Z" transform="translate(-253.884 -290.255)" fill="#4b5055"/>
        </g>
        <g id="Group_29" data-name="Group 29" transform="translate(6.913 21.565)">
          <path id="Path_103" data-name="Path 103" d="M239.979,332.013h-2.1v-2.589h2.1l.4,1.335Z" transform="translate(-237.874 -329.424)" fill="#696e73"/>
          <path id="Path_104" data-name="Path 104" d="M255.986,329.424h2.105v2.589h-2.1Z" transform="translate(-253.884 -329.424)" fill="#4b5055"/>
        </g>
        <path id="Path_105" data-name="Path 105" d="M178.3,251.086v2.589h4.207v-2.589Zm0,7.134h4.207v-2.589H178.3Z" transform="translate(-178.299 -238.612)" fill="#696e73"/>
        <path id="Path_106" data-name="Path 106" d="M297.449,251.086v2.589h4.207v-2.589Zm0,7.134h4.207v-2.589h-4.207Z" transform="translate(-283.623 -238.612)" fill="#4b5055"/>
        <path id="Path_107" data-name="Path 107" d="M178.3,329.424h4.207v2.589H178.3Z" transform="translate(-178.299 -307.859)" fill="#f9163d"/>
        <path id="Path_108" data-name="Path 108" d="M297.449,329.424h4.207v2.589h-4.207Z" transform="translate(-283.623 -307.859)" fill="#00baa0"/>
      </g>
      <g id="Group_33" data-name="Group 33" transform="translate(2.007 38.926)">
        <g id="Group_31" data-name="Group 31">
          <path id="Path_109" data-name="Path 109" d="M187.322,383.891H178.3V373.373h9.023l1.713,5.423Z" transform="translate(-178.299 -373.373)" fill="#ffe377"/>
          <path id="Path_110" data-name="Path 110" d="M264.962,383.891h-9.023V373.373h1.935l1.044.949,1.044-.949h1.325l.87.949.87-.949h1.935Z" transform="translate(-246.93 -373.373)" fill="#ffd944"/>
        </g>
        <path id="Path_111" data-name="Path 111" d="M0,0H7.017V4.309H0Z" transform="translate(3.557 8.146) rotate(-90)" fill="#edbe00"/>
        <g id="Group_32" data-name="Group 32" transform="translate(10.944)">
          <path id="Path_112" data-name="Path 112" d="M0,0H5.091V2.089H0Z" transform="translate(0 8.146) rotate(-90)" fill="#8078be"/>
          <path id="Path_113" data-name="Path 113" d="M0,0H1.875V2.089H0Z" transform="translate(0 1.875) rotate(-90)" fill="#8078be"/>
        </g>
        <path id="Path_114" data-name="Path 114" d="M0,0H8.145V1.741H0Z" transform="translate(14.357 8.146) rotate(-90)" fill="#514899"/>
      </g>
    </g>
  </g>
</svg>
