<svg xmlns="http://www.w3.org/2000/svg" width="60" height="59.998" viewBox="0 0 60 59.998">
  <g id="sales_force" transform="translate(0.018)">
    <path id="Path_80" data-name="Path 80" d="M29.991,0A29.991,29.991,0,0,0,19.018,57.908l40.694-31.96A30,30,0,0,0,29.991,0Z" fill="#ff7045"/>
    <path id="Path_81" data-name="Path 81" d="M122.287,69.558,96.6,60.48,90.576,71.029,77.4,72.637l4.141,28.878a30.017,30.017,0,0,0,40.745-31.956Z" transform="translate(-62.577 -43.604)" fill="#de4726"/>
    <g id="noun-sales-3812663" transform="translate(-60.989 -12.251)">
      <path id="Path_16241" data-name="Path 16241" d="M148.72,72.584h.246a12.977,12.977,0,0,0-11.754-11.017,1.026,1.026,0,0,0-1.106.983V73.486a1.006,1.006,0,0,1-.983,1.024H124.147a1.026,1.026,0,0,0-.983,1.106,12.975,12.975,0,0,0,12.369,11.877,10.429,10.429,0,0,1-.082-1.6,13.223,13.223,0,0,1,13.27-13.311Z" transform="translate(-48.913 -36.333)" fill="#dce1eb"/>
      <path id="Path_16242" data-name="Path 16242" d="M96.908,34.326V23.391A1.033,1.033,0,0,0,95.8,22.367,13.038,13.038,0,0,0,83.966,34.2a1.011,1.011,0,0,0,1.024,1.106H95.925a1,1,0,0,0,.983-.983Z" transform="translate(-12.582 0)" fill="#f2f6fc"/>
      <path id="Path_16243" data-name="Path 16243" d="M339.761,250.32A10.505,10.505,0,1,0,350.246,260.8,10.478,10.478,0,0,0,339.761,250.32Zm1.024,15.686v1.147a.411.411,0,0,1-.41.41h-1.229a.411.411,0,0,1-.41-.41v-1.106a2.784,2.784,0,0,1-2.416-2.457.544.544,0,0,1,.123-.328.465.465,0,0,1,.328-.123h1.27a.4.4,0,0,1,.41.328.7.7,0,0,0,.7.533h1.106a1.119,1.119,0,0,0,1.147-.942.972.972,0,0,0-.287-.819,1.009,1.009,0,0,0-.778-.369h-.819a3.249,3.249,0,0,1-3.277-2.826,3.118,3.118,0,0,1,2.58-3.4v-1.106a.411.411,0,0,1,.41-.41h1.229a.411.411,0,0,1,.41.41v1.106a2.784,2.784,0,0,1,2.416,2.457.96.96,0,0,1-.082.328.465.465,0,0,1-.328.123H341.6a.4.4,0,0,1-.41-.328.7.7,0,0,0-.7-.533h-1.106a1.119,1.119,0,0,0-1.147.983.972.972,0,0,0,.287.819,1.031,1.031,0,0,0,.819.369h.86a3.163,3.163,0,0,1,2.335,1.024,3.078,3.078,0,0,1,.819,2.416,3.167,3.167,0,0,1-2.58,2.7Z" transform="translate(-239.954 -211.284)" fill="#ffce00"/>
    </g>
  </g>
</svg>
