<svg xmlns="http://www.w3.org/2000/svg" xmlns:xlink="http://www.w3.org/1999/xlink" width="60" height="59.998" viewBox="0 0 60 59.998">
  <defs>
    <linearGradient id="linear-gradient" x1="0.5" x2="0.5" y2="1" gradientUnits="objectBoundingBox">
      <stop offset="0" stop-color="#4bcc51"/>
      <stop offset="1" stop-color="#5fc382"/>
    </linearGradient>
  </defs>
  <g id="whatsapp_marketing" transform="translate(0.018)">
    <path id="Path_80" data-name="Path 80" d="M29.991,0A29.991,29.991,0,0,0,19.018,57.908l40.694-31.96A30,30,0,0,0,29.991,0Z" fill="#278184"/>
    <path id="Path_81" data-name="Path 81" d="M122.287,69.558,100.252,56.975,75.482,89.764l6.059,11.751a30.017,30.017,0,0,0,40.745-31.956Z" transform="translate(-62.577 -43.604)" fill="#156062"/>
    <g id="noun-whatsapp-3196008" transform="translate(-69.097 -34.78)">
      <circle id="Ellipse_95" data-name="Ellipse 95" cx="14" cy="14" r="14" transform="translate(85.08 49.289)" fill="#fff"/>
      <path id="Path_16238" data-name="Path 16238" d="M133.73,46.665a17.063,17.063,0,0,0-14.592,25.92l-2.445,7.326a.675.675,0,0,0,.164.7.687.687,0,0,0,.485.2.613.613,0,0,0,.219-.034l7.32-2.438a17.071,17.071,0,1,0,8.85-31.669Zm10.925,23.981a2.292,2.292,0,0,1-.669,1.6l-1.775,1.755a2.244,2.244,0,0,1-1.584.655h-.089A18.657,18.657,0,0,1,122.8,56.935a2.247,2.247,0,0,1,.656-1.68l1.755-1.775a2.3,2.3,0,0,1,1.612-.669h.656a2.268,2.268,0,0,1,2.117,1.468l1.557,4.131a2.283,2.283,0,0,1-.478,2.356l-.642.676a.9.9,0,0,0-.089,1.127,19.582,19.582,0,0,0,4.957,4.978.9.9,0,0,0,1.106-.1l.7-.656a2.268,2.268,0,0,1,2.349-.478l4.131,1.557a2.275,2.275,0,0,1,1.468,2.117Z" transform="translate(-34.785)" stroke="#fff" stroke-width="0.5" fill="url(#linear-gradient)"/>
    </g>
  </g>
</svg>
