<svg xmlns="http://www.w3.org/2000/svg" width="27" height="27" viewBox="0 0 27 27">
  <g id="calendar_green" transform="translate(-0.001 0)">
    <rect id="Rectangle_340" data-name="Rectangle 340" width="27" height="27" transform="translate(0.001 0)" fill="none"/>
    <g id="calendar_top_bar" transform="translate(3.426 3.016)">
      <g id="Group_60" data-name="Group 60">
        <g id="Group_59" data-name="Group 59">
          <circle id="Ellipse_8" data-name="Ellipse 8" cx="0.882" cy="0.882" r="0.882" transform="translate(14.792 7.396)" fill="#61bf23"/>
          <path id="Path_108" data-name="Path 108" d="M17.87,1.655H16.795V.827a.827.827,0,0,0-1.655,0v.827H11.376V.827a.827.827,0,1,0-1.655,0v.827H6V.827a.827.827,0,1,0-1.655,0v.827H3.309A3.313,3.313,0,0,0,0,4.964V17.87A3.313,3.313,0,0,0,3.309,21.18H9.638a.827.827,0,0,0,0-1.655H3.309A1.657,1.657,0,0,1,1.655,17.87V4.964A1.657,1.657,0,0,1,3.309,3.309H4.343v.827A.827.827,0,0,0,6,4.137V3.309H9.721v.827a.827.827,0,1,0,1.655,0V3.309H15.14v.827a.827.827,0,0,0,1.655,0V3.309H17.87a1.657,1.657,0,0,1,1.655,1.655V9.68a.827.827,0,1,0,1.655,0V4.964A3.313,3.313,0,0,0,17.87,1.655Z" fill="#61bf23"/>
          <path id="Path_109" data-name="Path 109" d="M274.8,270a4.8,4.8,0,1,0,4.8,4.8A4.8,4.8,0,0,0,274.8,270Zm0,8.008a3.211,3.211,0,1,1,3.211-3.211A3.215,3.215,0,0,1,274.8,278.008Z" transform="translate(-258.414 -258.414)" fill="#61bf23"/>
          <path id="Path_110" data-name="Path 110" d="M372.943,331.625h-.357v-.833a.793.793,0,0,0-1.586,0v1.625a.793.793,0,0,0,.793.793h1.15a.793.793,0,1,0,0-1.586Z" transform="translate(-355.41 -316.242)" fill="#61bf23"/>
          <circle id="Ellipse_9" data-name="Ellipse 9" cx="0.882" cy="0.882" r="0.882" transform="translate(12.019 7.396)" fill="#61bf23"/>
          <circle id="Ellipse_10" data-name="Ellipse 10" cx="0.882" cy="0.882" r="0.882" transform="translate(7.396 12.019)" fill="#61bf23"/>
          <circle id="Ellipse_11" data-name="Ellipse 11" cx="0.882" cy="0.882" r="0.882" transform="translate(4.623 7.396)" fill="#61bf23"/>
          <circle id="Ellipse_12" data-name="Ellipse 12" cx="0.882" cy="0.882" r="0.882" transform="translate(4.623 12.019)" fill="#61bf23"/>
          <circle id="Ellipse_13" data-name="Ellipse 13" cx="0.882" cy="0.882" r="0.882" transform="translate(4.623 14.792)" fill="#61bf23"/>
          <circle id="Ellipse_14" data-name="Ellipse 14" cx="0.882" cy="0.882" r="0.882" transform="translate(7.396 14.792)" fill="#61bf23"/>
          <circle id="Ellipse_15" data-name="Ellipse 15" cx="0.882" cy="0.882" r="0.882" transform="translate(7.396 7.396)" fill="#61bf23"/>
        </g>
      </g>
    </g>
  </g>
</svg>
